<?xml version="1.0" encoding="utf-8"?>
<!-- Generator: Adobe Illustrator 17.1.0, SVG Export Plug-In . SVG Version: 6.00 Build 0)  -->
<!DOCTYPE svg PUBLIC "-//W3C//DTD SVG 1.1//EN" "http://www.w3.org/Graphics/SVG/1.1/DTD/svg11.dtd">
<svg version="1.1" id="Layer_1" xmlns="http://www.w3.org/2000/svg" xmlns:xlink="http://www.w3.org/1999/xlink" x="0px" y="0px"
	 viewBox="0 0 736 435" enable-background="new 0 0 736 435" xml:space="preserve">
<path fill="#FFFFFF" d="M286.9696655,384.1088257c0-6.8794556,0-13.7588806,0-20.6938477
	c-7.9775085,3.6949768-12.1998291,10.5418701-15.1078796,18.7221375
	c-2.4480896,6.8863525-5.5365906,13.5450745-8.3416138,20.3045349c-0.3286438-0.1345215-0.6572571-0.2690125-0.9859009-0.4035339
	c1.6967163-7.7027588,3.3934021-15.4054871,5.0901184-23.1082458c-0.3388672-0.1003418-0.6777344-0.2007141-1.0166016-0.3010559
	c-2.4171143,7.0548706-4.834198,14.1097717-7.2513123,21.1646423c-0.2803345-0.1123352-0.5606689-0.2246704-0.8410034-0.3369751
	c0.9441528-8.1662598,1.8883057-16.3325195,2.832428-24.4987488c-0.2567139-0.0161133-0.5134277-0.0322571-0.7701416-0.0483704
	c-1.4066467,6.5022278-2.8132629,13.0044861-4.2495117,19.6435242c-2.2768555-3.4666443-3.7102661-12.0580139-2.8147888-16.5960388
	c1.1083679-5.6167908,2.7518616-11.1851501,3.2276306-16.8530884c0.4488831-5.3480225-3.4891663-9.2651367-8.6760559-8.9904785
	c-5.5027771,0.2915039-10.9619141,1.4065857-17.1322327,2.2574158c-1.2078857-2.5663147-2.683136-5.7007141-4.1583862-8.835083
	c0.276413,2.9692383,0.9468842,5.8069153,2.0735168,8.4502258c1.1045074,2.5913391,0.3820953,3.7008362-2.2373199,4.127594
	c-2.6385803,0.4299011-5.2531281,1.0073242-7.8782196,1.5201416c-0.0003967,0.4220886-0.0008087,0.8442078-0.0012207,1.2662964
	c1.6811066,0,3.6199188,0.5505981,4.9989471-0.0948181c6.1397705-2.8736267,9.746109,0.2427979,12.9017792,4.8909302
	c0.1711121,0.2520447,0.6806335,0.2976685,0.8084717,0.5520325c1.2849426,2.5566711,3.5574646,5.1291199,3.5771179,7.7121277
	c0.055603,7.2950134-0.8184204,14.5971069-1.3375244,22.0598145c-3.0487671,0.0611877-6.9724426-0.2024231-7.5818176,4.9669189
	c-0.6061707,5.142395-1.2758331,10.2773438-1.9176636,15.4155579c0.204834,0.0697021,0.409668,0.1394043,0.614502,0.2091064
	c1.4116211-5.5621643,2.8232727-11.1243591,4.2348938-16.6865234c0.69104-0.2077026,1.3820496-0.4154053,2.0730896-0.6231079
	c2.9102173,2.72995,6.3337097,5.096283,8.593811,8.2867737c2.5247192,3.5640564,4.1296692,7.817749,5.8713379,11.8842163
	c1.054657,2.4623718,1.9305725,5.0922852,2.3136292,7.7301025c0.5805359,3.9978638-1.6838379,4.3287354-4.9514771,3.4318848
	c-1.6031189-0.4400024-3.4268494-0.0762329-5.1507568-0.0762329c0.0324402,0.5656738,0.0648804,1.1313477,0.09729,1.6970215
	c8.0464172-0.4382324,16.0928345-0.8764038,24.1392212-1.3146362c1.9455872,0.3096924,3.8839111,0.8271484,5.8379211,0.8950806
	c12.0643616,0.4197388,24.1315308,0.7698364,36.2001648,1.0355225c1.0617371,0.0234985,2.1405029-0.7251587,3.2113647-1.1152344
	l-0.1422424,0.1266479c2.6625977-0.0186768,5.3254089-0.069397,7.9877625-0.0509644
	c29.7110901,0.2053223,59.4221191,0.4212646,89.1966553,0.6048584c13.0456543,0,26.0913086,0,39.1369629,0
	c-7.0266113-1.0307007-14.0717773-0.916626-21.1096191-1.09375c-2.4004211-0.0604248-6.8299255-0.8152466-6.8390198-1.3162231
	c-0.0570984-3.1418457,0.2647705-6.6030884,1.6391602-9.3745422c1.512085-3.0490723,4.29245-5.4691772,6.5757141-8.2304382
	c-2.688324,1.2229004-5.6326294,2.5622253-8.7867126,3.9969788c0-9.2688599-0.8384399-18.5063782,0.2429199-27.5134277
	c1.0198669-8.494812-0.5181885-17.2733765,4.6315002-25.5415344c5.0639648-8.1304321,6.4588318-18.4555969,15.289032-25.6661682
	c4.7621155,11.9634094,9.6889954,23.6903992,16.0004883,34.7140808c-1.5342102-7.087616-3.8388977-13.7947693-6.083374-20.5220032
	c-2.1764832-6.5236206-4.2374268-13.0861816-6.452301-19.5965576c-1.4307251-4.2054749-4.547821-3.9831238-6.8965149-1.4598083
	c-3.2839355,3.5280151-6.2748718,7.5037842-8.5652466,11.7350464c-2.5748291,4.7567139-4.2307129,10.0108643-6.286377,15.0486145
	c-0.8400879-15.3617859-1.2181396-30.5108948-0.7243958-45.6315613c0.4195862-12.8497314,1.898407-25.6628113,2.8064575-38.4993286
	c0.6454773-9.1246338-1.8625183-18.5148926,2.8312073-27.3172607c1.1109009-2.0834045,0.7783508-4.936554,1.1830139-7.9876404
	c-11.1768799,13.2749634-5.0003662,28.9919128-7.6070557,44.7039795c-1.402832-2.3424683-2.2175293-3.3213501-2.6260986-4.4475403
	c-2.4619751-6.7863464-5.1067505-13.524353-7.1625061-20.4355469c-2.695343-9.061554-8.1554871-12.1294861-18.2965088-8.9002686
	c1.7696838,0.436615,2.7902222,0.6635742,3.796814,0.9411011c4.0094299,1.1054077,8.431427,1.5461731,10.0546875,6.4225159
	c2.2754211,6.8353271,5.171051,13.5302429,6.7053528,20.5256042c1.2487793,5.6936035,5.6980896,10.1959839,6.5670776,15.0408325
	c1.7119446,9.5443726,0.5043945,19.6123962,0.5043945,29.4638367c-0.6165771,0.132019-1.2331543,0.2640076-1.8497009,0.3959961
	c-1.1968994-4.3575439-2.7612-8.6553345-3.4823914-13.090271c-0.6588745-4.0516968-0.252594-8.2640991-0.585022-12.3839722
	c-0.7081909-8.7771301-10.4574585-13.8739624-17.1048584-8.1674194c-4.2697449,3.6654358-6.452301,9.7621155-9.5704346,14.7690125
	c0.5799866,0.3566895,1.1600037,0.7133484,1.7400208,1.0700378c2.0178833-2.9016113,3.9581604-5.8612976,6.0739136-8.6897278
	c2.4785461-3.3134766,5.0366821-6.8765869,10.0052185-5.3202515c4.6462402,1.4553528,3.5457153,5.5473328,3.9494019,9.0854187
	c0.7080078,6.2060242,0.967041,12.6751709,3.0270996,18.4596558c2.3997803,6.7383118,7.0233765,12.6779175,6.4190063,20.3978271
	c-0.2566223,3.2776489-0.25177,6.5765076-0.3406982,9.8664246c-0.394989,14.6186523-0.7744751,29.2377625-1.1948242,43.8557129
	c-0.0159912,0.5557251-0.3950195,1.1010742-0.881073,2.3751526c-2.5545044-4.6438904-5.2026672-8.4603882-6.8356934-12.6705933
	c-2.2124329-5.703949-3.1314392-11.943634-5.6452942-17.4813843c-1.1522217-2.5382385-4.5570679-5.0526123-7.3414612-5.6243286
	c-4.5219116-0.9284058-9.3737183-0.2502441-14.6164856-0.2502441c2.9021912,1.3909302,5.4104614,2.9835205,8.1500244,3.8001404
	c2.9496155,0.8792419,6.7479553-0.9697571,8.5258789,3.3396912c1.3110352,3.1777649,4.4681396,6.1576538,4.4508667,9.2124023
	c-0.0487976,8.6229858,6.4065247,13.7909851,9.3516541,20.719696c2.7120361,6.3804016,6.3047791,12.9221802,4.212738,21.4988098
	c-4.7376709-5.790863-8.9109497-10.8918762-13.0842285-15.9928894c3.3883667,7.6481934,7.7215576,14.7557983,11.6455688,22.08255
	c1.3959961,2.6064758,1.7983398,5.7450867,2.7817383,9.0721741c-3.8344421,0.3025513-6.147522,0.4850464-8.4606018,0.6674805
	c-2.1357727-0.4851074-4.2670898-1.3657227-6.40802-1.3898315c-12.0519714-0.1358032-24.1062927-0.0655518-36.2589417-0.0655518
	c-2.8612671-9.7785645,9.697113-14.2355652,7.1343384-23.0918274c-3.7810669,2.1824036-1.9810486,9.1044312-9.0296326,10.0245361
	c0.4450989-5.0846252,1.2196045-9.7711487,1.1876831-14.4522095c-0.0622559-9.1212463-0.872467-18.2428284-0.7672119-27.3572998
	c0.0466919-4.0447693,1.1807556-8.202179,2.4903259-12.0826721c3.3567505-9.9467163,7.2969666-19.7004089,10.4841919-29.696991
	c0.5969849-1.872406-0.631134-5.1172485-2.1341858-6.583313c-0.9584656-0.9348755-3.9931641,0.1329651-6.0596924,0.5079956
	c-1.2144165,0.2203979-2.3558655,0.8427429-3.4650269,1.2598572c-0.415863-2.7703552-0.8259583-5.2013245-1.1385193-7.6448059
	c-0.7466736-5.836731-2.061554-11.6956177-1.9072571-17.5126953c0.0770264-2.9037781,2.1738892-7.1236572,4.574585-8.3346558
	c6.7139587-3.3866577,14.0623474-5.5154724,21.6527405-8.3228149c-6.313385,0.8583374-12.4393311,0.887085-17.9845581,2.6959229
	c-4.5536499,1.4854126-10.1637268,2.8117981-11.9371033,8.6046753c-2.3657532,7.7278442-2.5648804,15.2964172,1.9999084,22.4421997
	c2.7364502,4.283783,2.0103455,9.9785156-1.6011047,13.8139343c-2.8048706,2.9787903-5.5397339,6.0234375-8.3057251,9.0388184
	c0.2404175,0.2523499,0.4808044,0.5046692,0.7212219,0.757019c3.3320007-2.0495605,6.664032-4.0991211,10.4445496-6.4245605
	c0,20.079071,0,39.2835083,0,58.4879456c-1.9859009-1.9571533-3.0788269-4.2529602-4.4316101-6.3838501
	c-1.9194336-3.0236511-3.7594604-6.1685791-6.1317749-8.8149414c-2.6263123-2.9297791-6.1542053-2.6428833-7.7206116,0.9131775
	c-2.8751221,6.5270691-5.0127258,13.3792114-7.4298706,20.105896c-0.0389404,0.1083984,0.2775574,0.3444824,0.5384216,0.650116
	c1.7702942-3.0265198,3.5853271-5.9053345,5.1721802-8.9048767c1.6082458-3.0400085,2.9909058-6.1993408,4.4724121-9.3063965
	c0.7180786,0.0074158,1.4361572,0.0148315,2.1542358,0.0222473c6.2061768,10.137085,12.348053,20.3022461,13.8857727,32.4792786
	c-0.3925171,0.196106-0.7850037,0.3922119-1.1774902,0.5883179c-1.2886963-1.9433899-2.5773926-3.8867798-3.8660889-5.8301392
	c0.4618225,3.6159363,2.1300354,6.7232971,3.2858582,10.0108337c0.7849121,2.2326355,1.3075562,4.7859802,0.969635,7.0499573
	c-0.105835,0.7089844-3.3924561,1.3178711-5.2285767,1.3335571c-12.7680054,0.1094971-25.5374756,0.0618896-38.3063965,0.0318604
	c-1.5993042-0.0037231-3.1981506-0.199585-4.9444275-0.3162842c0.3067627-4.0024414,0.2220154-7.5320435,0.9321289-10.8937378
	c0.7516479-3.5583801,1.2470093-8.1385193,3.6397095-10.1890564c5.6560059-4.847168,8.254303-11.1096497,10.6394348-17.5980835
	c2.0912476-5.6889343,6.3816223-8.8941956,11.3943481-11.4500427c2.7903748-1.42276,5.7525024-2.5087585,8.7831726-3.8091125
	c-3.9028015,0-7.5880432-0.4358215-11.1074829,0.140686c-2.7207336,0.4456482-6.0744629,1.4887085-7.6484985,3.4616089
	c-2.5698242,3.2209778-3.9812622,7.3866882-5.7661438,11.2076721c-1.8399963,3.9390564-2.8363953,8.499939-8.0966492,10.0588684
	c-0.5555725-0.7507019-1.6524048-1.5463257-1.619873-2.2926941c0.4307251-9.8781738,0.8315125-19.7649231,1.6404419-29.6166382
	c0.4889832-5.9550781,1.6527405-11.8561401,2.5499878-17.7759399c0.8549194-5.6405334,1.7172546-11.2808838,2.6994019-16.8998108
	c0.1017761-0.5821838,1.0406494-1.0180054,1.6066895-1.5359497c8.7847595,10.8334045,11.1805725,12.0982666,15.4028931,9.3990784
	c-2.2561646-1.7281799-4.8551941-3.625946-7.3491211-5.6529846c-3.0796814-2.5031433-6.071991-5.1137695-10.4577942-8.8252869
	c-1.8237,5.0209961-3.4491577,8.4790649-4.2989807,12.1182556c-0.8725586,3.7367554-0.9873352,7.6505127-1.5715027,12.6708984
	c-1.7514954-6.1092834-6.094574-10.4620667-3.5390015-16.3096924c1.500061-3.4323425,3.0812378-6.8771667,5.0814209-10.0271301
	c1.4779663-2.3275452,3.6011047-4.2803345,5.5977173-6.2357483c3.3809204-3.3112488,7.4383545-2.1364136,9.276886,2.3085022
	c1.2771606,3.0877075,0.7374573,7.2497864,4.6184998,9.5337524c-1.0084534-5.0748291-1.9298096-9.4777527-2.7474365-13.8998413
	c-0.6485291-3.5075684-2.54953-5.0100708-6.2163696-4.8962708c-5.6416321,0.1750488-9.4608154,2.2822571-13.3885803,6.836792
	c-4.6774597,5.4238281-7.6620483,11.6061096-8.4985046,17.8786621c-0.6603699,4.9518433,3.1713257,10.3999939,4.5218201,15.7504883
	c1.4628296,5.7955322,2.8177795,11.6929321,3.3439026,17.6235962c0.3397217,3.8292847-0.995575,7.7882385-1.3851318,11.7084961
	c-0.2183838,2.197876-0.0393372,4.4352722-0.0393372,6.6548462c-0.6116333,0.181488-1.2232971,0.3629761-1.8349304,0.5444336
	c-4.7538757-8.3124695-9.5077209-16.624939-14.4586792-25.2820129c-4.8620911,3.7909241-6.1160583,8.0498657-6.9273376,12.7348938
	C289.5310059,380.3009033,287.9794617,382.1580811,286.9696655,384.1088257z"/>
<path fill="#FFFFFF" d="M729.4362183,432.1568604c-15.4312744,0-30.6226807,0-45.5343018,0
	c-1.4153442-10.5015869,7.0845947-11.1551208,12.2316895-13.9316711c3.0736694,3.4496765,5.4470825,8.2698059,9.1001587,9.6150818
	c3.7557983,1.3830566,8.7605591-0.6253662,13.21875-1.1497192c-0.1151123-0.7103271-0.2302856-1.4205933-0.3453979-2.1309204
	c-2.2590942,0.5067749-4.6372681,0.7207642-6.7526245,1.5809326c-4.4888306,1.8254395-7.0828247,0.3755493-7.3234253-4.4571533
	c-0.0496216-0.9967041,0.0185547-1.9987488,0.0113525-2.9981689c-0.0446777-6.1777039-4.7166138-9.302948-10.3327026-6.5370483
	c-3.87323,1.9075012-7.401062,4.5161743-11.5092163,7.0770874c0.4849854-5.2637634,1.0309448-10.3876953,1.4172363-15.5236511
	c1.519165-20.1975403-2.473999-40.6634216,4.097229-60.6862488c2.6799316-8.1660156,8.5244141-15.0830078,18.7078247-16.2566833
	c-0.6173706,3.5527649-0.9726562,6.9291077-1.8197632,10.1771545c-1.4559326,5.5820923-4.1300049,11.1761169,2.1860962,15.6887817
	c0.6965942,0.4977112,1.0385132,1.7189636,1.22229,2.6672058c0.7125854,3.6750183,1.4934692,7.355011,1.8746948,11.0715332
	c0.4698486,4.5803528,1.2371216,6.0953064,2.7449341,6.3493042c0.3140259-4.2503052,0.7039185-8.5881348,0.90625-12.9346619
	c0.0498657-1.072113-0.3566895-2.2428589-0.8162842-3.2480469c-2.0858154-4.5620117-4.2166138-8.7774658-2.0438232-14.2971497
	c1.4557495-3.6980896,1.3475342-8.1853638,1.2115479-12.2954407c-0.1989136-6.0109863-4.4406738-9.6897278-10.1262817-8.9219666
	c-7.2337036,0.9768982-13.4141846,3.7225952-15.8341064,11.51651c-0.2253418,0.7256775-0.8959961,1.3130188-0.9197998,1.3464355
	c0-16.215271-0.1101685-32.7983398,0.1248779-49.3765259c0.0333252-2.3480225,1.531189-4.7901306,2.7284546-6.982666
	c2.4307861-4.4513855,6.0524902-8.3818359,5.1819458-14.0739441c-1.0643311-6.960083-2.0060425-13.9389038-3.1193848-21.7406006
	c-5.5015869,8.2021484,3.7246094,18.0560608-4.7565308,25.7579956c-0.1387329-12.5995789-1.0952759-24.1560974,3.2056274-35.6664734
	c1.9101562-5.1120605,5.319519-7.6114502,8.9377441-10.5923462c5.1546631-4.2467041,9.0194702-0.8592834,13.0029297,2.1027527
	c4.7126465,3.5042419,7.757019,9.9607544,6.3580933,13.8717957c-2.6397705,7.3802795-5.3530273,14.734375-8.0440674,22.0963135
	c-1.4202271,3.8851318-0.4971313,10.2824402,1.8110352,11.7689514c-0.0625-1.3466187-0.5232544-2.7713623-0.1179199-3.8793335
	c3.303833-9.0313416,6.3639526-18.1873779,10.3266602-26.9299316c2.710083-5.9789734,3.383728-13.1083679-0.229187-16.9191589
	c-2.9418335-3.1029968-6.1186523-5.9914856-9.2901611-8.8660278c-3.4768677-3.1513367-7.8091431-3.2498779-11.8377686-0.8117065
	c-5.4840088,3.3189697-10.1983032,7.2799377-12.6842651,13.6341553
	c-0.5280151-16.8540649-0.7116089-33.4560547-0.2994385-50.0432739c0.0524292-2.1108093,2.8309937-4.817627,5.0203247-6.0757446
	c4.8015747-2.7592163,10.1607666-4.5310974,15.0587769-7.1438446c5.442688-2.9032288,6.2567139-7.6800232,2.6583252-12.8134003
	c-0.7526245-1.0737305-1.4675293-2.1738739-2.2094116-3.2552948c-4.4168701-6.4382019-9.7548218-8.065155-16.2184448-4.8162994
	c-1.3461304,0.6765747-2.4835205,1.7683716-4.0756836,2.9305267c-0.2800293-1.1660156-0.53302-1.7654266-0.5536499-2.3727417
	c-0.4072266-11.960968-1.0811157-23.9230347-1.074585-35.8845062c0.0047607-8.6346741-0.5354004-17.6980133,1.8450928-25.7816467
	c2.3463745-7.9679413,3.4797363-15.530426,2.7632446-23.6339111c-0.2963257-3.3519897-0.0490723-6.7520447-0.0490723-10.7823029
	c-0.9628906,1.8324127-1.6367798,3.1149445-2.7850952,5.3002625c-0.805603-4.8595581-1.4341431-8.6508789-2.0626831-12.4421997
	c-0.4506836-0.0488129-0.9013672-0.0976257-1.3521118-0.1464386c-1.5033569,8.0494995-3.0067749,16.098999-4.5101318,24.1484985
	c0.5319214,0.0970154,1.0639038,0.1940155,1.5958862,0.2910156c0.2717896-1.6436768,0.5435181-3.2873535,0.914978-5.5337219
	c1.0023193,2.7085266,1.7781372,4.8049774,2.5524292,6.8972015c-5.2565918,1.9645386-5.4545288,2.3467255-2.7750854,7.2587585
	c1.5171509,2.7811279,2.8499146,5.1351166,1.1359253,8.6547546c-0.9735718,1.9993591,0.0032959,5.0407867,0.371521,7.5737
	c0.324707,2.2340851,1.4368286,4.4050598,1.4835205,6.6190338c0.171936,8.1595764,0.0557861,16.3254852,0.0290527,24.4889374
	c-0.0299072,9.1067963,0.0383911,18.2165375-0.1933594,27.3184509c-0.0709229,2.7825775-1.8909912,5.7312927-1.3592529,8.2804871
	c1.8760376,8.9944763,3.9678955,17.7863007-3.2043457,25.5832367c-0.420105,0.4566956-0.5003662,1.2260132-0.7388306,1.8498535
	c0.4542236,0.3568115,0.9084473,0.7136536,1.3626709,1.0704651c0.8284302-1.6325684,1.6567993-3.2651367,2.4852295-4.8977051
	c0.4844971,0.2289734,0.9690552,0.4579773,1.4535522,0.6869507c0,2.0646057,0.0286255,4.1296997-0.0057983,6.1937256
	c-0.0771484,4.6223755-0.2494507,9.243927-0.2702026,13.866333c-0.0822754,18.3270874,2.1743774,36.7332153-1.9766846,55.9760437
	c-1.9129028-2.2658691-3.1766968-4.1526794-4.8241577-5.6039429c-1.6253662-1.4317322-4.0652466-3.8590698-5.678894-0.6185608
	c-3.2533569,6.5332336-5.6820068,13.287262-2.9793091,20.9306641c1.2828369,3.6281128,1.3383179,7.6941833,1.9088135,11.5679016
	c0.1708374,1.1601868,0.2028198,2.3408508,0.333252,3.938385c5.0861206-4.1874695,3.9671631-9.1052246,2.1814575-13.2365417
	c-2.5541382-5.9092102-1.6791992-11.0189819,1.5145874-17.0617981c4.8815918,5.092865,7.7607422,10.7524109,7.8673096,17.1753845
	c0.1543579,9.2926636-0.8109741,18.5979309-0.9726562,27.9034424c-0.1939697,11.1582031-0.0507812,22.3224182-0.043396,33.4840088
	c0.0097046,14.5952454,0.0310059,29.1904907,0.0440063,43.7857361c0.0049438,5.5775452,0.0007324,11.1551208,0.0007324,16.8332825
	c-10.0924683-1.3139343-12.0974121,0.3776855-13.0392456,9.7309265c-0.2983398,2.9621887-0.8099976,5.9344482-1.5921631,8.8016357
	c-0.3364258,1.233429-1.6099854,2.2112122-3.1855469,4.2441711c0-65.5058289,0-129.5319214,0-193.0513611
	c1.4362793,4.0489807,2.982605,8.4081421,4.5289307,12.7672729c0.2498779-4.5772095-1.3198242-9.1184387-0.3947144-13.0765991
	c2.5066528-10.724823,0.3414307-21.0780945-1.0654907-31.5151367c-0.7851562-5.824585-2.7922363-11.5176086-3.2353516-17.3469238
	c-0.56604-7.4467163-0.1707153-14.9719086-0.0812378-22.4619751c0.1867065-15.6317749,0.5454712-31.262085,0.642334-46.8941803
	c0.0809937-13.0692596-0.022522-26.1414642-0.2089233-39.210022c-0.1469727-10.3008728-0.5446167-20.5981903-0.8342896-30.9311905
	c0-8.0431061,0-16.0862122,0.0048218-24.1320496c0,8.060936,0,16.1218643,0,24.1828003
	c-2.5501709-0.8263931-4.4862671-5.3730545-7.9006958-1.3071747c-0.1290894,0.1536636-1.041748-0.4418488-1.6154785-0.5522461
	c-1.3398438-0.2578354-3.0975342-1.0312653-3.9311523-0.4715958c-0.8195801,0.5502319-0.7080078,2.4876175-1.0050049,3.8162994
	c2.1613159-2.5686188,5.3257446-3.1746445,6.2897339-0.6033401c1.7944946,4.7861557,4.5224609,2.6985092,7.4872437,1.3357773
	c0,46.8339539,0,93.19104,0,139.7586212c-6.0430298-0.5202637-8.2442627,3.2983398-9.9821167,7.6125793
	c-4.8218994,11.9700928-9.6091309,23.9541626-14.586731,36.3734741c-0.7285767-6.9656372-1.9484253-13.3757935-1.9376831-19.7838745
	c0.0151978-9.1016846,1.0292969-18.1975403,1.4492188-27.3036194c0.7559204-16.3911743,1.482605-32.7852783,1.9685669-49.1856384
	c0.0726318-2.4502869,1.9940186-5.2106018-0.5706787-7.6064606c-0.2930908-0.2738647,0.5285645-1.5270691,0.4647827-2.295578
	c-0.3712769-4.4740753-0.8527222-8.9390106-1.296936-13.4070282c-0.6757202,0.0413208-1.3514404,0.0826416-2.0271606,0.1239624
	c-0.3989258,3.6780853-0.9477539,7.3477478-1.1550903,11.0365906c-0.2105713,3.7483826-0.2511597,7.5241852-0.0598145,11.2723541
	c0.2011108,3.9407806,0.909729,7.8550415,1.1283569,11.7957458c0.2002563,3.6082458,0.0424805,7.2363434,0.0424805,10.8556976
	c-2.6243286-17.5735779-5.0678101-19.5708008-20.3533325-15.440155c0.7491455,12.6978455-0.49646,25.3234863-5.0640869,37.5969086
	c2.7420654-3.8495789,5.0471802-7.8394318,6.2088623-12.1382904c1.4846191-5.4938354,1.9625854-11.2531891,3.0453491-16.8651123
	c0.4735107-2.4540863,0.3173218-5.4749756,4.2316284-5.6296387c3.7265625-0.1472321,5.7641602,2.1496429,6.4003906,5.0471802
	c2.3637695,10.7648315,4.8583984,21.4270325,4.5826416,32.7100983c-0.796814,32.6040039-0.8984985,65.2249451-1.3069458,97.8388062
	c-0.0119019,0.9466858-0.4038696,1.8885803-0.6186523,2.8327026c-0.4475708-0.0325928-0.8951416-0.0651855-1.3427124-0.0977783
	c0-1.7315979,0.246521-3.5061646-0.0466919-5.186615c-0.8464966-4.8515625-1.7600098-9.7048645-3.0131226-14.4610291
	c-0.2573853-0.9768982-2.6828613-2.4302979-3.1259766-2.1437988c-3.3759766,2.1827698-6.8773193,4.390625-9.6254272,7.2718506
	c-3.7175293,3.8974304-3.8760376,9.1656189-2.9092407,14.0939636c1.7675781,9.0096741,4.7524414,17.8664246,0.861084,27.068573
	c-0.4191895,0.9913025,0.2716064,2.4519348,0.4475098,3.6948547c1.6744385-3.3659973,2.24823-6.6697998,3.4885864-9.7008362
	c1.9708862-4.8160095,2.0291138-9.1855164,0.3335571-14.3135986c-1.56604-4.7363281-1.4082031-10.1690979-1.3190308-15.2830811
	c0.0626831-3.5973511,4.5817261-7.2517395,7.562439-6.0009766c1.6768188,0.7036133,2.3112183,4.0438843,3.2495117,6.2662964
	c0.300293,0.7112122-0.0378418,1.6647949,0.0990601,2.4766541c0.8181763,4.8514099,1.6691284,9.6975403,2.548584,14.5382385
	c1.1177368,6.1517334,3.1305542,12.2785339,3.260437,18.4476318c0.5005493,23.769043,0.4125977,47.5506592,0.5250854,71.3276672
	c0.0335083,7.0812073,0.005127,14.1627197,0.005127,21.3962402c-2.0290527,0-2.8379517-0.0061035-3.6467285,0.0009766
	c-9.7681885,0.0854187-11.1959839,1.1226807-10.6192017,10.9432983c0.420166,7.1535339-1.4182739,11.9609985-8.7608032,13.763855
	c-0.2412109,0.0592041-0.3438721,0.6826477-0.5621948,1.1532593c2.3110962-0.1113586,4.7988281-0.9906921,6.3300171-0.1427612
	c2.947876,1.6324463,5.0969238,1.3928528,7.3284912-0.8210754l-0.0935059-0.1095886
	c0.8828125,0.0877991,2.2263184,0.5799255,2.5669556,0.1918335c1.3001709-1.4813843,2.2772827-3.2463989,3.375061-4.9054565
	c0.7635498,0.348114,1.5270996,0.6962585,2.2906494,1.0443726c0.1990356,2.5988159,0.5045166,5.1946106,0.5779419,7.7969666
	c0.2580566,9.1401062,0.2277222,9.1409607-8.3585815,10.8686218c7.4488525,0,14.8977051,0,22.3466187,0
	c-0.0004272-0.4768066-0.0008545-0.9536133-0.0012207-1.4304199c-2.907959,0-5.815918,0-9.8083496,0
	c0.7350464-3.6419067,1.057251-6.7340088,2.2113037-9.4760437c0.19104-0.453949,4.0183716,0.6225281,6.8358154,1.1070862
	c-1.5949707-1.9458923-2.9538574-3.6037598-4.8114624-5.8700256c2.1177368-1.2043152,4.1338501-2.3508301,6.1500244-3.4973145
	c0.7871704,2.1837463,1.6189575,4.3530884,2.3325195,6.5606079c0.1953735,0.6044617-0.0540161,1.338501,0.0539551,1.9875793
	c0.8224487,4.9434204,4.7675781,7.5670776,7.0674438,6.1104736c-0.9436035-2.5771484-3.1728516-5.6195068-2.4017334-7.1517029
	c2.0129395-3.9994812,1.2827148-6.7560425-1.4260254-9.7797852c-2.9290161-3.2695923-6.5812378-3.5525513-10.4889526-2.9559021
	c-1.5410767,0.2352905-3.0285645,0.8214111-4.9529419,1.3641052c0-18.4528198-0.1508789-36.3598938,0.0910645-54.2616577
	c0.0735474-5.4399109,7.3759155-12.1007996,14.3087769-13.0756836c0,2.9651794,0.2249146,5.8190308-0.0473022,8.6246338
	c-0.5521851,5.6915588-0.6711426,10.9838257,3.1292114,16.0645142c1.7385254,2.3241882,1.5730591,6.1509094,2.0222168,9.3313599
	c0.2667236,1.8882751,0.0488281,3.8449707,0.0488281,5.7709045c0.9766846-1.6179199,0.4187012-3.4867554,1.0814209-4.6743164
	c1.9821777-3.5519104,1.7404785-6.6652222-0.0297852-10.2532959c-0.9428711-1.9108887-0.6044922-4.4794617-0.7418213-6.7573547
	c-0.3494263-5.7930298-0.1415405-11.6820068-1.1888428-17.3416138c-0.4522095-2.4441223-3.1223145-5.6773987-5.3807373-6.2658691
	c-2.4871826-0.6481628-5.9733887,0.8179626-8.4338379,2.3262634c-1.9953613,1.2232971-3.1167603,3.8722229-4.9094238,6.2677612
	c-0.5802002-7.2360535-1.5356445-14.0846252-1.6053467-20.9421997c-0.2385864-23.4857483-0.0044556-46.9767761-0.3109131-70.4610901
	c-0.0922241-7.0700073,0.7054443-13.7902832,3.1950073-20.3832397c5.081665-13.4577026,9.9656982-26.9909363,15.1528931-40.4073486
	c1.2962036-3.3527222,3.4345703-6.3798523,5.1858521-9.5566101c2.022583,3.2484131,3.2893677,6.1574402,3.3582764,9.0945435
	c0.28125,11.9855347,0.2479248,23.9797058,0.2373047,35.9706116c-0.0531006,59.9657288-0.15802,119.931427-0.1655884,179.8971558
	c-0.0006104,4.8232727,0.9120483,9.776001-4.9567871,12.3942871c1.3705444-0.1934509,2.7410278-0.3869324,4.6677246-0.6588745
	c0,3.3420105,0,6.3974304,0,9.4529114c0.3710938-0.0179443,0.7421875-0.0359497,1.1132812-0.053894
	c0-3.2376709,0-6.4753418,0-9.6955566c4.6219482-0.8777771,7.3043823-2.7715149,8.7770386-7.2573547
	c2.6409302-8.0444031,3.0425415-7.9125671,7.3887329-9.5033569c0,9.0567932,0.0595093,17.7991943-0.1400757,26.535675
	c-0.0126953,0.5543213-2.0167236,1.4532471-3.1341553,1.5194702c-3.3998413,0.201355-6.8192139,0.072937-10.2310181,0.072937
	c-0.0792236,0.4065552-0.1584473,0.8130493-0.2376709,1.2196045c1.0537109,0.3671875,2.1346436,1.1105347,3.1564941,1.0366821
	c4.4463501-0.3214111,8.8988647-1.4306641,13.3062134-1.2432861c10.305603,0.4379272,20.5570679,1.5601196,30.8807373-0.1769409
	c3.5576172-0.5985718,7.3890991-0.4854126,10.9603882,0.111145"/>
<path fill="#FFFFFF" d="M472.9733276,296.300293c-2.5455627-1.3955688-4.1715698-2.4973755-5.9506836-3.2243347
	c-6.2162476-2.5400696-11.6791077-0.9505005-16.266571,3.616272c-1.56604,1.55896-3.366272,3.6282959-3.6104736,5.6402893
	c-1.0501099,8.6535034-3.6408997,17.6835022,3.990448,25.0723572c0.812439,0.7866516,0.6637878,2.5180664,1.0946045,3.7650146
	c0.2512207,0.7271729,0.7680054,1.3625793,1.1653137,2.0392456c0.3746033-0.1512756,0.7492371-0.3025818,1.1238708-0.4538574
	c-0.719696-2.4262695-1.6673889-4.8119202-2.1088257-7.2878113c-0.7739868-4.3411865-4.056366-8.4909363-0.9003296-13.2275085
	c0.7290039-1.0940552,0.4686584-2.9077454,0.5032043-4.394043c0.1881104-8.0895386,7.2470398-11.8757935,14.4093018-8.118866
	c5.0182495,2.6322632,7.633728,6.0076294,6.6441345,11.8231201c-0.3027649,1.7791443-0.0232544,3.6530457-0.0592957,5.4825745
	c-0.2158813,10.9596863-0.4938965,21.9183655-0.6600647,32.8787842c-0.2417908,15.9473877-0.403717,31.8959961-0.6293945,47.8436584
	c-0.0033875,0.2394409-0.3892517,0.4734802-0.5966187,0.710022c-0.0458984-0.4573975-0.0917969-0.9148254-0.1377258-1.3722229
	c-3.2144165,0.2066345-6.9064331-0.5293884-9.5476379,0.8087158c-6.218811,3.1506958-10.0715942,8.3991699-10.5238037,15.8178406
	c-0.1535645,2.5194092-1.1506653,5.0631409-2.1493835,7.4326172c-0.8887329,2.1086426-2.3125,3.9918213-3.5000916,5.9744873
	c0.3084717,0.2619629,0.6169128,0.5239868,0.9253845,0.7859497c1.8579102-1.8205566,4.2964172-3.3330688,5.4582214-5.5229492
	c2.8050537-5.2871704,4.7462769-11.0366211,7.6098022-16.2865906c0.9840088-1.8040771,4.2136536-4.1369324,5.4661255-3.6710205
	c2.5031738,0.9312134,5.8615723,2.2332153,5.4670105,6.4347839c-0.4951172,5.2724304-1.0881958,10.6282349-0.6706848,15.8709106
	c0.5514526,6.9246826,0.9552307,6.8925171-6.9099121,8.0749512c7.7017517,0,14.1022644,0,20.5027466,0
	c0.0123901-0.1450806,0.0248108-0.2901611,0.0372009-0.4352417c-3.2050476-0.2359009-6.4100952-0.4718018-11.1662598-0.8218384
	c2.0144043-4.3990479,3.6677551-8.0095825,5.0290527-10.9824219c4.5189209,2.0884705,8.0080566,3.7010498,11.4971619,5.3135376
	c0.241333-0.5009155,0.482666-1.0018311,0.723999-1.5027466c-4.1303711-4.2776794-6.0530701-12.2832642-15.4246216-8.2102356
	c-0.1961975-1.6304626-0.550415-3.0506897-0.503479-4.4575195c0.1714783-5.1393738,0.5285034-10.2723999,0.7164307-15.411438
	c0.1762695-4.8198853,0.1766968-9.6460876,0.3424988-14.4664612c0.443634-12.8974609,2.844635-26.0965576,0.8592224-38.6029053
	c-1.9130249-12.0506897,0.6914062-23.3182678,0.9638672-34.9263916c0.0465698-1.9836426,2.0157166-3.9454346,3.1704102-5.8731995
	c1.139679-1.9025879,2.3728333-3.7492371,3.5649414-5.6204529c-0.2881165-0.1983032-0.5762329-0.3965759-0.8643494-0.5948792
	c-1.7038574,1.2976074-3.4077454,2.5951843-6.1636963,4.6940002c0-7.7185669,0.0000916-14.0697327,0-20.4208984
	c-0.0003662-21.1420593,0.0127258-42.2841492-0.0278015-63.4261169c-0.0031128-1.625824-0.2291565-3.2890625-0.6169434-4.8697815
	c-1.6790771-6.8447876-3.554657-13.6424561-5.1580811-20.5041809c-0.8204041-3.5108643-1.2178345-7.120575-1.806427-10.6856079
	c-0.674469,0.0809021-1.3489685,0.1617737-2.023468,0.2426453c0.9512329,8.1889343,1.6419373,16.420105,2.9590759,24.5497437
	c0.7017212,4.3310852,3.4687195,8.4553528,3.6047058,12.7270508c0.4653625,14.616272,0.1784058,29.2564697,0.1784058,44.5839233
	c-4.1876526-3.7657166-3.8201599-8.2247009-4.3279114-12.5197144c-0.7934265-6.7116089-1.8364563-13.40625-3.1492615-20.0337219
	c-0.2734375-1.3803406-2.2172241-3.4362183-3.3290405-3.3974609c-1.4966125,0.0522156-3.757019,1.5469055-4.2388306,2.9284363
	c-1.3820496,3.9627991-2.9630432,8.2221375-2.7808228,12.2893982c0.3951416,8.8200989,2.1272278,17.5734253,2.7332153,26.3938599
	c0.3073425,4.4740601-0.6429443,9.0345154-1.0246582,13.5559082c4.2286987-7.6407166,4.6062927-15.5871582,3.2973022-24.0863953
	c-1.0742798-6.9751892-0.765625-14.1784363-0.8062439-21.282135c-0.0063171-1.1098328,1.393158-2.2277222,2.1426086-3.3418884
	c1.9411621,4.561615,3.0947266,8.82724,3.3703918,13.1488647c0.5714111,8.9580994,0.7481384,17.9124146,6.7781372,25.4015198
	c0.6939392,0.8618469,1.2298584,2.1252747,1.2478638,3.2123108
	C473.0290527,282.1701355,472.9733276,288.9627991,472.9733276,296.300293z"/>
<path fill="#FFFFFF" d="M114.8244019,378.6480103c-12.5091934,5.8539734-13.7650375,19.6830444-21.1518784,30.5031128
	c0-14.5861816,0-27.6704102,0-42.2170105c-1.7299576,16.4968872-3.3099899,31.5639954-5.000061,47.680542
	c-4.9677429-4.0491638-9.0064163-7.3410645-13.0450821-10.6329346c-0.276619,0.3042908-0.5532303,0.6085815-0.8298416,0.9128723
	c3.198082,3.6764526,5.7591782,8.4464417,9.7460327,10.7687988c5.7418976,3.344635,6.2229538,7.4334106,4.9512939,13.7172241
	c-13.4319153,0-26.7956619,0-41.5378189,0c1.1528091-4.5844116,0.9023743-9.0635376,2.9636536-10.8024597
	c7.4429092-6.2791138,5.1071701-15.7267456,9.4613266-22.8164368c-0.6103516-0.2633362-1.2206955-0.5267029-1.8310471-0.7900391
	c-2.9478989,6.9271545-5.8958054,13.8543091-8.8437042,20.7814636c-0.5132599-0.1723633-1.0265198-0.3447266-1.539772-0.5170898
	c-0.2125092-3.1383972-0.4250259-6.2767944-0.6375351-9.4151917c-0.3279953,0.0059814-0.6559982,0.0119934-0.9839935,0.0180054
	c-0.2722855,1.815033-0.5445633,3.6300964-0.8168411,5.4451599c-0.3727875,0.2039795-0.745575,0.4079895-1.1183624,0.6119995
	c-4.2490005-6.0392151-8.4979973-12.0784302-12.746994-18.1176453c-0.3681755,0.2299805-0.736351,0.4599609-1.1045227,0.6899414
	c3.9906921,6.6391296,7.2759132,13.8694458,12.1906586,19.7342224c4.0849991,4.8746338,3.6565247,9.3346863,2.6374512,15.1329651
	c-4.9417877-0.2884521-9.6446571-0.5629883-14.5376129-0.8485718c0-9.8302307,0-19.2251587,0-28.6201172
	c-1.041729,2.644043-0.3203964,5.565979-1.1927223,7.8895569c-1.785717,4.7565613-1.4661942,8.9343567-0.0336266,13.8076172
	c1.8744965,6.3766174,0.427784,7.5158386-6.1757698,7.5548401c-2.6003342,0.0153809-5.2008362,0.0025635-7.8012657,0.0025635
	c0.0275192,0.7483521,0.0550385,1.4967041,0.0825539,2.2450562c34.4191933,0,68.8383789,0,100.7564087,0
	c-6.167099-0.5869141-14.9016342-1.4182129-23.4547882-2.2322388c-1.2098083-7.3528748-0.4255447-14.5030823,5.9678574-20.0059814
	c0.6972504-0.6001282,0.9503555-1.7286377,1.3788452-2.626709
	C105.0574188,397.1116943,105.7508392,385.8009949,114.8244019,378.6480103z"/>
<path fill="#FFFFFF" d="M198.3190613,387.6163025c-2.4234772-5.4361267-3.8021393-11.6812744-7.4941101-15.9037476
	c-3.5358276-4.0439148-9.4743042-5.9870605-14.3568268-8.8534851c-0.2815094,0.4145508-0.5630035,0.8291016-0.8445129,1.2436829
	c2.3073883,1.6536255,4.3999481,3.8765259,6.9659424,4.8449097c5.7112274,2.1553345,7.7105255,6.0991821,8.5432739,11.9329224
	c0.8681793,6.0820007,2.200882,12.5479431,5.2245483,17.7438049c2.94664,5.0635071,2.358551,9.8595886,3.0692596,14.8211975
	c-0.5365906,0.1915894-1.0731812,0.3831787-1.6097565,0.5747986c-2.9311981-6.4493408-5.862381-12.8986816-8.7935791-19.3480225
	c0.8836975,8.107605,2.729599,15.8510742,7.85466,22.4432678c3.5095215,4.5141602,4.2218323,10.6974792,0.9021454,15.4017639
	c4.9827576-0.3192749,9.209198-0.5900879,13.4356384-0.8609009c-8.4439697-0.7097168-9.5371094-1.6223145-8.1437225-8.2138062
	c0.3481903-1.6470947,2.3127289-2.9121704,3.3918457-4.4526672c3.243988-4.6308594,6.4389496-9.2967224,9.5816498-13.9966431
	c0.2754822-0.4118958,0.1784515-1.6468811,0.0016022-1.7029724c-3.9602356-1.2569885-0.8988037-2.777771-0.2765656-4.3262329
	c2.8323517-7.0483093,5.5664825-14.1361084,8.3359222-21.2096863c-0.2757874-0.1043091-0.5515747-0.2086182-0.8273621-0.3129272
	c-3.6878204,7.0962524-7.3756561,14.1924744-11.4815979,22.0932922c-0.6117706-1.5641174-0.8209534-2.1407471-1.0732422-2.6978455
	c-0.0367279-0.0811157-0.2794342-0.0689087-0.5754395-0.131134c-2.0954895,5.9711609-1.327774,13.2468262-7.5529938,18.1828613
	c0-22.4381104,0-44.1130066,0-65.7879333c-0.4211426-0.0276794-0.8423004-0.0553589-1.263443-0.0830688
	C200.3342285,361.8034363,199.3360748,374.5891418,198.3190613,387.6163025z"/>
<path fill="#FFFFFF" d="M131.5447388,356.8114624c-0.2459412,0.0571289-0.4918823,0.1142883-0.7378387,0.1714172
	c1.7136993,9.8682556,2.907959,19.8637695,5.2854767,29.569397c2.4337921,9.9353027,6.026886,19.5866699,9.1125183,29.3623047
	c-0.2771149,0.1122437-0.5542297,0.2245178-0.8313599,0.3367615c-3.357666-6.7314453-6.7153473-13.4628906-10.0730286-20.1943665
	c0.1095428,4.8735657,0.9341431,9.6876831,2.6573944,14.1551514c1.1470795,2.9738464,3.6279602,5.4194946,5.4196777,8.1617432
	c2.442688,3.7385864,3.6133881,7.7201843,2.0084229,12.6679993c-6.8798828,0-13.6761932,0-20.4724884,0
	c0.004303,0.2277222,0.0085907,0.4553833,0.0128937,0.6831055c13.0610657,0,26.1221313,0,39.183197,0
	c-3.8534393-0.6115112-7.7092285-0.6906128-11.5597992-0.5830688c-2.4781342,0.0691528-4.1384583-0.8235474-3.5028229-3.4006348
	c0.6282349-2.5469971,1.6549683-5.0907898,2.9934845-7.3473511c2.6748199-4.5093689,5.6822968-8.8214417,8.5523987-13.2149658
	c-0.5447693-0.3494873-1.0895386-0.6989746-1.6343079-1.0484619c-1.3308716,1.9533081-2.4998627,4.0469055-4.037323,5.8211365
	c-1.5960388,1.8418884-3.5487366,3.3747864-5.345459,5.0427856c-0.3988647-0.3059692-0.7977142-0.6119385-1.196579-0.9179077
	c3.4395599-6.1879883,7.283432-12.1921387,10.2044983-18.6159363c2.8987274-6.3745728,4.8683319-13.1716003,7.3671265-20.1219482
	c-8.8186798,7.5245361-8.5874329,20.5036011-17.0959625,29.2904358c0-3.9575806,0-6.8918152,0-9.8260193
	c-0.1804962-0.003418-0.3610077-0.0068359-0.5415039-0.0102539c-0.1761169,2.6717529-0.3522186,5.3435059-0.5283356,8.0152588
	c-0.574707,0.0690002-1.1494141,0.1380005-1.7241364,0.2069702
	C140.5554962,388.9471741,136.0501251,372.879303,131.5447388,356.8114624z"/>
<path fill="#FFFFFF" d="M646.3908081,39.9698029"/>
<path fill="#FFFFFF" d="M193.2657318,431.7379761c0-0.4126587,0.0000153-0.8253174,0.0000305-1.2379761
	c-8.4463348,0-16.8926697,0-25.3390045,0c-0.0005341,0.4126587-0.0010529,0.8253174-0.0015869,1.2379761
	C176.3720245,431.7379761,184.8188782,431.7379761,193.2657318,431.7379761z"/>
<path fill="#FFFFFF" d="M237.97995,432.2106934c-0.01651-0.3217773-0.0329895-0.6436157-0.0494995-0.9653931
	c-7.4451904,0-14.8904114,0-22.3356171,0c0.0005493,0.3217773,0.0010986,0.6436157,0.0016479,0.9653931
	C223.0576324,432.2106934,230.5187836,432.2106934,237.97995,432.2106934z"/>
<path d="M723.4838867,433.1273193c-3.5712891-0.5965576-7.402771-0.7097168-10.9603882-0.111145
	c-10.3236694,1.7370605-20.5751343,0.6148682-30.8807373,0.1769409c-4.4073486-0.1873779-8.8598633,0.921875-13.3062134,1.2432861
	c-1.0218506,0.0738525-2.1027832-0.6694946-3.1564941-1.0366821c0.0792236-0.4065552,0.1584473-0.8130493,0.2376709-1.2196045
	c3.4118042,0,6.8311768,0.128418,10.2310181-0.072937c1.1174316-0.0662231,3.12146-0.9651489,3.1341553-1.5194702
	c0.199585-8.7364807,0.1400757-17.4788818,0.1400757-26.535675c-4.3461914,1.5907898-4.7478027,1.4589539-7.3887329,9.5033569
	c-1.4726562,4.4858398-4.1550903,6.3795776-8.7770386,7.2573547c0,3.2202148,0,6.4578857,0,9.6955566
	c-0.3710938,0.0179443-0.7421875,0.0359497-1.1132812,0.053894c0-3.055481,0-6.1109009,0-9.4529114
	c-1.9266968,0.2719421-3.2971802,0.4654236-4.6677246,0.6588745c5.8688354-2.6182861,4.9561768-7.5710144,4.9567871-12.3942871
	c0.0075684-59.9657288,0.1124878-119.931427,0.1655884-179.8971558c0.0106201-11.9909058,0.0439453-23.9850769-0.2373047-35.9706116
	c-0.0689087-2.9371033-1.3356934-5.8461304-3.3582764-9.0945435c-1.7512817,3.1767578-3.8896484,6.2038879-5.1858521,9.5566101
	c-5.1871948,13.4164124-10.071228,26.949646-15.1528931,40.4073486c-2.489563,6.5929565-3.2872314,13.3132324-3.1950073,20.3832397
	c0.3064575,23.484314,0.0723267,46.9753418,0.3109131,70.4610901c0.0697021,6.8575745,1.0251465,13.7061462,1.6053467,20.9421997
	c1.7926636-2.3955383,2.9140625-5.0444641,4.9094238-6.2677612c2.4604492-1.5083008,5.9466553-2.9744263,8.4338379-2.3262634
	c2.2584229,0.5884705,4.9285278,3.8217468,5.3807373,6.2658691c1.0473022,5.6596069,0.8394165,11.548584,1.1888428,17.3416138
	c0.1373291,2.2778931-0.2010498,4.8464661,0.7418213,6.7573547c1.7702637,3.5880737,2.0119629,6.7013855,0.0297852,10.2532959
	c-0.6627197,1.187561-0.1047363,3.0563965-1.0814209,4.6743164c0-1.9259338,0.2178955-3.8826294-0.0488281-5.7709045
	c-0.4491577-3.1804504-0.2836914-7.0071716-2.0222168-9.3313599c-3.800354-5.0806885-3.6813965-10.3729553-3.1292114-16.0645142
	c0.2722168-2.805603,0.0473022-5.6594543,0.0473022-8.6246338c-6.9328613,0.974884-14.2352295,7.6357727-14.3087769,13.0756836
	c-0.2419434,17.9017639-0.0910645,35.8088379-0.0910645,54.2616577c1.9243774-0.5426941,3.4118652-1.1288147,4.9529419-1.3641052
	c3.9077148-0.5966492,7.5599365-0.3136902,10.4889526,2.9559021c2.7087402,3.0237427,3.4389648,5.780304,1.4260254,9.7797852
	c-0.7711182,1.532196,1.4581299,4.5745544,2.4017334,7.1517029c-2.2998657,1.456604-6.2449951-1.1670532-7.0674438-6.1104736
	c-0.1079712-0.6490784,0.1414185-1.3831177-0.0539551-1.9875793c-0.713562-2.2075195-1.5453491-4.3768616-2.3325195-6.5606384
	c-2.0161743,1.1465149-4.0322876,2.2930298-6.1500244,3.497345c1.857605,2.2662659,3.2164917,3.9241333,4.8114624,5.8700256
	c-2.8174438-0.4845581-6.6447754-1.5610352-6.8358154-1.1070862c-1.1540527,2.7420349-1.4762573,5.834137-2.2113037,9.4760437
	c3.9924316,0,6.9003906,0,9.8083496,0c0.0003662,0.4768066,0.0007935,0.9536133,0.0012207,1.4304199
	c-7.4489136,0-14.8977661,0-22.3466187,0c8.5863037-1.7276611,8.6166382-1.7285156,8.3585815-10.8686218
	c-0.0734253-2.602356-0.3789062-5.1981506-0.5779419-7.7969666c-0.7635498-0.348114-1.5270996-0.6962585-2.2906494-1.0443726
	c-1.0977783,1.6590576-2.0748901,3.4240723-3.375061,4.9054565c-0.3406372,0.388092-1.6841431-0.1040344-2.5847168-0.2139893
	c0.9154053-1.6340942,1.7819214-3.2897644,2.8022461-4.8444519c0.8533936-1.3003235,1.6376953-2.9054871,2.8856201-3.6398926
	c4.1658936-2.4515686,5.2642822-5.6796875,2.1331177-9.280304c-1.071106-1.23172-3.7475586-1.5838318-5.6018677-1.4070435
	c-0.9743042,0.0928955-2.4754028,2.1803894-2.5020142,3.3942261c-0.1160278,5.2976685,0.2213745,10.6052246,0.394165,15.9092102
	c-2.2315674,2.2139282-4.3806152,2.4535217-7.3284912,0.8210754c-1.531189-0.8479309-4.0189209,0.0314026-6.3300171,0.1427612
	c0.2183228-0.4706116,0.3209839-1.0940552,0.5621948-1.1532593c7.3425293-1.8028564,9.1809692-6.610321,8.7608032-13.763855
	c-0.5767822-9.8206177,0.8510132-10.8578796,10.6192017-10.9432983c0.8087769-0.0070801,1.6176758-0.0009766,3.6467285-0.0009766
	c0-7.2335205,0.0283813-14.315033-0.005127-21.3962402c-0.1124878-23.7770081-0.0245361-47.5586243-0.5250854-71.3276672
	c-0.1298828-6.1690979-2.1427002-12.2958984-3.260437-18.4476318c-0.8794556-4.8406982-1.7304077-9.6868286-2.548584-14.5382385
	c-0.1369019-0.8118591,0.2012329-1.7654419-0.0990601-2.4766541c-0.9382935-2.2224121-1.5726929-5.5626831-3.2495117-6.2662964
	c-2.9807129-1.2507629-7.4997559,2.4036255-7.562439,6.0009766c-0.0891724,5.1139832-0.2470093,10.5467529,1.3190308,15.2830811
	c1.6955566,5.1280823,1.6373291,9.4975891-0.3335571,14.3135986c-1.2403564,3.0310364-1.8141479,6.3348389-3.4885864,9.7008362
	c-0.1759033-1.2429199-0.8666992-2.7035522-0.4475098-3.6948547c3.8913574-9.2021484,0.9064941-18.0588989-0.861084-27.068573
	c-0.9667969-4.9283447-0.8082886-10.1965332,2.9092407-14.0939636c2.7481079-2.8812256,6.2494507-5.0890808,9.6254272-7.2718506
	c0.4431152-0.286499,2.8685913,1.1669006,3.1259766,2.1437988c1.2531128,4.7561646,2.166626,9.6094666,3.0131226,14.4610291
	c0.2932129,1.6804504,0.0466919,3.4550171,0.0466919,5.186615c0.4475708,0.0325928,0.8951416,0.0651855,1.3427124,0.0977783
	c0.2147827-0.9441223,0.6067505-1.8860168,0.6186523-2.8327026c0.4084473-32.6138611,0.5101318-65.2348022,1.3069458-97.8388062
	c0.2757568-11.2830658-2.2188721-21.9452667-4.5826416-32.7100983c-0.6362305-2.8975372-2.6738281-5.1944122-6.4003906-5.0471802
	c-3.9143066,0.1546631-3.7581177,3.1755524-4.2316284,5.6296387c-1.0827637,5.6119232-1.56073,11.3712769-3.0453491,16.8651123
	c-1.1616821,4.2988586-3.4667969,8.2887115-6.2088623,12.1382904c4.567627-12.2734222,5.8132324-24.8990631,5.0640869-37.5969086
	c15.2855225-4.1306458,17.7290039-2.1334229,20.3533325,15.440155c0-3.6193542,0.1577759-7.2474518-0.0424805-10.8556976
	c-0.2186279-3.9407043-0.9272461-7.8549652-1.1283569-11.7957458c-0.1913452-3.7481689-0.1507568-7.5239716,0.0598145-11.2723541
	c0.2073364-3.6888428,0.7561646-7.3585052,1.1550903-11.0365906c0.6757202-0.0413208,1.3514404-0.0826416,2.0271606-0.1239624
	c0.4442139,4.4680176,0.9256592,8.9329529,1.296936,13.4070282c0.0637817,0.7685089-0.7578735,2.0217133-0.4647827,2.295578
	c2.5646973,2.3958588,0.6433105,5.1561737,0.5706787,7.6064606c-0.4859619,16.4003601-1.2126465,32.7944641-1.9685669,49.1856384
	c-0.4199219,9.1060791-1.434021,18.2019348-1.4492188,27.3036194c-0.0107422,6.4080811,1.2091064,12.8182373,1.9376831,19.7838745
	c4.9776001-12.4193115,9.7648315-24.4033813,14.586731-36.3734741c1.737854-4.3142395,3.9390869-8.132843,9.9821167-7.6125793
	c0-46.5675812,0-92.9246674,0-139.7586212c-2.9647827,1.3627319-5.692749,3.4503784-7.4872437-1.3357773
	c-0.9639893-2.5713043-4.128418-1.9652786-6.2897339,0.6033401c0.2969971-1.3286819,0.1854248-3.2660675,1.0050049-3.8162994
	c0.8336182-0.5596695,2.5913086,0.2137604,3.9311523,0.4715958c0.5737305,0.1103973,1.4863892,0.7059097,1.6154785,0.5522461
	c3.4144287-4.0658798,5.3505249,0.4807816,7.9006958,1.3071747l-0.0014648-0.0166397
	c0.2863159,10.2988892,0.68396,20.5962067,0.8309326,30.8970795c0.1864014,13.0685577,0.289917,26.1407623,0.2089233,39.210022
	c-0.0968628,15.6320953-0.4556274,31.2624054-0.642334,46.8941803c-0.0894775,7.4900665-0.4848022,15.0152588,0.0812378,22.4619751
	c0.4431152,5.8293152,2.4501953,11.5223389,3.2353516,17.3469238c1.4069214,10.4370422,3.5721436,20.7903137,1.0654907,31.5151367
	c-0.9251099,3.9581604,0.6445923,8.4993896,0.3947144,13.0765991c-1.5463257-4.3591309-3.0926514-8.7182922-4.5289307-12.7672729
	c0,63.5194397,0,127.5455322,0,193.0513611c1.5755615-2.032959,2.8491211-3.0107422,3.1855469-4.2441711
	c0.7821655-2.8671875,1.2938232-5.839447,1.5921631-8.8016357c0.9418335-9.353241,2.9467773-11.0448608,13.0392456-9.7309265
	c0-5.6781616,0.0042114-11.2557373-0.0007324-16.8332825c-0.0130005-14.5952454-0.0343018-29.1904907-0.0440063-43.7857361
	c-0.0073853-11.1615906-0.1505737-22.3258057,0.043396-33.4840088c0.1616821-9.3055115,1.1270142-18.6107788,0.9726562-27.9034424
	c-0.1065674-6.4229736-2.9857178-12.0825195-7.8673096-17.1753845c-3.1937866,6.0428162-4.0687256,11.1525879-1.5145874,17.0617981
	c1.7857056,4.1313171,2.9046631,9.0490723-2.1814575,13.2365417c-0.1304321-1.5975342-0.1624146-2.7781982-0.333252-3.938385
	c-0.5704956-3.8737183-0.6259766-7.9397888-1.9088135-11.5679016c-2.7026978-7.6434021-0.2740479-14.3974304,2.9793091-20.9306641
	c1.6136475-3.240509,4.0535278-0.8131714,5.678894,0.6185608c1.6474609,1.4512634,2.9112549,3.3380737,4.8241577,5.6039429
	c4.151062-19.2428284,1.8944092-37.6489563,1.9766846-55.9760437c0.020752-4.622406,0.1930542-9.2439575,0.2702026-13.866333
	c0.0344238-2.0640259,0.0057983-4.1291199,0.0057983-6.1937256c-0.4844971-0.2289734-0.9690552-0.4579773-1.4535522-0.6869507
	c-0.8284302,1.6325684-1.6567993,3.2651367-2.4852295,4.8977051c-0.4542236-0.3568115-0.9084473-0.7136536-1.3626709-1.0704651
	c0.2384644-0.6238403,0.3187256-1.393158,0.7388306-1.8498535c7.1722412-7.796936,5.0803833-16.5887604,3.2043457-25.5832367
	c-0.5317383-2.5491943,1.2883301-5.4979095,1.3592529-8.2804871c0.2317505-9.1019135,0.1634521-18.2116547,0.1933594-27.3184509
	c0.0267334-8.1634521,0.1428833-16.329361-0.0290527-24.4889374c-0.0466919-2.213974-1.1588135-4.3849487-1.4835205-6.6190338
	c-0.3682251-2.5329132-1.3450928-5.5743408-0.371521-7.5737c1.7139893-3.5196381,0.3812256-5.8736267-1.1359253-8.6547546
	c-2.6794434-4.9120331-2.4815063-5.29422,2.7750854-7.2587585c-0.774292-2.0922241-1.5501099-4.1886749-2.5524292-6.8972015
	c-0.37146,2.2463684-0.6431885,3.8900452-0.914978,5.5337219c-0.5319824-0.0970001-1.0639648-0.1940002-1.5958862-0.2910156
	c1.5033569-8.0494995,3.0067749-16.098999,4.5101318-24.1484985c0.4507446,0.0488129,0.9014282,0.0976257,1.3521118,0.1464386
	c0.62854,3.7913208,1.2570801,7.5826416,2.0626831,12.4421997c1.1483154-2.185318,1.8222046-3.4678497,2.7850952-5.3002625
	c0,4.0302582-0.2472534,7.4303131,0.0490723,10.7823029c0.7164917,8.1034851-0.4168701,15.6659698-2.7632446,23.6339111
	c-2.3804932,8.0836334-1.840332,17.1469727-1.8450928,25.7816467c-0.0065308,11.9614716,0.6673584,23.9235382,1.074585,35.8845062
	c0.0206299,0.6073151,0.2736206,1.2067261,0.5536499,2.3727417c1.5921631-1.1621552,2.7295532-2.253952,4.0756836-2.9305267
	c6.463623-3.2488556,11.8015747-1.6219025,16.2184448,4.8162994c0.7418823,1.0814209,1.4567871,2.1815643,2.2094116,3.2552948
	c3.5983887,5.1333771,2.7843628,9.9101715-2.6583252,12.8134003c-4.8980103,2.6127472-10.2572021,4.3846283-15.0587769,7.1438446
	c-2.1893311,1.2581177-4.9678955,3.9649353-5.0203247,6.0757446c-0.4121704,16.5872192-0.2285767,33.189209,0.2994385,50.0432739
	c2.4859619-6.3542175,7.2002563-10.3151855,12.6842651-13.6341553c4.0286255-2.4381714,8.3609009-2.3396301,11.8377686,0.8117065
	c3.1715088,2.8745422,6.3483276,5.763031,9.2901611,8.8660278c3.612915,3.810791,2.93927,10.9401855,0.229187,16.9191589
	c-3.9627075,8.7425537-7.0228271,17.8985901-10.3266602,26.9299316c-0.4053345,1.1079712,0.0554199,2.5327148,0.1179199,3.8793335
	c-2.3081665-1.4865112-3.2312622-7.8838196-1.8110352-11.7689514c2.69104-7.3619385,5.4042969-14.7160339,8.0440674-22.0963135
	c1.3989258-3.9110413-1.6454468-10.3675537-6.3580933-13.8717957c-3.9834595-2.9620361-7.8482666-6.3494568-13.0029297-2.1027527
	c-3.6182251,2.980896-7.0275879,5.4802856-8.9377441,10.5923462c-4.3009033,11.510376-3.3443604,23.0668945-3.2056274,35.6664734
	c8.4811401-7.7019348-0.7450562-17.5558472,4.7565308-25.7579956c1.1133423,7.8016968,2.0550537,14.7805176,3.1193848,21.7406006
	c0.8705444,5.6921082-2.7511597,9.6225586-5.1819458,14.0739441c-1.1972656,2.1925354-2.6951294,4.6346436-2.7284546,6.982666
	c-0.2350464,16.578186-0.1248779,33.1612549-0.1248779,49.3765259c0.0238037-0.0334167,0.694458-0.6207581,0.9197998-1.3464355
	c2.4199219-7.7939148,8.6004028-10.5396118,15.8341064-11.51651c5.6856079-0.7677612,9.9273682,2.9109802,10.1262817,8.9219666
	c0.1359863,4.1100769,0.2442017,8.5973511-1.2115479,12.2954407c-2.1727905,5.5196838-0.0419922,9.7351379,2.0438232,14.2971497
	c0.4595947,1.005188,0.8661499,2.1759338,0.8162842,3.2480469c-0.2023315,4.3465271-0.5922241,8.6843567-0.90625,12.9346619
	c-1.5078125-0.2539978-2.2750854-1.7689514-2.7449341-6.3493042c-0.3812256-3.7165222-1.1621094-7.3965149-1.8746948-11.0715332
	c-0.1837769-0.9482422-0.5256958-2.1694946-1.22229-2.6672058c-6.3161011-4.5126648-3.6420288-10.1066895-2.1860962-15.6887817
	c0.8471069-3.2480469,1.2023926-6.6243896,1.8197632-10.1771545c-10.1834106,1.1736755-16.0278931,8.0906677-18.7078247,16.2566833
	c-6.571228,20.0228271-2.578064,40.4887085-4.097229,60.6862488c-0.3862915,5.1359558-0.932251,10.2598877-1.4172363,15.5236511
	c4.1081543-2.5609131,7.6359863-5.1695862,11.5092163-7.0770874c5.6160889-2.7658997,10.2880249,0.3593445,10.3327026,6.5370483
	c0.0072021,0.9994202-0.0609741,2.0014648-0.0113525,2.9981689c0.2406006,4.8327026,2.8345947,6.2825928,7.3234253,4.4571533
	c2.1153564-0.8601685,4.4935303-1.0741577,6.7526245-1.5809326c0.1151123,0.7103271,0.2302856,1.4205933,0.3453979,2.1309204
	c-4.4581909,0.524353-9.4629517,2.5327759-13.21875,1.1497192c-3.6530762-1.3452759-6.0264893-6.1654053-9.1001587-9.6150818
	c-5.1470947,2.7765503-13.6470337,3.4300842-12.2316895,13.9316711c14.9116211,0,30.1030273,0,45.5343018,0
	 M685.3550415,172.2223206c5.6724243-4.1878357,9.5205078-7.8762665,14.0653687-10.204834
	c8.996521-4.6093292,9.1735229-4.4181519,1.6964111-11.5470276c-0.3590088-0.3423004-0.6870728-0.7171173-1.0291138-1.077179
	c-3.2149658-3.3838196-10.6621704-2.0209198-11.7594604,2.6354065
	C686.8579102,158.2678223,686.401062,164.7458038,685.3550415,172.2223206z"/>
<path d="M550.2989502,282.2480774 M548.0877686,327.1973877c0.0962524-0.1654663,0.1843262-0.3383484,0.2647705-0.5172424
	 M550.2989502,282.2480774c2.6499634-4.4158936,4.5903931-7.5734558,6.4533081-10.776062
	c1.7196655-2.9561768,3.2449951-6.0304565,5.0595703-8.9250183c1.9515991-3.1131287,5.0895386-3.4490051,7.2325439-0.1204224
	c2.538147,3.9422607,4.0389404,8.5489502,6.0254517,12.8510437c1.2907104,2.7953796,2.645752,5.5610657,4.6098022,9.6766663
	c0.2173462-2.7572937,0.3986206-3.9951172,0.4000854-5.2331543c0.0291748-24.1332397-0.2407837-48.2712402,0.1730347-72.3976135
	c0.1921997-11.2054443,1.8322144-22.380188,2.539978-33.5862732c0.204834-3.2443237-0.2667236-6.6063843-0.9225464-9.8133392
	c-1.1134644-5.4454803-2.5641479-10.8256989-4.0181274-16.1940765c-0.2299194-0.848938-1.2202148-1.4919281-2.6557617-3.1508484
	c0,5.9091644-0.7932129,10.6621552,0.154541,15.0381317c2.4580688,11.349411-0.7831421,20.2963104-10.7086182,28.2759552
	c0.8278809-2.4052734,1.1690063-3.8421326,1.7957764-5.1411743c2.8988037-6.0076904,5.0509033-11.9970703,4.6533813-19.0007172
	c-0.4102173-7.2271118,0.3914795-14.5383453,0.9456787-21.7911682c0.1032104-1.3510742,1.6655884-3.7376099,2.3434448-3.6653748
	c1.5378418,0.1638794,3.6066284,1.2104034,4.296875,2.5137634c4.6433105,8.7685699,7.1923828,18.2081604,8.4536133,28.8443451
	c4.3868408-3.9849396,6.8279419-8.5366669,7.4656372-14.1649017c0.5480347,8.3213806-2.8459473,15.4868622-6.9111328,22.267746
	c-2.3713989,3.9556274-3.7618408,7.7332764-3.7587891,12.4624329c0.0076294,11.8101501-0.7219849,23.618988-0.8738403,35.4319763
	c-0.0610352,4.7481079,0.6154175,9.5056763,1.0071411,14.9689636c3.8237305-3.1654968,5.6757812-6.2188416,6.1757812-10.7305908
	c1.2716675-11.4729919,7.2003174-20.6480713,15.812561-28.0935364c1.7791748-1.538147,3.967041-1.8382263,5.1469727,1.1417542
	c3.8963623,9.840271,7.8909302,19.6960144,7.598938,30.5175171c-0.0856934,3.1723938-1.3789673,6.3122559-2.1065674,9.4151306
	c-0.5652466-5.6622314-0.5775757-11.5050049-1.866394-17.0511169c-1.2354126-5.3163757-3.8464966-10.3061523-5.7542114-15.4758911
	c-1.1323853-3.0686951-2.1881714-2.4032898-4.1392822-0.4975281c-7.2582397,7.0894775-10.7937622,15.8038025-12.0444946,25.6800537
	c-0.666626,5.2633667-3.3141479,9.46698-7.1673584,13.0935974c-1.2790527,1.2037964-2.6150513,3.1348877-2.6427612,4.7554626
	c-0.2163086,12.6375732-0.1196899,25.2805176-0.1196899,38.3648682c2.2889404-1.4612732,4.4039917-2.8115845,6.4002686-4.0860291
	c-1.7322998,3.8469238-4.7298584,7.7863464-5.1587524,11.9880066c-1.0927734,10.7062988-0.9899902,21.5318298-1.463562,32.3052979
	c-0.2316284,5.2705688-0.6812134,10.5315552-1.0738525,16.4210205c4.8410034-1.4095764,6.1853638-4.9866943,7.2329102-8.4417114
	c1.9550171-6.4486084,3.3641357-13.0620117,5.2927856-19.5195312c1.6730347-5.6018066,5.303772-9.7746887,10.4747314-12.5752563
	c2.9503784-1.5979309,5.831543-0.9881287,6.0653076,2.2825317c1.0252686,14.3464355,1.5477295,28.7287903,1.6533203,43.1354675
	c-3.1957397-11.7069702-6.3914795-23.4139404-9.5872192-35.1208801c-0.6729736-0.010437-1.3459473-0.020874-2.0188599-0.031311
	c-1.9284058,4.7506409-3.9332886,9.4719849-5.7658691,14.2593079c-2.2900391,5.982666-2.8842163,13.5585632-6.9848633,17.6992493
	c-7.5614624,7.6352844-5.928894,16.2449341-6.1459351,24.9464722c-0.119812,4.8014526-0.0215454,9.6083374-0.0215454,14.457489
	c11.9765015-1.5241394,15.690979,6.114624,9.7215576,20.3972778c-0.4866943-4.2894287-0.8535156-7.9459839-1.3330078-11.587677
	c-0.2783203-2.1138306-0.2479858-4.6398926-3.6731567-3.8687744c-2.8154297,0.6338196-4.883728,1.652771-4.7682495,5.2029419
	c0.2000732,6.148468,0.055603,12.3081665,0.055603,19.035675c4.232605-2.6275635,7.1608276-1.8326111,9.4364624,2.2319641
	c1.9281006,3.4439392,5.2472534,4.2676697,9.1201782,3.2974548c-3.1015625,4.1530762-5.5200195,3.7922363-12.5152588-1.782196
	c-3.8654785,1.8669128-7.1218262,4.0704041-5.5148315,9.5814514c7.9611206,0,15.7468872,0,23.5327148,0
	c0.050354,0.56427,0.100769,1.128479,0.151123,1.692749c-1.8178711,0-3.6437378,0.1057739-5.4511719-0.0315552
	c-1.6206665-0.1231079-3.2205811-0.7466431-4.8303223-0.7493286c-13.4603882-0.0228271-26.9209595,0.0778198-40.3814697,0.0813599
	c-21.0912476,0.0054932-42.1824341-0.032959-63.2736816-0.0650635c-1.1113281-0.0016479-2.2225952-0.1172485-3.3257446-0.9375
	c11.4893188,0,22.9786377,0,34.7138672,0c0.9660645-9.4014282,1.2462769-18.3207397-4.664978-27.9769897
	c-3.0809326,6.0779419-5.7121582,11.2687988-8.3434448,16.4596558c-0.1904297-13.3981323,2.0197754-21.5241394,13.2999268-21.819519
	c0.4338379-8.8421326,1.1171875-17.7448425,1.2554321-26.6559753c0.2710571-17.4764099,0.1765137-34.958313,0.3961792-52.4358826
	c0.0345459-2.7440796,1.3013916-5.4712524,1.3461914-8.2168274c0.1160889-7.1142273-0.9855347-13.9545288-4.3588867-20.4670105
	c-2.0876465-4.0303955-2.8326416-8.7393494-4.706604-12.9070435c-0.6068726-1.3497314-2.8884277-2.7533875-4.397583-2.746521
	c-5.611145,0.0255127-8.0092163,3.4082642-7.5042114,8.9525757c0.7196655,7.901825,1.0906982,15.8353882,1.0655518,23.7579956
	c-2.5419922-8.8567505-5.1895752-17.6849976-7.5890503-26.5802002c-1.6211548-6.0098572-0.3405762-8.184082,5.3546143-10.3746033
	c2.5847168-0.9941406,5.1455078-2.0524292,7.7019653-3.1180725c4.307373-1.7954407,6.9837036,0.09552,8.8302612,3.8703308
	c1.1236572,2.2971191,2.2160034,4.6095886,4.3792725,6.7471924c-0.5562744-10.5999756-0.2449341-21.3400879-1.9276733-31.7581177
	c-1.4998169-9.2850037-4.8059692-18.3659058-8.1748657-27.2093201c-1.0452881-2.7438049-4.6383667-5.2862549-7.5926514-6.1834412
	c-1.321106-0.4012146-4.5425415,3.1471252-5.8605347,5.4889832c-3.546936,6.3022766-0.6558228,12.9023743,1.7130127,18.3694458
	c3.1819458,7.3437195-2.1089478,11.1685181-3.1887207,16.6061096c-0.7611694-9.1018982-1.3588867-17.9282227-2.2797241-26.7206421
	c-0.7154541-6.830658,0.1526489-12.6529846,6.4845581-16.9129944c5.7320557-3.8565063,14.2572632-0.8744202,15.8997803,6.072998
	c0.9923706,4.1972351,1.8834229,8.418457,2.8200073,12.6289062c0.4501343-0.0762634,0.9002075-0.1525269,1.3502808-0.2287903
	c0.0666504-1.410553,0.1010742-2.8234863,0.2053223-4.2312622c0.5362549-7.2410889,1.4988403-14.4793396,1.5259399-21.7215271
	c0.0283203-7.5783386-0.8363647-15.1600342-1.31073-22.7402649c-0.7194214-0.1342468-1.4388428-0.2684631-2.1582642-0.40271
	c-1.3613892,4.1185303-2.7227783,8.23703-4.0841675,12.3555603c-0.2854004,0.0125427-0.5708008,0.0250854-0.8562012,0.0376587
	c0.3079834-2.4467468,0.3861084-4.9499207,0.9698486-7.3289795c1.392334-5.6741028,4.7850342-10.8188782,1.5108032-17.3078003
	c-1.5427246-3.0573273-0.888855-7.5704651-0.3024292-11.2770996c1.0019531-6.3327026,8.9282837-9.7182922,14.0227661-5.8617554
	c1.6126099,1.2207489,2.6160278,4.9305725,2.0531616,6.9992371c-1.2736816,4.6814117-2.869873,9.7358093-5.8764038,13.3596802
	c-3.2159424,3.8764038-3.2045898,6.8787842-0.7575073,10.9351501c0.5964355-0.2979736,1.3035889-0.6512756,0.9395142-0.4693604
	c-0.8969116,12.9222717-2.3568115,26.3670044-2.6218262,39.8352661
	c-0.2844849,14.4557495,0.7852173,28.9324341,0.8551636,43.4020081c0.1519775,31.4441223,0.0425415,62.8894958,0.0508423,94.3343811
	c0.0001831,0.6221619,0.1337891,1.2442932,1.3773193,2.2310486c1.0473633-3.0626221,1.6596069-6.3709412,3.223999-9.1416626
	c4.6514282-8.2381897,9.7380981-16.2295837,14.4955444-24.4100037 M550.0357666,326.7680359
	c2.631958-2.5373535,4.2562256-4.1032715,5.8805542-5.66922c1.6362305,2.0116882,3.9163208,3.7771912,4.7961426,6.0780945
	c3.6199951,9.4668884,6.8146362,19.0964661,9.975708,28.1237183c-0.7388916-0.5024109-3.1069336-1.2351379-3.8294678-2.7518005
	c-3.6182861-7.5941772-6.805481-15.3937378-10.2207642-23.2982788c-5.3706055,0.2183228-6.8417358,1.711792-6.847229,7.8737793
	l-1.213562-2.3523865c-0.4787598-0.1338196-0.9575806-0.2676086-1.4363403-0.4014282
	c-2.7304077,6.0459595-5.3306885,12.1554871-8.2410278,18.1135559c-1.687561,3.4548645-3.7471313,6.7498169-5.8707886,9.9637756
	c-2.1676636,3.2806396-5.5299683,5.41745-5.2886353,10.4735718c0.4266357,8.9407959-0.4746704,17.9414978-0.7271118,26.9197388
	c-0.1182861,4.2071838-0.0202026,8.4204102-0.0202026,13.4205322c2.1416016-2.2654724,3.7165527-3.6916809,5.0033569-5.3424988
	c2.6963501-3.4588623,4.7333984-3.7235413,6.9956665,0.2743835c2.888855,5.1052551,4.9437866,10.6824036,7.3581543,16.0561218
	c-0.3656006,0.3063965-0.7312622,0.6127319-1.0969238,0.9190674c-1.7023926-1.8442993-3.8584595-3.4498291-4.9877319-5.5957642
	c-1.2977295-2.4660339-1.6863403-5.4104614-2.4698486-8.1471252c-0.5505371-0.2868347-1.1010742-0.5737-1.6516113-0.8605347
	c-2.3065186,2.7593994-4.6992188,5.452179-6.8979492,8.2949219c-2.7506104,3.5563354-3.7026367,8.0983582-1.5744629,11.6225891
	c0.9187012,1.5213623,5.815918,0.7901001,8.9080811,0.8168945c5.7878418,0.0501099,11.5809937-0.2495728,17.3652954-0.1156006
	c6.8481445,0.1586304,13.6887207,0.7853394,20.5339355,0.8084106c1.2959595,0.0043335,3.4851685-1.6867065,3.7277222-2.9017944
	c0.6694946-3.3536987,0.4950562-6.8716431,0.713562-10.3208923c0.2144165-3.3848877-1.5282593-4.4743042-4.2323608-2.9320068
	c-4.2994385,2.45224-8.3225708,5.3891296-13.692627,8.9327698c4.9387817-6.2919312,9.1101685-11.6061401,13.5513306-17.2640076
	c0.7259521,0.2828979,2.0148315,0.7851562,4.1107788,1.6019287c-0.2487793-4.9012756-0.0788574-9.1941833-0.8533325-13.3092957
	c-0.3425293-1.8196106-2.598877-3.2789612-3.9864502-4.9018555c-0.9703369,1.5153809-2.3849487,2.9106445-2.8328247,4.5672913
	c-1.7972412,6.6471252-3.6467896,8.4814453-10.5593872,8.6535034c4.958374-1.8744812,6.7185669-4.7902222,6.7388916-9.2295227
	c0.0413208-9.0474548,1.6723022-10.5497131,10.6077881-11.0703735c0.2647705-0.0154114,0.5107422-0.3553162,0.9734497-0.6979065
	c0.0430298-0.8250122,0.1313477-1.8018494,0.1394043-2.7793274c0.2080078-25.3031921,0.4556885-50.6062927,0.5162354-75.9098511
	c0.0047607-1.9919128-1.1905518-4.0350952-2.0223389-5.9710083c-2.0675659-4.8117371-4.3533325-9.5315857-6.3463135-14.3728027
	c-1.4312134-3.4764404-2.2888184-7.2044678-3.8956299-10.5858459c-0.6702271-1.4104309-2.5271606-2.4196167-4.0682983-3.1155701
	c-0.3063965-0.1383362-1.7854614,1.8956299-2.4602661,3.078186c-1.9541626,3.4243774-3.934082,6.8520203-5.5728149,10.4299927
	c-0.7138672,1.5586243-1.4755249,4.036499-0.7547607,5.158783c4.7958374,7.4672852,1.6268921,16.0245972,3.5480957,23.8823853
	c0.6027832,2.4652405-1.3066406,5.5447083-2.0585938,8.3338318c0.6038818-7.6480103-3.0889282-27.7211914-5.7344971-30.0688171
	 M525.8579102,170.3504028c4.2271729-4.2023315,6.461853-9.011734,6.1435547-13.7510376
	c-0.0787964-1.1736603-0.6518555-3.1908264-1.2254639-3.2753754c-1.2652588-0.1865234-2.9537964,0.2572327-3.980835,1.0651093
	C520.899292,159.0266418,520.6796875,163.9055634,525.8579102,170.3504028z"/>
<path d="M313.2654724,431.7564087c-1.0708618,0.3900757-2.1496277,1.1387329-3.2113647,1.1152344
	c-12.068634-0.265686-24.1358032-0.6157837-36.2001648-1.0355225c-1.95401-0.0679321-3.892334-0.5853882-5.8379211-0.8950806
	c0,0,0.0407715,0.1261597,0.0407715,0.1262207c2.9841614-0.3193359,6.1921997-1.5008545,8.9101868-0.795105
	c7.8960876,2.0505371,9.0610352,1.3994141,9.1863403-6.4534302c0.2119141-13.2793274,0.6044922-26.5557251,0.9211426-39.8333435
	l-0.1044006,0.1237488c1.0093994-1.9510498,2.5609436-3.8082275,2.918335-5.8721619
	c0.8112793-4.6850281,2.0652466-8.9439697,6.9273376-12.7348938c4.9509583,8.657074,9.7048035,16.9695435,14.4586792,25.2820129
	c0.6116333-0.1814575,1.2232971-0.3629456,1.8349304-0.5444336c0-2.219574-0.1790466-4.4569702,0.0393372-6.6548462
	c0.3895569-3.9202576,1.7248535-7.8792114,1.3851318-11.7084961c-0.526123-5.9306641-1.881073-11.828064-3.3439026-17.6235962
	c-1.3504944-5.3504944-5.1821899-10.798645-4.5218201-15.7504883c0.8364563-6.2725525,3.8210449-12.454834,8.4985046-17.8786621
	c3.9277649-4.5545349,7.7469482-6.6617432,13.3885803-6.836792c3.6668396-0.1138,5.5678406,1.3887024,6.2163696,4.8962708
	c0.817627,4.4220886,1.7389832,8.8250122,2.7474365,13.8998413c-3.8810425-2.2839661-3.3413391-6.4460449-4.6184998-9.5337524
	c-1.8385315-4.4449158-5.8959656-5.619751-9.276886-2.3085022c-1.9966125,1.9554138-4.119751,3.9082031-5.5977173,6.2357483
	c-2.0001831,3.1499634-3.5813599,6.5947876-5.0814209,10.0271301c-2.5555725,5.8476257,1.7875061,10.2004089,3.5390015,16.3096924
	c0.5841675-5.0203857,0.6989441-8.9341431,1.5715027-12.6708984c0.849823-3.6391907,2.4752808-7.0972595,4.2989807-12.1182556
	c4.3858032,3.7115173,7.3781128,6.3221436,10.4577942,8.8252869c2.493927,2.0270386,5.0929565,3.9248047,7.3491211,5.6529846
	c-4.2223206,2.6991882-6.6181335,1.4343262-15.4028931-9.3990784c-0.56604,0.5179443-1.5049133,0.9537659-1.6066895,1.5359497
	c-0.9821472,5.618927-1.8444824,11.2592773-2.6994019,16.8998108c-0.8972473,5.9197998-2.0610046,11.8208618-2.5499878,17.7759399
	c-0.8089294,9.8517151-1.2097168,19.7384644-1.6404419,29.6166382c-0.0325317,0.7463684,1.0643005,1.5419922,1.619873,2.2926941
	c5.2602539-1.5589294,6.2566528-6.119812,8.0966492-10.0588684c1.7848816-3.8209839,3.1963196-7.9866943,5.7661438-11.2076721
	c1.5740356-1.9729004,4.9277649-3.0159607,7.6484985-3.4616089c3.5194397-0.5765076,7.2046814-0.140686,11.1074829-0.140686
	c-3.0306702,1.300354-5.9927979,2.3863525-8.7831726,3.8091125c-5.0127258,2.5558472-9.3031006,5.7611084-11.3943481,11.4500427
	c-2.3851318,6.4884338-4.983429,12.7509155-10.6394348,17.5980835c-2.3927002,2.0505371-2.8880615,6.6306763-3.6397095,10.1890564
	c-0.7101135,3.3616943-0.6253662,6.8912964-0.9321289,10.8937378c1.7462769,0.1166992,3.3451233,0.312561,4.9444275,0.3162842
	c12.7689209,0.0300293,25.5383911,0.0776367,38.3063965-0.0318604c1.8361206-0.015686,5.1227417-0.6245728,5.2285767-1.3335571
	c0.3379211-2.2639771-0.1847229-4.8173218-0.969635-7.0499573c-1.1558228-3.2875366-2.8240356-6.3948975-3.2858582-10.0108337
	c1.2886963,1.9433594,2.5773926,3.8867493,3.8660889,5.8301392c0.3924866-0.196106,0.7849731-0.3922119,1.1774902-0.5883179
	c-1.5377197-12.1770325-7.6795959-22.3421936-13.8857727-32.4792786c-0.7180786-0.0074158-1.4361572-0.0148315-2.1542358-0.0222473
	c-1.4815063,3.1070557-2.8641663,6.2663879-4.4724121,9.3063965c-1.586853,2.9995422-3.401886,5.8783569-5.1721802,8.9048767
	c-0.2608643-0.3056335-0.5773621-0.5417175-0.5384216-0.650116c2.4171448-6.7266846,4.5547485-13.5788269,7.4298706-20.105896
	c1.5664062-3.5560608,5.0942993-3.8429565,7.7206116-0.9131775c2.3723145,2.6463623,4.2123413,5.7912903,6.1317749,8.8149414
	c1.3527832,2.1308899,2.4457092,4.4266968,4.4316101,6.3838501c0-19.2044373,0-38.4088745,0-58.4879456
	c-3.7805176,2.3254395-7.1125488,4.375-10.4445496,6.4245605c-0.2404175-0.2523499-0.4808044-0.5046692-0.7212219-0.757019
	c2.7659912-3.0153809,5.5008545-6.0600281,8.3057251-9.0388184c3.6114502-3.8354187,4.3375549-9.5301514,1.6011047-13.8139343
	c-4.5647888-7.1457825-4.3656616-14.7143555-1.9999084-22.4421997c1.7733765-5.7928772,7.3834534-7.1192627,11.9371033-8.6046753
	c5.5452271-1.8088379,11.6711731-1.8375854,17.9845581-2.6959229c-7.5903931,2.8073425-14.9387817,4.9361572-21.6527405,8.3228149
	c-2.4006958,1.2109985-4.4975586,5.4308777-4.574585,8.3346558c-0.1542969,5.8170776,1.1605835,11.6759644,1.9072571,17.5126953
	c0.312561,2.4434814,0.7226562,4.8744507,1.1385193,7.6448059c1.1091614-0.4171143,2.2506104-1.0394592,3.4650269-1.2598572
	c2.0665283-0.3750305,5.1012268-1.4428711,6.0596924-0.5079956c1.5030518,1.4660645,2.7311707,4.710907,2.1341858,6.583313
	c-3.1872253,9.996582-7.1274414,19.7502747-10.4841919,29.696991c-1.3095703,3.8804932-2.443634,8.0379028-2.4903259,12.0826721
	c-0.1052551,9.1144714,0.7049561,18.2360535,0.7672119,27.3572998c0.0319214,4.6810608-0.7425842,9.3675842-1.1876831,14.4522095
	c7.048584-0.920105,5.2485657-7.8421326,9.0296326-10.0245361c2.5627747,8.8562622-9.9956055,13.3132629-7.1343384,23.0918274
	c12.1526489,0,24.2069702-0.0702515,36.2589417,0.0655518c2.1409302,0.0241089,4.2722473,0.9047241,6.40802,1.3898315
	l0.0670776-0.0265503c-29.7110291-0.2131348-59.4220581-0.4290771-89.1331482-0.6343994
	c-2.6623535-0.0184326-5.3251648,0.0322876-7.9925842,0.0557251c-1.2605286-4.6749878-2.3963623-9.3911743-3.807373-14.0235596
	c-1.2810669-4.2059021-3.0327759-8.2707214-4.2620239-12.489502c-1.2329407-4.2313538-1.3061218-8.9598999-6.1698914-11.4462585
	c2.6462402-2.8170166,4.2886658-2.5252686,5.3729248,0.9090271c1.633606,5.17453,3.2439575,10.3586121,5.0180664,15.4853516
	c0.5664673,1.6368408,1.6215515,3.1046448,2.4530334,4.6498108c0.4625549-0.1548462,0.9251404-0.3096619,1.3876953-0.4644775
	c0-3.4520874,0.1342468-6.9114685-0.0531616-10.353363c-0.1031189-1.8940735-0.3248596-3.9987793-1.2291565-5.5902405
	c-2.4177551-4.2548523-5.5061646-8.1369934-7.8198853-12.4404297c-2.7559814-5.1260376-4.9828796-10.5364685-8.0561829-17.1522827
	c-1.7503662,4.6446228-2.9403381,7.9395142-4.231781,11.1941528c-1.5981445,4.02771-4.4777222,7.9571533-4.6989136,12.0430298
	c-0.6287537,11.614502-0.1074524,23.2877197-0.2210388,34.9360046c-0.0303955,3.1148071,1.1998291,4.0135498,4.1304321,4.036499
	C298.3769836,431.2398682,305.8208313,431.5482178,313.2654724,431.7564087z M367.0602417,355.4938965
	c3.1071167-7.9266663,7.8385925-14.5099792,8.0996094-22.9878845
	C366.1630554,334.4454041,363.1981201,342.7857056,367.0602417,355.4938965z"/>
<path d="M410.177063,432.493042c2.3130798-0.1824341,4.6261597-0.3649292,8.4606018-0.6674805
	c-0.9833984-3.3270874-1.3857422-6.4656982-2.7817383-9.0721741c-3.9240112-7.3267517-8.2572021-14.4343567-11.6455688-22.08255
	c4.1732788,5.1010132,8.3465576,10.2020264,13.0842285,15.9928894c2.092041-8.5766296-1.5007019-15.1184082-4.212738-21.4988098
	c-2.9451294-6.9287109-9.4004517-12.0967102-9.3516541-20.719696c0.0172729-3.0547485-3.1398315-6.0346375-4.4508667-9.2124023
	c-1.7779236-4.3094482-5.5762634-2.4604492-8.5258789-3.3396912c-2.739563-0.8166199-5.2478333-2.4092102-8.1500244-3.8001404
	c5.2427673,0,10.094574-0.6781616,14.6164856,0.2502441c2.7843933,0.5717163,6.1892395,3.0860901,7.3414612,5.6243286
	c2.513855,5.5377502,3.4328613,11.7774353,5.6452942,17.4813843c1.6330261,4.2102051,4.281189,8.0267029,6.8356934,12.6705933
	c0.4860535-1.2740784,0.8650818-1.8194275,0.881073-2.3751526c0.4203491-14.6179504,0.7998352-29.2370605,1.1948242-43.8557129
	c0.0889282-3.289917,0.0840759-6.5887756,0.3406982-9.8664246c0.6043701-7.7199097-4.0192261-13.6595154-6.4190063-20.3978271
	c-2.0600586-5.7844849-2.3190918-12.2536316-3.0270996-18.4596558c-0.4036865-3.5380859,0.6968384-7.6300659-3.9494019-9.0854187
	c-4.9685364-1.5563354-7.5266724,2.0067749-10.0052185,5.3202515c-2.1157532,2.8284302-4.0560303,5.7881165-6.0739136,8.6897278
	c-0.5800171-0.3566895-1.1600342-0.7133484-1.7400208-1.0700378c3.1181335-5.006897,5.3006897-11.1035767,9.5704346-14.7690125
	c6.6473999-5.706543,16.3966675-0.6097107,17.1048584,8.1674194c0.332428,4.119873-0.0738525,8.3322754,0.585022,12.3839722
	c0.7211914,4.4349365,2.2854919,8.7327271,3.4823914,13.090271c0.6165466-0.1319885,1.2331238-0.2639771,1.8497009-0.3959961
	c0-9.8514404,1.20755-19.9194641-0.5043945-29.4638367c-0.868988-4.8448486-5.3182983-9.347229-6.5670776-15.0408325
	c-1.5343018-6.9953613-4.4299316-13.6902771-6.7053528-20.5256042c-1.6232605-4.8763428-6.0452576-5.3171082-10.0546875-6.4225159
	c-1.0065918-0.2775269-2.0271301-0.5044861-3.796814-0.9411011c10.1410217-3.2292175,15.6011658-0.1612854,18.2965088,8.9002686
	c2.0557556,6.9111938,4.700531,13.6492004,7.1625061,20.4355469c0.4085693,1.1261902,1.2232666,2.105072,2.6260986,4.4475403
	c2.6066895-15.7120667-3.5698242-31.4290161,7.6070557-44.7039795c-0.4046631,3.0510864-0.072113,5.9042358-1.1830139,7.9876404
	c-4.6937256,8.8023682-2.18573,18.192627-2.8312073,27.3172607c-0.9080505,12.8365173-2.3868713,25.6495972-2.8064575,38.4993286
	c-0.4937439,15.1206665-0.1156921,30.2697754,0.7243958,45.6315613c2.0556641-5.0377502,3.7115479-10.2919006,6.286377-15.0486145
	c2.2903748-4.2312622,5.281311-8.2070312,8.5652466-11.7350464c2.3486938-2.5233154,5.4657898-2.7456665,6.8965149,1.4598083
	c2.2148743,6.510376,4.2758179,13.072937,6.452301,19.5965576c2.2444763,6.7272339,4.5491638,13.4343872,6.083374,20.5220032
	c-6.3114929-11.0236816-11.2383728-22.7506714-16.0004883-34.7140808
	c-8.8302002,7.2105713-10.2250671,17.5357361-15.289032,25.6661682c-5.1496887,8.268158-3.6116333,17.0467224-4.6315002,25.5415344
	c-1.0813599,9.0070496-0.2429199,18.2445679-0.2429199,27.5134277c3.1540833-1.4347534,6.0983887-2.7740784,8.7867126-3.9969788
	c-2.2832642,2.761261-5.0636292,5.181366-6.5757141,8.2304382c-1.3743896,2.7714539-1.6962585,6.2326965-1.6391602,9.3745422
	c0.0090942,0.5009766,4.4385986,1.2557983,6.8390198,1.3162231c7.0378418,0.177124,14.0830078,0.0630493,21.1096191,1.09375
	c-13.0456543,0-26.0913086,0-39.1687317,0.0147705C410.2441406,432.4664917,410.177063,432.493042,410.177063,432.493042z"/>
<path d="M472.9733276,296.300293c0-7.3374939,0.0557251-14.1301575-0.0567322-20.9200439
	c-0.0180054-1.0870361-0.5539246-2.3504639-1.2478638-3.2123108c-6.0299988-7.4891052-6.2067261-16.4434204-6.7781372-25.4015198
	c-0.2756653-4.3216248-1.4292297-8.5872498-3.3703918-13.1488647c-0.7494507,1.1141663-2.1489258,2.2320557-2.1426086,3.3418884
	c0.0406189,7.1036987-0.2680359,14.3069458,0.8062439,21.282135c1.3089905,8.4992371,0.9313965,16.4456787-3.2973022,24.0863953
	c0.3817139-4.5213928,1.3320007-9.0818481,1.0246582-13.5559082c-0.6059875-8.8204346-2.3380737-17.573761-2.7332153-26.3938599
	c-0.1822205-4.0672607,1.3987732-8.3265991,2.7808228-12.2893982c0.4818115-1.3815308,2.742218-2.8762207,4.2388306-2.9284363
	c1.1118164-0.0387573,3.055603,2.0171204,3.3290405,3.3974609c1.3128052,6.6274719,2.355835,13.322113,3.1492615,20.0337219
	c0.5077515,4.2950134,0.1402588,8.7539978,4.3279114,12.5197144c0-15.3274536,0.2869568-29.9676514-0.1784058-44.5839233
	c-0.1359863-4.271698-2.9029846-8.3959656-3.6047058-12.7270508c-1.3171387-8.1296387-2.007843-16.3608093-2.9590759-24.5497437
	c0.6744995-0.0808716,1.348999-0.1617432,2.023468-0.2426453c0.5885925,3.565033,0.9860229,7.1747437,1.806427,10.6856079
	c1.6034241,6.8617249,3.4790039,13.6593933,5.1580811,20.5041809c0.3877869,1.580719,0.6138306,3.2439575,0.6169434,4.8697815
	c0.0405273,21.1419678,0.0274353,42.2840576,0.0278015,63.4261169c0.0000916,6.3511658,0,12.7023315,0,20.4208984
	c2.7559509-2.0988159,4.4598389-3.3963928,6.1636963-4.6940002c0.2881165,0.1983032,0.5762329,0.3965759,0.8643494,0.5948792
	c-1.1921082,1.8712158-2.4252625,3.717865-3.5649414,5.6204529c-1.1546936,1.9277649-3.1238403,3.8895569-3.1704102,5.8731995
	c-0.2724609,11.6081238-2.8768921,22.8757019-0.9638672,34.9263916c1.9854126,12.5063477-0.4155884,25.7054443-0.8592224,38.6029053
	c-0.165802,4.8203735-0.1662292,9.6465759-0.3424988,14.4664612c-0.1879272,5.1390381-0.5449524,10.2720642-0.7164307,15.411438
	c-0.046936,1.4068298,0.3072815,2.8270569,0.503479,4.4575195c9.3715515-4.0730286,11.2942505,3.9325562,15.4246216,8.2102356
	c-0.241333,0.5009155-0.482666,1.0018311-0.723999,1.5027466c-3.4891052-1.6124878-6.978241-3.2250671-11.4971619-5.3135376
	c-1.3612976,2.9728394-3.0146484,6.583374-5.0290527,10.9824219c4.7561646,0.3500366,7.9612122,0.5859375,11.1662598,0.8218384
	c-0.0123901,0.1450806-0.0248108,0.2901611-0.0372009,0.4352417c-6.4004822,0-12.8009949,0-20.5027466,0
	c7.8651428-1.1824341,7.4613647-1.1502686,6.9099121-8.0749512c-0.417511-5.2426758,0.1755676-10.5984802,0.6706848-15.8709106
	c0.3945618-4.2015686-2.9638367-5.5035706-5.4670105-6.4347839c-1.2524719-0.4659119-4.4821167,1.8669434-5.4661255,3.6710205
	c-2.8635254,5.2499695-4.8047485,10.9994202-7.6098022,16.2865906c-1.1618042,2.1898804-3.6003113,3.7023926-5.4582214,5.5229492
	c-0.3084717-0.2619629-0.6169128-0.5239868-0.9253845-0.7859497c1.1875916-1.982666,2.6113586-3.8658447,3.5000916-5.9744873
	c0.9987183-2.3694763,1.9958191-4.913208,2.1493835-7.4326172c0.4522095-7.4186707,4.3049927-12.6671448,10.5238037-15.8178406
	c2.6412048-1.3381042,6.3332214-0.6020813,9.5476379-0.8087158c0.045929,0.4573975,0.0918274,0.9148254,0.1377258,1.3722229
	c0.2073669-0.2365417,0.5932312-0.4705811,0.5966187-0.710022c0.2256775-15.9476624,0.3876038-31.8962708,0.6293945-47.8436584
	c0.1661682-10.9604187,0.4441833-21.9190979,0.6600647-32.8787842c0.0360413-1.8295288-0.2434692-3.7034302,0.0592957-5.4825745
	c0.9895935-5.8154907-1.625885-9.1908569-6.6441345-11.8231201c-7.162262-3.7569275-14.2211914,0.0293274-14.4093018,8.118866
	c-0.0345459,1.4862976,0.2257996,3.2999878-0.5032043,4.394043c-3.1560364,4.7365723,0.1263428,8.886322,0.9003296,13.2275085
	c0.4414368,2.4758911,1.3891296,4.8615417,2.1088257,7.2878113c-0.3746338,0.1512756-0.7492676,0.3025818-1.1238708,0.4538574
	c-0.3973083-0.6766663-0.914093-1.3120728-1.1653137-2.0392456c-0.4308167-1.2469482-0.2821655-2.978363-1.0946045-3.7650146
	c-7.6313477-7.388855-5.0405579-16.4188538-3.990448-25.0723572c0.2442017-2.0119934,2.0444336-4.0813293,3.6104736-5.6402893
	c4.5874634-4.5667725,10.0503235-6.1563416,16.266571-3.616272
	C468.8017578,293.8029175,470.4277649,294.9047241,472.9733276,296.300293z"/>
<path d="M268.0160217,430.94104c-8.0463867,0.4382324-16.092804,0.8764038-24.1392212,1.3146362
	c-0.0324097-0.5656738-0.0648499-1.1313477-0.09729-1.6970215c1.7239075,0,3.5476379-0.3637695,5.1507568,0.0762329
	c3.2676392,0.8968506,5.5320129,0.565979,4.9514771-3.4318848c-0.3830566-2.6378174-1.2589722-5.2677307-2.3136292-7.7301025
	c-1.7416687-4.0664673-3.3466187-8.3201599-5.8713379-11.8842163c-2.2601013-3.1904907-5.6835938-5.5568237-8.593811-8.2867737
	c-0.69104,0.2077026-1.3820496,0.4154053-2.0730896,0.6231079c-1.4116211,5.5621643-2.8232727,11.1243591-4.2348938,16.6865234
	c-0.204834-0.0697021-0.409668-0.1394043-0.614502-0.2091064c0.6418304-5.1382141,1.3114929-10.2731628,1.9176636-15.4155579
	c0.609375-5.169342,4.5330505-4.9057312,7.5818176-4.9669189c0.519104-7.4627075,1.3931274-14.764801,1.3375244-22.0598145
	c-0.0196533-2.5830078-2.2921753-5.1554565-3.5771179-7.7121277c-0.1278381-0.254364-0.6373596-0.2999878-0.8084717-0.5520325
	c-3.1556702-4.6481323-6.7620087-7.7645569-12.9017792-4.8909302c-1.3790283,0.6454163-3.3178406,0.0948181-4.9989471,0.0948181
	c0.000412-0.4220886,0.000824-0.8442078,0.0012207-1.2662964c2.6250916-0.5128174,5.2396393-1.0902405,7.8782196-1.5201416
	c2.6194153-0.4267578,3.3418274-1.5362549,2.2373199-4.127594c-1.1266327-2.6433105-1.7971039-5.4809875-2.0735168-8.4502258
	c1.4752502,3.1343689,2.9505005,6.2687683,4.1583862,8.835083c6.1703186-0.8508301,11.6294556-1.9659119,17.1322327-2.2574158
	c5.1868896-0.2746582,9.124939,3.6424561,8.6760559,8.9904785c-0.475769,5.6679382-2.1192627,11.2362976-3.2276306,16.8530884
	c-0.8954773,4.5380249,0.5379333,13.1293945,2.8147888,16.5960388c1.4362488-6.6390381,2.842865-13.1412964,4.2495117-19.6435242
	c0.2567139,0.0161133,0.5134277,0.0322571,0.7701416,0.0483704c-0.9441223,8.1662292-1.8882751,16.332489-2.832428,24.4987488
	c0.2803345,0.1123047,0.5606689,0.2246399,0.8410034,0.3369751c2.4171143-7.0548706,4.834198-14.1097717,7.2513123-21.1646423
	c0.3388672,0.1003418,0.6777344,0.2007141,1.0166016,0.3010559c-1.6967163,7.7027588-3.3934021,15.4054871-5.0901184,23.1082458
	c0.3286438,0.1345215,0.6572571,0.2690125,0.9859009,0.4035339c2.8050232-6.7594604,5.8935242-13.4181824,8.3416138-20.3045349
	c2.9080505-8.1802673,7.1303711-15.0271606,15.1078796-18.7221375c0,6.934967,0,13.8143921,0.0001831,20.6940002
	c0.0002136,0.0001526,0.1046143-0.1235962,0.1046448-0.1236267c-0.4974976-5.8043213-0.9950562-11.608551-1.5039978-17.5457764
	c-8.2845154,7.4758606-10.9665527,17.0858154-13.708374,26.7955017c-1.2687073,4.492981-3.4255981,8.8392639-5.7971191,12.8907166
	c-3.046875,5.2052002-6.8043213,9.9889832-10.0843506,15.0650024c-2.3338928,3.6118774-1.1392517,9.5257568,1.8505554,9.7376099
	c3.3947449,0.2405396,6.815918,0.1087036,10.2255859,0.1387939L268.0160217,430.94104z M249.37677,387.4914856
	c0.2495422-0.109375,0.499115-0.21875,0.7486877-0.328125c-0.2948608-2.2866821-0.6676941-4.5665588-0.868927-6.8614807
	c-0.4777832-5.447876-0.8970032-10.8332825,2.3938599-15.8128052c1.0177612-1.539978,1.9924316-4.3892822,1.2599182-5.5362549
	c-1.4847717-2.3248901-3.6597595-4.6400146-7.4084473-3.1254578c-3.2487183,1.3125916-6.7695312,1.9515991-10.9920349,3.1147156
	c2.5671997,4.8506775,8.521759,6.9073181,9.8501282,12.5274658
	C245.6439514,376.901947,247.6742554,382.1579895,249.37677,387.4914856z M244.1610718,386.9283752
	c-0.6920776,0.2188416-1.3841858,0.4376526-2.0762634,0.6564636c3.4013977,9.5448303,6.8027649,19.0896606,10.2041321,28.634491
	C256.8321533,404.0003357,249.4219055,395.8262329,244.1610718,386.9283752z"/>
<path d="M114.8244019,378.6480103c-9.0735626,7.1529846-9.766983,18.4636841-14.2471542,27.8535156
	c-0.4284897,0.8980713-0.6815948,2.0265808-1.3788452,2.626709c-6.3934021,5.5028992-7.1776657,12.6531067-5.9678574,20.0059814
	c8.553154,0.8140259,17.2876892,1.6453247,23.4547882,2.2322388c-31.9180298,0-66.3372192,0-100.7564087,0
	c-0.0275154-0.7483521-0.0550346-1.4967041-0.0825539-2.2450562c2.6004295,0,5.2009315,0.0128174,7.8012657-0.0025635
	c6.6035538-0.0390015,8.0502663-1.1782227,6.1757698-7.5548401c-1.4325676-4.8732605-1.7520905-9.0510559,0.0336266-13.8076172
	c0.8723259-2.3235779,0.1509933-5.2455139,1.1927223-7.8895569c0,9.3949585,0,18.7898865,0,28.6201172
	c4.8929558,0.2855835,9.5958252,0.5601196,14.5376129,0.8485718c1.0190735-5.7982788,1.4475479-10.2583313-2.6374512-15.1329651
	c-4.9147453-5.8647766-8.1999664-13.0950928-12.1906586-19.7342224c0.3681717-0.2299805,0.7363472-0.4599609,1.1045227-0.6899414
	c4.2489967,6.0392151,8.4979935,12.0784302,12.746994,18.1176453c0.3727875-0.20401,0.745575-0.40802,1.1183624-0.6119995
	c0.2722778-1.8150635,0.5445557-3.630127,0.8168411-5.4451599c0.3279953-0.006012,0.6559982-0.0120239,0.9839935-0.0180054
	c0.2125092,3.1383972,0.4250259,6.2767944,0.6375351,9.4151917c0.5132523,0.1723633,1.0265121,0.3447266,1.539772,0.5170898
	c2.9478989-6.9271545,5.8958054-13.8543091,8.8437042-20.7814636c0.6103516,0.2633362,1.2206955,0.5267029,1.8310471,0.7900391
	c-4.3541565,7.0896912-2.0184174,16.537323-9.4613266,22.8164368c-2.0612793,1.7389221-1.8108444,6.2180481-2.9636536,10.8024597
	c14.742157,0,28.1059036,0,41.5378189,0c1.2716599-6.2838135,0.7906036-10.3725891-4.9512939-13.7172241
	c-3.9868546-2.3223572-6.5479507-7.0923462-9.7460327-10.7687988c0.2766113-0.3042908,0.5532227-0.6085815,0.8298416-0.9128723
	c4.0386658,3.2918701,8.0773392,6.5837708,13.0450821,10.6329346c1.6900711-16.1165466,3.2701035-31.1836548,5.000061-47.680542
	c0,14.5466003,0,27.6308289,0,42.2170105C101.0593643,398.3310547,102.3152084,384.5019836,114.8244019,378.6480103z"/>
<path d="M198.3190613,387.6163025c1.0170135-13.0271606,2.0151672-25.8128662,3.0133362-38.5985718
	c0.4211426,0.02771,0.8423004,0.0553894,1.263443,0.0830688c0,21.6749268,0,43.349823,0,65.7879333
	c6.2252197-4.9360352,5.4575043-12.2117004,7.5529938-18.1828613c0.2960052,0.0622253,0.5387115,0.0500183,0.5754395,0.131134
	c0.2522888,0.5570984,0.4614716,1.133728,1.0732422,2.6978455c4.1059418-7.9008179,7.7937775-14.9970398,11.4815979-22.0932922
	c0.2757874,0.1043091,0.5515747,0.2086182,0.8273621,0.3129272c-2.7694397,7.0735779-5.5035706,14.161377-8.3359222,21.2096863
	c-0.6222382,1.5484619-3.68367,3.0692444,0.2765656,4.3262329c0.1768494,0.0560913,0.27388,1.2910767-0.0016022,1.7029724
	c-3.1427002,4.6999207-6.3376617,9.3657837-9.5816498,13.9966431c-1.0791168,1.5404968-3.0436554,2.8055725-3.3918457,4.4526672
	c-1.3933868,6.5914917-0.3002472,7.5040894,8.1437225,8.2138062c-4.2264404,0.270813-8.4528809,0.541626-13.4356384,0.8609009
	c3.3196869-4.7042847,2.6073761-10.8876038-0.9021454-15.4017639c-5.125061-6.5921936-6.9709625-14.3356628-7.85466-22.4432678
	c2.9311981,6.4493408,5.862381,12.8986816,8.7935791,19.3480225c0.5365753-0.1916199,1.0731659-0.3832092,1.6097565-0.5747986
	c-0.7107086-4.9616089-0.1226196-9.7576904-3.0692596-14.8211975c-3.0236664-5.1958618-4.356369-11.6618042-5.2245483-17.7438049
	c-0.8327484-5.8337402-2.8320465-9.7775879-8.5432739-11.9329224c-2.5659943-0.9683838-4.6585541-3.1912842-6.9659424-4.8449097
	c0.2815094-0.4145813,0.5630035-0.8291321,0.8445129-1.2436829c4.8825226,2.8664246,10.8209991,4.8095703,14.3568268,8.8534851
	C194.516922,375.9350281,195.8955841,382.1801758,198.3190613,387.6163025z"/>
<path d="M131.5447388,356.8114624c4.5053864,16.0678406,9.0107574,32.1357117,13.5161438,48.2035522
	c0.5747223-0.0689697,1.1494293-0.13797,1.7241364-0.2069702c0.1761169-2.6717529,0.3522186-5.3435059,0.5283356-8.0152588
	c0.1804962,0.003418,0.3610077,0.0068359,0.5415039,0.0102539c0,2.9342041,0,5.8684387,0,9.8260193
	c8.5085297-8.7868347,8.2772827-21.7658997,17.0959625-29.2904358c-2.4987946,6.9503479-4.468399,13.7473755-7.3671265,20.1219482
	c-2.9210663,6.4237976-6.7649384,12.427948-10.2044983,18.6159363c0.3988647,0.3059692,0.7977142,0.6119385,1.196579,0.9179077
	c1.7967224-1.6679993,3.7494202-3.2008972,5.345459-5.0427856c1.5374603-1.774231,2.7064514-3.8678284,4.037323-5.8211365
	c0.5447693,0.3494873,1.0895386,0.6989746,1.6343079,1.0484619c-2.8701019,4.3935242-5.8775787,8.7055969-8.5523987,13.2149658
	c-1.3385162,2.2565613-2.3652496,4.800354-2.9934845,7.3473511c-0.6356354,2.5770874,1.0246887,3.4697876,3.5028229,3.4006348
	c3.8505707-0.1075439,7.7063599-0.0284424,11.5597992,0.5830688c-13.0610657,0-26.1221313,0-39.183197,0
	c-0.004303-0.2277222-0.0085907-0.4553833-0.0128937-0.6831055c6.7962952,0,13.5926056,0,20.4724884,0
	c1.6049652-4.9478149,0.4342651-8.9294128-2.0084229-12.6679993c-1.7917175-2.7422485-4.2725983-5.1878967-5.4196777-8.1617432
	c-1.7232513-4.4674683-2.5478516-9.2815857-2.6573944-14.1551514c3.3576813,6.7314758,6.7153625,13.4629211,10.0730286,20.1943665
	c0.2771301-0.1122437,0.554245-0.2245178,0.8313599-0.3367615c-3.0856323-9.7756348-6.6787262-19.427002-9.1125183-29.3623047
	c-2.3775177-9.7056274-3.5717773-19.7011414-5.2854767-29.569397
	C131.0528564,356.9257507,131.2987976,356.8685913,131.5447388,356.8114624z"/>
<path d="M646.3908081,39.9698029"/>
<path d="M193.2657318,431.7379761c-8.4468536,0-16.8937073,0-25.3405609,0
	c0.0005341-0.4126587,0.0010529-0.8253174,0.0015869-1.2379761c8.4463348,0,16.8926697,0,25.3390045,0
	C193.2657471,430.9126587,193.2657318,431.3253174,193.2657318,431.7379761z"/>
<path d="M237.97995,432.2106934c-7.4611664,0-14.9223175,0-22.3834686,0
	c-0.0005493-0.3217773-0.0010986-0.6436157-0.0016479-0.9653931c7.4452057,0,14.8904266,0,22.3356171,0
	C237.9469604,431.5670776,237.9634399,431.888916,237.97995,432.2106934z"/>
<path d="M662.5141602,36.8421402c0-8.060936,0-16.1218643-0.0024414-24.1814346
	c-0.0023804,8.0444717-0.0023804,16.0875778-0.0007324,24.1477356
	C662.5126953,36.8255005,662.5141602,36.8421402,662.5141602,36.8421402z"/>
<path fill="#FFFFFF" d="M685.3550415,172.2223206c1.0460205-7.4765167,1.5028687-13.9544983,2.9732056-20.193634
	c1.09729-4.6563263,8.5444946-6.0192261,11.7594604-2.6354065c0.342041,0.3600616,0.670105,0.7348785,1.0291138,1.077179
	c7.4771118,7.1288757,7.3001099,6.9376984-1.6964111,11.5470276
	C694.8755493,164.3460541,691.0274658,168.0344849,685.3550415,172.2223206z"/>
<path fill="#FFFFFF" d="M623.4702148,418.5509949c-0.1727905-5.3039856-0.5101929-10.6115417-0.394165-15.9092102
	c0.0266113-1.2138367,1.52771-3.3013306,2.5020142-3.3942261c1.8543091-0.1767883,4.5307617,0.1753235,5.6018677,1.4070435
	c3.1311646,3.6006165,2.0327759,6.8287354-2.1331177,9.280304c-1.2479248,0.7344055-2.0322266,2.3395691-2.8856201,3.6398926
	c-1.0203247,1.5546875-1.8868408,3.2103577-2.8022461,4.8444519
	C623.376709,418.4414062,623.4702148,418.5509949,623.4702148,418.5509949z"/>
<path fill="#FFFFFF" d="M555.9163208,321.0988159c-1.6243286,1.5659485-3.2485962,3.1318665-5.8805542,5.66922"/>
<path fill="#FFFFFF" d="M550.0357666,291.2003479c2.6455688,2.3476257,6.3383789,22.4208069,5.7307129,30.0734253
	c-0.0038452,0.0046082,0.1498413-0.1749573,0.1498413-0.1749573"/>
<path fill="#FFFFFF" d="M525.8579102,170.3504028c-5.1782227-6.4448395-4.9586182-11.323761,0.9372559-15.9613037
	c1.0270386-0.8078766,2.7155762-1.2516327,3.980835-1.0651093c0.5736084,0.084549,1.1466675,2.1017151,1.2254639,3.2753754
	C532.3197632,161.3386688,530.085083,166.1480713,525.8579102,170.3504028z"/>
<path fill="#FFFFFF" d="M313.2654724,431.7564087c-7.4446411-0.2081909-14.8884888-0.5165405-22.3343201-0.5748291
	c-2.930603-0.0229492-4.1608276-0.9216919-4.1304321-4.036499c0.1135864-11.6482849-0.4077148-23.3215027,0.2210388-34.9360046
	c0.2211914-4.0858765,3.100769-8.0153198,4.6989136-12.0430298c1.2914429-3.2546387,2.4814148-6.54953,4.231781-11.1941528
	c3.0733032,6.6158142,5.3002014,12.0262451,8.0561829,17.1522827c2.3137207,4.3034363,5.4021301,8.1855774,7.8198853,12.4404297
	c0.9042969,1.5914612,1.1260376,3.696167,1.2291565,5.5902405c0.1874084,3.4418945,0.0531616,6.9012756,0.0531616,10.353363
	c-0.4625549,0.1548157-0.9251404,0.3096313-1.3876953,0.4644775c-0.8314819-1.545166-1.8865662-3.01297-2.4530334-4.6498108
	c-1.7741089-5.1267395-3.3844604-10.3108215-5.0180664-15.4853516c-1.084259-3.4342957-2.7266846-3.7260437-5.3729248-0.9090271
	c4.8637695,2.4863586,4.9369507,7.2149048,6.1698914,11.4462585c1.229248,4.2187805,2.980957,8.2835999,4.2620239,12.489502
	c1.4110107,4.6323853,2.5468445,9.3485718,3.807373,14.0235596
	C313.12323,431.8830566,313.2654724,431.7564087,313.2654724,431.7564087z"/>
<path fill="#FFFFFF" d="M268.0567932,431.0672607c-3.409668-0.0301514-6.8308411,0.1016846-10.2255859-0.138855
	c-2.9898071-0.211853-4.1844482-6.1257324-1.8505554-9.7376099c3.2800293-5.0760193,7.0374756-9.8598022,10.0843506-15.0650024
	c2.371521-4.0514526,4.5284119-8.3977356,5.7971191-12.8907166c2.7418213-9.7096863,5.4238586-19.3196411,13.708374-26.7955017
	c0.5089417,5.9372253,1.0065002,11.7414551,1.5039673,17.5457764c-0.3166504,13.2776489-0.7092285,26.5540466-0.9211426,39.833374
	c-0.1253052,7.8528442-1.2902527,8.5039673-9.1863403,6.4534302
	C274.2489929,429.5664062,271.0409546,430.7479248,268.0567932,431.0672607z"/>
<path fill="#FFFFFF" d="M367.0602417,355.4938965c-3.8621216-12.7081909-0.8971863-21.0484924,8.0996094-22.9878845
	C374.8988342,340.9839172,370.1673584,347.5672302,367.0602417,355.4938965z"/>
<path fill="#FFFFFF" d="M249.37677,387.4914856c-1.7025146-5.3334961-3.7328186-10.5895386-5.0168152-16.0219421
	c-1.3283691-5.6201477-7.2829285-7.6767883-9.8501282-12.5274658c4.2225037-1.1631165,7.7433167-1.802124,10.9920349-3.1147156
	c3.7486877-1.5145569,5.9236755,0.8005676,7.4084473,3.1254578c0.7325134,1.1469727-0.242157,3.9962769-1.2599182,5.5362549
	c-3.290863,4.9795227-2.8716431,10.3649292-2.3938599,15.8128052c0.2012329,2.2949219,0.5740662,4.5747986,0.868927,6.8614807
	C249.875885,387.2727356,249.6263123,387.3821106,249.37677,387.4914856z"/>
<path fill="#FFFFFF" d="M244.1610718,386.9283752c5.2608337,8.8978577,12.6710815,17.0719604,8.1278687,29.2909546
	c-3.4013672-9.5448303-6.8027344-19.0896606-10.2041321-28.634491
	C242.776886,387.3660278,243.4689941,387.1472168,244.1610718,386.9283752z"/>
</svg>
