<?xml version="1.0" encoding="utf-8"?>
<!-- Generator: Adobe Illustrator 17.1.0, SVG Export Plug-In . SVG Version: 6.00 Build 0)  -->
<!DOCTYPE svg PUBLIC "-//W3C//DTD SVG 1.1//EN" "http://www.w3.org/Graphics/SVG/1.1/DTD/svg11.dtd">
<svg version="1.1" id="Layer_1" xmlns="http://www.w3.org/2000/svg" xmlns:xlink="http://www.w3.org/1999/xlink" x="0px" y="0px"
	 viewBox="0 0 50 50" enable-background="new 0 0 50 50" xml:space="preserve">
<g id="base">
	<g>
		
			<linearGradient id="SVGID_1_" gradientUnits="userSpaceOnUse" x1="-2.234771" y1="23.7688885" x2="-2.234771" y2="14.9533529" gradientTransform="matrix(2 0 -1.5237321 2 59.432991 0)">
			<stop  offset="0" style="stop-color:#000000;stop-opacity:0.4"/>
			<stop  offset="1" style="stop-color:#000000;stop-opacity:0"/>
		</linearGradient>
		<path fill="url(#SVGID_1_)" d="M9.0599165,40.3744431c-1.0136261-1.1356812-1.0282755-2.3157997-0.0444078-3.6071892
			c2.9308958-3.8469963,13.1053467-6.860548,23.1632748-6.860548c10.0574493,0,15.6400566,3.0135517,12.7091599,6.860548
			c-0.984005,1.2915726-2.7963524,2.4716911-5.5403137,3.6071892l-20.6013584,7.1633339L9.0599165,40.3744431z"/>
		
			<linearGradient id="SVGID_2_" gradientUnits="userSpaceOnUse" x1="9.4644861" y1="23.7688885" x2="9.4644861" y2="0.4963778" gradientTransform="matrix(2 0 0 2 0 0)">
			<stop  offset="0" style="stop-color:#007BB8"/>
			<stop  offset="1" style="stop-color:#0094DE"/>
		</linearGradient>
		<path fill="url(#SVGID_2_)" d="M3.7853599,28.6269836C1.906496,25.628849,0.9927555,22.5134048,0.9927555,19.104208
			c0-10.1558504,7.8785281-18.1114521,17.9364605-18.1114521c10.0574474,0,17.9359722,7.9556022,17.9359722,18.1114521
			c0,3.4096832-0.9132538,6.5251255-2.7921181,9.5227757L18.9292164,47.5377769L3.7853599,28.6269836z"/>
		<path fill="#FFFFFF" d="M18.9289875,1.9855111c9.5010395,0,16.9435253,7.5195017,16.9435253,17.1188774
			c0,3.1993198-0.8541412,6.1270123-2.6105003,8.9462891l-14.333025,17.8983994L4.5960631,28.050724
			c-1.7563884-2.8193951-2.6105566-5.7471256-2.6105566-8.9463348C1.9855064,9.5050125,9.4279709,1.9855111,18.9289875,1.9855111
			 M18.9289875,0.0000038C8.3829107,0.0000038,0,8.4605055,0,19.1043892c0,3.8208771,1.0817262,7.0958958,2.974632,10.0979919
			L18.9289875,49.125515l15.9544353-19.9231339c1.8929443-3.0020962,2.9745979-6.2771149,2.9745979-10.0979919
			C37.8580208,8.4605055,29.4751511,0.0000038,18.9289875,0.0000038L18.9289875,0.0000038z"/>
	</g>
</g>
<g>
	<path opacity="0.6" enable-background="new    " d="M27.1301765,13.5920601V10.391489h-0.2921448
		c-0.8769417,0-1.5831909,0.7169647-1.5831909,1.6007957c0,0.8858728,0.7065029,1.6000309,1.5831909,1.6000309h0.2921448V13.5920601
		z"/>
	<path opacity="0.6" enable-background="new    " d="M24.7419968,12.8625927l-1.3841782-2.7948866
		c-0.3077087-0.5753584-0.9019451-0.9624166-1.5984993-0.9624166h-3.2125645c-0.3018398,0-0.5414238,0.2457066-0.5414238,0.5506086
		c0,0.3018389,0.2393284,0.5467815,0.5414238,0.5467815l3.2125645-0.0028067c0.2612705,0,0.550354,0.1788578,0.6628723,0.4276266
		l0.8830662,1.7827177L24.7419968,12.8625927z"/>
	<path opacity="0.6" enable-background="new    " d="M31.1237469,15.8557301
		c0.4171677,0.1194086,0.7248745,0.5125923,0.7248745,0.9721127l-2.3386822,0.0033169
		c-3.0791206,0-5.5793114,2.5308113-5.5793114,5.6431007H16.313448c0-2.5022316-1.611001-4.6212349-3.8346128-5.3634567
		l-4.1987095-1.3964252l0.6968079-1.0751915c0.2454529-0.3743029,0.6715488-0.6228161,1.1535225-0.6228161
		c0.1086941,0,0.2082005,0.0096951,0.2985239,0.0283213l9.3519249,2.9303694
		c0.1150723,0.034956,0.2334614,0.0568981,0.3607807,0.0568981c0.4227791,0,0.7901917-0.2171307,1.0106373-0.5475464
		l2.1243591-3.1059113L31.1237469,15.8557301z"/>
	<path opacity="0.6" enable-background="new    " d="M28.6636143,24.8922939c0.7901936,0,1.4244919-0.6478195,1.4244919-1.4369907
		c0-0.7988682-0.6342983-1.4403095-1.4244919-1.4403095c-0.7804947,0-1.414793,0.6414413-1.414793,1.4403095
		C27.2488194,24.2442188,27.8831177,24.8922939,28.6636143,24.8922939 M24.860384,23.4553032
		c0-2.1284428,1.7041302-3.84482,3.8032284-3.84482c2.0962944-0.0002537,3.8004265,1.7163773,3.8004265,3.84482
		c0,2.1223164-1.7041321,3.8453293-3.8004265,3.8453293C26.5642586,27.3006325,24.860384,25.5776196,24.860384,23.4553032"/>
	<path opacity="0.6" enable-background="new    " d="M11.1413507,24.6246452c0.858572,0,1.5612488-0.7042084,1.5612488-1.5780888
		c0-0.8743935-0.7026768-1.5814056-1.5612488-1.5814056c-0.8675013,0-1.5640545,0.7070141-1.5640545,1.5814056
		C9.5772963,23.9204369,10.2738495,24.6246452,11.1413507,24.6246452 M6.9492755,23.0434933
		c0-2.3300076,1.8720183-4.2260113,4.183146-4.2260113c2.3139334,0,4.1798277,1.8962593,4.1798277,4.2260113
		c0,2.3358765-1.8658943,4.2318783-4.1798277,4.2318783C8.8212938,27.2753716,6.9492755,25.3796272,6.9492755,23.0434933"/>
	<path fill="#FFFFFF" d="M26.6338005,13.0956831V9.895112h-0.2921448c-0.8769417,0-1.5831909,0.7169647-1.5831909,1.6007967
		c0,0.8858719,0.7065029,1.6000299,1.5831909,1.6000299h0.2921448V13.0956831z"/>
	<path fill="#FFFFFF" d="M24.2456188,12.3662157l-1.3841782-2.7948866
		c-0.3077068-0.5753574-0.9019451-0.9624166-1.5984974-0.9624166h-3.2125645c-0.3018398,0-0.5414238,0.2457066-0.5414238,0.5506086
		c0,0.3018398,0.2393284,0.5467815,0.5414238,0.5467815l3.2125645-0.0028067c0.2612705,0,0.550354,0.1788578,0.6628723,0.4276266
		l0.8830662,1.7827177L24.2456188,12.3662157z"/>
	<path fill="#FFFFFF" d="M30.6273708,15.359354c0.4171677,0.1194096,0.7248764,0.5125914,0.7248764,0.9721127l-2.3386841,0.003315
		c-3.0791225,0-5.5793133,2.5308113-5.5793133,5.6431026h-7.617178c0-2.5022316-1.611002-4.6212349-3.8346128-5.3634586
		l-4.1987104-1.3964243l0.6968079-1.0751915c0.2454529-0.3743019,0.6715498-0.6228151,1.1535234-0.6228151
		c0.1086931,0,0.2081995,0.0096941,0.2985229,0.0283203l9.3519258,2.9303703
		c0.1150723,0.034956,0.2334614,0.0568981,0.3607788,0.0568981c0.4227791,0,0.7901917-0.2171307,1.0106392-0.5475473
		l2.1243591-3.1059113L30.6273708,15.359354z"/>
	<path fill="#FFFFFF" d="M28.1672382,24.395916c0.7901936,0,1.42449-0.6478195,1.42449-1.4369907
		c0-0.7988663-0.6342964-1.4403095-1.42449-1.4403095c-0.7804947,0-1.414793,0.6414433-1.414793,1.4403095
		C26.7524433,23.7478409,27.3867416,24.395916,28.1672382,24.395916 M24.364006,22.9589252
		c0-2.1284409,1.7041321-3.84482,3.8032303-3.84482c2.0962925-0.0002537,3.8004246,1.7163792,3.8004246,3.84482
		c0,2.1223183-1.7041321,3.8453312-3.8004246,3.8453312C26.0678825,26.8042564,24.364006,25.0812435,24.364006,22.9589252"/>
	<path fill="#FFFFFF" d="M10.6449738,24.1282673c0.858572,0,1.5612488-0.7042084,1.5612488-1.5780869
		c0-0.8743935-0.7026768-1.5814056-1.5612488-1.5814056c-0.8675013,0-1.5640545,0.7070141-1.5640545,1.5814056
		C9.0809193,23.4240589,9.7774725,24.1282673,10.6449738,24.1282673 M6.452899,22.5471153
		c0-2.3300076,1.8720179-4.2260094,4.1831455-4.2260094c2.3139334,0,4.1798277,1.8962574,4.1798277,4.2260094
		c0,2.3358765-1.8658943,4.2318783-4.1798277,4.2318783C8.3249168,26.7789936,6.452899,24.8832493,6.452899,22.5471153"/>
</g>
</svg>
