<?xml version="1.0" encoding="utf-8"?>
<!-- Generator: Adobe Illustrator 17.1.0, SVG Export Plug-In . SVG Version: 6.00 Build 0)  -->
<!DOCTYPE svg PUBLIC "-//W3C//DTD SVG 1.1//EN" "http://www.w3.org/Graphics/SVG/1.1/DTD/svg11.dtd">
<svg version="1.1" id="Layer_1" xmlns="http://www.w3.org/2000/svg" xmlns:xlink="http://www.w3.org/1999/xlink" x="0px" y="0px"
	 viewBox="0 0 50 50" enable-background="new 0 0 50 50" xml:space="preserve">
<g id="base">
	<g>
		
			<linearGradient id="SVGID_1_" gradientUnits="userSpaceOnUse" x1="-15.8786392" y1="88.031662" x2="-15.8786392" y2="92.4705429" gradientTransform="matrix(4 0 3.0474641 -4 -185.8804321 400)">
			<stop  offset="0" style="stop-color:#000000;stop-opacity:0.4"/>
			<stop  offset="1" style="stop-color:#000000;stop-opacity:0"/>
		</linearGradient>
		<path fill="url(#SVGID_1_)" d="M9.1238689,40.6594429c-1.0207815-1.1436996-1.035533-2.3321457-0.0447216-3.6326561
			c2.9515839-3.8741493,13.1978531-6.9089737,23.3267822-6.9089737c10.1284409,0,15.7504539,3.0348244,12.7988701,6.9089737
			c-0.9909515,1.3006935-2.8160934,2.4891434-5.5794258,3.6326561l-20.7467766,7.2138977L9.1238689,40.6594429z"/>
		
			<linearGradient id="SVGID_2_" gradientUnits="userSpaceOnUse" x1="4.7656469" y1="88.031662" x2="4.7656469" y2="99.750061" gradientTransform="matrix(4 0 0 -4 0 400)">
			<stop  offset="0" style="stop-color:#007BB8"/>
			<stop  offset="1" style="stop-color:#0094DE"/>
		</linearGradient>
		<path fill="url(#SVGID_2_)" d="M3.8120801,28.8290596c-1.8921264-3.0192986-2.8123169-6.1567326-2.8123169-9.5899963
			c0-10.2275372,7.9341407-18.2392979,18.0630703-18.2392979c10.1284389,0,18.0625782,8.0117588,18.0625782,18.2392979
			c0,3.4337521-0.9197006,6.5711861-2.8118286,9.5899963l-15.2507496,19.044281L3.8120801,28.8290596z"/>
		<path fill="#FFFFFF" d="M19.062603,1.9995302c9.5681038,0,17.0631294,7.5725799,17.0631294,17.2397156
			c0,3.2219028-0.8601723,6.1702614-2.6289291,9.0094376L19.062603,46.2734261L4.6285057,28.2487297
			c-1.7687864-2.8392944-2.6289842-5.7876911-2.6289842-9.0094833C1.9995216,9.5721102,9.4945211,1.9995302,19.062603,1.9995302
			 M19.062603,0.0000076C8.4420834,0.0000076,0,8.5202303,0,19.2392464c0,3.8478489,1.0893619,7.1459846,2.9956293,10.1692734
			L19.062603,49.4722862l16.0670547-20.0637665c1.9063072-3.0232887,2.995594-6.3214245,2.995594-10.1692734
			C38.1252518,8.5202303,29.6832104,0.0000076,19.062603,0.0000076L19.062603,0.0000076z"/>
	</g>
</g>
<g opacity="0.6">
	<path d="M29.3316822,29.7235394c0-0.9475479-1.7064857-3.599329-1.7064857-3.599329s-1.7321415,2.6517811-1.7321415,3.599329
		c0,0.9468727,0.7699642,1.7150383,1.7193127,1.7150383C28.561718,31.4385777,29.3316822,30.6704121,29.3316822,29.7235394z"/>
	<g>
		<path d="M16.996912,14.8706799h-3.4386272v-3.4386292h0.9378691V9.5565376H8.2441425v1.8755131h0.9378691v5.3141422
			c0,1.3812599,1.1197262,2.500761,2.5007601,2.500761h5.3141403v0.9378681h1.875515v-6.2517872h-1.875515V14.8706799z"/>
		<path d="M29.8133335,22.6858063V17.371664c0-1.3810329-1.1195011-2.5007591-2.5005341-2.5007591h-5.3143673v-0.93787H20.122694
			v6.2520123h1.8757381V19.247179h3.4384041v3.4386272h-0.937645v1.8755131h6.2520123v-1.8755131H29.8133335z"/>
	</g>
</g>
<path fill="#FFFFFF" d="M28.8317432,29.2235985c0-0.9475479-1.7064877-3.599329-1.7064877-3.599329
	s-1.7321415,2.6517811-1.7321415,3.599329c0,0.9468727,0.7699661,1.7150383,1.7193127,1.7150383
	C28.0617771,30.9386368,28.8317432,30.1704712,28.8317432,29.2235985z"/>
<g>
	<path fill="#FFFFFF" d="M16.496973,14.370739h-3.4386282v-3.4386282h0.9378681v-1.875514H7.7442017v1.875514h0.9378691v5.3141413
		c0,1.3812599,1.1197262,2.500761,2.5007601,2.500761h5.3141422v0.9378681h1.8755131V13.433095H16.496973V14.370739z"/>
	<path fill="#FFFFFF" d="M29.3133945,22.1858673v-5.3141441c0-1.3810329-1.1195011-2.5007591-2.500536-2.5007591h-5.3143654
		V13.433095h-1.8757401v6.2520113h1.8757401v-0.9378681h3.4384022v3.4386292h-0.937645v1.8755112h6.2520123v-1.8755112H29.3133945z"
		/>
</g>
</svg>
