<?xml version="1.0" encoding="utf-8"?>
<!-- Generator: Adobe Illustrator 17.1.0, SVG Export Plug-In . SVG Version: 6.00 Build 0)  -->
<!DOCTYPE svg PUBLIC "-//W3C//DTD SVG 1.1//EN" "http://www.w3.org/Graphics/SVG/1.1/DTD/svg11.dtd">
<svg version="1.1" id="Layer_1" xmlns="http://www.w3.org/2000/svg" xmlns:xlink="http://www.w3.org/1999/xlink" x="0px" y="0px"
	 viewBox="0 0 60 60" enable-background="new 0 0 60 60" xml:space="preserve">
<g id="base">
	<g>
		
			<linearGradient id="SVGID_1_" gradientUnits="userSpaceOnUse" x1="-12.6099606" y1="85" x2="-12.6099606" y2="90.3407974" gradientTransform="matrix(4 0 3.0474641 -4 -185.8804321 400)">
			<stop  offset="0" style="stop-color:#000000;stop-opacity:0.4"/>
			<stop  offset="1" style="stop-color:#000000;stop-opacity:0"/>
		</linearGradient>
		<path fill="url(#SVGID_1_)" d="M10.9777107,51.3203468c-1.2281895-1.3760834-1.2459393-2.8060074-0.0538082-4.3707581
			c3.5513048-4.6613235,15.8794746-8.3127785,28.0664539-8.3127785c12.1864014,0,18.9507294,3.6514549,15.3994217,8.3127785
			c-1.1922951,1.5649719-3.388279,2.9948997-6.7130814,4.3707581l-24.9622326,8.6796608L10.9777107,51.3203468z"/>
		
			<linearGradient id="SVGID_2_" gradientUnits="userSpaceOnUse" x1="5.7339597" y1="85.5998688" x2="5.7339597" y2="99.6992722" gradientTransform="matrix(4 0 0 -4 0 400)">
			<stop  offset="0" style="stop-color:#006699"/>
			<stop  offset="1" style="stop-color:#007BB8"/>
		</linearGradient>
		<path fill="url(#SVGID_2_)" d="M4.5866413,34.686718C2.3100612,31.0539417,1.202901,27.2790241,1.202901,23.1481705
			c0-12.3056307,9.5462475-21.9452667,21.7332325-21.9452667c12.1863976,0,21.7326431,9.639637,21.7326431,21.9452667
			c0,4.131443-1.1065712,7.9063587-3.383152,11.5385475L22.9361343,57.6005287L4.5866413,34.686718z"/>
		<path fill="#FFFFFF" d="M22.9358578,2.4058051c11.5122089,0,20.5301151,9.1112213,20.5301151,20.7425861
			c0,3.8765488-1.0349464,7.4239712-3.1630898,10.8400307L22.9358578,55.6755371L5.5689535,33.9884758
			c-2.1281793-3.4162006-3.163157-6.9636707-3.163157-10.8400841C2.4057965,11.5170269,11.4236746,2.4058051,22.9358578,2.4058051
			 M22.9358578,0.0000076C10.1573973,0.0000076,0,10.25142,0,23.1483917c0,4.6296749,1.3107049,8.5979481,3.6042993,12.2355232
			l19.3315582,24.1404457l19.3316555-24.1404457c2.2936401-3.6375751,3.6042557-7.6058483,3.6042557-12.2355232
			C45.871769,10.25142,35.7144241,0.0000076,22.9358578,0.0000076L22.9358578,0.0000076z"/>
	</g>
</g>
<path opacity="0.6" enable-background="new    " d="M38.560833,15.780015v2.2825804h-7.5282612v19.8298569H29.166029h-0.4160366
	h-5.4002838h-5.4124584h-0.4248638h-1.8577175V18.0625954H8.1264095V15.780015h9.8108406v9.6178865
	c0.3685608-0.132391,0.643383-0.4501228,0.8768158-0.989727c0.0030422-0.0191727,0.0118713-0.0386505,0.0237408-0.053566
	c0.0298233-0.0474758,0.0712147-0.077301,0.1278229-0.077301c0.0535641,0,0.0979977,0.0298252,0.1278229,0.077301h0.0030441
	c0.0030422,0.003046,0.0030422,0.0073032,0.0060863,0.0149155c0.0060863,0.0073051,0.0118694,0.0191727,0.0179558,0.0313473
	c0.3119545,0.7416859,0.7042542,1.0728149,1.3108101,1.0728149h0.0060863c0.6062546,0,0.9985542-0.3314342,1.3135509-1.0655098
	c0.0030422-0.0191746,0.0149136-0.0386505,0.0267811-0.0535641c0.026783-0.0474777,0.0712166-0.0773048,0.1278248-0.0773048
	c0.0535641,0,0.0949554,0.0298252,0.1278248,0.0773048c0.0030403,0.0030422,0.0060863,0.0073032,0.0088272,0.0149136
	c0.0060844,0.0073032,0.0088253,0.0191727,0.0118675,0.0313473c0.3092117,0.7295113,0.7015133,1.0582066,1.2898121,1.0700741
	c0.5886002-0.0118713,0.9748135-0.3402596,1.2840252-1.0624676c0.0088253-0.0191727,0.0149136-0.0386524,0.0267849-0.0535622
	c0.0298252-0.0474796,0.0742588-0.0773048,0.1278229-0.0773048s0.0949554,0.0298252,0.1278248,0.0773048h0.0030422
	c0,0.0030422,0.0030422,0.0073032,0.0088253,0.0149097c0.0030422,0.0073071,0.0060883,0.0191746,0.0118713,0.0313492
	c0.3119526,0.7416878,0.7103386,1.0728149,1.3165913,1.0728149h0.0030422c0.6032104,0,1.0015965-0.3314342,1.3135529-1.0655098
	c0.0030422-0.0191746,0.0118694-0.0386505,0.023737-0.0535641c0.0298271-0.0474777,0.0773048-0.0773048,0.1278267-0.0773048
	c0.0535641,0,0.0979958,0.0298252,0.1278229,0.0773048h0.003046c0.0030422,0.0030422,0.0030422,0.0073051,0.0060844,0.0149136
	c0.0060863,0.0073032,0.0088272,0.0191727,0.0118694,0.0313473c0.2346497,0.5469074,0.5112991,0.8664665,0.8825989,1.0000725
	V15.780015H38.560833z"/>
<polygon points="22.6007156,21.7421188 24.5533886,21.7421188 24.5533886,14.6624632 26.7973194,14.6624632 23.5755329,11.4406748 
	20.3595257,14.6624632 22.6007156,14.6624632 "/>
<path fill="#FFFFFF" d="M37.9545059,15.173687v2.2825813h-7.5282593v19.8298531h-1.8665428h-0.4160385h-5.4002819h-5.4124603
	h-0.4248638h-1.8577185V17.4562683H7.520082V15.173687h9.8108387v9.6178875
	c0.3685608-0.1323891,0.643383-0.4501247,0.8768177-0.989727c0.0030422-0.0191765,0.0118694-0.0386524,0.023737-0.053566
	c0.0298252-0.0474739,0.0712166-0.077301,0.1278248-0.077301c0.0535641,0,0.0979977,0.0298233,0.1278248,0.077301h0.0030403
	c0.0030441,0.0030422,0.0030441,0.0073051,0.0060883,0.0149136c0.0060863,0.0073032,0.0118694,0.0191746,0.0179539,0.0313492
	c0.3119545,0.7416859,0.7042542,1.072813,1.310812,1.072813h0.0060863c0.6062527,0,0.9985523-0.3314304,1.313549-1.0655098
	c0.0030422-0.0191727,0.0149117-0.0386524,0.026783-0.0535641c0.0267811-0.0474758,0.0712166-0.077301,0.1278229-0.077301
	c0.0535641,0,0.0949554,0.0298252,0.1278229,0.077301c0.0030441,0.0030422,0.0060883,0.0073032,0.0088272,0.0149117
	c0.0060883,0.0073051,0.0088253,0.0191746,0.0118675,0.0313492c0.3092175,0.7295132,0.701519,1.0582047,1.289814,1.0700741
	c0.5886002-0.0118694,0.9748135-0.3402576,1.2840252-1.0624657c0.0088272-0.0191727,0.0149136-0.0386524,0.026783-0.053566
	c0.0298271-0.0474739,0.0742607-0.0773029,0.1278267-0.0773029c0.0535641,0,0.0949554,0.0298252,0.1278229,0.0773029h0.0030422
	c0,0.0030422,0.0030441,0.0073051,0.0088253,0.0149136c0.0030441,0.0073032,0.0060863,0.0191746,0.0118694,0.0313492
	c0.3119545,0.741684,0.7103386,1.0728111,1.3165951,1.0728111h0.0030441c0.6032085,0,1.0015965-0.3314285,1.3135471-1.0655079
	c0.0030441-0.0191708,0.0118713-0.0386524,0.0237408-0.0535641c0.0298271-0.0474758,0.0773029-0.077301,0.1278248-0.077301
	c0.0535641,0,0.0979996,0.0298252,0.1278248,0.077301h0.0030422c0.0030441,0.0030422,0.0030441,0.0073032,0.0060844,0.0149117
	c0.0060883,0.0073051,0.0088272,0.0191746,0.0118732,0.0313492c0.2346478,0.5469074,0.5112972,0.8664684,0.882597,1.0000744
	V15.173687H37.9545059z"/>
<polygon fill="#FFFFFF" points="21.9943886,21.1357918 23.9470615,21.1357918 23.9470615,14.0561352 26.1909924,14.0561352 
	22.9692039,10.8343477 19.7531967,14.0561352 21.9943886,14.0561352 "/>
</svg>
