<?xml version="1.0" encoding="utf-8"?>
<!-- Generator: Adobe Illustrator 17.1.0, SVG Export Plug-In . SVG Version: 6.00 Build 0)  -->
<!DOCTYPE svg PUBLIC "-//W3C//DTD SVG 1.1//EN" "http://www.w3.org/Graphics/SVG/1.1/DTD/svg11.dtd">
<svg version="1.1" id="Layer_1" xmlns="http://www.w3.org/2000/svg" xmlns:xlink="http://www.w3.org/1999/xlink" x="0px" y="0px"
	 viewBox="0 0 50 50" enable-background="new 0 0 50 50" xml:space="preserve">
<g id="base">
	<g>
		
			<linearGradient id="SVGID_1_" gradientUnits="userSpaceOnUse" x1="-22.7365322" y1="93.9630432" x2="-22.7365322" y2="96.2020645" gradientTransform="matrix(8 0 6.0949283 -8 -371.7608643 800)">
			<stop  offset="0" style="stop-color:#000000;stop-opacity:0.4"/>
			<stop  offset="1" style="stop-color:#000000;stop-opacity:0"/>
		</linearGradient>
		<path fill="url(#SVGID_1_)" d="M9.2043543,41.0181236c-1.0297861-1.1537895-1.0446672-2.3527184-0.0451164-3.6646996
			c2.977622-3.908329,13.3142786-6.9699211,23.5325584-6.9699211c10.2177887,0,15.8893967,3.0615921,12.9117737,6.9699211
			c-0.9996948,1.3121681-2.8409348,2.5111008-5.628643,3.6646996l-20.9297943,7.2775383L9.2043543,41.0181236z"/>
		
			<linearGradient id="SVGID_2_" gradientUnits="userSpaceOnUse" x1="2.4038434" y1="93.9630432" x2="2.4038434" y2="99.8739243" gradientTransform="matrix(8 0 0 -8 0 800)">
			<stop  offset="0" style="stop-color:#007BB8"/>
			<stop  offset="1" style="stop-color:#0094DE"/>
		</linearGradient>
		<path fill="url(#SVGID_2_)" d="M3.8457081,29.0833797c-1.9088178-3.0459328-2.8371258-6.2110424-2.8371258-9.674593
			c0-10.3177586,8.0041313-18.4001923,18.2224121-18.4001923c10.2177868,0,18.2219162,8.0824347,18.2219162,18.4001923
			c0,3.4640427-0.9278107,6.6291523-2.8366318,9.674593L19.2309952,48.2956619L3.8457081,29.0833797z"/>
		<path fill="#FFFFFF" d="M19.2307625,2.0171764c9.6525097,0,17.2136497,7.6393814,17.2136497,17.3917961
			c0,3.2503262-0.8677597,6.2246914-2.6521225,9.0889149L19.2307625,46.681633L4.6693358,28.4979324
			c-1.7843897-2.8643417-2.6521757-5.8387489-2.6521757-9.0889606C2.0171602,9.656558,9.5782766,2.0171764,19.2307625,2.0171764
			 M19.2307625,0.0000152C8.5165548,0.0000152,0,8.5953979,0,19.4089718c0,3.8817921,1.0989716,7.2090206,3.0220551,10.2589798
			l16.2087078,20.2407589l16.2087898-20.2407589c1.9231224-3.0499592,3.0220184-6.3771877,3.0220184-10.2589798
			C38.4615707,8.5953979,29.9450588,0.0000152,19.2307625,0.0000152L19.2307625,0.0000152z"/>
	</g>
</g>
<path opacity="0.6" enable-background="new    " d="M32.0753479,13.125989v1.8986778h-6.2620945V31.519371h-1.5526123h-0.3460636
	h-4.4920197H14.920413h-0.3534069h-1.5452709V15.0246668H6.7596416V13.125989h8.1607714v8.0002699
	c0.3065729-0.1101246,0.5351734-0.3744183,0.7293453-0.823267c0.0025311-0.0159473,0.0098743-0.0321503,0.0197468-0.0445557
	c0.0248079-0.0394917,0.0592384-0.0643005,0.1063251-0.0643005c0.0445547,0,0.0815163,0.0248089,0.1063251,0.0643005h0.002532
	c0.0025311,0.002533,0.0025311,0.0060749,0.0050621,0.0124054c0.0050631,0.0060768,0.0098734,0.0159492,0.0149355,0.0260754
	c0.2594881,0.6169434,0.5858068,0.8923798,1.0903482,0.8923798h0.0050621c0.5042896,0,0.8306084-0.2756901,1.0926266-0.8863029
	c0.0025311-0.0159492,0.0124054-0.0321503,0.0222778-0.0445557c0.0222778-0.0394917,0.0592384-0.0643024,0.1063251-0.0643024
	c0.0445557,0,0.0789852,0.0248089,0.1063271,0.0643024c0.0025291,0.0025311,0.0050621,0.0060749,0.0073414,0.0124054
	c0.0050621,0.0060749,0.0073414,0.0159492,0.0098724,0.0260754c0.257206,0.6068153,0.5835266,0.880228,1.0728798,0.8901005
	c0.4896049-0.0098743,0.8108616-0.2830315,1.0680676-0.8837738c0.0073414-0.0159473,0.0124054-0.0321503,0.0222797-0.0445538
	c0.0248089-0.0394936,0.0617695-0.0643024,0.1063251-0.0643024s0.0789852,0.0248089,0.1063251,0.0643024h0.0025311
	c0,0.0025311,0.0025311,0.0060749,0.0073414,0.0124035c0.0025311,0.0060768,0.005064,0.0159492,0.0098743,0.0260754
	c0.2594852,0.6169453,0.590868,0.8923798,1.0951557,0.8923798h0.0025311c0.5017567,0,0.8331394-0.2756901,1.0926285-0.8863029
	c0.0025311-0.0159492,0.0098724-0.0321503,0.0197449-0.0445557c0.0248108-0.0394917,0.0643024-0.0643024,0.1063271-0.0643024
	c0.0445557,0,0.0815144,0.0248089,0.1063251,0.0643024h0.002533c0.0025311,0.0025311,0.0025311,0.0060768,0.0050621,0.0124054
	c0.0050621,0.0060749,0.0073414,0.0159492,0.0098724,0.0260754c0.1951847,0.4549236,0.4253044,0.7207375,0.7341557,0.8318729
	V13.125989H32.0753479z"/>
<polygon points="18.7995377,18.0853367 20.4237938,18.0853367 20.4237938,12.1963968 22.2903214,12.1963968 19.6104012,9.5164757 
	16.9352894,12.1963968 18.7995377,12.1963968 "/>
<path fill="#FFFFFF" d="M31.5709972,12.6216383v1.8986778h-6.2620926v16.4947014h-1.5526123h-0.3460655h-4.4920177h-4.5021467
	h-0.3534069h-1.5452709V14.5203161H6.2552915v-1.8986778h8.1607704v8.0002699
	c0.3065729-0.1101227,0.5351734-0.3744183,0.7293463-0.8232651c0.0025311-0.0159512,0.0098734-0.0321522,0.0197458-0.0445576
	c0.0248079-0.0394897,0.0592384-0.0643005,0.1063251-0.0643005c0.0445557,0,0.0815163,0.0248089,0.1063261,0.0643005h0.0025301
	c0.0025311,0.0025311,0.0025311,0.0060768,0.0050631,0.0124054c0.0050631,0.0060749,0.0098734,0.0159492,0.0149355,0.0260773
	c0.2594872,0.6169415,0.5858059,0.8923779,1.0903482,0.8923779h0.005064c0.5042877,0,0.8306065-0.2756882,1.0926247-0.8863029
	c0.0025311-0.0159492,0.0124035-0.0321522,0.0222778-0.0445557c0.0222778-0.0394917,0.0592384-0.0643005,0.1063251-0.0643005
	c0.0445557,0,0.0789852,0.0248089,0.1063251,0.0643005c0.0025311,0.0025311,0.005064,0.0060749,0.0073414,0.0124035
	c0.005064,0.0060768,0.0073414,0.0159492,0.0098724,0.0260773c0.2572098,0.6068172,0.5835304,0.8802261,1.0728817,0.8900986
	c0.4896049-0.0098724,0.8108616-0.2830296,1.0680676-0.88377c0.0073414-0.0159492,0.0124054-0.0321522,0.0222778-0.0445576
	c0.0248108-0.0394897,0.0617714-0.0643005,0.1063271-0.0643005s0.0789852,0.0248089,0.1063251,0.0643005h0.0025311
	c0,0.0025311,0.0025311,0.0060768,0.0073414,0.0124054c0.0025311,0.0060749,0.0050621,0.0159492,0.0098724,0.0260773
	c0.2594872,0.6169415,0.590868,0.8923759,1.0951595,0.8923759h0.0025311c0.5017567,0,0.8331394-0.2756863,1.0926247-0.886301
	c0.0025311-0.0159473,0.0098743-0.0321522,0.0197468-0.0445557c0.0248108-0.0394917,0.0643024-0.0643005,0.1063271-0.0643005
	c0.0445557,0,0.0815163,0.0248089,0.1063251,0.0643005h0.0025311c0.002533,0.0025311,0.002533,0.0060749,0.0050621,0.0124035
	c0.005064,0.0060768,0.0073414,0.0159492,0.0098763,0.0260773c0.1951828,0.4549236,0.4253025,0.7207375,0.7341537,0.8318729
	v-8.0030565H31.5709972z"/>
<polygon fill="#FFFFFF" points="18.295187,17.580986 19.9194431,17.580986 19.9194431,11.6920462 21.7859707,11.6920462 
	19.1060505,9.012126 16.4309387,11.6920462 18.295187,11.6920462 "/>
</svg>
