<?xml version="1.0" encoding="utf-8"?>
<!-- Generator: Adobe Illustrator 17.1.0, SVG Export Plug-In . SVG Version: 6.00 Build 0)  -->
<!DOCTYPE svg PUBLIC "-//W3C//DTD SVG 1.1//EN" "http://www.w3.org/Graphics/SVG/1.1/DTD/svg11.dtd">
<svg version="1.1" id="Layer_1" xmlns="http://www.w3.org/2000/svg" xmlns:xlink="http://www.w3.org/1999/xlink" x="0px" y="0px"
	 viewBox="0 0 60 60" enable-background="new 0 0 60 60" xml:space="preserve">
<g id="base">
	<g>
		
			<linearGradient id="SVGID_1_" gradientUnits="userSpaceOnUse" x1="-12.6099625" y1="85" x2="-12.6099625" y2="90.3407974" gradientTransform="matrix(4 0 3.0474641 -4 -185.8804321 400)">
			<stop  offset="0" style="stop-color:#000000;stop-opacity:0.4"/>
			<stop  offset="1" style="stop-color:#000000;stop-opacity:0"/>
		</linearGradient>
		<path fill="url(#SVGID_1_)" d="M10.9777098,51.3203392c-1.2281895-1.3760796-1.2459402-2.8060036-0.0538082-4.3707542
			c3.5513048-4.6613235,15.8794718-8.3127823,28.066452-8.3127823c12.1863976,0,18.9507256,3.6514587,15.3994217,8.3127823
			c-1.1922989,1.5649719-3.3882828,2.9948959-6.7130814,4.3707542L22.7144604,60L10.9777098,51.3203392z"/>
		
			<linearGradient id="SVGID_2_" gradientUnits="userSpaceOnUse" x1="5.7339587" y1="85.5998688" x2="5.7339587" y2="99.6992722" gradientTransform="matrix(4 0 0 -4 0 400)">
			<stop  offset="0" style="stop-color:#006699"/>
			<stop  offset="1" style="stop-color:#007BB8"/>
		</linearGradient>
		<path fill="url(#SVGID_2_)" d="M4.5866404,34.6867142c-2.2765794-3.6327763-3.3837395-7.4076939-3.3837395-11.5385456
			c0-12.3056297,9.5462456-21.9452648,21.7332306-21.9452648c12.1863956,0,21.7326374,9.6396351,21.7326374,21.9452648
			c0,4.1314411-1.1065712,7.9063568-3.3831482,11.5385456L22.9361324,57.6005249L4.5866404,34.6867142z"/>
		<path fill="#FFFFFF" d="M22.935854,2.4058049c11.5122089,0,20.5301113,9.1112213,20.5301113,20.7425823
			c0,3.8765488-1.0349426,7.4239712-3.1630859,10.8400307L22.935854,55.6755295L5.5689526,33.988472
			c-2.1281786-3.4162006-3.1631563-6.9636707-3.1631563-10.8400841C2.4057963,11.5170259,11.4236736,2.4058049,22.935854,2.4058049
			 M22.935854,0.0000076C10.1573963,0.0000076,0,10.2514191,0,23.1483879c0,4.6296768,1.3107048,8.5979462,3.6042988,12.2355232
			L22.935854,59.524353l19.3316517-24.1404419c2.2936401-3.6375771,3.6042595-7.6058464,3.6042595-12.2355232
			C45.8717651,10.2514191,35.7144165,0.0000076,22.935854,0.0000076L22.935854,0.0000076z"/>
	</g>
</g>
<g opacity="0.6">
	<g>
		<path d="M14.6903315,24.2829132c-1.3477297,0-2.442317,1.0988083-2.442317,2.4483109
			c0,1.3495426,1.0948839,2.4480534,2.442317,2.4480534c1.3477297,0,2.4429102-1.0985107,2.4429102-2.4477196
			C17.1338329,25.3817215,16.0380611,24.2829132,14.6903315,24.2829132z M14.6894073,20.3784313
			c-3.496171,0-6.3405085,2.8494453-6.3405085,6.3534222c0,3.5036449,2.8446341,6.3542709,6.3405085,6.3542709
			c3.4970951,0,6.3429489-2.8509216,6.3429489-6.3542709C21.0323563,23.2278767,18.1865025,20.3784313,14.6894073,20.3784313z
			 M14.6903315,30.3097897c-1.9687414,0-3.5707951-1.6047535-3.5707951-3.5782318
			c0-1.9735146,1.601758-3.5785656,3.5707951-3.5785656c1.9690008,0,3.5707598,1.6053467,3.5707598,3.5785656
			C18.2610912,28.7047386,16.6593323,30.3097897,14.6903315,30.3097897z M33.6430016,24.0342884
			c-2.4905605,0-4.515316,2.0298252-4.515316,4.5248623c0,2.4956703,2.0244598,4.5263824,4.515316,4.5263824
			c2.4899368,0,4.5170593-2.0307121,4.5170593-4.5263824C38.1603584,26.0641136,36.1329384,24.0342884,33.6430016,24.0342884z
			 M33.6430016,30.6890564c-1.1739845,0-2.1250935-0.9532185-2.1250935-2.1295719
			c0-1.1760941,0.9508152-2.1287193,2.1250935-2.1287193c1.1739502,0,2.125988,0.9523296,2.125988,2.1287193
			C35.7689896,29.7355423,34.8169518,30.6890564,33.6430016,30.6890564z M29.9829311,24.465353
			c-0.9441891-0.7405186-2.4641819-1.6547775-4.5251598-2.1044159v-0.5739498
			c2.3138218,0.4753876,3.9829521,1.4977932,4.9834938,2.3063126c0.9026051-0.6536465,2.0061836-1.0433826,3.2017365-1.0433826
			c0.648838,0,1.2683334,0.1192436,1.8446884,0.3277283c-0.0605278-1.4187279-0.2354546-2.9126377-0.7069588-3.0917816
			c-2.3212967-0.8660145-5.3457031-1.3839493-7.7844315-1.6026459v-4.5042181c0-0.6323709,0.3145561-0.7791433,0.3585854-0.7968283
			c0.3004608-0.0844669,0.47509-0.3978033,0.3897362-0.6979685c-0.0847626-0.2995729-0.3930283-0.4724283-0.6961918-0.3891459
			c-0.4385376,0.1246462-1.180275,0.6602306-1.180275,1.8839426v4.4206419
			c-0.1725235-0.0098801-0.3352032-0.015873-0.4972553-0.022459l-1.3192768-5.6883802
			c-0.0518341-0.220767-0.2288723-0.3894415-0.4511547-0.4283638c-0.2719746-0.0479498-6.7137451-1.1701012-11.5591612-0.1929445
			c-0.3049755,0.0617123-0.5032854,0.3594723-0.4424601,0.6656313c0.0614166,0.3058634,0.3576603,0.5056534,0.6647444,0.442461
			c0.0673733-0.0134678,0.1371889-0.0227547,0.204896-0.0353336l-0.8893976,5.1850958
			c-0.0015163,0.0108032,0.002368,0.0215702,0.0008888,0.0329647h-0.2001228c-1.0661364,0-1.2782106,0.6889782-1.2782106,0.6889782
			l-0.653348,1.6404209l0.542798,0.2704906c1.2698479-1.076643,2.9093437-1.7293625,4.6980162-1.7293625
			c4.0204325,0,7.2898417,3.2768822,7.2898417,7.3033104c0,0.7063656-0.105444,1.3872414-0.2932835,2.0337105h6.4876137
			c-0.0027027-0.0748863-0.0110645-0.1482906-0.0110645-0.224062C28.1622181,26.9235783,28.8679581,25.4718838,29.9829311,24.465353
			z M32.1364784,20.5033379c0.1441078-0.0566082,0.3073807,0.0146904,0.366394,0.1596851l0.4571114,1.1685848
			c0.0569,0.1446991-0.0152817,0.3082657-0.1593513,0.3660583c-0.0341492,0.012579-0.0682983,0.0191631-0.103672,0.0191631
			c-0.1120262,0-0.2177658-0.0682983-0.2620926-0.1791077L31.9768314,20.86973
			C31.9202271,20.7244377,31.9915199,20.5602798,32.1364784,20.5033379z M30.8073235,20.5033379
			c0.1428852-0.0566082,0.30797,0.0146904,0.3654671,0.1596851l0.4580364,1.1685848
			c0.0566063,0.1446991-0.0152817,0.3082657-0.1599426,0.3660583c-0.0338535,0.012579-0.0683365,0.0191631-0.1033745,0.0191631
			c-0.1129169,0-0.2183609-0.0682983-0.262722-0.1791077L30.6476765,20.86973
			C30.5907364,20.7244377,30.6620312,20.5602798,30.8073235,20.5033379z M17.5765896,18.8386841
			c-0.4433479-0.145586-0.8714161-0.2504387-1.2473545-0.2803707h-3.6112337l0.8333817-4.8558865h4.0252066V18.8386841z
			 M24.3284054,23.1901398l-2.0424061-0.0021095c-0.6782112-1.8246346-2.1316814-3.128336-3.5821533-3.8817272v-5.6035805h4.3780937
			l1.2464657,5.376524V23.1901398z"/>
	</g>
</g>
<g>
	<g>
		<path fill="#FFFFFF" d="M14.474596,23.6883202c-1.3477287,0-2.4423542,1.0988064-2.4423542,2.4483109
			c0,1.3495426,1.0949211,2.4480152,2.4423542,2.4480152c1.3477287,0,2.4429092-1.0984726,2.4429092-2.4477196
			C16.9180965,24.7871265,15.8223248,23.6883202,14.474596,23.6883202z M14.473671,19.7838402
			c-3.49617,0-6.3405075,2.8494415-6.3405075,6.3534203c0,3.503643,2.8446341,6.3542709,6.3405075,6.3542709
			c3.4970951,0,6.3429508-2.8509235,6.3429508-6.3542709C20.8166218,22.6332817,17.9707661,19.7838402,14.473671,19.7838402z
			 M14.474596,29.7151966c-1.9687414,0-3.570796-1.6047554-3.570796-3.57827c0-1.9734783,1.601759-3.5785275,3.570796-3.5785275
			c1.9689999,0,3.5707588,1.6053467,3.5707588,3.5785275C18.0453548,28.1101437,16.4435959,29.7151966,14.474596,29.7151966z
			 M33.4272308,23.4396935c-2.4905243,0-4.5152817,2.0298252-4.5152817,4.5248661
			c0,2.4956665,2.0244617,4.5263805,4.5152817,4.5263805c2.4899712,0,4.5170975-2.030714,4.5170975-4.5263805
			C37.944622,25.4695187,35.917202,23.4396935,33.4272308,23.4396935z M33.4272308,30.0944633
			c-1.1739464,0-2.1250572-0.9532204-2.1250572-2.1296101c0-1.1760578,0.9507751-2.1286831,2.1250572-2.1286831
			c1.1739845,0,2.1260185,0.9523296,2.1260185,2.1286831C35.5532494,29.1409492,34.6012154,30.0944633,33.4272308,30.0944633z
			 M29.7671967,23.8707581c-0.9442272-0.7405167-2.4641838-1.6547775-4.5251598-2.104414v-0.5739517
			c2.3138218,0.4753895,3.9829521,1.4977932,4.98349,2.3063126c0.9025707-0.6536446,2.0061855-1.0433826,3.201704-1.0433826
			c0.6488724,0,1.2683678,0.1192455,1.8447227,0.3277283c-0.0605278-1.4187279-0.2354546-2.9126339-0.7069588-3.0917797
			c-2.321331-0.8660164-5.3457012-1.3839531-7.7844315-1.6026478V13.584404c0-0.6323719,0.314558-0.7791433,0.3585873-0.7968283
			c0.3004589-0.0844669,0.47509-0.3978033,0.3897362-0.6979685c-0.0848007-0.2995729-0.3930321-0.4724283-0.6961937-0.3891459
			c-0.4385376,0.124609-1.1802769,0.6602306-1.1802769,1.8839426v4.4206409
			c-0.1725197-0.0098782-0.3352013-0.015873-0.4972515-0.0224571l-1.3192768-5.6883812
			c-0.051836-0.2207689-0.2288723-0.3894415-0.4511566-0.4283638c-0.2719727-0.0479488-6.7137451-1.1701012-11.5591602-0.1929445
			c-0.3049755,0.0617123-0.5032854,0.3594723-0.442461,0.6656313c0.0614166,0.3058643,0.3576612,0.5056534,0.6647081,0.442461
			c0.0674105-0.0134678,0.1372261-0.0227547,0.2049322-0.0353336l-0.8893976,5.1850948
			c-0.0015163,0.010767,0.0023689,0.0215702,0.0008888,0.0329666h-0.2001228c-1.0661364,0-1.2782087,0.6889763-1.2782087,0.6889763
			l-0.6533489,1.6403847l0.542798,0.2705326c1.2698479-1.0766449,2.9093447-1.7293663,4.6980152-1.7293663
			c4.0204344,0,7.2898436,3.2768841,7.2898436,7.3033104c0,0.7063656-0.105444,1.3872433-0.2932835,2.0337105h6.4876137
			c-0.0027027-0.0748825-0.0110645-0.1482887-0.0110645-0.2240601
			C27.9464836,26.3289471,28.6522236,24.8772907,29.7671967,23.8707581z M31.9207439,19.9087448
			c0.1441059-0.0566063,0.3073444,0.0146885,0.366354,0.1596832l0.4571495,1.1685848
			c0.0569,0.1446991-0.0152817,0.3082695-0.1593513,0.3660583c-0.0341492,0.012579-0.0682983,0.0191669-0.1036682,0.0191669
			c-0.11203,0-0.2177734-0.0682983-0.2620926-0.1791096l-0.4580383-1.1679916
			C31.7044544,20.1298466,31.7757492,19.9656849,31.9207439,19.9087448z M30.591589,19.9087448
			c0.1428852-0.0566063,0.30797,0.0146885,0.3654652,0.1596832l0.4580364,1.1685848
			c0.0566063,0.1446991-0.0152798,0.3082695-0.1599789,0.3660583c-0.0338173,0.012579-0.0682983,0.0191669-0.1033363,0.0191669
			c-0.1129169,0-0.2183628-0.0682983-0.2627239-0.1791096l-0.4571114-1.1679916
			C30.375,20.1298466,30.4462967,19.9656849,30.591589,19.9087448z M17.3608532,18.2440891
			c-0.4433479-0.1455879-0.8714161-0.2504406-1.2473526-0.2803707H12.502265l0.8333817-4.8559246h4.0252066V18.2440891z
			 M24.112669,22.5955448l-2.0424042-0.0021076c-0.6782131-1.8246346-2.1316814-3.128336-3.5821552-3.8817291v-5.6035814h4.3780937
			l1.2464657,5.376523V22.5955448z"/>
	</g>
</g>
</svg>
