<?xml version="1.0" encoding="utf-8"?>
<!-- Generator: Adobe Illustrator 17.1.0, SVG Export Plug-In . SVG Version: 6.00 Build 0)  -->
<!DOCTYPE svg PUBLIC "-//W3C//DTD SVG 1.1//EN" "http://www.w3.org/Graphics/SVG/1.1/DTD/svg11.dtd">
<svg version="1.1" id="Layer_1" xmlns="http://www.w3.org/2000/svg" xmlns:xlink="http://www.w3.org/1999/xlink" x="0px" y="0px"
	 viewBox="0 0 50 50" enable-background="new 0 0 50 50" xml:space="preserve">
<g id="base">
	<g>
		
			<linearGradient id="SVGID_1_" gradientUnits="userSpaceOnUse" x1="-2.2628791" y1="23.7445774" x2="-2.2628791" y2="14.9380589" gradientTransform="matrix(2 0 -1.5237321 2 59.432991 0)">
			<stop  offset="0" style="stop-color:#000000;stop-opacity:0.4"/>
			<stop  offset="1" style="stop-color:#000000;stop-opacity:0"/>
		</linearGradient>
		<path fill="url(#SVGID_1_)" d="M9.0506506,40.333149c-1.0125895-1.1345215-1.0272236-2.3134308-0.044363-3.6035004
			c2.9278975-3.8430595,13.0919428-6.8535309,23.1395874-6.8535309c10.0471611,0,15.6240578,3.0104713,12.6961594,6.8535309
			c-0.9830017,1.2902489-2.7934952,2.469162-5.5346489,3.6035004l-20.5802879,7.1560059L9.0506506,40.333149z"/>
		
			<linearGradient id="SVGID_2_" gradientUnits="userSpaceOnUse" x1="9.4548063" y1="23.7445774" x2="9.4548063" y2="0.4958701" gradientTransform="matrix(2 0 0 2 0 0)">
			<stop  offset="0" style="stop-color:#007BB8"/>
			<stop  offset="1" style="stop-color:#0094DE"/>
		</linearGradient>
		<path fill="url(#SVGID_2_)" d="M3.7814882,28.5977039c-1.876942-2.9950676-2.789748-6.1073246-2.789748-9.5130348
			c0-10.1454639,7.87047-18.0929298,17.9181156-18.0929298c10.0471611,0,17.9176292,7.9474649,17.9176292,18.0929298
			c0,3.4061947-0.912323,6.5184517-2.7892647,9.5130348L18.9098549,47.4891548L3.7814882,28.5977039z"/>
		<path fill="#FFFFFF" d="M18.909626,1.9834803c9.4913235,0,16.9261971,7.5118113,16.9261971,17.1013699
			c0,3.1960468-0.8532677,6.1207447-2.60783,8.9371376L18.909626,45.9020805L4.5913625,28.0220337
			c-1.7545922-2.8165112-2.6078868-5.7412472-2.6078868-8.9371834C1.9834756,9.4952917,9.4183283,1.9834803,18.909626,1.9834803
			 M18.909626,0.0000038C8.3743362,0.0000038,0,8.4518518,0,19.0848503c0,3.8169689,1.0806198,7.0886364,2.9715896,10.0876637
			l15.938036,19.9027576L34.847744,29.172514c1.8910103-2.9990273,2.9715538-6.2706947,2.9715538-10.0876637
			C37.8192978,8.4518518,29.4450054,0.0000038,18.909626,0.0000038L18.909626,0.0000038z"/>
	</g>
</g>
<g opacity="0.6">
	<g>
		<path d="M12.0170975,19.8640919c-1.1024799,0-1.9978828,0.8988552-1.9978828,2.0027866
			c0,1.1039619,0.8956451,2.0025749,1.9978828,2.0025749c1.1024799,0,1.9983673-0.898613,1.9983673-2.0023022
			C14.0159492,20.7629471,13.1195774,19.8640919,12.0170975,19.8640919z M12.0163412,16.6701183
			c-2.8599644,0-5.1867113,2.330925-5.1867113,5.1972752c0,2.8660774,2.3269892,5.1979694,5.1867113,5.1979694
			c2.8607206,0,5.1887083-2.3321342,5.1887083-5.1979694C17.2050495,19.0010433,14.8770618,16.6701183,12.0163412,16.6701183z
			 M12.0170975,24.7942429c-1.6104851,0-2.9210091-1.3127327-2.9210091-2.9270916
			c0-1.6143894,1.3102818-2.9273663,2.9210091-2.9273663c1.6106968,0,2.9209795,1.3132191,2.9209795,2.9273663
			C14.938077,23.4812679,13.6277943,24.7942429,12.0170975,24.7942429z M27.5209064,19.6607094
			c-2.0373478,0-3.693655,1.6604538-3.693655,3.7014637c0,2.0415268,1.656065,3.7027054,3.693655,3.7027054
			c2.0368347,0,3.6950798-1.6611786,3.6950798-3.7027054C31.2162285,21.3211632,29.5577412,19.6607094,27.5209064,19.6607094z
			 M27.5209064,25.1044941c-0.9603519,0-1.7383862-0.7797585-1.7383862-1.7420483
			c0-0.9620781,0.777792-1.7413521,1.7383862-1.7413521c0.9603233,0,1.7391148,0.7790318,1.7391148,1.7413521
			C29.2600212,24.3244934,28.4812298,25.1044941,27.5209064,25.1044941z M24.5268669,20.0133324
			c-0.7723732-0.6057644-2.01577-1.353653-3.7017059-1.7214699v-0.4695072
			c1.8927708,0.3888798,3.2581654,1.2252369,4.0766354,1.8866272c0.7383556-0.5347004,1.6411133-0.8535156,2.6191101-0.8535156
			c0.5307655,0,1.0375309,0.0975456,1.5090065,0.2680912c-0.0495148-1.1605587-0.1926098-2.382618-0.5783119-2.5291634
			c-1.8988857-0.7084227-4.3729343-1.1321077-6.3678818-1.3110075v-3.684576c0-0.5172968,0.2573166-0.6373606,0.2933331-0.6518269
			c0.2457848-0.0690966,0.3886375-0.3254147,0.3188152-0.5709581c-0.0693378-0.245059-0.3215084-0.3864594-0.5695038-0.3183317
			c-0.358736,0.101964-0.965498,0.5400867-0.965498,1.5411167v3.6162071
			c-0.1411285-0.0080814-0.2742062-0.0129843-0.4067688-0.0183716l-1.0792046-4.6532526
			c-0.0424023-0.1805935-0.1872234-0.318574-0.3690567-0.3504133c-0.2224827-0.0392237-5.4920301-0.9571753-9.4557142-0.1578341
			c-0.2494783,0.0504827-0.4117012,0.2940588-0.3619442,0.5445051c0.0502405,0.250205,0.2925758,0.4136381,0.5437794,0.3619452
			c0.0551128-0.0110168,0.1122236-0.0186138,0.1676102-0.028904l-0.7275515,4.2415514
			c-0.0012407,0.0088377,0.0019369,0.0176449,0.0007267,0.026967H9.3090363c-0.8721294,0-1.0456114,0.5636034-1.0456114,0.5636034
			l-0.5344567,1.3419085l0.4440236,0.2212696c1.0387707-0.880724,2.3799238-1.4146671,3.8431072-1.4146671
			c3.288825,0,5.9632921,2.6805801,5.9632921,5.9743099c0,0.5778275-0.086256,1.1348019-0.2399139,1.6636314h5.3070469
			c-0.0022106-0.0612583-0.0090504-0.1213055-0.0090504-0.1832886
			C23.0374737,22.024229,23.6147881,20.8367023,24.5268669,20.0133324z M26.2885284,16.772295
			c0.1178837-0.0463066,0.2514458,0.0120163,0.2997189,0.1306267l0.37393,0.9559345
			c0.0465469,0.1183681-0.0125008,0.2521706-0.1303539,0.2994461c-0.027935,0.0102901-0.0558701,0.0156765-0.0848045,0.0156765
			c-0.0916424,0-0.1781406-0.0558701-0.2143993-0.1465149l-0.3746872-0.9554501
			C26.1116276,16.9531612,26.1699486,16.8188744,26.2885284,16.772295z M25.2012424,16.772295
			c0.1168842-0.0463066,0.2519283,0.0120163,0.2989616,0.1306267l0.3746872,0.9559345
			c0.0463047,0.1183681-0.0125008,0.2521706-0.1308384,0.2994461c-0.0276928,0.0102901-0.0559006,0.0156765-0.0845623,0.0156765
			c-0.0923691,0-0.1786251-0.0558701-0.2149143-0.1465149l-0.37393-0.9554501
			C25.0240688,16.9531612,25.0823898,16.8188744,25.2012424,16.772295z M14.3781357,15.4105625
			c-0.3626709-0.1190939-0.712842-0.2048664-1.0203695-0.229351H10.403677l0.6817293-3.97225h3.2927294V15.4105625z
			 M19.9013081,18.9701729l-1.6707439-0.0017262c-0.5547962-1.4926014-1.7437744-2.5590649-2.9303007-3.1753588v-4.5838842
			h3.5814009l1.0196438,4.3981447V18.9701729z"/>
	</g>
</g>
<g>
	<g>
		<path fill="#FFFFFF" d="M11.84062,19.3776989c-1.1024799,0-1.9979134,0.8988533-1.9979134,2.0027847
			c0,1.1039639,0.8956757,2.0025444,1.9979134,2.0025444c1.102479,0,1.9983664-0.8985806,1.9983664-2.0023022
			C13.8394709,20.2765522,12.943099,19.3776989,11.84062,19.3776989z M11.8398628,16.1837254
			c-2.8599634,0-5.1867104,2.3309231-5.1867104,5.1972733c0,2.8660774,2.3269892,5.1979694,5.1867104,5.1979694
			c2.8607206,0,5.1887093-2.3321342,5.1887093-5.1979694C17.0285721,18.5146484,14.7005835,16.1837254,11.8398628,16.1837254z
			 M11.84062,24.3078499c-1.6104851,0-2.92101-1.3127346-2.92101-2.927124c0-1.6143589,1.3102827-2.9273338,2.92101-2.9273338
			c1.6106968,0,2.9209785,1.3132172,2.9209785,2.9273338C14.7615986,22.994873,13.4513168,24.3078499,11.84062,24.3078499z
			 M27.3443985,19.1743145c-2.0373173,0-3.6936245,1.6604538-3.6936245,3.7014656
			c0,2.0415249,1.656065,3.7027054,3.6936245,3.7027054c2.0368652,0,3.6951103-1.6611805,3.6951103-3.7027054
			C31.0397511,20.8347683,29.3812637,19.1743145,27.3443985,19.1743145z M27.3443985,24.6181011
			c-0.9603214,0-1.7383556-0.7797604-1.7383556-1.7420807c0-0.9620476,0.7777615-1.7413216,1.7383556-1.7413216
			c0.9603539,0,1.7391434,0.7790318,1.7391434,1.7413216C29.0835419,23.8381004,28.3047523,24.6181011,27.3443985,24.6181011z
			 M24.3503895,19.5269375c-0.7724037-0.6057625-2.01577-1.353653-3.7017059-1.721468v-0.4695091
			c1.8927708,0.3888817,3.2581654,1.2252369,4.0766335,1.8866272c0.738327-0.5346985,1.6411152-0.8535156,2.6190815-0.8535156
			c0.5307961,0,1.0375614,0.0975456,1.5090351,0.2680912c-0.0495129-1.1605587-0.1926079-2.382616-0.5783119-2.5291615
			c-1.8989143-0.7084255-4.3729324-1.1321115-6.3678799-1.3110104v-3.684576c0-0.5172977,0.2573166-0.6373606,0.2933331-0.6518269
			c0.2457848-0.0690966,0.3886375-0.3254147,0.3188152-0.5709581c-0.0693684-0.245059-0.3215103-0.3864594-0.5695057-0.3183317
			c-0.358736,0.1019335-0.965498,0.5400867-0.965498,1.5411167v3.6162062
			c-0.1411266-0.0080805-0.2742043-0.0129833-0.4067669-0.0183706l-1.0792046-4.6532526
			c-0.0424023-0.1805944-0.1872234-0.318574-0.3690586-0.3504133c-0.2224808-0.0392237-5.4920282-0.9571753-9.4557123-0.1578341
			C9.4241657,9.5992336,9.2619429,9.8428097,9.3116989,10.093256c0.0502405,0.250205,0.2925768,0.4136381,0.5437498,0.3619452
			c0.0551434-0.0110168,0.1122541-0.0186138,0.1676397-0.028904L9.295537,14.6678486
			c-0.0012407,0.0088072,0.0019379,0.0176449,0.0007267,0.026967H9.1325579c-0.8721294,0-1.0456104,0.5636024-1.0456104,0.5636024
			l-0.5344572,1.3418798L7.9965138,16.8216c1.0387712-0.8807249,2.3799243-1.414669,3.8431067-1.414669
			c3.288826,0,5.9632931,2.680582,5.9632931,5.9743099c0,0.5778275-0.086256,1.1348038-0.2399139,1.6636314h5.3070469
			c-0.0022106-0.0612564-0.0090504-0.1213036-0.0090504-0.1832867
			C22.8609962,21.5378036,23.4383106,20.3503094,24.3503895,19.5269375z M26.112051,16.285902
			c0.1178837-0.0463066,0.2514153,0.0120144,0.2996883,0.1306248l0.3739605,0.9559345
			c0.0465469,0.1183681-0.0125008,0.2521725-0.1303539,0.2994461c-0.027935,0.0102901-0.0558701,0.0156784-0.0848045,0.0156784
			c-0.0916424,0-0.1781425-0.0558701-0.2143993-0.1465168l-0.3746872-0.9554482
			C25.9351196,16.4667683,25.9934406,16.3324795,26.112051,16.285902z M25.024765,16.285902
			c0.1168842-0.0463066,0.2519283,0.0120144,0.2989616,0.1306248l0.3746853,0.9559345
			c0.0463066,0.1183681-0.0124989,0.2521725-0.130867,0.2994461c-0.0276623,0.0102901-0.0558701,0.0156784-0.0845318,0.0156784
			c-0.0923691,0-0.178627-0.0558701-0.2149143-0.1465168l-0.37393-0.9554482
			C24.8475895,16.4667683,24.9059124,16.3324795,25.024765,16.285902z M14.2016573,14.9241667
			c-0.3626709-0.1190948-0.712842-0.2048664-1.0203686-0.229351h-2.9540901l0.6817293-3.9722805h3.2927294V14.9241667z
			 M19.7248306,18.483778l-1.6707439-0.0017242c-0.5547962-1.4926014-1.7437744-2.5590658-2.9303017-3.1753616v-4.5838842h3.5814018
			l1.0196438,4.3981447V18.483778z"/>
	</g>
</g>
</svg>
