<?xml version="1.0" encoding="utf-8"?>
<!-- Generator: Adobe Illustrator 17.1.0, SVG Export Plug-In . SVG Version: 6.00 Build 0)  -->
<!DOCTYPE svg PUBLIC "-//W3C//DTD SVG 1.1//EN" "http://www.w3.org/Graphics/SVG/1.1/DTD/svg11.dtd">
<svg version="1.1" id="Layer_1" xmlns="http://www.w3.org/2000/svg" xmlns:xlink="http://www.w3.org/1999/xlink" x="0px" y="0px"
	 viewBox="0 0 50 50" enable-background="new 0 0 50 50" xml:space="preserve">
<g id="base">
	<g>
		
			<linearGradient id="SVGID_1_" gradientUnits="userSpaceOnUse" x1="-22.579422" y1="6.2374568" x2="-22.579422" y2="3.9943411" gradientTransform="matrix(8 0 -6.0949283 8 237.7319641 0)">
			<stop  offset="0" style="stop-color:#000000;stop-opacity:0.4"/>
			<stop  offset="1" style="stop-color:#000000;stop-opacity:0"/>
		</linearGradient>
		<path fill="url(#SVGID_1_)" d="M9.2211933,42.6088028c-1.0316696-1.155899-1.0465803-2.3570213-0.0451984-3.671402
			c2.9830694-3.9154739,13.3386364-6.9826717,23.5756073-6.9826717c10.2364845,0,15.9184685,3.0671978,12.9353981,6.9826717
			c-1.0015221,1.3145676-2.8461304,2.5156937-5.6389351,3.671402L19.079977,49.8996544L9.2211933,42.6088028z"/>
		
			<linearGradient id="SVGID_2_" gradientUnits="userSpaceOnUse" x1="2.4082413" y1="6.0480018" x2="2.4082413" y2="0.1263049" gradientTransform="matrix(8 0 0 8 0 0)">
			<stop  offset="0" style="stop-color:#007BB8"/>
			<stop  offset="1" style="stop-color:#0094DE"/>
		</linearGradient>
		<path fill="url(#SVGID_2_)" d="M3.8527436,29.1365891c-1.9123098-3.051506-2.8423162-6.2224083-2.8423162-9.6922932
			c0-10.3366356,8.018775-18.433857,18.2557507-18.433857c10.2364826,0,18.2552528,8.0972223,18.2552528,18.433857
			c0,3.4703808-0.929512,6.6412811-2.8418198,9.6922932L19.2661781,48.3840141L3.8527436,29.1365891z"/>
		<path fill="#FFFFFF" d="M19.2659454,2.0208666c9.6701679,0,17.2451401,7.6533575,17.2451401,17.4236145
			c0,3.2562714-0.8693466,6.2360802-2.656971,9.1055431L19.2659454,46.7670326L4.6778784,28.5500717
			c-1.7876544-2.869585-2.6570275-5.849432-2.6570275-9.1055908C2.0208507,9.6742239,9.5957994,2.0208666,19.2659454,2.0208666
			 M19.2659454,0.0000152C8.532136,0.0000152,0,8.611124,0,19.4444809c0,3.8888931,1.1009821,7.2222099,3.0275838,10.2777481
			l16.2383614,20.2777863L35.5043907,29.722229c1.9266396-3.0555382,3.0275459-6.388855,3.0275459-10.2777481
			C38.5319366,8.611124,29.9998436,0.0000152,19.2659454,0.0000152L19.2659454,0.0000152z"/>
	</g>
</g>
<g opacity="0.6">
	<g>
		<path d="M12.2435369,20.2384052c-1.1232538,0-2.0355291,0.9157925-2.0355291,2.0405254
			c0,1.1247654,0.9125223,2.0403099,2.0355291,2.0403099c1.1232538,0,2.0360231-0.9155445,2.0360231-2.0400314
			C14.2800531,21.1541977,13.3667908,20.2384052,12.2435369,20.2384052z M12.2427664,16.9842453
			c-2.9138546,0-5.2844448,2.3748493-5.2844448,5.2952099c0,2.9200821,2.3708372,5.2959156,5.2844448,5.2959156
			c2.9146261,0,5.2864809-2.3760796,5.2864809-5.2959156C17.5292473,19.3590946,15.1573925,16.9842453,12.2427664,16.9842453z
			 M12.2435369,25.2614555c-1.640831,0-2.9760494-1.3374691-2.9760494-2.9822464
			c0-1.6448116,1.3349714-2.9825268,2.9760494-2.9825268c1.6410475,0,2.9760208,1.3379631,2.9760208,2.9825268
			C15.2195578,23.9237385,13.8845844,25.2614555,12.2435369,25.2614555z M28.0394878,20.031189
			c-2.0757389,0-3.763258,1.6917439-3.763258,3.7712116c0,2.0799961,1.687273,3.7724762,3.763258,3.7724762
			c2.0752144,0,3.7647057-1.6924801,3.7647057-3.7724762C31.8044395,21.7229328,30.1147022,20.031189,28.0394878,20.031189z
			 M28.0394878,25.5775528c-0.9784489,0-1.771143-0.7944508-1.771143-1.7748737c0-0.9802074,0.7924461-1.7741642,1.771143-1.7741642
			c0.9784184,0,1.7718849,0.7937107,1.7718849,1.7741642C29.8113728,24.7828541,29.0179062,25.5775528,28.0394878,25.5775528z
			 M24.9890289,20.3904591c-0.7869263-0.6171799-2.0537529-1.3791618-3.7714558-1.7539101v-0.4783535
			c1.9284363,0.3962078,3.3195591,1.2483253,4.1534519,1.9221764c0.7522678-0.544775,1.6720352-0.8695965,2.6684628-0.8695965
			c0.5407658,0,1.0570793,0.0993824,1.5374393,0.2731419c-0.0504475-1.1824284-0.1962376-2.4275131-0.5892086-2.5768204
			c-1.9346676-0.7217712-4.4553337-1.1534414-6.4878731-1.3357115V11.81738c0-0.5270433,0.2621651-0.6493702,0.2988605-0.6641092
			c0.2504158-0.0703983,0.3959618-0.3315458,0.3248215-0.5817165c-0.0706444-0.2496767-0.3275642-0.3937416-0.5802326-0.3243294
			c-0.3654957,0.1038847-0.9836922,0.5502634-0.9836922,1.5701551v3.6843481
			c-0.1437874-0.0082331-0.2793732-0.0132284-0.4144344-0.0187178l-1.0995388-4.7409344
			c-0.0432014-0.1839972-0.190752-0.3245773-0.3760109-0.3570166c-0.226675-0.0399618-5.5955172-0.9752111-9.6338902-0.1608076
			c-0.254179,0.0514345-0.4194593,0.2995996-0.3687639,0.5547647c0.0511866,0.25492,0.2980881,0.4214334,0.5540257,0.3687658
			c0.0561514-0.0112247,0.1143379-0.0189648,0.1707678-0.0294485l-0.7412596,4.321476
			c-0.0012646,0.0090036,0.0019722,0.0179768,0.0007401,0.0274744h-0.166791c-0.8885622,0-1.0653133,0.5742235-1.0653133,0.5742235
			l-0.544528,1.3671951L8.3269968,17.63414c1.0583439-0.8973179,2.4247694-1.4413223,3.9155235-1.4413223
			c3.3507967,0,6.0756598,2.7310905,6.0756598,6.0868835c0,0.5887146-0.087883,1.1561871-0.2444344,1.6949806h5.4070473
			c-0.0022526-0.0624142-0.009222-0.1235924-0.009222-0.1867428C23.471571,22.4392452,24.0597649,21.2293415,24.9890289,20.3904591z
			 M26.783886,17.0883484c0.1201057-0.0471802,0.2561836,0.0122433,0.3053665,0.1330891l0.3809776,0.9739475
			c0.0474224,0.1205978-0.0127373,0.2569218-0.1328106,0.305088c-0.0284615,0.0104847-0.0569229,0.0159721-0.0864029,0.0159721
			c-0.0933685,0-0.1814976-0.0569229-0.2184391-0.1492767l-0.3817482-0.9734535
			C26.603653,17.2726231,26.6630726,17.1358051,26.783886,17.0883484z M25.6761131,17.0883484
			c0.1190872-0.0471802,0.2566757,0.0122433,0.304594,0.1330891l0.3817482,0.9739475
			c0.0471783,0.1205978-0.0127354,0.2569218-0.1333027,0.305088c-0.0282154,0.0104847-0.0569553,0.0159721-0.0861568,0.0159721
			c-0.0941086,0-0.1819916-0.0569229-0.2189636-0.1492767l-0.3809757-0.9734535
			C25.4956017,17.2726231,25.5550194,17.1358051,25.6761131,17.0883484z M14.6490641,15.7009573
			c-0.369504-0.1213379-0.7262726-0.2087269-1.0395956-0.2336731h-3.0097532l0.6945744-4.0470991h3.3547745V15.7009573z
			 M20.27631,19.3276424l-1.7022266-0.0017586c-0.5652485-1.5207272-1.7766304-2.6072865-2.9855146-3.2351933v-4.6702585h3.6488867
			l1.0388546,4.481019V19.3276424z"/>
	</g>
</g>
<g>
	<g>
		<path fill="#FFFFFF" d="M12.0637341,19.7428474c-1.1232538,0-2.0355597,0.9157906-2.0355597,2.0405216
			c0,1.1247673,0.9125519,2.0402794,2.0355597,2.0402794c1.1232529,0,2.0360222-0.9155121,2.0360222-2.0400314
			C14.1002502,20.658638,13.1869869,19.7428474,12.0637341,19.7428474z M12.0629625,16.4886894
			c-2.9138536,0-5.2844439,2.3748455-5.2844439,5.2952061c0,2.920084,2.3708372,5.2959137,5.2844439,5.2959137
			c2.9146261,0,5.2864809-2.3760777,5.2864809-5.2959137C17.3494434,18.8635349,14.9775887,16.4886894,12.0629625,16.4886894z
			 M12.0637341,24.7658978c-1.640831,0-2.9760504-1.337471-2.9760504-2.9822807
			c0-1.6447792,1.3349724-2.9824944,2.9760504-2.9824944c1.6410475,0,2.9760199,1.3379631,2.9760199,2.9824944
			C15.0397539,23.4281807,13.7047815,24.7658978,12.0637341,24.7658978z M27.8596535,19.5356312
			c-2.0757084,0-3.7632256,1.69174-3.7632256,3.7712116c0,2.0799942,1.6872711,3.7724762,3.7632256,3.7724762
			c2.0752449,0,3.7647362-1.692482,3.7647362-3.7724762C31.6246376,21.2273712,29.9348984,19.5356312,27.8596535,19.5356312z
			 M27.8596535,25.081995c-0.9784164,0-1.7711124-0.7944546-1.7711124-1.7749081
			c0-0.980175,0.7924175-1.7741337,1.7711124-1.7741337c0.9784489,0,1.7719135,0.7937126,1.7719135,1.7741337
			C29.631567,24.2872963,28.8381023,25.081995,27.8596535,25.081995z M24.809227,19.8948975
			c-0.7869587-0.6171761-2.0537529-1.3791599-3.7714577-1.7539043v-0.4783592
			c1.9284363,0.3962097,3.319561,1.2483253,4.15345,1.9221802c0.7522411-0.544775,1.672039-0.8696003,2.6684341-0.8696003
			c0.5407982,0,1.0571098,0.0993843,1.5374699,0.2731419c-0.0504456-1.1824245-0.1962395-2.4275112-0.5892105-2.5768185
			c-1.9346943-0.7217731-4.4553318-1.1534433-6.4878693-1.3357124v-3.7540054c0-0.5270452,0.2621651-0.6493702,0.2988605-0.6641092
			c0.2504158-0.0703983,0.3959599-0.3315458,0.3248215-0.5817165c-0.0706749-0.2496767-0.3275681-0.3937416-0.5802364-0.3243303
			c-0.3654976,0.1038542-0.9836922,0.5502644-0.9836922,1.5701561v3.6843472
			c-0.1437836-0.0082321-0.2793694-0.0132284-0.4144306-0.0187168l-1.0995407-4.7409344
			c-0.0431995-0.1839981-0.1907501-0.3245773-0.3760128-0.3570166c-0.2266731-0.0399628-5.5955143-0.9752111-9.6338873-0.1608086
			c-0.254179,0.0514345-0.4194593,0.2996006-0.3687658,0.5547657c0.0511875,0.25492,0.2980909,0.4214325,0.553997,0.3687649
			c0.0561819-0.0112238,0.1143684-0.0189638,0.1707983-0.0294485l-0.7412615,4.321476
			C9.46943,14.9532213,9.4726686,14.962225,9.4714336,14.9717236H9.3046446c-0.8885641,0-1.0653133,0.5742216-1.0653133,0.5742216
			l-0.5445285,1.3671656l0.4523911,0.2254734c1.0583448-0.8973217,2.4247694-1.4413261,3.9155226-1.4413261
			c3.3507977,0,6.0756617,2.7310905,6.0756617,6.0868835c0,0.5887165-0.087883,1.1561871-0.2444363,1.6949787h5.4070473
			c-0.0022507-0.0624084-0.0092201-0.1235886-0.0092201-0.186739C23.291769,21.943655,23.879961,20.7337837,24.809227,19.8948975z
			 M26.604084,16.5927906c0.1201038-0.0471783,0.2561531,0.0122395,0.305336,0.1330872l0.3810062,0.9739475
			c0.0474243,0.1205978-0.0127373,0.2569218-0.1328106,0.305088c-0.0284615,0.0104828-0.0569229,0.015974-0.0864029,0.015974
			c-0.0933685,0-0.1814976-0.0569229-0.2184372-0.1492786l-0.3817482-0.9734516
			C26.4238186,16.7770653,26.4832382,16.6402473,26.604084,16.5927906z M25.4963112,16.5927906
			c0.1190853-0.0471783,0.2566757,0.0122395,0.304594,0.1330872l0.3817444,0.9739475
			c0.0471802,0.1205978-0.0127335,0.2569218-0.1333313,0.305088c-0.0281849,0.0104828-0.0569229,0.015974-0.0861244,0.015974
			c-0.0941105,0-0.1819935-0.0569229-0.2189655-0.1492786l-0.3809757-0.9734516
			C25.3157959,16.7770653,25.3752174,16.6402473,25.4963112,16.5927906z M14.4692612,15.2053957
			c-0.3695049-0.1213388-0.7262745-0.2087259-1.0395956-0.2336721h-3.0097542l0.6945753-4.0471306h3.3547745V15.2053957z
			 M20.096508,18.8320827l-1.7022266-0.0017586c-0.5652504-1.5207253-1.7766323-2.6072845-2.9855165-3.2351952v-4.6702585h3.6488867
			l1.0388565,4.481019V18.8320827z"/>
	</g>
</g>
</svg>
