<?xml version="1.0" encoding="utf-8"?>
<!-- Generator: Adobe Illustrator 17.1.0, SVG Export Plug-In . SVG Version: 6.00 Build 0)  -->
<!DOCTYPE svg PUBLIC "-//W3C//DTD SVG 1.1//EN" "http://www.w3.org/Graphics/SVG/1.1/DTD/svg11.dtd">
<svg version="1.1" id="Layer_1" xmlns="http://www.w3.org/2000/svg" xmlns:xlink="http://www.w3.org/1999/xlink" x="0px" y="0px"
	 viewBox="0 0 50 50" enable-background="new 0 0 50 50" xml:space="preserve">
<g id="base">
	<g>
		
			<linearGradient id="SVGID_1_" gradientUnits="userSpaceOnUse" x1="-2.0341744" y1="23.9423847" x2="-2.0341744" y2="15.062501" gradientTransform="matrix(2 0 -1.5237321 2 59.432991 0)">
			<stop  offset="0" style="stop-color:#000000;stop-opacity:0.4"/>
			<stop  offset="1" style="stop-color:#000000;stop-opacity:0"/>
		</linearGradient>
		<path fill="url(#SVGID_1_)" d="M9.1260471,40.6691475c-1.0210247-1.1439705-1.0357809-2.3327026-0.0447321-3.6335182
			c2.9522886-3.8750763,13.201005-6.9106274,23.3323517-6.9106274c10.1308594,0,15.7542152,3.0355511,12.8019257,6.9106274
			c-0.991188,1.3009987-2.8167648,2.4897308-5.5807533,3.6335182l-20.7517338,7.2156219L9.1260471,40.6691475z"/>
		
			<linearGradient id="SVGID_2_" gradientUnits="userSpaceOnUse" x1="9.5335703" y1="23.9423847" x2="9.5335703" y2="0.500001" gradientTransform="matrix(2 0 0 2 0 0)">
			<stop  offset="0" style="stop-color:#007BB8"/>
			<stop  offset="1" style="stop-color:#0094DE"/>
		</linearGradient>
		<path fill="url(#SVGID_2_)" d="M3.8129902,28.8359394c-1.8925781-3.0200195-2.8129883-6.1582031-2.8129883-9.5922852
			c0-10.2299805,7.9360352-18.2436523,18.0673828-18.2436523c10.1308594,0,18.0668926,8.0136719,18.0668926,18.2436523
			c0,3.4345703-0.9199219,6.5727539-2.8125,9.5922852l-15.2543926,19.04883L3.8129902,28.8359394z"/>
		<path fill="#FFFFFF" d="M19.0671539,2.0000038c9.5703907,0,17.0671997,7.5743885,17.0671997,17.2438335
			c0,3.2226715-0.8603745,6.1717339-2.6295547,9.0115891l-14.437645,18.029047L4.629611,28.2554722
			c-1.7692089-2.8399734-2.629612-5.7890739-2.629612-9.0116348C1.9999992,9.5743923,9.496788,2.0000038,19.0671539,2.0000038
			 M19.0671539,0.0000038C8.4440994,0.0000038,0,8.5222607,0,19.2438374c0,3.8487663,1.089622,7.1476898,2.9963446,10.1716995
			l16.0708084,20.0685596l16.0708923-20.0685596c1.9067612-3.0240097,2.9963074-6.3229332,2.9963074-10.1716995
			C38.1343536,8.5222607,29.6902981,0.0000038,19.0671539,0.0000038L19.0671539,0.0000038z"/>
	</g>
</g>
<g>
	<g opacity="0.6">
		<g>
			<path d="M33.0004578,26.4961567c-0.3996887-0.0266418-0.7994995-0.0532837-1.1991863-0.0799255v-0.2398376
				c-1.1874104-0.1097717-2.4380817-0.6914978-3.51758-1.0393066c-0.4720459-0.1520691-0.9847107-0.0855408-1.2791443-0.3997192
				c-0.1698303-0.2871094,0.1534729-1.1865234,0.1599121-1.7587891c0.4900818-0.0677795,0.5675964-0.2700806,0.8793945-0.4796753
				c0.2785339-1.1514282,0.1189575-1.4001465-0.3997498-2.1585388c-0.2468262-0.0593872-0.359375-0.1275635-0.6395569-0.1598816
				c-0.0600281-0.8311768-0.3278503-1.3067627-0.6395569-1.8387451c-0.2735291-0.0730286-0.350647-0.1490784-0.7195129-0.1598816
				c0.0799561-0.5062866,0.1599121-1.0126953,0.2398376-1.5189819c0.4077454,0.1407776,1.2211914,0.1503601,1.6788635,0.1599121
				v-0.8794241c-0.3539734,0.0012207-1.199646-0.204957-1.5189819,0H25.965271
				c0.0010376-1.9266977-0.4211121-3.2488108-1.1991882-4.3969736c-0.1865234-0.1865234-0.3731079-0.3731079-0.5596008-0.5596313
				c-0.0266724-0.3463745-0.0533142-0.6929016-0.0799561-1.0392761c-0.3180847-1.3059998-0.7694702-3.1873779-2.7980957-2.7181396
				c-0.278595,0.0644226-0.7198486,0.1139832-1.0392761,0.2398376c-0.2997437,0.1180725-0.4573059,0.4642639-0.7195129,0.6395569
				c-0.0084534,0.2025146-0.0098267,0.2962036-0.0799561,0.3997192c0.0980225,0.1802673,0.138092,0.1599121,0.3197937,0.2398376
				c-0.2037659,0.309906-0.8088989,0.1932068-1.1991882,0.3197937c-0.5814209,0.1885681-1.3695679,0.4721985-1.9187012,0.7994385
				c-0.2200928,0.1311646-0.4312744,0.4213562-0.6395569,0.5596313c-0.4638357,0.3078918-1.1308899,0.6661987-1.5989075,0.8793945
				c-0.1598511,0.0266418-0.3197937,0.0532837-0.4796753,0.0799255c-0.1598511,0.2131653-0.3197937,0.4264221-0.4796753,0.6395874
				c-0.2930908,0.1065674-0.5862732,0.2131958-0.8793945,0.3197632c-0.2663269,0.1628723-0.4798279,0.4664917-0.7195129,0.6395569
				c-0.7861633,0.5677185-1.7654114,0.8849487-2.3183899,1.6788635c-0.8623962-0.2929077-1.0862427-0.4569702-1.9187012,0.0799561
				c0.04953,0.5337524,0.2345586,0.4145508,0.5596313,0.6395569c0.2025146,0.0084534,0.2962036,0.0097961,0.3997192,0.0799561
				c-0.1647034,0.1598206-0.4509277,1.1622009-0.5596313,1.5989075c-0.1302791,0.5234985,0.1856384,1.1123962,0,1.4389954
				c-0.1191096,0.0513306-0.0346069,0.0993652-0.1598811,0c-0.9407659,0.0180664-0.8038335-0.2814026-1.2791142-0.6395569
				c-0.2613831,0.5067749-0.5108032,0.9366455-0.7195129,1.3590698H5.6591492
				c-0.0608826,0.5021057-0.162262,1.1420288-0.2398376,1.5989075c-0.0743408,0.4377747,0.2673035,0.5144043,0.1598816,1.0393066
				c-0.2063904,1.0084229-0.3009033,3.1629028,0.0799561,4.0772095c0.1645508,0.3950806,0.5560913,0.5689087,0.7994385,0.8793945
				c0.7413025,0.005188,1.951355,0.0274963,2.3983765-0.3197937c0.7244263-0.475647,0.9960938-1.7378235,0.9593506-2.9579773
				l0.0799255-0.0799255h3.4376526c0.4223938-0.0000305,1.1600647,0.0954285,1.4390259-0.0799561h0.8793955
				c0.1394348,0.0782776-0.0171204,0.2808533,0.0799561,0.3997192c0.1248779,0.1529236,0.525939,0.1608582,0.6395559,0.3197937
				c0.1591492,0.2226257,0.0581665,0.6408691,0.1598816,0.8793945c0.1735229,0.4068298,0.5843201,0.6978149,0.7195129,1.1192322
				c0.2616577,0.0360718,0.5413208,0.1076355,0.7195129,0.2398376h1.5189514
				c0.0768738-0.0376282,0.1221619-0.2874146,0.5596313-0.3997192c0.1045837-0.0566406,0.4034729-0.0357666,0.5596008,0.0799255
				h0.1599121v3.0379333c-0.5802002,0.0341797-0.1633606,0.2455444-0.7195129,0.3197937
				c0.1182556,0.0988464,1.0397339,0.4667053,1.3590698,0.2398376h0.7195129V29.53409
				c-0.2752686-0.0717468-0.2200928,0.0553589-0.3197937-0.1598816h-0.1598816
				c-0.1525574-0.0643921,0.1598816-0.0799561,0.1598816-0.0799561c-0.1112061-0.2050476-0.1964722-0.2123413-0.4796753-0.2398376
				c0.0100403-0.9449158,0.2700195-2.0812988,0-2.8780212h0.0799561c0.3582764-0.1539917,1.533905,0.2043152,1.9986267,0.3197632
				c1.9335327,0.4803467,3.7996521,0.3981934,5.756073,0.8793945c0.4751587,0.1168823,2.0473347,0.4041443,2.55826,0.0799561
				h0.1598816v-0.3197937c0.3276958,0.0098572,0.8413067,0.0515137,1.0392742-0.0799255
				c0.0799561-0.0266418,0.1599121-0.0533142,0.2398376-0.0799561
				C33.1314087,26.6761189,33.0983887,26.6785297,33.0004578,26.4961567z M10.0561523,22.9785786H9.8962402
				c-0.2025757-0.5904541-0.2112427-1.5137634-0.3197632-2.0785828c0.1854248,0.0593872,0.1785889,0.0830078,0.3197632,0.1598816
				c-0.0023193,0.3830566-0.0090942,1.019989,0.1599121,1.2791138V22.9785786z M11.3352661,22.8986225
				c0.0532837-0.3996887,0.1065979-0.7994995,0.1598816-1.1991882c0.0266418-0.0266418,0.0533142-0.0532837,0.0799561-0.0799255
				c0.9913025,0.01651,0.6999817,0.3849182,1.2791138,0.5596008c0.6821289,0.2057495,1.244873-0.3205261,2.2384644-0.3197632
				c0.0533142,0.3463745,0.1066284,0.6928711,0.1599121,1.0392761H11.3352661z M21.4083862,9.0680866
				c-0.3970032-0.1370544-0.8025818-0.0406189-1.1192322-0.2398376c-0.0335388-0.0514832-0.06073-0.3339844-0.0799561-0.5596313
				c0.6447449-0.0671082,1.6239319-0.5505371,2.1585388-0.1598816c0.5680847,0.1907349,0.8782959,1.0945129,0.8793945,1.8387451
				C22.5826416,9.8154926,22.0371399,9.2851276,21.4083862,9.0680866z"/>
		</g>
	</g>
	<g>
		<g>
			<path fill="#FFFFFF" d="M32.5118713,26.0075703c-0.3996887-0.0266418-0.7994976-0.0532837-1.1991863-0.0799561v-0.2398071
				c-1.1874104-0.1097717-2.4380817-0.6914978-3.51758-1.0393066c-0.4720459-0.1520996-0.9847107-0.0855408-1.2791443-0.3997192
				c-0.1698303-0.2871094,0.1534729-1.1865234,0.1598816-1.7587891c0.4901123-0.0677795,0.567627-0.2700806,0.879425-0.4796753
				c0.2785339-1.1514282,0.118927-1.4001465-0.3997498-2.1585388c-0.2468262-0.0593872-0.359375-0.1275635-0.6395569-0.1598816
				c-0.0600281-0.8311768-0.3278503-1.3067627-0.6395569-1.8387451c-0.2735291-0.0730286-0.350647-0.1490784-0.7195129-0.1598816
				c0.0799561-0.5062866,0.1599121-1.0126953,0.2398376-1.5189819c0.4077454,0.1407776,1.2211914,0.1503296,1.6788635,0.1599121
				v-0.879425c-0.3539734,0.0012207-1.199646-0.2049561-1.5189819,0h-0.0799255
				c0.0010376-1.9266968-0.4211121-3.2488098-1.1991882-4.3969727l-0.5596313-0.5596313
				c-0.0266418-0.346405-0.0532837-0.6929016-0.0799255-1.0392761c-0.3180847-1.3059998-0.7694702-3.1873779-2.7980957-2.7181396
				c-0.278595,0.0644226-0.7198792,0.1139832-1.0392761,0.2398376c-0.2997437,0.1180725-0.4573364,0.4642639-0.7195129,0.6395569
				c-0.0084534,0.2025146-0.0098267,0.2962036-0.0799561,0.3997192c0.0980225,0.1802368,0.138092,0.1599121,0.3197937,0.2398376
				c-0.2037964,0.3098755-0.8088989,0.1932068-1.1991882,0.3197632c-0.5814209,0.1885681-1.3695984,0.472229-1.9187012,0.799469
				C15.9829111,9.5101032,15.7717295,9.8002949,15.563447,9.93857c-0.4638376,0.3078918-1.1308908,0.6661987-1.5989084,0.8793945
				c-0.1598816,0.0266418-0.3197937,0.0532837-0.4796753,0.0799255c-0.1598511,0.2131653-0.3197937,0.4264221-0.4796753,0.6395874
				c-0.2930908,0.1065674-0.5862732,0.2131958-0.8793945,0.3197632c-0.2663269,0.1628723-0.4798279,0.4664917-0.7195129,0.6395569
				c-0.7861633,0.5677185-1.7654114,0.8849487-2.3183899,1.6788635c-0.8623962-0.2929077-1.0862427-0.4569702-1.9187012,0.0799561
				c0.04953,0.5337219,0.2345581,0.4145508,0.5596313,0.6395569c0.2025151,0.0084534,0.2962036,0.0097961,0.3997192,0.0799255
				c-0.1647029,0.1598511-0.4509277,1.1622314-0.5596313,1.5989075c-0.1303101,0.5235291,0.1856384,1.1124268,0,1.4390259
				c-0.1191101,0.0513306-0.0346069,0.0993652-0.1598816,0c-0.9407654,0.0180359-0.803833-0.2814026-1.2791138-0.6395569
				c-0.2613831,0.5067749-0.5108032,0.9366455-0.7195129,1.3590698H5.1705627
				c-0.0608826,0.5021057-0.162262,1.1420288-0.2398376,1.5989075c-0.0743408,0.4377747,0.2673035,0.5144043,0.1598816,1.0392761
				c-0.2063904,1.0084534-0.3009033,3.1629333,0.0799561,4.07724c0.1645508,0.3950806,0.5560608,0.5689087,0.7994385,0.8793945
				c0.7413025,0.0051575,1.9513555,0.0274963,2.3983765-0.3197937c0.7244263-0.475647,0.9960938-1.7378235,0.9593506-2.9579773
				c0.0266418-0.0266418,0.0532837-0.0532837,0.0799255-0.0799561h3.4376526c0.4223938,0,1.1600647,0.095459,1.4390259-0.0799255
				h0.8793945c0.1394348,0.0782776-0.0171204,0.2808533,0.0799561,0.3997192
				c0.1248779,0.1529236,0.5259409,0.1608582,0.6395578,0.3197937c0.1591482,0.2226257,0.0581665,0.6408691,0.1598806,0.8793945
				c0.1735229,0.4068298,0.5843201,0.6978149,0.7195129,1.1192322c0.2616577,0.0360718,0.5413208,0.1076355,0.7195129,0.2398376
				h1.5189514c0.0768738-0.0376282,0.1221313-0.2874451,0.5596313-0.3997192
				c0.1045837-0.0566406,0.4034729-0.0357666,0.5596008,0.0799255h0.1599121v3.0379333
				c-0.5802002,0.0341797-0.1633606,0.2455444-0.7195129,0.3197937c0.1182556,0.0988464,1.0397339,0.4667053,1.3590698,0.2398071
				h0.7195129v-0.0799255c-0.2752686-0.0717468-0.2200928,0.0553589-0.3197937-0.1598816h-0.1598816
				c-0.1525574-0.0643921,0.1598816-0.0799561,0.1598816-0.0799561c-0.1112061-0.2050476-0.1964722-0.2123413-0.4796753-0.2398376
				c0.0100403-0.9449158,0.2700195-2.0813293,0-2.8780212h0.0799561c0.3582764-0.1539917,1.533905,0.2043152,1.9986267,0.3197632
				c1.9335327,0.4803467,3.7996521,0.3981934,5.756073,0.8793945c0.4751587,0.1168823,2.0473328,0.4041443,2.55826,0.0799561
				h0.1598816v-0.3197937c0.3276978,0.0098572,0.8412762,0.0515137,1.0392742-0.0799255
				c0.0799561-0.0266418,0.1599121-0.0533142,0.2398376-0.0799561
				C32.6428223,26.1875019,32.6097717,26.1899433,32.5118713,26.0075703z M9.5675354,22.4899921H9.4076538
				c-0.2026062-0.5904541-0.2112427-1.5137634-0.3197632-2.0785828c0.1854248,0.0593872,0.1785889,0.0830078,0.3197632,0.1598816
				c-0.0023193,0.3830261-0.0090942,1.0199585,0.1598816,1.2791138V22.4899921z M10.8466797,22.4100361
				c0.0532837-0.3996887,0.1065979-0.7994995,0.1598816-1.1991882c0.0266418-0.0266418,0.0533142-0.0532837,0.0799561-0.0799255
				c0.9913025,0.01651,0.6999817,0.3849182,1.2791138,0.5596008c0.6821289,0.205719,1.244873-0.3205261,2.2384644-0.3197937
				c0.0533142,0.346405,0.1065979,0.6929016,0.1599121,1.0393066H10.8466797z M20.9197998,8.5794697
				c-0.3970032-0.1370239-0.8025818-0.0405884-1.1192322-0.2398071c-0.0335693-0.0514832-0.06073-0.3339844-0.0799561-0.5596313
				c0.6447449-0.0671082,1.6239319-0.5505371,2.1585388-0.1598816c0.5680847,0.1907349,0.8782959,1.0945129,0.8793945,1.8387451
				C22.0940552,9.3269062,21.5485535,8.7965412,20.9197998,8.5794697z"/>
		</g>
	</g>
</g>
</svg>
