<?xml version="1.0" encoding="utf-8"?>
<!-- Generator: Adobe Illustrator 17.1.0, SVG Export Plug-In . SVG Version: 6.00 Build 0)  -->
<!DOCTYPE svg PUBLIC "-//W3C//DTD SVG 1.1//EN" "http://www.w3.org/Graphics/SVG/1.1/DTD/svg11.dtd">
<svg version="1.1" id="Layer_1" xmlns="http://www.w3.org/2000/svg" xmlns:xlink="http://www.w3.org/1999/xlink" x="0px" y="0px"
	 viewBox="0 0 50 50" enable-background="new 0 0 50 50" xml:space="preserve">
<g id="base">
	<g>
		
			<linearGradient id="SVGID_1_" gradientUnits="userSpaceOnUse" x1="-22.579422" y1="6.2374568" x2="-22.579422" y2="3.9943411" gradientTransform="matrix(8 0 -6.0949283 8 237.7319641 0)">
			<stop  offset="0" style="stop-color:#000000;stop-opacity:0.4"/>
			<stop  offset="1" style="stop-color:#000000;stop-opacity:0"/>
		</linearGradient>
		<path fill="url(#SVGID_1_)" d="M9.2211933,42.6088028c-1.0316696-1.155899-1.0465803-2.3570213-0.0451984-3.671402
			c2.9830694-3.9154739,13.3386364-6.9826717,23.5756073-6.9826717c10.2364845,0,15.9184685,3.0671978,12.9353981,6.9826717
			c-1.0015221,1.3145676-2.8461304,2.5156937-5.6389351,3.671402L19.079977,49.8996544L9.2211933,42.6088028z"/>
		
			<linearGradient id="SVGID_2_" gradientUnits="userSpaceOnUse" x1="2.4082413" y1="6.0480018" x2="2.4082413" y2="0.1263049" gradientTransform="matrix(8 0 0 8 0 0)">
			<stop  offset="0" style="stop-color:#007BB8"/>
			<stop  offset="1" style="stop-color:#0094DE"/>
		</linearGradient>
		<path fill="url(#SVGID_2_)" d="M3.8527436,29.1365891c-1.9123098-3.051506-2.8423162-6.2224083-2.8423162-9.6922932
			c0-10.3366356,8.018775-18.433857,18.2557507-18.433857c10.2364826,0,18.2552528,8.0972223,18.2552528,18.433857
			c0,3.4703808-0.929512,6.6412811-2.8418198,9.6922932L19.2661781,48.3840141L3.8527436,29.1365891z"/>
		<path fill="#FFFFFF" d="M19.2659454,2.0208666c9.6701679,0,17.2451401,7.6533575,17.2451401,17.4236145
			c0,3.2562714-0.8693466,6.2360802-2.656971,9.1055431L19.2659454,46.7670326L4.6778784,28.5500717
			c-1.7876544-2.869585-2.6570275-5.849432-2.6570275-9.1055908C2.0208507,9.6742239,9.5957994,2.0208666,19.2659454,2.0208666
			 M19.2659454,0.0000152C8.532136,0.0000152,0,8.611124,0,19.4444809c0,3.8888931,1.1009821,7.2222099,3.0275838,10.2777481
			l16.2383614,20.2777863L35.5043907,29.722229c1.9266396-3.0555382,3.0275459-6.388855,3.0275459-10.2777481
			C38.5319366,8.611124,29.9998436,0.0000152,19.2659454,0.0000152L19.2659454,0.0000152z"/>
	</g>
</g>
<g>
	<g opacity="0.6">
		<g>
			<path d="M33.3445129,26.7724018c-0.4038582-0.0269203-0.8078346-0.0538387-1.211689-0.080759v-0.2423382
				c-1.199791-0.1109161-2.463501-0.6987076-3.5542545-1.0501423c-0.4769669-0.1536541-0.994978-0.0864315-1.2924805-0.4038868
				c-0.1716003-0.290102,0.1550732-1.1988926,0.1615791-1.7771244c0.4951916-0.0684872,0.5735149-0.2728977,0.8885632-0.4846764
				c0.2814369-1.1634331,0.1201973-1.4147453-0.4039173-2.1810436c-0.2493992-0.0600071-0.363121-0.1288929-0.646225-0.1615486
				c-0.0606537-0.8398418-0.3312683-1.3203869-0.646225-1.8579159c-0.2763805-0.0737896-0.3543034-0.1506329-0.7270145-0.1615486
				c0.0807896-0.5115643,0.1615791-1.0232525,0.2423382-1.5348167c0.4119968,0.1422443,1.233923,0.151926,1.6963673,0.1615791
				v-0.8885937c-0.3576641,0.0012341-1.2121525-0.2070932-1.5348186,0h-0.080759
				c0.001049-1.946785-0.4255028-3.2826815-1.2116909-4.4428148c-0.188467-0.188468-0.376997-0.3769979-0.5654335-0.5654659
				c-0.0269508-0.3499861-0.0538712-0.7001257-0.0807896-1.0501118c-0.3214016-1.3196154-0.7774925-3.2206082-2.8272686-2.7464776
				c-0.2814999,0.065094-0.727354,0.1151714-1.0501118,0.2423377c-0.3028679,0.1193037-0.4620743,0.4691048-0.7270145,0.646225
				c-0.0085411,0.2046261-0.0099277,0.2992916-0.0807896,0.4038868c0.0990448,0.1821461,0.1395321,0.1615791,0.3231277,0.2423382
				c-0.2058907,0.3131371-0.8173313,0.1952209-1.2116909,0.3231277c-0.5874825,0.1905336-1.3838463,0.4771214-1.9387035,0.8077726
				c-0.2223873,0.1325321-0.4357719,0.4257498-0.646225,0.5654659c-0.4686718,0.3111019-1.1426811,0.6731443-1.6155777,0.8885632
				c-0.1615181,0.0269194-0.3231277,0.0538387-0.4846764,0.080759c-0.1615181,0.2153873-0.3231277,0.4308672-0.4846764,0.6462555
				c-0.2961464,0.1076784-0.5923853,0.2154179-0.8885632,0.3230963c-0.2691031,0.1645708-0.4848299,0.4713554-0.7270136,0.646225
				c-0.7943602,0.573638-1.7838173,0.8941755-2.3425608,1.6963673c-0.8713875-0.2959614-1.0975676-0.4617348-1.9387054,0.0807896
				c0.0500464,0.5393171,0.2370043,0.4188728,0.5654659,0.646225c0.2046261,0.0085411,0.2992916,0.0098982,0.4038868,0.0807896
				c-0.1664209,0.1614866-0.4556293,1.1743183-0.5654659,1.6155777c-0.1316376,0.5289555,0.1875734,1.1239929,0,1.4539967
				c-0.1203518,0.0518665-0.0349684,0.1004009-0.1615481,0c-0.9505739,0.0182552-0.8122139-0.2843361-1.29245-0.646225
				c-0.2641082,0.5120583-0.5161285,0.9464111-0.7270145,1.3732395H5.7181497
				c-0.0615172,0.5073414-0.1639533,1.1539364-0.2423377,1.6155777c-0.0751162,0.4423389,0.2700901,0.5197678,0.1615481,1.0501423
				c-0.2085419,1.0189362-0.3040404,3.195879,0.0807896,4.1197166c0.1662664,0.3992004,0.5618892,0.5748405,0.8077736,0.8885632
				c0.7490311,0.0052414,1.9716992,0.0277824,2.4233813-0.3231277c0.7319784-0.4806061,1.0064783-1.7559414,0.9693527-2.9888153
				l0.0807581-0.080759h3.4734926c0.4267979-0.0000324,1.1721592,0.0964222,1.4540291-0.0807896h0.8885641
				c0.1408882,0.079092-0.0172997,0.2837811,0.0807896,0.4038868c0.1261797,0.1545162,0.5314226,0.1625347,0.646224,0.3231277
				c0.1608086,0.2249451,0.058773,0.6475506,0.1615486,0.8885612c0.1753311,0.4110718,0.5904121,0.7050915,0.7270145,1.1309013
				c0.2643852,0.0364475,0.5469627,0.1087589,0.7270126,0.2423382h1.5347881
				c0.0776749-0.0380211,0.123436-0.290411,0.5654659-0.4038868c0.1056747-0.05723,0.4076805-0.0361385,0.5654354,0.080759
				h0.1615791v3.0696068c-0.5862484,0.0345364-0.1650639,0.2481041-0.7270145,0.3231277
				c0.1194897,0.0998764,1.0505733,0.471571,1.3732395,0.2423382h0.7270145v-0.0807896
				c-0.2781391-0.0724964-0.2223873,0.0559349-0.3231277-0.1615486h-0.1615486
				c-0.1541481-0.0650635,0.1615486-0.0807896,0.1615486-0.0807896c-0.1123657-0.2071857-0.1985207-0.2145557-0.4846764-0.2423382
				c0.0101452-0.9547672,0.2728348-2.1029987,0-2.9080276h0.0807896c0.362011-0.1555977,1.5498962,0.2064457,2.0194645,0.3230972
				c1.9536896,0.4853554,3.8392658,0.4023457,5.8160839,0.8885632c0.4801121,0.1181011,2.0686798,0.4083576,2.5849304,0.0807896
				h0.1615486v-0.3231277c0.3311119,0.0099602,0.8500786,0.0520515,1.0501099-0.080759
				c0.0807915-0.0269203,0.1615791-0.0538692,0.2423401-0.0807896
				C33.4768257,26.9542408,33.4434624,26.9566765,33.3445129,26.7724018z M10.1609945,23.2181511H9.9994154
				c-0.2046871-0.596611-0.2134447-1.5295467-0.3230963-2.1002541c0.1873579,0.0600071,0.1804504,0.0838737,0.3230963,0.1615486
				c-0.0023432,0.3870506-0.0091887,1.0306225,0.1615791,1.29245V23.2181511z M11.4534445,23.1373615
				c0.0538387-0.4038563,0.1077089-0.8078346,0.1615486-1.2116909c0.0269194-0.0269203,0.0538702-0.0538387,0.0807896-0.080759
				c1.0016375,0.0166817,0.7072792,0.3889313,1.292449,0.5654354c0.6892405,0.2078934,1.2578526-0.3238678,2.2618027-0.3230972
				c0.0538692,0.3499851,0.1077394,0.7000942,0.1615791,1.0501118H11.4534445z M21.6315842,9.162632
				c-0.4011421-0.138484-0.8109493-0.0410423-1.1309013-0.2423382c-0.0338879-0.0520201-0.0613632-0.3374662-0.0807896-0.5654659
				c0.6514664-0.0678082,1.6408634-0.5562773,2.1810436-0.1615486c0.574007,0.1927233,0.8874531,1.1059237,0.8885632,1.8579149
				C22.8180828,9.9178295,22.2668934,9.3819351,21.6315842,9.162632z"/>
		</g>
	</g>
	<g>
		<g>
			<path fill="#FFFFFF" d="M32.8508301,26.2787209c-0.4038544-0.0269184-0.8078308-0.0538387-1.2116871-0.0807896v-0.2423058
				c-1.199791-0.1109161-2.463501-0.6987076-3.5542545-1.0501423c-0.4769669-0.1536865-0.994976-0.0864334-1.2924805-0.4038868
				c-0.1716003-0.2901039,0.1550732-1.1988945,0.1615486-1.7771263c0.4952221-0.0684853,0.5735455-0.2728958,0.8885937-0.4846764
				c0.2814388-1.1634331,0.1201668-1.4147434-0.4039173-2.1810436c-0.2493992-0.0600052-0.363121-0.1288929-0.646225-0.1615486
				c-0.0606537-0.8398418-0.3312683-1.320385-0.646225-1.857914c-0.2763805-0.0737896-0.3543015-0.1506329-0.7270126-0.1615486
				c0.0807896-0.5115662,0.1615791-1.0232544,0.2423382-1.5348186c0.4119949,0.1422443,1.233923,0.1518974,1.6963654,0.1615791
				v-0.8885937c-0.3576641,0.0012331-1.2121525-0.2070932-1.5348186,0h-0.0807571
				c0.0010471-1.946784-0.4255028-3.2826815-1.2116909-4.4428139l-0.5654659-0.5654659
				c-0.0269203-0.3500166-0.0538406-0.7001257-0.080759-1.0501118c-0.3214016-1.3196154-0.7774925-3.2206087-2.8272686-2.7464781
				c-0.2814999,0.065094-0.7273846,0.1151714-1.0501118,0.2423382c-0.3028679,0.1193032-0.4621029,0.4691043-0.7270126,0.6462245
				c-0.008543,0.2046261-0.0099297,0.2992921-0.0807896,0.4038863c0.0990429,0.1821165,0.1395302,0.1615801,0.3231277,0.2423382
				c-0.2059212,0.3131065-0.8173332,0.1952219-1.2116909,0.3230972c-0.5874825,0.1905346-1.3838787,0.4771528-1.9387054,0.8078041
				c-0.2223873,0.1325321-0.43577,0.4257488-0.646224,0.5654659c-0.4686737,0.3111019-1.1426811,0.6731443-1.6155777,0.8885632
				c-0.1615486,0.0269194-0.3231277,0.0538387-0.4846764,0.0807581c-0.1615181,0.2153883-0.3231277,0.4308681-0.4846764,0.6462555
				c-0.2961464,0.1076784-0.5923853,0.2154188-0.8885632,0.3230972c-0.2691031,0.1645708-0.4848299,0.4713554-0.7270145,0.646225
				c-0.7943592,0.573637-1.7838163,0.8941746-2.3425608,1.6963673c-0.8713875-0.2959623-1.0975676-0.4617348-1.938705,0.0807896
				c0.0500464,0.5392857,0.2370038,0.4188728,0.5654659,0.646224c0.2046266,0.0085421,0.2992921,0.0098982,0.4038863,0.080759
				c-0.16642,0.1615181-0.4556284,1.1743488-0.5654655,1.6155777c-0.1316686,0.528986,0.1875739,1.1240234,0,1.4540291
				c-0.1203518,0.0518646-0.0349679,0.1004009-0.1615486,0c-0.9505734,0.0182228-0.8122134-0.284338-1.2924495-0.646225
				c-0.2641082,0.5120583-0.5161285,0.9464111-0.7270141,1.3732395H5.2244697
				c-0.0615172,0.5073395-0.1639538,1.1539345-0.2423382,1.6155758c-0.0751157,0.4423389,0.2700901,0.5197678,0.1615486,1.0501118
				c-0.2085423,1.0189667-0.3040404,3.1959095,0.0807896,4.1197491c0.1662664,0.3991985,0.5618582,0.5748386,0.8077731,0.8885612
				c0.7490311,0.0052128,1.9716997,0.0277843,2.4233809-0.3231277c0.7319794-0.4806061,1.0064793-1.7559414,0.9693527-2.9888153
				c0.0269194-0.0269203,0.0538397-0.0538387,0.080759-0.0807896h3.4734926c0.4267979,0,1.1721592,0.0964546,1.4540291-0.080759
				h0.8885622c0.1408892,0.0790939-0.0172987,0.2837811,0.0807896,0.4038868
				c0.1261806,0.1545181,0.5314245,0.1625347,0.6462269,0.3231277c0.1608067,0.224947,0.058773,0.6475506,0.1615467,0.8885632
				c0.1753311,0.4110699,0.5904121,0.7050896,0.7270145,1.1309013c0.2643852,0.0364475,0.5469646,0.108757,0.7270145,0.2423363
				h1.5347881c0.0776749-0.0380192,0.1234035-0.2904415,0.5654659-0.4038849
				c0.1056728-0.0572319,0.4076786-0.0361404,0.5654335,0.0807571h0.1615791v3.0696068
				c-0.5862484,0.0345364-0.1650639,0.2481041-0.7270126,0.3231277c0.1194878,0.0998764,1.0505733,0.471571,1.3732376,0.2423077
				h0.7270145v-0.080759c-0.2781372-0.0724945-0.2223873,0.0559368-0.3231277-0.1615486h-0.1615486
				c-0.1541481-0.0650635,0.1615486-0.0807896,0.1615486-0.0807896c-0.1123657-0.2071857-0.1985207-0.2145557-0.4846764-0.2423382
				c0.0101452-0.9547672,0.2728348-2.1030293,0-2.9080257h0.0807896c0.3620129-0.1555977,1.5498981,0.2064438,2.0194645,0.3230953
				c1.9536915,0.4853554,3.8392658,0.4023457,5.8160839,0.8885632c0.4801121,0.1181011,2.0686779,0.4083576,2.5849323,0.0807896
				h0.1615486v-0.3231277c0.3311119,0.0099602,0.8500481,0.0520515,1.0501099-0.080759
				c0.0807877-0.0269184,0.1615791-0.0538692,0.2423363-0.0807896
				C32.9831467,26.4605293,32.9497528,26.4629955,32.8508301,26.2787209z M9.667284,22.7244701H9.5057354
				c-0.2047186-0.5966091-0.2134447-1.5295448-0.3230972-2.1002541c0.1873579,0.0600071,0.1804514,0.0838737,0.3230972,0.1615486
				c-0.0023432,0.3870201-0.0091887,1.030592,0.1615486,1.29245V22.7244701z M10.9597645,22.6436806
				c0.0538387-0.4038563,0.1077089-0.8078346,0.1615477-1.2116909c0.0269203-0.0269184,0.0538702-0.0538387,0.0807905-0.080759
				c1.0016375,0.0166836,0.7072792,0.3889313,1.292449,0.5654354c0.6892405,0.2078648,1.2578516-0.3238678,2.2618017-0.3231277
				c0.0538702,0.3500175,0.1077099,0.7001266,0.1615791,1.0501423H10.9597645z M21.1379032,8.6689205
				c-0.4011421-0.1384525-0.8109493-0.0410118-1.1309013-0.2423077c-0.0339184-0.0520191-0.0613613-0.3374662-0.0807896-0.5654655
				c0.6514683-0.0678077,1.6408634-0.5562768,2.1810436-0.1615486c0.574007,0.1927238,0.8874531,1.1059241,0.8885632,1.8579154
				C22.3244019,9.4241495,21.7732124,8.8882551,21.1379032,8.6689205z"/>
		</g>
	</g>
</g>
</svg>
