<?xml version="1.0" encoding="utf-8"?>
<!-- Generator: Adobe Illustrator 17.1.0, SVG Export Plug-In . SVG Version: 6.00 Build 0)  -->
<!DOCTYPE svg PUBLIC "-//W3C//DTD SVG 1.1//EN" "http://www.w3.org/Graphics/SVG/1.1/DTD/svg11.dtd">
<svg version="1.1" id="Layer_1" xmlns="http://www.w3.org/2000/svg" xmlns:xlink="http://www.w3.org/1999/xlink" x="0px" y="0px"
	 viewBox="0 0 60 60" enable-background="new 0 0 60 60" xml:space="preserve">
<g id="base">
	<g>
		
			<linearGradient id="SVGID_1_" gradientUnits="userSpaceOnUse" x1="-12.6099606" y1="85" x2="-12.6099606" y2="90.3407974" gradientTransform="matrix(4 0 3.0474641 -4 -185.8804321 400)">
			<stop  offset="0" style="stop-color:#000000;stop-opacity:0.4"/>
			<stop  offset="1" style="stop-color:#000000;stop-opacity:0"/>
		</linearGradient>
		<path fill="url(#SVGID_1_)" d="M10.9777107,51.3203468c-1.2281895-1.3760834-1.2459393-2.8060074-0.0538082-4.3707581
			c3.5513048-4.6613235,15.8794746-8.3127785,28.0664539-8.3127785c12.1864014,0,18.9507294,3.6514549,15.3994217,8.3127785
			c-1.1922951,1.5649719-3.388279,2.9948997-6.7130814,4.3707581l-24.9622326,8.6796608L10.9777107,51.3203468z"/>
		
			<linearGradient id="SVGID_2_" gradientUnits="userSpaceOnUse" x1="5.7339597" y1="85.5998688" x2="5.7339597" y2="99.6992722" gradientTransform="matrix(4 0 0 -4 0 400)">
			<stop  offset="0" style="stop-color:#006699"/>
			<stop  offset="1" style="stop-color:#007BB8"/>
		</linearGradient>
		<path fill="url(#SVGID_2_)" d="M4.5866413,34.686718C2.3100612,31.0539417,1.202901,27.2790241,1.202901,23.1481705
			c0-12.3056307,9.5462475-21.9452667,21.7332325-21.9452667c12.1863976,0,21.7326431,9.639637,21.7326431,21.9452667
			c0,4.131443-1.1065712,7.9063587-3.383152,11.5385475L22.9361343,57.6005287L4.5866413,34.686718z"/>
		<path fill="#FFFFFF" d="M22.9358578,2.4058051c11.5122089,0,20.5301151,9.1112213,20.5301151,20.7425861
			c0,3.8765488-1.0349464,7.4239712-3.1630898,10.8400307L22.9358578,55.6755371L5.5689535,33.9884758
			c-2.1281793-3.4162006-3.163157-6.9636707-3.163157-10.8400841C2.4057965,11.5170269,11.4236746,2.4058051,22.9358578,2.4058051
			 M22.9358578,0.0000076C10.1573973,0.0000076,0,10.25142,0,23.1483917c0,4.6296749,1.3107049,8.5979481,3.6042993,12.2355232
			l19.3315582,24.1404457l19.3316555-24.1404457c2.2936401-3.6375751,3.6042557-7.6058483,3.6042557-12.2355232
			C45.871769,10.25142,35.7144241,0.0000076,22.9358578,0.0000076L22.9358578,0.0000076z"/>
	</g>
</g>
<g opacity="0.6">
	<g>
		<path d="M41.4893875,22.2823067c-0.2717896-0.3487167-0.9687004-0.2366333-1.3374329-0.48633
			c-0.0487747-0.0587978-0.0896606-0.1666241-0.1215935-0.2431831c0.1253281-0.0785942,0.1386108-0.1290302,0.303978-0.1823502
			v-0.3039799c-0.0695305-0.1465302-1.5853119-0.4895115-1.8237572-0.5471249
			c-0.2271996-0.0549126-0.2905502,0.0812225-0.4863663,0.1215916c0.0277138,0.2163944-0.0318985,0.1540432,0.1215897,0.243145
			c-0.0202408,0.0607967-0.0405197,0.1215935-0.0607948,0.1823883h-0.2431488
			c0.0586891-0.2815189,0.0456619-0.4419613-0.060791-0.6687145c-0.214695-0.0915833-1.4542923-0.5477562-1.76297-0.4255352
			c-0.0810738,0.0810356-0.1621475,0.1621113-0.2431831,0.2431469c-0.5441666,0.241703-1.5939026,0.5465698-2.2492943,0.3647747
			c-1.8801193-0.5215549-3.8424187-0.6836662-5.6536751-1.1550446c-0.2836628-0.0202789-0.5674381-0.040556-0.8511009-0.0607967
			c-0.5914555-0.1880112-1.3551579-0.1611462-2.0061512-0.3647747c-0.4319324-0.1350975-0.9779854-0.3009815-1.519783-0.3039417
			c-0.0082512-0.3467922-0.0979824-0.4146538-0.3647366-0.48633c-0.2107677-0.1340237-0.6500301-0.0529499-0.8511047-0.1823864
			c-0.2738571,0.0158386-0.291914,0.0646076-0.4863281,0.1215916c0.0556526,0.1311378,0.0526924,0.0883999,0.1215553,0.1823502
			h-0.0607586c-0.0576515,0.0660877-0.1536007,0.0072536-0.243185-0.0607586
			c-0.0724888-0.0814419,0.0066986-0.1582241-0.0607948-0.2431831c-0.0079174-0.4812584-0.154747-0.3731728-0.3647385-0.6079197
			c-1.074749-0.018095-1.7119751,0.1834221-2.614069,0.4255314c-0.2008133,0.053915-1.2998734-0.2474365-1.5198193-0.3039398
			c-0.2025909-0.0202789-0.4052925-0.040556-0.6079197-0.0607967c-0.316412-0.1519718-1.316083-0.6874027-1.5805798-0.9118996
			c-0.1773176-0.1504898-0.1314344-0.4701576-0.5471249-0.6079197c-0.0839224-0.0333033-0.2516184,0.0161705-0.4863281,0
			c-0.0522118,0.5934887-0.1401672,1.9017639-0.5471621,2.3708858c-0.2343769,0.1595573-1.3152313,0.3104916-1.7021704,0.303978
			c-0.2026272-0.1621094-0.4052935-0.324255-0.6079206-0.4863281c-0.1275864-0.2080669-0.127142-0.5175591-0.3039417-0.6687164
			c-0.3614807-0.3090115-0.851326-0.426939-1.1550446-0.790308c-0.2567272,0.00037-0.4627962,0.0141735-0.6079216,0.1215916
			c-0.2989092,0.1306953-0.0709343,0.3111572-0.2431831,0.5471249c-0.0689726,0.0944691-0.2882156,0.1484928-0.3647375,0.2431831
			c-0.2076597,0.2569103-0.8989854,1.1804657-0.6079202,1.6413765c-0.0095468,0.6542091,0.3821292,1.1839066,0.8510671,1.337431
			c0.0323029,0.3766155,0.1233673,0.6006317,0.1215906,1.0334549c-0.4803705,0.0066605-1.2239814,0.0218296-1.5198193,0.2431812
			c-0.0607591,0.0202408-0.121592,0.0405178-0.1823502,0.0607967c0.0408878,0.2652721,0.1329513,0.4101028,0.3647375,0.4863281
			c-0.2987614,0.1637745-0.4956541-0.2179832-0.8511038-0.1215897c-0.1321378,0.0358543-0.1544132,0.1466408-0.3647375,0.1823845
			c0.113636,0.8019276,0.1800561,1.9973793,0.4863291,2.9788074c0.1997786,0.640152,0.4804082,1.4168053,0.4863286,2.1884995
			c0.2026281,0.199707,0.3259959,0.4881802,0.6079578,0.6079216c0.2142096,0.0909901,0.3779845-0.0822964,0.5471253,0
			c0.1758375,0.0855885,0.7454596,1.0409279,1.0334539,1.2158394c0.1352816,0.0821857,0.4226103,0.2202053,0.5471239,0.243185
			c0.2461805,0.0454388,0.1933775-0.1256638,0.3647375-0.0607967c0.4323797-0.0104713,0.4276056-0.1385746,0.6687164-0.3039398
			c-0.0097313-0.3147469-0.0535059-0.3660717-0.2431459-0.4863682v-0.0607586c0.6482534,0.0175781,1.1130476,0.3483105,1.6413746,0
			c0.1410179-0.0451813,0.1358013-0.0631638,0.2431831-0.1215916c0.0541716-0.2701931,0.0609064-0.3769855-0.1215916-0.5471249
			v-0.0607948c0.2987242,0.0300465,0.566885,0.0777779,0.7295122,0.243145
			c0.3377628,0.0110645,0.4751911,0.0082169,0.6079197-0.1823502c0.0558014-0.1164856,0.0243111-0.0446625,0-0.1823883
			c0.4158392-0.1694717,0.493804-0.3734684,1.0942497-0.3647366c0.1251812,2.3705559,0.9071627,4.0209198,2.5532751,5.0457153
			c0.8172092,0.5087891,2.3840599,0.5054588,2.9788074-0.2431488c0.3019066,0.1840935,0.4502487,1.3967857,0.6687145,1.76297
			c0.7362843,1.2341537,1.3778782,2.1729965,2.6140709,2.9180107c0.2969112,0.1789818,0.9580402,0.5621834,1.5805779,0.3647728
			c0.7227783-0.2292328,0.6806297-0.7529335,1.0942497-1.2158394c0.2962456-0.1837578,0.966589-0.052803,1.3374329-0.303978
			c0.2372246-0.1606331,0.5490856-0.8249092,0.7295113-0.9118652h0.5471268
			c0.1466408-0.041256,0.4646435-0.1500092,0.6079197-0.2431831c0.2444038-0.1589622,0.4803333-0.6864014,0.6687145-0.7903061
			c0.2431488-0.0405197,0.4863682-0.0810356,0.7295132-0.1215935c0.1649227-0.0754852,0.5548954-0.3386841,0.6687164-0.4863281
			c0.0781136-0.1013107,0.0892887-0.2843666,0.1823883-0.3647346c0.2085094-0.1801682,0.8354149-0.2421494,1.0942497-0.4255714
			c0.1709518-0.121151,0.2180939-0.3460159,0.3647346-0.4863319c0.3241844-0.1215515,0.6484756-0.2431812,0.9726944-0.3647366
			c0.2318268-0.1504173,0.3822784-0.5345802,0.6079254-0.6687145c0.2401085-0.1427956,0.5092316-0.0990944,0.7294731-0.2431831
			c0.1735039-0.1134892,0.273304-0.363554,0.4255676-0.48633c0.1857948-0.1497879,0.4602814-0.1175213,0.6687202-0.2431812
			l0.4863281-0.48633c1.6582489-1.1751385,3.9284134-1.6199131,3.7083168-4.4985905
			c-0.0122833-0.1604824-0.6133957-0.979578-0.7295113-1.2158413c0.3031273-0.0762272,0.814621,0.0371895,1.2158432-0.0607948
			C41.4165993,23.4077854,41.7271271,22.6103363,41.4893875,22.2823067z M7.3850007,22.4038963
			c0.1049399,0.0392227,0.0595012,0.0119152,0.1215916,0.0607948C7.4016519,22.4254704,7.4470916,22.4527779,7.3850007,22.4038963z
			 M8.0537176,22.2823067H7.8713298v-0.1215935h0.1823878V22.2823067z M8.236105,22.0999184
			c0.1049023,0.0392227,0.0594997,0.0119152,0.1215544,0.0607948C8.2527552,22.1214905,8.2981586,22.1488342,8.236105,22.0999184z
			 M10.2422161,18.7563725c-0.1215544-0.020277-0.2431831-0.040554-0.3647375-0.0607948
			c-0.0429974-0.2163181-0.0431824-0.3308048,0-0.5471249h0.2431831c0.0535431,0.0884361,0.1097145,0.1736908,0.1823502,0.243145
			C10.2963524,18.5647354,10.2786636,18.6515446,10.2422161,18.7563725z M10.7285824,21.3704433H10.546195
			c-0.0392237-0.1049404-0.0119152-0.0595379-0.0607958-0.1215935v-0.4255676
			c0.3558569,0.0498047,0.319335-0.1017609,0.6079197-0.1823521c0.2431469,0.0202427,0.4863672,0.0405178,0.7295122,0.0607967
			c0.006402,0.1539669,0.0074387,0.225235,0.0607967,0.3039417C11.7110462,21.2712383,11.0025148,21.2008972,10.7285824,21.3704433z
			 M11.9444237,20.9448719c0.0202398-0.0405178,0.0405178-0.0810356,0.0607948-0.1215897
			C12.0052185,20.8232822,12.050437,20.8598022,11.9444237,20.9448719z M13.9505358,19.0603161
			c0.1049395,0.0392227,0.0595369,0.0119133,0.1215906,0.0607948
			C13.9672232,19.0818882,14.0126266,19.1091957,13.9505358,19.0603161z M14.1329231,19.1211109
			c0.1049395,0.0392246,0.0594997,0.0119152,0.1215906,0.0607967C14.1495733,19.142683,14.195014,19.1699924,14.1329231,19.1211109z
			 M14.5584564,19.7290325c-0.0607595-0.0607967-0.1215925-0.1215916-0.1823502-0.1823883
			C14.4314995,19.5891991,14.668725,19.5897903,14.5584564,19.7290325z M14.6192513,19.5466442h0.1823874
			C14.6969576,19.6007061,14.7238216,19.6002254,14.6192513,19.5466442z M14.8624344,19.7898254l-0.0607958,0.0607967v-0.0607967
			h-0.0607948v-0.0607929C14.7813616,19.7493095,14.8219175,19.7695866,14.8624344,19.7898254v-0.1823845
			C14.9164591,19.712122,14.9159784,19.6852932,14.8624344,19.7898254z M14.8624344,17.4797363
			c-0.2000008,0.1226654-0.1090097,0.3387985-0.0607958,0.5471249l-0.0607948,0.0607967
			c-0.1248856-0.0242386-0.1171522-0.0150986-0.1823874-0.0607967c-0.0450325-0.0799999,0.104126-0.8119907,0.1823874-1.033453
			c0.2940617,0.0408878,0.4499178,0.1407948,0.6687155,0.243145C15.2299099,17.3711319,14.931963,17.4161663,14.8624344,17.4797363z
			 M15.7135382,17.297348h0.1823511C15.7912073,17.3513737,15.8180714,17.3509293,15.7135382,17.297348z M16.6861954,19.6074409
			c-0.020277-0.0202427-0.0405159-0.0405178-0.0607948-0.0607967c0.0257549-0.280407,0.0446262-0.2336349,0-0.4255333
			c0.1142273-0.0515079,0.321703-0.1073818,0.4255333-0.1823864c0.5533409,0.0187588,0.9718437,0.1508236,1.4590244,0.2431831
			C18.1071453,19.5109367,17.2588539,19.6587639,16.6861954,19.6074409z M25.8050041,22.2823067h0.1215935v0.1215897
			c-0.1719551-0.0473652-0.2115116-0.0636063-0.3039818-0.1823864
			C25.7491665,22.2603626,25.7317753,22.2311306,25.8050041,22.2823067z M24.8323479,21.1880569
			c0.1013145,0.0202389,0.2026272,0.0405178,0.3039417,0.0607929c-0.0780392,0.0534687-0.1500111,0.056282-0.3039417,0.0607967
			V21.1880569z M21.4279709,29.3342075h-0.1215935v-0.243185c0.1409817,0.0138016,0.1714706,0.0119896,0.2431831,0.0607967
			h0.1215916C21.591116,29.2907658,21.5404224,29.2463608,21.4279709,29.3342075z M22.5222569,27.1456699
			c-0.3417606,0.082407-0.511158-0.1884193-0.7295132-0.2431469c-0.3945618-0.0989075-0.5507507,0.1417217-0.8511028,0.1823521
			c-0.020277,0.0202751-0.0405178,0.040554-0.0607967,0.0607948c0.0219803,0.2530251,0.0289364,0.2582436,0.1823883,0.3647747
			c-0.0272331,0.1809444-0.0307121,0.2052174-0.1215916,0.3039417v0.1215897
			c-0.6142483-0.7647743-0.838892-1.6079597-1.7021694-2.127739c0.0893993-0.226717,0.1960392-0.1946716,0.243145-0.48633
			c0.2417774,0.0076237,0.4760036,0.130621,0.6687164,0c0.020277-0.0810356,0.040554-0.1621075,0.0607948-0.243145h0.4255714
			c0.0607586-0.0607967,0.1215916-0.1215935,0.1823483-0.1823864c0.2229061-0.0799637,0.3380966-0.0447369,0.48633-0.1215916
			v-0.1823883c0.5239983-0.0041447,0.3649979-0.1479378,0.6079216-0.2431469
			c0.0987968-0.0387402,0.2431831,0.0607967,0.2431831,0.0607967c0.3015728,0.0062923,0.6028862-0.2354488,0.7295113-0.4255695
			c0.5064583,0.0657158,2.1786938,0.4952469,2.4924774,0.7295113c0.3265152,0.1180019,0.4791145,0.7296982,0.6079197,1.033453
			C24.8324566,26.2134914,23.6771908,26.6796551,22.5222569,27.1456699z M28.8446083,21.3096466
			c0.1049385,0.0391865,0.0595379,0.011879,0.1215897,0.0607967C28.8612595,21.3312206,28.9066982,21.3585281,28.8446083,21.3096466
			z M29.0877914,21.3704433c0.1356506,0.0385571,0.1605549,0.0448856,0.243145,0.1215553
			C29.1952839,21.4534397,29.1703815,21.4471111,29.0877914,21.3704433z M31.276289,23.6805344
			c-0.0466976,0.041851-0.1354675,0.0801105-0.1823483,0.1215916c-0.1868286-0.1022396-0.1679573-0.194561-0.1215916-0.3647747
			c0.1215534,0.0405178,0.2431812,0.0810719,0.3647366,0.1215897C31.2978611,23.6638832,31.3252068,23.6184425,31.276289,23.6805344
			z M34.0119514,22.6470432c-0.6317139,0.1181507-0.8962479-0.1096764-1.3982277-0.2431469
			c-0.4305649-0.1144867-0.7735081,0.1339512-1.0942516,0.1215916c0.1453114-0.2599812,0.5470142-0.2624245,0.790308-0.4255695
			c0.5470505,0.1013126,1.0942879,0.2026634,1.6413765,0.303978c0.0202789,0.0202408,0.0405159,0.0405197,0.0607948,0.0607948
			V22.6470432z"/>
	</g>
</g>
<g>
	<g>
		<path fill="#FFFFFF" d="M40.8831291,21.6760483c-0.2717857-0.3487129-0.9686966-0.2366333-1.3374329-0.4863262
			c-0.0487671-0.0587997-0.0896606-0.1666241-0.1215897-0.243185c0.1253281-0.0785942,0.1386147-0.1290283,0.303978-0.1823483
			c0-0.1013145,0-0.2026653,0-0.3039799c-0.0695267-0.1465321-1.5853119-0.4895115-1.823761-0.5471249
			c-0.2271996-0.0549126-0.2905464,0.0812206-0.4863663,0.1215916c0.0277138,0.2163925-0.0318985,0.1540432,0.1215897,0.243145
			c-0.020237,0.0607967-0.0405159,0.1215935-0.0607948,0.1823883c-0.0810356,0-0.1621094,0-0.243145,0
			c0.0586853-0.2815189,0.0456619-0.4419632-0.0607986-0.6687183c-0.2146873-0.0915794-1.4542847-0.5477505-1.7629623-0.4255314
			c-0.0810738,0.0810356-0.1621475,0.1621094-0.2431831,0.2431469c-0.5441666,0.241703-1.5939026,0.5465679-2.2492943,0.3647728
			c-1.8801193-0.5215549-3.8424187-0.6836643-5.6536751-1.1550446c-0.2836647-0.020277-0.5674381-0.040554-0.8511047-0.0607967
			c-0.5914536-0.1880112-1.355154-0.1611462-2.0061474-0.3647747c-0.4319363-0.1350956-0.9779854-0.3009815-1.519783-0.3039398
			c-0.0082512-0.3467922-0.0979824-0.4146557-0.3647366-0.48633c-0.2107697-0.1340237-0.6500301-0.0529499-0.8511047-0.1823864
			c-0.2738571,0.0158367-0.2919159,0.0646076-0.48633,0.1215916c0.0556526,0.1311378,0.0526943,0.0883999,0.1215553,0.1823502
			c-0.0202389,0-0.0405178,0-0.0607586,0c-0.0576496,0.0660858-0.1535988,0.0072517-0.2431831-0.0607605
			c-0.0724888-0.0814419,0.0066986-0.1582222-0.0607948-0.2431812c-0.0079193-0.4812603-0.154747-0.3731747-0.3647385-0.6079216
			c-1.074749-0.018095-1.7119732,0.183424-2.614069,0.4255333c-0.2008133,0.0539131-1.2998753-0.2474384-1.5198193-0.3039417
			c-0.2025909-0.020277-0.4052944-0.040554-0.6079206-0.0607948c-0.3164129-0.1519718-1.316083-0.6874046-1.5805798-0.9118996
			c-0.1773176-0.1504917-0.1314344-0.4701595-0.5471249-0.6079206c-0.0839214-0.0333023-0.2516193,0.0161705-0.4863281,0
			c-0.0522118,0.5934887-0.1401672,1.901763-0.5471621,2.3708868c-0.234376,0.1595554-1.3152304,0.3104897-1.7021704,0.303978
			c-0.2026272-0.1621094-0.4052925-0.3242569-0.6079206-0.4863281c-0.1275854-0.2080688-0.127142-0.517561-0.3039417-0.6687164
			c-0.3614807-0.3090115-0.851325-0.4269409-1.1550446-0.790308c-0.2567263,0.00037-0.4627953,0.0141716-0.6079216,0.1215916
			c-0.2989092,0.1306934-0.0709343,0.3111572-0.2431822,0.547123c-0.068974,0.0944691-0.2882161,0.1484947-0.364738,0.243185
			c-0.2076602,0.2569103-0.8989854,1.1804657-0.6079206,1.6413727c-0.0095468,0.654213,0.3821287,1.1839104,0.8510666,1.3374329
			c0.0323033,0.3766174,0.1233678,0.6006317,0.121592,1.0334549c-0.4803724,0.0066605-1.2239823,0.0218315-1.5198207,0.2431812
			c-0.0607581,0.0202427-0.1215911,0.0405197-0.1823502,0.0607967c0.0408883,0.265274,0.1329513,0.4101048,0.3647375,0.48633
			c-0.2987614,0.1637745-0.4956532-0.2179852-0.8511033-0.1215935c-0.1321373,0.0358582-0.1544132,0.1466446-0.364738,0.1823883
			c0.113636,0.8019276,0.1800566,1.9973793,0.4863291,2.9788074c0.199779,0.6401501,0.4804091,1.4168053,0.4863296,2.1884995
			c0.2026281,0.1997032,0.325995,0.4881783,0.6079574,0.6079197c0.21421,0.090992,0.3779845-0.0822945,0.5471249,0
			c0.1758375,0.0855904,0.74546,1.0409298,1.0334535,1.2158413c0.1352835,0.0821838,0.4226103,0.2202053,0.5471249,0.2431831
			c0.2461815,0.0454407,0.1933775-0.1256618,0.3647385-0.0607967c0.4323788-0.0104713,0.4276047-0.1385746,0.6687155-0.3039417
			c-0.0097313-0.3147469-0.0535059-0.3660679-0.2431459-0.4863644c0-0.0202408,0-0.0405197,0-0.0607586
			c0.6482534,0.0175762,1.1130476,0.3483067,1.6413755,0c0.141017-0.0451813,0.1357994-0.0631657,0.2431822-0.1215916
			c0.0541725-0.2701969,0.0609064-0.3769855-0.1215916-0.5471249c0-0.020277,0-0.040556,0-0.0607948
			c0.2987242,0.0300465,0.566884,0.0777779,0.7295122,0.243145c0.3377628,0.0110626,0.4751902,0.008213,0.6079206-0.1823502
			c0.0557995-0.1164856,0.0243101-0.0446625,0-0.1823883c0.4158382-0.1694736,0.493803-0.3734684,1.0942497-0.3647366
			c0.1251802,2.3705521,0.9071627,4.0209198,2.5532732,5.0457153c0.8172092,0.5087891,2.3840618,0.5054588,2.9788055-0.2431469
			c0.3019085,0.1840878,0.4502525,1.3967838,0.6687183,1.7629642c0.7362823,1.2341576,1.3778763,2.1729965,2.6140709,2.9180107
			c0.2969093,0.1789856,0.9580402,0.5621872,1.5805759,0.3647766c0.7227783-0.2292328,0.6806316-0.7529373,1.0942497-1.2158394
			c0.2962456-0.1837578,0.9665909-0.0528069,1.3374348-0.303978c0.2372246-0.1606331,0.5490856-0.8249092,0.7295113-0.9118652
			c0.1823502,0,0.3647747,0,0.547123,0c0.1466446-0.041256,0.4646473-0.1500092,0.6079235-0.2431831
			c0.2444038-0.1589622,0.4803333-0.6864052,0.6687145-0.7903061c0.243145-0.0405197,0.4863663-0.0810394,0.7295132-0.1215935
			c0.1649227-0.0754852,0.5548935-0.3386879,0.6687164-0.4863281c0.0781136-0.1013145,0.0892887-0.2843666,0.1823845-0.3647385
			c0.2085133-0.1801643,0.8354149-0.2421455,1.0942535-0.4255676c0.1709518-0.1211491,0.2180939-0.3460159,0.3647346-0.48633
			c0.3241806-0.1215553,0.6484756-0.2431831,0.9726944-0.3647385c0.2318268-0.1504173,0.3822784-0.5345802,0.6079216-0.6687145
			c0.2401123-0.1427956,0.5092354-0.0990944,0.7294731-0.243185c0.1735077-0.1134872,0.2733078-0.363554,0.4255714-0.4863281
			c0.1857948-0.1497879,0.4602814-0.1175213,0.6687164-0.243185c0.162075-0.1620712,0.3242188-0.3242168,0.4863319-0.4863262
			c1.6582489-1.1751385,3.9284096-1.6199131,3.7083168-4.4985905c-0.0122833-0.1604824-0.6133957-0.979578-0.7295151-1.2158413
			c0.3031311-0.0762272,0.814621,0.0371857,1.215847-0.0607967C40.8103447,22.8015289,41.1208763,22.0040798,40.8831291,21.6760483z
			 M6.7787457,21.7976418c0.1049399,0.0392227,0.0595002,0.0119152,0.1215911,0.0607948
			C6.7953968,21.8192139,6.8408365,21.8465214,6.7787457,21.7976418z M7.4474616,21.6760483c-0.0607958,0-0.1215911,0-0.1823874,0
			c0-0.0405178,0-0.0810719,0-0.1215897c0.0607963,0,0.1215916,0,0.1823874,0
			C7.4474616,21.5949764,7.4474616,21.6355305,7.4474616,21.6760483z M7.629849,21.4936638
			c0.1049032,0.0392208,0.0595007,0.0119133,0.1215544,0.0607948C7.6465006,21.515234,7.6919031,21.5425797,7.629849,21.4936638z
			 M9.6359615,18.1501179c-0.1215544-0.020277-0.2431831-0.040556-0.3647375-0.0607948
			c-0.0429974-0.21632-0.0431833-0.3308067,0-0.5471249c0.0810356,0,0.1621094,0,0.2431831,0
			c0.0535431,0.0884361,0.1097136,0.1736908,0.1823502,0.243145C9.6900969,17.9584808,9.6724091,18.0452881,9.6359615,18.1501179z
			 M10.1223269,20.7641888c-0.0607958,0-0.1215916,0-0.1823864,0c-0.0392237-0.1049423-0.0119162-0.0595379-0.0607967-0.1215935
			c0-0.1418304,0-0.2837372,0-0.4255695c0.3558569,0.0498066,0.319335-0.101759,0.6079206-0.1823502
			c0.2431469,0.0202389,0.4863663,0.0405178,0.7295122,0.0607967c0.006402,0.1539669,0.0074377,0.225235,0.0607948,0.3039417
			C11.1047907,20.6649837,10.3962593,20.5946388,10.1223269,20.7641888z M11.3381681,20.3386173
			c0.0202398-0.0405178,0.0405188-0.0810375,0.0607958-0.1215916
			C11.3989639,20.2170258,11.4441805,20.2535477,11.3381681,20.3386173z M13.3442793,18.4540596
			c0.1049404,0.0392227,0.0595388,0.0119152,0.1215925,0.0607967
			C13.3609676,18.4756336,13.4063702,18.5029411,13.3442793,18.4540596z M13.5266666,18.5148563
			c0.1049404,0.0392227,0.0595016,0.0119133,0.1215925,0.0607948C13.5433187,18.5364285,13.5887575,18.563736,13.5266666,18.5148563
			z M13.9522009,19.122776c-0.0607595-0.0607948-0.1215916-0.1215916-0.1823502-0.1823864
			C13.8252439,18.9829426,14.0624695,18.9835339,13.9522009,19.122776z M14.0129967,18.9403896c0.0607948,0,0.1215916,0,0.1823874,0
			C14.090703,18.9944496,14.1175661,18.993969,14.0129967,18.9403896z M14.2561789,19.1835728
			c-0.020277,0.020277-0.0405178,0.0405178-0.0607948,0.0607967c0-0.0202789,0-0.0405197,0-0.0607967
			c-0.020277,0-0.0405188,0-0.0607958,0c0-0.0202408,0-0.0405197,0-0.0607967
			C14.175107,19.1430531,14.215661,19.163332,14.2561789,19.1835728c0-0.0607967,0-0.1215916,0-0.1823883
			C14.3102036,19.1058655,14.3097229,19.0790386,14.2561789,19.1835728z M14.2561789,16.8734818
			c-0.1999998,0.1226635-0.1090097,0.3387985-0.0607948,0.5471249c-0.020277,0.020277-0.0405188,0.0405178-0.0607958,0.0607948
			c-0.1248846-0.0242367-0.1171513-0.0150967-0.1823874-0.0607948c-0.0450325-0.0800018,0.104126-0.8119926,0.1823874-1.0334549
			c0.2940617,0.0408878,0.4499178,0.1407967,0.6687155,0.2431469
			C14.6236553,16.7648773,14.3257084,16.8099098,14.2561789,16.8734818z M15.1072836,16.6910934
			c0.0607586,0,0.1215534,0,0.1823502,0C15.1849527,16.7451191,15.2118158,16.7446728,15.1072836,16.6910934z
			 M16.0799408,19.0011845c-0.020277-0.0202408-0.0405178-0.0405178-0.0607948-0.0607948
			c0.025753-0.2804089,0.0446262-0.2336369,0-0.4255333c0.1142273-0.0515079,0.321701-0.1073837,0.4255333-0.1823883
			c0.5533409,0.0187607,0.9718437,0.1508236,1.4590244,0.2431831
			C17.5008888,18.9046822,16.6525974,19.0525074,16.0799408,19.0011845z M25.1987495,21.6760483
			c0.0405178,0,0.0810738,0,0.1215916,0c0,0.0405197,0,0.0810757,0,0.1215935
			c-0.1719532-0.0473652-0.2115097-0.0636082-0.3039799-0.1823864
			C25.1429119,21.654108,25.1255207,21.6248741,25.1987495,21.6760483z M24.2260914,20.5818005
			c0.1013126,0.0202408,0.2026272,0.0405197,0.3039417,0.0607948c-0.0780373,0.0534687-0.1500092,0.056282-0.3039417,0.0607967
			C24.2260914,20.662838,24.2260914,20.6223202,24.2260914,20.5818005z M20.8217125,28.7279491
			c-0.0405178,0-0.0810356,0-0.1215897,0c0-0.0810719,0-0.1621456,0-0.2431812
			c0.1409817,0.0138016,0.1714706,0.0119877,0.2431831,0.0607967c0.0405178,0,0.0810738,0,0.1215916,0
			C20.9848595,28.6845093,20.9341679,28.6401062,20.8217125,28.7279491z M21.9160004,26.5394135
			c-0.3417587,0.0824051-0.511158-0.1884174-0.7295132-0.243145c-0.3945599-0.0989094-0.5507507,0.1417198-0.8511009,0.1823483
			c-0.0202789,0.0202789-0.0405178,0.0405579-0.0607967,0.0607967c0.0219784,0.253027,0.0289364,0.2582436,0.1823864,0.3647747
			c-0.027235,0.1809444-0.0307102,0.2052193-0.1215897,0.3039417c0,0.0405197,0,0.0810738,0,0.1215916
			c-0.6142483-0.7647762-0.8388939-1.6079617-1.7021713-2.127739c0.0893993-0.226717,0.1960411-0.1946735,0.2431469-0.48633
			c0.2417774,0.0076218,0.4760056,0.130621,0.6687164,0c0.0202751-0.0810356,0.040554-0.1621094,0.0607948-0.243145
			c0.1418324,0,0.2837009,0,0.4255714,0c0.0607567-0.0607967,0.1215897-0.1215935,0.1823483-0.1823883
			c0.2229061-0.0799637,0.3380966-0.044735,0.48633-0.1215897c0-0.0607967,0-0.1215935,0-0.1823883
			c0.5239983-0.0041447,0.364996-0.1479378,0.6079197-0.2431469c0.0987988-0.0387421,0.2431831,0.0607967,0.2431831,0.0607967
			c0.3015747,0.0062885,0.6028881-0.2354507,0.7295113-0.4255714c0.5064602,0.0657177,2.1786938,0.4952469,2.4924793,0.7295132
			c0.3265133,0.1180019,0.4791126,0.7296944,0.6079197,1.033453C24.226202,25.6072369,23.0709362,26.0734005,21.9160004,26.5394135z
			 M28.2383518,20.703392c0.1049404,0.0391865,0.0595379,0.011879,0.1215916,0.0607967
			C28.255003,20.7249641,28.3004436,20.7522717,28.2383518,20.703392z M28.4815369,20.7641888
			c0.1356506,0.0385571,0.160553,0.0448837,0.243145,0.1215515C28.5890293,20.8471851,28.5641251,20.8408566,28.4815369,20.7641888z
			 M30.6700344,23.0742798c-0.0466976,0.0418472-0.1354675,0.0801105-0.1823502,0.1215897
			c-0.1868267-0.1022377-0.1679554-0.1945591-0.1215897-0.3647747c0.1215515,0.0405178,0.2431812,0.0810738,0.3647366,0.1215916
			C30.6916065,23.0576267,30.7189522,23.012188,30.6700344,23.0742798z M33.4056931,22.0407867
			c-0.6317101,0.1181507-0.896244-0.1096764-1.3982277-0.243145c-0.4305649-0.1144867-0.7735081,0.1339493-1.0942478,0.1215916
			c0.1453094-0.2599812,0.5470142-0.2624245,0.790308-0.4255695c0.5470505,0.1013126,1.0942879,0.2026634,1.6413765,0.303978
			c0.0202751,0.0202408,0.0405159,0.0405178,0.060791,0.0607948C33.4056931,21.9192333,33.4056931,21.9800282,33.4056931,22.0407867
			z"/>
	</g>
</g>
</svg>
