<?xml version="1.0" encoding="utf-8"?>
<!-- Generator: Adobe Illustrator 17.1.0, SVG Export Plug-In . SVG Version: 6.00 Build 0)  -->
<!DOCTYPE svg PUBLIC "-//W3C//DTD SVG 1.1//EN" "http://www.w3.org/Graphics/SVG/1.1/DTD/svg11.dtd">
<svg version="1.1" id="Layer_1" xmlns="http://www.w3.org/2000/svg" xmlns:xlink="http://www.w3.org/1999/xlink" x="0px" y="0px"
	 viewBox="0 0 50 50" enable-background="new 0 0 50 50" xml:space="preserve">
<g id="base">
	<g>
		
			<linearGradient id="SVGID_1_" gradientUnits="userSpaceOnUse" x1="-2.0341744" y1="23.9423847" x2="-2.0341744" y2="15.062501" gradientTransform="matrix(2 0 -1.5237321 2 59.432991 0)">
			<stop  offset="0" style="stop-color:#000000;stop-opacity:0.4"/>
			<stop  offset="1" style="stop-color:#000000;stop-opacity:0"/>
		</linearGradient>
		<path fill="url(#SVGID_1_)" d="M9.1260471,40.6691475c-1.0210247-1.1439705-1.0357809-2.3327026-0.0447321-3.6335182
			c2.9522886-3.8750763,13.201005-6.9106274,23.3323517-6.9106274c10.1308594,0,15.7542152,3.0355511,12.8019257,6.9106274
			c-0.991188,1.3009987-2.8167648,2.4897308-5.5807533,3.6335182l-20.7517338,7.2156219L9.1260471,40.6691475z"/>
		
			<linearGradient id="SVGID_2_" gradientUnits="userSpaceOnUse" x1="9.5335703" y1="23.9423847" x2="9.5335703" y2="0.500001" gradientTransform="matrix(2 0 0 2 0 0)">
			<stop  offset="0" style="stop-color:#007BB8"/>
			<stop  offset="1" style="stop-color:#0094DE"/>
		</linearGradient>
		<path fill="url(#SVGID_2_)" d="M3.8129902,28.8359394c-1.8925781-3.0200195-2.8129883-6.1582031-2.8129883-9.5922852
			c0-10.2299805,7.9360352-18.2436523,18.0673828-18.2436523c10.1308594,0,18.0668926,8.0136719,18.0668926,18.2436523
			c0,3.4345703-0.9199219,6.5727539-2.8125,9.5922852l-15.2543926,19.04883L3.8129902,28.8359394z"/>
		<path fill="#FFFFFF" d="M19.0671539,2.0000038c9.5703907,0,17.0671997,7.5743885,17.0671997,17.2438335
			c0,3.2226715-0.8603745,6.1717339-2.6295547,9.0115891l-14.437645,18.029047L4.629611,28.2554722
			c-1.7692089-2.8399734-2.629612-5.7890739-2.629612-9.0116348C1.9999992,9.5743923,9.496788,2.0000038,19.0671539,2.0000038
			 M19.0671539,0.0000038C8.4440994,0.0000038,0,8.5222607,0,19.2438374c0,3.8487663,1.089622,7.1476898,2.9963446,10.1716995
			l16.0708084,20.0685596l16.0708923-20.0685596c1.9067612-3.0240097,2.9963074-6.3229332,2.9963074-10.1716995
			C38.1343536,8.5222607,29.6902981,0.0000038,19.0671539,0.0000038L19.0671539,0.0000038z"/>
	</g>
</g>
<g opacity="0.6">
	<g>
		<path d="M34.2177429,18.3769855c-0.2241516-0.2875977-0.7989197-0.1951599-1.1030273-0.4010925
			c-0.0402222-0.0484924-0.0739441-0.1374207-0.1002808-0.2005615c0.103363-0.0648193,0.1143188-0.1064148,0.2507019-0.1503906
			V17.374239c-0.0573425-0.1208496-1.3074627-0.403717-1.504118-0.4512329
			c-0.1873779-0.0452881-0.239624,0.0669861-0.401123,0.1002808c0.0228577,0.1784668-0.0263062,0.1270447,0.1002808,0.200531
			c-0.0166931,0.0501404-0.0334167,0.1002808-0.0501404,0.1504211h-0.200531
			c0.0484009-0.2321777,0.0376587-0.364502-0.0501404-0.5515137c-0.1770649-0.075531-1.1994038-0.4517517-1.4539814-0.3509521
			c-0.066864,0.0668335-0.133728,0.1336975-0.2005615,0.200531c-0.4487915,0.1993408-1.3145447,0.4507751-1.855072,0.3008423
			c-1.5505981-0.4301453-3.1689758-0.5638428-4.6627808-0.9526062c-0.2339478-0.0167236-0.4679871-0.0334463-0.7019348-0.0501394
			c-0.487793-0.1550598-1.1176453-0.1329041-1.654541-0.3008432c-0.3562317-0.1114197-0.8065796-0.24823-1.253418-0.2506714
			c-0.0068054-0.2860107-0.0808105-0.34198-0.3008118-0.4010925c-0.1738281-0.1105347-0.5361023-0.0436707-0.7019348-0.1504211
			c-0.2258606,0.0130615-0.2407532,0.0532837-0.4010925,0.1002808c0.0458984,0.1081543,0.043457,0.0729065,0.1002502,0.1503906
			h-0.0501099c-0.0475464,0.0545044-0.1266785,0.0059814-0.2005615-0.0501099
			c-0.0597839-0.0671692,0.0055237-0.1304932-0.0501404-0.2005615c-0.0065308-0.3969116-0.1276245-0.3077698-0.3008118-0.5013733
			c-0.8863831-0.0149231-1.4119263,0.1512756-2.1559143,0.3509521c-0.1656189,0.0444641-1.072052-0.204071-1.2534485-0.2506714
			c-0.1670837-0.0167236-0.334259-0.0334473-0.5013733-0.0501404c-0.2609558-0.1253357-1.0854187-0.566925-1.3035583-0.7520752
			c-0.1462402-0.124115-0.1083984-0.3877563-0.4512329-0.5013733c-0.0692139-0.0274658-0.2075195,0.0133362-0.4010925,0
			c-0.0430603,0.4894714-0.1156006,1.5684509-0.4512634,1.9553528c-0.1932983,0.1315918-1.0847168,0.256073-1.4038391,0.2507019
			c-0.1671143-0.1336975-0.334259-0.2674255-0.5013733-0.4010925c-0.1052246-0.1716003-0.1048584-0.4268494-0.2506714-0.5515137
			c-0.2981262-0.2548523-0.7021179-0.3521118-0.9526057-0.6517944c-0.2117314,0.0003052-0.3816838,0.0116882-0.5013738,0.1002808
			c-0.246521,0.1077881-0.0585022,0.2566223-0.2005615,0.4512329c-0.0568848,0.0779114-0.2377014,0.122467-0.3008118,0.2005615
			c-0.1712646,0.2118835-0.7414246,0.9735718-0.5013733,1.3536997c-0.0078735,0.5395498,0.315155,0.976409,0.7019043,1.1030264
			c0.0266418,0.3106079,0.1017456,0.4953613,0.1002808,0.8523254c-0.3961792,0.0054932-1.0094604,0.0180054-1.2534485,0.2005615
			c-0.0501099,0.0166931-0.1002808,0.0334167-0.1503906,0.0501404c0.0337219,0.2187805,0.1096497,0.3382263,0.3008118,0.4010925
			c-0.2463989,0.1350708-0.408783-0.1797791-0.7019348-0.1002808c-0.1089783,0.0295715-0.1273499,0.1209412-0.3008118,0.1504211
			c0.0937195,0.661377,0.1484985,1.6473083,0.4010925,2.4567261c0.1647644,0.5279541,0.3962097,1.1684875,0.4010925,1.8049316
			c0.1671143,0.1647034,0.2688599,0.4026184,0.5014038,0.5013733c0.1766663,0.0750427,0.3117371-0.0678711,0.4512329,0
			c0.1450195,0.0705872,0.6148071,0.85849,0.8523254,1.0027466c0.1115723,0.0677795,0.3485417,0.1816101,0.4512329,0.2005615
			c0.2030334,0.0374756,0.1594849-0.1036377,0.3008118-0.0501404c0.3565979-0.0086365,0.3526611-0.1142883,0.5515137-0.2506714
			c-0.0080261-0.2595825-0.0441284-0.3019104-0.200531-0.401123v-0.0501099c0.5346375,0.0144958,0.9179688,0.287262,1.3536987,0
			c0.1163025-0.037262,0.1119995-0.0520935,0.2005615-0.1002808c0.0446777-0.2228394,0.0502319-0.3109131-0.1002808-0.4512329
			v-0.0501404c0.2463684,0.0247803,0.4675293,0.0641479,0.6016541,0.200531
			c0.2785645,0.0091248,0.3919067,0.0067749,0.5013733-0.1503906c0.0460205-0.0960693,0.02005-0.0368347,0-0.1504211
			c0.3429565-0.1397705,0.4072571-0.3080139,0.9024658-0.3008118c0.103241,1.9550781,0.7481689,3.3161926,2.1057739,4.161377
			c0.6739807,0.4196167,1.966217,0.4168701,2.4567261-0.200531c0.2489929,0.151825,0.3713379,1.1519775,0.5515137,1.4539795
			c0.6072388,1.0178528,1.1363831,1.7921448,2.1559143,2.4065857c0.244873,0.1476135,0.7901306,0.4636536,1.3035583,0.3008423
			c0.5960999-0.1890564,0.5613403-0.6209717,0.9024658-1.0027466c0.2443237-0.1515503,0.7971802-0.0435486,1.1030273-0.2507019
			c0.1956482-0.1324768,0.4528503-0.6803284,0.6016541-0.7520447h0.4512329
			c0.1209412-0.0340271,0.3832092-0.1237183,0.5013733-0.2005615c0.2015686-0.1311035,0.3961487-0.5661011,0.5515137-0.6517944
			c0.200531-0.0334167,0.401123-0.0668335,0.6016541-0.1002808c0.1360168-0.0622559,0.4576416-0.2793274,0.5515137-0.4010925
			c0.0644226-0.0835571,0.0736389-0.2345276,0.1504211-0.3008118c0.1719666-0.1485901,0.6889954-0.199707,0.9024658-0.3509827
			c0.1409912-0.0999146,0.1798706-0.2853699,0.3008118-0.4010925c0.2673645-0.1002502,0.5348206-0.2005615,0.8022156-0.3008118
			c0.1911926-0.124054,0.3152771-0.4408875,0.5013733-0.5515137c0.1980286-0.1177673,0.4199829-0.0817261,0.6016235-0.2005615
			c0.1430969-0.0935974,0.2254028-0.2998352,0.3509827-0.4010925c0.1532288-0.1235352,0.3796082-0.0969238,0.5515137-0.2005615
			l0.4010925-0.4010925c1.3676167-0.9691772,3.2398987-1.3359985,3.0583801-3.710144
			c-0.0101318-0.1323547-0.5058899-0.8078918-0.6016541-1.0027466c0.25-0.0628662,0.6718445,0.0306702,1.0027466-0.0501404
			C34.1577148,19.3052082,34.4138184,18.6475239,34.2177429,18.3769855z M6.0906677,18.4772663
			c0.0865479,0.0323486,0.0490723,0.0098267,0.1002808,0.0501404C6.1044006,18.4950581,6.1418762,18.51758,6.0906677,18.4772663z
			 M6.6421814,18.3769855H6.4917603v-0.1002808h0.1504211V18.3769855z M6.7926025,18.2265644
			c0.0865173,0.0323486,0.0490723,0.0098267,0.1002502,0.0501404C6.8063354,18.2443562,6.8437805,18.2669086,6.7926025,18.2265644z
			 M8.447113,15.4690266c-0.1002502-0.0167236-0.2005615-0.0334473-0.3008118-0.0501404
			c-0.0354614-0.1784058-0.035614-0.2728271,0-0.4512329h0.2005615c0.0441589,0.072937,0.0904846,0.1432495,0.1503906,0.200531
			C8.4917603,15.310976,8.4771729,15.3825703,8.447113,15.4690266z M8.8482361,17.6249409H8.6978149
			c-0.0323486-0.0865479-0.0098267-0.0491028-0.0501404-0.1002808v-0.3509827
			c0.2934875,0.0410767,0.2633667-0.0839233,0.5013733-0.1503906c0.200531,0.0166931,0.401123,0.0334167,0.6016541,0.0501404
			c0.0052795,0.1269836,0.006134,0.1857605,0.0501404,0.2506714C9.6585083,17.5431232,9.0741577,17.4851093,8.8482361,17.6249409z
			 M9.8509827,17.2739582c0.0166931-0.0334167,0.0334167-0.0668335,0.0501404-0.1002808
			C9.901123,17.1736774,9.9384155,17.2037983,9.8509827,17.2739582z M11.5054932,15.719698
			c0.0865479,0.0323486,0.0491028,0.0098267,0.1002808,0.0501404C11.5192566,15.7374897,11.5567017,15.7600117,11.5054932,15.719698
			z M11.6559143,15.7698383c0.0865479,0.0323496,0.0490723,0.0098267,0.1002808,0.0501413
			C11.6696472,15.7876301,11.7071228,15.810153,11.6559143,15.7698383z M12.0068665,16.2712116
			c-0.0501099-0.0501404-0.1002808-0.1002808-0.1503906-0.1504211
			C11.9021606,16.1558857,12.0978088,16.156374,12.0068665,16.2712116z M12.0570068,16.1207905h0.1504211
			C12.1210938,16.1653767,12.1432495,16.1649799,12.0570068,16.1207905z M12.2575684,16.321352l-0.0501404,0.0501404V16.321352
			h-0.0501404v-0.0501404C12.1907043,16.2879353,12.2241516,16.3046589,12.2575684,16.321352v-0.1504211
			C12.302124,16.2572651,12.3017273,16.2351398,12.2575684,16.321352z M12.2575684,14.4161396
			c-0.1649475,0.1011658-0.0899048,0.2794189-0.0501404,0.4512329l-0.0501404,0.0501404
			c-0.1029968-0.019989-0.0966187-0.0124512-0.1504211-0.0501404c-0.0371399-0.065979,0.0858765-0.6696777,0.1504211-0.8523254
			c0.2425232,0.0337219,0.3710632,0.1161194,0.5515137,0.200531C12.5606384,14.3265705,12.3149109,14.3637104,12.2575684,14.4161396
			z M12.9595032,14.2657185h0.1503906C13.0235596,14.3102741,13.0457153,14.3099079,12.9595032,14.2657185z M13.7616882,16.1709309
			c-0.0167236-0.0166931-0.0334167-0.0334167-0.0501404-0.0501404c0.0212402-0.2312613,0.0368042-0.192687,0-0.3509521
			c0.0942078-0.0424805,0.2653198-0.088562,0.3509521-0.1504211c0.4563599,0.0154724,0.8015137,0.1243896,1.2033081,0.2005625
			C14.9335938,16.091341,14.2339783,16.2132587,13.7616882,16.1709309z M21.2822876,18.3769855h0.1002808v0.1002808
			c-0.1418152-0.0390625-0.1744385-0.0524597-0.2507019-0.1504211
			C21.2362366,18.3588886,21.2218933,18.3347797,21.2822876,18.3769855z M20.4801025,17.4745197
			c0.0835571,0.0166931,0.1671143,0.0334167,0.2506714,0.0501404c-0.0643616,0.0440979-0.1237183,0.0464172-0.2506714,0.0501404
			V17.4745197z M17.6723938,24.192934H17.572113v-0.2005615c0.116272,0.0113831,0.1414185,0.0098877,0.2005615,0.0501404h0.1002808
			C17.8069458,24.1571064,17.7651367,24.1204853,17.6723938,24.192934z M18.5748901,22.3879719
			c-0.2818604,0.0679626-0.4215698-0.1553955-0.6016541-0.200531c-0.3254089-0.0815735-0.4542236,0.1168823-0.7019348,0.1503906
			c-0.0167236,0.0167236-0.0334167,0.0334473-0.0501404,0.0501404c0.0181274,0.2086792,0.0238647,0.2129822,0.1504211,0.3008423
			c-0.0224609,0.149231-0.0253296,0.1692505-0.1002808,0.2506714v0.1002808
			c-0.5065918-0.6307373-0.691864-1.3261414-1.4038382-1.7548218c0.0737305-0.1869812,0.1616812-0.160553,0.2005301-0.4010925
			c0.1994019,0.0062866,0.3925781,0.1077271,0.5515137,0c0.0167236-0.0668335,0.0334473-0.1336975,0.0501404-0.200531h0.3509827
			c0.0501099-0.0501404,0.1002808-0.1002808,0.1503906-0.1504211c0.1838379-0.0659485,0.2788391-0.0368958,0.4010925-0.1002808
			V20.282198c0.4321594-0.003418,0.3010254-0.1220093,0.5013733-0.200531
			c0.0814819-0.0319519,0.2005615,0.0501404,0.2005615,0.0501404c0.2487183,0.005188,0.4972229-0.1941833,0.6016541-0.3509827
			c0.4176941,0.0541992,1.7968445,0.4084473,2.0556335,0.6016541c0.2692871,0.0973206,0.3951416,0.6018066,0.5013733,0.8523254
			C20.4801941,21.619173,19.5274048,22.0036335,18.5748901,22.3879719z M23.7891541,17.5748005
			c0.0865479,0.0323181,0.0491028,0.0097961,0.1002808,0.0501404C23.802887,17.5925922,23.8403625,17.6151142,23.7891541,17.5748005
			z M23.9897156,17.6249409c0.1118774,0.0317993,0.1324158,0.0370178,0.200531,0.1002502
			C24.0783691,17.6933918,24.0578308,17.6881733,23.9897156,17.6249409z M25.7946472,19.5301533
			c-0.0385132,0.0345154-0.1117249,0.0660706-0.1503906,0.1002808c-0.1540833-0.0843201-0.1385193-0.1604614-0.1002808-0.3008423
			c0.1002502,0.0334167,0.2005615,0.066864,0.3008118,0.1002808C25.812439,19.5164204,25.8349915,19.4789448,25.7946472,19.5301533z
			 M28.0508423,18.6777973c-0.5209961,0.0974426-0.7391663-0.0904541-1.1531677-0.200531
			c-0.3551025-0.0944214-0.6379395,0.1104736-0.9024658,0.1002808c0.1198425-0.2144165,0.4511414-0.2164307,0.6517944-0.3509827
			c0.4511719,0.0835571,0.9024963,0.1671448,1.3536987,0.2507019c0.0167236,0.0166931,0.0334167,0.0334167,0.0501404,0.0501404
			V18.6777973z"/>
	</g>
</g>
<g>
	<g>
		<path fill="#FFFFFF" d="M33.7177429,17.8769855c-0.2241516-0.2875977-0.7989197-0.1951599-1.1030273-0.4010925
			c-0.0402222-0.0484924-0.0739441-0.1374207-0.1002808-0.2005615c0.103363-0.0648193,0.1143188-0.1064148,0.2507019-0.1503906
			c0-0.0835571,0-0.1671448,0-0.2507019c-0.0573425-0.1208496-1.3074627-0.403717-1.504118-0.4512329
			c-0.1873798-0.0452881-0.2396259,0.0669861-0.401125,0.1002808c0.0228577,0.1784668-0.0263062,0.1270447,0.1002808,0.200531
			c-0.0166931,0.0501404-0.0334167,0.1002808-0.0501404,0.1504211c-0.0668335,0-0.1336975,0-0.200531,0
			c0.0484009-0.2321777,0.0376587-0.364502-0.0501404-0.5515137c-0.177063-0.075531-1.1994019-0.4517508-1.4539795-0.3509512
			c-0.066864,0.0668325-0.133728,0.1336966-0.2005615,0.2005301c-0.4487915,0.1993408-1.3145447,0.4507751-1.855072,0.3008423
			c-1.5505981-0.4301453-3.1689758-0.5638418-4.6627808-0.9526062c-0.2339478-0.0167236-0.4679871-0.0334473-0.7019348-0.0501404
			c-0.487793-0.1550598-1.1176453-0.1329041-1.654541-0.3008423c-0.3562317-0.1114197-0.8065796-0.24823-1.253418-0.2506714
			c-0.0068054-0.2860107-0.0808105-0.34198-0.3008118-0.4010925c-0.1738281-0.1105347-0.5361023-0.0436707-0.7019348-0.1504211
			c-0.2258606,0.0130615-0.2407532,0.0532837-0.4010925,0.1002808c0.0458984,0.1081543,0.043457,0.0729065,0.1002502,0.1503906
			c-0.0166931,0-0.0334167,0-0.0501099,0c-0.0475464,0.0545044-0.1266785,0.0059814-0.2005615-0.0501099
			c-0.0597839-0.0671692,0.0055237-0.1304932-0.0501404-0.2005615c-0.0065308-0.3969116-0.1276245-0.3077698-0.3008118-0.5013733
			c-0.8863831-0.0149231-1.4119253,0.1512756-2.1559143,0.3509521c-0.1656189,0.0444641-1.072052-0.204071-1.2534485-0.2506714
			c-0.1670837-0.0167236-0.334259-0.0334473-0.5013733-0.0501404c-0.2609558-0.1253357-1.0854187-0.566925-1.3035583-0.7520752
			c-0.1462402-0.124115-0.1083984-0.3877563-0.4512329-0.5013733c-0.0692139-0.0274658-0.2075195,0.0133362-0.4010925,0
			c-0.0430603,0.4894714-0.1156006,1.5684509-0.4512634,1.9553528c-0.1932983,0.1315918-1.0847168,0.256073-1.4038391,0.2507019
			c-0.1671143-0.1336975-0.334259-0.2674255-0.5013733-0.4010925c-0.1052246-0.1716003-0.1048584-0.4268494-0.2506714-0.5515137
			c-0.2981257-0.2548523-0.7021179-0.3521118-0.9526062-0.6517944c-0.211731,0.0003052-0.3816833,0.0116882-0.5013733,0.1002808
			c-0.246521,0.1077881-0.0585022,0.2566223-0.2005615,0.4512329c-0.0568848,0.0779114-0.2377014,0.122467-0.3008118,0.2005615
			c-0.1712646,0.2118835-0.7414246,0.9735718-0.5013733,1.3536987c-0.0078735,0.5395517,0.315155,0.9764099,0.7019043,1.1030273
			c0.0266418,0.3106079,0.1017456,0.4953613,0.1002808,0.8523254c-0.3961792,0.0054932-1.0094604,0.0180054-1.2534485,0.2005615
			c-0.0501099,0.0166931-0.1002808,0.0334167-0.1503906,0.0501404c0.0337219,0.2187805,0.1096497,0.3382263,0.3008118,0.4010925
			c-0.2463989,0.1350708-0.408783-0.1797791-0.7019348-0.1002808c-0.1089783,0.0295715-0.1273499,0.1209412-0.3008118,0.1504211
			c0.0937195,0.661377,0.1484985,1.6473083,0.4010925,2.4567261c0.1647644,0.5279541,0.3962097,1.1684875,0.4010925,1.8049316
			c0.1671143,0.1647034,0.2688599,0.4026184,0.5014038,0.5013733c0.1766663,0.0750427,0.3117371-0.0678711,0.4512329,0
			c0.1450195,0.0705872,0.6148071,0.85849,0.8523254,1.0027466c0.1115723,0.0677795,0.3485413,0.1816101,0.4512329,0.2005615
			c0.2030339,0.0374756,0.1594849-0.1036377,0.3008122-0.0501404c0.3565974-0.0086365,0.3526607-0.1142883,0.5515132-0.2506714
			c-0.0080261-0.2595825-0.0441284-0.3019104-0.200531-0.401123c0-0.0166931,0-0.0334167,0-0.0501099
			c0.5346375,0.0144958,0.9179688,0.287262,1.3536987,0c0.1163025-0.037262,0.1119995-0.0520935,0.2005615-0.1002808
			c0.0446777-0.2228394,0.0502319-0.3109131-0.1002808-0.4512329c0-0.0167236,0-0.0334473,0-0.0501404
			c0.2463684,0.0247803,0.4675293,0.0641479,0.6016541,0.200531c0.2785645,0.0091248,0.3919067,0.0067749,0.5013733-0.1503906
			c0.0460205-0.0960693,0.02005-0.0368347,0-0.1504211c0.3429565-0.1397705,0.4072571-0.3080139,0.9024658-0.3008118
			c0.103241,1.9550781,0.7481689,3.3161926,2.1057739,4.161377c0.6739807,0.4196167,1.966218,0.4168701,2.4567261-0.200531
			c0.2489929,0.151825,0.3713379,1.1519775,0.5515137,1.4539795c0.6072388,1.0178528,1.1363831,1.7921448,2.1559143,2.4065857
			c0.244873,0.1476135,0.7901306,0.4636536,1.3035583,0.3008423c0.5960999-0.1890564,0.5613403-0.6209717,0.9024658-1.0027466
			c0.2443237-0.1515503,0.7971802-0.0435486,1.1030273-0.2507019c0.1956482-0.1324768,0.4528503-0.6803284,0.6016541-0.7520447
			c0.1503906,0,0.3008423,0,0.4512329,0c0.1209412-0.0340271,0.3832092-0.1237183,0.5013733-0.2005615
			c0.2015686-0.1311035,0.3961487-0.5661011,0.5515137-0.6517944c0.200531-0.0334167,0.401123-0.0668335,0.6016541-0.1002808
			c0.1360168-0.0622559,0.4576416-0.2793274,0.5515137-0.4010925c0.0644226-0.0835571,0.0736389-0.2345276,0.1504211-0.3008118
			c0.1719666-0.1485901,0.6889954-0.199707,0.9024658-0.3509827c0.1409912-0.0999146,0.1798706-0.2853699,0.3008118-0.4010925
			c0.2673645-0.1002502,0.5348206-0.2005615,0.8022156-0.3008118c0.1911926-0.124054,0.3152771-0.4408875,0.5013733-0.5515137
			c0.1980286-0.1177673,0.4199829-0.0817261,0.6016235-0.2005615c0.1430969-0.0935974,0.2254028-0.2998352,0.3509827-0.4010925
			c0.1532288-0.1235352,0.3796082-0.0969238,0.5515137-0.2005615c0.133667-0.133667,0.267395-0.267395,0.4010925-0.4010925
			c1.3676167-0.9691772,3.2398987-1.3359985,3.0583801-3.710144c-0.0101318-0.1323547-0.5058899-0.8078918-0.6016541-1.0027466
			c0.25-0.0628662,0.6718445,0.0306702,1.0027466-0.0501404C33.6577148,18.8052082,33.9138184,18.1475239,33.7177429,17.8769855z
			 M5.5906677,17.9772663c0.0865479,0.0323486,0.0490723,0.0098267,0.1002808,0.0501404
			C5.6044006,17.9950581,5.6418762,18.01758,5.5906677,17.9772663z M6.1421814,17.8769855c-0.0501404,0-0.1002808,0-0.1504211,0
			c0-0.0334167,0-0.066864,0-0.1002808c0.0501404,0,0.1002808,0,0.1504211,0
			C6.1421814,17.8101215,6.1421814,17.8435688,6.1421814,17.8769855z M6.2926025,17.7265644
			c0.0865173,0.0323486,0.0490723,0.0098267,0.1002502,0.0501404C6.3063354,17.7443562,6.3437805,17.7669086,6.2926025,17.7265644z
			 M7.9471135,14.9690266c-0.1002502-0.0167236-0.200562-0.0334473-0.3008122-0.0501404
			c-0.0354614-0.1784058-0.035614-0.2728271,0-0.4512329c0.0668335,0,0.133698,0,0.200562,0
			c0.0441589,0.072937,0.0904846,0.1432495,0.1503906,0.200531C7.9917607,14.810976,7.9771733,14.8825703,7.9471135,14.9690266z
			 M8.3482361,17.1249409c-0.0501404,0-0.1002808,0-0.1504211,0c-0.0323486-0.0865479-0.0098267-0.0491028-0.0501404-0.1002808
			c0-0.1169739,0-0.2340088,0-0.3509827c0.2934875,0.0410767,0.2633667-0.0839233,0.5013733-0.1503906
			c0.200531,0.0166931,0.401123,0.0334167,0.6016541,0.0501404c0.0052795,0.1269836,0.006134,0.1857605,0.0501404,0.2506714
			C9.1585083,17.0431232,8.5741577,16.9851093,8.3482361,17.1249409z M9.3509827,16.7739582
			c0.0166931-0.0334167,0.0334167-0.0668335,0.0501404-0.1002808C9.401123,16.6736774,9.4384155,16.7037983,9.3509827,16.7739582z
			 M11.0054932,15.219698c0.0865479,0.0323486,0.0491028,0.0098267,0.1002808,0.0501404
			C11.0192566,15.2374897,11.0567017,15.2600117,11.0054932,15.219698z M11.1559143,15.2698383
			c0.0865479,0.0323486,0.0490723,0.0098267,0.1002808,0.0501404
			C11.1696472,15.2876301,11.2071228,15.3101521,11.1559143,15.2698383z M11.5068665,15.7712116
			c-0.0501099-0.0501404-0.1002808-0.1002808-0.1503906-0.1504211
			C11.4021606,15.6558857,11.5978088,15.656374,11.5068665,15.7712116z M11.5570068,15.6207905c0.0501404,0,0.1002808,0,0.1504211,0
			C11.6210938,15.6653767,11.6432495,15.6649799,11.5570068,15.6207905z M11.7575684,15.821353
			c-0.0167236,0.0167236-0.0334167,0.0334167-0.0501404,0.0501404c0-0.0167236,0-0.0334167,0-0.0501404
			c-0.0167236,0-0.0334167,0-0.0501404,0c0-0.0166931,0-0.0334177,0-0.0501413
			C11.6907043,15.7879353,11.7241516,15.8046598,11.7575684,15.821353c0-0.0501413,0-0.1002817,0-0.1504221
			C11.802124,15.7572651,11.8017273,15.7351398,11.7575684,15.821353z M11.7575684,13.9161396
			c-0.1649475,0.1011658-0.0899048,0.2794189-0.0501404,0.4512329c-0.0167236,0.0167236-0.0334167,0.0334167-0.0501404,0.0501404
			c-0.1029968-0.019989-0.0966187-0.0124512-0.1504211-0.0501404c-0.0371399-0.065979,0.0858765-0.6696777,0.1504211-0.8523254
			c0.2425232,0.0337219,0.3710632,0.1161194,0.5515137,0.200531C12.0606384,13.8265705,11.8149109,13.8637104,11.7575684,13.9161396
			z M12.4595032,13.7657185c0.0501099,0,0.1002502,0,0.1503906,0
			C12.5235596,13.8102741,12.5457153,13.8099079,12.4595032,13.7657185z M13.2616882,15.6709309
			c-0.0167236-0.0166931-0.0334167-0.0334167-0.0501404-0.0501404c0.0212402-0.2312622,0.0368042-0.192688,0-0.3509521
			c0.0942078-0.0424805,0.2653198-0.088562,0.3509521-0.1504211c0.4563599,0.0154724,0.8015137,0.1243896,1.2033081,0.2005615
			C14.4335938,15.591341,13.7339783,15.7132587,13.2616882,15.6709309z M20.7822876,17.8769855c0.0334167,0,0.066864,0,0.1002808,0
			c0,0.0334167,0,0.066864,0,0.1002808c-0.1418152-0.0390625-0.1744385-0.0524597-0.2507019-0.1504211
			C20.7362366,17.8588886,20.7218933,17.8347797,20.7822876,17.8769855z M19.9801025,16.9745197
			c0.0835571,0.0166931,0.1671143,0.0334167,0.2506714,0.0501404c-0.0643616,0.0440979-0.1237183,0.0464172-0.2506714,0.0501404
			C19.9801025,17.0413532,19.9801025,17.0079365,19.9801025,16.9745197z M17.1723938,23.692934
			c-0.0334167,0-0.0668335,0-0.1002808,0c0-0.066864,0-0.133728,0-0.2005615
			c0.116272,0.0113831,0.1414185,0.0098877,0.2005615,0.0501404c0.0334167,0,0.066864,0,0.1002808,0
			C17.3069458,23.6571064,17.2651367,23.6204853,17.1723938,23.692934z M18.0748901,21.8879719
			c-0.2818604,0.0679626-0.4215698-0.1553955-0.6016541-0.200531c-0.3254089-0.0815735-0.4542236,0.1168823-0.7019348,0.1503906
			c-0.0167236,0.0167236-0.0334167,0.0334473-0.0501404,0.0501404c0.0181274,0.2086792,0.0238647,0.2129822,0.1504211,0.3008423
			c-0.0224609,0.149231-0.0253296,0.1692505-0.1002808,0.2506714c0,0.0334167,0,0.066864,0,0.1002808
			c-0.5065918-0.6307373-0.691864-1.3261414-1.4038391-1.7548218c0.0737305-0.1869812,0.1616821-0.160553,0.200532-0.4010925
			c0.1994019,0.0062866,0.3925781,0.1077271,0.5515127,0c0.0167236-0.0668335,0.0334473-0.1336975,0.0501404-0.200531
			c0.1169739,0,0.2339783,0,0.3509827,0c0.0501099-0.0501404,0.1002808-0.1002808,0.1503906-0.1504211
			c0.1838379-0.0659485,0.2788391-0.0368958,0.4010925-0.1002808c0-0.0501404,0-0.1002808,0-0.1504211
			c0.4321594-0.003418,0.3010254-0.1220093,0.5013733-0.200531c0.0814819-0.0319519,0.2005615,0.0501404,0.2005615,0.0501404
			c0.2487183,0.005188,0.4972229-0.1941833,0.6016541-0.3509827c0.4176941,0.0541992,1.7968445,0.4084473,2.0556335,0.6016541
			c0.2692871,0.0973206,0.3951416,0.6018066,0.5013733,0.8523254C19.9801941,21.119173,19.0274048,21.5036335,18.0748901,21.8879719
			z M23.2891541,17.0748005c0.0865479,0.0323181,0.0491028,0.0097961,0.1002808,0.0501404
			C23.302887,17.0925922,23.3403625,17.1151142,23.2891541,17.0748005z M23.4897156,17.1249409
			c0.1118774,0.0317993,0.1324158,0.0370178,0.200531,0.1002502C23.5783691,17.1933918,23.5578308,17.1881733,23.4897156,17.1249409
			z M25.2946472,19.0301533c-0.0385132,0.0345154-0.1117249,0.0660706-0.1503906,0.1002808
			c-0.1540833-0.0843201-0.1385193-0.1604614-0.1002808-0.3008423c0.1002502,0.0334167,0.2005615,0.066864,0.3008118,0.1002808
			C25.312439,19.0164204,25.3349915,18.9789448,25.2946472,19.0301533z M27.5508423,18.1777973
			c-0.5209961,0.0974426-0.7391663-0.0904541-1.1531677-0.200531c-0.3551025-0.0944214-0.6379395,0.1104736-0.9024658,0.1002808
			c0.1198425-0.2144165,0.4511414-0.2164307,0.6517944-0.3509827c0.4511719,0.0835571,0.9024963,0.1671448,1.3536987,0.2507019
			c0.0167236,0.0166931,0.0334167,0.0334167,0.0501404,0.0501404
			C27.5508423,18.0775471,27.5508423,18.1276875,27.5508423,18.1777973z"/>
	</g>
</g>
</svg>
