<?xml version="1.0" encoding="utf-8"?>
<!-- Generator: Adobe Illustrator 17.1.0, SVG Export Plug-In . SVG Version: 6.00 Build 0)  -->
<!DOCTYPE svg PUBLIC "-//W3C//DTD SVG 1.1//EN" "http://www.w3.org/Graphics/SVG/1.1/DTD/svg11.dtd">
<svg version="1.1" id="Layer_1" xmlns="http://www.w3.org/2000/svg" xmlns:xlink="http://www.w3.org/1999/xlink" x="0px" y="0px"
	 viewBox="0 0 60 60" enable-background="new 0 0 60 60" xml:space="preserve">
<g id="base">
	<g>
		
			<linearGradient id="SVGID_1_" gradientUnits="userSpaceOnUse" x1="-12.6099606" y1="85" x2="-12.6099606" y2="90.3407974" gradientTransform="matrix(4 0 3.0474641 -4 -185.8804321 400)">
			<stop  offset="0" style="stop-color:#000000;stop-opacity:0.4"/>
			<stop  offset="1" style="stop-color:#000000;stop-opacity:0"/>
		</linearGradient>
		<path fill="url(#SVGID_1_)" d="M10.9777107,51.3203468c-1.2281895-1.3760834-1.2459393-2.8060074-0.0538082-4.3707581
			c3.5513048-4.6613235,15.8794746-8.3127785,28.0664539-8.3127785c12.1864014,0,18.9507294,3.6514549,15.3994217,8.3127785
			c-1.1922951,1.5649719-3.388279,2.9948997-6.7130814,4.3707581l-24.9622326,8.6796608L10.9777107,51.3203468z"/>
		
			<linearGradient id="SVGID_2_" gradientUnits="userSpaceOnUse" x1="5.7339597" y1="85.5998688" x2="5.7339597" y2="99.6992722" gradientTransform="matrix(4 0 0 -4 0 400)">
			<stop  offset="0" style="stop-color:#006699"/>
			<stop  offset="1" style="stop-color:#007BB8"/>
		</linearGradient>
		<path fill="url(#SVGID_2_)" d="M4.5866413,34.686718C2.3100612,31.0539417,1.202901,27.2790241,1.202901,23.1481705
			c0-12.3056307,9.5462475-21.9452667,21.7332325-21.9452667c12.1863976,0,21.7326431,9.639637,21.7326431,21.9452667
			c0,4.131443-1.1065712,7.9063587-3.383152,11.5385475L22.9361343,57.6005287L4.5866413,34.686718z"/>
		<path fill="#FFFFFF" d="M22.9358578,2.4058051c11.5122089,0,20.5301151,9.1112213,20.5301151,20.7425861
			c0,3.8765488-1.0349464,7.4239712-3.1630898,10.8400307L22.9358578,55.6755371L5.5689535,33.9884758
			c-2.1281793-3.4162006-3.163157-6.9636707-3.163157-10.8400841C2.4057965,11.5170269,11.4236746,2.4058051,22.9358578,2.4058051
			 M22.9358578,0.0000076C10.1573973,0.0000076,0,10.25142,0,23.1483917c0,4.6296749,1.3107049,8.5979481,3.6042993,12.2355232
			l19.3315582,24.1404457l19.3316555-24.1404457c2.2936401-3.6375751,3.6042557-7.6058483,3.6042557-12.2355232
			C45.871769,10.25142,35.7144241,0.0000076,22.9358578,0.0000076L22.9358578,0.0000076z"/>
	</g>
</g>
<g opacity="0.6">
	<g>
		<path d="M41.4114075,24.5115833c-0.1460342-0.0498848-0.421814,0.0453701-0.5512619-0.031456h-0.3622284
			c-0.052475-0.4776917-0.1050262-0.9555302-0.157505-1.4332199c-0.0782318-0.3369884-0.0589104-0.7043972-0.1417351-1.0553017
			c-0.1814079-0.7687149-0.1974716-1.6041927-0.3779907-2.3624725v-0.1259708
			c-0.038414-0.1517315-0.1103592-0.3669662-0.0945206-0.5512619c0.0058479-0.0680943,0.0426331-0.0687599,0.0629845-0.110281
			c0.0714302-0.1453648,0.0025177-0.325222-0.0944366-0.3936844c0.0039215-0.1547661,0.102211-0.4825764,0.1731911-0.5827923
			c-0.0377502-0.1885891-0.3903542-0.1317444-0.5354958-0.2204895h-0.031456
			c0.0113983-0.0960712,0.0299759-0.2456551,0.0787506-0.3150043v-0.1259747
			c-0.3721428-0.0934811-0.9974213-0.0315304-1.4332924-0.0315304c-0.2936897,0-0.4853859-0.0207977-0.6614685,0.0945168
			c-0.0342674,0.1281948-0.0747528,0.7029171,0.0315285,0.8189735c0.0495911,0.1433659,0.2191582,0.1517296,0.3622284,0.2047958
			c0.2227859,0.0825272,0.4977493,0.1390743,0.7402229,0.2047253c0.1262665,0.0341949,0.2806625,0.0149517,0.3779907,0.0787525
			c0.0207253,0.0343437-0.0331573,0.1031761-0.0156898,0.1732674c0.0107307,0.0430775,0.0686111,0.0970325,0.0787506,0.1259727
			c0.0259819,0.0741634-0.0732002,0.2459507-0.0945168,0.299242c-0.021019,0.0945168-0.042038,0.1890335-0.0629845,0.2834759
			c-0.0521088,0.1592789-0.1213875,0.3614864-0.1732712,0.519804c-0.0573578,0.1748962-0.0595818,0.3261814-0.1102791,0.5039654
			c-0.083786,0.2942085-0.1632042,0.6363773-0.2519455,0.9292545c-0.0738678,0.2435837-0.0747566,0.462738-0.1418152,0.708765
			c-0.0863762,0.3170033-0.1290054,0.6548061-0.2204895,0.9922409c-0.0463295,0.1709728-0.1076889,0.3789539-0.1259727,0.5669498
			l-0.0157623,0.0157642c-0.2691193-0.0038471-0.7226067-0.0810432-0.9134903,0.0472965
			c-0.1515083,0.1017704-0.2031708,0.3286247-0.3307724,0.4567432c-0.08741,0.0529957-0.2060547,0.0392284-0.283474,0.0944443
			c-0.2038383,0.145586-0.3453522,0.4532642-0.4882736,0.661541c-0.0518875,0.0756454-0.2340355,0.28866-0.1259766,0.4567451
			c0.0240555,0.0700169,0.083786,0.0921478,0.1732712,0.0945168c0.0180588,0.110281,0.0109558,0.3353615,0.0157623,0.4724369
			c-0.0863724-0.0009632-0.3256645,0.0118408-0.3937569-0.0314579c-0.1504707-0.0079174-0.2876205-0.0333061-0.3150063,0.0945168
			c-0.7372589-0.0056973-1.4584579-0.0980701-2.1735115-0.1418114c0.0146523-0.0452232,0.0508461-0.0731277,0.0629845-0.1102085
			c0.0476646-0.1452904-0.0259781-0.3514938,0.0472946-0.4725075c-0.0007401-0.0486298-0.0054741-0.0807514-0.0157623-0.1102848
			h-0.157505c0.0262756-0.3412056,0.0524788-0.6824856,0.0787506-1.023695c0.0206528-0.0946655-0.0170212-0.2621593,0-0.3150043
			c0.0216866-0.0674286,0.1149445-0.109766,0.1417389-0.1890354c0.0245018-0.0343418,0.0249443-0.1546173,0-0.1889591
			c-0.0681686-0.181263-0.5192871-0.1395912-0.7402191-0.1890316c-0.223671-0.049963-0.8243752-0.1343365-1.0395355-0.047224
			c-0.1825943,0.0739403-0.3104172,0.2364044-0.4567451,0.3464622c-0.0783825,0.0590649-0.1862202,0.1205711-0.2204876,0.2205658
			c-0.4643688,0.0025902-0.6472607,0.3162651-0.8819599,0.5511875c-0.099329,0.099474-0.2525387,0.2175274-0.2992401,0.3623009
			v0.1889591c0.0536594,0.0498104,0.0914822,0.066391,0.173193,0.0945168
			c-0.0005169,0.170084,0.0282726,0.3190041,0.0315304,0.5039654c-0.109911-0.0008888-0.5600681-0.003479-0.6300106-0.0472202
			c-0.1395187-0.0078468-0.1959171,0.0019989-0.2204914,0.110281c-0.1461029,0.0005169-0.7770805-0.0174675-0.850502-0.0630608
			H27.677475c0.0209465-0.0571404,0.0748272-0.0793438,0.0945168-0.1259727
			c0.0616531-0.1458092,0.0150242-0.3987923,0.0629864-0.5512619c-0.048851-0.0170231-0.132782-0.0174675-0.2047253-0.0157642
			c0.0105114-0.3149338,0.021019-0.6300144,0.0315304-0.9449444c0.0000744-0.109396,0.0282726-0.3396549,0-0.3937588
			c0.0172462-0.104805,0.0914078-0.0714226,0.1259727-0.1575031c0.010067-0.0234623,0.0195389-0.0068073,0-0.0315285
			c0.0002213-0.0677261,0.0062923-0.1286392-0.0315304-0.157505c-0.0914803-0.0698681-0.2232285-0.0148754-0.3622284-0.0472221
			c-0.1654949-0.0384865-0.3666687,0.0114002-0.55126-0.0315285c-0.1173878-0.0273132-0.3505325-0.064394-0.4882011-0.031456
			c-0.3089371,0.0737915-0.5499287,0.1824455-0.8032799,0.3150043c-0.0639477,0.0334568-0.1388512,0.1028824-0.2047253,0.1259747
			c-0.1672726,0.0586185-0.3682957,0.0131741-0.519804,0.0787506c-0.105917,0.0458889-0.203764,0.1445503-0.299242,0.2047253
			c-0.2506142,0.1581688-0.4954529,0.319521-0.7402191,0.4725094c-0.0123615,0.0545483-0.0352325,0.1846657,0,0.2362556
			c0.0170231,0.0478115,0.0145073,0.0467014,0.0629845,0.0629845c0.0265732,0.0201321,0.0671329,0.0276814,0.1102848,0.0315323
			c0.010952,0.102581-0.0028877,0.3169289,0.0472202,0.393755v0.1259747
			c-0.1772671-0.0588417-0.6739769-0.0002956-0.8032055-0.0787525c-0.1058426,0.002739-0.1532841,0.0565472-0.1732693,0.1417389
			h-0.0629864c0.0088062-0.1163502,0.0629864-0.0899296,0.0944424-0.1575031
			c0.049366-0.1058426-0.0111008-0.2678585,0.0472965-0.3622265c0.0017738-0.058176,0.0068817-0.13937-0.0157681-0.1732712
			c-0.0385609-0.0258293-0.1405506-0.0181332-0.2047234-0.0156898l-0.0157642-0.0157642
			c0.0114708-0.0617294,0.0412998-0.1157589,0.0472202-0.1417389c-0.0052528-0.110281-0.0105095-0.220562-0.0156918-0.3307724
			c0.0205765-0.0655022,0.0995502-0.1272297,0.1259747-0.1890316c0.0741634-0.1736393-0.0573616-0.3326969-0.1102829-0.440979
			c0.1039906-0.0814915,0.2110901-0.2561665,0.1260471-0.440979c-0.0215378-0.0467033-0.1122799-0.1218281-0.1417389-0.1890354
			c-0.205759-0.4694729-0.399456-0.947979-0.6457767-1.3859959c-0.0682411-0.0123596-0.2565346,0.0051804-0.3150043-0.031456
			h-0.4409809c-0.1522484,0.2834759-0.3044968,0.5670242-0.4567432,0.850502
			c-0.0350838,0.0123596-0.0856361,0.0167274-0.1417389,0.0156898c-0.0338993,0.0960712,0.0031815,0.220047-0.0315304,0.3307724
			c-0.0589161,0.1880703-0.3187084,0.4831676-0.1259747,0.6772327v0.0157661
			c-0.1779289,0.0357475-0.4180336-0.0045166-0.5827885,0.0472946c-0.1104317,0.0347137-0.2226372,0.1170177-0.3150063,0.1731949
			c-0.220417,0.1341152-0.4597797,0.2418041-0.6772346,0.3623009c-0.0652065,0.0361195-0.3936844,0.041153-0.4567432,0h-0.1575031
			c0.0173931-0.1461029-0.0155449-0.3878365-0.0157661-0.5670261c-0.0000744-0.0800838,0.0170231-0.2152348-0.0156918-0.2677841
			c-0.0067348-0.1532841,0.0279045-0.1774139,0.1259727-0.2204914c-0.00037-0.0429268-0.0005913-0.0721626-0.0157642-0.0944424
			c-0.0180588-0.170084-0.1774139-0.0922947-0.3307705-0.1260452c-0.0789738-0.0173931-0.8169746-0.0572872-0.9607105-0.0157642
			c-0.2929497,0.0847454-0.5868626,0.2226334-0.8662682,0.3465347c-0.036932,0.0163574-0.0879288,0.0662422-0.1259727,0.0787525
			c-0.1784477,0.0052528-0.3570461,0.0105095-0.5354948,0.0157642c-0.2819958,0.0734959-0.488349,0.2279644-0.7087641,0.3622265
			c-0.0868931,0.0529213-0.1822243,0.0738678-0.2520199,0.1417389h-0.0314569
			c-0.0061426-0.3124161-0.013175-0.6295681-0.0629854-0.8977242c0.0474434-0.0233154,0.0849686-0.049366,0.141737-0.0629864
			c-0.0014057-0.0605412-0.0053291-0.0934811-0.0315304-0.1260452c-0.040782-0.0972557-0.103694-0.0545483-0.2204895-0.0787525
			c-0.1882935-0.0389309-0.7846289-0.0724602-1.0080051,0c-0.2492065,0.0808983-0.508111,0.1649799-0.7559853,0.2677841
			c-0.0703878,0.0291634-0.1609812,0.0891151-0.2362547,0.1102104h-0.2047253
			c-0.1957674,0.0000744-0.387022-0.0093269-0.5354948,0.0472927c-0.5197315,0.2572021-1.0395355,0.5144787-1.5592661,0.7717514
			c-0.0341949,0.0877075-0.0067358,0.1359653,0,0.2519455c0.0472212,0.0052547,0.0945168,0.0105114,0.1417379,0.0157642
			c0.0175409,0.1458111,0.0897799,0.25424,0.0945158,0.409523c-0.3779182-0.021019-0.7560587-0.0420399-1.1339769-0.0629845
			c-0.022501-0.1614265-0.0959234-0.303091-0.1417379-0.4410553c-0.0656519-0.1974678-0.0909643-0.3687401-0.1575041-0.5669498
			c-0.0555849-0.1654968-0.1484728-0.3649673-0.1890335-0.5354977c-0.0194654-0.0821571,0.0467043-0.0673523,0.0315313-0.1417351
			c-0.0591383-0.2894745-0.2060575-0.6044044-0.2992411-0.8820343c-0.1343374-0.4000473-0.2250795-0.782114-0.3623028-1.1812
			c-0.108283-0.315155-0.1928816-0.6522903-0.3149319-0.9765472c-0.0708318-0.1881466-0.1705294-0.3930187-0.1575031-0.6142483
			c0.0515141-0.0476665,0.1104298-0.0886707,0.1731939-0.1259727c0.0055513-0.1891079,0.0014067-0.292284-0.1102071-0.3622265
			v-0.0315323c0.157207-0.0802307,0.2820697-0.2069435,0.4252133-0.2992401
			c0.0490723-0.2188625-0.0179853-0.4608898-0.0472212-0.6772346c-0.2488365-0.062542-0.5911546,0.0623951-0.8347368,0.1259747
			c-0.0788999,0.020649-0.2144947,0.0042915-0.2520199,0.0629845c-0.051662,0.0809727,0.0501823,0.2413616,0.078752,0.3150082
			c-0.1406279,0.0573597-0.2279654,0.1216793-0.3464627,0.1890316c0.0244985,0.0661697,0.0352311,0.1424046,0.0787516,0.188961
			c-0.0155435,0.1344833-0.1170912,0.0918503-0.1732683,0.1732674c-0.0262752,0.038044-0.0126562,0.066021-0.0472951,0.0945168
			c0.0425582,0.1386299,0.0042186,0.2533512,0.1418118,0.330698c-0.0892615,1.3228626-0.1785235,2.6461697-0.2677846,3.9690323
			c-0.0710545-0.0153198-0.0773454-0.0587673-0.1259732-0.0787506H6.3836136
			c-0.2176032-0.0481091-0.5317211-0.0744591-0.7087641,0.0157642c-0.0291615,0.106287-0.0805283,0.2788143,0,0.3779945
			c0.0185776,0.0814896,0.098217,0.1184235,0.1890335,0.1259708c0.0101399,0.0271645,0.0030346,0.015398,0.0156908,0.0315323
			c-0.0341945,0.0279026-0.076087,0.0325661-0.1417375,0.031456c-0.0052552,0.0052547-0.0105104,0.0105114-0.0156913,0.0157642
			c-0.0019989,0.0645409-0.0102143,0.16572,0.0156913,0.2047253c0.0222778,0.1857758,0.4155178,0.3665199,0.5512605,0.4725075
			c0.0427804,0.0333824,0.3204837,0.6284599,0.3465362,0.7087669c0.0052552,0.5196552,0.0105104,1.0395336,0.0156913,1.5592632
			c0,0.1501045-0.0381174,0.5341663,0.0157657,0.5984821c0.0059953,0.0046635,0.3793249,0.0928917,0.3937578,0.0945187
			c0.0035524,0.0364895,0.0031085,0.0444088,0.0157647,0.0629864v0.0787506
			c0.1920681,0.0333824,0.5405293-0.1197567,0.6300125-0.0630608h0.1259727
			c-0.0101399,0.0272388-0.0031085,0.0154705-0.0157647,0.0315323c-0.0394497,0.0322685-0.1221242,0.0452976-0.1889591,0.0472202
			c-0.0005183,0.0459633-0.0008144,0.0858574,0.0156903,0.1102829v0.0315285
			c0.1473637,0.0287933,0.6672421,0.1227169,0.8348112,0.0787525c0.2056131-0.0540314,0.4422379-0.1406288,0.6772337-0.1575031
			v-0.0945168c0.0992537,0.0002956,0.2621603,0.0026646,0.330698,0.0472221
			c0.1033983,0.0040684,0.0797138,0.0315285,0.1418123,0.0629845c0.0670567,0.0444088,0.2468386,0.0344181,0.3464622,0.0315323
			v-0.0472221c0.2081289-0.002739,0.2996855-0.0674267,0.4725094-0.0787525
			c0.0045137,0.0450764,0.0094738,0.1395187,0.0315304,0.1731949c0.0051804,0.0157642,0.0104361,0.0315304,0.0156908,0.0472965
			c0.1892548,0.0052547,0.443347,0.0828953,0.5670252-0.0315323h0.0315304c-0.0045881,0.0623951-0.0233135,0.1035461,0,0.1417389
			c-0.0024424,0.1729717-0.0165787,0.3842831,0.0472212,0.4882755c0.1763029,0.0078449,0.3548269,0.0627632,0.5827179,0.0629864
			c0.1663847,0.3767338,0.3261089,0.5743523,0.8820324,0.5670242c0.0976992-0.1062832,0.1419601-0.1606846,0.3307714-0.141737
			c0.0524769,0.0052567,0.1049519,0.0104351,0.1574287,0.0156918c0.0592127,0.0324917,0.0714979,0.1412945,0.1260471,0.1732674
			h0.0629864c0.0740891,0.0375996,0.1402578,0.1223469,0.2204905,0.1575031
			c0.2350693,0.1030293,0.6120253,0.1600208,0.9134874,0.0945168h0.2362547
			c0.0630608-0.0218353,0.1284904-0.1099854,0.1890335-0.1417389c0.1027327-0.0540295,0.1749706-0.065279,0.2362547-0.1575031
			c0.0212421-0.0163574-0.0062904-0.0244236-0.0157642-0.0629845c0.0354519-0.0093269,0.0194654-0.0052567,0.0423355-0.0011845
			c0.0020723-0.0005932,0.0042934-0.0032578,0.0067358-0.0048122c0.0079937-0.1495819,0.2068701-0.2626019,0.2344036-0.4507484
			c0.0837851,0.0534401,0.0646896,0.2846603,0.1102819,0.3779926c0.0988102,0.2023544,0.319891,0.3212223,0.3937578,0.5511856
			h0.0156918c0.031086,0.0088825-0.0314569,0.0157681-0.0314569,0.0157681
			c0.1035461,0.1321144,0.3378038,0.1495075,0.5827169,0.1417351c0.0538082-0.0558796,0.1261215-0.0777149,0.1890335-0.1259708
			c0.0330105-0.0253143,0.0416698-0.0690575,0.0787525-0.0945168c0,0-0.0035534-0.0618019-0.0157661-0.0314579
			c-0.0052547,0.0052567-0.0105095,0.0105114-0.0157661,0.0156918c0.086525-0.1753407,0.2094631-0.4185524,0.2204914-0.6457024
			c0.2485409,0.011322,0.5799789,0.0515862,0.8032799,0.0314541c0.02598,0.0908165-0.002739,0.3024979,0.0156918,0.4725113
			c0.0855598,0.0180588,0.6391907,0.0824509,0.6457787,0.0787525h0.1259727v0.0315285
			c-0.0271645-0.0101395-0.0153961-0.003109-0.0314579-0.0157642h-0.0945148
			c0.1320419,0.1948071,0.267931,0.4130764,0.3307705,0.6772327c0.3715534,0.0985146,0.8347378,0.0865955,1.2284946,0.1732693
			h0.3779926c0.1353722,0.0295296,0.4647388,0.1073933,0.6300125,0.0629864
			c0.1444035-0.0388584,0.1756363-0.1738605,0.299242-0.2204895c0.1006603-0.0632095,0.3375778,0.0454445,0.4882011-0.0157661
			c0.0666847-0.0270901,0.1260452-0.1128712,0.1890316-0.1417389c0.1783028-0.0816383,0.4180336-0.1456585,0.55126-0.2677097
			h0.0472221c-0.0560284,0.1561718-0.0382652,0.5577736-0.1102066,0.6772327
			c-0.0035534,0.0703144,0.0092506,0.0586205-0.0315323,0.0629883c0.0062923,0.0323429,0.0039234,0.030344,0.0157681,0.0472202
			c0,0-0.0035534,0.0618019-0.0157681,0.0315304l-0.0157642-0.0157642c0.0071068,0.0469246,0.0079937,0.0531425,0.0315323,0.0787525
			v0.0157642c0.01717-0.0268688,0.0082874-0.0485554,0.0157642-0.0629864v-0.0315304
			c0.0243492,0.0367851,0.0222778,0.1080608,0.0472202,0.141737c0.0831928,0.0675755,0.5944862,0.1349277,0.6457043,0.0629864
			l0.0630608,0.0630608c0.1794834-0.0065136,0.4998207-0.1771908,0.6142464-0.2677841
			c0.048111-0.0646152,0.0369339-0.3022022,0.0156918-0.3464642c-0.0017033-0.1532097-0.0418186-0.6963291,0.0157642-0.7875156
			c0.1306381-0.0885201,0.4136677-0.0379677,0.5827904-0.0157642c0.00037,0.0429287,0.0005932,0.0721645,0.0156937,0.0945168
			v0.031456h0.0787487c0.0011845,0.3329906,0.0196152,0.7072849,0.1732712,0.8977966
			c0.0867443,0.1075459,0.2705231,0.1561718,0.3465366,0.2677116c0.0512161,0.0752716,0.0402641,0.1984329,0.0944424,0.2677841
			c0.1014004,0.1261959,0.6265316-0.0010357,0.7245274-0.0787487c0.045742-0.0367146,0.0958481-0.1400375,0.1259747-0.1890354
			c0.0487003-0.0100651,0.1051731-0.0167274,0.1732674-0.0157642c0.0619507,0.0592117,0.1307831,0.075716,0.1732674,0.1575031
			c0.3690376-0.0301971,0.6761246-0.6477032,0.6772346-1.0709934c0.1112423-0.0450726,0.1648312-0.1070232,0.2204895-0.2047234
			c0.2955399,0.001482,0.6054382,0.0366383,0.8662682,0.0945168c0.1063576,0.0236111,0.2107182-0.0161343,0.283474,0.031456
			h0.0157681c-0.001482,0.0868931,0.0052528,0.1401844,0.0315285,0.1890354
			c0.1042137,0.0028839,0.2708187,0.0092506,0.330698,0.0629845c0.0389309,0.0233879,0.0292339,0.0194645,0.0315285,0.0787506
			c0.0577316,0.0157661,0.1154633,0.0315323,0.1732693,0.0472221c0.1435146,0.0075493,0.3710346,0.0524769,0.3779926-0.0944424
			c0.0462589,0.0159874,0.0675755,0.0492191,0.1102085,0.0629864c0.1256027,0.0405598,0.2228584-0.012434,0.3622265-0.0157661
			c-0.0019245,0.4651089,0.0341225,1.1604767,0.3150063,1.2757168v0.0157661
			c-0.045002-0.0056992-0.068018-0.0102882-0.0944424-0.0314579h-0.0157642
			c0.0291595,0.1344852,0.156023,0.0790482,0.2677097,0.1259747c0.1250858,0.0525494,0.1934738,0.1625347,0.2520199,0.2834759
			c0.0321217,0.0111752,0.0956268,0.0005913,0.1417389,0.0157642c0.0568428,0.0187263,0.1243439,0.0689831,0.1890335,0.0945168
			c0.0676479-0.1213837,0.1217537-0.2869549,0.2362537-0.3622265c0.2367001-0.1557274,0.5577755,0.0019245,0.6142483,0.2204895
			c0.1939926-0.0569916,0.2205639-0.6558437,0.6614666-0.5354977c0.0443382,0.0120659,0.1188698,0.0508499,0.157505,0.0787525
			c0.0894089,0.0644665,0.0908165,0.1796341,0.157505,0.2677097v0.2047997
			c0.0472183,0.0262032,0.0945168,0.0524769,0.1417351,0.0787525c0.07024,0.0515881,0.0751991,0.1314487,0.1259727,0.2047234
			c0.0558815,0.0805283,0.1779327,0.1042881,0.2362556,0.1889591h0.6300125c0.076458,0,0.2025795,0.0153961,0.252018-0.0156918
			c0.1085815-0.0212421,0.1535072-0.1534309,0.2204933-0.220562l0.2047234-0.2047253
			c0.0526237-0.0987358,0.039299-0.2286301,0.0629845-0.3150043c0.0686111-0.2493572,0.2062035-0.5249119,0.2205658-0.8189735
			c0.126564-0.0002956,0.1592026,0.0253124,0.2361794,0.0629883v0.0629845
			c0.1962852,0.0106583,0.3957558,0.0600262,0.5670242,0.0157642c0.0052567-0.0262737,0.0105133-0.052475,0.0157661-0.0787487
			h0.0629883c-0.003849,0.4609623-0.0150261,0.8829937,0.1575012,1.1655064
			c0.0210228,0.0629864,0.0419693,0.1259727,0.0629883,0.188961c0.0190201,0.0165043,0.4252892,0.0833378,0.4882736,0.110281
			c0.1113205,0.0476646,0.1633492,0.1787453,0.2677116,0.2204895c0.0448532,0.0147285,0.062912-0.0279045,0.1102829-0.0472221
			l0.2204895-0.0315285c0.1173134-0.042263,0.2287025-0.1673489,0.3622246-0.2047272
			c0.1432953-0.0401897,0.3673363,0.0301266,0.4725113-0.0472927c0.0763092-0.0541801,0.1369247-0.2606812,0.1417351-0.3779945
			c0.1453667-0.0293083,0.1803017-0.1797829,0.2835541-0.2519455c0.0016289-0.0398941,0.0019226-0.0583973,0.0156898-0.0787525
			c0.0040703-0.1620903-0.0542526-0.1399612-0.1731949-0.1732674c0.0032578-0.1400356,0.0334549-0.2510567,0.0472221-0.3779907
			h0.1259727c0.0020714,0.0809689,0.0185051,0.2311459-0.0156898,0.283474
			c0.0101395,0.0271645,0.0030327,0.0153942,0.0156898,0.0315304c0.0774193,0.0540314,0.5364571,0.0925198,0.6615448,0.0945187
			c0.0014038,0.0605412,0.0052528,0.0934048,0.0314522,0.1259708c0.0367126,0.083416,0.1310081,0.0364895,0.2047997,0.0787525
			c0.1799278,0.003479,0.1519547-0.0493698,0.2362556-0.126049c0.2114601-0.0923691,0.7191238,0.1558762,0.9764709-0.0156898
			c0.1487732-0.0991802,0.272747-0.4007149,0.3307762-0.5827923c0.0515137-0.1618671-0.0844536-0.2250767-0.0630608-0.3464622
			c0.0302734-0.1717129-0.0262032-0.423954,0.0157623-0.6142464c0.0553665-0.250761,0.0308647-0.6259422,0.0315323-0.8662663
			v-0.4567451l-0.0157623-0.7087631c0-0.0831928,0.018795-0.2284832-0.01577-0.2834778v-0.2992401
			c0.0279045-0.0521812,0.1774902-0.0686874,0.2362556-0.0945168c0.1973991-0.0865974,0.4346886-0.1902924,0.6142464-0.299242
			c0.0321236-0.1218281,0.0504074-0.2651939,0.0472221-0.440979c-0.0640182,0.0008144-0.1312294-0.0011845-0.1731949-0.0157642
			c0.030201-0.1150913,0.220417-0.1274548,0.2834778-0.2204895C41.737442,24.9476032,41.6123543,24.5802689,41.4114075,24.5115833z
			 M6.6513243,23.2044106c-0.0445566-0.0128784-0.0637264-0.0109539-0.1259727-0.0157661v-0.0472946
			c0.0705361,0.0008888,0.0522542,0.0146542,0.0945172-0.0314541h0.0314555V23.2044106z M7.0136261,18.5581417H6.9820962v-0.031456
			c0.01051,0.0051823,0.0210199,0.010437,0.0315299,0.0156918V18.5581417z M7.0293913,18.4006386H6.9978614
			c-0.0126572-0.041151-0.0195398-0.037302-0.0315309-0.0787506l0.0630608,0.0157661V18.4006386z M7.5333567,22.1964054v0.0472202
			c-0.0119157-0.0169487-0.0099177-0.0145798-0.0157652-0.0472202H7.5333567z M7.5175915,22.2751579
			c0.0119166,0.0169487,0.0099182,0.0145054,0.0157652,0.0472202H7.4546051
			C7.4836187,22.2992115,7.4967937,22.3114243,7.5175915,22.2751579z M7.4230752,22.2120972v0.0315285
			c-0.0052552-0.0052547-0.0104361-0.0105076-0.0156913-0.0157642c-0.0301242-0.0262012-0.0525503-0.0999203-0.0630603-0.1417389
			C7.3912487,22.1129169,7.3901386,22.1734619,7.4230752,22.2120972z M7.4388404,22.2593918v0.031456H7.4230752v-0.031456H7.4388404
			z M7.1868205,21.8498707c0.0277553,0.0427036,0.0075493,0.0896301,0,0.1417351H7.1711292
			C7.1707592,21.9354305,7.1746078,21.8851738,7.1868205,21.8498707z M7.1868205,22.0073719h0.0630608
			c-0.0316048,0.0623932-0.0290141,0.0979214-0.0630608,0.1575031H7.1711292
			C7.1707592,22.0826454,7.1760144,22.0426788,7.1868205,22.0073719z M7.1868205,22.2436256v0.0472221
			c-0.0119166-0.0168743-0.0098438-0.0145054-0.0156913-0.0472221H7.1868205z M7.2813368,22.1964054v-0.0157661h0.0157657
			c-0.0052552,0.0524788-0.0105104,0.1050282-0.0157657,0.1575031c0.0262756-0.0052528,0.0525503-0.0105095,0.078752-0.0157642
			l0.0157652,0.0157642v0.0157681c-0.0410786-0.0054054-0.083859-0.0131779-0.1259727,0.0156898
			c-0.0365639-0.0035534-0.0444832-0.003109-0.0630608-0.0156898c-0.0051808-0.0052567-0.0104361-0.0105114-0.0156913-0.0157681
			C7.2405553,22.3009872,7.2364841,22.2550259,7.2813368,22.1964054z M7.1868205,22.4483528H7.1711292
			c0.0052552-0.0104389,0.0105104-0.0209465,0.0156913-0.0314579c0.0960708,0.0014057,0.2648244,0.0109558,0.330771-0.0315304
			h0.047296C7.4788079,22.4520512,7.2584667,22.4140072,7.1868205,22.4483528z M9.3445683,24.5588799h0.0629873
			c-0.0151739,0.0126553-0.0431509,0.023241-0.0629873,0.0314541V24.5588799z M8.3838596,23.2044106
			c-0.0052557-0.199543-0.0105104-0.3990879-0.0157661-0.5985546v-0.0629883c-0.0925179-0.0172443-0.215086,0.0330105-0.3150063,0
			c-0.0235357-0.0077724-0.0220566-0.0370808-0.0787511-0.031456c-0.036489,0.0035515-0.0920005,0.0219078-0.110208,0.0156918
			c-0.0771971-0.0504055-0.0218344-0.3230019-0.0472951-0.4409809c-0.0168014-0.0780106,0.0073271-0.2683029-0.0157652-0.409523
			c-0.0215383-0.1322632-0.0512185-0.5787201-0.0156913-0.7559853c0.025239-0.1260452-0.0714979-0.3284035,0-0.440979
			c0.0052552-0.0052528,0.0105104-0.0105095,0.0156913-0.0157642c0.1848145,0.4432735,0.2625299,0.9193363,0.4252877,1.3859997
			c0.0742369,0.2128658,0.2069454,0.4728775,0.2362547,0.7087631c0.1282673,0.02672,0.1159067,0.2170849,0.1575031,0.3307705
			c0.0917788,0.2508354,0.1761551,0.5371246,0.2677116,0.7874413c0.0338249,0.092371,0.0294571,0.192955,0.0787506,0.2677841
			c-0.0088816,0.0957775-0.0744581,0.0981445-0.1575022,0.1102104c0.0099916,0.0448513,0.0226479,0.095108,0.0472946,0.1260452
			c-0.0127296,0.0636539-0.0330105,0.0689831-0.0787516,0.0945168v0.0944443
			c-0.0611353,0.0067329-0.1473627,0.0173187-0.1890335,0.0472946c-0.0360441,0.0162086-0.0341206,0.0270157-0.0629864,0.0472221
			c-0.0014801,0.1027298,0.0018511,0.2102013,0.0472221,0.2677841c-0.0017023,0.0448532-0.0062914,0.0672779-0.0156918,0.0944424
			l-0.0472946,0.0157642C8.467865,24.2964211,8.4258251,23.7503414,8.3838596,23.2044106z M8.8720598,26.8583641
			c-0.0323448-0.0062923-0.0303469-0.0039234-0.0472212-0.0157642c-0.0640974,0.0008144-0.1312284-0.0011845-0.1732693-0.0157642
			v-0.0472221c0.0836372-0.0185051,0.1130953-0.0222797,0.2047987-0.0157661
			c0.0052557,0.0052567,0.0105104,0.0105095,0.0156918,0.0157661V26.8583641z M10.0375681,25.5353527
			c-0.1763773,0.0338268-0.331068-0.0150242-0.5354958-0.0157642v0.0630608c-0.1649046,0.014431-0.5515575,0.1008072-0.7086906,0
			H8.7618523V25.440836c-0.0323448-0.006216-0.0303469-0.003849-0.0472221-0.0156898
			c-0.0640965,0.0007401-0.1313019-0.0012589-0.1732683-0.0157661c0.0019989-0.0776405,0.0168018-0.2181206-0.0157652-0.2677841
			v-0.0157642c0.3325481-0.0720921,1.1425648-0.216198,1.3387766-0.3936844
			c0.0250912-0.0094013,0.0177641-0.0054779,0.0290136-0.0145798c-0.0020723-0.001482-0.0063648-0.0017033-0.008585-0.0030365
			c-0.0277557-0.0046635-0.0556593-0.0092525-0.0834885-0.013916v-0.0157642
			c0.0432243,0.0025902,0.0622463,0.0165043,0.0834885,0.0296803c0.0037012,0.0005932,0.0073271,0.0012589,0.0110283,0.001852
			c-0.0012589,0.0009613-0.0014801,0.0004444-0.0024433,0.0011845c0.0316792,0.0219803,0.0561771,0.0494404,0.0969601,0.0775661
			c-0.000741,0.1221237-0.0001488,0.5229874,0.0472212,0.5984821V25.5353527z M10.7620964,25.1731262
			c-0.0424833,0.0110264-0.0681677,0.0217609-0.0945158,0.0472221c-0.0882998-0.0560284-0.0499601-0.3862095-0.1102085-0.4882011
			v-0.0315323c0.0734234,0.0052567,0.1469927,0.0105114,0.2204905,0.0157681
			c0.0025158,0.1605358,0.0639477,0.2010956,0.1102066,0.2992401
			C10.8262682,25.0613632,10.7676487,25.0643253,10.7620964,25.1731262z M15.0460634,28.401865h-0.0157642v-0.0315304h0.0157642
			V28.401865z M15.1878023,24.4013748c-0.1233835,0.0037022-0.2341824,0.0076962-0.2362556-0.0315285h0.2204895l0.0157661,0.0157642
			V24.4013748z M16.9990883,25.9133472c-0.0697231,0.0011101-0.1078396-0.0001488-0.1418133-0.0314579
			c-0.0256081-0.0182819,0.0034046-0.0201302,0.0157661-0.0472946c0.0233135,0.0176888-0.0060692,0.0193176,0.0315285,0.0472946
			c0.0242786,0.0122871,0.0386372-0.0011082,0.0629883-0.0315304h0.0315304V25.9133472z M17.0620747,25.7243881h-0.0315304
			l-0.0157661-0.0157681v-0.0629845l0.0472965,0.0157642V25.7243881z M16.9517937,25.5826492
			c-0.0702419,0.0015545-0.0737209-0.0057011-0.0945187,0.0472202c-0.0271626-0.0101395-0.0153942-0.0031071-0.031456-0.0157661
			h-0.0157642c0.0207233-0.023756,0.0295315-0.0337486,0.0629864-0.0472183
			c0.0134697-0.0104389,0.0494423-0.0213165,0.0629864-0.0315323c0.0420399,0.0157661,0.0840073,0.0315323,0.1260471,0.0472965
			C17.0393524,25.6240234,16.9760685,25.6407509,16.9517937,25.5826492z M18.4795284,28.7640934
			c-0.0119171-0.0169487-0.0098438-0.0145798-0.0157642-0.0472221h0.0157642V28.7640934z M18.7157841,26.1811314
			c-0.0264244,0.062542-0.09585,0.0686131-0.1417389,0.1102066h-0.0315304
			c0.0021458-0.0976257,0.0269413-0.296278-0.0156918-0.3622265c-0.0056973-0.0590649-0.0122128-0.0585461-0.0315304-0.0945168
			c-0.0939236-0.0233154-0.5673962-0.124197-0.6614666-0.0629864c-0.0963688,0.033823-0.1178322,0.1819286-0.1260471,0.299242
			c-0.0484066-0.0169487-0.0568447-0.0384884-0.0944443-0.0629883c-0.0019226-0.1651993-0.0143585-0.4191437,0.0156918-0.4882736
			c0.0121384-0.136631,0.2326279-0.2100544,0.3150063-0.330698c0.0714989,0.0173931,0.0581017,0.0568428,0.110281,0.0787525
			c0.1889591,0.0156898,0.3779926,0.031456,0.5669518,0.0472221c0.0274601,0.0774918,0.0249443,0.1189404,0.1102829,0.1417351
			C18.7333241,25.6001167,18.7699623,26.0955696,18.7157841,26.1811314z M21.4405575,24.6060982
			c0.0271626,0.0102158,0.0153961,0.003109,0.031456,0.0157681h0.0157642v0.0315285h-0.0629864L21.4405575,24.6060982z
			 M21.4562492,25.8661232c-0.0536594-0.0033302-0.0803814-0.0075474-0.1102066-0.0315285h-0.0157681
			c0.0121403-0.010807,0.0350857-0.0207253,0.0472221-0.031456h0.0787525
			C21.4511414,25.8522091,21.4509201,25.8280067,21.4562492,25.8661232z M21.3302746,26.149601v-0.0314579h0.0945168v0.047224
			c-0.0435925,0.0076218-0.045517,0.0190201-0.0787487,0h-0.0315323L21.3302746,26.149601z M21.1255512,24.8896503
			c0.0327873-0.0065136,0.0862999-0.0149517,0.1102066-0.0315323c0.0210209,0.0105114,0.0420418,0.0210209,0.0629883,0.0315323
			c-0.0051823,0.0104351-0.0104351,0.0209465-0.0156918,0.031456h-0.1575031V24.8896503z M21.2672901,25.1731262v0.0472221
			l-0.0157661,0.0157642c-0.0458889,0.0005188-0.0858574,0.0008144-0.1102085-0.0157642l-0.0157642-0.0157681
			C21.1694431,25.1843758,21.1947536,25.1729774,21.2672901,25.1731262z M21.0468006,25.566885
			c0.0209446-0.0210209,0.0419655-0.0420418,0.0629864-0.0629883h0.141737
			c0.0052547,0.0051823,0.0105114,0.0104351,0.0157661,0.0156918c-0.0302734,0.0459633-0.1322651,0.0299759-0.1732674,0.0630608
			h-0.0472221V25.566885z M21.2357578,25.8188305v0.0472927h-0.173193v-0.0315285
			C21.1111927,25.8245277,21.1677399,25.8178673,21.2357578,25.8188305z M20.9838123,25.2361126h0.0314579v0.0315304h-0.0314579
			V25.2361126z M21.1570072,26.7480831v0.0472946c-0.0800114-0.0025177-0.1493607-0.0047359-0.1889591,0.0314579
			c-0.0365639-0.0035534-0.0444088-0.003109-0.0629864-0.0156918h-0.0157661
			C20.9492493,26.7696228,21.0679684,26.7468987,21.1570072,26.7480831z M21.1570072,27.0788555
			c-0.0334549,0.0139141-0.0700912,0.0247192-0.0944424,0.0472202h-0.0472946
			c-0.0052547-0.0156918-0.0105114-0.031456-0.0157661-0.0472202c0.020649-0.0080681,0.0620232-0.0192451,0.0787506-0.0315323
			c0.0324211,0.0062923,0.0303478,0.0039234,0.0472965,0.0157681
			C21.1527157,27.0733032,21.1409454,27.0661964,21.1570072,27.0788555z M20.8263092,26.559124v0.0157661
			c-0.0396729-0.0257587-0.0164299-0.0029621,0-0.0472965C20.8363762,26.5510559,20.84585,26.5344028,20.8263092,26.559124z
			 M20.8577671,27.7088661c0.027235-0.0101395,0.0154686-0.003109,0.0315285-0.0157642h0.0472221l0.0157661,0.0157642v0.0157642
			h-0.0945168V27.7088661z M21.0152702,28.2285976h-0.0629864c0.014431-0.0339737,0.0136909-0.0228691,0.0315285-0.0472202
			c0.0429287,0.00037,0.0721664,0.0005913,0.0944424,0.0156898h0.0315323
			C21.0871372,28.2382946,21.0455418,28.2433281,21.0152702,28.2285976z M21.0310345,28.0081081h-0.1417389v-0.0157642
			c0.0515137-0.0126572,0.1166477-0.0337524,0.157505-0.0629864c0.0323429,0.0062904,0.030344,0.0039234,0.0472221,0.0157642
			h0.0315285C21.1029034,27.9830914,21.0621204,27.9813137,21.0310345,28.0081081z M21.1570072,27.6931019h-0.2047234v-0.0157642
			c0.0196133-0.0105114,0.0325661-0.0170975,0.0472202-0.0314579c0.0489235-0.0010338,0.0994015-0.0022926,0.1260471,0.0156918
			h0.031456V27.6931019z M21.1727715,27.409626c-0.058176,0.0017776-0.1393681,0.0068817-0.1732674-0.0157661
			c-0.0052547-0.0052528-0.0104351-0.0105095-0.0156918-0.0157642c0.048851-0.022501,0.0909653-0.0333061,0.1731949-0.031456
			c0.0062923,0.0323429,0.0039234,0.030344,0.0157642,0.0472202V27.409626z M21.0782547,26.5118275
			c-0.0162086-0.0126553-0.0038471-0.0057735-0.0314541-0.0156898v-0.0472965
			c0.0323429-0.0062885,0.030344-0.0039234,0.0472221-0.0157642c0.0640945,0.0037003,0.0606899,0.0077724,0.0945148,0.0315285
			C21.1623363,26.4851074,21.1122303,26.5028725,21.0782547,26.5118275z M21.2043037,26.1811314
			c-0.058176,0.0017757-0.13937,0.0068836-0.1732693-0.0157642h-0.0157642V26.149601
			c0.0629845-0.0052547,0.1260452-0.0105114,0.1890335-0.0157661V26.1811314z M21.251524,27.6301155h0.1102829v0.0157642
			c-0.0198364,0.0086613-0.0475922,0.0188732-0.0630608,0.0314579h-0.0629883
			C21.2410145,27.6615715,21.2462692,27.6458797,21.251524,27.6301155z M21.2672901,27.9135914h0.1102066
			c-0.0051804,0.0157661-0.010437,0.0315304-0.0156898,0.0472946c-0.0315323,0.0051823-0.0630608,0.010437-0.0945168,0.0156918
			V27.960886C21.2527809,27.9306889,21.2609978,27.9492664,21.2672901,27.9135914z M21.393261,28.1970673
			c-0.0222034,0.0080681-0.0757904,0.0187263-0.0945148,0.0315304h-0.031456
			c0.0202065,0.0138416,0.0388584,0.0145817,0.0787525,0.0157661c-0.0052567,0.0157642-0.0105114,0.031456-0.0157681,0.0472202
			c-0.0561028-0.0051823-0.052475-0.0009632-0.0787506-0.031456c-0.0211678-0.0296803-0.0074005-0.0494423,0.0157661-0.0945168
			h0.1102066l0.0157642,0.0157661V28.1970673z M21.3302746,27.3938599
			c-0.0783806-0.0075493-0.0634289-0.0097694-0.0472202-0.0629845c0.0323448,0.0062885,0.0303459,0.0039234,0.0472202,0.0157642
			h0.0629864C21.3725376,27.3826103,21.3594379,27.3710651,21.3302746,27.3938599z M21.251524,27.0946198
			c0.0144329-0.0339718,0.0136929-0.0229454,0.0315304-0.0472965h0.0944424
			c-0.0051804,0.0157681-0.010437,0.0315323-0.0156898,0.0472965H21.251524z M21.4090271,26.7796135h-0.141737v-0.0315304h0.141737
			V26.7796135z M21.2987461,26.4803734v-0.0472965c0.0519562-0.0013332,0.1128712-0.0037022,0.1418114,0.0157642
			c0.0271626,0.0102158,0.0153961,0.003109,0.031456,0.0157642C21.4131718,26.4838505,21.3724632,26.4783001,21.2987461,26.4803734z
			 M21.4405575,25.5511189h-0.0630608c-0.0051079-0.0490723-0.0053291-0.024868,0-0.0629864h0.110281l0.0157661,0.0157642
			C21.481636,25.5231419,21.4596539,25.5278778,21.4405575,25.5511189z M21.5349998,25.2045803
			c-0.0472221,0.0052567-0.0944424,0.0105114-0.1417389,0.0157681v-0.0472221h0.126049
			c0.0052528,0.0052547,0.0104351,0.0105114,0.0156898,0.0157642V25.2045803z M21.5349998,24.8738861
			c-0.0475922,0.0097675-0.0837097,0.0164299-0.1102085,0.0472202c-0.0271626-0.0101395-0.0153942-0.003109-0.0315304-0.0157661
			c-0.0151711-0.0253124-0.0008869-0.0014801,0-0.0472221h0.1417389V24.8738861z M21.7555637,25.5195885
			c0.0271626,0.0102139,0.0153961,0.003109,0.031456,0.0157642h0.0157661l-0.0157661,0.0315323h0.0157661
			c-0.0148029,0.0651302-0.0016289,0.0271606-0.0472221,0.0472183
			C21.7297325,25.5531902,21.732399,25.5737667,21.7555637,25.5195885z M21.7712555,26.7638474
			c0,0-0.0155449,0.0025921-0.0156918-0.0472221h0.0156918V26.7638474z M21.7870197,26.4961376
			c-0.0271645-0.0102158-0.0153942-0.003109-0.031456-0.0157642c-0.0127316-0.0162106-0.005846-0.0039234-0.0157661-0.0315323
			c0.0143585-0.0146542,0.0212421-0.0274582,0.0314579-0.0472202h0.0157642V26.4961376z M21.7555637,25.8818893v-0.0787506
			c0.0472946,0.0210934,0.0319748,0.0350838,0.0944443,0.0472202
			C21.8263969,25.8896618,21.8169956,25.8823338,21.7555637,25.8818893z M21.9445248,26.1811314l-0.0157681,0.0157642h-0.0157642
			c0.0105858-0.0576572,0.0261269-0.0673523,0.0472965-0.110281C21.9748688,26.1165161,21.9604359,26.1417542,21.9445248,26.1811314
			z M21.9917431,26.0550842H21.960289c-0.0137672-0.0578785-0.0268688-0.0780849-0.0157642-0.1259727
			c0.0157642,0.0105114,0.0315285,0.0210209,0.0472183,0.0315285V26.0550842z M22.6690521,29.9138355
			c0.0371552,0.0138416,0.02598,0.0059223,0.0472221,0.0315323C22.696661,29.934782,22.6837082,29.928196,22.6690521,29.9138355z
			 M22.8422451,27.3151093H22.810791v-0.0315304h0.0314541V27.3151093z M23.4408016,29.6303596h-0.0157642l-0.0157642-0.0157642
			c0.003109-0.0409298,0.006958-0.0535107,0.0157642-0.0787506h0.0157642V29.6303596z M23.7872658,26.3071041
			c-0.0646152,0.0440388-0.6868572-0.1324863-0.8032074-0.0315304c-0.136631,0.0797882-0.0587673,0.429285-0.1575031,0.5512619
			c-0.0162086,0.0127296-0.0039234,0.005846-0.0315304,0.0157642c-0.0302715-0.0447063-0.0203533-0.1323376-0.0472221-0.1889591
			c-0.0633564-0.1332264-0.1910305-0.1951027-0.1890316-0.3937588c0.0608406-0.0017014,0.0800095-0.0036259,0.110281-0.0315285
			c0.0156898-0.0052567,0.0314579-0.0105114,0.0472221-0.0157681c-0.0016289-0.0398941-0.0019245-0.0583229-0.0157642-0.0787506
			c-0.0169506-0.0119152-0.0145092-0.0098438-0.0472221-0.0156918c0.0070305-0.2822895,0.1565399-0.326107,0.2047253-0.5354939
			c0.1461029-0.0042191,0.1679382,0.0447044,0.2204876,0.1259708c0.1005859-0.0012569,0.3058281-0.0146542,0.3779945,0.0314579
			c0.3774719-0.0039978,0.1448441,0.1217556,0.3623009,0.1890335C23.8196831,26.025404,23.8323402,26.2365685,23.7872658,26.3071041
			z M29.2997265,25.7086201l0.0315323,0.0157681v0.0156898h-0.0315323V25.7086201z M28.8745117,25.6770916
			c0.1019192,0.0204277,0.2517986,0.0173187,0.3779945,0.0157642v0.0472221
			c-0.1598721-0.0011101-0.2270775-0.0316048-0.3779945-0.0314579V25.6770916z M27.0002403,25.566885v0.0157642
			c-0.0371552-0.0138397-0.02598-0.0059967-0.0472221-0.0315304C26.9687824,25.5563736,26.9844761,25.5616283,27.0002403,25.566885z
			 M26.6380119,28.0553284h-0.0157642v-0.031456h0.0157642V28.0553284z M28.228735,27.7246304
			c-0.0490723-0.0095463-0.0382671-0.0027351-0.0629864-0.0315285h0.0629864V27.7246304z M29.48876,26.7796135v0.1102066
			c-0.0171719,0.0287933-0.1307831,0.0376015-0.1575012,0.0630608c-0.0105114,0.0367107-0.0210209,0.0734959-0.0315323,0.1102104
			c-0.0322704,0.0445538-0.1140556,0.0745316-0.1575031,0.110281c-0.0119152,0.0169487-0.0098438,0.0145054-0.0157642,0.0472183
			h-0.0472202c-0.0148048,0.0341969-0.0313835,0.0652084-0.0472221,0.0945187c-0.0435963,0.0076237-0.0455208,0.019022-0.0787525,0
			c-0.2415104-0.0090294-0.142849,0.0404854-0.2204895,0.1732693c-0.0529957,0.0234604-0.41152-0.0269432-0.5040398-0.0472965
			c-0.1575012-0.0105095-0.3150063-0.0209465-0.4725094-0.031456c-0.2594223-0.0579529-0.5875282-0.105175-0.881958-0.1102829
			l-0.0157661-0.0157642c0.0052567-0.0891876,0.0105114-0.1784496,0.0157661-0.2677116l0.188961-0.0157642v-0.0787506
			c-0.1700134-0.015173-0.2804432-0.0658741-0.4882011-0.0629883c0.0006657,0.1262703,0.0696468,0.1130943,0.1575031,0.1417389
			l-0.0315323,0.2677841c-0.1112423,0.001852-0.2747421,0.0152473-0.3464622-0.0315285
			c-0.0149498-0.0265732,0.0040722-0.1514359,0.031456-0.1890354c0.0076237-0.1586113,0.1497326-0.2027245,0.2204895-0.2992401
			c0.1233101-0.1681633,0.2509098-0.3235188,0.3779945-0.4882011c0.084671-0.1096878,0.2232265-0.2085724,0.2677841-0.3150063
			c0.4864254,0.0042934,0.9368763,0.0822315,1.401762,0.1102085c0.0035534,0.0365639,0.003109,0.0444813,0.0156937,0.0630589
			c0.0145798,0.0424862,0.0270863,0.0461121,0.0472927,0.0787525c0.2204914,0.0156898,0.440979,0.0314579,0.6614704,0.0472221
			c0.0062904,0.0323429,0.0039215,0.0303459,0.0157642,0.0472202c0.0076237,0.0939274,0.0464821,0.1087284,0.1102829,0.1417389
			C29.5100021,26.5241146,29.5416069,26.6983452,29.48876,26.7796135z M30.7802429,25.8661232
			c-0.1962147-0.049736-0.3368416-0.0295296-0.5197315-0.0472927v-0.0314579
			c0.0860786,0.0153217,0.3419476-0.0298271,0.440979,0.0314579c0.0582485,0.0070286,0.0463314,0.0088062,0.0787525,0.0315285
			V25.8661232z M30.811697,25.8345947c-0.0051823,0.0052547-0.0104351,0.0105095-0.0156898,0.0157642v-0.0315285
			c0.0271645,0.0102119,0.0153942,0.003109,0.0314541,0.0157642H30.811697z M32.0245018,30.3075943h-0.0157661
			c0.0052567-0.0210209,0.0105095-0.0420399,0.0157661-0.0629864h0.031456
			C32.0442657,30.2810955,32.0396004,30.2797661,32.0245018,30.3075943z M32.0717239,30.2760658v-0.0314579
			c0.0270882,0.0095482,0.0495148,0.0146561,0.0945168,0.0157661
			C32.1441078,30.2754726,32.1145782,30.2762127,32.0717239,30.2760658z M32.5914536,30.4965534h-0.0157661v-0.031456h0.0157661
			V30.4965534z M32.4970093,30.3075943h0.0472221c0.0207977,0.0382652-0.0074005,0.0111027,0.031456,0.0315323v0.0786743
			C32.5466003,30.3810902,32.5248413,30.3417149,32.4970093,30.3075943z M32.5756874,29.8350868h-0.0786781v-0.0314579
			c0.0051842-0.0052567,0.010437-0.0105095,0.0156898-0.0157642c0.0571404,0.0029602,0.1928101,0.003479,0.2362556,0.0314541
			c0.0119934,0.0169487,0.009922,0.0145836,0.0157661,0.0472965C32.6919632,29.8672085,32.6186905,29.865284,32.5756874,29.8350868z
			 M34.4341965,30.7643394v0.0157642h-0.0157661c0.0135422-0.0293102,0.0224991-0.0416698,0.0315285-0.0787506
			C34.4639511,30.7317715,34.458992,30.7345848,34.4341965,30.7643394z M35.5681763,27.3938599
			c-0.0253906,0.0185795-0.1435165,0.0732021-0.1731949,0.0787506c-0.0061455,0.060545-0.0151024,0.137373-0.0472984,0.1732693
			c-0.0267944,0.0609875-0.0692024,0.0447788-0.0944405,0.1102085h-0.0630608v0.110281
			c-0.037674,0.0141373-0.0831947,0.0229454-0.1102066,0.0472221c-0.0258331,0.0366383-0.0315323,0.1145744-0.0315323,0.1732693
			l-0.0157661,0.0157642l-0.1731949-0.0157642c0.0235367-0.1221256-0.0042191-0.3041286-0.0315285-0.4252892
			c-0.0541763-0.2401772-0.0572853-0.442461-0.1732674-0.6142483c-0.2552032-0.3780651-1.001564-0.432169-1.3859978-0.173193
			c-0.1270103,0.0855618-0.1935501,0.2677841-0.2677116,0.4094486c-0.0603218,0.1152401-0.2489853,0.4548206-0.2047234,0.5985565
			l-0.2677841-0.0315304c-0.0035553-0.0364895-0.003109-0.0444088-0.01577-0.0629864
			c-0.0017014-0.0448532-0.0062866-0.0673523-0.0156898-0.0945168c-0.0399666-0.0016289-0.0583954-0.0019245-0.0787506-0.0157642
			c-0.1042862,0.0205765-0.1320419,0.095108-0.220562,0.1260452c-0.0618019,0.0368595-0.1885185-0.0123596-0.2834778-0.0157642
			l-0.0157642-0.0157642c0.0016289-0.0612106,0.0087337-0.1389999,0.0157642-0.157505
			c-0.0004444-0.0458889-0.0007401-0.0858555,0.0157642-0.110281c0.036417-0.022871,0.1364841-0.0091782,0.1732693-0.0314579
			h0.031456c-0.0035515-0.036562-0.003109-0.0444069-0.0157623-0.0629845
			c-0.0389328-0.0299759-0.1102829-0.0449276-0.1731949-0.0472965c0.0209465-0.1558743,0.1488419-0.2797737,0.2204895-0.3937569
			c0.0796394-0.1266384,0.1264915-0.2506142,0.2047234-0.3779926c0.0438156-0.0712757,0.1106529-0.1184978,0.1260452-0.2204895
			c0.3818436,0.001627,0.8237839,0.0048103,1.1654358,0.0787506c0.2301102,0.0498142,0.4825745,0.0017033,0.692997,0.0472965
			c0.1857796,0.0401897,0.4536362-0.0412998,0.598484,0.0472202c0.0180588,0.02635,0.0260544,0.1075439,0.0315323,0.1417389
			c0.2467613,0.0210209,0.4935265,0.0420399,0.7402191,0.0629864c0.0045891,0.1192379,0.0447044,0.1165733,0.0630608,0.1732693
			C35.8138275,26.9992142,35.6075516,27.3443451,35.5681763,27.3938599z M39.3167191,18.5423775h0.0156898
			c-0.0198326,0.0456676-0.0219078,0.0147285-0.0472221-0.0156918
			C39.3123512,18.5368271,39.3005829,18.5297203,39.3167191,18.5423775z M38.9544182,28.260128
			c-0.0052567,0.0052567-0.0105133,0.0104351-0.0156937,0.0156918c-0.0777893-0.0010376-0.2456551-0.0161362-0.2677841-0.031456
			c-0.1699371-0.0076237-0.2340317,0.035675-0.2677116,0.1575012l-0.5355682-0.0472946
			c-0.0051804-0.0052547-0.010437-0.010437-0.0156898-0.0156898c0.0082855-0.2107944,0.0499573-0.3546791,0.0629845-0.5512619
			c0.0757904-0.0020733,0.2214508-0.0220566,0.2677116-0.0629883c0.0883713-0.0017738,0.0948868-0.0027351,0.0945168,0.047224
			c0.1751175,0.0094719,0.515583,0.0612831,0.6457787-0.0315304c0.0363388,0.0051804,0.0390778,0.0073261,0.0629845,0.0157642
			C38.9689255,27.8990841,38.9696655,28.1169834,38.9544182,28.260128z M39.3009529,27.0946198
			c-0.0760117,0.1220512-0.1914024,0.2452087-0.2362556,0.3937588c-0.0981407-0.0235367-0.1197548-0.1217556-0.1890335-0.1732693
			c-0.1143494-0.0849686-0.2888031-0.1232338-0.3937569-0.2204895H38.466217
			c0.0019226-0.1088753-0.0107307-0.1465511-0.0472946-0.2047997h-0.0472221
			c0.0419655-0.1259727,0.0840073-0.2519455,0.1259727-0.3779926c0.0372314-0.0422611,0.0999184-0.01754,0.1260452-0.0787506
			c0.0693512-0.1626854-0.024498-0.2865105-0.0157623-0.3936844c0.0067329-0.0828953,0.071125-0.2599392,0.0157623-0.3465366
			c-0.0052528-0.0157642-0.0105095-0.0315285-0.0157623-0.0472202H38.497673
			c0.0072517-0.231369,0.0351562-0.4360943,0.0787506-0.6300125V24.716383
			c0.0093269-0.0316811,0.0298271-0.0487041,0.0315323-0.1102848V24.417141
			c0.0347099-0.1011047,0.2397346-0.3180428,0.1575012-0.4725113c-0.0056229-0.1006584-0.038784-0.0990295-0.0787506-0.1575012
			c-0.1259727-0.0157661-0.252018-0.0315304-0.3779945-0.0472221c0.0119171-0.353569,0.1467743-0.8477631,0.2362556-1.1655083
			c0.0369339-0.1313763,0.0260544-0.2329235,0.0629883-0.3623009c0.1358147-0.4759903,0.2059097-0.9735889,0.3622284-1.4489841
			c0.0697937-0.2122746,0.2084961-0.5397167,0.2204895-0.7717533h0.0157623
			c0.0187263,0.0542564-0.0039215,0.1495113,0.0157661,0.2205658c0.0857086,0.3096771,0.0533638,0.6679096,0.1259727,1.0079308
			c0.0708313,0.3315849,0.0705338,0.8408813,0.157505,1.2128029c0.0377464,0.1614265-0.0105133,0.2788887,0.0315285,0.4409809
			c0.0583954,0.2252254,0.0344162,0.4915295,0.0944443,0.740221c0.0177612,0.0734215,0.0641708,0.2481709,0.0630608,0.3150043
			c-0.002964,0.1676445,0.0164261,0.4419403,0.0629845,0.6142483c0.0365601,0.1353741-0.0234642,0.2757778,0,0.3937569
			c0.0017738,0.0091057,0.0341187,0.1000671,0.0314522,0.1102829c-0.0127258,0.0492935-0.0929565,0.1028786-0.1102066,0.1574268
			c-0.0258293,0.0819359,0.0150261,0.2881413,0.031456,0.3623047c0.0503311,0.2269268-0.0371552,0.4928608,0.1102867,0.6142464
			c-0.0248718,0.1220512-0.1160545,0.2070923-0.1732712,0.299242C39.5204048,26.684948,39.4280357,26.8904858,39.3009529,27.0946198
			z M39.8364487,28.3545704c-0.1417351-0.010437-0.2835464-0.0209465-0.4252892-0.0314541
			c-0.0052567-0.0052567-0.0105095-0.0105114-0.015686-0.0157681c-0.0006676-0.3490524,0.1708946-0.4793911,0.3149261-0.7087631
			c0.0421906-0.0670586,0.0569191-0.1355209,0.1102867-0.1889591c0.0169449-0.0119915,0.014576-0.0099182,0.0472183-0.0157661
			c0.0021439,0.1313038,0.0440369,0.4262505-0.0156898,0.5197315
			C39.8534737,28.0505943,39.8733063,28.2452526,39.8364487,28.3545704z M40.1041603,24.6218662
			c-0.0323448-0.0062923-0.0303459-0.0039234-0.0472183-0.0157681c0,0-0.0618057-0.0035496-0.0315361-0.0157642
			c0.0052567-0.0051804,0.0105133-0.0104351,0.01577-0.0156898h0.0787506
			C40.1146698,24.5903339,40.1094131,24.6060982,40.1041603,24.6218662z M6.6198688,23.1571159l0.0157642-0.0157661H6.6041031
			C6.5892262,23.1579285,6.6089883,23.1591873,6.6198688,23.1571159z M15.1041651,28.3376961
			c-0.0141363,0.0043678-0.0226479-0.0009632-0.0108805,0.0326385c0.0219822,0.0114727,0.0199099,0.0051079,0.0472956-0.0157642
			c0.0271635-0.0101414,0.0153952-0.0030346,0.031456-0.0156898c-0.0156908-0.0052567-0.031456-0.0105114-0.0472212-0.0157642
			c-0.0061426,0.0101376-0.0088816,0.0064373-0.0139141,0.0097675c-0.0000734,0.0020733-0.0018501,0.0039234-0.0018501,0.0059967
			C15.1049795,28.3384361,15.1068296,28.3382149,15.1041651,28.3376961z M26.0395298,30.4178009h0.0314579v-0.0314541h-0.0314579
			V30.4178009z"/>
	</g>
</g>
<g>
	<g>
		<path fill="#FFFFFF" d="M40.8051529,23.9053288c-0.1460304-0.0498848-0.4218102,0.045372-0.5512619-0.031456
			c-0.1207161,0-0.2415085,0-0.3622246,0c-0.0524788-0.4776897-0.1050262-0.9555302-0.157505-1.4332199
			c-0.0782318-0.3369884-0.058918-0.7043972-0.1417351-1.0552979c-0.1814156-0.7687187-0.1974716-1.6041946-0.3779984-2.3624744
			c0-0.0419674,0-0.0840073,0-0.1259727c-0.038414-0.151804-0.1103554-0.3669643-0.0945129-0.5512619
			c0.0058479-0.0680923,0.0426331-0.068758,0.0629845-0.110281c0.0714226-0.1453648,0.0025177-0.3252201-0.0944405-0.3936844
			c0.0039177-0.1547642,0.1022148-0.4825745,0.1731911-0.5827904c-0.0377464-0.188591-0.3904266-0.1317463-0.5354919-0.2204895
			c-0.0104408,0-0.0209465,0-0.0314598,0c0.0113983-0.0961456,0.0299759-0.2456551,0.0787506-0.3150063
			c0-0.0419674,0-0.0840073,0-0.1259727c-0.3721428-0.0934811-0.9974174-0.0315323-1.4332924-0.0315323
			c-0.2936897,0-0.4853859-0.0207958-0.6614685,0.0945187c-0.0342674,0.1281929-0.0747528,0.7029152,0.0315323,0.8189716
			c0.0495872,0.1433659,0.2191544,0.1517296,0.3622246,0.2047977c0.2227859,0.0825253,0.4977493,0.1390743,0.7402229,0.2047253
			c0.1262665,0.034193,0.2806625,0.0149498,0.3779907,0.0787506c0.0207253,0.0343437-0.0331573,0.1031761-0.0156898,0.1732693
			c0.0107346,0.0430756,0.0685387,0.0970325,0.0787506,0.1259727c0.0259819,0.0741615-0.0732002,0.2459488-0.0945168,0.2992401
			c-0.021019,0.0945168-0.042038,0.1890335-0.0629845,0.2834778c-0.0521088,0.1592789-0.1213837,0.3614864-0.1732712,0.519804
			c-0.0573578,0.1748981-0.0595818,0.3261833-0.1102791,0.5039654c-0.083786,0.2942066-0.1632042,0.6363773-0.2519455,0.9292545
			c-0.0738678,0.2435818-0.0747566,0.4627399-0.1418152,0.7087631c-0.0863724,0.3170052-0.1290054,0.6548061-0.2204857,0.9922409
			c-0.0463333,0.1709728-0.1076927,0.3789539-0.1259766,0.5669518c-0.0052528,0.0052528-0.0105057,0.0105095-0.0157623,0.0157642
			c-0.2691193-0.003849-0.7226067-0.0810452-0.9134903,0.0472946c-0.1515083,0.1017704-0.203167,0.3286247-0.3307724,0.4567451
			c-0.08741,0.0529938-0.2060547,0.0392284-0.283474,0.0944424c-0.2039108,0.145586-0.3453522,0.4532642-0.4882736,0.6615429
			c-0.0518837,0.0756435-0.2340355,0.2886581-0.1259766,0.4567432c0.0240555,0.0700207,0.083786,0.0921478,0.1732712,0.0945168
			c0.0180588,0.1102848,0.0109558,0.3353615,0.0157661,0.4724369c-0.0863762-0.0009632-0.3256683,0.0118408-0.3937607-0.031456
			c-0.1504707-0.0079193-0.287693-0.033308-0.3150063,0.0945168c-0.7372589-0.0056992-1.4584579-0.0980701-2.1735115-0.1418133
			c0.0146561-0.0452232,0.0508499-0.0731258,0.0629845-0.1102066c0.0476685-0.1452923-0.0259781-0.3514957,0.0472984-0.4725094
			c-0.0008163-0.0486279-0.0054779-0.0807514-0.0157661-0.110281c-0.0524788,0-0.1050262,0-0.1575012,0
			c0.0262718-0.3412094,0.052475-0.6824894,0.0787506-1.0236969c0.020649-0.0946674-0.017025-0.2621613,0-0.3150063
			c0.0216827-0.0674286,0.1149445-0.109766,0.1417351-0.1890335c0.0245018-0.0343437,0.0249443-0.1546898,0-0.188961
			c-0.0681648-0.1812592-0.5192852-0.1395893-0.7402191-0.1890316c-0.223671-0.0499592-0.8243752-0.1343365-1.0395355-0.047224
			c-0.1825924,0.0739441-0.3104172,0.2364044-0.4567432,0.3464661c-0.0783806,0.059063-0.1862221,0.1205673-0.2204895,0.220562
			c-0.4643688,0.0025902-0.6472588,0.3162651-0.881958,0.5511875c-0.0993271,0.0994759-0.2525387,0.2175293-0.299242,0.3623009
			c0,0.0629864,0,0.1259747,0,0.1889591c0.0536594,0.0498123,0.0914822,0.066391,0.1731949,0.0945168
			c-0.0005188,0.1700859,0.0282745,0.3190041,0.0315285,0.5039654c-0.109911-0.0008869-0.5600681-0.0034771-0.6300106-0.0472202
			c-0.1395187-0.0078468-0.1959171,0.0019989-0.2204914,0.110281c-0.1461029,0.0005188-0.7770805-0.0174675-0.850502-0.0630608
			c-0.0577316,0-0.1155357,0-0.1732674,0c0.0208721-0.0571404,0.0748272-0.0793419,0.0945168-0.1259727
			c0.0616531-0.1458092,0.0150242-0.3987885,0.0629864-0.5512619c-0.0488491-0.0170231-0.132782-0.0174675-0.2047234-0.0157642
			c0.0105095-0.3149338,0.0210171-0.6300106,0.0315285-0.9449444c0.0000744-0.1093922,0.0282726-0.3396511,0-0.3937588
			c0.0172462-0.1048031,0.0914078-0.0714226,0.1259727-0.1575031c0.010067-0.0234604,0.0195389-0.0068073,0-0.0315285
			c0.0002213-0.0677223,0.0062923-0.1286373-0.0315304-0.157505c-0.0914803-0.0698681-0.2232265-0.0148754-0.3622265-0.0472183
			c-0.1654968-0.0384884-0.3666687,0.0113964-0.5512619-0.0315323c-0.1173878-0.0273094-0.3505325-0.0643921-0.4882011-0.031456
			c-0.3089371,0.0737915-0.5499268,0.1824455-0.8032799,0.3150063c-0.0639477,0.0334549-0.1388512,0.1028805-0.2047253,0.1259727
			c-0.1672726,0.0586205-0.3682957,0.0131741-0.519804,0.0787525c-0.1059132,0.0458889-0.2037601,0.1445503-0.2992401,0.2047234
			c-0.2506123,0.1581688-0.4954548,0.319521-0.740221,0.4725094c-0.0123596,0.0545483-0.0352306,0.1846676,0,0.2362556
			c0.0170231,0.0478115,0.0145073,0.046629,0.0629883,0.0629864c0.0265694,0.0201321,0.0671291,0.0276794,0.110281,0.0315304
			c0.010952,0.1025848-0.0028877,0.3169308,0.0472202,0.3937569c0,0.0419674,0,0.0840054,0,0.1259727
			c-0.1772633-0.0588417-0.6739769-0.0002956-0.8032055-0.0787525c-0.1058426,0.002739-0.1532841,0.0565472-0.1732693,0.1417389
			c-0.021019,0-0.0420399,0-0.0629864,0c0.0088081-0.1163502,0.0629864-0.0899258,0.0944424-0.1575031
			c0.0493679-0.1058388-0.0111008-0.2678585,0.0472965-0.3622265c0.0017757-0.058176,0.0068817-0.13937-0.0157642-0.1732674
			c-0.0385628-0.0258331-0.1405544-0.0181351-0.2047272-0.0157661c-0.0052547-0.0051804-0.0105076-0.010437-0.0157642-0.0156918
			c0.0114708-0.0617275,0.0412998-0.1157589,0.0472221-0.141737c-0.0052547-0.1102829-0.0105114-0.2205639-0.0156918-0.3307724
			c0.0205746-0.0655022,0.0995483-0.1272316,0.1259727-0.1890335c0.0741634-0.1736393-0.0573616-0.332695-0.110281-0.440979
			c0.1039886-0.0814915,0.2110901-0.2561665,0.1260452-0.440979c-0.0215378-0.0467033-0.112278-0.1218281-0.141737-0.1890335
			c-0.205761-0.4694748-0.399456-0.947979-0.6457767-1.3859978c-0.068243-0.0123596-0.2565346,0.0051804-0.3150063-0.031456
			c-0.1469936,0-0.2939873,0-0.440979,0c-0.1522484,0.2834759-0.3044987,0.5670261-0.4567451,0.850502
			c-0.0350838,0.0123596-0.0856342,0.0167274-0.141737,0.0156898c-0.0339012,0.0960712,0.0031796,0.220047-0.0315323,0.3307724
			c-0.0589161,0.1880703-0.3187046,0.4831676-0.1259708,0.6772327c0,0.0052567,0,0.0105114,0,0.0157661
			c-0.1779327,0.0357494-0.4180374-0.0045147-0.5827923,0.0472965c-0.1104317,0.0347118-0.2226353,0.1170158-0.3150063,0.173193
			c-0.2204151,0.1341152-0.4598522,0.2418079-0.6772346,0.3623009c-0.0652065,0.0361195-0.3936825,0.041153-0.4567432,0
			c-0.0524769,0-0.1050262,0-0.1575031,0c0.0173931-0.1461029-0.015543-0.3878365-0.0157661-0.5670242
			c-0.0000725-0.0800838,0.0170231-0.2152348-0.0156898-0.267786c-0.0067368-0.1532841,0.0279026-0.177412,0.1259727-0.2204895
			c-0.00037-0.0429287-0.0005913-0.0721645-0.0157661-0.0944424c-0.0180588-0.1700859-0.177412-0.0922966-0.3307705-0.1260471
			c-0.0789738-0.0173931-0.8169727-0.0572872-0.9607105-0.0157642c-0.2929497,0.0847473-0.5868626,0.2226334-0.8662663,0.3465347
			c-0.0369339,0.0163574-0.0879297,0.0662441-0.1259737,0.0787525c-0.1785231,0.0052547-0.3570461,0.0105095-0.5354958,0.0157642
			c-0.2819958,0.0734959-0.488348,0.22789-0.7087641,0.3622265c-0.0868931,0.0529232-0.1822243,0.0738697-0.2520199,0.1417389
			c-0.0104361,0-0.0209465,0-0.031455,0c-0.0061445-0.3124161-0.013175-0.6295662-0.0629873-0.8977203
			c0.0474434-0.0233154,0.0849686-0.0493698,0.141737-0.0629883c-0.0014048-0.0606174-0.0053282-0.0934792-0.0315285-0.1260471
			c-0.0407829-0.0972557-0.1036959-0.0545483-0.2204905-0.0787525c-0.1882935-0.0389309-0.7846298-0.0724602-1.0080061,0
			c-0.2492065,0.0808983-0.5081091,0.1649799-0.7559853,0.2677879c-0.0703869,0.0291595-0.1609812,0.0891113-0.2362537,0.1102066
			c-0.0682411,0-0.1364832,0-0.2047243,0c-0.1957693,0.0000744-0.387023-0.0093269-0.5354967,0.0472946
			c-0.5197296,0.2572002-1.0395346,0.5144768-1.5592661,0.7717514c-0.034194,0.0877056-0.0067348,0.1359653,0,0.2519455
			c0.0472212,0.0052528,0.0945168,0.0105095,0.1417389,0.0157642c0.0175409,0.1458092,0.0897789,0.2542419,0.0945168,0.4095249
			c-0.3779192-0.0210209-0.7560596-0.0420418-1.1339788-0.0629883c-0.0225-0.1614265-0.0959234-0.3030891-0.1417379-0.4410515
			c-0.0656509-0.1974716-0.0909634-0.368742-0.1575031-0.5669537c-0.0555849-0.1654968-0.1484728-0.3649654-0.1890335-0.5354939
			c-0.0194654-0.0821571,0.0467033-0.0673561,0.0315304-0.1417389c-0.0591373-0.2894726-0.2060566-0.6044044-0.2992411-0.8820343
			c-0.1343365-0.4000473-0.2250786-0.7821102-0.3623018-1.1812725c-0.108283-0.3150806-0.1928821-0.652216-0.3149323-0.9764748
			c-0.0708318-0.1881447-0.1705289-0.3930187-0.1575027-0.6142483c0.0515141-0.0476646,0.1104298-0.0886688,0.1731939-0.1259727
			c0.0054774-0.1891079,0.0013328-0.292284-0.1102076-0.3622265c0-0.0105114,0-0.0210209,0-0.0315304
			c0.1572075-0.0802326,0.2820697-0.2069454,0.4252138-0.299242c0.0490718-0.2188606-0.0179853-0.4608879-0.0472212-0.6772327
			c-0.2488375-0.062542-0.591229,0.0623932-0.8347368,0.1259727c-0.0788994,0.0205746-0.2144942,0.0042934-0.2520199,0.0629864
			c-0.051662,0.0809708,0.0501819,0.2413616,0.0787516,0.3150063c-0.1406279,0.0573597-0.2279649,0.1216793-0.3464622,0.1890335
			c0.0244246,0.0661678,0.0352306,0.1424026,0.0786772,0.1889591C6.4075942,17.613863,6.306046,17.5712318,6.2498693,17.652647
			c-0.0262756,0.038044-0.0126562,0.066021-0.0472956,0.0945168c0.0425587,0.1386299,0.0042191,0.2533512,0.1418123,0.330698
			c-0.089262,1.3228626-0.1785235,2.6461716-0.2677851,3.9690342c-0.0710545-0.0153217-0.0773454-0.0587692-0.1259727-0.0787525
			c-0.0578055,0-0.1155367,0-0.1732683,0c-0.2176032-0.0481091-0.5317216-0.0744591-0.7087641,0.0157661
			c-0.0291619,0.1062851-0.0805283,0.2788124,0,0.3779926c0.0185776,0.0814896,0.0982175,0.1184235,0.1890335,0.1259747
			c0.0101399,0.0271606,0.0030341,0.0153942,0.0156913,0.0315285c-0.0341949,0.0279045-0.0760875,0.0325661-0.1417384,0.031456
			c-0.0052552,0.0052547-0.01051,0.0105114-0.0156913,0.0157661c-0.0019984,0.064539-0.0102139,0.1657181,0.0156913,0.2047234
			c0.0222783,0.1857758,0.4155178,0.3665199,0.5512609,0.4725113c0.0427804,0.0333786,0.3204832,0.6284561,0.3465366,0.7087631
			c0.0052547,0.5196552,0.0104356,1.0395336,0.0156908,1.559267c0,0.1501007-0.0381174,0.5341625,0.0157652,0.5984821
			c0.0059953,0.0046597,0.3793249,0.0928879,0.3937578,0.0944424c0.0035529,0.036562,0.0031085,0.0444832,0.0157652,0.0630608
			c0,0.0261993,0,0.052475,0,0.0787506c0.1920681,0.0333805,0.5405288-0.1197548,0.630012-0.0630608
			c0.0419669,0,0.0840068,0,0.1259732,0c-0.0101395,0.0272369-0.0031085,0.0154686-0.0157647,0.0315304
			c-0.0394502,0.0322685-0.1221242,0.0452976-0.1889596,0.0472221c-0.0005178,0.0459614-0.000814,0.0858555,0.0156913,0.110281
			c0,0.0105095,0,0.0210209,0,0.0315285c0.1473627,0.0287933,0.6672416,0.1227169,0.8348107,0.0787525
			c0.2056131-0.0540314,0.4421635-0.1406269,0.6772337-0.1575031c0-0.0315304,0-0.0630589,0-0.0945168
			c0.0992537,0.0002956,0.2621593,0.0026646,0.3306971,0.0472221c0.1033993,0.0040722,0.0797148,0.0315285,0.1418123,0.0629864
			c0.0670576,0.0444069,0.2468386,0.0344162,0.3464622,0.0315304c0-0.0157642,0-0.0315304,0-0.0472221
			c0.2081289-0.002737,0.2996855-0.0674267,0.4725094-0.0787506c0.0045156,0.0450745,0.0094738,0.1395168,0.0315304,0.1731949
			c0.0051813,0.0157642,0.0104361,0.0315285,0.0156918,0.0472946c0.1892548,0.0052547,0.4433479,0.0828972,0.5670252-0.0315304
			c0.0105104,0,0.0210209,0,0.0315313,0c-0.00459,0.0623951-0.0233154,0.1035461,0,0.141737
			c-0.0024433,0.1729736-0.0165806,0.384285,0.0472212,0.4882755c0.1763029,0.0078449,0.354825,0.0627632,0.5827169,0.0629864
			c0.1663847,0.3767357,0.326108,0.5743523,0.8820324,0.5670261c0.0976992-0.1062851,0.1418858-0.1607609,0.3306971-0.1417389
			c0.0525503,0.0052567,0.1050272,0.010437,0.1575031,0.0156918c0.0592117,0.0324936,0.0714979,0.1412945,0.1260462,0.1732674
			c0.0209465,0,0.0419674,0,0.0629873,0c0.0740881,0.0375996,0.1402569,0.1223469,0.2204895,0.1575031
			c0.2350702,0.1030293,0.6120272,0.1600208,0.9134884,0.0945168c0.0787516,0,0.1575041,0,0.2362547,0
			c0.0630608-0.0218353,0.1284895-0.1099854,0.1890335-0.141737c0.1027317-0.0540314,0.1749706-0.0652809,0.2362547-0.1575031
			c0.0212421-0.0163574-0.0062914-0.0244255-0.0157652-0.0629864c0.0354538-0.0093269,0.0194654-0.0052567,0.0423365-0.0011845
			c0.0020723-0.0005932,0.0042925-0.0032578,0.0067348-0.0048122c0.0079937-0.1495819,0.206872-0.2626019,0.2344046-0.4507465
			c0.0837841,0.0534382,0.0646887,0.2846584,0.1102829,0.3779907c0.0988083,0.2023582,0.319891,0.3212223,0.3936825,0.5511875
			c0.0052547,0,0.0105104,0,0.0157652,0c0.031086,0.0088806-0.031455,0.0157661-0.031455,0.0157661
			c0.1035461,0.1321144,0.3378019,0.1495075,0.582716,0.1417351c0.0538092-0.0558796,0.1261206-0.077713,0.1890335-0.1259708
			c0.0330095-0.0253143,0.0416708-0.0690556,0.0787516-0.0945168c0,0-0.0035534-0.0618019-0.0157661-0.0314579
			c-0.0052528,0.0052567-0.0105095,0.0105114-0.0157642,0.0156937c0.0865231-0.1753407,0.2094612-0.4185543,0.2204895-0.6457043
			c0.2485428,0.0113239,0.5799789,0.0515881,0.8032799,0.031456c0.02598,0.0908165-0.002737,0.3024979,0.0156918,0.4725094
			c0.0855618,0.0180588,0.6391907,0.0824528,0.6457787,0.0787525c0.0419655,0,0.0840054,0,0.1259727,0
			c0,0.0105076,0,0.021019,0,0.0315285c-0.0271645-0.0101395-0.0153942-0.003109-0.031456-0.0157642
			c-0.0315304,0-0.0629864,0-0.0945168,0c0.1320419,0.1948071,0.2679329,0.4130764,0.3307705,0.6772327
			c0.3715534,0.0985146,0.8347378,0.0865993,1.2284946,0.1732693c0.1259727,0,0.2520218,0,0.3779926,0
			c0.1353741,0.0295334,0.4647388,0.1073952,0.6300144,0.0629864c0.1444016-0.0388584,0.1756363-0.1738605,0.2992401-0.2204895
			c0.1006603-0.0632076,0.3375816,0.0454445,0.4882011-0.0157661c0.0666866-0.0270882,0.1260452-0.1128712,0.1890316-0.1417389
			c0.1783028-0.0816364,0.4180355-0.1456585,0.5512619-0.2677097c0.0156918,0,0.031456,0,0.0472202,0
			c-0.0560284,0.1561718-0.0382652,0.5577755-0.1102066,0.6772346c-0.0035534,0.0703144,0.0092525,0.0586185-0.0315304,0.0629864
			c0.0062904,0.0323429,0.0039215,0.0303478,0.0157661,0.0472221c0,0-0.0035534,0.0618-0.0157661,0.0315285
			c-0.0052547-0.0052547-0.0105095-0.0105076-0.0157661-0.0157642c0.0070324,0.0468502,0.0079937,0.0531425,0.0315323,0.0787525
			c0,0.0052547,0,0.0105095,0,0.0157642c0.01717-0.0268688,0.0082874-0.0485554,0.0157642-0.0629864
			c0-0.0105095,0-0.0210209,0-0.0315304c0.0243511,0.0367851,0.0222778,0.1080608,0.0472221,0.1417389
			c0.0831909,0.0675735,0.5944843,0.1349297,0.6457024,0.0629845c0.0210209,0.0210209,0.0420399,0.0420418,0.0630608,0.0630608
			c0.1794128-0.0065136,0.4998207-0.1771908,0.6142464-0.2677841c0.048111-0.0646152,0.0369339-0.3022022,0.0156918-0.3464622
			c-0.0017014-0.1532097-0.0418167-0.6963291,0.0157661-0.7875175c0.1306362-0.0885201,0.4136658-0.0379677,0.5827923-0.0157642
			c0.00037,0.0429287,0.0005913,0.0721645,0.0156898,0.0945168c0,0.0105114,0,0.0210209,0,0.0314579
			c0.0262737,0,0.0525494,0,0.0787525,0c0.0011845,0.3329906,0.0196133,0.707283,0.1732674,0.8977966
			c0.0867443,0.1075439,0.2705231,0.1561699,0.3465366,0.2677116c0.0512161,0.0752735,0.0402641,0.198431,0.0944424,0.2677841
			c0.1014004,0.126194,0.6265335-0.0010357,0.7245293-0.0787506c0.0457401-0.0367107,0.09585-0.1400375,0.1259727-0.1890335
			c0.0487022-0.010067,0.105175-0.0167294,0.1732674-0.0157661c0.0619507,0.0592117,0.1307831,0.075716,0.1732674,0.1575031
			c0.3690376-0.0301971,0.6761246-0.6477013,0.6772346-1.0709934c0.1112461-0.0450726,0.1648312-0.1070232,0.2204895-0.2047234
			c0.2955418,0.001482,0.6054401,0.0366383,0.8662682,0.0945168c0.1063595,0.0236111,0.2107182-0.0161343,0.2834759,0.0314579
			c0.0052547,0,0.0105095,0,0.0157661,0c-0.001482,0.0868912,0.0052547,0.1401825,0.0314541,0.1890335
			c0.1042881,0.0028858,0.270895,0.0092506,0.3307724,0.0629864c0.0389309,0.023386,0.0292358,0.0194664,0.0315285,0.0787487
			c0.0577335,0.0157681,0.1154652,0.0315323,0.1731968,0.047224c0.1435871,0.0075493,0.3711071,0.052475,0.3780651-0.0944424
			c0.0462608,0.0159855,0.0675774,0.0492172,0.1102085,0.0629864c0.1256027,0.0405598,0.2228584-0.0124359,0.3622284-0.0157681
			c-0.0019245,0.4651089,0.0341206,1.1604786,0.3150043,1.2757187c0,0.0052528,0,0.0105095,0,0.0157642
			c-0.0449982-0.0056992-0.068018-0.0102882-0.0944424-0.0314579c-0.0052528,0-0.0105095,0-0.0157642,0
			c0.0291634,0.1344872,0.156023,0.0790482,0.2677097,0.1259747c0.1250858,0.0525494,0.1934738,0.1625366,0.2520199,0.2834759
			c0.0321236,0.0111771,0.0956268,0.0005913,0.1417389,0.0157661c0.0568428,0.0187263,0.1243458,0.0689812,0.1890335,0.0945168
			c0.0676498-0.1213837,0.1217537-0.2869568,0.2362556-0.3622284c0.2366982-0.1557274,0.5577736,0.0019245,0.6142464,0.2204895
			c0.1939182-0.0569916,0.2205639-0.6558437,0.6614685-0.5354958c0.0443363,0.012064,0.1188679,0.050848,0.1575031,0.0787525
			c0.0893345,0.0644646,0.0908146,0.1796322,0.157505,0.2677097c0,0.0682411,0,0.1364841,0,0.2047977
			c0.0472221,0.0262032,0.0945168,0.0524769,0.1417389,0.0786781c0.0702362,0.0516624,0.0751953,0.1315231,0.1259689,0.2047997
			c0.0558815,0.0805264,0.1779327,0.1042862,0.2362556,0.1889591c0.20998,0,0.4200325,0,0.6300125,0
			c0.076458,0,0.2025795,0.0153942,0.252018-0.0156898c0.1085815-0.021244,0.153511-0.1534328,0.2204933-0.2205658
			c0.0682411-0.068243,0.1364822-0.1364822,0.2047234-0.2047234c0.0526237-0.0987358,0.039299-0.228632,0.0629845-0.3150063
			c0.068615-0.2494297,0.2062073-0.5249119,0.2205658-0.8189735c0.126564-0.0002956,0.1592064,0.0253143,0.2361794,0.0629883
			c0,0.0210209,0,0.0420399,0,0.0629864c0.1962891,0.0106583,0.3957558,0.0600243,0.5670242,0.0157642
			c0.0052567-0.0262756,0.0105133-0.0524769,0.01577-0.0787506c0.021019,0,0.0419617,0,0.0629845,0
			c-0.003849,0.4609623-0.0150261,0.8829937,0.1575012,1.1655083c0.0210228,0.0629845,0.0419693,0.1259708,0.0629883,0.1889591
			c0.0190201,0.0165043,0.4252892,0.0832672,0.4882736,0.110281c0.1113205,0.0476665,0.1633492,0.1787453,0.2677116,0.2204895
			c0.0448532,0.0147285,0.062912-0.0279045,0.1102829-0.0472221c0.073494-0.0105095,0.1469917-0.021019,0.2204895-0.0315285
			c0.1173134-0.042263,0.2287025-0.167347,0.3622246-0.2047253c0.1432953-0.0401878,0.3673363,0.0301247,0.4725113-0.0472946
			c0.0763092-0.0541782,0.1369286-0.2606812,0.1417389-0.3779945c0.1453629-0.0293083,0.1802979-0.1797791,0.2835503-0.2519455
			c0.0016289-0.0398941,0.0019226-0.0583973,0.0156898-0.0787525c0.0040703-0.1620903-0.0542526-0.1399593-0.1731949-0.1732674
			c0.0032578-0.1400337,0.0334549-0.2510567,0.0472221-0.3779907c0.0419655,0,0.0840073,0,0.1259727,0
			c0.0020714,0.0809708,0.0185051,0.2311459-0.0156898,0.283474c0.0101395,0.0271645,0.0030327,0.0153942,0.0156898,0.0315323
			c0.0774193,0.0540295,0.5364571,0.0925179,0.6615448,0.0944424c0.0014038,0.0606174,0.0052528,0.0934792,0.0314522,0.1260452
			c0.0367126,0.083416,0.1310081,0.0364895,0.2047997,0.0787525c0.1799278,0.003479,0.1519547-0.0493679,0.2362556-0.1260471
			c0.2113876-0.092371,0.7191277,0.1558762,0.9764748-0.0156898c0.1487694-0.0991802,0.2727432-0.4007168,0.3307724-0.5827904
			c0.0515137-0.161871-0.0844498-0.2250805-0.0630608-0.3464661c0.0302696-0.1717129-0.0261993-0.423954,0.0157661-0.6142464
			c0.0553589-0.250761,0.0308647-0.6259422,0.0315285-0.8662663c0-0.1522484,0-0.3044949,0-0.4567451
			c-0.0052567-0.2362537-0.0105095-0.4725075-0.0157661-0.7087631c0-0.0831928,0.0188026-0.2284832-0.0157623-0.2834759
			c0-0.0997715,0-0.199543,0-0.299242c0.0279007-0.0521793,0.1774864-0.0686836,0.2362556-0.0945168
			c0.1973953-0.0865974,0.4346848-0.1902905,0.6142464-0.299242c0.0321198-0.1218262,0.0504036-0.2651939,0.0472221-0.440979
			c-0.0640259,0.0008144-0.1312294-0.0011826-0.1731949-0.0157642c0.0301971-0.1150913,0.2204132-0.1274509,0.283474-0.2204895
			C41.1311874,24.3413486,41.0061035,23.9740143,40.8051529,23.9053288z M6.0450706,22.5981579
			c-0.0446305-0.0128784-0.0637269-0.0109558-0.1259727-0.0157661c0-0.0157642,0-0.0315304,0-0.0472965
			c0.0705361,0.0008888,0.0522547,0.0146542,0.0945168-0.0314541c0.01051,0,0.0210199,0,0.031456,0
			C6.0450706,22.5350952,6.0450706,22.5666275,6.0450706,22.5981579z M6.4073725,17.951889c-0.01051,0-0.0210204,0-0.0315304,0
			c0-0.0105114,0-0.0210209,0-0.0315304c0.01051,0.0052547,0.0210204,0.0105095,0.0315304,0.0157642
			C6.4073725,17.9413776,6.4073725,17.9466343,6.4073725,17.951889z M6.4230633,17.7943859c-0.0104361,0-0.0209455,0-0.031456,0
			c-0.0126567-0.041153-0.0195398-0.0373039-0.0315304-0.0787525c0.0210204,0.0052547,0.0420408,0.0105114,0.0629864,0.0157661
			C6.4230633,17.7524185,6.4230633,17.773365,6.4230633,17.7943859z M6.927103,21.5901508c0,0.0156918,0,0.031456,0,0.047224
			c-0.0119162-0.0169525-0.0099182-0.0145836-0.0157647-0.047224C6.9165926,21.5901508,6.9218478,21.5901508,6.927103,21.5901508z
			 M6.9113383,21.6689034c0.0119162,0.0168743,0.0099173,0.0145073,0.0157647,0.0472202c-0.0262752,0-0.0524764,0-0.0787511,0
			C6.8773656,21.6929588,6.8905401,21.7051697,6.9113383,21.6689034z M6.8168211,21.6058426c0,0.0105114,0,0.0210209,0,0.0315323
			c-0.0052547-0.0052567-0.01051-0.0105114-0.0156913-0.0157681c-0.0301237-0.0261993-0.0525503-0.0999203-0.0630603-0.141737
			C6.7849951,21.5066624,6.783885,21.5672073,6.8168211,21.6058426z M6.8325868,21.6531391c0,0.0105095,0,0.0210209,0,0.0314541
			c-0.0052552,0-0.0105104,0-0.0157657,0c0-0.0104332,0-0.0209446,0-0.0314541
			C6.8220763,21.6531391,6.8273315,21.6531391,6.8325868,21.6531391z M6.5805669,21.2436161
			c0.0277553,0.0427055,0.0075493,0.0896301,0,0.1417389c-0.0051813,0-0.0104365,0-0.0156913,0
			C6.5645056,21.3291759,6.5683541,21.2789192,6.5805669,21.2436161z M6.5805669,21.4011192c0.0210195,0,0.0420399,0,0.0630603,0
			c-0.0316048,0.0623932-0.0290136,0.0979214-0.0630603,0.1575031c-0.0051813,0-0.0104365,0-0.0156913,0
			C6.5645056,21.4763908,6.5697603,21.4364243,6.5805669,21.4011192z M6.5805669,21.6373749c0,0.0157642,0,0.0315285,0,0.0472183
			c-0.0119166-0.0168743-0.0098443-0.0145054-0.0156913-0.0472183C6.5701303,21.6373749,6.5753856,21.6373749,6.5805669,21.6373749z
			 M6.6750832,21.5901508c0-0.0052547,0-0.0105095,0-0.0157642c0.0052552,0,0.01051,0,0.0157652,0
			c-0.0052552,0.0524769-0.01051,0.1050262-0.0157652,0.1575031c0.0262752-0.0052547,0.0525503-0.0105114,0.0787516-0.0157661
			c0.0052552,0.0052547,0.0105104,0.0105114,0.0157652,0.0157661c0,0.0052547,0,0.0105095,0,0.0157661
			c-0.0410781-0.0054035-0.0838585-0.013176-0.1259727,0.0156898c-0.0365634-0.0035534-0.0444827-0.003109-0.0630603-0.0156898
			c-0.0051813-0.0052567-0.0104365-0.0105114-0.0156913-0.0157661C6.6343012,21.6947346,6.6302309,21.6487713,6.6750832,21.5901508z
			 M6.5805669,21.8420982c-0.0051813,0-0.0104365,0-0.0156913,0c0.0052547-0.0104389,0.01051-0.0209465,0.0156913-0.031456
			c0.0960708,0.0014038,0.2648239,0.0109539,0.3307714-0.0315323c0.0157647,0,0.0315299,0,0.0472951,0
			C6.8725548,21.8457985,6.6522126,21.8077545,6.5805669,21.8420982z M8.7383146,23.9526253c0.0210209,0,0.0420408,0,0.0629864,0
			c-0.015172,0.0126553-0.0431499,0.023241-0.0629864,0.0314541C8.7383146,23.9736443,8.7383146,23.9631367,8.7383146,23.9526253z
			 M7.7776055,22.5981579c-0.0052552-0.1995449-0.0105104-0.399086-0.0157657-0.5985565c0-0.0209465,0-0.0419674,0-0.0629883
			c-0.0925183-0.0172443-0.2150865,0.0330105-0.3150063,0c-0.0235362-0.0077724-0.0220561-0.0370808-0.0787516-0.0314541
			c-0.036489,0.0035534-0.092,0.0219078-0.1102076,0.0156898c-0.0771971-0.0504055-0.0218349-0.322998-0.0472951-0.440979
			c-0.0168018-0.0780106,0.0073271-0.2683048-0.0157652-0.409523c-0.0215387-0.1322632-0.051218-0.5787201-0.0156913-0.7559853
			c0.025239-0.1260471-0.0714984-0.3284016,0-0.440979c0.0052547-0.0052547,0.0104361-0.0105114,0.0156913-0.0157661
			c0.1848145,0.4432735,0.2625299,0.9193363,0.4252877,1.3859997c0.0742369,0.2128658,0.2069454,0.4728775,0.2362547,0.7087631
			c0.1282673,0.02672,0.1159072,0.2170849,0.1575031,0.3307705c0.0917778,0.2508354,0.1761551,0.5371246,0.2677116,0.7874432
			c0.033824,0.092371,0.0294571,0.1929569,0.0787506,0.2677841c-0.0088816,0.0957756-0.0744581,0.0981445-0.1575031,0.1102085
			c0.0099926,0.0448532,0.0226488,0.095108,0.0472956,0.1260471c-0.0127306,0.063652-0.0330105,0.0689812-0.0787516,0.0945168
			c0,0.031456,0,0.0629845,0,0.0944424c-0.0611362,0.0067329-0.1473627,0.0173187-0.1890335,0.0472946
			c-0.0360446,0.0162106-0.0341206,0.0270157-0.0629864,0.0472221c-0.0014801,0.1027317,0.0018506,0.2102013,0.0472217,0.2677841
			c-0.0017023,0.0448532-0.0062914,0.0672798-0.0156913,0.0944424c-0.0157652,0.0052547-0.0315304,0.0105114-0.0472951,0.0157642
			C7.8616114,23.6901703,7.8195715,23.1440887,7.7776055,22.5981579z M8.2658052,26.2521095
			c-0.0323439-0.0062885-0.0303459-0.0039196-0.0472212-0.0157642c-0.0640965,0.0008144-0.1312275-0.0011845-0.1732683-0.0157642
			c0-0.0156918,0-0.031456,0-0.0472221c0.0836363-0.0185032,0.1130943-0.0222778,0.2047987-0.0157642
			c0.0052547,0.0052547,0.0105104,0.0105095,0.0156908,0.0157642C8.2658052,26.1996346,8.2658052,26.2258358,8.2658052,26.2521095z
			 M9.4313135,24.9291c-0.1763763,0.0338249-0.3310671-0.0150261-0.5354958-0.0157661c0,0.021019,0,0.0420399,0,0.0630608
			c-0.1649046,0.0144329-0.55163,0.1008091-0.7087641,0c-0.0104361,0-0.0209455,0-0.031456,0c0-0.0472946,0-0.0945168,0-0.1418114
			c-0.0323448-0.006218-0.0303459-0.003849-0.0472212-0.0156918c-0.0640965,0.0007401-0.1313019-0.0012589-0.1732683-0.0157661
			c0.0019984-0.0776405,0.0168014-0.2181206-0.0157652-0.2677841c0-0.0052547,0-0.0105076,0-0.0157642
			c0.3325481-0.0720901,1.1425638-0.2161961,1.3387766-0.3936844c0.0250912-0.0093994,0.0177631-0.0054779,0.0290136-0.0145798
			c-0.0020723-0.001482-0.0063648-0.0017033-0.008585-0.0030365c-0.0277557-0.0046635-0.0556593-0.0092525-0.0834894-0.0139122
			c0-0.0052567,0-0.0105114,0-0.0157661c0.0432253,0.0025883,0.0622463,0.0165062,0.0834894,0.0296783
			c0.0037003,0.0005932,0.0073271,0.0012589,0.0110283,0.001852c-0.0012589,0.0009613-0.0014811,0.0004444-0.0024433,0.0011845
			c0.0316792,0.0219822,0.0561781,0.0494404,0.0969591,0.0775661c-0.0007401,0.1221256-0.0001478,0.5229874,0.0472212,0.5984821
			C9.4313135,24.8345833,9.4313135,24.8818779,9.4313135,24.9291z M10.1558437,24.5668716
			c-0.0424852,0.0110283-0.0681677,0.0217609-0.0945168,0.0472221c-0.0882998-0.0560284-0.0499601-0.3862076-0.1102819-0.4882011
			c0-0.0105095,0-0.0210209,0-0.0315285c0.0734959,0.0052528,0.1470671,0.0105076,0.2205629,0.0157642
			c0.0025167,0.1605377,0.0639496,0.2010975,0.1102085,0.2992401
			C10.2200136,24.4551105,10.1613941,24.4580708,10.1558437,24.5668716z M14.4398098,27.7956123
			c-0.0052557,0-0.0105095,0-0.0157652,0c0-0.0105114,0-0.0210209,0-0.0315304c0.0052557,0,0.0105095,0,0.0157652,0
			C14.4398098,27.7745914,14.4398098,27.7851009,14.4398098,27.7956123z M14.5815477,23.7951202
			c-0.1233826,0.0037022-0.2341824,0.0077-0.2362537-0.0315285c0.0734959,0,0.1469917,0,0.2204885,0
			c0.0052547,0.0052547,0.0105104,0.0105095,0.0157652,0.0157642
			C14.5815477,23.7846127,14.5815477,23.7898655,14.5815477,23.7951202z M16.3928337,25.3070927
			c-0.0697212,0.0011101-0.1078396-0.0001488-0.1418114-0.031456c-0.02561-0.0182819,0.0034046-0.0201321,0.0157642-0.0472965
			c0.0233154,0.0176888-0.0060692,0.0193176,0.0315304,0.0472965c0.0242767,0.0122852,0.0386353-0.0011101,0.0629864-0.0315323
			c0.0105095,0,0.0210209,0,0.0315304,0C16.3928337,25.2651253,16.3928337,25.2860718,16.3928337,25.3070927z
			 M16.4558201,25.1181335c-0.0105095,0-0.021019,0-0.0315304,0c-0.0052547-0.0052567-0.0105095-0.0105114-0.0157642-0.0157642
			c0-0.0210209,0-0.0420418,0-0.0629883c0.0157642,0.0052567,0.0315285,0.0105095,0.0472946,0.0156918
			C16.4558201,25.0760918,16.4558201,25.0971127,16.4558201,25.1181335z M16.3455391,24.9763947
			c-0.07024,0.0015545-0.073719-0.0056973-0.0945168,0.0472221c-0.0271645-0.0101414-0.0153961-0.003109-0.031456-0.0157642
			c-0.0052547,0-0.0105114,0-0.0157661,0c0.0207253-0.0237598,0.0295334-0.0337524,0.0629864-0.0472221
			c0.0134716-0.0104351,0.0494423-0.0213165,0.0629864-0.0315304c0.0420399,0.0157642,0.0840073,0.0315304,0.1260471,0.0472946
			C16.4330978,25.0177689,16.3698158,25.0344963,16.3455391,24.9763947z M17.8732738,28.1578388
			c-0.0119152-0.0169487-0.0098419-0.0145798-0.0157642-0.0472221c0.0052547,0,0.0105095,0,0.0157642,0
			C17.8732738,28.1263103,17.8732738,28.1420746,17.8732738,28.1578388z M18.1095295,25.5748768
			c-0.0264225,0.062542-0.09585,0.0686131-0.1417389,0.1102085c-0.0105095,0-0.021019,0-0.0315304,0
			c0.0021477-0.0976257,0.0269413-0.2962799-0.0156898-0.3622284c-0.0056992-0.0590649-0.0122128-0.0585461-0.0315304-0.0945168
			c-0.0939236-0.0233154-0.5673962-0.1241951-0.6614685-0.0629864c-0.0963669,0.0338249-0.1179066,0.1819286-0.1260471,0.299242
			c-0.0484066-0.0169487-0.0568428-0.0384884-0.0944424-0.0629883c-0.0019245-0.1651993-0.0143604-0.4191437,0.0156898-0.4882736
			c0.0121384-0.1366291,0.2326279-0.2100544,0.3150063-0.3306961c0.0714989,0.0173931,0.0581017,0.0568428,0.110281,0.0787506
			c0.188961,0.0156918,0.3779945,0.031456,0.5669537,0.0472221c0.0273857,0.0774193,0.0249424,0.1189404,0.110281,0.1417389
			C18.1270695,24.9938622,18.1637077,25.4893169,18.1095295,25.5748768z M20.8343029,23.9998474
			c0.0271645,0.0102119,0.0153961,0.0031052,0.031456,0.0157642c0.0052567,0,0.0105114,0,0.0157681,0
			c0,0.0105095,0,0.0210209,0,0.0315285c-0.0210209,0-0.0419674,0-0.0629883,0
			C20.8237915,24.0313759,20.8290482,24.0156116,20.8343029,23.9998474z M20.8499947,25.2598724
			c-0.0536594-0.0033321-0.0803795-0.0075512-0.1102066-0.0315323c-0.0052567,0-0.0105114,0-0.0157661,0
			c0.0121384-0.0108051,0.0350838-0.0207233,0.0472202-0.031456c0.0262775,0,0.0525494,0,0.0787525,0
			C20.8448868,25.2459564,20.8446655,25.2217541,20.8499947,25.2598724z M20.7240219,25.5433464c0-0.0105076,0-0.021019,0-0.0314541
			c0.0315304,0,0.0629864,0,0.0945168,0c0,0.0156898,0,0.0314541,0,0.0472202c-0.0435944,0.0076237-0.0455189,0.0190201-0.0787506,0
			c-0.0105114,0-0.0210209,0-0.0315323,0C20.7135105,25.5538559,20.7187672,25.5486031,20.7240219,25.5433464z
			 M20.5192966,24.2833958c0.0327911-0.0065136,0.0863018-0.0149498,0.1102104-0.0315285
			c0.0210171,0.0105076,0.042038,0.021019,0.0629845,0.0315285c-0.0051804,0.0104351-0.0104351,0.0209465-0.0156918,0.031456
			c-0.0525494,0-0.1050243,0-0.1575031,0C20.5192966,24.3043423,20.5192966,24.2938309,20.5192966,24.2833958z
			 M20.6610355,24.5668716c0,0.0157661,0,0.0314579,0,0.0472221c-0.0052547,0.0052547-0.0105114,0.0105095-0.0157642,0.0157642
			c-0.0458908,0.0005188-0.0858574,0.0008144-0.1102104-0.0157642c-0.0052528-0.0052567-0.0105076-0.0105114-0.0157642-0.0157642
			C20.5631886,24.5781231,20.5885029,24.5667229,20.6610355,24.5668716z M20.440546,24.9606304
			c0.0209446-0.0210209,0.0419655-0.0420418,0.0629864-0.0629883c0.0472221,0,0.0945168,0,0.1417389,0
			c0.0052528,0.0051823,0.0105095,0.010437,0.0157642,0.0156918c-0.0302734,0.0459633-0.1322632,0.0299759-0.1732674,0.0630608
			c-0.0157661,0-0.0314579,0-0.0472221,0C20.440546,24.971138,20.440546,24.9658852,20.440546,24.9606304z M20.6295071,25.2125759
			c0,0.0157642,0,0.0315285,0,0.0472965c-0.0577316,0-0.1154652,0-0.1731968,0c0-0.0105114,0-0.0210209,0-0.0315323
			C20.5049381,25.2182751,20.5614109,25.2116127,20.6295071,25.2125759z M20.3775597,24.629858c0.0104351,0,0.0209446,0,0.031456,0
			c0,0.0105114,0,0.0210209,0,0.0315304c-0.0105114,0-0.0210209,0-0.031456,0
			C20.3775597,24.6508789,20.3775597,24.6403694,20.3775597,24.629858z M20.5507545,26.1418285c0,0.0157661,0,0.0315304,0,0.0472965
			c-0.0800095-0.0025158-0.1493626-0.0047379-0.188961,0.031456c-0.0365639-0.0035534-0.0444069-0.003109-0.0629845-0.0157642
			c-0.0052567,0-0.0105114,0-0.0157681,0C20.3429947,26.1633682,20.4617138,26.1406441,20.5507545,26.1418285z
			 M20.5507545,26.4726009c-0.0334568,0.0139141-0.0700932,0.0247211-0.0944443,0.0472221c-0.0157642,0-0.0315304,0-0.0472946,0
			c-0.0052547-0.0156937-0.0105114-0.0314579-0.0157642-0.0472221c0.0206509-0.0080681,0.0620251-0.0192432,0.0787506-0.0315304
			c0.0324192,0.0062904,0.0303459,0.0039215,0.0472946,0.0157661
			C20.5464611,26.4669743,20.5346909,26.4599457,20.5507545,26.4726009z M20.2200565,25.9528694
			c0,0.0052567,0,0.0105095,0,0.0157661c-0.0396709-0.0257587-0.0164318-0.0029621,0-0.0472965
			C20.2301216,25.9448013,20.2395973,25.9281483,20.2200565,25.9528694z M20.2515125,27.1026134
			c0.0271645-0.0101395,0.0154686-0.003109,0.0315285-0.0157661c0.0157681,0,0.0314579,0,0.047224,0
			c0.0052547,0.0052547,0.0105076,0.0105114,0.0157642,0.0157661c0,0.0052547,0,0.0105095,0,0.0157661
			c-0.0315304,0-0.0629883,0-0.0945168,0C20.2515125,27.1131229,20.2515125,27.1078682,20.2515125,27.1026134z
			 M20.4090157,27.622345c-0.0210209,0-0.0419674,0-0.0629864,0c0.014431-0.0339756,0.0136909-0.022871,0.0315304-0.0472221
			c0.0429268,0.00037,0.0721645,0.0005913,0.0944424,0.0156898c0.0105095,0,0.0210209,0,0.0315304,0
			C20.4808826,27.63204,20.4392872,27.6369991,20.4090157,27.622345z M20.4247799,27.4018536c-0.0472202,0-0.0945148,0-0.1417389,0
			c0-0.0052547,0-0.0105076,0-0.0157642c0.0514431-0.0126553,0.1166477-0.0337505,0.157505-0.0629864
			c0.0323448,0.0062923,0.0303459,0.0039234,0.0472221,0.0157642c0.0105076,0,0.021019,0,0.0315285,0
			C20.4966488,27.3768368,20.4558659,27.3750591,20.4247799,27.4018536z M20.5507545,27.0868473
			c-0.068243,0-0.1364822,0-0.2047253,0c0-0.0052528,0-0.0105095,0-0.0157642
			c0.0196133-0.0105095,0.0325661-0.0170975,0.0472221-0.031456c0.0489216-0.0010357,0.0994015-0.0022945,0.1260452,0.0156918
			c0.0105114,0,0.0209465,0,0.0314579,0C20.5507545,27.0658264,20.5507545,27.0763378,20.5507545,27.0868473z
			 M20.5665188,26.8033714c-0.0581741,0.0017776-0.13937,0.0068855-0.1732674-0.0157642
			c-0.0052567-0.0052547-0.0105114-0.0105114-0.0156918-0.0157642c0.0488491-0.022501,0.0909634-0.033308,0.1731949-0.0314579
			c0.0062904,0.0323467,0.0039215,0.0303478,0.0157642,0.0472221C20.5665188,26.79286,20.5665188,26.7981167,20.5665188,26.8033714z
			 M20.472002,25.9055748c-0.0162106-0.0126572-0.003849-0.0057716-0.031456-0.0156918c0-0.0157642,0-0.0315285,0-0.0472946
			c0.0323448-0.0062904,0.0303459-0.0039215,0.0472221-0.0157661c0.0640965,0.0037003,0.0606918,0.0077724,0.0945148,0.0315323
			C20.5560818,25.8788567,20.5059757,25.8966198,20.472002,25.9055748z M20.5980492,25.5748768
			c-0.058176,0.0017757-0.1394444,0.0068836-0.1732693-0.0157642c-0.0052547,0-0.0105076,0-0.0157642,0
			c0-0.0052567,0-0.0105095,0-0.0157661c0.0629864-0.0052547,0.1260452-0.0105076,0.1890335-0.0157642
			C20.5980492,25.5433464,20.5980492,25.5591125,20.5980492,25.5748768z M20.6452713,27.0238628c0.0367851,0,0.0734959,0,0.110281,0
			c0,0.0052528,0,0.0105095,0,0.0157642c-0.0198364,0.0086594-0.0475922,0.0188732-0.0630608,0.031456
			c-0.0209465,0-0.0419674,0-0.0629845,0C20.6347599,27.0553188,20.6400146,27.0396271,20.6452713,27.0238628z
			 M20.6610355,27.3073368c0.0367107,0,0.0734959,0,0.1102066,0c-0.0051804,0.0157661-0.0104351,0.0315304-0.0156898,0.0472965
			c-0.0315304,0.0051804-0.0630608,0.0104351-0.0945168,0.0156918c0-0.0052567,0-0.0105114,0-0.0156918
			C20.6465302,27.3244343,20.6547432,27.3430119,20.6610355,27.3073368z M20.7870083,27.5908127
			c-0.0222034,0.0080681-0.0757923,0.0187263-0.0945168,0.0315323c-0.0104351,0-0.0209465,0-0.031456,0
			c0.0202065,0.0138397,0.0388584,0.0145798,0.0787525,0.0157642c-0.0052567,0.0157642-0.0105114,0.031456-0.0157661,0.0472202
			c-0.0561028-0.0051804-0.0524769-0.0009632-0.0787506-0.031456c-0.0211678-0.0297527-0.0074024-0.0494404,0.0157642-0.0945168
			c0.0367107,0,0.0734959,0,0.1102066,0c0.0052567,0.0052567,0.0105114,0.0105095,0.0157661,0.0157661
			C20.7870083,27.5803776,20.7870083,27.5855598,20.7870083,27.5908127z M20.7240219,26.7876072
			c-0.0783806-0.0075493-0.0634308-0.0097713-0.0472221-0.0629864c0.0323448,0.0062923,0.0303478,0.0039234,0.0472221,0.0157642
			c0.0210209,0,0.0420399,0,0.0629864,0C20.766283,26.7763557,20.7531834,26.7648106,20.7240219,26.7876072z M20.6452713,26.4883652
			c0.0144329-0.0339718,0.0136909-0.0229454,0.0315285-0.0472946c0.031456,0,0.0629883,0,0.0944424,0
			c-0.0051804,0.0157661-0.0104351,0.0315304-0.0156898,0.0472946
			C20.7187672,26.4883652,20.6820564,26.4883652,20.6452713,26.4883652z M20.8027744,26.1733589
			c-0.0472221,0-0.0945187,0-0.1417389,0c0-0.0105095,0-0.021019,0-0.0315304c0.0472202,0,0.0945168,0,0.1417389,0
			C20.8027744,26.1523399,20.8027744,26.1628494,20.8027744,26.1733589z M20.6924915,25.8741188
			c0-0.0157642,0-0.0315304,0-0.0472965c0.05196-0.0013332,0.1128712-0.0036983,0.1418114,0.0157661
			c0.0271645,0.0101395,0.0153961,0.0031071,0.031456,0.0157661C20.8069172,25.8775978,20.7662086,25.8720455,20.6924915,25.8741188
			z M20.8343029,24.9448643c-0.021019,0-0.0420399,0-0.0630608,0c-0.0051079-0.0490723-0.0053291-0.024868,0-0.0629864
			c0.0367851,0,0.0735703,0,0.1102848,0c0.0052528,0.0052567,0.0105076,0.0105114,0.0157642,0.0157642
			C20.8753815,24.9168873,20.8533993,24.9216232,20.8343029,24.9448643z M20.9287453,24.5983295
			c-0.0472183,0.0052528-0.0944424,0.0105076-0.141737,0.0157642c0-0.0157642,0-0.031456,0-0.0472221
			c0.0420399,0,0.0840073,0,0.1260471,0c0.0052567,0.0052547,0.0104351,0.0105114,0.0156898,0.0157661
			C20.9287453,24.5878906,20.9287453,24.5931473,20.9287453,24.5983295z M20.9287453,24.2676315
			c-0.0475883,0.0096951-0.0837097,0.0164299-0.1102066,0.0472202c-0.0271645-0.0101395-0.0153942-0.0031071-0.0315304-0.0157642
			c-0.015173-0.0253143-0.0008888-0.001482,0-0.0472202c0.0472946,0,0.0945187,0,0.141737,0
			C20.9287453,24.2571201,20.9287453,24.2623749,20.9287453,24.2676315z M21.1493111,24.9133339
			c0.0271606,0.0102139,0.0153942,0.003109,0.0314541,0.0157661c0.0052567,0,0.0105114,0,0.0157661,0
			c-0.0052547,0.0105095-0.0105095,0.0210209-0.0157661,0.0315304c0.0052567,0,0.0105114,0,0.0157661,0
			c-0.0148029,0.0651321-0.0016289,0.0271645-0.0472202,0.0472221
			C21.1234779,24.9469376,21.1261444,24.967514,21.1493111,24.9133339z M21.1650009,26.1575947
			c0,0-0.015543,0.0025902-0.0156898-0.0472202c0.0051785,0,0.0104351,0,0.0156898,0
			C21.1650009,26.1260643,21.1650009,26.1418285,21.1650009,26.1575947z M21.1807652,25.889883
			c-0.0271626-0.0102119-0.0153942-0.003109-0.0314541-0.0157642c-0.0127316-0.0162086-0.0058479-0.0039234-0.0157642-0.0315304
			c0.0142841-0.0146561,0.0212383-0.0274601,0.0314541-0.0472221c0.0052567,0,0.0105095,0,0.0157642,0
			C21.1807652,25.8268223,21.1807652,25.8583546,21.1807652,25.889883z M21.1493111,25.2756367c0-0.0262756,0-0.0525513,0-0.0787525
			c0.0472927,0.0210953,0.0319729,0.0350838,0.0944424,0.0472202C21.2201424,25.2834072,21.210743,25.2760811,21.1493111,25.2756367
			z M21.3382702,25.5748768c-0.0052567,0.0052547-0.0105114,0.0105114-0.0157661,0.0156918c-0.0052547,0-0.0105114,0-0.0157642,0
			c0.0105839-0.0575848,0.026125-0.0672798,0.0472946-0.1102085C21.3686142,25.5102634,21.3541813,25.5355015,21.3382702,25.5748768
			z M21.3854923,25.4488316c-0.010437,0-0.0209465,0-0.0314579,0c-0.0137672-0.0578804-0.0268669-0.0781612-0.0157642-0.1259747
			c0.0157642,0.0105114,0.0315285,0.0210209,0.0472221,0.0315323
			C21.3854923,25.3858433,21.3854923,25.4173737,21.3854923,25.4488316z M22.0627995,29.3075829
			c0.0371552,0.0138416,0.0259781,0.0059204,0.0472202,0.0315304
			C22.0904064,29.3285294,22.0774536,29.3219414,22.0627995,29.3075829z M22.2359943,26.7088566
			c-0.0105114,0-0.0209465,0-0.0314579,0c0-0.0105114,0-0.0210209,0-0.0315323c0.0105114,0,0.0209465,0,0.0314579,0
			C22.2359943,26.6878357,22.2359943,26.6983452,22.2359943,26.7088566z M22.834549,29.024107c-0.0052547,0-0.0105114,0-0.0157642,0
			c-0.0052547-0.0052547-0.0105114-0.0105095-0.0157661-0.0157661c0.003109-0.0409298,0.006958-0.0535107,0.0157661-0.0787506
			c0.0052528,0,0.0105095,0,0.0157642,0C22.834549,28.9611206,22.834549,28.9925766,22.834549,29.024107z M23.1810112,25.7008495
			c-0.0646152,0.0440407-0.6868553-0.1324844-0.8032818-0.0315304c-0.1365566,0.0797882-0.0586929,0.429285-0.1574287,0.5512619
			c-0.0162086,0.0127296-0.0039215,0.0058479-0.0315304,0.0157642c-0.0302696-0.0447025-0.0203533-0.1323376-0.0472183-0.1889591
			c-0.0633583-0.1332264-0.1910343-0.1951027-0.1890354-0.3937588c0.0608406-0.0017014,0.0800095-0.0036259,0.1102829-0.0315285
			c0.0156898-0.0052567,0.031456-0.0105114,0.0472202-0.0157642c-0.0017033-0.0398941-0.0019245-0.0583248-0.0157642-0.0787525
			c-0.0169506-0.0119171-0.0145073-0.0098457-0.0472221-0.0156898c0.0070305-0.2822933,0.1565399-0.3261108,0.2047253-0.5354977
			c0.1461029-0.0042191,0.1679382,0.0447044,0.2204876,0.1259747c0.1005859-0.0012589,0.30583-0.014658,0.3779945,0.0314541
			c0.3774738-0.0039978,0.1448441,0.1217556,0.3623009,0.1890335
			C23.2134285,25.4191494,23.2260876,25.6303139,23.1810112,25.7008495z M28.6934719,25.1023693
			c0.0105114,0.0052528,0.0210209,0.0105076,0.0315323,0.0157642c0,0.0052547,0,0.0105095,0,0.0156898
			c-0.0105114,0-0.0210209,0-0.0315323,0C28.6934719,25.1233883,28.6934719,25.1128769,28.6934719,25.1023693z
			 M28.2682571,25.070837c0.1019192,0.0203533,0.2517986,0.0173187,0.3779945,0.0157661c0,0.0157661,0,0.0315304,0,0.0472202
			c-0.1598721-0.0011101-0.2270756-0.0316029-0.3779945-0.0314541
			C28.2682571,25.0918579,28.2682571,25.0813484,28.2682571,25.070837z M26.3939857,24.9606304c0,0.0052547,0,0.0105076,0,0.0157642
			c-0.0371552-0.0138397-0.02598-0.0059929-0.0472202-0.0315304C26.3625317,24.9501209,26.3782215,24.9553738,26.3939857,24.9606304
			z M26.0317593,27.4490757c-0.0052547,0-0.0105114,0-0.0157642,0c0-0.0105114,0-0.0209465,0-0.031456
			c0.0052528,0,0.0105095,0,0.0157642,0C26.0317593,27.4281292,26.0317593,27.4385643,26.0317593,27.4490757z
			 M27.6224823,27.1183796c-0.0490723-0.0095501-0.0382652-0.002739-0.0629864-0.0315323c0.021019,0,0.0419655,0,0.0629864,0
			C27.6224823,27.0973587,27.6224823,27.1078682,27.6224823,27.1183796z M28.8825073,26.1733589
			c0,0.0367126,0,0.0734978,0,0.1102085c-0.0171719,0.0287914-0.130785,0.0375996-0.1575031,0.0630608
			c-0.0105114,0.0367107-0.0210209,0.0734959-0.0315323,0.1102085c-0.0322704,0.0445576-0.1140556,0.0745316-0.1575012,0.110281
			c-0.0119171,0.0169487-0.0098457,0.0145054-0.0157661,0.0472221c-0.0156918,0-0.031456,0-0.0472202,0
			c-0.0148029,0.034193-0.0313835,0.0652046-0.0472221,0.0945168c-0.0435963,0.0076218-0.0455189,0.0190201-0.0787525,0
			c-0.2415085-0.0090313-0.1428471,0.0404854-0.2204876,0.1732674c-0.0529957,0.0234623-0.4115219-0.0269432-0.5040398-0.0472965
			c-0.1575031-0.0105095-0.3150063-0.0209465-0.4725113-0.031456c-0.2594223-0.0579529-0.5875282-0.105175-0.8819561-0.110281
			c-0.0052567-0.0052547-0.0105114-0.0105114-0.0157681-0.0157661c0.0052567-0.0891876,0.0105114-0.1784477,0.0157681-0.2677116
			c0.0629845-0.0052528,0.1259708-0.0105076,0.1889591-0.0157642c0-0.0262756,0-0.052475,0-0.0787506
			c-0.1700115-0.015173-0.2804432-0.0658722-0.4882011-0.0629883c0.0006657,0.1262703,0.0696468,0.1130962,0.1575031,0.1417389
			c-0.0105114,0.089262-0.0210209,0.178524-0.0315304,0.2677841c-0.1112442,0.001852-0.2747421,0.0152473-0.3464642-0.0315285
			c-0.0149498-0.0265713,0.0040722-0.1514339,0.0314579-0.1890335c0.0076218-0.1586132,0.1497307-0.2027264,0.2204876-0.299242
			c0.1233101-0.1681595,0.2509098-0.3235168,0.3779945-0.4882011c0.0846729-0.1096878,0.2231522-0.2085724,0.2677841-0.3150043
			c0.4864254,0.0042915,0.9368782,0.0822296,1.4017639,0.1102085c0.0035534,0.036562,0.003109,0.0444832,0.0156918,0.0630608
			c0.0145798,0.0424824,0.0270901,0.0461082,0.0472927,0.0786762c0.2204914,0.0157661,0.4409809,0.0315304,0.6614704,0.0472946
			c0.0062904,0.0323448,0.0039234,0.0303478,0.0157661,0.0472221c0.0076218,0.0939255,0.0464802,0.1087265,0.1102066,0.141737
			C28.9037495,25.9178619,28.9353523,26.0920925,28.8825073,26.1733589z M30.1739883,25.2598724
			c-0.1962147-0.0497398-0.3368416-0.0295334-0.5197315-0.0472965c0-0.0104351,0-0.0209465,0-0.031456
			c0.0860786,0.0153217,0.3419476-0.029829,0.440979,0.031456c0.0582504,0.0070324,0.0463333,0.0088081,0.0787525,0.0315285
			C30.1739883,25.249361,30.1739883,25.2546158,30.1739883,25.2598724z M30.2054424,25.2283401
			c-0.0051785,0.0052567-0.0104351,0.0105114-0.0156898,0.0157642c0-0.0105076,0-0.021019,0-0.0315285
			c0.0271645,0.0102158,0.0153942,0.003109,0.0314579,0.0157642C30.2159538,25.2283401,30.2106991,25.2283401,30.2054424,25.2283401
			z M31.4182472,29.7013397c-0.0052547,0-0.0105114,0-0.0157642,0c0.0052528-0.0210209,0.0105095-0.042038,0.0157642-0.0629845
			c0.0104351,0,0.0209465,0,0.031456,0C31.4380093,29.6748447,31.4333458,29.6735115,31.4182472,29.7013397z M31.4654675,29.6698112
			c0-0.0105095,0-0.0209465,0-0.031456c0.0270901,0.0095463,0.0495167,0.0146542,0.0945187,0.0157642
			C31.5378551,29.6692181,31.5083237,29.6699581,31.4654675,29.6698112z M31.9852009,29.8903008
			c-0.0052567,0-0.0105114,0-0.0157681,0c0-0.010437,0-0.0209465,0-0.0314579c0.0052567,0,0.0105114,0,0.0157681,0
			C31.9852009,29.8693542,31.9852009,29.8798637,31.9852009,29.8903008z M31.8906822,29.7013397
			c0.0157661,0,0.0315304,0,0.0472965,0c0.0207977,0.0382652-0.0074024,0.0111027,0.0314541,0.0314579
			c0,0.0262737,0,0.0525494,0,0.0787506C31.9403477,29.7748375,31.9185867,29.7354622,31.8906822,29.7013397z
			 M31.9694328,29.2288322c-0.0261993,0-0.052475,0-0.0787506,0c0-0.0105114,0-0.0210209,0-0.0315323
			c0.0052547-0.0051785,0.0105114-0.0104351,0.0157661-0.0156898c0.0571404,0.0029602,0.1928101,0.003479,0.2362518,0.0314579
			c0.0119209,0.0169487,0.009922,0.0145798,0.01577,0.0472927C32.0857086,29.2609539,32.0124359,29.2590294,31.9694328,29.2288322z
			 M33.8279419,30.1580849c0,0.0052567,0,0.0105095,0,0.0157661c-0.0052528,0-0.0105095,0-0.0157661,0
			c0.013546-0.0293102,0.0225029-0.0416718,0.0315323-0.0787525C33.8576965,30.1255188,33.8527374,30.1283302,33.8279419,30.1580849
			z M34.9619217,26.7876072c-0.0253906,0.0185776-0.1435165,0.0732002-0.1731949,0.0787525
			c-0.0061455,0.0605431-0.0150986,0.1373711-0.0472984,0.1732674c-0.0267906,0.0609894-0.0692024,0.0447769-0.0944405,0.1102066
			c-0.0210228,0-0.0420418,0-0.0630608,0c0,0.0367851,0,0.0734959,0,0.110281
			c-0.037674,0.0141392-0.0831909,0.0229454-0.1102066,0.0472221c-0.0259056,0.0366383-0.0315323,0.1145744-0.0315323,0.1732693
			c-0.0052528,0.0052547-0.0105095,0.0105095-0.0157623,0.0157642c-0.0577316-0.0052547-0.1154633-0.0105095-0.1731949-0.0157642
			c0.0235329-0.1221256-0.0042191-0.3041248-0.0315323-0.4252872c-0.0541763-0.2401791-0.0572853-0.4424591-0.1732674-0.6142483
			c-0.2552032-0.378067-1.001564-0.4321709-1.3859978-0.173193c-0.1270103,0.0855598-0.1935463,0.2677841-0.2677116,0.4094467
			c-0.0603218,0.115242-0.2489853,0.4548206-0.2047234,0.5985584c-0.0892601-0.0105114-0.178524-0.0210209-0.267786-0.0315323
			c-0.0035515-0.0364895-0.003109-0.0444088-0.0157642-0.0629864c-0.0017014-0.0448513-0.0062923-0.0673523-0.0157661-0.0945168
			c-0.0398922-0.0016289-0.0583248-0.0019245-0.0786762-0.0157642c-0.1042862,0.0205765-0.1320438,0.095108-0.2205639,0.1260471
			c-0.0618019,0.0368595-0.1885147-0.0123615-0.2834759-0.0157661c-0.0052547-0.0052528-0.0105114-0.0105095-0.0157661-0.0157642
			c0.0016289-0.0612106,0.0087337-0.1389999,0.0157661-0.157505c-0.0004444-0.045887-0.0007401-0.0858555,0.0157661-0.110281
			c0.0364132-0.022871,0.1364822-0.0091763,0.1732674-0.0314541c0.0104351,0,0.0209465,0,0.031456,0
			c-0.0035534-0.0365639-0.003109-0.0444107-0.0157661-0.0629883c-0.0389309-0.0299759-0.110281-0.0449276-0.173193-0.0472965
			c0.0209465-0.1558743,0.1488419-0.2797737,0.2204895-0.393755c0.0796375-0.1266403,0.1264896-0.2506142,0.2047234-0.3779945
			c0.0438175-0.0712757,0.110651-0.1184978,0.1259727-0.2204876c0.381916,0.0016289,0.8238564,0.0048084,1.1655083,0.0787506
			c0.2301102,0.0498123,0.4825745,0.0017014,0.6930008,0.0472946c0.1857758,0.0401897,0.4536324-0.0412998,0.5984802,0.0472221
			c0.0180626,0.0263481,0.0260544,0.107542,0.0315323,0.141737c0.2466888,0.0210209,0.4935303,0.0420399,0.7402191,0.0629864
			c0.0045891,0.1192379,0.0447044,0.1165733,0.0630608,0.1732693C35.2075729,26.3929615,35.001297,26.7380905,34.9619217,26.7876072
			z M38.7104645,17.9361229c0.0051804,0,0.010437,0,0.0156937,0c-0.0198364,0.0456676-0.0219116,0.0147285-0.047226-0.0157642
			C38.7060966,17.9305725,38.6943283,17.9234657,38.7104645,17.9361229z M38.3481636,27.6538734
			c-0.0052528,0.0052567-0.0105095,0.010437-0.0156898,0.0156918c-0.0778656-0.0010376-0.2456551-0.0161362-0.2677879-0.031456
			c-0.1699371-0.0076237-0.2340317,0.0356007-0.2677841,0.1575031c-0.1784477-0.0157642-0.3569717-0.0315304-0.5354958-0.0472965
			c-0.0051804-0.0052547-0.010437-0.0105076-0.0156898-0.0156898c0.0082893-0.2107944,0.0499611-0.3546791,0.0629845-0.5512619
			c0.0757904-0.0020714,0.2214508-0.0220547,0.2677116-0.0629845c0.0883751-0.0017776,0.0948868-0.002739,0.0945168,0.0472202
			c0.1751175,0.0094738,0.5155869,0.0612831,0.6457787-0.0315304c0.0363388,0.0051823,0.0390778,0.007328,0.0629883,0.0157642
			C38.3626671,27.2928314,38.3634109,27.5107288,38.3481636,27.6538734z M38.6946983,26.4883652
			c-0.0760117,0.1220512-0.1914024,0.2452126-0.2362518,0.3937588c-0.0981445-0.0235367-0.1197548-0.1217556-0.1890373-0.1732674
			c-0.1143494-0.0849705-0.2888031-0.1232357-0.3937531-0.2204914c-0.0051842,0-0.010437,0-0.0156937,0
			c0.0019226-0.1088753-0.0107307-0.1465473-0.0472946-0.2047977c-0.0156898,0-0.0314598,0-0.0472221,0
			c0.0419655-0.1259727,0.0840073-0.2519455,0.1259727-0.3779926c0.0372314-0.042263,0.0999222-0.0175419,0.1260452-0.0787525
			c0.069355-0.1626835-0.0244942-0.2865105-0.0157623-0.3936825c0.0067368-0.0828972,0.071125-0.2599392,0.0157623-0.3465366
			c-0.0052528-0.0157661-0.0105095-0.0315304-0.0157623-0.0472221c-0.0367851,0-0.0734978,0-0.1102829,0
			c0.0072517-0.231369,0.0351562-0.4360943,0.0787544-0.6300125c0-0.0997696,0-0.199543,0-0.2992401
			c0.0093231-0.0316772,0.0298233-0.0487041,0.0315285-0.110281c0-0.0629883,0-0.1259747,0-0.188961
			c0.0347099-0.1011028,0.2397346-0.3180408,0.1575012-0.4725094c-0.0056229-0.1006603-0.038784-0.0990314-0.0787506-0.1575031
			c-0.1259727-0.0157642-0.252018-0.0315304-0.3779907-0.0472221c0.0119133-0.3535652,0.1467705-0.8477631,0.2362518-1.1655083
			c0.0369339-0.1313763,0.0260544-0.2329235,0.0629883-0.3623009c0.1358147-0.4759865,0.2059059-0.9735889,0.3622246-1.4489841
			c0.0697975-0.2122746,0.2085037-0.5397148,0.2204933-0.7717514c0.0052528,0,0.0105095,0,0.0157623,0
			c0.0187263,0.0542545-0.0039215,0.1495094,0.0157661,0.2205639c0.0857086,0.3096771,0.0533638,0.6679096,0.1259727,1.0079308
			c0.0708351,0.3315868,0.0705376,0.8408813,0.1575012,1.2128048c0.0377464,0.1614246-0.010582,0.2788868,0.0315361,0.440979
			c0.0583954,0.2252254,0.0344162,0.4915314,0.0944366,0.740221c0.0177689,0.0734215,0.0641708,0.2481709,0.0630646,0.3150063
			c-0.0029602,0.1676426,0.0164299,0.4419403,0.0629845,0.6142464c0.0365639,0.1353741-0.0234604,0.2757797,0,0.3937588
			c0.0017776,0.0091038,0.0341225,0.1000671,0.031456,0.1102066c-0.0127335,0.0493679-0.0929642,0.1029568-0.1102066,0.157505
			c-0.0259056,0.0819321,0.0150261,0.2881374,0.031456,0.3623009c0.0503311,0.2269268-0.0371552,0.4928646,0.1102791,0.6142464
			c-0.024868,0.1220512-0.1160545,0.2070942-0.1732635,0.299242C38.9141541,26.0786934,38.8217812,26.2842331,38.6946983,26.4883652
			z M39.2301979,27.7483158c-0.1417389-0.0104351-0.2835541-0.0209465-0.4252892-0.0314541
			c-0.0052567-0.0052567-0.0105133-0.0105114-0.0156937-0.0157661c-0.0006638-0.3490524,0.1709023-0.479393,0.3149338-0.708765
			c0.0421867-0.0670547,0.0569191-0.1355209,0.1102791-0.1889591c0.0169525-0.0119896,0.0145836-0.0099182,0.0472221-0.0157642
			c0.0021477,0.1313019,0.0440407,0.4262505-0.0156898,0.5197296C39.2472153,27.4443398,39.2670555,27.638998,39.2301979,27.7483158
			z M39.4979057,24.0156116c-0.032341-0.0062923-0.0303459-0.0039234-0.0472221-0.0157642
			c0,0-0.0617981-0.0035534-0.0315285-0.0157681c0.0052567-0.0051785,0.0105095-0.0104351,0.0157661-0.0156898
			c0.0262756,0,0.052475,0,0.0787506,0C39.508419,23.9840794,39.5031624,23.9998474,39.4979057,24.0156116z M6.0136147,22.5508614
			c0.0052552-0.0052547,0.01051-0.0105095,0.0157652-0.0157661c-0.01051,0-0.0210204,0-0.0315304,0
			C5.9829726,22.5516758,6.0027342,22.5529327,6.0136147,22.5508614z M14.4979115,27.7314415
			c-0.0141373,0.0043678-0.0226488-0.0009632-0.0108805,0.0326405c0.0219831,0.0114727,0.0199099,0.005106,0.0472956-0.0157661
			c0.0271635-0.0101376,0.0153942-0.0030346,0.031456-0.0156898c-0.0156918-0.0052567-0.031456-0.0105095-0.0472212-0.0157642
			c-0.0061436,0.0101376-0.0088816,0.0064373-0.0139151,0.0097675c-0.0000734,0.0020733-0.0018501,0.0039234-0.0018501,0.0059967
			C14.4987259,27.7321072,14.500576,27.7319603,14.4979115,27.7314415z M25.4332771,29.8115482c0.0105095,0,0.0209465,0,0.031456,0
			c0-0.010437,0-0.0209446,0-0.031456c-0.0105095,0-0.0209465,0-0.031456,0
			C25.4332771,29.7906036,25.4332771,29.8011112,25.4332771,29.8115482z"/>
	</g>
</g>
</svg>
