<?xml version="1.0" encoding="utf-8"?>
<!-- Generator: Adobe Illustrator 17.1.0, SVG Export Plug-In . SVG Version: 6.00 Build 0)  -->
<!DOCTYPE svg PUBLIC "-//W3C//DTD SVG 1.1//EN" "http://www.w3.org/Graphics/SVG/1.1/DTD/svg11.dtd">
<svg version="1.1" id="Layer_1" xmlns="http://www.w3.org/2000/svg" xmlns:xlink="http://www.w3.org/1999/xlink" x="0px" y="0px"
	 viewBox="0 0 50 50" enable-background="new 0 0 50 50" xml:space="preserve">
<g id="base">
	<g>
		
			<linearGradient id="SVGID_1_" gradientUnits="userSpaceOnUse" x1="-15.8786392" y1="11.9683352" x2="-15.8786392" y2="7.5294533" gradientTransform="matrix(4 0 -3.0474641 4 118.8659821 0)">
			<stop  offset="0" style="stop-color:#000000;stop-opacity:0.4"/>
			<stop  offset="1" style="stop-color:#000000;stop-opacity:0"/>
		</linearGradient>
		<path fill="url(#SVGID_1_)" d="M9.1238689,40.6594429c-1.0207815-1.1436996-1.035533-2.3321457-0.0447216-3.6326561
			c2.9515839-3.8741493,13.1978531-6.9089737,23.3267822-6.9089737c10.1284409,0,15.7504539,3.0348244,12.7988701,6.9089737
			c-0.9909515,1.3006935-2.8160934,2.4891434-5.5794258,3.6326561l-20.7467766,7.2138977L9.1238689,40.6594429z"/>
		
			<linearGradient id="SVGID_2_" gradientUnits="userSpaceOnUse" x1="4.7656469" y1="11.9683352" x2="4.7656469" y2="0.2499416" gradientTransform="matrix(4 0 0 4 0 0)">
			<stop  offset="0" style="stop-color:#007BB8"/>
			<stop  offset="1" style="stop-color:#0094DE"/>
		</linearGradient>
		<path fill="url(#SVGID_2_)" d="M3.8120801,28.8290596c-1.8921264-3.0192986-2.8123169-6.1567326-2.8123169-9.5899963
			c0-10.2275372,7.9341407-18.2392979,18.0630703-18.2392979c10.1284389,0,18.0625782,8.0117588,18.0625782,18.2392979
			c0,3.4337521-0.9197006,6.5711861-2.8118286,9.5899963l-15.2507496,19.044281L3.8120801,28.8290596z"/>
		<path fill="#FFFFFF" d="M19.062603,1.9995302c9.5681038,0,17.0631294,7.5725799,17.0631294,17.2397156
			c0,3.2219028-0.8601723,6.1702614-2.6289291,9.0094376L19.062603,46.2734261L4.6285057,28.2487297
			c-1.7687864-2.8392944-2.6289842-5.7876911-2.6289842-9.0094833C1.9995216,9.5721102,9.4945211,1.9995302,19.062603,1.9995302
			 M19.062603,0.0000076C8.4420834,0.0000076,0,8.5202303,0,19.2392464c0,3.8478489,1.0893619,7.1459846,2.9956293,10.1692734
			L19.062603,49.4722862l16.0670547-20.0637665c1.9063072-3.0232887,2.995594-6.3214245,2.995594-10.1692734
			C38.1252518,8.5202303,29.6832104,0.0000076,19.062603,0.0000076L19.062603,0.0000076z"/>
	</g>
</g>
<g opacity="0.6">
	<g>
		<path d="M34.1452789,20.2107258c-0.1204109-0.041132-0.3478012,0.0374107-0.4545364-0.0259361h-0.2986717
			c-0.0432663-0.3938751-0.0865974-0.7878704-0.1298676-1.1817436c-0.0645065-0.2778606-0.0485764-0.5808029-0.1168671-0.8701363
			c-0.1495781-0.6338348-0.1628227-1.3227177-0.3116684-1.9479485v-0.1038685
			c-0.0316734-0.1251078-0.0909958-0.302577-0.0779343-0.4545364c0.0048218-0.0561457,0.0351524-0.056695,0.0519333-0.0909309
			c0.0588951-0.1198587,0.0020752-0.268157-0.0778694-0.3246078c0.0032349-0.1276093,0.0842781-0.3979015,0.1428032-0.4805336
			c-0.0311241-0.1554985-0.3218613-0.1086292-0.4415359-0.1818018h-0.0259361
			c0.0093994-0.0792141,0.0247154-0.2025518,0.0649338-0.2597342v-0.1038694
			c-0.3068466-0.0770788-0.8224125-0.0259981-1.1818047-0.0259981c-0.2421589,0-0.4002209-0.017149-0.5454063,0.0779324
			c-0.0282555,0.1057005-0.0616379,0.5795822,0.0259972,0.6752739c0.0408897,0.1182108,0.1807041,0.1251068,0.2986717,0.1688633
			c0.1836929,0.0680466,0.4104118,0.1146717,0.6103401,0.1688032c0.1041126,0.0281954,0.2314167,0.0123281,0.3116684,0.0649338
			c0.0170898,0.0283175-0.0273399,0.0850735-0.0129375,0.1428661c0.0088482,0.0355186,0.0565739,0.0800076,0.0649319,0.1038694
			c0.0214233,0.0611506-0.0603542,0.202796-0.0779305,0.2467356c-0.0173321,0.0779333-0.0346642,0.1558657-0.0519352,0.233737
			c-0.042963,0.1313324-0.1000862,0.2980595-0.1428661,0.4285984c-0.0472965,0.1442089-0.0491276,0.2689495-0.0909309,0.4155388
			c-0.0690842,0.2425861-0.1345673,0.5247173-0.2077389,0.7662048c-0.0609074,0.2008438-0.0616398,0.381546-0.11693,0.584404
			c-0.0712204,0.2613811-0.1063709,0.5399132-0.1818027,0.81814c-0.0382023,0.140974-0.0887947,0.3124619-0.1038685,0.4674721
			l-0.0129986,0.0129986c-0.221899-0.0031719-0.5958157-0.066824-0.7532063,0.0389977
			c-0.1249237,0.0839138-0.1675224,0.2709637-0.2727337,0.3766022c-0.0720749,0.0436974-0.1699028,0.0323448-0.2337379,0.0778732
			c-0.1680698,0.1200409-0.2847557,0.3737335-0.4025993,0.5454655c-0.0427818,0.0623722-0.1929703,0.2380104-0.1038704,0.3766041
			c0.0198345,0.0577316,0.0690842,0.0759792,0.1428661,0.0779324c0.0148907,0.0909309,0.0090332,0.2765179,0.0129986,0.3895416
			c-0.0712185-0.0007935-0.2685223,0.0097637-0.324667-0.025938c-0.1240711-0.0065289-0.237154-0.027462-0.2597351,0.0779324
			c-0.6078987-0.0046978-1.2025547-0.080862-1.7921448-0.1169281c0.0120831-0.0372887,0.0419254-0.060297,0.0519352-0.0908718
			c0.0393009-0.1197968-0.0214214-0.2898197,0.0389957-0.3896008c-0.0006104-0.0400963-0.0045147-0.0665817-0.0129986-0.0909328
			h-0.1298676c0.0216656-0.2813377,0.0432701-0.5627365,0.0649338-0.8440762c0.0170269-0.0780544-0.0140362-0.2161598,0-0.2597332
			c0.0178814-0.0555973,0.0947762-0.0905056,0.116869-0.1558666c0.0202007-0.0283165,0.0205669-0.1274872,0-0.1558037
			c-0.0562077-0.1494579-0.4281712-0.115099-0.6103401-0.1558647c-0.1844254-0.0411949-0.6797276-0.1107655-0.8571358-0.0389366
			c-0.1505566,0.0609665-0.2559509,0.1949234-0.3766041,0.2856712c-0.0646286,0.0487003-0.1535454,0.0994148-0.1818008,0.1818638
			c-0.3828888,0.0021362-0.5336895,0.2607727-0.7272091,0.4544754c-0.0818996,0.0820198-0.2082272,0.1793594-0.2467346,0.2987309
			v0.1558037c0.0442448,0.0410709,0.0754299,0.0547428,0.1428051,0.0779324
			c-0.0004272,0.1402416,0.0233116,0.263031,0.0259972,0.4155388c-0.0906258-0.0007324-0.4617977-0.0028687-0.5194683-0.0389347
			c-0.1150379-0.0064697-0.161541,0.0016479-0.1818027,0.0909309c-0.1204681,0.0004272-0.6407318-0.0144024-0.7012711-0.0519962
			h-0.1428661c0.017271-0.0471134,0.0616989-0.0654221,0.0779324-0.1038685
			c0.0508366-0.1202259,0.0123882-0.3288193,0.0519352-0.4545364c-0.0402794-0.0140362-0.1094837-0.0144024-0.1688042-0.0129986
			c0.008667-0.2596741,0.0173321-0.5194702,0.0259991-0.7791424c0.000061-0.0902004,0.0233116-0.2800579,0-0.3246689
			c0.0142193-0.0864162,0.0753689-0.0588913,0.1038685-0.1298676c0.0083008-0.0193462,0.0161114-0.0056133,0-0.0259972
			c0.0001831-0.0558414,0.005188-0.1060677-0.0259972-0.1298676c-0.0754299-0.0576096-0.1840611-0.0122662-0.2986717-0.0389366
			c-0.1364574-0.0317345-0.3023319,0.0093994-0.4545345-0.0259972c-0.0967903-0.0225201-0.2890282-0.0530949-0.4025402-0.0259361
			c-0.2547302,0.0608444-0.4534378,0.1504326-0.6623344,0.2597332c-0.0527287,0.027586-0.1144886,0.0848293-0.1688042,0.1038704
			c-0.1379223,0.0483341-0.3036747,0.0108624-0.4285984,0.0649338c-0.0873318,0.0378361-0.1680107,0.1191864-0.2467365,0.1688023
			c-0.2066402,0.1304169-0.4085197,0.2634583-0.6103382,0.3896027c-0.0101929,0.0449772-0.0290508,0.1522636,0,0.1948013
			c0.0140362,0.039423,0.011961,0.0385075,0.0519333,0.0519333c0.0219097,0.0165997,0.0553532,0.0228252,0.0909328,0.0259991
			c0.0090313,0.0845833-0.0023804,0.2613201,0.0389347,0.324667v0.1038704
			c-0.146162-0.0485172-0.5557194-0.0002441-0.6622734-0.0649338c-0.0872707,0.0022583-0.1263885,0.0466251-0.1428661,0.116869
			h-0.0519352c0.0072613-0.0959358,0.0519352-0.0741501,0.0778713-0.1298676
			c0.0407047-0.0872707-0.0091534-0.2208595,0.0389977-0.2986698c0.0014629-0.0479679,0.0056744-0.1149158-0.0130005-0.142868
			c-0.0317955-0.0212975-0.1158905-0.0149517-0.1688023-0.0129375l-0.0129986-0.0129986
			c0.0094585-0.0508976,0.0340538-0.0954475,0.0389347-0.116869c-0.0043316-0.0909309-0.0086651-0.1818619-0.0129375-0.2727337
			c0.0169659-0.0540085,0.0820827-0.1049061,0.1038704-0.1558647c0.0611496-0.1431713-0.0472965-0.2743206-0.0909328-0.3636036
			c0.0857449-0.0671921,0.1740513-0.2112179,0.1039314-0.3636036c-0.0177593-0.0385094-0.0925789-0.1004524-0.116869-0.1558666
			c-0.1696568-0.3870983-0.3293667-0.7816448-0.5324688-1.142807c-0.0562668-0.010191-0.2115211,0.0042725-0.2597332-0.0259361
			h-0.3636055c-0.1255341,0.233736-0.2510681,0.4675331-0.3766022,0.7012711
			c-0.0289268,0.010191-0.07061,0.013792-0.116869,0.0129375c-0.0279503,0.0792141,0.0026245,0.1814365-0.0259972,0.2727337
			c-0.0485783,0.1550713-0.2627869,0.3983898-0.1038704,0.5584049v0.0129986
			c-0.1467094,0.0294762-0.3446846-0.0037231-0.4805317,0.0389977c-0.0910549,0.0286217-0.1835728,0.0964851-0.2597351,0.1428051
			c-0.1817417,0.1105824-0.3791056,0.1993771-0.5584059,0.2987309c-0.0537653,0.0297813-0.3246069,0.0339317-0.3766022,0h-0.1298676
			c0.0143414-0.1204681-0.0128164-0.3197861-0.0129995-0.467535c-0.000061-0.0660324,0.0140371-0.1774693-0.0129375-0.2207985
			c-0.0055532-0.1263885,0.0230074-0.1462841,0.1038694-0.1818027c-0.0003052-0.0353947-0.0004883-0.0595016-0.0129986-0.0778713
			c-0.0148907-0.1402416-0.1462841-0.0761013-0.2727337-0.1039295c-0.0651169-0.0143414-0.6736259-0.0472355-0.7921419-0.0129986
			c-0.2415485,0.0698757-0.4838896,0.1835709-0.7142706,0.2857323c-0.0304527,0.0134869-0.0725012,0.0546188-0.1038694,0.0649338
			c-0.1471376,0.0043316-0.2943983,0.0086651-0.4415359,0.0129986c-0.2325163,0.0606003-0.4026623,0.1879654-0.584403,0.2986698
			c-0.0716467,0.0436344-0.1502504,0.0609055-0.2077999,0.116869h-0.0259371
			c-0.005065-0.2575989-0.0108633-0.519104-0.0519342-0.7402077c0.0391188-0.0192242,0.0700598-0.0407047,0.116868-0.0519352
			c-0.0011597-0.0499191-0.0043945-0.0770779-0.0259981-0.1039295c-0.0336266-0.0801907-0.0854998-0.0449772-0.1818018-0.0649338
			c-0.1552553-0.0321007-0.6469564-0.0597458-0.8311386,0c-0.2054806,0.0667038-0.4189568,0.1360321-0.6233387,0.2207985
			c-0.0580378,0.0240459-0.1327353,0.0734787-0.1948013,0.0908718h-0.1688032
			c-0.161418,0.000061-0.3191147-0.0076904-0.4415359,0.0389957c-0.4285383,0.2120724-0.8571367,0.4242058-1.2856741,0.6363373
			c-0.0281954,0.072319-0.0055542,0.1121082,0,0.2077389c0.0389357,0.0043335,0.0779324,0.008667,0.116868,0.0129986
			c0.0144634,0.1202259,0.0740271,0.209631,0.0779324,0.3376675c-0.3116083-0.0173321-0.6233997-0.0346642-0.9350076-0.0519333
			c-0.0185528-0.1331024-0.0790925-0.2499104-0.1168685-0.3636665c-0.054132-0.1628208-0.0750031-0.3040409-0.1298676-0.4674721
			c-0.0458317-0.1364594-0.1224217-0.30093-0.1558652-0.4415379c-0.0160503-0.0677414,0.0385089-0.0555344,0.0259981-0.1168671
			c-0.0487614-0.2386818-0.1699018-0.498354-0.2467356-0.7272701c-0.1107659-0.329855-0.185586-0.6448822-0.2987318-0.9739437
			c-0.0892835-0.2598572-0.1590385-0.537838-0.2596736-0.8052015c-0.0584035-0.1551332-0.1406078-0.3240585-0.1298671-0.5064707
			c0.0424752-0.0393019,0.0910535-0.0731115,0.1428051-0.1038694c0.0045772-0.1559258,0.0011597-0.2409992-0.0908704-0.2986698
			v-0.0259981c0.1296229-0.0661545,0.2325773-0.1706343,0.350605-0.2467356
			c0.0404615-0.18046-0.0148296-0.3800211-0.0389357-0.5584049c-0.2051759-0.051569-0.4874296,0.051446-0.6882725,0.1038694
			c-0.0650558,0.0170259-0.1768589,0.0035391-0.2077999,0.0519342c-0.0425973,0.0667648,0.0413771,0.1990118,0.0649338,0.2597351
			c-0.115953,0.0472965-0.1879659,0.1003294-0.2856717,0.1558647C5.7512665,14.8110409,5.7601156,14.8738995,5.796,14.9122868
			c-0.012816,0.1108875-0.0965462,0.0757351-0.1428661,0.1428661c-0.0216651,0.0313683-0.0104356,0.0544367-0.0389967,0.0779324
			c0.0350909,0.1143055,0.0034785,0.2088985,0.1169291,0.2726727c-0.0735993,1.0907516-0.1471992,2.1818676-0.2207985,3.2726192
			c-0.0585871-0.0126324-0.0637741-0.0484562-0.1038694-0.0649338H5.2635317
			c-0.1794219-0.0396671-0.4384241-0.0613937-0.5844026,0.0129986c-0.024045,0.0876369-0.0663986,0.2298927,0,0.3116703
			c0.0153179,0.0671921,0.0809836,0.0976448,0.1558652,0.1038685c0.0083609,0.022398,0.002502,0.0126953,0.0129375,0.0259991
			c-0.0281944,0.0230064-0.0627365,0.0268517-0.116868,0.0259361c-0.004333,0.0043335-0.008666,0.008667-0.012938,0.0129986
			c-0.0016479,0.0532169-0.0084219,0.1366425,0.012938,0.1688042c0.0183692,0.1531792,0.3426104,0.3022099,0.4545355,0.3896008
			c0.035274,0.0275249,0.2642508,0.5181885,0.2857323,0.584404c0.004333,0.4284763,0.008666,0.8571358,0.012938,1.2856731
			c0,0.1237659-0.0314293,0.4404392,0.0129991,0.4934711c0.0049434,0.0038452,0.312768,0.0765915,0.3246684,0.0779343
			c0.0029292,0.0300865,0.002563,0.0366154,0.0129986,0.0519333v0.0649338
			c0.1583676,0.0275249,0.4456868-0.0987434,0.5194693-0.0519962h0.1038694
			c-0.0083609,0.022459-0.002563,0.0127563-0.0129986,0.0259991c-0.0325279,0.0266075-0.1006961,0.0373497-0.1558042,0.0389347
			c-0.0004272,0.037899-0.0006714,0.0707932,0.0129375,0.0909328v0.0259972
			c0.1215067,0.0237408,0.5501666,0.1011848,0.6883335,0.0649338c0.1695356-0.0445499,0.3646417-0.1159534,0.5584049-0.1298676
			v-0.0779324c0.0818386,0.0002441,0.2161608,0.0021973,0.2726727,0.0389366
			c0.0852561,0.003355,0.0657272,0.0259972,0.1169295,0.0519333c0.0552912,0.0366173,0.2035279,0.0283794,0.2856717,0.0259991
			v-0.0389366c0.1716099-0.0022583,0.2471018-0.0555954,0.3896017-0.0649338
			c0.0037222,0.0371666,0.0078115,0.1150379,0.0259981,0.1428051c0.0042715,0.0129986,0.008605,0.0259991,0.0129375,0.0389977
			c0.1560478,0.0043335,0.3655567,0.0683517,0.4675341-0.0259991h0.0259981c-0.0037832,0.0514469-0.0192232,0.0853786,0,0.116869
			c-0.0020142,0.142622-0.01367,0.3168564,0.0389357,0.4026012c0.1453686,0.0064697,0.2925682,0.0517521,0.4804726,0.0519352
			c0.1371908,0.3106308,0.2688894,0.4735756,0.7272692,0.4675331c0.0805569-0.087635,0.1170521-0.1324902,0.2727337-0.1168671
			c0.0432692,0.0043335,0.0865374,0.008604,0.1298065,0.0129375c0.0488224,0.0267906,0.0589523,0.1165028,0.1039305,0.1428661
			h0.0519342c0.0610895,0.031002,0.1156483,0.1008797,0.1818027,0.1298676
			c0.1938238,0.0849514,0.5046387,0.1319427,0.7532053,0.0779324h0.1948013
			c0.0519953-0.0180035,0.1059446-0.0906868,0.1558647-0.116869c0.0847073-0.0445499,0.1442699-0.0538254,0.1948013-0.1298676
			c0.0175152-0.0134869-0.005187-0.0201378-0.0129986-0.0519333c0.029232-0.0076904,0.0160503-0.0043335,0.0349073-0.0009766
			c0.001709-0.0004883,0.00354-0.0026855,0.0055542-0.0039673c0.0065908-0.1233368,0.1705723-0.216526,0.1932745-0.3716602
			c0.0690842,0.0440636,0.053339,0.2347145,0.0909319,0.3116703c0.0814724,0.1668491,0.2637625,0.2648602,0.3246679,0.4544735
			h0.0129385c0.0256319,0.0073242-0.0259371,0.0130005-0.0259371,0.0130005
			c0.0853777,0.1089344,0.2785311,0.1232758,0.4804726,0.1168671c0.0443668-0.0460758,0.1039915-0.0640793,0.1558647-0.1038685
			c0.0272188-0.0208721,0.034359-0.0569401,0.0649338-0.0779324c0,0-0.0029287-0.0509586-0.0129986-0.025938
			c-0.0043335,0.0043335-0.008666,0.008667-0.0129995,0.0129375c0.0713425-0.1445751,0.1727095-0.3451118,0.1818027-0.5324059
			c0.2049313,0.0093365,0.4782143,0.0425358,0.6623354,0.0259361c0.0214205,0.0748806-0.0022583,0.2494202,0.0129375,0.3896027
			c0.0705481,0.0148907,0.5270367,0.0679836,0.5324688,0.0649338h0.1038694v0.0259972
			c-0.022398-0.0083599-0.0126944-0.0025635-0.0259371-0.0129986h-0.0779324
			c0.1088734,0.1606255,0.2209206,0.3405972,0.2727327,0.5584049c0.3063602,0.0812283,0.6882734,0.0714016,1.0129404,0.1428661
			h0.3116703c0.1116199,0.0243492,0.383194,0.0885506,0.5194683,0.0519352
			c0.1190662-0.0320396,0.1448193-0.1433544,0.2467365-0.1818027c0.0829983-0.0521183,0.278347,0.0374718,0.4025402-0.0129986
			c0.054985-0.022337,0.1039295-0.0930672,0.1558647-0.116869c0.1470165-0.0673141,0.3446846-0.1201019,0.4545345-0.2207375
			h0.0389366c-0.0461979,0.1287689-0.0315514,0.4599056-0.0908699,0.5584049
			c-0.0029297,0.0579758,0.0076275,0.0483341-0.0259991,0.0519352c0.005188,0.0266685,0.0032349,0.0250206,0.0130005,0.0389347
			c0,0-0.0029297,0.0509586-0.0130005,0.0259991l-0.0129986-0.0129986c0.0058594,0.0386906,0.0065918,0.0438175,0.0259991,0.0649338
			v0.0129986c0.0141582-0.0221539,0.006834-0.0400352,0.0129986-0.0519352V24.535223
			c0.0200768,0.0303307,0.0183697,0.0890999,0.0389347,0.1168671c0.0685959,0.0557194,0.4901772,0.1112537,0.5324078,0.0519352
			l0.0519962,0.0519962c0.1479912-0.0053711,0.4121208-0.146101,0.5064697-0.2207985
			c0.039669-0.053278,0.0304527-0.2491779,0.0129375-0.2856731c-0.0014038-0.1263275-0.034481-0.5741501,0.0129986-0.6493359
			c0.1077156-0.0729885,0.3410854-0.0313072,0.4805336-0.0129986c0.0003052,0.0353966,0.0004883,0.0595016,0.0129395,0.0779324
			v0.0259361h0.0649319c0.0009766,0.2745647,0.0161724,0.5831833,0.142868,0.7402687
			c0.0715237,0.0886745,0.2230568,0.1287689,0.2857323,0.2207375c0.0422306,0.0620651,0.0331993,0.1636162,0.0778713,0.2207985
			c0.0836086,0.1040535,0.5165997-0.0008545,0.5974007-0.0649319c0.0377159-0.0302715,0.079031-0.1154652,0.1038704-0.1558666
			c0.0401554-0.0082989,0.0867195-0.013792,0.1428661-0.0129986c0.0510807,0.0488224,0.1078358,0.0624313,0.1428661,0.1298676
			c0.304285-0.0248985,0.5574894-0.5340557,0.5584049-0.8830738c0.0917244-0.0371647,0.13591-0.0882454,0.1818027-0.1688023
			c0.2436829,0.0012207,0.4992065,0.0302086,0.7142696,0.0779324c0.0876961,0.0194683,0.1737461-0.0133038,0.233736,0.0259361
			h0.0130005c-0.0012207,0.0716476,0.0043316,0.1155872,0.0259972,0.1558666
			c0.085928,0.0023785,0.2233009,0.0076275,0.2726727,0.0519333c0.0321007,0.0192852,0.0241051,0.0160503,0.0259972,0.0649338
			c0.0476017,0.0129986,0.0952034,0.0259991,0.1428661,0.0389366c0.1183338,0.0062237,0.305933,0.0432682,0.3116703-0.0778713
			c0.0381413,0.0131817,0.0557175,0.0405827,0.0908699,0.0519333c0.1035652,0.0334435,0.1837559-0.010252,0.2986698-0.0129986
			c-0.0015869,0.3834991,0.0281353,0.9568558,0.2597351,1.0518761v0.0130005
			c-0.0371056-0.0046997-0.0560837-0.0084839-0.0778713-0.025938H24.691206
			c0.024044,0.1108875,0.1286469,0.0651779,0.2207375,0.1038704c0.103138,0.0433292,0.1595268,0.134016,0.2077999,0.233736
			c0.0264854,0.0092144,0.0788479,0.0004883,0.116869,0.0129986c0.0468693,0.01544,0.1025257,0.056879,0.1558647,0.0779324
			c0.0557785-0.1000843,0.1003914-0.2366047,0.1948013-0.2986698c0.1951675-0.1284027,0.4599056,0.0015869,0.5064697,0.1818027
			c0.1599541-0.0469913,0.1818638-0.5407677,0.5454063-0.4415379c0.0365562,0.0099487,0.098011,0.0419273,0.1298676,0.0649338
			c0.0737209,0.0531559,0.0748806,0.1481152,0.1298676,0.2207375v0.1688652
			c0.0389347,0.0216045,0.0779324,0.0432682,0.1168671,0.0649338c0.0579166,0.0425358,0.0620041,0.1083851,0.1038704,0.1688023
			c0.0460758,0.0663986,0.1467113,0.085989,0.1948013,0.1558037h0.5194683c0.0630417,0,0.1670341,0.0126953,0.2077999-0.0129375
			c0.089529-0.0175152,0.1265717-0.1265106,0.1818027-0.1818619l0.1688023-0.1688042
			c0.0433903-0.0814114,0.0324059-0.1885147,0.0519352-0.2597332c0.056572-0.2056046,0.170023-0.4328098,0.1818638-0.6752739
			c0.1043568-0.0002441,0.1312695,0.0208702,0.1947384,0.0519352v0.0519333
			c0.1618462,0.0087891,0.3263168,0.0494938,0.467535,0.0129986c0.0043335-0.0216637,0.008667-0.0432682,0.0129986-0.0649319
			h0.0519352c-0.0031738,0.3800812-0.0123882,0.7280617,0.1298676,0.9610043
			c0.0173321,0.0519352,0.0346031,0.1038704,0.0519352,0.1558056c0.0156841,0.0136089,0.350666,0.068716,0.4025993,0.0909309
			c0.0917873,0.0393009,0.1346893,0.1473827,0.2207394,0.1818027c0.0369816,0.0121441,0.0518723-0.0230083,0.0909309-0.0389366
			l0.1818027-0.0259972c0.0967293-0.0348473,0.1885757-0.1379852,0.2986698-0.1688042
			c0.1181507-0.0331383,0.3028812,0.0248394,0.3896027-0.0389957c0.0629196-0.0446739,0.1128998-0.214941,0.1168671-0.3116703
			c0.1198597-0.0241661,0.1486645-0.1482372,0.233799-0.2077389c0.0013428-0.0328941,0.001585-0.048151,0.0129375-0.0649338
			c0.0033569-0.1336498-0.044733-0.1154041-0.1428051-0.1428661c0.0026855-0.1154652,0.0275841-0.2070065,0.0389347-0.3116684
			h0.1038704c0.001709,0.0667629,0.0152569,0.1905899-0.0129375,0.233736
			c0.0083599,0.022398,0.0025005,0.0126934,0.0129375,0.0259972c0.0638351,0.0445518,0.4423294,0.0762863,0.5454674,0.0779343
			c0.0011597,0.0499191,0.0043335,0.0770168,0.0259361,0.1038685c0.0302696,0.068779,0.1080208,0.0300865,0.1688652,0.0649338
			c0.1483574,0.0028687,0.1252899-0.0407066,0.1948013-0.1039314c0.1743546-0.0761623,0.5929451,0.1285248,0.8051376-0.0129375
			c0.1226692-0.0817776,0.2248878-0.3304043,0.2727356-0.4805336c0.0424767-0.1334667-0.0696335-0.185585-0.0519943-0.2856712
			c0.0249596-0.1415844-0.0216064-0.3495674,0.0129967-0.5064697c0.0456505-0.2067623,0.0254478-0.5161133,0.0259972-0.7142696
			v-0.3766041l-0.0129967-0.5844021c0-0.0685959,0.0154991-0.1883926-0.0130005-0.2337379V21.639267
			c0.0230064-0.043026,0.146347-0.0566349,0.1948013-0.0779324c0.1627617-0.0714035,0.3584175-0.1569042,0.5064697-0.2467365
			c0.0264854-0.1004524,0.0415611-0.2186623,0.0389366-0.3636036c-0.0527878,0.0006714-0.1082039-0.0009766-0.142807-0.0129986
			c0.0249023-0.0948982,0.1817436-0.1050911,0.2337379-0.1818027
			C34.4141045,20.5702419,34.3109665,20.2673607,34.1452789,20.2107258z M5.4842696,19.1329136
			c-0.0367389-0.0106201-0.0525451-0.0090332-0.1038694-0.0130005v-0.0389957
			c0.0581598,0.0007324,0.0430856,0.0120831,0.0779328-0.0259361h0.0259366V19.1329136z M5.7830009,15.3018885H5.7570033v-0.0259371
			c0.008666,0.0042725,0.0173321,0.008605,0.0259976,0.0129375V15.3018885z M5.796,15.1720209H5.7700024
			c-0.0104361-0.0339317-0.0161114-0.0307579-0.0259981-0.0649338L5.796,15.1200867V15.1720209z M6.2115388,18.301775v0.0389347
			c-0.0098252-0.0139751-0.0081778-0.012022-0.0129991-0.0389347H6.2115388z M6.1985397,18.3667088
			c0.0098257,0.0139751,0.0081778,0.011961,0.0129991,0.0389347H6.146605
			C6.1705279,18.3865414,6.1813912,18.3966122,6.1985397,18.3667088z M6.1206074,18.3147125v0.0259972
			c-0.004333-0.0043335-0.008605-0.0086651-0.012938-0.0129986c-0.0248384-0.0216045-0.0433297-0.0823879-0.0519958-0.116869
			C6.0943651,18.232935,6.0934501,18.282856,6.1206074,18.3147125z M6.1336064,18.3537083v0.025938H6.1206074v-0.025938H6.1336064z
			 M5.9258065,18.0160427c0.0228853,0.0352116,0.0062246,0.073904,0,0.1168671h-0.012938
			C5.9125633,18.0865898,5.9157367,18.0451527,5.9258065,18.0160427z M5.9258065,18.1459084h0.0519958
			c-0.0260592,0.0514469-0.0239229,0.08074-0.0519958,0.1298676h-0.012938
			C5.9125633,18.2079754,5.9168963,18.1750202,5.9258065,18.1459084z M5.9258065,18.3407097v0.0389366
			c-0.0098257-0.0139141-0.0081167-0.011961-0.012938-0.0389366H5.9258065z M6.0037389,18.301775v-0.0130005h0.0129991
			c-0.004333,0.0432701-0.008666,0.0865993-0.0129991,0.1298676c0.0216651-0.0043316,0.0433297-0.0086651,0.0649338-0.0129986
			l0.0129991,0.0129986v0.0130005C6.047801,18.427187,6.012527,18.4207783,5.9778023,18.4445801
			c-0.030148-0.0029297-0.0366778-0.0025635-0.0519958-0.0129375c-0.004272-0.0043335-0.008605-0.008667-0.012938-0.0130005
			C5.9701128,18.3880062,5.9667559,18.3501091,6.0037389,18.301775z M5.9258065,18.5095139h-0.012938
			c0.004333-0.008606,0.008666-0.017271,0.012938-0.025938c0.0792141,0.0011597,0.2183576,0.0090332,0.2727332-0.0259972h0.0389972
			C6.1665611,18.5125637,5.9848814,18.4811954,5.9258065,18.5095139z M7.7049518,20.2497234h0.0519347
			c-0.0125108,0.0104351-0.0355792,0.0191631-0.0519347,0.0259361V20.2497234z M6.9128103,19.1329136
			c-0.004333-0.1645317-0.008666-0.3290634-0.0129991-0.4935322v-0.0519352c-0.0762849-0.0142193-0.1773472,0.0272179-0.2597346,0
			c-0.0194068-0.0064087-0.0181866-0.0305748-0.0649338-0.025938c-0.0300865,0.0029297-0.0758576,0.0180645-0.0908704,0.0129395
			c-0.063652-0.0415611-0.0180035-0.2663269-0.0389967-0.3636055c-0.0138535-0.0643234,0.0060415-0.2212257-0.0129991-0.3376675
			c-0.0177593-0.1090565-0.0422316-0.4771767-0.012938-0.6233387c0.0208106-0.1039295-0.0589528-0.2707806,0-0.3636036
			c0.004333-0.0043316,0.008666-0.0086651,0.012938-0.0129986c0.1523867,0.3654957,0.216466,0.758028,0.350666,1.1428089
			c0.0612111,0.1755161,0.1706338,0.3899059,0.1948009,0.5844021c0.1057615,0.0220318,0.0955696,0.1789951,0.1298676,0.2727337
			c0.0756745,0.2068233,0.145246,0.4428787,0.2207379,0.6492748c0.0278897,0.0761642,0.0242887,0.1590996,0.0649333,0.2207985
			c-0.0073233,0.0789719-0.0613937,0.0809231-0.1298671,0.0908718c0.0082388,0.0369816,0.0186744,0.0784206,0.0389967,0.1039295
			c-0.0104966,0.0524845-0.0272183,0.056879-0.0649338,0.0779324v0.0778732
			C7.1870694,20.099411,7.115972,20.108139,7.0816131,20.1328545c-0.0297203,0.0133648-0.0281339,0.0222759-0.0519347,0.0389366
			c-0.0012202,0.0847054,0.0015259,0.1733189,0.0389361,0.2207985c-0.0014038,0.0369835-0.0051875,0.0554733-0.012938,0.0778713
			l-0.0389967,0.0129986C6.9820766,20.0333176,6.947413,19.5830536,6.9128103,19.1329136z M7.3153501,22.1457367
			c-0.0266695-0.005188-0.0250216-0.0032349-0.0389357-0.0129986c-0.0528502,0.0006714-0.1082025-0.0009766-0.1428666-0.0129986
			v-0.0389366c0.0689616-0.0152569,0.0932508-0.0183697,0.1688643-0.0129986
			c0.004333,0.0043335,0.008666,0.0086651,0.012938,0.0129986V22.1457367z M8.2763557,21.054863
			c-0.1454296,0.0278912-0.2729778-0.0123882-0.4415364-0.0129986v0.0519962c-0.1359701,0.0118999-0.4547796,0.0831203-0.584342,0
			H7.2244797v-0.11693c-0.0266695-0.005125-0.0250216-0.0031738-0.0389361-0.0129375
			c-0.0528498,0.0006104-0.1082635-0.0010376-0.1428661-0.0129986c0.0016479-0.0640182,0.0138535-0.1798496-0.0129991-0.2207985
			v-0.0129986c0.2741985-0.0594425,0.9420877-0.1782627,1.1038723-0.3246078
			c0.0206881-0.0077515,0.0146465-0.0045166,0.0239229-0.012022c-0.001709-0.0012207-0.0052481-0.0014038-0.0070791-0.0025024
			c-0.0228853-0.0038452-0.0458927-0.0076294-0.0688391-0.0114746v-0.0129986
			c0.0356398,0.0021362,0.0513239,0.0136089,0.0688391,0.0244732c0.0030518,0.0004883,0.0060415,0.0010376,0.0090933,0.0015259
			c-0.0010376,0.0007935-0.0012207,0.0003662-0.0020142,0.0009766c0.0261202,0.0181236,0.04632,0.0407658,0.0799465,0.0639572
			c-0.0006104,0.1006947-0.0001221,0.4312229,0.0389357,0.4934711V21.054863z M8.8737574,20.7561932
			c-0.0350294,0.0090923-0.0562067,0.0179424-0.0779324,0.0389366c-0.0728064-0.0461979-0.041194-0.3184433-0.0908709-0.4025402
			v-0.0259991c0.0605402,0.0043335,0.1212015,0.008667,0.1818027,0.0130005
			c0.0020742,0.1323681,0.0527277,0.1658115,0.0908699,0.2467346C8.9266691,20.6640415,8.878335,20.6664829,8.8737574,20.7561932z
			 M12.4060507,23.4184113h-0.0129986v-0.0259972h0.0129986V23.4184113z M12.5229197,20.1198559
			c-0.1017342,0.0030518-0.1930923,0.0063457-0.1948013-0.0259972h0.1818018l0.0129995,0.0129986V20.1198559z
			 M14.0163937,21.3665333c-0.0574884,0.0009155-0.0889177-0.0001221-0.11693-0.025938
			c-0.0211153-0.0150738,0.0028076-0.0165977,0.0129995-0.0389957c0.0192232,0.0145855-0.0050049,0.0159283,0.0259972,0.0389957
			c0.0200176,0.0101318,0.0318565-0.0009136,0.0519352-0.0259972h0.0259981V21.3665333z M14.0683279,21.2107296h-0.0259981
			l-0.0129986-0.0130005v-0.0519333l0.0389967,0.0129986V21.2107296z M13.977397,21.0938606
			c-0.0579157,0.0012817-0.0607843-0.0046997-0.0779333,0.0389347c-0.022397-0.0083599-0.0126934-0.0025616-0.0259361-0.0129986
			H13.860528c0.0170879-0.0195885,0.0243502-0.0278282,0.0519352-0.0389347
			c0.0111065-0.008606,0.0407667-0.0175762,0.0519342-0.0259991c0.0346642,0.0130005,0.0692673,0.0259991,0.1039305,0.0389977
			C14.049593,21.1279755,13.9974136,21.1417675,13.977397,21.0938606z M15.2370729,23.717083
			c-0.0098257-0.0139751-0.0081167-0.012022-0.0129986-0.0389366h0.0129986V23.717083z M15.4318743,21.5873318
			c-0.0217876,0.051569-0.0790319,0.0565739-0.116869,0.0908699h-0.0259981
			c0.00177-0.0804958,0.0222149-0.2442932-0.0129375-0.2986698c-0.0046988-0.0487003-0.0100698-0.0482731-0.0259981-0.0779324
			c-0.0774441-0.0192242-0.4678392-0.1024055-0.5454054-0.0519352c-0.0794582,0.0278893-0.0971565,0.1500072-0.1039305,0.2467365
			c-0.0399122-0.0139751-0.0468702-0.0317345-0.0778723-0.0519352c-0.001586-0.1362133-0.0118389-0.3456001,0.0129385-0.4026012
			c0.0100079-0.1126575,0.1918106-0.1731968,0.2597342-0.2726727c0.0589533,0.0143414,0.0479069,0.0468693,0.0909319,0.0649338
			c0.1558037,0.0129375,0.3116693,0.025938,0.467473,0.0389366c0.0226412,0.0638962,0.0205669,0.0980721,0.0909319,0.1168671
			C15.4463377,21.108263,15.4765463,21.5167828,15.4318743,21.5873318z M17.6785545,20.2886581
			c0.0223961,0.0084229,0.0126934,0.0025635,0.0259361,0.0130005h0.0129986v0.0259972H17.665554L17.6785545,20.2886581z
			 M17.6914921,21.3275967c-0.0442448-0.0027466-0.0662766-0.0062237-0.0908699-0.0259972h-0.0130005
			c0.0100098-0.0089111,0.0289288-0.0170879,0.0389366-0.0259361h0.0649338
			C17.6872807,21.316124,17.6870975,21.2961674,17.6914921,21.3275967z M17.5876217,21.5613346v-0.025938h0.0779324v0.0389366
			c-0.035944,0.0062847-0.0375309,0.0156841-0.0649319,0h-0.0259991L17.5876217,21.5613346z M17.4188194,20.5224571
			c0.0270348-0.0053711,0.0711575-0.0123291,0.0908699-0.0259991c0.0173321,0.008667,0.0346642,0.0173321,0.0519352,0.0259991
			c-0.0042725,0.008604-0.008604,0.017271-0.0129375,0.0259361h-0.1298676V20.5224571z M17.5356884,20.7561932v0.0389366
			l-0.0130005,0.0129986c-0.0378361,0.0004272-0.0707912,0.0006714-0.0908699-0.0129986l-0.0129986-0.0130005
			C17.4550095,20.7654686,17.4758797,20.7560711,17.5356884,20.7561932z M17.3538857,21.080862
			c0.017271-0.0173321,0.0346031-0.0346642,0.0519352-0.0519352h0.1168671
			c0.0043335,0.0042725,0.008667,0.008604,0.0130005,0.0129375c-0.0249615,0.037899-0.1090584,0.0247173-0.1428661,0.0519962
			h-0.0389366V21.080862z M17.5096893,21.2886009v0.0389957h-0.1428051v-0.0259972
			C17.4069805,21.2932987,17.4536057,21.2878075,17.5096893,21.2886009z M17.3019505,20.8081284h0.025938v0.0259972h-0.025938
			V20.8081284z M17.4447556,22.0548058v0.0389957c-0.0659714-0.0020752-0.1231537-0.0039043-0.1558037,0.025938
			c-0.0301476-0.0029297-0.0366173-0.0025635-0.0519352-0.0129375h-0.0129986
			C17.2734509,22.0725651,17.3713398,22.0538292,17.4447556,22.0548058z M17.4447556,22.3275394
			c-0.0275841,0.0114727-0.0577927,0.0203819-0.0778713,0.0389347h-0.0389957
			c-0.0043335-0.0129375-0.008667-0.0259361-0.0130005-0.0389347c0.0170269-0.0066528,0.0511417-0.0158672,0.0649338-0.0259991
			c0.0267315,0.005188,0.0250225,0.0032349,0.0389977,0.0130005C17.4412174,22.3229618,17.4315128,22.3171024,17.4447556,22.3275394
			z M17.1720829,21.8990021v0.0129986c-0.032711-0.0212383-0.0135479-0.0024414,0-0.0389977
			C17.1803837,21.8923492,17.1881943,21.8786182,17.1720829,21.8990021z M17.1980209,22.8470078
			c0.0224571-0.0083599,0.0127544-0.0025635,0.0259972-0.0129986h0.0389366l0.0129986,0.0129986v0.0129986h-0.0779324V22.8470078z
			 M17.3278885,23.2755451h-0.0519352c0.0118999-0.0280113,0.0112896-0.018856,0.0259972-0.0389347
			c0.0353966,0.0003052,0.0595036,0.0004883,0.0778713,0.0129375h0.0259991
			C17.387146,23.2835407,17.3528481,23.2876911,17.3278885,23.2755451z M17.3408871,23.0937443h-0.116869v-0.0129986
			c0.0424747-0.010437,0.09618-0.0278301,0.1298676-0.0519352c0.0266685,0.005188,0.0250206,0.0032349,0.0389366,0.0129986
			h0.0259972C17.4001446,23.0731163,17.366518,23.0716515,17.3408871,23.0937443z M17.4447556,22.8340092h-0.1688023v-0.0129986
			c0.0161724-0.008667,0.0268517-0.0140972,0.0389347-0.025938c0.0403404-0.0008526,0.0819607-0.0018902,0.1039314,0.0129395
			h0.0259361V22.8340092z M17.4577541,22.6002731c-0.0479679,0.0014648-0.1149139,0.0056744-0.1428661-0.0130005
			c-0.0043316-0.0043316-0.008604-0.0086651-0.0129375-0.0129986c0.0402794-0.0185528,0.0750046-0.027462,0.1428051-0.0259361
			c0.005188,0.0266685,0.0032349,0.0250206,0.0129986,0.0389347V22.6002731z M17.3798218,21.8600044
			c-0.0133648-0.0104351-0.0031719-0.0047607-0.0259361-0.0129375v-0.0389977
			c0.0266685-0.0051861,0.0250206-0.0032349,0.0389366-0.0129986c0.0528488,0.0030518,0.0500412,0.0064087,0.0779324,0.0259972
			C17.4491501,21.8379726,17.407835,21.8526192,17.3798218,21.8600044z M17.4837532,21.5873318
			c-0.0479679,0.0014648-0.1149158,0.0056763-0.1428661-0.0129986h-0.0129986v-0.0129986
			c0.0519333-0.0043335,0.1039295-0.008667,0.1558647-0.0130005V21.5873318z M17.5226879,22.782074h0.0909328v0.0129986
			c-0.0163555,0.0071411-0.0392418,0.0155621-0.0519962,0.025938h-0.0519352
			C17.5140228,22.808012,17.5183563,22.7950726,17.5226879,22.782074z M17.5356884,23.0158119h0.0908699
			c-0.0042725,0.0129986-0.008606,0.0259972-0.0129375,0.0389957c-0.0259991,0.0042725-0.0519962,0.008606-0.0779324,0.0129375
			v-0.0129375C17.5237255,23.0299091,17.5305004,23.0452271,17.5356884,23.0158119z M17.6395569,23.249548
			c-0.0183086,0.0066528-0.0624924,0.01544-0.0779324,0.0259972h-0.0259361
			c0.0166607,0.0114136,0.0320396,0.0120239,0.0649338,0.0130005c-0.0043335,0.0129986-0.008667,0.0259361-0.0130005,0.0389347
			c-0.0462589-0.0042725-0.0432682-0.0007935-0.0649338-0.0259361c-0.0174522-0.0244732-0.0061016-0.0407677,0.0130005-0.0779324
			h0.0908699l0.0129986,0.0129986V23.249548z M17.5876217,22.5872726c-0.0646286-0.0062237-0.0522995-0.0080547-0.0389347-0.0519333
			c0.0266685,0.0051861,0.0250206,0.0032349,0.0389347,0.0129986h0.0519352
			C17.6224689,22.5779972,17.6116676,22.5684776,17.5876217,22.5872726z M17.5226879,22.340538
			c0.0119019-0.0280113,0.0112915-0.018919,0.0259991-0.0389977h0.0778713
			c-0.0042725,0.0130005-0.008606,0.0259991-0.0129375,0.0389977H17.5226879z M17.6525555,22.0808029h-0.1168671v-0.0259972
			h0.1168671V22.0808029z M17.5616245,21.8340683v-0.0389977c0.042841-0.0010986,0.0930672-0.0030518,0.11693,0.0129986
			c0.0223961,0.0084229,0.0126934,0.0025635,0.0259361,0.0129986C17.6559734,21.836935,17.6224079,21.8323593,17.5616245,21.8340683
			z M17.6785545,21.0678635h-0.0519962c-0.0042114-0.0404625-0.0043945-0.0205059,0-0.0519352h0.0909309l0.0129986,0.0129986
			C17.7124252,21.0447941,17.6942997,21.0487003,17.6785545,21.0678635z M17.7564259,20.7821293
			c-0.0389366,0.0043335-0.0778713,0.008667-0.116869,0.0130005v-0.0389366h0.1039314
			c0.0043316,0.0043335,0.008604,0.008667,0.0129375,0.0129986V20.7821293z M17.7564259,20.5094585
			c-0.0392418,0.0080547-0.0690231,0.0135479-0.0908718,0.0389347c-0.0223961-0.0083599-0.0126934-0.0025635-0.0259972-0.0129986
			c-0.0125103-0.0208721-0.0007324-0.0012207,0-0.0389366h0.116869V20.5094585z M17.9382877,21.0418644
			c0.022398,0.0084229,0.0126953,0.0025635,0.025938,0.0129986h0.0129986l-0.0129986,0.0259991h0.0129986
			c-0.0122051,0.0537033-0.0013428,0.0223961-0.0389366,0.0389347
			C17.9169903,21.0695705,17.9191875,21.0865364,17.9382877,21.0418644z M17.9512272,22.0678043
			c0,0-0.0128174,0.0021362-0.0129395-0.0389366h0.0129395V22.0678043z M17.9642258,21.8470669
			c-0.022398-0.0084229-0.0126934-0.0025635-0.025938-0.0129986c-0.0104961-0.0133667-0.0048199-0.0032349-0.0129986-0.0259991
			c0.0118389-0.0120831,0.0175152-0.0226402,0.025938-0.0389347h0.0129986V21.8470669z M17.9382877,21.3405952v-0.0649319
			c0.0389977,0.0173912,0.0263653,0.0289268,0.0778732,0.0389347
			C17.9966927,21.3470039,17.9889412,21.3409615,17.9382877,21.3405952z M18.0940933,21.5873318l-0.0130005,0.0129986h-0.0129986
			c0.008728-0.0475407,0.0215435-0.0555344,0.0389977-0.0909309C18.1191139,21.5340538,18.107214,21.5548649,18.0940933,21.5873318z
			 M18.133028,21.4834023h-0.0259361c-0.0113506-0.0477238-0.0221539-0.0643845-0.0129986-0.1038704
			c0.0129986,0.008667,0.0259972,0.0173321,0.0389347,0.0259972V21.4834023z M18.691494,24.6650887
			c0.0306358,0.0114136,0.0214214,0.0048828,0.0389366,0.0259991C18.7142582,24.6823597,18.7035789,24.6769295,18.691494,24.6650887
			z M18.8342991,22.5223408H18.808363v-0.0259991h0.0259361V22.5223408z M19.3278313,24.4313526h-0.0129986l-0.0129986-0.0129986
			c0.0025635-0.0337486,0.0057373-0.0441227,0.0129986-0.0649338h0.0129986V24.4313526z M19.6135044,21.6912022
			c-0.053278,0.0363102-0.5663395-0.1092415-0.6622753-0.0259991c-0.1126575,0.0657883-0.0484562,0.3539619-0.1298676,0.4545364
			c-0.0133648,0.0104961-0.0032349,0.0048199-0.0259972,0.0129986c-0.0249615-0.0368614-0.0167828-0.1091175-0.0389366-0.1558037
			c-0.0522404-0.1098499-0.1575127-0.1608696-0.1558647-0.3246689c0.0501652-0.0014038,0.0659714-0.0029907,0.0909309-0.0259972
			c0.0129375-0.0043335,0.025938-0.008667,0.0389366-0.0130005c-0.0013428-0.0328941-0.0015869-0.04809-0.0129986-0.0649338
			c-0.0139751-0.0098248-0.0119629-0.0081158-0.0389366-0.0129375c0.0057983-0.2327595,0.1290741-0.2688885,0.1688042-0.4415359
			c0.1204681-0.003479,0.1384716,0.0368614,0.1818008,0.1038685c0.0829372-0.0010376,0.2521667-0.0120831,0.3116703,0.025938
			c0.3112411-0.0032959,0.1194305,0.1003914,0.2987309,0.1558647C19.640234,21.4589291,19.6506691,21.6330414,19.6135044,21.6912022
			z M24.1587372,21.1977291l0.0259991,0.0130005v0.0129375h-0.0259991V21.1977291z M23.8081322,21.1717319
			c0.0840359,0.0168438,0.2076168,0.0142803,0.3116703,0.0129986v0.0389366
			c-0.1318207-0.0009155-0.1872349-0.0260601-0.3116703-0.025938V21.1717319z M22.2627239,21.080862v0.0129986
			c-0.0306358-0.0114117-0.0214214-0.0049438-0.0389366-0.0259972
			C22.2367859,21.0721951,22.2497253,21.0765285,22.2627239,21.080862z M21.9640522,23.132679h-0.0129986v-0.0259361h0.0129986
			V23.132679z M23.2756634,22.8600063c-0.0404606-0.0078716-0.0315514-0.0022564-0.0519333-0.0259972h0.0519333V22.8600063z
			 M24.3146019,22.0808029v0.0908699c-0.0141582,0.0237408-0.1078358,0.031004-0.1298656,0.0519962
			c-0.008667,0.0302696-0.0173321,0.0606003-0.0259991,0.0908718c-0.0266075,0.0367374-0.0940437,0.0614548-0.1298676,0.0909309
			c-0.0098248,0.0139751-0.0081158,0.011961-0.0129986,0.0389347h-0.0389347
			c-0.012207,0.0281963-0.025877,0.0537663-0.0389366,0.0779343c-0.0359459,0.0062847-0.0375328,0.0156841-0.0649338,0
			c-0.1991348-0.0074463-0.1177845,0.0333805-0.1818027,0.1428661c-0.0436954,0.0193443-0.3393135-0.0222149-0.4155998-0.0389977
			c-0.1298656-0.0086651-0.2597332-0.017271-0.3896008-0.0259361c-0.2139034-0.0477848-0.4844398-0.0867214-0.7272091-0.0909328
			l-0.0129986-0.0129986c0.0043335-0.0735378,0.008667-0.1471386,0.0129986-0.2207375l0.1558056-0.0129986v-0.0649338
			c-0.1401825-0.0125103-0.2312355-0.0543156-0.4025402-0.0519352c0.0005493,0.1041145,0.0574265,0.0932503,0.1298676,0.116869
			l-0.0259991,0.2207985c-0.0917244,0.0015259-0.2265358,0.0125713-0.2856712-0.0259972
			c-0.0123272-0.0219097,0.0033569-0.1248646,0.0259361-0.1558666c0.0062866-0.1307812,0.1234608-0.1671543,0.1818027-0.2467346
			c0.1016731-0.1386566,0.2068844-0.2667542,0.3116703-0.4025402c0.0698147-0.0904427,0.1840591-0.1719761,0.2207985-0.2597351
			c0.4010754,0.00354,0.7724895,0.0678024,1.1558056,0.0908718c0.0029297,0.0301476,0.0025635,0.0366764,0.0129395,0.0519943
			c0.012022,0.0350304,0.0223351,0.0380211,0.0389957,0.0649338c0.1818027,0.0129375,0.3636036,0.025938,0.5454063,0.0389366
			c0.005188,0.0266685,0.0032349,0.0250206,0.0129986,0.0389347c0.0062866,0.077446,0.0383263,0.0896511,0.0909328,0.116869
			C24.3321171,21.8701344,24.3581772,22.0137939,24.3146019,22.0808029z M25.3794785,21.3275967
			c-0.1617851-0.0410099-0.2777386-0.0243492-0.4285374-0.0389957v-0.025938
			c0.0709743,0.0126343,0.2819481-0.0245934,0.3636036,0.025938c0.0480289,0.0057964,0.0382023,0.0072613,0.0649338,0.0259972
			V21.3275967z M25.4054146,21.3015995c-0.0042725,0.0043335-0.008604,0.0086651-0.0129375,0.0129986v-0.0259972
			c0.022398,0.0084209,0.0126934,0.0025635,0.0259361,0.0129986H25.4054146z M26.4054184,24.9897575h-0.0130005
			c0.0043335-0.0173321,0.008667-0.0346642,0.0130005-0.0519352h0.0259361
			C26.4217129,24.9679089,26.4178677,24.9668121,26.4054184,24.9897575z M26.4443531,24.9637604v-0.025938
			c0.022337,0.0078735,0.0408287,0.012085,0.0779324,0.0130005C26.5040379,24.9632721,26.4796886,24.9638824,26.4443531,24.9637604z
			 M26.8728905,25.1455612h-0.0129986v-0.0259361h0.0129986V25.1455612z M26.7950191,24.9897575h0.0389366
			c0.017149,0.0315514-0.0061035,0.0091553,0.0259361,0.0259991v0.0648708
			C26.8359089,25.0503578,26.8179665,25.0178909,26.7950191,24.9897575z M26.8598919,24.6001568h-0.0648727v-0.025938
			c0.0042725-0.0043335,0.008606-0.0086651,0.0129375-0.0129986c0.0471134,0.0024414,0.1589775,0.0028687,0.1948013,0.0259361
			c0.0098877,0.0139751,0.0081787,0.0120239,0.0129986,0.0389977
			C26.9557667,24.6266422,26.8953495,24.6250553,26.8598919,24.6001568z M28.3923016,25.3663616v0.0129986H28.379303
			c0.0111675-0.024168,0.0185528-0.034359,0.0259972-0.0649338C28.4168358,25.3395081,28.4127464,25.3418274,28.3923016,25.3663616z
			 M29.3273106,22.5872726c-0.0209332,0.0153198-0.1183338,0.060358-0.1428051,0.0649338
			c-0.0050659,0.049921-0.0124512,0.1132679-0.0389977,0.1428661c-0.0220928,0.0502872-0.0570602,0.0369225-0.0778713,0.0908718
			h-0.0519962v0.0909309c-0.0310631,0.0116558-0.0685959,0.018919-0.0908699,0.0389366
			c-0.0212994,0.0302086-0.0259972,0.094471-0.0259972,0.1428661l-0.0130005,0.0129986l-0.1428051-0.0129986
			c0.0194073-0.1006966-0.003479-0.2507648-0.0259972-0.350666c-0.044672-0.1980362-0.0472355-0.3648262-0.1428661-0.5064716
			c-0.2104244-0.3117294-0.8258286-0.3563404-1.1428089-0.1428051c-0.104723,0.070549-0.1595879,0.2207985-0.2207375,0.3376064
			c-0.0497379,0.0950203-0.2052975,0.3750172-0.1688023,0.4935322l-0.2207985-0.0259972
			c-0.0029297-0.0300865-0.0025635-0.0366173-0.0130005-0.0519352c-0.0014038-0.0369835-0.0051861-0.0555344-0.0129375-0.0779324
			c-0.0329552-0.0013428-0.048151-0.0015869-0.0649338-0.0129986c-0.0859871,0.0169659-0.1088734,0.0784206-0.1818619,0.1039295
			c-0.0509586,0.0303917-0.1554394-0.010191-0.2337379-0.0129986l-0.0129986-0.0129986
			c0.0013428-0.0504704,0.0072021-0.1146107,0.0129986-0.1298676c-0.0003662-0.037838-0.0006104-0.0707912,0.0129986-0.0909309
			c0.0300274-0.018858,0.1125355-0.0075684,0.1428661-0.025938h0.025938
			c-0.0029297-0.0301476-0.0025635-0.0366154-0.0129986-0.0519333c-0.0321007-0.0247173-0.0909328-0.0370445-0.1428051-0.0389977
			c0.017271-0.1285248,0.1227264-0.2306843,0.1818008-0.3246689c0.0656662-0.1044178,0.1042976-0.2066402,0.1688042-0.3116684
			c0.0361271-0.0587692,0.0912361-0.0977058,0.1039295-0.1818027c0.3148422,0.0013428,0.6792412,0.0039673,0.9609451,0.0649338
			c0.1897354,0.0410728,0.3979015,0.0014038,0.5714035,0.0389977c0.1531811,0.0331383,0.3740406-0.0340538,0.4934711,0.0389347
			c0.0148907,0.0217266,0.0214825,0.0886745,0.0259991,0.116869c0.2034664,0.0173321,0.4069328,0.0346642,0.6103401,0.0519352
			c0.0037823,0.0983162,0.0368595,0.0961189,0.0519943,0.1428661
			C29.5298615,22.2618732,29.3597775,22.5464458,29.3273106,22.5872726z M32.418129,15.2888889h0.0129356
			c-0.0163536,0.0376549-0.0180626,0.012145-0.0389366-0.0129375C32.4145279,15.2843122,32.4048233,15.2784538,32.418129,15.2888889
			z M32.1193962,23.3015442c-0.0043335,0.0043335-0.008667,0.008604-0.0129395,0.0129375
			c-0.0641403-0.0008545-0.2025509-0.0133038-0.2207966-0.0259361c-0.1401215-0.0062866-0.1929703,0.0294151-0.2207394,0.1298656
			l-0.441597-0.0389957c-0.0042725-0.0043335-0.008604-0.008606-0.0129375-0.0129375
			c0.006834-0.1738071,0.041193-0.2924461,0.0519352-0.4545364c0.0624924-0.001709,0.1825943-0.0181866,0.2207375-0.0519352
			c0.0728664-0.0014629,0.0782375-0.0022564,0.0779324,0.0389366c0.144392,0.0078106,0.4251194,0.0505314,0.5324688-0.0259972
			c0.0299644,0.0042706,0.0322227,0.0060406,0.0519333,0.0129986C32.1313591,23.003849,32.1319695,23.1835155,32.1193962,23.3015442
			z M32.4051285,22.340538c-0.0626755,0.1006355-0.1578178,0.2021847-0.1948013,0.3246689
			c-0.0809212-0.0194073-0.0987434-0.1003914-0.1558647-0.1428661c-0.0942879-0.0700607-0.2381306-0.1016121-0.3246689-0.1818027
			H31.716856c0.0015869-0.0897713-0.0088482-0.1208363-0.0389957-0.1688652h-0.0389366
			c0.0346031-0.1038685,0.0692673-0.2077389,0.1038704-0.3116684c0.0306969-0.0348473,0.082386-0.0144634,0.1039295-0.0649338
			c0.0571823-0.13414-0.0202007-0.2362385-0.0129986-0.3246078c0.0055523-0.0683498,0.0586472-0.2143288,0.0129986-0.2857323
			c-0.0043335-0.0129986-0.0086651-0.0259972-0.0129986-0.0389347H31.742794
			c0.0059795-0.190773,0.0289879-0.3595772,0.0649319-0.5194702V20.379591
			c0.0076904-0.0261211,0.0245953-0.0401573,0.0259991-0.0909328v-0.1558037
			c0.0286217-0.0833645,0.19767-0.2622375,0.1298676-0.3896027c-0.0046387-0.0829964-0.0319786-0.0816536-0.0649338-0.1298656
			c-0.1038704-0.0130005-0.2077999-0.0259991-0.3116703-0.0389366c0.0098267-0.2915306,0.1210194-0.6990128,0.1948013-0.9610062
			c0.0304527-0.1083241,0.0214825-0.1920547,0.0519352-0.2987309c0.1119862-0.3924713,0.1697807-0.8027611,0.2986717-1.1947422
			c0.0575485-0.1750278,0.1719131-0.4450169,0.1818008-0.6363392h0.0129967
			c0.0154419,0.044735-0.003231,0.1232777,0.0130005,0.1818638c0.0706711,0.2553406,0.0440025,0.5507164,0.1038704,0.8310776
			c0.058403,0.2734051,0.0581589,0.6933384,0.1298676,1.0000019c0.0311241,0.1331024-0.008667,0.2299538,0.0259972,0.3636055
			c0.0481491,0.1857071,0.0283775,0.4052849,0.0778732,0.6103401c0.0146446,0.0605392,0.0529099,0.2046261,0.0519943,0.2597332
			c-0.0024414,0.1382294,0.013546,0.364397,0.0519333,0.5064716c0.0301476,0.1116199-0.0193443,0.2273884,0,0.324667
			c0.0014648,0.0075073,0.0281334,0.08251,0.0259361,0.0909328c-0.0104942,0.0406437-0.0766487,0.0848274-0.0908699,0.1298046
			c-0.0212975,0.0675583,0.0123901,0.2375832,0.0259361,0.2987328c0.0415001,0.1871109-0.0306358,0.4063835,0.0909348,0.5064697
			c-0.0205078,0.1006355-0.0956917,0.1707554-0.142868,0.2467365C32.5860748,22.0027485,32.5099144,22.1722221,32.4051285,22.340538
			z M32.8466644,23.3794155c-0.1168671-0.008606-0.2337952-0.017271-0.350666-0.0259361
			c-0.0043335-0.0043335-0.008667-0.008667-0.0129356-0.0130005c-0.0005493-0.2878075,0.1409111-0.395277,0.2596703-0.5844021
			c0.0347862-0.0552921,0.0469322-0.111742,0.0909348-0.1558037c0.0139732-0.0098877,0.0120201-0.0081787,0.0389328-0.0130005
			c0.00177,0.1082649,0.0363121,0.3514595-0.0129356,0.4285393C32.8607025,23.1287746,32.8770561,23.289278,32.8466644,23.3794155z
			 M33.0674019,20.3016586c-0.0266685-0.005188-0.0250206-0.0032349-0.0389328-0.0130005
			c0,0-0.0509605-0.0029278-0.026001-0.0129986c0.0043335-0.0042725,0.008667-0.008604,0.0130005-0.0129375h0.0649338
			C33.0760689,20.2756596,33.0717354,20.2886581,33.0674019,20.3016586z M5.458333,19.0939159l0.0129986-0.0129986H5.445334
			C5.4330673,19.0945873,5.4493618,19.0956249,5.458333,19.0939159z M12.4539576,23.3655014
			c-0.0116558,0.0036011-0.0186739-0.0007935-0.0089712,0.0269127c0.0181255,0.0094585,0.0164165,0.0042114,0.0389967-0.0129986
			c0.022398-0.0083618,0.0126944-0.0025024,0.0259371-0.0129375c-0.0129375-0.0043335-0.0259371-0.008667-0.0389357-0.0129986
			c-0.005065,0.0083599-0.0073233,0.0053082-0.0114727,0.0080547c-0.000061,0.001709-0.0015259,0.0032349-0.0015259,0.0049438
			C12.4546289,23.3661118,12.4561548,23.3659286,12.4539576,23.3655014z M21.4705811,25.0806274h0.025938v-0.0259361h-0.025938
			V25.0806274z"/>
	</g>
</g>
<g>
	<g>
		<path fill="#FFFFFF" d="M33.6453972,19.7108459c-0.1204071-0.041132-0.3477974,0.0374107-0.4545364-0.0259361
			c-0.0995331,0-0.199131,0-0.2986679,0c-0.0432701-0.3938732-0.0865974-0.7878704-0.1298676-1.1817436
			c-0.0645065-0.2778606-0.0485802-0.5808029-0.1168671-0.8701344c-0.1495819-0.6338367-0.1628227-1.3227196-0.3116722-1.9479494
			c0-0.0346031,0-0.0692663,0-0.1038694c-0.0316734-0.1251678-0.090992-0.3025761-0.0779305-0.4545355
			c0.0048218-0.0561457,0.0351524-0.056695,0.0519333-0.0909319c0.0588913-0.1198587,0.0020752-0.2681561-0.0778694-0.3246069
			c0.003231-0.1276093,0.0842781-0.3979015,0.1428032-0.4805336c-0.0311241-0.1554995-0.3219223-0.1086302-0.4415359-0.1818018
			c-0.008606,0-0.017271,0-0.025938,0c0.0093994-0.0792751,0.0247173-0.2025518,0.0649338-0.2597351
			c0-0.0346031,0-0.0692663,0-0.1038694c-0.3068466-0.0770779-0.8224106-0.0259981-1.1818047-0.0259981
			c-0.2421589,0-0.4002209-0.017148-0.5454063,0.0779333c-0.0282555,0.1056995-0.0616379,0.5795813,0.0259991,0.6752729
			c0.0408878,0.1182108,0.1807022,0.1251068,0.2986698,0.1688643c0.1836948,0.0680456,0.4104118,0.1146717,0.6103401,0.1688032
			c0.1041126,0.0281944,0.2314167,0.0123272,0.3116684,0.0649338c0.0170879,0.0283165-0.0273399,0.0850725-0.0129375,0.1428661
			c0.0088501,0.0355177,0.0565128,0.0800076,0.0649338,0.1038694c0.0214214,0.0611496-0.0603561,0.202795-0.0779324,0.2467356
			c-0.0173321,0.0779324-0.0346642,0.1558647-0.0519352,0.233737c-0.042963,0.1313314-0.1000843,0.2980595-0.1428661,0.4285984
			c-0.0472965,0.1442099-0.0491276,0.2689505-0.0909309,0.4155397c-0.0690842,0.2425842-0.1345673,0.5247173-0.2077389,0.7662048
			c-0.0609055,0.2008419-0.0616379,0.381546-0.11693,0.5844021c-0.0712185,0.2613831-0.1063709,0.5399132-0.1818008,0.81814
			c-0.0382042,0.140974-0.0887966,0.3124619-0.1038704,0.467474c-0.0043335,0.0043316-0.0086651,0.0086651-0.0129986,0.0129986
			c-0.2218971-0.0031738-0.5958157-0.0668259-0.7532063,0.0389957c-0.1249237,0.0839138-0.1675205,0.2709637-0.2727337,0.3766041
			c-0.072073,0.0436954-0.1699009,0.0323448-0.233736,0.0778713c-0.1681328,0.1200409-0.2847557,0.3737335-0.4026012,0.5454674
			c-0.0427799,0.0623703-0.1929703,0.2380085-0.1038704,0.3766022c0.0198345,0.0577335,0.0690842,0.0759792,0.1428661,0.0779324
			c0.0148926,0.0909328,0.0090332,0.2765179,0.0130005,0.3895416c-0.0712204-0.0007935-0.2685242,0.0097637-0.3246689-0.0259361
			c-0.1240692-0.0065308-0.237215-0.0274639-0.2597351,0.0779324c-0.6078987-0.0046997-1.2025547-0.080862-1.7921448-0.11693
			c0.012085-0.0372887,0.0419273-0.0602951,0.0519352-0.0908699c0.0393028-0.1197987-0.0214214-0.2898216,0.0389977-0.3896027
			c-0.0006714-0.0400944-0.0045166-0.0665817-0.0129986-0.0909309c-0.0432701,0-0.0865993,0-0.1298676,0
			c0.0216637-0.2813396,0.0432682-0.5627384,0.0649338-0.8440762c0.0170269-0.0780563-0.0140381-0.2161617,0-0.2597351
			c0.0178795-0.0555973,0.0947762-0.0905056,0.1168671-0.1558647c0.0202007-0.0283184,0.0205669-0.1275482,0-0.1558056
			c-0.0562057-0.149456-0.4281712-0.115097-0.6103401-0.1558647c-0.1844254-0.041193-0.6797276-0.1107655-0.8571358-0.0389366
			c-0.1505547,0.0609684-0.2559509,0.1949234-0.3766022,0.2856731c-0.0646286,0.0487003-0.1535473,0.0994129-0.1818027,0.1818619
			c-0.3828888,0.0021362-0.5336895,0.2607727-0.7272072,0.4544754c-0.0818996,0.0820217-0.2082272,0.1793613-0.2467365,0.2987309
			c0,0.0519352,0,0.1038704,0,0.1558037c0.0442448,0.0410728,0.0754299,0.0547428,0.1428051,0.0779324
			c-0.0004272,0.1402435,0.0233135,0.263031,0.0259972,0.4155388c-0.0906258-0.0007305-0.4617977-0.0028667-0.5194683-0.0389347
			c-0.1150379-0.0064697-0.161541,0.0016479-0.1818027,0.0909309c-0.1204681,0.0004272-0.6407318-0.0144024-0.7012711-0.0519962
			c-0.0476017,0-0.0952644,0-0.1428661,0c0.01721-0.0471134,0.0616989-0.0654202,0.0779324-0.1038685
			c0.0508366-0.1202259,0.0123882-0.3288174,0.0519352-0.4545364c-0.0402775-0.0140362-0.1094837-0.0144024-0.1688023-0.0129986
			c0.0086651-0.2596741,0.0173302-0.5194683,0.0259972-0.7791424c0.000061-0.0901985,0.0233116-0.280056,0-0.3246689
			c0.0142193-0.0864143,0.0753689-0.0588913,0.1038685-0.1298676c0.0083008-0.0193443,0.0161114-0.0056133,0-0.0259972
			c0.0001831-0.0558395,0.005188-0.1060658-0.0259972-0.1298676c-0.0754299-0.0576096-0.1840591-0.0122662-0.2986698-0.0389347
			c-0.1364594-0.0317345-0.3023319,0.0093975-0.4545364-0.0259991c-0.0967903-0.0225182-0.2890282-0.053093-0.4025402-0.0259361
			c-0.2547302,0.0608444-0.4534359,0.1504326-0.6623344,0.2597351c-0.0527287,0.0275841-0.1144886,0.0848274-0.1688042,0.1038685
			c-0.1379223,0.0483341-0.3036747,0.0108624-0.4285984,0.0649338c-0.0873299,0.037838-0.1680088,0.1191883-0.2467346,0.1688023
			c-0.2066402,0.1304169-0.4085217,0.2634583-0.6103401,0.3896027c-0.010191,0.0449772-0.0290489,0.1522655,0,0.1948013
			c0.0140362,0.039423,0.011961,0.0384483,0.0519352,0.0519352c0.0219078,0.0165997,0.0553513,0.0228233,0.0909309,0.0259972
			c0.0090313,0.0845852-0.0023804,0.261322,0.0389347,0.3246689c0,0.0346031,0,0.0692654,0,0.1038685
			c-0.1461601-0.0485172-0.5557194-0.0002441-0.6622734-0.0649338c-0.0872707,0.0022583-0.1263885,0.0466251-0.1428661,0.116869
			c-0.0173321,0-0.0346642,0-0.0519352,0c0.0072632-0.0959358,0.0519352-0.0741482,0.0778713-0.1298676
			c0.0407066-0.0872688-0.0091534-0.2208595,0.0389977-0.2986698c0.0014648-0.0479679,0.0056744-0.1149158-0.0129986-0.1428661
			c-0.0317955-0.0212994-0.1158924-0.0149517-0.1688042-0.0129986c-0.0043335-0.0042725-0.0086651-0.008606-0.0129986-0.0129395
			c0.0094585-0.0508957,0.0340538-0.0954475,0.0389366-0.1168671c-0.0043335-0.0909328-0.008667-0.1818638-0.0129395-0.2727337
			c0.0169659-0.0540104,0.0820827-0.104908,0.1038704-0.1558666c0.0611496-0.1431713-0.0472965-0.2743187-0.0909309-0.3636036
			c0.085743-0.0671921,0.1740513-0.2112179,0.1039295-0.3636036c-0.0177593-0.0385094-0.0925789-0.1004524-0.116869-0.1558647
			c-0.1696568-0.3871002-0.3293667-0.7816448-0.5324669-1.1428089c-0.0562687-0.010191-0.2115231,0.0042725-0.2597351-0.0259361
			c-0.1212006,0-0.242403,0-0.3636036,0c-0.1255341,0.233736-0.25107,0.467535-0.3766041,0.7012711
			c-0.0289268,0.010191-0.0706081,0.013792-0.1168671,0.0129375c-0.0279522,0.0792141,0.0026226,0.1814365-0.0259991,0.2727337
			c-0.0485783,0.1550713-0.262785,0.3983898-0.1038685,0.5584049c0,0.0043335,0,0.008667,0,0.0129986
			c-0.1467113,0.0294781-0.3446865-0.0037212-0.4805336,0.0389977c-0.0910549,0.0286217-0.1835718,0.0964851-0.2597351,0.1428051
			c-0.1817408,0.1105824-0.3791656,0.199379-0.5584049,0.2987309c-0.0537653,0.0297813-0.3246069,0.0339317-0.3766031,0
			c-0.0432682,0-0.0865984,0-0.1298676,0c0.0143423-0.1204681-0.0128155-0.3197861-0.0129986-0.4675331
			c-0.000061-0.0660324,0.0140362-0.1774693-0.0129375-0.2208004c-0.0055542-0.1263885,0.0230074-0.1462822,0.1038694-0.1818008
			c-0.0003052-0.0353966-0.0004883-0.0595036-0.0129995-0.0778713c-0.0148907-0.1402435-0.1462831-0.0761032-0.2727337-0.1039314
			c-0.0651159-0.0143414-0.673625-0.0472355-0.792141-0.0129986c-0.2415485,0.0698776-0.4838905,0.1835709-0.7142706,0.2857323
			c-0.0304527,0.0134869-0.0725012,0.0546207-0.1038694,0.0649338c-0.1471996,0.0043335-0.2943983,0.0086651-0.4415369,0.0129986
			c-0.2325163,0.0606003-0.4026613,0.1879044-0.584403,0.2986698c-0.0716467,0.0436363-0.1502504,0.0609074-0.2077999,0.116869
			c-0.008605,0-0.017271,0-0.0259361,0c-0.0050659-0.2575989-0.0108633-0.5191021-0.0519352-0.7402058
			c0.0391188-0.0192242,0.0700598-0.0407066,0.116868-0.0519352c-0.0011587-0.0499821-0.0043936-0.0770779-0.0259972-0.1039314
			c-0.0336266-0.0801907-0.0855007-0.0449772-0.1818027-0.0649338c-0.1552544-0.0321007-0.6469564-0.0597458-0.8311386,0
			c-0.2054806,0.0667038-0.4189558,0.1360321-0.6233387,0.2208004c-0.0580368,0.024044-0.1327353,0.0734768-0.1948004,0.0908699
			c-0.0562677,0-0.1125355,0-0.1688032,0c-0.1614189,0.000061-0.3191147-0.0076904-0.4415369,0.0389957
			c-0.4285374,0.2120724-0.8571358,0.4242058-1.2856741,0.6363392c-0.0281944,0.0723171-0.0055532,0.1121082,0,0.2077389
			c0.0389357,0.0043316,0.0779324,0.0086651,0.116869,0.0129986c0.0144634,0.120224,0.0740261,0.209631,0.0779324,0.3376675
			c-0.3116083-0.0173321-0.6233997-0.0346642-0.935008-0.0519352c-0.0185528-0.1331024-0.0790925-0.2499084-0.1168685-0.3636646
			c-0.054132-0.1628227-0.0750031-0.3040409-0.1298676-0.467474c-0.0458317-0.1364594-0.1224217-0.3009281-0.1558652-0.4415359
			c-0.0160503-0.0677414,0.0385089-0.0555363,0.0259981-0.116869c-0.0487614-0.2386799-0.1699018-0.498354-0.2467356-0.7272701
			c-0.1107659-0.329855-0.185586-0.6448803-0.2987318-0.9740047c-0.0892835-0.2597952-0.1590385-0.5377769-0.2596736-0.8051405
			c-0.0584035-0.1551323-0.1406078-0.3240576-0.1298671-0.5064697c0.0424752-0.0393019,0.0910535-0.0731115,0.1428051-0.1038694
			c0.0045161-0.1559267,0.0010986-0.2409992-0.0908704-0.2986708c0-0.008666,0-0.0173321,0-0.0259981
			c0.1296234-0.0661535,0.2325773-0.1706333,0.350605-0.2467356c0.0404615-0.180459-0.0148296-0.3800201-0.0389357-0.5584049
			c-0.2051759-0.051568-0.4874907,0.0514469-0.6882725,0.1038694c-0.0650554,0.0169659-0.1768584,0.00354-0.2077999,0.0519352
			c-0.0425973,0.0667639,0.0413771,0.1990118,0.0649338,0.2597342c-0.115953,0.0472965-0.1879659,0.1003304-0.2856712,0.1558657
			c0.0201387,0.0545588,0.0290489,0.1174173,0.0648723,0.1558037c-0.0127549,0.1108875-0.0964851,0.075736-0.1428051,0.1428661
			c-0.0216651,0.0313683-0.0104356,0.0544367-0.0389967,0.0779324c0.0350909,0.1143055,0.0034785,0.2088985,0.1169295,0.2726727
			c-0.0735998,1.0907516-0.1471996,2.1818695-0.220799,3.2726192c-0.0585871-0.0126324-0.0637741-0.0484562-0.1038694-0.0649338
			c-0.0476627,0-0.0952644,0-0.1428661,0c-0.1794224-0.0396671-0.4384246-0.0613937-0.584403,0.0130005
			c-0.024045,0.087635-0.0663986,0.2298908,0,0.3116684c0.0153179,0.0671921,0.0809841,0.0976448,0.1558652,0.1038704
			c0.0083609,0.0223961,0.002502,0.0126934,0.012938,0.0259972c-0.0281949,0.0230083-0.062737,0.0268517-0.1168685,0.0259361
			c-0.004333,0.0043335-0.008666,0.008667-0.012938,0.0130005c-0.0016479,0.053215-0.0084219,0.1366405,0.012938,0.1688023
			c0.0183692,0.1531792,0.3426104,0.3022099,0.4545355,0.3896027c0.035274,0.027523,0.2642508,0.5181866,0.2857327,0.5844021
			c0.0043325,0.4284763,0.0086045,0.8571358,0.0129375,1.285675c0,0.123764-0.0314293,0.4404373,0.0129991,0.4934711
			c0.0049434,0.0038433,0.312768,0.0765896,0.3246684,0.0778713c0.0029292,0.0301476,0.002563,0.0366783,0.0129991,0.0519962
			c0,0.0216026,0,0.0432682,0,0.0649338c0.1583672,0.027523,0.4456863-0.0987434,0.5194688-0.0519962
			c0.0346031,0,0.0692668,0,0.1038694,0c-0.0083604,0.0224571-0.002563,0.0127544-0.0129986,0.0259972
			c-0.0325279,0.0266075-0.1006961,0.0373497-0.1558042,0.0389366c-0.0004272,0.0378971-0.0006714,0.0707912,0.012938,0.0909309
			c0,0.0086651,0,0.0173321,0,0.0259972c0.1215062,0.0237408,0.5501661,0.1011848,0.688333,0.0649338
			C6.660399,21.8740406,6.855444,21.802639,7.0492682,21.788723c0-0.0259972,0-0.0519943,0-0.0779324
			c0.0818386,0.0002441,0.2161608,0.0021973,0.2726727,0.0389366c0.0852561,0.0033569,0.0657272,0.0259972,0.1169295,0.0519352
			c0.0552912,0.0366154,0.2035279,0.0283775,0.2856712,0.0259972c0-0.0129986,0-0.0259972,0-0.0389366
			c0.1716104-0.0022564,0.2471023-0.0555954,0.3896017-0.0649319c0.0037231,0.0371647,0.0078115,0.115036,0.0259981,0.1428051
			c0.0042725,0.0129986,0.008605,0.0259972,0.0129385,0.0389957c0.1560478,0.0043335,0.3655567,0.0683517,0.4675341-0.0259972
			c0.008666,0,0.0173321,0,0.0259981,0c-0.0037842,0.0514469-0.0192242,0.0853767,0,0.1168671
			c-0.0020142,0.1426239-0.0136709,0.3168583,0.0389357,0.4026012c0.1453686,0.0064697,0.2925673,0.0517521,0.4804726,0.0519352
			c0.1371908,0.3106327,0.2688885,0.4735756,0.7272692,0.467535c0.0805569-0.0876369,0.1169901-0.1325531,0.2726727-0.116869
			c0.0433292,0.0043335,0.0865984,0.008606,0.1298666,0.0129375c0.0488224,0.0267925,0.0589533,0.1165028,0.1039305,0.1428661
			c0.017271,0,0.0346031,0,0.0519352,0c0.0610886,0.031002,0.1156473,0.1008797,0.1818018,0.1298676
			c0.1938248,0.0849514,0.5046396,0.1319427,0.7532063,0.0779324c0.0649338,0,0.1298676,0,0.1948004,0
			c0.0519962-0.0180035,0.1059446-0.0906868,0.1558657-0.1168671c0.0847063-0.0445518,0.1442699-0.0538273,0.1948013-0.1298676
			c0.0175142-0.0134869-0.005188-0.0201397-0.0129995-0.0519352c0.029233-0.0076904,0.0160503-0.0043335,0.0349083-0.0009766
			c0.001709-0.0004883,0.0035391-0.0026855,0.0055532-0.0039673c0.0065908-0.1233368,0.1705732-0.216526,0.1932755-0.3716583
			c0.0690832,0.0440617,0.0533381,0.2347126,0.0909319,0.3116684c0.0814714,0.166851,0.2637625,0.2648602,0.3246069,0.4544754
			c0.0043325,0,0.008666,0,0.0129986,0c0.0256319,0.0073223-0.0259361,0.0129986-0.0259361,0.0129986
			c0.0853777,0.1089344,0.2785311,0.1232758,0.4804716,0.1168671c0.0443678-0.0460758,0.1039915-0.0640774,0.1558657-0.1038685
			c0.0272179-0.0208721,0.034359-0.0569382,0.0649338-0.0779324c0,0-0.0029297-0.0509586-0.0129995-0.025938
			c-0.0043325,0.0043335-0.008666,0.008667-0.0129986,0.0129395c0.0713415-0.1445751,0.1727085-0.3451138,0.1818018-0.5324078
			c0.2049322,0.0093365,0.4782143,0.0425358,0.6623354,0.0259361c0.0214214,0.0748825-0.0022573,0.2494221,0.0129385,0.3896027
			c0.0705481,0.0148907,0.5270367,0.0679855,0.5324678,0.0649338c0.0346031,0,0.0692663,0,0.1038694,0
			c0,0.0086651,0,0.0173321,0,0.0259972c-0.022397-0.0083599-0.0126934-0.0025635-0.0259371-0.0129986
			c-0.0259972,0-0.0519342,0-0.0779324,0c0.1088734,0.1606255,0.2209206,0.3405972,0.2727337,0.5584049
			c0.3063602,0.0812283,0.6882725,0.0714035,1.0129404,0.1428661c0.1038694,0,0.2078009,0,0.3116693,0
			c0.1116199,0.0243511,0.383194,0.0885525,0.5194702,0.0519352c0.1190643-0.0320396,0.1448193-0.1433544,0.2467346-0.1818027
			c0.0829983-0.0521164,0.2783489,0.0374718,0.4025402-0.0129986c0.054987-0.0223351,0.1039295-0.0930672,0.1558647-0.116869
			c0.1470165-0.0673122,0.3446865-0.1201019,0.4545364-0.2207375c0.0129375,0,0.0259361,0,0.0389347,0
			c-0.0461979,0.1287689-0.0315514,0.4599075-0.0908699,0.5584049c-0.0029297,0.0579777,0.0076294,0.0483341-0.0259972,0.0519352
			c0.0051861,0.0266685,0.003233,0.0250225,0.0129986,0.0389366c0,0-0.0029297,0.0509567-0.0129986,0.0259972
			c-0.0043335-0.0043335-0.008667-0.0086651-0.0130005-0.0129986c0.0057983,0.0386295,0.0065918,0.0438175,0.0259991,0.0649338
			c0,0.0043335,0,0.0086651,0,0.0129986c0.0141582-0.0221539,0.006834-0.0400352,0.0129986-0.0519352
			c0-0.0086651,0-0.0173321,0-0.0259972c0.0200787,0.0303307,0.0183697,0.0890999,0.0389366,0.116869
			c0.068594,0.0557175,0.4901752,0.1112537,0.5324059,0.0519333c0.0173321,0.0173321,0.0346642,0.0346642,0.0519962,0.0519962
			c0.1479321-0.0053711,0.4121208-0.146101,0.5064697-0.2207985c0.039669-0.053278,0.0304527-0.2491779,0.0129375-0.2856712
			c-0.0014019-0.1263275-0.0344791-0.5741501,0.0130005-0.6493378c0.1077137-0.0729885,0.3410835-0.0313072,0.4805336-0.0129986
			c0.0003052,0.0353966,0.0004883,0.0595016,0.0129375,0.0779324c0,0.008667,0,0.0173321,0,0.025938
			c0.0216637,0,0.0433292,0,0.0649338,0c0.0009766,0.2745628,0.0161724,0.5831814,0.1428661,0.7402668
			c0.0715237,0.0886745,0.2230568,0.1287689,0.2857323,0.2207394c0.0422306,0.0620651,0.0331993,0.1636143,0.0778713,0.2207985
			c0.0836086,0.1040516,0.5166016-0.0008545,0.5974026-0.0649338c0.037714-0.0302696,0.079031-0.1154652,0.1038685-0.1558647
			c0.0401573-0.0083008,0.0867214-0.0137939,0.1428661-0.0130005c0.0510807,0.0488224,0.1078358,0.0624313,0.1428661,0.1298676
			c0.304285-0.0248985,0.5574894-0.5340538,0.5584049-0.8830738c0.0917263-0.0371647,0.13591-0.0882454,0.1818027-0.1688023
			c0.2436848,0.0012207,0.4992085,0.0302086,0.7142696,0.0779324c0.087698,0.0194683,0.1737461-0.0133038,0.2337379,0.025938
			c0.0043316,0,0.0086651,0,0.0129986,0c-0.0012207,0.0716457,0.0043335,0.1155853,0.0259361,0.1558647
			c0.085989,0.0023804,0.223362,0.0076275,0.2727337,0.0519352c0.0321007,0.0192833,0.024107,0.0160503,0.0259972,0.0649319
			c0.0476036,0.0130005,0.0952053,0.0259991,0.142807,0.0389366c0.1183929,0.0062256,0.3059921,0.0432682,0.3117294-0.0778713
			c0.0381432,0.0131817,0.0557194,0.0405827,0.0908699,0.0519352c0.1035652,0.0334435,0.1837559-0.0102539,0.2986717-0.0130005
			c-0.0015869,0.3834991,0.0281334,0.9568577,0.2597332,1.051878c0,0.0043316,0,0.0086651,0,0.0129986
			c-0.0371037-0.0046997-0.0560837-0.0084839-0.0778713-0.025938c-0.0043316,0-0.0086651,0-0.0129986,0
			c0.0240459,0.1108894,0.1286469,0.0651779,0.2207375,0.1038704c0.103138,0.0433292,0.1595268,0.1340179,0.2077999,0.233736
			c0.0264874,0.0092163,0.0788479,0.0004883,0.116869,0.0130005c0.0468693,0.01544,0.1025276,0.0568771,0.1558647,0.0779324
			c0.0557804-0.1000862,0.1003914-0.2366066,0.1948013-0.2986717c0.1951675-0.1284027,0.4599056,0.0015869,0.5064697,0.1818027
			c0.159893-0.0469913,0.1818638-0.5407677,0.5454063-0.4415359c0.0365562,0.0099468,0.098011,0.0419254,0.1298676,0.0649338
			c0.0736599,0.053154,0.0748806,0.1481133,0.1298676,0.2207375c0,0.0562668,0,0.1125355,0,0.1688633
			c0.0389366,0.0216045,0.0779324,0.0432682,0.116869,0.0648727c0.0579147,0.0425968,0.0620041,0.1084461,0.1038685,0.1688652
			c0.0460758,0.0663967,0.1467113,0.0859871,0.1948013,0.1558037c0.1731358,0,0.3463326,0,0.5194683,0
			c0.0630417,0,0.1670341,0.0126934,0.2077999-0.0129375c0.089529-0.0175152,0.1265736-0.1265106,0.1818027-0.1818638
			c0.0562687-0.0562687,0.1125355-0.1125355,0.1688023-0.1688023c0.0433922-0.0814114,0.0324059-0.1885166,0.0519352-0.2597351
			c0.0565739-0.2056637,0.1700249-0.4328098,0.1818638-0.6752739c0.1043568-0.0002441,0.1312714,0.0208721,0.1947403,0.0519352
			c0,0.0173321,0,0.0346642,0,0.0519352c0.1618462,0.0087872,0.3263149,0.0494919,0.4675331,0.0129986
			c0.0043335-0.0216656,0.008667-0.0432701,0.0130005-0.0649338c0.0173321,0,0.0346012,0,0.0519333,0
			c-0.0031719,0.3800812-0.0123882,0.7280617,0.1298676,0.9610062c0.0173321,0.0519333,0.0346031,0.1038685,0.0519352,0.1558037
			c0.0156841,0.0136089,0.350666,0.0686569,0.4026012,0.0909309c0.0917854,0.0393028,0.1346874,0.1473827,0.2207375,0.1818027
			c0.0369835,0.0121441,0.0518742-0.0230083,0.0909309-0.0389366c0.0606003-0.0086651,0.1212025-0.0173321,0.1818027-0.0259972
			c0.0967293-0.0348473,0.1885757-0.1379833,0.2986698-0.1688042c0.1181507-0.0331364,0.3028812,0.0248394,0.3896027-0.0389957
			c0.0629196-0.044672,0.1129017-0.214941,0.116869-0.3116703c0.1198578-0.0241661,0.1486626-0.1482353,0.2337971-0.2077389
			c0.0013428-0.0328941,0.0015869-0.048151,0.0129375-0.0649338c0.0033569-0.1336498-0.044733-0.1154022-0.1428051-0.1428661
			c0.0026855-0.1154633,0.0275841-0.2070065,0.0389366-0.3116684c0.0346012,0,0.0692654,0,0.1038685,0
			c0.001709,0.0667648,0.0152569,0.1905899-0.0129375,0.233736c0.0083599,0.022398,0.0025024,0.0126934,0.0129375,0.0259991
			c0.0638351,0.0445499,0.4423294,0.0762844,0.5454674,0.0778713c0.0011597,0.0499821,0.0043335,0.0770779,0.0259361,0.1039295
			c0.0302696,0.068779,0.1080208,0.0300865,0.1688652,0.0649338c0.1483574,0.0028687,0.1252899-0.0407047,0.1948013-0.1039295
			c0.1742954-0.0761642,0.592947,0.1285248,0.8051395-0.0129375c0.1226654-0.0817776,0.2248878-0.3304062,0.2727356-0.4805336
			c0.0424728-0.1334686-0.0696335-0.1855869-0.0519981-0.2856731c0.0249596-0.1415844-0.0216026-0.3495674,0.0130005-0.5064697
			c0.0456467-0.2067623,0.0254478-0.5161133,0.0259972-0.7142696c0-0.1255341,0-0.2510681,0-0.3766041
			c-0.0043335-0.1947994-0.008667-0.3896008-0.0130005-0.5844021c0-0.0685959,0.0155029-0.1883926-0.0129967-0.233736
			c0-0.0822659,0-0.1645317,0-0.2467365c0.0230064-0.0430241,0.1463432-0.056633,0.1948013-0.0779324
			c0.1627617-0.0714035,0.3584137-0.1569023,0.5064697-0.2467365c0.0264854-0.1004505,0.0415611-0.2186623,0.0389366-0.3636036
			c-0.0527916,0.0006714-0.1082039-0.0009766-0.142807-0.0129986c0.0248985-0.0948982,0.1817398-0.1050892,0.2337379-0.1818027
			C33.9142265,20.0703621,33.8110886,19.7674809,33.6453972,19.7108459z M4.9843903,18.6330338
			c-0.0367994-0.0106182-0.0525451-0.0090332-0.1038694-0.0129986c0-0.0129986,0-0.0259991,0-0.0389977
			c0.0581598,0.0007324,0.0430861,0.0120831,0.0779328-0.0259361c0.008666,0,0.0173316,0,0.0259366,0
			C4.9843903,18.5810375,4.9843903,18.6070366,4.9843903,18.6330338z M5.2831221,14.8020086c-0.008666,0-0.0173321,0-0.0259981,0
			c0-0.008666,0-0.0173311,0-0.0259972C5.26579,14.780344,5.274456,14.7846775,5.2831221,14.78901
			C5.2831221,14.7933426,5.2831221,14.7976761,5.2831221,14.8020086z M5.2960596,14.672142c-0.008605,0-0.0172706,0-0.0259366,0
			c-0.0104361-0.0339317-0.0161114-0.0307589-0.0259981-0.0649338c0.0173321,0.0043325,0.0346642,0.008666,0.0519347,0.0129986
			C5.2960596,14.6375389,5.2960596,14.65481,5.2960596,14.672142z M5.7116594,17.8018951c0,0.0129375,0,0.0259361,0,0.0389366
			c-0.0098252-0.0139771-0.0081778-0.0120239-0.0129986-0.0389366C5.7029934,17.8018951,5.7073264,17.8018951,5.7116594,17.8018951z
			 M5.6986609,17.8668289c0.0098252,0.0139141,0.0081773,0.011961,0.0129986,0.0389347c-0.0216646,0-0.0432687,0-0.0649333,0
			C5.6706491,17.8866634,5.6815119,17.8967323,5.6986609,17.8668289z M5.620728,17.8148327c0,0.008667,0,0.0173321,0,0.0259991
			c-0.004333-0.0043335-0.008666-0.008667-0.012938-0.0130005c-0.0248384-0.0216026-0.0433297-0.0823879-0.0519958-0.1168671
			C5.5944862,17.7330551,5.5935707,17.7829762,5.620728,17.8148327z M5.6337271,17.8538303c0,0.0086651,0,0.0173321,0,0.0259361
			c-0.004333,0-0.008666,0-0.0129991,0c0-0.008604,0-0.017271,0-0.0259361
			C5.625061,17.8538303,5.6293941,17.8538303,5.6337271,17.8538303z M5.4259272,17.5161629
			c0.0228853,0.0352135,0.0062246,0.073904,0,0.116869c-0.004272,0-0.008605,0-0.012938,0
			C5.412684,17.58671,5.4158573,17.5452728,5.4259272,17.5161629z M5.4259272,17.6460304c0.0173316,0,0.0346637,0,0.0519958,0
			c-0.0260592,0.051445-0.0239229,0.08074-0.0519958,0.1298676c-0.004272,0-0.008605,0-0.012938,0
			C5.412684,17.7080956,5.417017,17.6751404,5.4259272,17.6460304z M5.4259272,17.8408318c0,0.0129986,0,0.0259972,0,0.0389347
			c-0.0098257-0.0139141-0.0081167-0.011961-0.012938-0.0389347C5.4173222,17.8408318,5.4216552,17.8408318,5.4259272,17.8408318z
			 M5.5038595,17.8018951c0-0.0043335,0-0.008667,0-0.0129986c0.004333,0,0.008666,0,0.0129991,0
			c-0.004333,0.0432682-0.008666,0.0865974-0.0129991,0.1298676c0.0216651-0.0043335,0.0433297-0.008667,0.0649338-0.0130005
			c0.004333,0.0043335,0.008666,0.008667,0.0129991,0.0130005c0,0.0043316,0,0.0086651,0,0.0129986
			c-0.0338707-0.0044556-0.0691447-0.0108643-0.1038694,0.0129375c-0.030148-0.0029297-0.0366778-0.0025635-0.0519958-0.0129375
			c-0.004272-0.0043335-0.008605-0.008667-0.012938-0.0129986C5.4702334,17.8881283,5.466877,17.8502293,5.5038595,17.8018951z
			 M5.4259272,18.009634c-0.004272,0-0.008605,0-0.012938,0c0.004333-0.008606,0.008666-0.017271,0.012938-0.0259361
			c0.0792141,0.0011578,0.2183576,0.0090313,0.2727337-0.0259991c0.0129986,0,0.0259976,0,0.0389967,0
			C5.6666822,18.0126858,5.485002,17.9813175,5.4259272,18.009634z M7.2050724,19.7498436c0.0173321,0,0.0346642,0,0.0519347,0
			c-0.0125103,0.0104351-0.0355792,0.0191631-0.0519347,0.0259361C7.2050724,19.7671757,7.2050724,19.7585106,7.2050724,19.7498436z
			 M6.412931,18.6330338c-0.004333-0.1645317-0.008666-0.3290615-0.0129991-0.4935322c0-0.017271,0-0.0346031,0-0.0519352
			c-0.0762849-0.0142193-0.1773472,0.0272179-0.2597346,0c-0.0194068-0.0064087-0.0181861-0.0305748-0.0649338-0.0259361
			c-0.0300865,0.0029297-0.0758576,0.0180645-0.0908704,0.0129375c-0.063652-0.0415611-0.0180035-0.266325-0.0389967-0.3636036
			c-0.0138535-0.0643234,0.0060415-0.2212276-0.0129991-0.3376675c-0.0177593-0.1090565-0.0422311-0.4771767-0.012938-0.6233387
			c0.0208106-0.1039314-0.0589528-0.2707806,0-0.3636036c0.004333-0.0043335,0.008605-0.008667,0.012938-0.0130005
			c0.1523867,0.3654957,0.216466,0.758028,0.350666,1.1428089c0.0612111,0.1755161,0.1706343,0.3899059,0.1948009,0.5844021
			c0.1057615,0.0220318,0.0955701,0.1789951,0.1298676,0.2727337c0.0756745,0.2068233,0.1452465,0.4428787,0.2207379,0.6492767
			c0.0278897,0.0761623,0.0242891,0.1590996,0.0649333,0.2207985c-0.0073233,0.07897-0.0613937,0.0809231-0.1298671,0.0908699
			c0.0082388,0.0369835,0.0186744,0.0784206,0.0389967,0.1039314c-0.0104966,0.0524826-0.0272183,0.0568771-0.0649338,0.0779324
			c0,0.0259361,0,0.0519333,0,0.0778713c-0.0504088,0.0055523-0.1215062,0.0142803-0.1558652,0.0389957
			c-0.0297203,0.0133667-0.0281339,0.0222759-0.0519347,0.0389366c-0.0012202,0.0847073,0.0015259,0.1733189,0.0389361,0.2207985
			c-0.0014038,0.0369835-0.0051875,0.0554752-0.012938,0.0778713c-0.0129991,0.0043335-0.0259981,0.008667-0.0389967,0.0129986
			C6.4821973,19.5334396,6.4475336,19.0831757,6.412931,18.6330338z M6.8154707,21.6458569
			c-0.026669-0.0051861-0.0250216-0.003233-0.0389357-0.0129986c-0.0528502,0.0006714-0.1082025-0.0009766-0.1428666-0.0129986
			c0-0.0129375,0-0.0259361,0-0.0389366c0.0689616-0.0152569,0.0932508-0.0183678,0.1688643-0.0129986
			c0.004333,0.0043335,0.008666,0.008667,0.012938,0.0129986C6.8154707,21.6025887,6.8154707,21.6241932,6.8154707,21.6458569z
			 M7.7764764,20.554985C7.6310472,20.5828743,7.503499,20.5425949,7.33494,20.5419846c0,0.0173321,0,0.0346642,0,0.0519962
			c-0.1359701,0.0118999-0.4548407,0.0831203-0.584403,0c-0.008605,0-0.0172706,0-0.0259366,0c0-0.0389957,0-0.0779324,0-0.1169281
			c-0.0266695-0.005127-0.0250216-0.0031738-0.0389361-0.0129395c-0.0528498,0.0006104-0.108263-0.0010376-0.1428661-0.0129986
			c0.0016479-0.0640182,0.0138535-0.1798496-0.0129991-0.2207985c0-0.0043335,0-0.0086651,0-0.0129986
			c0.2741985-0.0594406,0.9420877-0.1782627,1.1038723-0.3246078c0.0206885-0.0077496,0.0146465-0.0045166,0.0239229-0.012022
			c-0.0017085-0.0012207-0.0052485-0.0014038-0.0070791-0.0025024c-0.0228853-0.0038452-0.0458932-0.0076294-0.0688396-0.0114727
			c0-0.0043335,0-0.008667,0-0.0129986c0.0356402,0.0021343,0.0513244,0.0136089,0.0688396,0.0244713
			c0.0030513,0.0004883,0.0060415,0.0010376,0.0090933,0.0015259c-0.0010376,0.0007935-0.0012207,0.0003662-0.0020142,0.0009766
			c0.0261202,0.0181255,0.0463204,0.0407658,0.0799465,0.0639572c-0.0006104,0.1006966-0.0001221,0.4312229,0.0389357,0.4934711
			C7.7764764,20.4770527,7.7764764,20.5160484,7.7764764,20.554985z M8.3738785,20.2563133
			c-0.0350304,0.0090942-0.0562067,0.0179424-0.0779324,0.0389366c-0.0728064-0.0461979-0.041194-0.3184433-0.0909319-0.4025402
			c0-0.0086651,0-0.0173321,0-0.0259972c0.0606003,0.0043316,0.1212626,0.0086651,0.1818628,0.0129986
			c0.0020752,0.13237,0.0527287,0.1658134,0.0908709,0.2467346C8.4267893,20.1641617,8.3784552,20.1666031,8.3738785,20.2563133z
			 M11.9061718,22.9185333c-0.0043335,0-0.008666,0-0.0129995,0c0-0.008667,0-0.0173321,0-0.0259991
			c0.0043335,0,0.008666,0,0.0129995,0C11.9061718,22.9012012,11.9061718,22.9098663,11.9061718,22.9185333z M12.0230398,19.619976
			c-0.1017332,0.0030518-0.1930923,0.0063477-0.1948004-0.0259972c0.0606003,0,0.1212006,0,0.1818018,0
			c0.0043325,0.0043335,0.008666,0.0086651,0.0129986,0.0129986C12.0230398,19.611311,12.0230398,19.6156425,12.0230398,19.619976z
			 M13.5165138,20.8666534c-0.0574884,0.0009155-0.0889177-0.0001221-0.1169291-0.0259361
			c-0.0211153-0.0150738,0.0028076-0.0165997,0.0129986-0.0389977c0.0192242,0.0145855-0.0050039,0.0159283,0.0259981,0.0389977
			c0.0200176,0.0101299,0.0318565-0.0009155,0.0519352-0.0259991c0.0086651,0,0.0173311,0,0.0259972,0
			C13.5165138,20.8320503,13.5165138,20.8493214,13.5165138,20.8666534z M13.568449,20.7108498c-0.008666,0-0.0173321,0-0.0259981,0
			c-0.0043325-0.0043335-0.008666-0.008667-0.0129986-0.0129986c0-0.0173321,0-0.0346642,0-0.0519352
			c0.0129986,0.0043335,0.0259972,0.0086651,0.0389967,0.0129375C13.568449,20.6761856,13.568449,20.6935177,13.568449,20.7108498z
			 M13.4775171,20.5939808c-0.0579157,0.0012817-0.0607834-0.0046978-0.0779324,0.0389366
			c-0.022397-0.0083618-0.0126944-0.0025635-0.0259371-0.0129986c-0.0043325,0-0.008666,0-0.0129986,0
			c0.0170879-0.0195904,0.0243502-0.0278301,0.0519342-0.0389366c0.0111074-0.008604,0.0407667-0.0175762,0.0519352-0.0259972
			c0.0346632,0.0129986,0.0692663,0.0259972,0.1039305,0.0389957
			C13.5497131,20.6280956,13.4975348,20.6418877,13.4775171,20.5939808z M14.7371931,23.2172031
			c-0.0098248-0.0139751-0.0081158-0.012022-0.0129986-0.0389366c0.0043335,0,0.008666,0,0.0129986,0
			C14.7371931,23.191206,14.7371931,23.2042046,14.7371931,23.2172031z M14.9319944,21.0874519
			c-0.0217867,0.051569-0.079031,0.0565739-0.116868,0.0908718c-0.008666,0-0.0173321,0-0.0259981,0
			c0.00177-0.0804958,0.0222139-0.2442951-0.0129375-0.2986717c-0.0046997-0.0487003-0.0100698-0.0482731-0.0259981-0.0779324
			c-0.0774441-0.0192242-0.4678402-0.1024036-0.5454063-0.0519352c-0.0794582,0.0278912-0.0972176,0.1500072-0.1039305,0.2467365
			c-0.0399122-0.0139751-0.0468693-0.0317345-0.0778713-0.0519352c-0.0015869-0.1362133-0.0118399-0.3456001,0.0129375-0.4026012
			c0.0100088-0.1126556,0.1918106-0.1731968,0.2597351-0.2726707c0.0589523,0.0143414,0.0479069,0.0468693,0.0909309,0.0649319
			c0.1558046,0.0129395,0.3116693,0.025938,0.467474,0.0389366c0.0225801,0.0638351,0.020566,0.0980721,0.0909309,0.116869
			C14.9464579,20.6083832,14.9766674,21.0169048,14.9319944,21.0874519z M17.1786747,19.7887802
			c0.022398,0.0084209,0.0126934,0.0025616,0.0259361,0.0129986c0.0043335,0,0.008667,0,0.0130005,0
			c0,0.0086651,0,0.0173321,0,0.0259972c-0.0173321,0-0.0346031,0-0.0519352,0
			C17.1700077,19.8147774,17.1743412,19.8017788,17.1786747,19.7887802z M17.1916122,20.8277187
			c-0.0442448-0.0027466-0.0662766-0.0062256-0.0908699-0.0259991c-0.0043335,0-0.008667,0-0.0129986,0
			c0.0100079-0.0089092,0.0289268-0.0170879,0.0389347-0.0259361c0.0216656,0,0.0433292,0,0.0649338,0
			C17.1874008,20.8162441,17.1872177,20.7962894,17.1916122,20.8277187z M17.0877438,21.0614548
			c0-0.0086651,0-0.0173321,0-0.0259361c0.0259972,0,0.0519333,0,0.0779324,0c0,0.0129375,0,0.0259361,0,0.0389347
			c-0.0359459,0.0062866-0.0375328,0.0156841-0.0649338,0c-0.008667,0-0.0173321,0-0.0259991,0
			C17.0790768,21.0701199,17.0834103,21.0657883,17.0877438,21.0614548z M16.9189396,20.0225773
			c0.0270367-0.0053711,0.0711594-0.0123272,0.0908718-0.0259972c0.0173302,0.0086651,0.0346622,0.0173321,0.0519333,0.0259972
			c-0.0042706,0.008604-0.008604,0.017271-0.0129375,0.0259361c-0.0433292,0-0.0865974,0-0.1298676,0
			C16.9189396,20.0398483,16.9189396,20.0311813,16.9189396,20.0225773z M17.0358086,20.2563133c0,0.0130005,0,0.025938,0,0.0389366
			c-0.0043335,0.0043335-0.008667,0.0086651-0.0129986,0.0129986c-0.037838,0.0004272-0.0707932,0.0006714-0.0908718-0.0129986
			c-0.0043316-0.0043335-0.0086651-0.008667-0.0129986-0.0129986
			C16.9551296,20.2655907,16.9760017,20.2561913,17.0358086,20.2563133z M16.8540058,20.5809822
			c0.017271-0.0173321,0.0346031-0.0346642,0.0519352-0.0519352c0.0389366,0,0.0779324,0,0.116869,0
			c0.0043316,0.0042725,0.0086651,0.008606,0.0129986,0.0129375c-0.0249615,0.037899-0.1090565,0.0247173-0.1428661,0.0519962
			c-0.0129986,0-0.025938,0-0.0389366,0C16.8540058,20.5896473,16.8540058,20.5853157,16.8540058,20.5809822z
			 M17.0098114,20.7887211c0,0.0129986,0,0.0259972,0,0.0389977c-0.0476017,0-0.0952053,0-0.142807,0
			c0-0.008667,0-0.0173321,0-0.0259991C16.9071007,20.7934208,16.9536648,20.7879276,17.0098114,20.7887211z M16.8020725,20.3082485
			c0.008604,0,0.0172691,0,0.0259361,0c0,0.008667,0,0.0173321,0,0.0259972c-0.008667,0-0.0173321,0-0.0259361,0
			C16.8020725,20.3255806,16.8020725,20.3169155,16.8020725,20.3082485z M16.9448776,21.5549259
			c0,0.0129986,0,0.0259972,0,0.0389977c-0.0659714-0.0020752-0.1231556-0.0039062-0.1558056,0.0259361
			c-0.0301476-0.0029297-0.0366154-0.0025635-0.0519333-0.0129986c-0.0043335,0-0.008667,0-0.0130005,0
			C16.773571,21.5726852,16.87146,21.5539494,16.9448776,21.5549259z M16.9448776,21.8276596
			c-0.027586,0.0114727-0.0577946,0.0203838-0.0778732,0.0389366c-0.0129986,0-0.0259972,0-0.0389957,0
			c-0.0043335-0.0129395-0.008667-0.025938-0.0129986-0.0389366c0.0170269-0.0066528,0.0511417-0.0158672,0.0649338-0.0259972
			c0.0267296,0.0051861,0.0250206,0.003233,0.0389957,0.0129986C16.9413376,21.8230209,16.931633,21.8172245,16.9448776,21.8276596z
			 M16.672205,21.3991222c0,0.0043335,0,0.0086651,0,0.0129986c-0.032711-0.0212383-0.0135498-0.0024414,0-0.0389977
			C16.6805038,21.3924694,16.6883163,21.3787384,16.672205,21.3991222z M16.6981411,22.3471298
			c0.022398-0.0083618,0.0127544-0.0025635,0.0259972-0.0130005c0.0130005,0,0.025938,0,0.0389366,0
			c0.0043335,0.0043335,0.0086651,0.008667,0.0129986,0.0130005c0,0.0043316,0,0.0086651,0,0.0129986
			c-0.0259972,0-0.0519352,0-0.0779324,0C16.6981411,22.3557949,16.6981411,22.3514614,16.6981411,22.3471298z
			 M16.8280087,22.7756672c-0.0173321,0-0.0346031,0-0.0519352,0c0.0118999-0.0280132,0.0112896-0.018858,0.0259991-0.0389366
			c0.0353947,0.0003052,0.0595016,0.0004883,0.0778713,0.0129375c0.0086651,0,0.0173321,0,0.0259972,0
			C16.8872662,22.7836609,16.8529682,22.7877502,16.8280087,22.7756672z M16.8410072,22.5938644
			c-0.0389347,0-0.0779324,0-0.116869,0c0-0.0043335,0-0.0086651,0-0.0129986
			c0.0424156-0.0104351,0.09618-0.0278282,0.1298676-0.0519352c0.0266705,0.005188,0.0250225,0.0032349,0.0389366,0.0129986
			c0.0086651,0,0.0173321,0,0.0259972,0C16.9002647,22.5732365,16.8666382,22.5717716,16.8410072,22.5938644z
			 M16.9448776,22.3341293c-0.0562687,0-0.1125355,0-0.1688042,0c0-0.0043316,0-0.0086651,0-0.0129986
			c0.0161724-0.0086651,0.0268517-0.0140972,0.0389366-0.0259361c0.0403385-0.0008545,0.0819607-0.0018921,0.1039295,0.0129375
			c0.008667,0,0.017271,0,0.025938,0C16.9448776,22.3167973,16.9448776,22.3254642,16.9448776,22.3341293z M16.9578762,22.1003933
			c-0.0479679,0.0014648-0.1149158,0.0056763-0.1428661-0.0129986c-0.0043335-0.0043335-0.008667-0.008667-0.0129375-0.0129986
			c0.0402775-0.0185528,0.0750027-0.0274639,0.1428051-0.025938c0.0051861,0.0266705,0.003233,0.0250225,0.0129986,0.0389366
			C16.9578762,22.0917263,16.9578762,22.0960598,16.9578762,22.1003933z M16.8799438,21.3601246
			c-0.0133667-0.0104351-0.0031738-0.0047588-0.025938-0.0129375c0-0.0129986,0-0.0259972,0-0.0389957
			c0.0266705-0.005188,0.0250225-0.0032349,0.0389366-0.0130005c0.0528507,0.0030518,0.0500431,0.0064087,0.0779324,0.0259991
			C16.9492702,21.3380947,16.9079552,21.3527412,16.8799438,21.3601246z M16.9838734,21.0874519
			c-0.0479679,0.0014648-0.1149769,0.0056763-0.1428661-0.0129986c-0.0043335,0-0.0086651,0-0.0129986,0
			c0-0.0043335,0-0.0086651,0-0.0129986c0.0519352-0.0043335,0.1039295-0.0086651,0.1558647-0.0129986
			C16.9838734,21.0614548,16.9838734,21.0744534,16.9838734,21.0874519z M17.02281,22.282196c0.0303307,0,0.0606003,0,0.0909309,0
			c0,0.0043316,0,0.0086651,0,0.0129986c-0.0163555,0.0071392-0.0392418,0.0155621-0.0519962,0.0259361
			c-0.017271,0-0.0346031,0-0.0519333,0C17.014143,22.3081322,17.0184765,22.2951946,17.02281,22.282196z M17.0358086,22.5159321
			c0.0302696,0,0.0606003,0,0.0908699,0c-0.0042725,0.0129986-0.008604,0.0259972-0.0129375,0.0389977
			c-0.0259972,0.0042706-0.0519962,0.008604-0.0779324,0.0129375c0-0.0043335,0-0.008667,0-0.0129375
			C17.0238476,22.5300293,17.0306206,22.5453472,17.0358086,22.5159321z M17.139677,22.7496681
			c-0.0183067,0.0066528-0.0624924,0.01544-0.0779324,0.0259991c-0.008604,0-0.017271,0-0.0259361,0
			c0.0166607,0.0114117,0.0320396,0.012022,0.0649338,0.0129986c-0.0043335,0.0129986-0.008667,0.0259361-0.0129986,0.0389347
			c-0.0462589-0.0042706-0.0432701-0.0007935-0.0649338-0.0259361c-0.0174541-0.0245323-0.0061035-0.0407658,0.0129986-0.0779324
			c0.0302696,0,0.0606003,0,0.0908699,0c0.0043335,0.0043335,0.008667,0.0086651,0.0129986,0.0129986
			C17.139677,22.7410641,17.139677,22.7453365,17.139677,22.7496681z M17.0877438,22.0873947
			c-0.0646286-0.0062256-0.0523014-0.0080566-0.0389366-0.0519352c0.0266685,0.005188,0.0250225,0.0032349,0.0389366,0.0129986
			c0.0173321,0,0.0346622,0,0.0519333,0C17.1225891,22.0781174,17.1117878,22.0685978,17.0877438,22.0873947z M17.02281,21.8406582
			c0.0118999-0.0280113,0.0112896-0.018919,0.0259972-0.0389957c0.0259361,0,0.0519352,0,0.0778713,0
			c-0.0042725,0.0129986-0.008604,0.0259972-0.0129375,0.0389957C17.0834103,21.8406582,17.0531406,21.8406582,17.02281,21.8406582z
			 M17.1526775,21.5809231c-0.0389366,0-0.0779343,0-0.116869,0c0-0.0086651,0-0.0173302,0-0.0259972
			c0.0389347,0,0.0779324,0,0.116869,0C17.1526775,21.5635929,17.1526775,21.572258,17.1526775,21.5809231z M17.0617447,21.3341885
			c0-0.0129986,0-0.0259972,0-0.0389977c0.0428429-0.0010986,0.0930672-0.0030499,0.11693,0.0130005
			c0.022398,0.0083599,0.0126934,0.0025616,0.0259361,0.0129986C17.1560936,21.3370571,17.1225281,21.3324795,17.0617447,21.3341885
			z M17.1786747,20.5679836c-0.0173321,0-0.0346642,0-0.0519962,0c-0.0042114-0.0404625-0.0043945-0.0205059,0-0.0519352
			c0.0303307,0,0.0606613,0,0.0909328,0c0.0043316,0.0043335,0.0086651,0.008667,0.0129986,0.0129986
			C17.2125454,20.5449142,17.1944199,20.5488205,17.1786747,20.5679836z M17.256546,20.2822514
			c-0.0389347,0.0043316-0.0778713,0.0086651-0.116869,0.0129986c0-0.0129986,0-0.0259361,0-0.0389366
			c0.0346642,0,0.0692673,0,0.1039314,0c0.0043335,0.0043335,0.008604,0.008667,0.0129375,0.0130005
			C17.256546,20.2736454,17.256546,20.2779789,17.256546,20.2822514z M17.256546,20.0095787
			c-0.0392399,0.0079937-0.0690231,0.0135479-0.0908699,0.0389347c-0.022398-0.0083599-0.0126934-0.0025616-0.0259991-0.0129986
			c-0.0125103-0.0208721-0.0007324-0.0012207,0-0.0389347c0.0389977,0,0.0779343,0,0.116869,0
			C17.256546,20.0009117,17.256546,20.0052452,17.256546,20.0095787z M17.4384098,20.5419846
			c0.0223961,0.0084229,0.0126934,0.0025635,0.0259361,0.0130005c0.0043335,0,0.008667,0,0.0129986,0
			c-0.0043316,0.0086651-0.0086651,0.0173321-0.0129986,0.0259972c0.0043335,0,0.008667,0,0.0129986,0
			c-0.0122051,0.0537052-0.0013428,0.022398-0.0389347,0.0389366
			C17.4171104,20.5696926,17.4193077,20.5866585,17.4384098,20.5419846z M17.4513474,21.5679245
			c0,0-0.0128155,0.0021362-0.0129375-0.0389347c0.0042706,0,0.008604,0,0.0129375,0
			C17.4513474,21.5419273,17.4513474,21.5549259,17.4513474,21.5679245z M17.4643459,21.347187
			c-0.022398-0.0084209-0.0126934-0.0025635-0.0259361-0.0129986c-0.010498-0.0133648-0.0048218-0.0032349-0.0129986-0.0259972
			c0.0117779-0.012085,0.0175133-0.0226421,0.0259361-0.0389366c0.0043335,0,0.0086651,0,0.0129986,0
			C17.4643459,21.2951908,17.4643459,21.3211899,17.4643459,21.347187z M17.4384098,20.8407173c0-0.0216656,0-0.0433311,0-0.0649338
			c0.0389957,0.0173931,0.0263634,0.0289268,0.0778713,0.0389347
			C17.4968128,20.8471241,17.4890633,20.8410835,17.4384098,20.8407173z M17.5942135,21.0874519
			c-0.0043335,0.0043335-0.008667,0.008667-0.0129986,0.0129395c-0.0043335,0-0.008667,0-0.0129986,0
			c0.0087261-0.0474815,0.0215416-0.0554752,0.0389957-0.0908718C17.6192341,21.0341759,17.6073341,21.054985,17.5942135,21.0874519
			z M17.6331501,20.9835224c-0.008606,0-0.017271,0-0.025938,0c-0.0113506-0.0477238-0.0221519-0.0644455-0.0129986-0.1038704
			c0.0129986,0.008667,0.0259972,0.0173321,0.0389366,0.0259991C17.6331501,20.9315872,17.6331501,20.9575844,17.6331501,20.9835224
			z M18.1916161,24.1652107c0.0306358,0.0114117,0.0214195,0.0048809,0.0389347,0.0259972
			C18.2143784,24.1824818,18.2036991,24.1770496,18.1916161,24.1652107z M18.3344212,22.0224609c-0.008667,0-0.017271,0-0.025938,0
			c0-0.008667,0-0.0173321,0-0.0259991c0.008667,0,0.017271,0,0.025938,0
			C18.3344212,22.0051289,18.3344212,22.0137939,18.3344212,22.0224609z M18.8279533,23.9314728
			c-0.0043335,0-0.008667,0-0.0129986,0c-0.0043335-0.0043316-0.008667-0.0086651-0.0130005-0.0129986
			c0.0025635-0.0337486,0.0057373-0.0441227,0.0130005-0.0649338c0.0043316,0,0.0086651,0,0.0129986,0
			C18.8279533,23.8795395,18.8279533,23.9054756,18.8279533,23.9314728z M19.1136246,21.1913223
			c-0.053278,0.0363121-0.5663395-0.1092396-0.6623363-0.0259991c-0.1125965,0.0657883-0.0483952,0.3539619-0.1298065,0.4545364
			c-0.0133648,0.0104961-0.003233,0.0048218-0.0259972,0.0129986c-0.0249596-0.0368595-0.0167828-0.1091175-0.0389347-0.1558037
			c-0.0522404-0.1098499-0.1575146-0.1608696-0.1558666-0.3246689c0.0501652-0.0014038,0.0659714-0.0029907,0.0909328-0.0259972
			c0.0129375-0.0043335,0.0259361-0.008667,0.0389347-0.0129986c-0.0014038-0.0328941-0.0015869-0.04809-0.0129986-0.0649338
			c-0.0139751-0.0098267-0.011961-0.0081177-0.0389366-0.0129375c0.0057983-0.2327614,0.1290741-0.2688904,0.1688042-0.4415379
			c0.1204681-0.003479,0.1384716,0.0368614,0.1818008,0.1038704c0.0829372-0.0010376,0.2521687-0.012085,0.3116703,0.0259361
			c0.3112411-0.0032959,0.1194305,0.1003914,0.2987309,0.1558647
			C19.1403542,20.9590492,19.1507912,21.1331615,19.1136246,21.1913223z M23.6588573,20.6978512
			c0.008667,0.0043316,0.0173321,0.0086651,0.0259991,0.0129986c0,0.0043335,0,0.0086651,0,0.0129375
			c-0.008667,0-0.0173321,0-0.0259991,0C23.6588573,20.7151833,23.6588573,20.7065163,23.6588573,20.6978512z
			 M23.3082523,20.6718521c0.0840359,0.0167828,0.2076168,0.0142803,0.3116703,0.0130005c0,0.0129986,0,0.0259972,0,0.0389347
			c-0.1318207-0.0009155-0.187233-0.0260582-0.3116703-0.0259361
			C23.3082523,20.6891842,23.3082523,20.6805191,23.3082523,20.6718521z M21.7628441,20.5809822
			c0,0.0043335,0,0.0086651,0,0.0129986c-0.0306358-0.0114117-0.0214214-0.0049419-0.0389347-0.0259972
			C21.736908,20.5723171,21.7498455,20.5766487,21.7628441,20.5809822z M21.4641743,22.6328011c-0.0043335,0-0.008667,0-0.0129986,0
			c0-0.008667,0-0.017271,0-0.025938c0.0043316,0,0.0086651,0,0.0129986,0
			C21.4641743,22.61553,21.4641743,22.6241341,21.4641743,22.6328011z M22.7757854,22.3601284
			c-0.0404625-0.0078735-0.0315514-0.0022583-0.0519352-0.0259991c0.0173321,0,0.0346031,0,0.0519352,0
			C22.7757854,22.3427963,22.7757854,22.3514614,22.7757854,22.3601284z M23.814724,21.5809231c0,0.0302715,0,0.0606022,0,0.0908718
			c-0.0141582,0.0237389-0.1078377,0.031002-0.1298676,0.0519962c-0.008667,0.0302696-0.0173321,0.0606003-0.0259991,0.0908699
			c-0.0266075,0.0367393-0.0940437,0.0614548-0.1298656,0.0909309c-0.0098267,0.0139751-0.0081177,0.011961-0.0130005,0.0389366
			c-0.0129375,0-0.0259361,0-0.0389347,0c-0.0122051,0.0281944-0.025877,0.0537643-0.0389366,0.0779324
			c-0.0359459,0.0062847-0.0375309,0.0156841-0.0649338,0c-0.1991329-0.0074463-0.1177826,0.0333824-0.1818008,0.1428661
			c-0.0436974,0.0193462-0.3393154-0.0222149-0.4155998-0.0389977c-0.1298676-0.0086651-0.2597351-0.017271-0.3896027-0.0259361
			c-0.2139034-0.0477848-0.4844398-0.0867214-0.7272072-0.0909309c-0.0043335-0.0043335-0.008667-0.008667-0.0130005-0.0130005
			c0.0043335-0.0735378,0.008667-0.1471367,0.0130005-0.2207375c0.0519333-0.0043316,0.1038685-0.0086651,0.1558037-0.0129986
			c0-0.0216656,0-0.0432682,0-0.0649338c-0.1401806-0.0125103-0.2312355-0.0543137-0.4025402-0.0519352
			c0.0005493,0.1041145,0.0574265,0.0932522,0.1298676,0.116869c-0.008667,0.0735989-0.0173321,0.1471996-0.0259972,0.2207985
			c-0.0917263,0.0015259-0.2265358,0.0125713-0.2856731-0.0259972c-0.0123272-0.0219097,0.0033569-0.1248627,0.025938-0.1558647
			c0.0062847-0.1307831,0.1234589-0.1671562,0.1818008-0.2467365c0.1016731-0.1386547,0.2068844-0.2667522,0.3116703-0.4025402
			c0.0698166-0.0904427,0.1839981-0.1719761,0.2207985-0.2597332c0.4010754,0.0035381,0.7724915,0.0678005,1.1558075,0.0908699
			c0.0029297,0.0301476,0.0025635,0.0366783,0.0129375,0.0519962c0.012022,0.0350285,0.022337,0.0380192,0.0389957,0.0648727
			c0.1818027,0.0129986,0.3636055,0.0259972,0.5454063,0.0389957c0.005188,0.0266685,0.0032349,0.0250225,0.0130005,0.0389366
			c0.0062847,0.0774441,0.0383244,0.0896492,0.0908699,0.1168671C23.8322392,21.3702564,23.8582973,21.513916,23.814724,21.5809231z
			 M24.8795986,20.8277187c-0.1617851-0.0410118-0.2777386-0.0243511-0.4285374-0.0389977c0-0.008604,0-0.017271,0-0.0259361
			c0.0709743,0.0126324,0.2819481-0.0245953,0.3636036,0.0259361c0.0480289,0.0057983,0.0382042,0.0072632,0.0649338,0.0259972
			C24.8795986,20.8190517,24.8795986,20.8233852,24.8795986,20.8277187z M24.9055347,20.8017197
			c-0.0042706,0.0043335-0.008604,0.008667-0.0129375,0.0129986c0-0.0086651,0-0.0173321,0-0.0259972
			c0.022398,0.0084229,0.0126934,0.0025635,0.025938,0.0129986C24.9142017,20.8017197,24.9098682,20.8017197,24.9055347,20.8017197z
			 M25.9055386,24.4898777c-0.0043335,0-0.008667,0-0.0129986,0c0.0043316-0.0173321,0.0086651-0.0346622,0.0129986-0.0519333
			c0.008604,0,0.017271,0,0.0259361,0C25.921833,24.4680309,25.9179878,24.4669323,25.9055386,24.4898777z M25.9444733,24.4638805
			c0-0.0086651,0-0.017271,0-0.0259361c0.022337,0.0078716,0.0408287,0.0120831,0.0779343,0.0129986
			C26.0041599,24.4633923,25.9798088,24.4640026,25.9444733,24.4638805z M26.3730125,24.6456833
			c-0.0043335,0-0.008667,0-0.0130005,0c0-0.008606,0-0.017271,0-0.025938c0.0043335,0,0.008667,0,0.0130005,0
			C26.3730125,24.6284122,26.3730125,24.6370773,26.3730125,24.6456833z M26.2950783,24.4898777
			c0.0130005,0,0.0259991,0,0.0389977,0c0.017149,0.0315514-0.0061035,0.0091553,0.0259361,0.025938
			c0,0.0216637,0,0.0433292,0,0.0649338C26.3360291,24.5504799,26.3180866,24.518013,26.2950783,24.4898777z M26.3600121,24.1002769
			c-0.0216026,0-0.0432682,0-0.0649338,0c0-0.008667,0-0.0173321,0-0.0259991
			c0.0043335-0.0042706,0.008667-0.008604,0.0130005-0.0129375c0.0471134,0.0024414,0.1589775,0.0028687,0.1947994,0.025938
			c0.0098267,0.0139751,0.0081787,0.012022,0.0130005,0.0389957C26.4558868,24.1267624,26.3954697,24.1251755,26.3600121,24.1002769
			z M27.8924217,24.8664818c0,0.0043335,0,0.0086651,0,0.0129986c-0.0043316,0-0.0086651,0-0.0129986,0
			c0.0111694-0.0241661,0.0185528-0.034359,0.0259991-0.0649338C27.9169559,24.8396301,27.9128666,24.8419476,27.8924217,24.8664818
			z M28.8274307,22.0873947c-0.0209332,0.0153179-0.1183338,0.0603561-0.1428051,0.0649338
			c-0.0050659,0.049921-0.0124493,0.1132679-0.0389977,0.1428661c-0.0220909,0.0502872-0.0570602,0.0369205-0.0778713,0.0908699
			c-0.0173321,0-0.0346642,0-0.0519962,0c0,0.0303307,0,0.0606003,0,0.0909309
			c-0.0310631,0.0116577-0.068594,0.018919-0.0908699,0.0389366c-0.0213585,0.0302086-0.0259972,0.094471-0.0259972,0.1428661
			c-0.0043335,0.0043335-0.008667,0.0086651-0.0129986,0.0129986c-0.0476017-0.0043335-0.0952034-0.0086651-0.1428051-0.0129986
			c0.0194054-0.1006966-0.003479-0.2507629-0.0259991-0.350666c-0.044672-0.1980362-0.0472355-0.3648243-0.1428661-0.5064697
			c-0.2104244-0.3117313-0.8258286-0.3563423-1.142807-0.1428051c-0.1047249,0.0705471-0.1595879,0.2207985-0.2207394,0.3376045
			c-0.049736,0.0950222-0.2052975,0.3750172-0.1688023,0.4935341c-0.0735989-0.008667-0.1471996-0.0173321-0.2207985-0.0259991
			c-0.0029297-0.0300865-0.0025635-0.0366173-0.0129986-0.0519352c-0.0014038-0.0369816-0.005188-0.0555344-0.0130005-0.0779324
			c-0.0328922-0.0013428-0.04809-0.0015869-0.0648708-0.0129986c-0.085989,0.0169659-0.1088753,0.0784206-0.1818638,0.1039314
			c-0.0509586,0.0303917-0.1554375-0.0101929-0.233736-0.0130005c-0.0043335-0.0043316-0.008667-0.0086651-0.0130005-0.0129986
			c0.0013428-0.0504704,0.0072021-0.1146107,0.0130005-0.1298676c-0.0003662-0.0378361-0.0006104-0.0707912,0.0129986-0.0909309
			c0.0300255-0.018858,0.1125355-0.0075665,0.1428661-0.0259361c0.008604,0,0.017271,0,0.0259361,0
			c-0.0029297-0.0301476-0.0025635-0.0366173-0.0129986-0.0519352c-0.0321007-0.0247173-0.0909309-0.0370445-0.1428051-0.0389977
			c0.017271-0.1285248,0.1227264-0.2306843,0.1818027-0.324667c0.0656643-0.1044197,0.1042957-0.2066402,0.1688023-0.3116703
			c0.036129-0.0587692,0.0912361-0.0977058,0.1038685-0.1818008c0.3149052,0.0013428,0.6793022,0.0039654,0.9610062,0.0649338
			c0.1897354,0.0410709,0.3979015,0.0014019,0.5714054,0.0389957c0.1531792,0.0331383,0.3740387-0.0340538,0.4934711,0.0389366
			c0.0148907,0.0217247,0.0214806,0.0886726,0.0259972,0.1168671c0.2034054,0.0173321,0.4069347,0.0346642,0.6103401,0.0519352
			c0.0037842,0.0983162,0.0368614,0.0961189,0.0519962,0.1428661C29.0299816,21.7619934,28.8598976,22.046566,28.8274307,22.0873947
			z M31.9182491,14.78901c0.0042706,0,0.008604,0,0.0129375,0c-0.0163555,0.0376539-0.0180645,0.0121441-0.0389366-0.0129986
			C31.9146481,14.7844334,31.9049435,14.778574,31.9182491,14.78901z M31.6195164,22.8016644
			c-0.0043316,0.0043335-0.0086651,0.008606-0.0129375,0.0129375c-0.0642014-0.0008545-0.2025509-0.0133038-0.2207985-0.0259361
			c-0.1401196-0.0062866-0.1929703,0.0293541-0.2207985,0.1298676c-0.1471386-0.0129986-0.2943382-0.0259991-0.4415379-0.0389977
			c-0.0042706-0.0043335-0.008604-0.0086651-0.0129375-0.0129375c0.0068359-0.1738071,0.0411949-0.2924461,0.0519352-0.4545364
			c0.0624924-0.0017071,0.1825943-0.0181847,0.2207375-0.0519333c0.0728683-0.0014648,0.0782375-0.0022583,0.0779324,0.0389347
			c0.144392,0.0078125,0.4251213,0.0505314,0.5324688-0.0259972c0.0299644,0.0042725,0.0322227,0.0060425,0.0519352,0.0129986
			C31.6314774,22.5039711,31.6320877,22.6836357,31.6195164,22.8016644z M31.9052486,21.8406582
			c-0.0626755,0.1006355-0.1578178,0.2021866-0.1947994,0.3246689c-0.0809231-0.0194073-0.0987434-0.1003914-0.1558666-0.1428661
			c-0.0942879-0.0700607-0.2381306-0.1016121-0.324667-0.1818027c-0.0042725,0-0.008606,0-0.0129395,0
			c0.0015869-0.0897713-0.0088482-0.1208344-0.0389957-0.1688633c-0.0129375,0-0.025938,0-0.0389366,0
			c0.0346031-0.1038704,0.0692673-0.2077389,0.1038704-0.3116703c0.0306969-0.0348473,0.0823879-0.0144634,0.1039295-0.0649338
			c0.0571842-0.1341381-0.0201988-0.2362385-0.0129986-0.3246059c0.0055542-0.0683517,0.0586472-0.2143307,0.0129986-0.2857323
			c-0.0043316-0.0130005-0.0086651-0.0259991-0.0129986-0.0389366c-0.0303307,0-0.0606003,0-0.0909309,0
			c0.0059795-0.190773,0.0289879-0.3595772,0.0649338-0.5194702c0-0.0822639,0-0.1645298,0-0.2467346
			c0.0076885-0.0261192,0.0245934-0.0401573,0.0259972-0.0909309c0-0.0519352,0-0.1038704,0-0.1558056
			c0.0286217-0.0833626,0.19767-0.2622356,0.1298676-0.3896008c-0.0046387-0.0829983-0.0319786-0.0816555-0.0649338-0.1298676
			c-0.1038685-0.0129986-0.2077999-0.0259991-0.3116684-0.0389366c0.0098248-0.2915287,0.1210175-0.6990128,0.1947994-0.9610062
			c0.0304527-0.1083241,0.0214825-0.1920547,0.0519352-0.2987309c0.1119862-0.3924694,0.1697788-0.8027611,0.2986698-1.1947422
			c0.0575504-0.1750278,0.171917-0.445015,0.1818027-0.6363382c0.0043335,0,0.008667,0,0.0129986,0
			c0.01544,0.044734-0.0032349,0.1232767,0.0129986,0.1818628c0.0706711,0.2553406,0.0440025,0.5507164,0.1038704,0.8310776
			c0.0584049,0.2734051,0.0581608,0.6933384,0.1298656,1.0000038c0.0311241,0.1331005-0.0087242,0.2299519,0.026001,0.3636036
			c0.0481491,0.1857071,0.0283775,0.4052868,0.0778694,0.6103401c0.0146484,0.0605392,0.0529099,0.2046261,0.0519981,0.2597351
			c-0.0024414,0.1382275,0.013546,0.364397,0.0519333,0.5064697c0.0301476,0.1116199-0.0193443,0.2273903,0,0.3246689
			c0.0014648,0.0075054,0.0281334,0.0825081,0.0259361,0.0908699c-0.010498,0.0407047-0.0766525,0.0848904-0.0908699,0.1298676
			c-0.0213585,0.0675564,0.0123901,0.2375813,0.0259361,0.2987309c0.0415001,0.1871109-0.0306358,0.4063854,0.0909309,0.5064697
			c-0.020504,0.1006355-0.0956917,0.1707573-0.1428642,0.2467365
			C32.0861969,21.5028687,32.0100327,21.6723442,31.9052486,21.8406582z M32.3467865,22.8795357
			c-0.1168671-0.008604-0.233799-0.017271-0.350666-0.0259361c-0.0043335-0.0043335-0.008667-0.008667-0.0129395-0.0129986
			c-0.0005474-0.2878075,0.1409149-0.3952789,0.2596741-0.584404c0.0347862-0.0552902,0.0469322-0.111742,0.0909309-0.1558037
			c0.0139771-0.0098858,0.0120239-0.0081787,0.0389366-0.0129986c0.00177,0.108263,0.0363121,0.3514595-0.0129395,0.4285374
			C32.3608208,22.6288948,32.3771782,22.7893982,32.3467865,22.8795357z M32.567524,19.8017788
			c-0.0266685-0.005188-0.0250206-0.0032349-0.0389366-0.0129986c0,0-0.0509567-0.0029297-0.0259972-0.0130005
			c0.0043335-0.0042706,0.008667-0.008604,0.0130005-0.0129375c0.0216637,0,0.0432663,0,0.0649338,0
			C32.5761909,19.7757797,32.5718575,19.7887802,32.567524,19.8017788z M4.9584537,18.5940361
			c0.004333-0.0043316,0.008666-0.0086651,0.0129991-0.0129986c-0.008666,0-0.0173321,0-0.0259981,0
			C4.933188,18.5947075,4.9494824,18.5957451,4.9584537,18.5940361z M11.9540787,22.8656216
			c-0.0116568,0.0036011-0.0186749-0.0007935-0.0089712,0.0269127c0.0181255,0.0094604,0.0164165,0.0042114,0.0389967-0.0129986
			c0.022397-0.0083599,0.0126934-0.0025024,0.0259371-0.0129375c-0.0129385-0.0043335-0.0259371-0.0086651-0.0389357-0.0129986
			c-0.0050659,0.0083599-0.0073233,0.0053082-0.0114737,0.0080547c-0.000061,0.001709-0.0015259,0.0032349-0.0015259,0.0049438
			C11.9547501,22.8661709,11.9562759,22.8660488,11.9540787,22.8656216z M20.9707031,24.5807495c0.0086651,0,0.017271,0,0.0259361,0
			c0-0.008606,0-0.017271,0-0.025938c-0.0086651,0-0.017271,0-0.0259361,0
			C20.9707031,24.5634785,20.9707031,24.5721436,20.9707031,24.5807495z"/>
	</g>
</g>
</svg>
