<?xml version="1.0" encoding="utf-8"?>
<!-- Generator: Adobe Illustrator 17.1.0, SVG Export Plug-In . SVG Version: 6.00 Build 0)  -->
<!DOCTYPE svg PUBLIC "-//W3C//DTD SVG 1.1//EN" "http://www.w3.org/Graphics/SVG/1.1/DTD/svg11.dtd">
<svg version="1.1" id="Layer_1" xmlns="http://www.w3.org/2000/svg" xmlns:xlink="http://www.w3.org/1999/xlink" x="0px" y="0px"
	 viewBox="0 0 50 50" enable-background="new 0 0 50 50" xml:space="preserve">
<g id="base">
	<g>
		
			<linearGradient id="SVGID_1_" gradientUnits="userSpaceOnUse" x1="-22.7237625" y1="6.0480018" x2="-22.7237625" y2="3.8048859" gradientTransform="matrix(8 0 -6.0949283 8 237.7319641 0)">
			<stop  offset="0" style="stop-color:#000000;stop-opacity:0.4"/>
			<stop  offset="1" style="stop-color:#000000;stop-opacity:0"/>
		</linearGradient>
		<path fill="url(#SVGID_1_)" d="M9.2211933,41.0931664c-1.0316706-1.155899-1.0465794-2.3570251-0.0451984-3.6714058
			c2.9830685-3.9154778,13.3386345-6.9826736,23.5756073-6.9826736c10.2364845,0,15.9184647,3.0671959,12.9353981,6.9826736
			c-1.0015221,1.3145676-2.8461342,2.5156937-5.6389427,3.6714058l-20.9680824,7.2908478L9.2211933,41.0931664z"/>
		
			<linearGradient id="SVGID_2_" gradientUnits="userSpaceOnUse" x1="2.408241" y1="6.0480018" x2="2.408241" y2="0.1263047" gradientTransform="matrix(8 0 0 8 0 0)">
			<stop  offset="0" style="stop-color:#007BB8"/>
			<stop  offset="1" style="stop-color:#0094DE"/>
		</linearGradient>
		<path fill="url(#SVGID_2_)" d="M3.8527436,29.1365871c-1.9123098-3.051506-2.8423159-6.2224064-2.8423159-9.6922932
			c0-10.3366346,8.018774-18.433857,18.2557507-18.433857c10.2364788,0,18.2552528,8.0972204,18.2552528,18.433857
			c0,3.4703808-0.929512,6.6412811-2.8418236,9.6922932l-15.4134293,19.247427L3.8527436,29.1365871z"/>
		<path fill="#FFFFFF" d="M19.2659435,2.0208666c9.6701679,0,17.245142,7.6533575,17.245142,17.4236126
			c0,3.2562714-0.8693466,6.2360802-2.656971,9.1055412l-14.588171,18.2170124L4.6778779,28.550066
			c-1.7876539-2.8695812-2.6570275-5.8494282-2.6570275-9.105587C2.0208504,9.6742239,9.5957994,2.0208666,19.2659435,2.0208666
			 M19.2659435,0.0000152C8.532135,0.0000152,0,8.6111231,0,19.444479c0,3.888895,1.1009822,7.2222118,3.0275838,10.27775
			l16.2383595,20.2777863L35.5043869,29.722229c1.9266396-3.0555382,3.0275459-6.388855,3.0275459-10.27775
			C38.5319328,8.6111231,29.9998417,0.0000152,19.2659435,0.0000152L19.2659435,0.0000152z"/>
	</g>
</g>
<path opacity="0.6" fill="#020302" enable-background="new    " d="M32.2206039,20.5642338
	c-0.0100136,0.2001152-0.0200195,0.400238-0.0298843,0.6001797c-0.1741714,0.1080475-0.3443909,0.2200794-0.4053612,0.4341297
	c-0.0391159-0.0082359-0.0479298,0.0067978-0.0316181,0.0411491c-0.1010284,0.0627098-0.0714798,0.1255932-0.0002613,0.1885319
	c0.2692528,0.2199955,0.1890392,0.4242229-0.0978985,0.642622c0.3542042,0.0439186,0.425375,0.2862301,0.5145321,0.5130959
	c0.0992928,0.252676,0.1907425,0.5087299,0.298584,0.7576942c0.0962067,0.2221031,0.0153732,0.3190536-0.2049637,0.3577919
	c-0.3283958,0.0577526-0.6562557,0.1201077-0.981657,0.1925888c-0.1836128,0.0408955-0.3238125,0.0580711-0.2201405,0.3591709
	c0.2231541,0.6481476-0.1937065,1.4088554-0.7668629,1.8390713c-0.4280529,0.3213062-0.846302,0.4523754-1.3642578,0.4274273
	c-0.4148006-0.0199718-0.7139111-0.2572613-1.0400467-0.4479065c-0.143877-0.0840988-0.2569981-0.2208042-0.3840714-0.3335266
	c0.1203384-0.2195873-0.1130295-0.2642956-0.1909542-0.3859043c0.0786514-0.2324142-0.2230301-0.4135647-0.0907822-0.6561298
	c0.004612-0.008461-0.0397053-0.059824-0.0677032-0.0674686c-0.7362957-0.2009926-1.4586124-0.5003147-2.2492332-0.3320065
	c-0.0481567,0.0102367-0.1119671,0.0122166-0.1396484,0.0435371c-0.3603573,0.4076271-0.8392315,0.2771492-1.2846794,0.2845306
	c-0.556551,0.0092144-1.113348,0.0079422-1.6700039,0.0053005c-0.293581-0.0013962-0.4620495,0.1085472-0.429987,0.4293079
	c0.0033779,0.0338345-0.0197353,0.0695724-0.0258713,0.1052303c-0.0390797,0.2268257-0.3474693,0.2219505-0.3857613,0.3835907
	c-0.0600777,0.2536678-0.3006248,0.2589321-0.3960991,0.3804512c-0.202631,0.2579327-0.5481739,0.1971455-0.7296963,0.4380932
	c-0.0373306,0.0495319-0.1481533,0.0951557-0.1983013,0.075222c-0.3336773-0.1326866-0.6126995,0.1770458-0.9918308,0.0745373
	c-0.2354031-0.0636272-0.5052376-0.2101822-0.7270374-0.1919365c-0.3467083,0.0285263-0.5175095-0.1962109-0.7330418-0.3390617
	c-0.2459679-0.1630573-0.5090618-0.3746643-0.6328068-0.6292858c-0.1614704-0.3322353-0.4150867-0.6231022-0.4937744-0.9928665
	c-0.030901-0.1452122-0.1452017-0.3059006,0.0282249-0.4442596c0.0299206-0.0238647,0.1120453-0.0615578,0.0409088-0.1035423
	c-0.2521038-0.148735-0.1004162-0.3762379-0.1251431-0.5686531c0.0481625-0.0235157,0.0963268-0.0470181,0.1444855-0.0705128
	c-0.0672417-0.0464954-0.1292038-0.0394764-0.1861496,0.0183659c-0.5587234,0.1760139-0.6212797,0.2373619-0.5123711,0.7782288
	c0.1304464,0.6478233,0.1591787,1.2646179-0.2085257,1.8551769c-0.1203794,0.193325-0.2253704,0.3166485-0.4836473,0.3016338
	c-0.4563408-0.0265446-0.915369-0.0039749-1.3732042-0.0087776c-0.4343271-0.0045471-0.8656044-0.0093498-1.2714844,0.1890488
	c-0.0836592,0.0408974-0.19279,0.0406532-0.2902098,0.0408249c-2.2891502,0.0039368-4.5783048,0.0054283-6.8674593,0.0066814
	c-0.0591564,0.0000343-0.1183124-0.007473-0.1848273-0.0119476c0.0189681-0.1274643,0.1050959-0.1968746,0.1810102-0.2314701
	c0.9018707-0.4109058,1.6230664-1.1069145,2.4941082-1.571125c0.3070445-0.1636505,0.5772195-0.0220337,0.8844495-0.069067
	C8.3048,24.5992508,8.1119919,24.4142418,8.0077009,24.1894264c-0.0311017-0.0670528-0.064322-0.1362877-0.1110969-0.1924171
	c-0.5165644-0.6198463-0.4885364-1.2428951-0.0177879-1.8710995c0.1351886-0.117115,0.2057977-0.271904,0.2558951-0.4386578
	c0.2062922-0.3831081,0.5233088-0.5084667,0.9496927-0.4498959c0.242363,0.0333157,0.4946871,0.0187283,0.7402687-0.001543
	c0.3895178-0.0321541,0.7320986,0.0197983,0.9412556,0.3999672c-0.0049257,0.0201874,0.0012207,0.0361042,0.0184412,0.0477409
	c-0.0089865,0.0662594,0.0151968,0.1182957,0.0677719,0.1581745c0.0464697,0.0992393,0.0540771,0.2197227,0.1573486,0.2878895
	c0.0662918,0.0969372,0.1633577,0.0972996,0.259943,0.072216c0.3798323-0.0986786,0.7667446-0.0772247,1.1527004-0.0750847
	c0.2468119,0.0176582,0.4936295,0.0353146,0.7404413,0.0529823c0.2191887,0.0263138,0.4458971,0.0234833,0.6294899,0.1788158
	c0.0596247,0.0504456,0.1341953,0.0719433,0.2070637,0.0322819c0.4466057-0.2430363,0.8549099-0.539423,1.2490225-0.8807831
	c-0.7314453,0.0604305-1.0481358-0.3939934-1.2882252-0.9510727c-0.0458031-0.1702385-0.0916061-0.3404713-0.1374092-0.5107174
	c-0.0320358-0.1247692-0.0640678-0.2495365-0.0960989-0.3743038c0.0047426-0.1357822-0.0049973-0.2674294-0.1062584-0.3730145
	c-0.0430794-0.4927464-0.1691322-0.9632378-0.3783979-1.4114285c0.0016804-0.4452934-0.0492611-0.8780861-0.3001451-1.263382
	c-0.112072-0.2807178,0.0100307-0.5078583,0.1664-0.7271471c0.2331228-0.1166325-0.0007811-0.4650831,0.2776041-0.5592489
	c0.1189947,0.0210609,0.2661533,0.0589533,0.2917528-0.1066933c0.0561752-0.3634548,0.2989388-0.2612,0.5185804-0.2319517
	l0.0020981,0.0036306c0.0333328,0.1478176-0.0221653,0.4536552,0.2333441,0.3243303
	c0.3018923-0.1528006,0.596796-0.0766191,0.8893156-0.1315317c0.0990582-0.0008078,0.1981182-0.0016069,0.2971764-0.0024052
	c0.5408535-0.0404253,1.044754,0.2438889,1.5948009,0.1719007c0.1823139-0.0238657,0.3561115-0.0447464,0.4617996-0.1854362
	c0.2307434-0.3071814,0.5368519-0.3591709,0.8884163-0.337801c0.2087479,0.012682,0.4196835-0.0106297,0.629631-0.0177565
	c0.5165176,0.0306292,1.0330467,0.0411682,1.5495758,0.000227c0.6286316,0.0077076,1.2572994,0.0230761,1.8858681,0.0195627
	c0.271595-0.0015154,0.474987,0.0529346,0.6842175,0.2687998c0.2590122,0.2672462,0.595026,0.4361238,0.9799767,0.5540018
	c1.6699677,0.5113993,3.3805618,0.4037161,5.0848618,0.4114504c1.5483208,0.0070267,3.0967007,0.0009079,4.6450596,0.0029964
	c0.5269089,0.0007076,1.1574974,0.6309566,1.1582489,1.1514244c0.0002823,0.1981812,0.0020905,0.3964329-0.0028229,0.5945072
	c-0.0017052,0.0686951,0.0246735,0.1599369-0.0659866,0.1920261c-0.083107,0.0294304-0.1367912-0.0405312-0.1882782-0.0905781
	c-0.2485847-0.2415924-0.4983101-0.4822159-0.7405167-0.7301159c-0.1475372-0.1510048-0.3149719-0.222065-0.5285416-0.2209949
	c-0.9784584,0.0049458-1.9570141,0.0070801-2.9354019-0.0028858c-0.2348843-0.0023975-0.274744,0.046587-0.2349396,0.2925644
	c0.1238804,0.7655106,0.6748142,1.2311001,1.1392155,1.7691631c0.2092113,0.2423992,0.5742168,0.3716164,0.5985508,0.7597904
	C32.1803665,20.0528412,32.1742325,20.3084965,32.2206039,20.5642338z M8.5597553,24.8930244
	c0.6494169,0.3218517,1.228756,0.3350315,1.8203812,0.1072369c0.159337-0.061348,0.3330297-0.0872211,0.5015535-0.1225967
	c0.8279305-0.1737728,1.4898109-0.6802673,2.1959324-1.097065c0.0807171-0.0476513,0.1790361-0.1353264,0.0342693-0.2250175
	c-0.4613342-0.2858925-0.9216557-0.5741806-1.3940239-0.8408833c-0.0921822-0.0520535-0.330039-0.0797501-0.2442389,0.1483784
	c0.1076794,0.2863312-0.0278635,0.4719181-0.1590872,0.6809578c-0.2099056,0.3343792-0.4389658,0.6597347-0.6150103,1.0113888
	c-0.1314764,0.262598-0.3042898,0.350729-0.5839777,0.3419399C9.6226463,24.881876,9.1288996,24.8930244,8.5597553,24.8930244z
	 M5.8034253,26.3077183c0.0843301,0.0195007,0.1209145,0.03969,0.1523376,0.033535
	c1.0545034-0.2064514,2.0328779-0.6753368,3.0830965-0.8984756c0.0356541-0.0075798,0.0775261-0.0673771,0.0851154-0.1086102
	c0.0158634-0.0862122-0.0683022-0.0905876-0.1215763-0.1038227c-0.3826284-0.0950279-0.7592735-0.2245617-1.1586418-0.2303905
	c-0.0819559-0.0011997-0.1784554,0.0160961-0.2445655,0.0603027C7.0070977,25.4561958,6.3759103,25.7962837,5.8034253,26.3077183z
	 M9.4546404,21.8718719c-0.1106157,0.0279694-0.3212471-0.1020279-0.4360561,0.1117306
	c-0.0427217,0.0795422,0.2980566,0.7139835,0.3930626,0.7278996c0.2473116,0.0362225,0.2099371-0.2201691,0.314683-0.332798
	c0.0579815-0.0623379,0.0979881-0.1410542,0.1529646-0.2066345c0.0566473-0.0675774,0.1255989-0.1388454,0.0834589-0.2270031
	c-0.0431881-0.0903339-0.1479301-0.0683575-0.2315521-0.0724411C9.6577101,21.86903,9.5839062,21.8718719,9.4546404,21.8718719z
	 M8.6624641,23.1759224c-0.1446171,0.0703011-0.3778811-0.1134186-0.4558744,0.1592464
	c-0.0192862,0.0674133,0.4492245,0.7048416,0.5046272,0.7109413c0.0810709,0.0089264,0.4829121-0.6196175,0.4379358-0.7304955
	C9.0545778,23.0825195,8.8315992,23.2290039,8.6624641,23.1759224z M9.4732275,24.301321
	c0.1667757-0.0646095,0.3934937,0.1034622,0.4804106-0.1386929c0.0441875-0.1230984-0.3797998-0.7021923-0.4854727-0.7100792
	c-0.1374083-0.0102692-0.4710693,0.4467163-0.4487925,0.6725311C9.0534887,24.4709167,9.3396225,24.1946735,9.4732275,24.301321z
	 M8.6840372,22.9734745c0.1570215-0.0612659,0.3986101,0.1114254,0.4655695-0.144249
	c0.0521164-0.1990261-0.2875996-0.7352791-0.420433-0.736805c-0.091711-0.0010529-0.5512657,0.6166229-0.5136414,0.7336025
	C8.2971373,23.0797329,8.5297937,22.9058819,8.6840372,22.9734745z M10.6971445,23.3450813
	c0.0153408-0.0787792-0.0271835-0.1267452-0.0918465-0.1359329c-0.2571621-0.0366306-0.5173092-0.0451717-0.7728729,0.0001278
	c-0.1272326,0.0225487-0.0919504,0.1302052-0.0444498,0.2044258c0.1257429,0.1964664,0.2589989,0.3881931,0.3916922,0.5801201
	c0.0388947,0.0562649,0.1065111,0.0928421,0.1479349,0.0231228C10.4586334,23.7964497,10.575985,23.5678291,10.6971445,23.3450813z
	 M9.8911457,22.6410294c0.1645803,0.0344963,0.2895784-0.0607395,0.4247732-0.1064186
	c0.0764723-0.0258369,0.1824121-0.0528183,0.1388798-0.1737995c-0.032732-0.0909328-0.0588799-0.2025661-0.1642523-0.2335205
	c-0.0979156-0.0287704-0.1602135,0.0467854-0.2021542,0.1262455C10.0221367,22.3790398,9.8952227,22.474884,9.8911457,22.6410294z"
	/>
<path fill="#FFFFFF" d="M31.7153301,20.05896c-0.0100136,0.2001171-0.0200176,0.400238-0.0298862,0.6001816
	c-0.1741676,0.1080456-0.344389,0.2200775-0.4053593,0.4341278c-0.039114-0.0082359-0.0479298,0.0067978-0.0316181,0.0411491
	c-0.1010284,0.0627098-0.0714779,0.1255951-0.0002613,0.1885338c0.2692528,0.2199936,0.1890392,0.424221-0.0978985,0.6426201
	c0.3542042,0.0439186,0.4253769,0.2862301,0.5145302,0.5130959c0.0992966,0.252676,0.1907501,0.5087318,0.2985859,0.7576942
	c0.0962086,0.2221031,0.015379,0.3190536-0.2049637,0.3577919c-0.3283958,0.0577526-0.6562557,0.1201096-0.981657,0.1925888
	c-0.1836109,0.0408974-0.3238125,0.058073-0.2201405,0.3591709c0.2231541,0.6481495-0.1937065,1.4088573-0.7668629,1.8390713
	c-0.4280529,0.3213062-0.846302,0.4523754-1.3642578,0.4274292c-0.4147987-0.0199718-0.7139111-0.2572632-1.0400467-0.4479084
	c-0.143877-0.0840988-0.2569981-0.2208042-0.3840714-0.3335266c0.1203403-0.2195854-0.1130276-0.2642956-0.1909542-0.3859043
	c0.0786514-0.2324142-0.2230282-0.4135647-0.0907803-0.6561298c0.004612-0.008461-0.0397072-0.059824-0.0677032-0.0674667
	c-0.7362976-0.2009945-1.4586143-0.5003147-2.2492352-0.3320084c-0.0481567,0.0102386-0.1119652,0.0122166-0.1396465,0.0435371
	c-0.3603592,0.4076271-0.8392315,0.2771492-1.2846813,0.2845306c-0.5565491,0.0092144-1.113348,0.0079422-1.670002,0.0053043
	c-0.293581-0.0013981-0.4620514,0.1085434-0.4299889,0.4293041c0.0033779,0.0338345-0.0197353,0.0695744-0.0258713,0.1052303
	c-0.0390797,0.2268257-0.3474693,0.2219524-0.3857594,0.3835926c-0.0600796,0.2536659-0.3006268,0.2589321-0.396101,0.3804493
	c-0.2026291,0.2579327-0.5481739,0.1971455-0.7296963,0.4380932c-0.0373287,0.0495319-0.1481514,0.0951557-0.1982994,0.075222
	c-0.3336792-0.1326828-0.6126995,0.1770458-0.9918327,0.0745392c-0.2354012-0.0636272-0.5052376-0.2101822-0.7270374-0.1919365
	c-0.3467064,0.0285244-0.5175095-0.1962109-0.7330379-0.3390617c-0.2459698-0.1630573-0.5090656-0.3746662-0.6328106-0.6292858
	c-0.1614685-0.3322372-0.4150848-0.6231041-0.4937725-0.9928684c-0.0309019-0.1452122-0.1452026-0.3059006,0.028223-0.4442577
	c0.0299206-0.0238667,0.1120443-0.0615597,0.0409098-0.1035442c-0.2521048-0.148735-0.1004162-0.3762379-0.125145-0.5686531
	c0.0481644-0.0235119,0.0963278-0.0470181,0.1444864-0.0705109c-0.0672407-0.0464973-0.1292028-0.0394783-0.1861486,0.018364
	c-0.5587225,0.1760159-0.6212797,0.2373657-0.5123711,0.7782288c0.1304464,0.6478233,0.1591778,1.2646179-0.2085257,1.8551769
	c-0.1203785,0.193325-0.2253695,0.3166504-0.4836473,0.3016357c-0.4563417-0.0265465-0.91537-0.0039768-1.3732042-0.0087795
	c-0.4343271-0.0045452-0.8656044-0.0093498-1.2714853,0.1890507c-0.0836582,0.0408955-0.19279,0.0406513-0.2902098,0.040823
	c-2.2891493,0.0039406-4.5783043,0.0054302-6.8674583,0.0066833c-0.0591569,0.0000343-0.1183128-0.0074749-0.1848273-0.0119495
	c0.0189686-0.1274643,0.1050954-0.1968727,0.1810098-0.2314682c0.9018707-0.4109077,1.6230669-1.1069164,2.4941082-1.5711269
	c0.3070455-0.1636505,0.5772195-0.0220337,0.8844504-0.069067c-0.0348506-0.2727489-0.2276583-0.457756-0.3319502-0.6825733
	c-0.0311012-0.067049-0.064322-0.1362877-0.1110969-0.1924171c-0.5165644-0.6198444-0.4885364-1.2428951-0.0177879-1.8710995
	c0.1351891-0.1171131,0.2057977-0.271904,0.2558947-0.4386578c0.2062926-0.3831081,0.5233088-0.5084667,0.9496937-0.4498959
	c0.2423639,0.0333157,0.4946861,0.0187283,0.7402687-0.001543c0.3895178-0.0321541,0.7320976,0.0197983,0.9412546,0.3999691
	c-0.0049248,0.0201874,0.0012207,0.0361023,0.0184422,0.0477409c-0.0089865,0.0662594,0.0151958,0.1182938,0.0677719,0.1581726
	c0.0464697,0.0992413,0.0540781,0.2197227,0.1573477,0.2878895c0.0662928,0.0969372,0.1633587,0.0972996,0.259944,0.0722179
	c0.3798323-0.0986786,0.7667446-0.0772266,1.1526995-0.0750866c0.2468128,0.0176582,0.4936295,0.0353146,0.7404423,0.0529823
	c0.2191877,0.0263138,0.4458961,0.0234833,0.6294909,0.1788158c0.0596228,0.0504475,0.1341944,0.0719433,0.2070627,0.0322819
	c0.4466057-0.2430363,0.8549109-0.539423,1.2490215-0.8807831c-0.7314444,0.0604324-1.0481348-0.3939915-1.2882242-0.9510727
	c-0.045804-0.1702385-0.0916071-0.3404713-0.1374083-0.5107174c-0.0320368-0.1247673-0.0640688-0.2495365-0.0960999-0.3743038
	c0.0047417-0.1357822-0.0049982-0.2674274-0.1062584-0.3730145c-0.0430803-0.4927444-0.1691322-0.9632359-0.3783979-1.4114265
	c0.0016804-0.4452953-0.0492611-0.878088-0.3001442-1.2633839c-0.1120729-0.2807188,0.0100307-0.5078592,0.166398-0.7271461
	c0.2331228-0.1166334-0.0007811-0.4650841,0.2776051-0.5592489c0.1189938,0.02106,0.2661533,0.0589533,0.2917528-0.1066942
	c0.0561752-0.3634548,0.2989388-0.2612,0.5185804-0.2319508l0.0020971,0.0036306
	c0.0333338,0.1478167-0.0221643,0.4536543,0.2333441,0.3243294c0.3018932-0.1528006,0.596796-0.0766182,0.8893156-0.1315308
	c0.0990601-0.0008078,0.1981192-0.0016069,0.2971764-0.0024052c0.5408535-0.0404253,1.044754,0.2438889,1.5948009,0.1719007
	c0.1823139-0.0238667,0.3561115-0.0447464,0.4617996-0.1854372c0.2307453-0.3071804,0.5368538-0.35917,0.8884163-0.337801
	c0.2087479,0.0126829,0.4196835-0.0106287,0.629631-0.0177555c0.5165176,0.0306292,1.0330486,0.0411673,1.5495758,0.000226
	c0.6286316,0.0077085,1.2572994,0.023077,1.8858681,0.0195637c0.271595-0.0015163,0.4749889,0.0529346,0.6842175,0.2687998
	c0.2590141,0.2672462,0.595026,0.4361238,0.9799767,0.5540009c1.6699696,0.5114002,3.3805618,0.403717,5.0848618,0.4114504
	c1.5483208,0.0070267,3.0966988,0.0009089,4.6450577,0.0029974c0.5269165,0.0007067,1.1574974,0.6309557,1.1582489,1.1514235
	c0.0002823,0.1981812,0.0020905,0.3964348-0.0028191,0.5945091c-0.0017052,0.0686932,0.0246735,0.159935-0.0659866,0.1920242
	c-0.0831108,0.0294323-0.1367912-0.0405312-0.188282-0.0905781c-0.2485809-0.2415924-0.4983063-0.482214-0.7405167-0.7301159
	c-0.1475334-0.1510029-0.3149681-0.222065-0.5285378-0.2209949c-0.9784622,0.0049477-1.9570141,0.0070801-2.9354038-0.0028858
	c-0.2348824-0.0023975-0.274744,0.046587-0.2349377,0.2925644c0.1238785,0.7655125,0.6748123,1.231102,1.1392136,1.7691631
	c0.2092113,0.2423992,0.5742207,0.3716164,0.5985489,0.7597904C31.6750965,19.5475712,31.6689587,19.8032246,31.7153301,20.05896z
	 M8.0544815,24.3877506c0.6494169,0.3218517,1.228756,0.3350315,1.8203812,0.1072369
	c0.159337-0.061348,0.3330307-0.0872192,0.5015545-0.1225967c0.8279295-0.1737709,1.48981-0.6802673,2.1959324-1.097065
	c0.0807171-0.0476494,0.1790361-0.1353264,0.0342693-0.2250156c-0.4613342-0.2858944-0.9216557-0.5741825-1.3940248-0.8408852
	c-0.0921812-0.0520535-0.3300381-0.0797482-0.2442379,0.1483803c0.1076784,0.2863293-0.0278645,0.4719181-0.1590881,0.6809559
	c-0.2099056,0.3343811-0.4389648,0.6597366-0.6150093,1.0113888c-0.1314764,0.2625999-0.3042908,0.350729-0.5839777,0.3419418
	C9.1173735,24.3766041,8.6236267,24.3877506,8.0544815,24.3877506z M5.2981524,25.8024445
	c0.0843296,0.0195007,0.120914,0.03969,0.1523371,0.033535c1.0545034-0.2064514,2.0328789-0.6753368,3.083096-0.8984756
	c0.035655-0.0075798,0.077527-0.0673771,0.0851164-0.1086082c0.0158634-0.0862141-0.0683031-0.0905895-0.1215763-0.1038246
	c-0.3826294-0.0950279-0.759275-0.2245617-1.1586423-0.2303905c-0.0819559-0.0011997-0.1784549,0.0160961-0.2445655,0.0603046
	C6.5018249,24.950922,5.8706369,25.2910099,5.2981524,25.8024445z M8.9493675,21.3665981
	c-0.1106157,0.0279694-0.3212481-0.1020279-0.4360561,0.1117325c-0.0427217,0.0795403,0.2980566,0.7139816,0.3930626,0.7278976
	c0.2473106,0.0362244,0.2099371-0.2201672,0.3146839-0.3327961c0.0579805-0.0623398,0.0979872-0.1410561,0.1529627-0.2066364
	c0.0566473-0.0675755,0.1255999-0.1388454,0.0834599-0.2270031c-0.043189-0.0903339-0.1479311-0.0683556-0.2315531-0.0724411
	C9.1524372,21.3637581,9.0786333,21.3665981,8.9493675,21.3665981z M8.1571913,22.6706486
	c-0.144618,0.0703011-0.3778811-0.1134186-0.455874,0.1592464c-0.0192866,0.0674152,0.449224,0.7048435,0.5046268,0.7109432
	c0.0810709,0.0089245,0.4829121-0.6196175,0.4379358-0.7304955C8.549304,22.5772457,8.3263264,22.7237301,8.1571913,22.6706486z
	 M8.9679537,23.7960491c0.1667767-0.0646095,0.3934946,0.1034603,0.4804115-0.1386948
	c0.0441866-0.1230965-0.3797998-0.7021904-0.4854727-0.7100792c-0.1374083-0.0102673-0.4710703,0.4467163-0.4487915,0.672533
	C8.5482149,23.9656429,8.8343496,23.6893997,8.9679537,23.7960491z M8.1787634,22.4682026
	c0.1570225-0.0612659,0.3986111,0.1114235,0.4655695-0.144249c0.0521173-0.1990261-0.2875996-0.735281-0.4204321-0.7368069
	c-0.091711-0.0010529-0.5512657,0.6166229-0.5136423,0.7336025C7.7918649,22.5744591,8.0245199,22.4006081,8.1787634,22.4682026z
	 M10.1918716,22.8398094c0.0153408-0.0787792-0.0271845-0.1267452-0.0918474-0.1359348
	c-0.2571611-0.0366306-0.5173092-0.0451717-0.772872,0.0001278c-0.1272326,0.0225506-0.0919514,0.1302052-0.0444508,0.2044277
	c0.1257439,0.1964645,0.2589989,0.3881912,0.3916931,0.5801201c0.0388937,0.0562649,0.1065111,0.0928402,0.1479349,0.0231209
	C9.9533596,23.2911758,10.0707121,23.0625553,10.1918716,22.8398094z M9.3858738,22.1357555
	c0.1645784,0.0344963,0.2895775-0.0607395,0.4247723-0.1064186c0.0764723-0.025835,0.1824112-0.0528183,0.1388798-0.1737976
	c-0.032732-0.0909348-0.0588808-0.2025681-0.1642532-0.2335224c-0.0979156-0.0287704-0.1602125,0.0467873-0.2021532,0.1262455
	C9.5168629,21.8737679,9.3899488,21.9696121,9.3858738,22.1357555z"/>
</svg>
