<?xml version="1.0" encoding="utf-8"?>
<!-- Generator: Adobe Illustrator 17.1.0, SVG Export Plug-In . SVG Version: 6.00 Build 0)  -->
<!DOCTYPE svg PUBLIC "-//W3C//DTD SVG 1.1//EN" "http://www.w3.org/Graphics/SVG/1.1/DTD/svg11.dtd">
<svg version="1.1" id="Layer_1" xmlns="http://www.w3.org/2000/svg" xmlns:xlink="http://www.w3.org/1999/xlink" x="0px" y="0px"
	 viewBox="0 0 50 50" enable-background="new 0 0 50 50" xml:space="preserve">
<g id="base">
	<g>
		
			<linearGradient id="SVGID_1_" gradientUnits="userSpaceOnUse" x1="-22.7237625" y1="6.0480018" x2="-22.7237625" y2="3.8048859" gradientTransform="matrix(8 0 -6.0949283 8 237.7319641 0)">
			<stop  offset="0" style="stop-color:#000000;stop-opacity:0.4"/>
			<stop  offset="1" style="stop-color:#000000;stop-opacity:0"/>
		</linearGradient>
		<path fill="url(#SVGID_1_)" d="M9.2211933,41.0931664c-1.0316706-1.155899-1.0465794-2.3570251-0.0451984-3.6714058
			c2.9830685-3.9154778,13.3386345-6.9826736,23.5756073-6.9826736c10.2364845,0,15.9184647,3.0671959,12.9353981,6.9826736
			c-1.0015221,1.3145676-2.8461342,2.5156937-5.6389427,3.6714058l-20.9680824,7.2908478L9.2211933,41.0931664z"/>
		
			<linearGradient id="SVGID_2_" gradientUnits="userSpaceOnUse" x1="2.408241" y1="6.0480018" x2="2.408241" y2="0.1263047" gradientTransform="matrix(8 0 0 8 0 0)">
			<stop  offset="0" style="stop-color:#007BB8"/>
			<stop  offset="1" style="stop-color:#0094DE"/>
		</linearGradient>
		<path fill="url(#SVGID_2_)" d="M3.8527436,29.1365871c-1.9123098-3.051506-2.8423159-6.2224064-2.8423159-9.6922932
			c0-10.3366346,8.018774-18.433857,18.2557507-18.433857c10.2364788,0,18.2552528,8.0972204,18.2552528,18.433857
			c0,3.4703808-0.929512,6.6412811-2.8418236,9.6922932l-15.4134293,19.247427L3.8527436,29.1365871z"/>
		<path fill="#FFFFFF" d="M19.2659435,2.0208666c9.6701679,0,17.245142,7.6533575,17.245142,17.4236126
			c0,3.2562714-0.8693466,6.2360802-2.656971,9.1055412l-14.588171,18.2170124L4.6778779,28.550066
			c-1.7876539-2.8695812-2.6570275-5.8494282-2.6570275-9.105587C2.0208504,9.6742239,9.5957994,2.0208666,19.2659435,2.0208666
			 M19.2659435,0.0000152C8.532135,0.0000152,0,8.6111231,0,19.444479c0,3.888895,1.1009822,7.2222118,3.0275838,10.27775
			l16.2383595,20.2777863L35.5043869,29.722229c1.9266396-3.0555382,3.0275459-6.388855,3.0275459-10.27775
			C38.5319328,8.6111231,29.9998417,0.0000152,19.2659435,0.0000152L19.2659435,0.0000152z"/>
	</g>
</g>
<g opacity="0.6">
	<g>
		<path d="M32.9841576,12.7608118h-1.6765251c-0.3380318-0.1081848-0.975359-0.214797-1.3621769-0.3143463
			c-0.4365635-0.0174551-0.8732491-0.0349407-1.3098125-0.0523968c-0.937149-0.2274714-2.1189156-0.1976185-3.038702-0.419138
			c-0.7278404-0.1752605-1.4919186-0.102849-2.1480579-0.2619505h-0.6287231
			c-0.8127441-0.2010422-1.8440437-0.2175722-2.6719608-0.4191389h-0.5763264
			c-0.1759701-0.0462894-0.6592846-0.1913271-0.8906422-0.1571569c-0.9420204,0.1390238-2.5052109,0.4856901-3.300683,0.8382463
			c-0.0919008,0.0407391-1.3899641,0.2169857-1.5193663,0.2095842c-0.3658781,0.1941652-0.7944231,0.1839266-1.2574158,0.3143463
			c-0.9946947,0.2802067-2.0833883,0.3884535-3.1434937,0.6810894c-0.7423363,0.2048969-1.6084299,0.5512552-2.4100389,0.6286926
			c0.008049,0.7269773-0.1021099,0.7167692-0.3143463,1.1526232c0.3026581,0.2654352,0.1030035,0.4102879,0.3143463,0.785881
			c0.229692,0.4081297,0.6051002,0.8069754,0.8382769,1.20502c0.2595758,0.4430389,0.4248438,0.9113674,0.7334852,1.3097801
			c0.1742735,0.2249432,0.5354652,0.3149967,0.785881,0.4715366c0.3864489,0.2415638,0.6751366,0.529604,0.9954357,0.7334862
			c-0.0109482,0.3657856-0.1788073,0.8986588-0.0523968,1.1002254v0.0523968H10.193758
			c0.0493116,0.435421,0.0138149,2.6309719-0.1571894,2.8815441v0.3667412
			c0.0523968,0.0174561,0.1047926,0.0349102,0.1571894,0.0523968c0.0349092-0.1047935,0.0698509-0.2095852,0.1047916-0.3143768
			h0.3667421c0.0415411,0.1572819,0.0809841,0.1842041,0.1047611,0.3667431
			c-0.4004183,0.0102062-0.9491444,0.1472874-1.2573843-0.0523663c-0.1289396,0.135107-0.1482143,0.371769-0.261982,0.5238991
			v0.1047935c0.1571894-0.0523968,0.3143778-0.1047935,0.4715357-0.1571884l0.0523968,0.0523949v0.0523968
			c-0.1622772,0.024334-0.1257944,0.0327511-0.2619505,0c-0.0287418,0.0797825-0.0370073,0.0875549-0.0523968,0.2095547
			c-0.1394243-0.0526752-0.0888481-0.0698204-0.2619495-0.1047611v0.2095547
			c-0.3601437,0.0557556-0.3433361,0.158144-0.6811199,0.2095833c0.0563745,0.03969,0.0484486,0.0328751,0.1571894,0.0523643
			v0.0523968c-0.5719481,0.0631275-2.0143089,0.5147724-2.3052483,0.7334862
			c-0.2280574,0.0776844-0.1973414,0.2849865-0.26195,0.3667412c0.0720415,0.1734715,0.0783939,0.1533051,0.3143468,0.1571884
			v0.0523968c-0.2100782,0.088047-0.5675383-0.0285263-0.7858815,0.104763H5.5308971
			c0.0672297,0.0461044,0.1292791,0.0485401,0.26195,0.0523949c-0.0615249,0.0423126-0.0876145,0.0421581-0.2095847,0.0523968
			c0.0338001,0.0904217,0.0102701,0.0512848,0.0523963,0.1047916c0.1031275,0.069912,0.3419166,0.0592728,0.523931,0.0523949
			c0.0174551,0.0174561,0.0349412,0.0349121,0.0523963,0.0523968v0.2095547
			c0.2660828,0.0395679,0.3168135,0.1405678,0.5239005,0.2095528c-0.0420036,0.2412891-0.2827978,0.6244392-0.1047616,0.8906746
			v0.1047935h0.1047616c0.0509157-0.2164936,0.269444-0.4695606,0.0523958-0.7858829
			c0.0290504-0.2534065,0.1579289-0.3128643,0.3667426-0.3667412c0.0329676-0.0155125,1.0209699,0.0137844,1.1002278,0
			c0.0822783,0.2649422-0.0123367,0.753561,0.2095842,0.8906422c-0.0489731,0.1390553-0.0521183,0.1364021-0.1571884,0.2095852
			c0.0133228,0.1827545,0.0183496,0.220562,0.1047916,0.3143444c0.0511637,0.030901,0.0995197,0.0044117,0.2619514,0
			c-0.056344,0.0397224-0.048418,0.0329075-0.1571894,0.0523968c0.0174856,0.0174561,0.0349417,0.0349121,0.0523968,0.0523968
			c0.0673523,0.0403996,0.1433105-0.0287113,0.3143463-0.0523968c-0.0916862-0.133873-0.1816139-0.3142529-0.2619505-0.4715347
			c-0.0174561-0.0174541-0.0349102-0.0349407-0.0523958-0.0523949c0.1860847-0.3138218,0.2703381-0.61833,0.2095842-1.0478325
			c1.8358088-0.3715534,4.0993004-0.8752213,5.815484-1.1002254c0.0349092,0.0349388,0.0698509,0.069849,0.1047926,0.1047916
			c-0.0539083,0.0422802-0.0128918,0.0193367-0.1047926,0.0523968c0.0587788,0.1056232,0.1171894,0.2377396,0.2095537,0.3143444
			c0.0780544,0.0336151,0.0226974,0.0651016,0.1047926,0c0.2684565,0.0181026,0.2986183,0.0438557,0.3143463,0.3143463
			c0.2703686,0.0720406,0.2794046,0.0924568,0.5239305,0c0.0287418,0.0797825,0.0369759,0.087553,0.0523958,0.2095547
			c0.9496708,0.0510712,1.8437672,0.1629257,2.514801-0.2619495c0.1591625-0.1007843,0.1813679-0.3045712,0.3143482-0.4191399
			c0.1172504-0.1010303,0.3349457-0.1338749,0.419138-0.2619495c0.0732117-0.1114235-0.023716-0.3200817,0-0.3667431
			c0.0695724-0.1371098,0.2022133-0.1065788,0.2619495-0.3143444c0.4502239-0.0651016,0.9317837,0.2222595,1.3621769,0.3143444
			c0.1874104,0.0400925,0.4809093-0.1053143,0.6286926-0.1047916c0.0824337,0.000309,0.4836864,0.0383015,0.6287231-0.0523949
			c0.2541161-0.0035782,0.5571156-0.008297,0.7334862,0.0523949c-0.0133228,0.1827545-0.0183487,0.2205639-0.1047935,0.3143463
			c0.0085754,0.3003139,0.0507927,0.2841835,0.2619514,0.3667412c-0.0055218,0.1327343-0.0064163,0.1941357-0.0523968,0.261982
			c0.0156651,0.4635162,0.2019997,0.2972317,0.419138,0.419138c0.0545559,0.0845318,0.0520573,0.333807,0.1047935,0.4191074
			c0.4348049,0.5619564,2.3085155,1.0237465,3.4054737,0.6810894c0.3772907-0.1178379,0.6863613-0.4012203,1.0478325-0.5762959
			c0.0888176-0.2384186,0.245388-0.3853989,0.3143463-0.5762978v-0.3143444
			c0.0747242-0.1527176,0.3600807-0.1828785,0.419138-0.3667412c0.0875225-0.2725925-0.1891384-0.3281956-0.1047916-0.5763302
			c0.0523949-0.0349102,0.1047916-0.069849,0.1571865-0.1047897c0.1733818-0.4436264-0.2566757-0.6547222,0.2095547-0.8382473
			c-0.0300369-0.4219151-0.1314678-0.2564907-0.2095547-0.4715347c-0.0735817-0.2025852,0.0930748-0.3390179,0.104763-0.4191399
			c0.0503922-0.3451862-0.3924637-0.4294701-0.0523663-0.785881c-0.0567741-0.25313-0.1617222-0.182045-0.3143749-0.3143463
			c-0.1184559-0.1669025,0.0124264-0.3261261-0.104763-0.523901v-0.1047916h-0.261982
			c0.0230694-0.1693401,0.0765762-0.2432308,0-0.3667412c-0.103157-0.2173882-0.2468376-0.1951218-0.4715023-0.1571903
			c0.3977966-0.4522591,0.5909748-1.0647316,0.9430389-1.5717297c0.3143158-0.3143482,0.6287231-0.6287537,0.9430389-0.9430714
			c0.134058-0.1774807,0.2927895-0.5090332,0.4715347-0.6286926c0.1444511-0.0967121,0.2549801-0.0588703,0.3143463-0.1047916
			h1.2574158c0.0277538,0.1879368,0.0064144,0.2598839,0,0.5239315c0.2397442,0.1255779,0.8313694,0.4590454,1.0478306,0.6286926
			h0.3667412c0.2148933-0.1417999,0.2186852-0.6707573,0.366745-0.8906746
			c0.0958786-0.142416,0.3355026-0.4086819,0.4715309-0.5238991c0.0185394-0.6114216-0.1277351-0.7221985-0.2095795-1.2574158
			c-0.19133-0.0775928-0.5740166-0.2259598-0.7334862-0.3667431c-0.0737381-0.0463524,0.0958786-0.1365566,0.1571884-0.2095547
			c-0.0349426-0.0174541-0.0698509-0.0349407-0.1047935-0.0523949c-0.06464-0.0948009-0.3134804-0.0921803-0.5238991-0.1047926
			v-0.0523968c0.378521-0.1006908,0.4701805-0.4102879,0.7858505-0.5762959
			c-0.0016365-0.2630301-0.0125237-0.3472834-0.2095566-0.4191389c0.017025-0.1208286,0.024334-0.1301422,0.0523987-0.2095537
			c0.0349121-0.0174551,0.0698509-0.0349417,0.1047897-0.0523968v0.0523968
			c0.1771126-0.1040831,0.6812134-1.063776,1.0478325-1.3098125V12.970397
			C33.6478195,12.9005451,33.3159599,12.8306627,32.9841576,12.7608118z M10.6652918,23.5535336h-0.3667421
			c0.0698204-0.873127,0.1397018-1.7465,0.2095537-2.6195946c0.1731634,0.0044403,0.3875599,0.0121822,0.4191389,0h0.1047926
			c-0.0745392,0.3109245-0.0623569,0.8908901-0.0523968,1.309782c0.0018196,0.0764198,0.0891876,0.2171078,0.0523968,0.3667412
			C10.9494772,22.9459343,10.7188301,23.1914768,10.6652918,23.5535336z M11.0320349,23.3963432V23.44874h-0.0523968
			c0.0174551-0.1047916,0.0349102-0.2095852,0.0523968-0.3143463
			C11.0919247,23.2259865,11.0940523,23.3044109,11.0320349,23.3963432z M10.0365686,24.6013641
			c-0.0652256-0.0350647-0.1083393-0.0569611-0.1571569-0.1047935h0.1571569V24.6013641z M10.9272423,24.758522
			c-0.3928328,0.0140305-0.444519-0.0768833-0.3667431-0.3667431h0.2095537
			c0.0174866,0.0174561,0.0349417,0.0349407,0.0523968,0.0523949c0.0265217,0.1114254,0.046876,0.1894798,0.1047926,0.2619514
			V24.758522z M11.1891918,24.0250359c-0.0337992,0.0904217-0.0102692,0.0512867-0.0523958,0.1047935
			c-0.0367298-0.1412449-0.0723181-0.2267017-0.1571579-0.3143482c0.0479555-0.1130257,0.0454273-0.0762024,0.1047611-0.1571884
			c0.0523968,0.0174561,0.1047926,0.0349426,0.1571894,0.0523968C11.2403545,23.8535385,11.239522,23.9507751,11.1891918,24.0250359
			z M11.2939844,21.0910969c-0.0503597-0.0734596-0.0527658-0.1718674-0.0523958-0.3143463
			c-0.1550303,0.0981598-0.0464439,0.1226177-0.1047926,0.2095852v0.0523643
			c-0.03969-0.0563431-0.0329056-0.048418-0.0523968-0.1571579c-0.142848-0.0012341-0.2400846-0.0020657-0.3143463-0.0523968
			c-0.1390238-0.0618935-0.1090784-0.102108-0.2619495-0.1571884c0.016099-0.1611652,0.023778-0.555048,0.1047926-0.6810875
			v-0.3667431c0.2759514,0.0842533,0.4150677,0.2938995,0.6810884,0.4191399
			c0.0485106,0.1873779,0.213748,0.4743404,0.1571579,0.5763264c-0.0182877,0.2125759-0.0461349,0.2605934-0.1571579,0.3667431
			V21.0910969z M11.398777,21.0387001c0.0647316,0.0951385,0.0585022,0.2996979,0.0523653,0.4715347
			C11.3864107,21.4150963,11.3926401,21.2105389,11.398777,21.0387001z M12.5513706,24.2870178
			c-0.2574787,0.0323181-0.8611917-0.0139408-0.9954357-0.1047916h-0.1047926
			c0.0698509-0.9254932,0.1397343-1.8512611,0.2095852-2.776783c0.3227034,0.4586735,0.3842278,1.3696709,0.5762968,1.9909
			c0.0333366,0.1077843,0.1760616,0.2227554,0.2095842,0.3143463c0.0750933,0.2053299-0.0041018,0.286684,0.1047621,0.4191399
			V24.2870178z"/>
	</g>
</g>
<g>
	<g>
		<path fill="#FFFFFF" d="M32.4788818,12.255538h-1.6765213c-0.3380318-0.1081839-0.9753609-0.2147961-1.3621788-0.3143463
			c-0.4365635-0.0174551-0.8732491-0.0349398-1.3098125-0.0523949c-0.937149-0.2274723-2.1189156-0.1976204-3.038702-0.4191389
			c-0.7278404-0.1752615-1.4919167-0.10285-2.1480579-0.2619505h-0.6287231
			c-0.8127422-0.2010422-1.8440437-0.2175722-2.6719589-0.4191389h-0.5763283
			c-0.1759701-0.0462894-0.6592846-0.1913271-0.8906403-0.1571579c-0.9420223,0.1390238-2.5052118,0.4856901-3.300684,0.8382473
			c-0.0919018,0.0407391-1.3899632,0.2169857-1.5193663,0.2095842c-0.3658791,0.1941652-0.7944241,0.1839266-1.2574158,0.3143463
			c-0.9946947,0.2802067-2.0833883,0.3884535-3.1434937,0.6810884c-0.7423353,0.2048979-1.6084304,0.5512552-2.4100394,0.6286936
			c0.008049,0.7269764-0.1021094,0.7167692-0.3143463,1.1526232c0.3026581,0.2654352,0.1030035,0.4102879,0.3143463,0.7858801
			c0.229692,0.4081297,0.6051002,0.8069773,0.8382769,1.2050219c0.2595758,0.443037,0.4248443,0.9113655,0.7334857,1.309782
			c0.1742725,0.2249413,0.5354652,0.3149929,0.785881,0.4715328c0.3864489,0.2415657,0.6751366,0.5296059,0.9954348,0.7334862
			c-0.0109472,0.3657856-0.1788073,0.8986588-0.0523958,1.1002274v0.0523968H9.6884842
			c0.0493116,0.435421,0.0138159,2.6309719-0.1571884,2.8815422v0.3667412
			c0.0523958,0.0174561,0.1047926,0.0349102,0.1571884,0.0523968c0.0349102-0.1047916,0.0698519-0.2095852,0.1047916-0.3143749
			h0.3667431c0.0415411,0.15728,0.0809841,0.1842022,0.1047621,0.3667412
			c-0.4004202,0.0102062-0.9491463,0.1472893-1.2573853-0.0523663c-0.1289406,0.1351089-0.1482143,0.371769-0.261981,0.523901
			v0.1047916c0.1571884-0.0523968,0.3143768-0.1047916,0.4715347-0.1571884l0.0523958,0.0523968v0.0523949
			c-0.1622772,0.024334-0.1257935,0.0327511-0.2619495,0c-0.0287428,0.0797844-0.0370083,0.0875549-0.0523968,0.2095547
			c-0.1394253-0.0526733-0.0888481-0.0698204-0.2619505-0.1047611v0.2095547
			c-0.3601427,0.0557575-0.3433352,0.158144-0.681119,0.2095833c0.0563745,0.0396919,0.0484486,0.0328751,0.1571884,0.0523663
			v0.0523968c-0.5719481,0.0631275-2.014308,0.5147724-2.3052473,0.7334843
			c-0.2280579,0.0776844-0.1973414,0.2849865-0.26195,0.3667412c0.072041,0.1734734,0.0783935,0.1533051,0.3143463,0.1571903
			v0.0523949c-0.2100782,0.088047-0.5675383-0.0285263-0.7858815,0.104763H5.0256238
			c0.0672302,0.0461044,0.1292791,0.0485401,0.26195,0.0523968c-0.0615239,0.0423107-0.0876145,0.0421562-0.2095847,0.0523949
			c0.0338006,0.0904217,0.0102701,0.0512848,0.0523963,0.1047916c0.1031275,0.0699139,0.341917,0.0592728,0.5239315,0.0523968
			c0.0174546,0.0174561,0.0349407,0.0349121,0.0523963,0.0523949v0.2095547
			c0.2660823,0.0395679,0.316813,0.1405678,0.5239,0.2095566c-0.0420036,0.2412872-0.2827978,0.6244354-0.1047616,0.8906708
			v0.1047935h0.1047616c0.0509157-0.2164936,0.269444-0.4695606,0.0523963-0.785881
			c0.0290508-0.2534084,0.1579285-0.3128662,0.3667421-0.3667431c0.0329676-0.0155125,1.0209703,0.0137844,1.1002274,0
			c0.0822797,0.2649422-0.0123353,0.7535629,0.2095852,0.8906422c-0.0489731,0.1390553-0.0521193,0.136404-0.1571884,0.2095852
			c0.0133224,0.1827545,0.0183492,0.2205639,0.1047921,0.3143463c0.0511627,0.030901,0.0995183,0.0044098,0.26195,0
			c-0.056344,0.0397205-0.048418,0.0329075-0.1571884,0.0523949c0.0174856,0.0174561,0.0349407,0.0349121,0.0523958,0.0523968
			c0.0673532,0.0404015,0.1433115-0.0287113,0.3143463-0.0523968c-0.0916853-0.1338711-0.181613-0.3142529-0.2619495-0.4715328
			c-0.0174551-0.0174541-0.0349112-0.0349407-0.0523968-0.0523968c0.1860847-0.3138218,0.270339-0.61833,0.2095842-1.0478306
			c1.8358097-0.3715534,4.0993013-0.8752232,5.815484-1.1002274c0.0349102,0.0349407,0.0698519,0.0698509,0.1047926,0.1047916
			c-0.0539074,0.0422821-0.0128908,0.0193367-0.1047926,0.0523968c0.0587807,0.1056252,0.1171904,0.2377396,0.2095537,0.3143463
			c0.0780554,0.0336151,0.0226974,0.0651016,0.1047926,0c0.2684574,0.0181026,0.2986183,0.0438538,0.3143463,0.3143463
			c0.2703695,0.0720406,0.2794056,0.0924549,0.5239305,0c0.0287428,0.0797806,0.0369768,0.087553,0.0523968,0.2095528
			c0.9496698,0.0510712,1.8437662,0.1629257,2.5148001-0.2619495c0.1591625-0.1007824,0.1813679-0.3045712,0.3143482-0.4191399
			c0.1172523-0.1010284,0.3349457-0.133873,0.419138-0.2619476c0.0732117-0.1114235-0.023716-0.3200836,0-0.366745
			c0.0695744-0.1371098,0.2022133-0.1065788,0.2619514-0.3143444c0.4502239-0.0651016,0.9317818,0.2222595,1.362175,0.3143444
			c0.1874123,0.0400925,0.4809093-0.1053143,0.6286926-0.1047916c0.0824337,0.000309,0.4836864,0.0383015,0.6287231-0.0523949
			c0.2541199-0.0035782,0.5571156-0.0082951,0.7334862,0.0523949c-0.0133228,0.1827564-0.0183487,0.2205639-0.1047935,0.3143463
			c0.0085754,0.3003159,0.0507927,0.2841854,0.2619514,0.3667431c-0.0055199,0.1327324-0.0064144,0.1941357-0.0523949,0.2619801
			c0.015667,0.4635181,0.2019978,0.2972317,0.419138,0.419138c0.054554,0.0845318,0.0520554,0.333807,0.1047916,0.4191113
			c0.4348049,0.5619545,2.3085155,1.0237427,3.4054737,0.6810856c0.3772907-0.117836,0.6863632-0.4012203,1.0478325-0.5762959
			c0.0888176-0.2384186,0.2453899-0.3853989,0.3143463-0.5762959v-0.3143463
			c0.0747242-0.1527157,0.3600826-0.1828766,0.419138-0.3667412c0.0875225-0.2725906-0.1891365-0.3281956-0.1047916-0.5763283
			c0.0523949-0.0349102,0.1047916-0.0698509,0.1571884-0.1047916c0.1733799-0.4436245-0.2566757-0.6547203,0.2095547-0.8382473
			c-0.0300369-0.4219151-0.1314697-0.2564907-0.2095547-0.4715347c-0.0735836-0.2025833,0.0930729-0.3390179,0.1047611-0.4191399
			c0.0503922-0.3451862-0.3924637-0.4294682-0.0523663-0.7858791c-0.0567741-0.2531319-0.1617222-0.1820469-0.3143749-0.3143482
			c-0.1184559-0.1669006,0.0124264-0.3261261-0.104763-0.5238991v-0.1047935h-0.2619801
			c0.0230675-0.1693382,0.0765743-0.2432308,0-0.3667412c-0.103159-0.2173882-0.2468395-0.1951218-0.4715042-0.1571884
			c0.3977966-0.4522591,0.5909748-1.0647316,0.9430389-1.5717316c0.3143158-0.3143482,0.6287231-0.6287537,0.9430389-0.9430714
			c0.1340599-0.1774807,0.2927895-0.5090332,0.4715347-0.6286926c0.144453-0.0967121,0.2549801-0.0588703,0.3143463-0.1047897
			h1.2574158c0.0277557,0.1879349,0.0064144,0.2598839,0,0.5239296c0.2397461,0.1255798,0.8313694,0.4590454,1.0478325,0.6286926
			h0.3667412c0.2148895-0.1417999,0.2186813-0.6707573,0.366745-0.8906727
			c0.0958786-0.1424179,0.3354988-0.4086838,0.4715309-0.523901c0.0185356-0.6114216-0.1277351-0.7221966-0.2095833-1.2574158
			c-0.19133-0.0775928-0.5740128-0.2259607-0.7334862-0.3667431c-0.0737343-0.0463514,0.0958786-0.1365566,0.1571922-0.2095537
			c-0.0349426-0.0174551-0.0698547-0.0349407-0.1047935-0.0523958c-0.06464-0.0948009-0.3134823-0.0921793-0.523901-0.1047926
			v-0.0523958c0.3785229-0.1006918,0.4701786-0.4102879,0.7858486-0.5762968
			c-0.0016327-0.2630291-0.0125198-0.3472834-0.2095528-0.4191389c0.017025-0.1208286,0.0243301-0.1301422,0.0523987-0.2095537
			c0.0349083-0.0174551,0.0698471-0.0349407,0.1047897-0.0523958v0.0523958
			c0.1771126-0.1040831,0.6812134-1.0637751,1.0478325-1.3098125v-0.4191074
			C33.1425476,12.3952723,32.8106842,12.3253899,32.4788818,12.255538z M10.1600189,23.0482597H9.7932758
			c0.0698214-0.873127,0.1397028-1.7465,0.2095547-2.6195946c0.1731634,0.0044422,0.3875589,0.0121822,0.419138,0h0.1047926
			c-0.0745382,0.3109245-0.0623569,0.8908901-0.0523958,1.309782c0.0018196,0.0764198,0.0891876,0.2171097,0.0523958,0.3667412
			C10.4442043,22.4406605,10.2135563,22.686203,10.1600189,23.0482597z M10.5267611,22.8910713v0.0523949h-0.0523958
			c0.0174551-0.1047916,0.0349102-0.2095852,0.0523958-0.3143463
			C10.5866518,22.7207127,10.5887794,22.7991371,10.5267611,22.8910713z M9.5312958,24.0960903
			c-0.0652256-0.0350647-0.1083393-0.0569611-0.1571579-0.1047935h0.1571579V24.0960903z M10.4219685,24.2532482
			c-0.3928318,0.0140305-0.444519-0.0768833-0.3667421-0.3667431h0.2095547
			c0.0174856,0.0174561,0.0349398,0.0349426,0.0523949,0.0523968c0.0265226,0.1114235,0.0468769,0.1894779,0.1047926,0.2619495
			V24.2532482z M10.683919,23.5197639c-0.0338001,0.0904198-0.0102692,0.0512848-0.0523968,0.1047916
			c-0.0367289-0.1412449-0.0723181-0.2267017-0.1571569-0.3143463c0.0479555-0.1130257,0.0454264-0.0762043,0.1047611-0.1571884
			c0.0523958,0.0174541,0.1047926,0.0349407,0.1571884,0.0523949C10.7350817,23.3482647,10.7342491,23.4455013,10.683919,23.5197639
			z M10.7887115,20.5858231c-0.0503607-0.0734596-0.0527668-0.1718674-0.0523968-0.3143463
			c-0.1550293,0.0981636-0.0464439,0.1226177-0.1047926,0.2095852v0.0523663
			c-0.03969-0.056345-0.0329056-0.048418-0.0523958-0.1571598c-0.1428471-0.0012341-0.2400846-0.0020657-0.3143454-0.0523949
			c-0.1390247-0.0618954-0.1090803-0.1021099-0.2619505-0.1571903c0.016098-0.1611652,0.023777-0.5550461,0.1047916-0.6810875
			v-0.3667431c0.2759514,0.0842533,0.4150686,0.2939014,0.6810894,0.4191399
			c0.0485106,0.1873798,0.213748,0.4743404,0.1571569,0.5763283c-0.0182867,0.212574-0.0461349,0.2605915-0.1571569,0.3667412
			V20.5858231z M10.8935041,20.5334282c0.0647316,0.0951385,0.0585022,0.299696,0.0523643,0.4715328
			C10.8811369,20.9098225,10.8873672,20.705265,10.8935041,20.5334282z M12.0460968,23.781744
			c-0.2574787,0.0323181-0.8611908-0.0139408-0.9954357-0.1047916h-0.1047926
			c0.0698519-0.9254932,0.1397343-1.8512592,0.2095861-2.776783c0.3227034,0.4586735,0.3842278,1.3696709,0.5762959,1.9909019
			c0.0333376,0.1077824,0.1760616,0.2227535,0.2095842,0.3143444c0.0750942,0.2053299-0.0041008,0.286684,0.1047621,0.4191399
			V23.781744z"/>
	</g>
</g>
</svg>
