<?xml version="1.0" encoding="utf-8"?>
<!-- Generator: Adobe Illustrator 17.1.0, SVG Export Plug-In . SVG Version: 6.00 Build 0)  -->
<!DOCTYPE svg PUBLIC "-//W3C//DTD SVG 1.1//EN" "http://www.w3.org/Graphics/SVG/1.1/DTD/svg11.dtd">
<svg version="1.1" id="Layer_1" xmlns="http://www.w3.org/2000/svg" xmlns:xlink="http://www.w3.org/1999/xlink" x="0px" y="0px"
	 viewBox="0 0 50 50" enable-background="new 0 0 50 50" xml:space="preserve">
<g id="base">
	<g>
		
			<linearGradient id="SVGID_1_" gradientUnits="userSpaceOnUse" x1="-15.8786392" y1="88.031662" x2="-15.8786392" y2="92.4705429" gradientTransform="matrix(4 0 3.0474641 -4 -185.8804321 400)">
			<stop  offset="0" style="stop-color:#000000;stop-opacity:0.4"/>
			<stop  offset="1" style="stop-color:#000000;stop-opacity:0"/>
		</linearGradient>
		<path fill="url(#SVGID_1_)" d="M9.1238689,40.6594429c-1.0207815-1.1436996-1.035533-2.3321457-0.0447216-3.6326561
			c2.9515839-3.8741493,13.1978531-6.9089737,23.3267822-6.9089737c10.1284409,0,15.7504539,3.0348244,12.7988701,6.9089737
			c-0.9909515,1.3006935-2.8160934,2.4891434-5.5794258,3.6326561l-20.7467766,7.2138977L9.1238689,40.6594429z"/>
		
			<linearGradient id="SVGID_2_" gradientUnits="userSpaceOnUse" x1="4.7656469" y1="88.031662" x2="4.7656469" y2="99.750061" gradientTransform="matrix(4 0 0 -4 0 400)">
			<stop  offset="0" style="stop-color:#007BB8"/>
			<stop  offset="1" style="stop-color:#0094DE"/>
		</linearGradient>
		<path fill="url(#SVGID_2_)" d="M3.8120801,28.8290596c-1.8921264-3.0192986-2.8123169-6.1567326-2.8123169-9.5899963
			c0-10.2275372,7.9341407-18.2392979,18.0630703-18.2392979c10.1284389,0,18.0625782,8.0117588,18.0625782,18.2392979
			c0,3.4337521-0.9197006,6.5711861-2.8118286,9.5899963l-15.2507496,19.044281L3.8120801,28.8290596z"/>
		<path fill="#FFFFFF" d="M19.062603,1.9995302c9.5681038,0,17.0631294,7.5725799,17.0631294,17.2397156
			c0,3.2219028-0.8601723,6.1702614-2.6289291,9.0094376L19.062603,46.2734261L4.6285057,28.2487297
			c-1.7687864-2.8392944-2.6289842-5.7876911-2.6289842-9.0094833C1.9995216,9.5721102,9.4945211,1.9995302,19.062603,1.9995302
			 M19.062603,0.0000076C8.4420834,0.0000076,0,8.5202303,0,19.2392464c0,3.8478489,1.0893619,7.1459846,2.9956293,10.1692734
			L19.062603,49.4722862l16.0670547-20.0637665c1.9063072-3.0232887,2.995594-6.3214245,2.995594-10.1692734
			C38.1252518,8.5202303,29.6832104,0.0000076,19.062603,0.0000076L19.062603,0.0000076z"/>
	</g>
</g>
<g opacity="0.6">
	<g>
		<path d="M32.6360283,12.6261215h-1.6588306c-0.3344631-0.1070433-0.9650631-0.2125301-1.3477993-0.3110285
			c-0.4319553-0.017271-0.8640327-0.0345726-1.2959881-0.0518436c-0.9272575-0.225071-2.0965519-0.1955328-3.0066299-0.4147148
			c-0.7201595-0.1734104-1.4761734-0.1017637-2.1253872-0.2591858h-0.6220875
			c-0.8041649-0.1989202-1.8245811-0.2152758-2.6437588-0.4147148H19.365303
			c-0.1741123-0.0458012-0.6523266-0.1893082-0.8812428-0.1554985c-0.9320774,0.137557-2.4787693,0.4805641-3.2658453,0.8293991
			c-0.0909309,0.040309-1.3752937,0.2146959-1.5033302,0.2073727c-0.3620167,0.1921158-0.7860384,0.1819849-1.2441444,0.3110285
			c-0.9841967,0.2772493-2.0613995,0.3843536-3.1103163,0.6739006c-0.7345009,0.202734-1.591454,0.5454369-2.3846025,0.622057
			c0.0079641,0.719305-0.1010318,0.7092047-0.3110285,1.1404581c0.2994637,0.2626333,0.1019163,0.4059572,0.3110285,0.7775869
			c0.2272677,0.403821,0.5987139,0.7984581,0.8294296,1.1923008c0.2568359,0.438364,0.4203596,0.9017487,0.7257433,1.2959576
			c0.1724348,0.2225685,0.5298138,0.3116703,0.7775869,0.4665585c0.38237,0.2390156,0.6680107,0.5240154,0.9849291,0.7257442
			c-0.0108328,0.3619251-0.1769199,0.8891754-0.0518436,1.0886135v0.0518436h-0.1554985
			c0.0487919,0.4308262,0.01367,2.6032047-0.15553,2.8511314v0.3628712c0.0518436,0.017271,0.1036863,0.0345421,0.15553,0.0518436
			c0.0345411-0.1036873,0.0691137-0.2073727,0.1036863-0.31106h0.3628712
			c0.0411024,0.1556225,0.0801296,0.1822605,0.1036558,0.3628731c-0.3961926,0.0100994-0.939127,0.1457329-1.2441139-0.0518131
			c-0.1275787,0.1336803-0.1466503,0.3678455-0.2592163,0.5183697v0.1036873
			c0.15553-0.0518436,0.311059-0.1036873,0.4665585-0.155529l0.0518436,0.0518417v0.0518436
			c-0.1605644,0.0240765-0.1244669,0.0324059-0.2591858,0c-0.0284386,0.0789394-0.0366163,0.0866299-0.0518436,0.2073421
			C9.2224712,24.39324,9.2725134,24.376276,9.1012392,24.3417034v0.2073421
			c-0.3563423,0.0551682-0.3397121,0.1564751-0.6739311,0.2073727c0.0557795,0.0392704,0.0479374,0.0325279,0.15553,0.0518112
			v0.0518436c-0.5659113,0.0624619-1.9930487,0.5093384-2.2809172,0.7257442
			c-0.2256503,0.0768642-0.1952586,0.2819786-0.2591853,0.3628712c0.071281,0.1716404,0.0775666,0.1516857,0.311029,0.155529
			v0.0518436c-0.2078609,0.0871181-0.5615482-0.0282249-0.7775869,0.1036568H5.4725218
			c0.0665202,0.0456181,0.1279144,0.0480289,0.2591853,0.0518417c-0.0608754,0.0418663-0.0866899,0.0417137-0.2073727,0.0518436
			c0.0334435,0.089468,0.0101614,0.050745,0.0518432,0.1036873c0.1020389,0.0691738,0.3383079,0.0586472,0.5184011,0.0518417
			c0.017271,0.017271,0.0345726,0.0345421,0.0518432,0.0518436v0.2073421
			c0.2632747,0.0391502,0.3134699,0.1390839,0.5183711,0.2073421c-0.0415602,0.2387409-0.2798128,0.6178474-0.1036558,0.8812733
			v0.1036873H6.664793c0.0503783-0.2142086,0.2666001-0.4646053,0.0518432-0.7775879
			c0.0287437-0.2507324,0.1562619-0.3095627,0.3628716-0.3628712c0.0326195-0.0153484,1.0101938,0.0136395,1.0886154,0
			c0.0814104,0.262146-0.0122061,0.7456074,0.2073727,0.8812428c-0.0484562,0.1375866-0.051569,0.1349621-0.15553,0.2073727
			c0.0131826,0.1808262,0.0181561,0.218235,0.1036863,0.3110275c0.0506229,0.0305748,0.0984688,0.004364,0.2591858,0
			c-0.0557489,0.0393028-0.0479069,0.0325584-0.15553,0.0518436c0.0173016,0.017271,0.0345726,0.0345421,0.0518436,0.0518436
			c0.0666418,0.0399723,0.141798-0.0284081,0.3110285-0.0518436c-0.0907183-0.1324615-0.179697-0.310936-0.2591858-0.4665585
			c-0.017271-0.017271-0.0345411-0.0345726-0.0518427-0.0518417c0.1841211-0.3105106,0.2674847-0.611805,0.2073727-1.0367737
			c1.816433-0.3676319,4.0560341-0.865984,5.7541046-1.0886135c0.0345411,0.0345707,0.0691137,0.0691128,0.1036863,0.1036854
			c-0.053339,0.0418339-0.0127554,0.0191326-0.1036863,0.0518436c0.0581589,0.1045094,0.1159525,0.2352314,0.2073421,0.3110275
			c0.0772305,0.0332603,0.0224581,0.064415,0.1036863,0c0.2656231,0.0179119,0.2954664,0.0433922,0.3110285,0.3110294
			c0.2675152,0.0712795,0.2764559,0.0914803,0.5184011,0c0.0284386,0.0789394,0.0365858,0.086628,0.0518427,0.2073421
			c0.9396467,0.0505314,1.8243074,0.1612053,2.4882593-0.2591858c0.1574821-0.09972,0.1794529-0.3013554,0.3110294-0.4147148
			c0.1160126-0.0999641,0.3314114-0.1324615,0.4147148-0.2591858c0.0724392-0.1102467-0.0234661-0.3167038,0-0.3628712
			c0.0688381-0.135664,0.200079-0.1054554,0.2591839-0.3110275c0.4454727-0.064415,0.9219494,0.2199135,1.3478012,0.3110275
			c0.1854324,0.039669,0.4758339-0.1042042,0.622057-0.1036854c0.0815639,0.0003052,0.4785805,0.0378971,0.6220875-0.0518436
			c0.2514343-0.00354,0.5512352-0.0082092,0.7257442,0.0518436c-0.0131817,0.1808243-0.0181561,0.218235-0.1036873,0.3110275
			c0.0084839,0.2971439,0.0502567,0.2811852,0.2591858,0.3628712c-0.0054626,0.1313324-0.0063477,0.1920853-0.0518436,0.2592163
			c0.015501,0.4586239,0.1998672,0.2940941,0.4147148,0.4147148c0.0539799,0.0836391,0.0515079,0.3302841,0.1036873,0.4146843
			c0.4302158,0.5560246,2.2841511,1.0129414,3.3695316,0.6739006c0.3733082-0.1165943,0.6791172-0.396986,1.0367718-0.5702133
			c0.0878811-0.2359028,0.2427998-0.3813324,0.3110294-0.5702152v-0.3110275
			c0.0739346-0.1511059,0.3562794-0.1809483,0.4147148-0.3628712c0.0865974-0.2697144-0.1871433-0.3247299-0.1036873-0.5702457
			c0.0518436-0.0345421,0.1036873-0.0691128,0.155529-0.1036854c0.1715508-0.4389439-0.2539673-0.6478119,0.2073421-0.8293991
			c-0.0297203-0.4174614-0.1300793-0.2537842-0.2073421-0.4665585c-0.0728054-0.2004471,0.0920925-0.3354397,0.1036568-0.4147148
			c0.04986-0.3415432-0.3883209-0.4249382-0.0518131-0.7775879c-0.0561752-0.2504578-0.1600151-0.1801224-0.311058-0.3110275
			c-0.1172047-0.1651421,0.0122967-0.3226852-0.1036568-0.5183716v-0.1036854H27.607666
			c0.0228252-0.1675529,0.0757675-0.2406635,0-0.3628712c-0.1020679-0.2150936-0.2442322-0.1930618-0.466526-0.1555309
			c0.3935986-0.4474869,0.5847378-1.0534935,0.9330845-1.5551414c0.3109989-0.3110294,0.6220875-0.622118,0.9330864-0.9331169
			c0.1326427-0.1756077,0.2896996-0.5036621,0.4665585-0.622057c0.1429272-0.0956917,0.2522888-0.0582504,0.3110275-0.1036873
			h1.2441444c0.027462,0.1859531,0.0063477,0.2571411,0,0.5184021c0.237215,0.1242523,0.8225956,0.4542007,1.0367737,0.622057
			h0.3628693c0.2126236-0.1403027,0.2163773-0.6636772,0.3628731-0.8812733
			c0.0948677-0.140913,0.3319626-0.4043694,0.4665565-0.5183697c0.0183411-0.604969-0.1263885-0.7145767-0.2073708-1.2441444
			c-0.1893082-0.0767746-0.567955-0.2235756-0.7257423-0.3628731c-0.0729599-0.0458622,0.0948677-0.1351147,0.155529-0.2073421
			c-0.0345726-0.0172701-0.0691147-0.0345716-0.1036873-0.0518427c-0.0639572-0.0937996-0.310173-0.0912066-0.5183716-0.1036863
			v-0.0518436c0.374527-0.0996275,0.4652176-0.4059572,0.7775574-0.5702133
			c-0.0016174-0.2602539-0.0123901-0.3436174-0.2073441-0.4147148c0.0168457-0.1195536,0.0240784-0.1287689,0.0518456-0.2073421
			c0.0345421-0.017271,0.0691147-0.0345726,0.1036835-0.0518436v0.0518436
			c0.1752434-0.1029844,0.6740227-1.0525484,1.0367737-1.2959881v-0.4146843
			C33.2926865,12.7643795,32.9643288,12.6952353,32.6360283,12.6261215z M10.5527258,23.3049316h-0.3628712
			c0.0690832-0.8639107,0.1382275-1.7280655,0.2073421-2.5919456c0.1713352,0.0043926,0.3834686,0.0120525,0.4147148,0h0.1036863
			c-0.0737524,0.307642-0.0616989,0.8814869-0.0518436,1.2959576c0.0018005,0.075613,0.0882463,0.214817,0.0518436,0.3628712
			C10.8339119,22.7037449,10.6056986,22.9466972,10.5527258,23.3049316z M10.9155979,23.1494007v0.0518436h-0.0518436
			c0.017271-0.1036854,0.0345421-0.2073727,0.0518436-0.3110275C10.9748554,22.9808426,10.9769611,23.0584393,10.9155979,23.1494007
			z M9.9306383,24.3417034c-0.064537-0.0346947-0.1071959-0.0563602-0.1554985-0.1036873h0.1554985V24.3417034z
			 M10.8119116,24.4972019c-0.3886871,0.0138836-0.4398279-0.0760708-0.3628721-0.3628712h0.2073421
			c0.0173016,0.017271,0.0345726,0.0345707,0.0518436,0.0518417c0.0262413,0.1102486,0.046381,0.187479,0.1036863,0.2591858
			V24.4972019z M11.0710964,23.7714577c-0.0334425,0.089468-0.0101604,0.050745-0.0518427,0.1036873
			c-0.0363426-0.1397533-0.0715551-0.224308-0.1554995-0.3110294c0.0474491-0.1118336,0.0449476-0.0753994,0.1036558-0.155529
			c0.0518436,0.017271,0.1036863,0.0345726,0.15553,0.0518436C11.1217194,23.6017704,11.1208954,23.6979809,11.0710964,23.7714577z
			 M11.1747828,20.8684845c-0.0498285-0.0726833-0.0522089-0.1700535-0.0518427-0.3110275
			c-0.1533937,0.0971241-0.0459538,0.1213226-0.1036863,0.2073727v0.0518112
			c-0.0392714-0.055748-0.0325584-0.0479069-0.0518436-0.1554985c-0.1413403-0.0012207-0.2375507-0.0020447-0.3110285-0.0518436
			c-0.137557-0.0612411-0.1079273-0.1010303-0.2591848-0.155529c0.0159283-0.1594658,0.0235262-0.5491905,0.1036863-0.6739006
			v-0.3628712c0.2730389,0.0833645,0.4106865,0.2907982,0.6738997,0.4147148
			c0.0479984,0.1854019,0.2114925,0.4693356,0.1554995,0.5702438c-0.018095,0.2103329-0.0456486,0.257843-0.1554995,0.3628731
			V20.8684845z M11.2784691,20.8166409c0.0640488,0.0941353,0.0578852,0.2965355,0.0518131,0.4665585
			C11.2662334,21.189064,11.272397,20.9866657,11.2784691,20.8166409z M12.4188976,24.030674
			c-0.2547607,0.0319786-0.8521023-0.013792-0.9849291-0.1036854h-0.1036863
			c0.0691137-0.9157238,0.1382589-1.8317223,0.2073727-2.7474747c0.3192978,0.4538326,0.3801727,1.3552151,0.5702143,1.9698868
			c0.0329847,0.1066475,0.1742039,0.2204037,0.2073727,0.3110294c0.0743008,0.2031612-0.0040588,0.2836571,0.1036558,0.4147148
			V24.030674z"/>
	</g>
</g>
<g>
	<g>
		<path fill="#FFFFFF" d="M32.1360855,12.1261806h-1.6588268c-0.3344631-0.1070423-0.965065-0.2125292-1.3478012-0.3110285
			c-0.4319553-0.017271-0.8640327-0.0345716-1.2959881-0.0518427c-0.9272575-0.225071-2.0965519-0.1955338-3.0066299-0.4147148
			c-0.7201595-0.1734114-1.4761715-0.1017647-2.1253872-0.2591858h-0.6220875
			c-0.804163-0.1989202-1.8245811-0.2152758-2.6437569-0.4147148h-0.5702457
			c-0.1741123-0.0458012-0.6523266-0.1893082-0.8812408-0.1554995c-0.9320793,0.137557-2.4787703,0.4805641-3.2658463,0.8294001
			c-0.0909319,0.040309-1.3752937,0.2146959-1.5033302,0.2073727c-0.3620176,0.1921158-0.7860394,0.1819849-1.2441444,0.3110285
			c-0.9841967,0.2772493-2.0613995,0.3843536-3.1103163,0.6738997c-0.7345009,0.2027349-1.5914545,0.5454369-2.384603,0.6220579
			c0.0079641,0.7193041-0.1010318,0.7092047-0.3110285,1.1404581c0.2994637,0.2626333,0.1019163,0.4059572,0.3110285,0.777586
			c0.2272677,0.4038219,0.5987139,0.7984591,0.8294296,1.1923027c0.2568359,0.4383621,0.4203601,0.9017467,0.7257438,1.2959576
			c0.1724339,0.2225685,0.5298138,0.3116684,0.7775869,0.4665565c0.38237,0.2390156,0.6680107,0.5240173,0.9849281,0.7257442
			c-0.0108318,0.3619251-0.1769199,0.8891754-0.0518427,1.0886154v0.0518436H9.5862274
			c0.0487919,0.4308262,0.01367,2.6032047-0.155529,2.8511295v0.3628712c0.0518427,0.017271,0.1036863,0.0345421,0.155529,0.0518436
			c0.0345421-0.1036854,0.0691147-0.2073727,0.1036863-0.311058h0.3628721
			c0.0411024,0.1556206,0.0801296,0.1822586,0.1036558,0.3628712c-0.3961935,0.0100994-0.9391279,0.1457348-1.2441139-0.0518131
			c-0.1275797,0.1336823-0.1466503,0.3678455-0.2592163,0.5183716v0.1036854
			c0.15553-0.0518436,0.311059-0.1036854,0.4665585-0.155529l0.0518427,0.0518436v0.0518417
			c-0.1605644,0.0240765-0.1244659,0.0324059-0.2591848,0c-0.0284395,0.0789413-0.0366173,0.0866299-0.0518436,0.2073421
			c-0.1379538-0.0521164-0.0879107-0.0690823-0.2591858-0.1036549v0.2073421
			c-0.3563414,0.0551701-0.3397112,0.1564751-0.6739302,0.2073727c0.0557795,0.0392723,0.0479374,0.0325279,0.155529,0.0518131
			v0.0518436c-0.5659113,0.0624619-1.9930477,0.5093384-2.2809162,0.7257423
			c-0.2256508,0.0768642-0.1952586,0.2819786-0.2591853,0.3628712c0.0712805,0.1716423,0.0775661,0.1516857,0.3110285,0.1555309
			v0.0518417c-0.2078609,0.0871181-0.5615482-0.0282249-0.7775869,0.1036568H4.9725814
			c0.0665207,0.0456181,0.1279144,0.0480289,0.2591853,0.0518436c-0.0608749,0.0418644-0.0866899,0.0417118-0.2073727,0.0518417
			c0.0334435,0.089468,0.0101614,0.050745,0.0518432,0.1036873c0.1020389,0.0691757,0.3383083,0.0586472,0.5184016,0.0518436
			c0.0172706,0.017271,0.0345721,0.0345421,0.0518432,0.0518417v0.2073421
			c0.2632742,0.0391502,0.3134694,0.1390839,0.5183706,0.2073441c-0.0415602,0.2387409-0.2798128,0.6178455-0.1036558,0.8812714
			V27.47048h0.1036558c0.0503783-0.2142086,0.2666001-0.4646053,0.0518432-0.777586
			c0.0287442-0.2507343,0.1562619-0.3095646,0.3628716-0.3628731c0.0326195-0.0153484,1.0101943,0.0136395,1.0886149,0
			c0.0814114,0.262146-0.0122051,0.7456093,0.2073731,0.8812428c-0.0484562,0.1375866-0.051569,0.134964-0.1555295,0.2073727
			c0.0131817,0.1808262,0.0181556,0.218235,0.1036863,0.3110294c0.0506225,0.0305748,0.0984683,0.0043621,0.2591848,0
			c-0.0557489,0.0393009-0.0479069,0.0325584-0.155529,0.0518417c0.0173011,0.017271,0.0345721,0.0345421,0.0518432,0.0518436
			c0.0666423,0.0399742,0.1417985-0.0284081,0.311028-0.0518436c-0.0907173-0.1324596-0.1796961-0.310936-0.2591848-0.4665565
			c-0.017271-0.017271-0.0345421-0.0345726-0.0518432-0.0518436c0.1841207-0.3105106,0.2674851-0.611805,0.2073722-1.0367718
			c1.8164339-0.3676319,4.056035-0.8659859,5.7541046-1.0886154c0.0345421,0.0345726,0.0691147,0.0691147,0.1036863,0.1036854
			c-0.0533381,0.0418358-0.0127544,0.0191326-0.1036863,0.0518436c0.0581598,0.1045113,0.1159534,0.2352314,0.2073421,0.3110294
			c0.0772314,0.0332603,0.0224581,0.064415,0.1036863,0c0.265624,0.0179119,0.2954664,0.0433903,0.3110285,0.3110275
			c0.2675161,0.0712814,0.2764568,0.0914803,0.5184011,0c0.0284395,0.0789394,0.0365868,0.0866299,0.0518436,0.2073421
			c0.9396458,0.0505314,1.8243065,0.1612053,2.4882584-0.2591858c0.1574821-0.0997181,0.1794529-0.3013554,0.3110294-0.4147148
			c0.1160145-0.0999622,0.3314114-0.1324596,0.4147148-0.2591839c0.0724392-0.1102467-0.0234661-0.3167057,0-0.3628731
			c0.06884-0.135664,0.200079-0.1054554,0.2591858-0.3110275c0.4454727-0.064415,0.9219475,0.2199135,1.3477993,0.3110275
			c0.1854343,0.039669,0.4758339-0.1042042,0.622057-0.1036854c0.0815639,0.0003052,0.4785805,0.0378971,0.6220875-0.0518436
			c0.2514362-0.00354,0.5512352-0.0082073,0.7257442,0.0518436c-0.0131817,0.1808262-0.0181561,0.218235-0.1036873,0.3110275
			c0.0084839,0.2971458,0.0502567,0.2811871,0.2591858,0.3628731c-0.0054607,0.1313305-0.0063457,0.1920853-0.0518417,0.2592144
			c0.015501,0.4586258,0.1998653,0.2940941,0.4147148,0.4147148c0.053978,0.0836391,0.051506,0.3302841,0.1036854,0.4146862
			c0.4302158,0.5560246,2.2841511,1.0129395,3.3695316,0.6738987c0.3733082-0.1165924,0.6791191-0.396986,1.0367718-0.5702133
			c0.0878811-0.2359028,0.2427998-0.3813324,0.3110294-0.5702133v-0.3110294
			c0.0739346-0.151104,0.3562813-0.1809464,0.4147148-0.3628712c0.0865974-0.2697124-0.1871414-0.3247299-0.1036873-0.5702438
			c0.0518436-0.0345421,0.1036873-0.0691147,0.1555309-0.1036873c0.1715488-0.438942-0.2539673-0.64781,0.2073421-0.8293991
			c-0.0297203-0.4174614-0.1300812-0.2537842-0.2073421-0.4665585c-0.0728073-0.2004452,0.0920906-0.3354397,0.1036549-0.4147148
			c0.04986-0.3415432-0.3883209-0.4249363-0.0518131-0.777586c-0.0561752-0.2504597-0.1600151-0.1801243-0.311058-0.3110294
			c-0.1172047-0.1651402,0.0122967-0.3226852-0.1036568-0.5183697v-0.1036873h-0.2592144
			c0.0228233-0.167551,0.0757656-0.2406635,0-0.3628712c-0.1020699-0.2150936-0.2442341-0.1930618-0.4665279-0.155529
			c0.3935986-0.4474869,0.5847378-1.0534935,0.9330845-1.5551434c0.3109989-0.3110294,0.6220875-0.622118,0.9330864-0.9331169
			c0.1326447-0.1756077,0.2896996-0.5036621,0.4665585-0.622057c0.1429272-0.0956917,0.2522888-0.0582504,0.3110275-0.1036854
			h1.2441444c0.0274639,0.1859512,0.0063477,0.2571411,0,0.5184002c0.2372169,0.1242542,0.8225956,0.4542007,1.0367737,0.622057
			h0.3628712c0.2126198-0.1403027,0.2163734-0.6636772,0.3628731-0.8812714
			c0.0948677-0.1409149,0.3319588-0.4043713,0.4665565-0.5183716c0.0183372-0.604969-0.1263885-0.7145748-0.2073746-1.2441444
			c-0.1893082-0.0767736-0.5679531-0.2235756-0.7257423-0.3628721c-0.072958-0.0458622,0.0948677-0.1351156,0.1555309-0.2073421
			c-0.0345726-0.017271-0.0691147-0.0345726-0.1036873-0.0518427c-0.0639572-0.0938005-0.310173-0.0912066-0.5183697-0.1036873
			v-0.0518427c0.374527-0.0996284,0.4652138-0.4059572,0.7775536-0.5702143
			c-0.0016136-0.260253-0.0123863-0.3436174-0.2073402-0.4147148c0.0168438-0.1195536,0.0240746-0.1287689,0.0518436-0.2073421
			c0.0345402-0.017271,0.0691128-0.0345716,0.1036854-0.0518427v0.0518427
			c0.1752434-0.1029844,0.6740227-1.0525475,1.0367737-1.2959881v-0.4146843
			C32.7927475,12.2644396,32.464386,12.1952953,32.1360855,12.1261806z M10.0527859,22.8049908H9.6899137
			c0.0690842-0.8639107,0.1382284-1.7280655,0.2073421-2.5919456c0.1713362,0.0043945,0.3834686,0.0120525,0.4147148,0h0.1036863
			c-0.0737514,0.307642-0.0616989,0.8814869-0.0518427,1.2959576c0.0018005,0.075613,0.0882463,0.214819,0.0518427,0.3628712
			C10.333972,22.203804,10.1057577,22.4467564,10.0527859,22.8049908z M10.415657,22.6494617v0.0518417h-0.0518427
			c0.017271-0.1036854,0.0345421-0.2073727,0.0518427-0.3110275C10.4749155,22.4809017,10.4770212,22.5584984,10.415657,22.6494617z
			 M9.4306984,23.8417625c-0.064537-0.0346947-0.1071959-0.0563602-0.1554995-0.1036873h0.1554995V23.8417625z
			 M10.3119707,23.997261c-0.3886862,0.0138836-0.4398279-0.0760708-0.3628712-0.3628712h0.2073421
			c0.0173016,0.017271,0.0345716,0.0345726,0.0518427,0.0518436c0.0262423,0.1102467,0.046382,0.1874771,0.1036863,0.2591839
			V23.997261z M10.5711565,23.2715187c-0.0334435,0.0894661-0.0101614,0.0507431-0.0518436,0.1036854
			c-0.0363417-0.1397533-0.0715551-0.224308-0.1554985-0.3110275c0.0474491-0.1118336,0.0449467-0.0754013,0.1036558-0.1555309
			c0.0518427,0.017271,0.1036863,0.0345726,0.155529,0.0518436C10.6217794,23.1018295,10.6209555,23.19804,10.5711565,23.2715187z
			 M10.6748428,20.3685436c-0.0498295-0.0726833-0.0522099-0.1700535-0.0518436-0.3110275
			c-0.1533928,0.097126-0.0459538,0.1213226-0.1036863,0.2073727v0.0518131
			c-0.0392714-0.0557499-0.0325584-0.0479069-0.0518427-0.1555004c-0.1413403-0.0012207-0.2375507-0.0020447-0.3110285-0.0518417
			c-0.137557-0.0612431-0.1079283-0.1010323-0.2591858-0.1555309c0.0159283-0.1594658,0.0235262-0.5491886,0.1036863-0.6739006
			V18.917057c0.2730389,0.0833645,0.4106874,0.2907982,0.6739006,0.4147148
			c0.0479984,0.1854038,0.2114916,0.4693356,0.1554985,0.5702457c-0.0180941,0.210331-0.0456486,0.2578411-0.1554985,0.3628712
			V20.3685436z M10.7785292,20.3167019c0.0640488,0.0941353,0.0578852,0.2965336,0.0518122,0.4665565
			C10.7662926,20.6891232,10.7724571,20.4867249,10.7785292,20.3167019z M11.9189568,23.5307331
			c-0.2547607,0.0319786-0.8521013-0.013792-0.9849291-0.1036854h-0.1036863
			c0.0691147-0.9157238,0.1382589-1.8317204,0.2073736-2.7474747c0.3192978,0.4538326,0.3801727,1.3552151,0.5702133,1.9698887
			c0.0329857,0.1066456,0.1742039,0.2204018,0.2073727,0.3110275c0.0743017,0.2031612-0.0040579,0.2836571,0.1036558,0.4147148
			V23.5307331z"/>
	</g>
</g>
</svg>
