<?xml version="1.0" encoding="utf-8"?>
<!-- Generator: Adobe Illustrator 17.1.0, SVG Export Plug-In . SVG Version: 6.00 Build 0)  -->
<!DOCTYPE svg PUBLIC "-//W3C//DTD SVG 1.1//EN" "http://www.w3.org/Graphics/SVG/1.1/DTD/svg11.dtd">
<svg version="1.1" id="Layer_1" xmlns="http://www.w3.org/2000/svg" xmlns:xlink="http://www.w3.org/1999/xlink" x="0px" y="0px"
	 viewBox="0 0 50 50" enable-background="new 0 0 50 50" xml:space="preserve">
<g id="base">
	<g>
		
			<linearGradient id="SVGID_1_" gradientUnits="userSpaceOnUse" x1="-15.9529486" y1="88.095932" x2="-15.9529486" y2="92.5109787" gradientTransform="matrix(4 0 3.0474641 -4 -185.8804321 400)">
			<stop  offset="0" style="stop-color:#000000;stop-opacity:0.4"/>
			<stop  offset="1" style="stop-color:#000000;stop-opacity:0"/>
		</linearGradient>
		<path fill="url(#SVGID_1_)" d="M9.0748739,40.4411011c-1.0152998-1.137558-1.029973-2.319622-0.0444822-3.6131477
			c2.9357347-3.8533478,13.1269817-6.8718719,23.201519-6.8718719c10.0740509,0,15.6658745,3.0185242,12.7301369,6.8718719
			c-0.98563,1.2937088-2.800972,2.4757729-5.5494614,3.6131477l-20.6353683,7.1751595L9.0748739,40.4411011z"/>
		
			<linearGradient id="SVGID_2_" gradientUnits="userSpaceOnUse" x1="4.7400556" y1="88.095932" x2="4.7400556" y2="99.7514038" gradientTransform="matrix(4 0 0 -4 0 400)">
			<stop  offset="0" style="stop-color:#007BB8"/>
			<stop  offset="1" style="stop-color:#0094DE"/>
		</linearGradient>
		<path fill="url(#SVGID_2_)" d="M3.791609,28.6742477c-1.8819655-3.0030861-2.7972145-6.1236706-2.7972145-9.5384979
			c0-10.1726151,7.8915339-18.1413517,17.9660721-18.1413517c10.074049,0,17.9655819,7.9687362,17.9655819,18.1413517
			c0,3.4153118-0.9147606,6.5358982-2.7967262,9.5384979L18.9604664,47.6162605L3.791609,28.6742477z"/>
		<path fill="#FFFFFF" d="M18.9602375,1.9887928c9.5167236,0,16.9714985,7.5319152,16.9714985,17.1471386
			c0,3.2046032-0.8555527,6.1371269-2.6148109,8.9610577l-14.3566875,17.927948L4.6036506,28.0970345
			c-1.7592878-2.824049-2.6148665-5.7566109-2.6148665-8.9611034C1.9887842,9.5207081,9.4435349,1.9887928,18.9602375,1.9887928
			 M18.9602375,0.0000076C8.3967495,0.0000076,0,8.4744759,0,19.135931c0,3.8271866,1.0835121,7.1076107,2.9795427,10.1146641
			l15.9806948,19.9560242l15.980772-19.9560242c1.8960724-3.0070534,2.9795113-6.2874775,2.9795113-10.1146641
			C37.9205208,8.4744759,29.5238113,0.0000076,18.9602375,0.0000076L18.9602375,0.0000076z"/>
	</g>
</g>
<path opacity="0.6" fill="#020302" enable-background="new    " d="M26.3824368,15.9879551
	c0.781826,0.0061579,1.5644073,0.0337677,2.3450222,0.0059052c0.2463264-0.00879,0.436676-0.2457361,0.6316414-0.4061489
	c0.0747261-0.0614824,0.1332455-0.1141987,0.2370071-0.1134157c0.7298908,0.0055237,1.4598961,0.0117159,2.1897106,0.0041189
	c0.1629295-0.0016956,0.2284145,0.0678797,0.3021946,0.198205c0.4973297,0.8785067,0.8977509,1.8050318,1.3538208,2.7038107
	c0.0880623,0.1735535,0.1594353,0.359581,0.2715492,0.5161991c0.3956871,0.5527325,0.442894,1.1762257,0.4135208,1.8234329
	c-0.0071144,0.1567974-0.04105,0.225935-0.2129898,0.2681541c-0.2048721,0.0503159-0.4139099,0.1488113-0.3833847,0.441927
	c0.0152245,0.1462116-0.0665169,0.2605991-0.2170219,0.2950878c-0.1322556,0.030304-0.257637,0.0009804-0.2961235-0.1476383
	c-0.0314217-0.1213856-0.1149139-0.1419277-0.2077255-0.1322479c-0.1223335,0.0127563-0.0783997,0.1266823-0.0888062,0.19767
	c-0.0148201,0.1011257-0.0060158,0.2055035-0.0120125,0.3082199c-0.002861,0.0491047-0.0165825,0.1367035-0.0676079,0.1151695
	c-0.3752098-0.1583519-0.2035179,0.1752853-0.2163467,0.2669353c-0.092247,0.6589012-0.5292683,1.0926971-1.1510563,1.1301308
	c-0.5579071,0.0335827-1.2513447-0.364706-1.3216534-1.0045605c-0.0099754-0.0908031,0.0041008-0.2335224-0.1513977-0.2203426
	c-0.1472015,0.0124683-0.1108074,0.1521969-0.1303673,0.2438927c-0.1270523,0.5953465-0.3998775,0.8748569-0.9626827,0.9778576
	c-0.4868202,0.0891018-1.0756302-0.1619587-1.3158302-0.5573997c-0.1473503-0.2425785-0.1319065-0.5117416-0.140131-0.7786503
	c-0.0027256-0.0886765,0.058609-0.1772442,0.0058823-0.2626801c-0.0461502-0.0195751-0.0571747,0.0123997-0.075058,0.0368404
	c-0.0490856,0.067091-0.0375767,0.2140675-0.1691151,0.1738319c-0.0953789-0.0291767-0.0555134-0.1427288-0.0599155-0.2205582
	c-0.0087147-0.1542168-0.0085793-0.3089142-0.0143032-0.4633274c-0.0026665-0.0718956-0.0008316-0.1493034-0.1069508-0.1506996
	c-0.1019039-0.0013447-0.1148758,0.0697441-0.117754,0.1449184c-0.0059052,0.1543903-0.0216427,0.3100967-0.0084953,0.4631233
	c0.018259,0.2124062-0.0826855,0.2708664-0.270853,0.2570972c-0.0921478-0.0067425-0.1860237-0.0068798-0.277914,0.0021973
	c-1.3204079,0.1303883-2.6466351,0.151289-3.9674702,0.0829697c-0.6413689-0.0331764-1.284338-0.0583649-1.926054-0.0961704
	c-0.5304699-0.0312557-0.5256138-0.0407639-0.5262947-0.5911179c-0.0002041-0.169157,0.0624771-0.3460732-0.0398579-0.5080662
	c-0.4077148-0.0989418-0.2182274,0.2045403-0.2444077,0.36269c-0.0041618,0.2133007-0.0121822,0.4266376-0.0102711,0.6398849
	c0.0006199,0.0682716,0.022316,0.1379871,0.0436211,0.2040577c0.032526,0.1008434,0.2661247,0.0776863,0.1829491,0.2196827
	c-0.0558834,0.095417-0.2269859,0.0297737-0.3455181,0.0455265c-0.020134,0.002676-0.0400181,0.007143-0.0600224,0.0107841
	c-0.071228-0.0064526-0.1432056-0.0084476-0.2135353-0.0202484c-0.1632404-0.0273819-0.1318092-0.0956764-0.032917-0.1746941
	c0.026226-0.013382,0.052454-0.0267658,0.07868-0.0401421c0,0,0.0028095-0.0009632,0.0027866-0.0009518
	c0.1332684-0.043808,0.1112232-0.1582298,0.1127796-0.2577629c0.003376-0.2164154,0.0188866-0.4348717-0.0050507-0.6486282
	c-0.0139942-0.124958,0.1236305-0.37253-0.1348228-0.3538342c-0.2308006,0.0166893-0.079113,0.2434673-0.1032352,0.3756905
	c-0.0165234,0.1992683-0.2683563,0.3094482-0.2059822,0.5422592c0.0047131,0.0175877-0.0498714,0.0716286-0.0801601,0.074522
	c-0.1434879,0.0137062-0.0694942-0.1427002-0.1540489-0.2044506c0,0.1730385,0.0001411,0.3326588-0.0000534,0.4922733
	c-0.000103,0.0851002,0.0044708,0.1747379-0.1267948,0.1467037c0.0013332-0.1775837,0.0082321-0.356432-0.1324959-0.5082169
	c0.0256996,0.2314701,0.018898,0.4592476-0.0136452,0.6858902c-0.1166363,0.5274487-0.4742966,0.7982674-0.9817104,0.8687153
	c-0.4672604,0.0648746-0.8707638-0.0968628-1.186676-0.451664c-0.0601616-0.0675678-0.1119175-0.1533051-0.1366606-0.2395248
	c-0.0534096-0.186079-0.1729403-0.2181091-0.3481121-0.2175865c-0.1751833,0.0005226-0.2723112,0.0402756-0.3434,0.2201023
	c-0.1936474,0.4898605-0.6073141,0.6875668-1.1011047,0.6995792c-0.4885721,0.0118866-0.8744364-0.198246-1.1054955-0.6501141
	c-0.0613556-0.1199837-0.071743-0.270689-0.2807808-0.2719154c-0.203578-0.001194-0.2339287,0.0994167-0.2616062,0.2562256
	c-0.0201931,0.114399-0.1309977,0.1136189-0.2255888,0.1137104c-0.9690943,0.0009804-1.9381886,0.0012589-2.9072838,0.0028858
	c-0.1412153,0.0002384-0.2448072-0.0401459-0.2496557-0.2036495c-0.0022469-0.0757351-0.0888891-0.1725998-0.0951529-0.1529198
	c-0.0828171,0.2601395-0.387805,0.0355339-0.4969702,0.2482243c-0.2547073,0.4962559-0.6984644,0.6881809-1.2286887,0.6515808
	c-0.534771-0.0369129-0.8927345-0.3314457-1.0459232-0.856678c-0.0105424-0.0361614-0.0401192-0.0667725-0.0960817-0.1564045
	c-0.0851998,0.4669151-0.3712816,0.3138447-0.6213865,0.2691612c-0.1216598-0.0217419-0.2415299-0.0544567-0.3636465-0.0725002
	c-0.819788-0.1211243-0.6737242-0.3474712-0.6490073-0.9168453c0.0087867-0.2023315,0.0406818-0.3919601,0.0003772-0.6006374
	c-0.0343261-0.1776886-0.0767789-0.3852329,0.075541-0.5604706c0.0973544-0.112011-0.0785913-0.1831074-0.0749702-0.3018818
	c0.0144539-0.4737835-0.0783997-0.9679661,0.0269032-1.4174824c0.1292949-0.5518818,0.0871062-1.1185856,0.238143-1.6605129
	c0.0161834-0.058073,0.0275564-0.1288223,0.0096097-0.1832981c-0.1680393-0.5101147,0.1417704-0.9485416,0.2090797-1.4226446
	c0.0066528-0.046874,0.0401983-0.1178389,0.0759182-0.1284943c0.5332527-0.1591473,0.8534427-0.6995363,1.4896832-0.7238541
	c0.8157253-0.0311766,1.6347394-0.1221876,2.4423194-0.2865944c0.4005594-0.0815487,0.6678944,0.0773335,0.7067862,0.5765171
	c0.0047388,0.060792-0.0070229,0.1519613,0.0270205,0.1768446c0.3120451,0.2280569,0.209857,0.5575209,0.2111492,0.8533707
	c0.0066566,1.525795,0.0104094,3.0516949-0.0029449,4.5773983c-0.0024242,0.2764187,0.0777416,0.360424,0.3474169,0.3372765
	c0.591712-0.0507889,1.1830606-0.1033592,1.7797861-0.0911922c0.2898512,0.0059166,0.5605717,0.1155663,0.8528881,0.0972538
	c0.1802206-0.0112896,0.2621241-0.0540752,0.2524881-0.2486725c-0.0121813-0.2460289,0.0126448-0.4912891-0.093092-0.7286015
	c-0.4652939-1.0442467-0.7712708-2.1477871-1.1865911-3.2108345c-0.1910419-0.4889908-0.3841457-0.9773293-0.5641165-1.4704142
	c-0.0691566-0.1894712-0.1656837-0.2960949-0.3814735-0.2614746c-0.090497,0.0145226-0.1872702-0.0096283-0.2775888,0.005415
	c-0.3037758,0.0505972-0.391098-0.073472-0.3700924-0.3705521c0.01476-0.2087593,0.0868797-0.255868,0.2777939-0.2534742
	c0.6803169,0.0085535,1.3608112,0.0039949,2.041234,0.0023909c0.2984819-0.0007057,0.5512028,0.1532269,0.8192062,0.2476501
	c0.55723,0.19631,1.1174765,0.3793621,1.6828022,0.5518646c0.6098213,0.1860847,1.2012825,0.4322739,1.8011608,0.6511221
	c0.0960674,0.0350475,0.1942749,0.064229,0.2913265,0.0960894c0.0250664,0.0040321,0.0502968,0.0080996,0.0755234,0.012166
	c1.2835579,0.032423,2.5671616,0.021225,3.8507595,0.003686c0.0615616-0.0008383,0.1243782-0.0050306,0.164238-0.0641985
	c0.0662498,0.0965881,0.1344738,0.1081257,0.2052879,0.0047083c0.1615028,0.1295061,0.3432598,0.0607347,0.5187874,0.0529985
	c0.2276421,0.0394573,0.4549732,0.0309448,0.6821251-0.0044746c0.1010208,0.0387363,0.2016964,0.0255547,0.3022709-0.0020046
	c0.3332291,0.0478001,0.6667023,0.0414448,1.0002975,0.0042658c0.04109,0.0019827,0.0821857,0.0039644,0.1232605,0.0059509
	c0.0276623-0.0002222,0.0553322-0.0004406,0.0830097-0.0006599c0.1130352,0.0182276,0.2263508,0.0414438,0.3349609-0.018857
	c0.0426922-0.0071096,0.0853882-0.0142231,0.1280785-0.0213385c0.2412357,0.0937681,0.4893723,0.0549879,0.7363644,0.0383301
	c0.1478348,0.0280733,0.2952003,0.0349512,0.4414101-0.0098219C26.0498772,16.01297,26.2157764,16.0177422,26.3824368,15.9879551z
	 M21.6665611,21.0463524c-0.0137901-0.087038-0.0850563-0.0743294-0.1410923-0.0748539
	c-0.4048309-0.0037861-0.8102264,0.007658-1.2143307-0.0105438c-0.2564678-0.0115452-0.3629494,0.0677757-0.2914639,0.327446
	c-0.0156708,0.653759-0.1355991,0.6280117,0.5650578,0.60676c0.1025085-0.0031071,0.2050781-0.0060291,0.3076229-0.0059261
	C21.7217484,21.8900642,21.7217484,21.8902912,21.6665611,21.0463524z M25.8648891,21.8954086
	c0.5990238,0.0088005,0.5937328,0.0089817,0.5786266-0.433567c-0.0049133-0.1442757-0.0336952-0.2295856-0.1985893-0.2431374
	c-0.1238422-0.0101795-0.2152939-0.1003227-0.3151436-0.1763039c-0.1663685-0.126585-0.3834743-0.0999069-0.5601273-0.0455875
	c-0.1292267,0.0397339-0.0522194,0.2214832-0.0562744,0.3361988C25.2938271,21.8869114,25.2990074,21.8870945,25.8648891,21.8954086
	z"/>
<path fill="#FFFFFF" d="M25.8985443,15.5040617c0.7818241,0.0061579,1.5644054,0.0337677,2.3450222,0.0059052
	c0.2463245-0.008791,0.436676-0.2457361,0.6316414-0.406148c0.0747242-0.0614834,0.1332455-0.1141987,0.2370052-0.1134176
	c0.7298908,0.0055246,1.4598961,0.0117168,2.1897106,0.0041199c0.1629314-0.0016956,0.2284145,0.0678797,0.3021946,0.198205
	c0.4973297,0.8785076,0.8977509,1.8050327,1.3538208,2.7038136c0.0880623,0.1735497,0.1594353,0.3595791,0.2715492,0.5161953
	c0.3956871,0.5527344,0.442894,1.1762257,0.4135208,1.8234329c-0.0071144,0.1567974-0.0410461,0.225935-0.2129898,0.2681541
	c-0.2048721,0.0503178-0.4139061,0.1488113-0.3833809,0.4419289c0.0152245,0.1462097-0.0665207,0.2605972-0.2170258,0.2950859
	c-0.1322556,0.0303078-0.257637,0.0009823-0.2961235-0.1476383c-0.0314217-0.1213818-0.1149139-0.1419277-0.2077255-0.132246
	c-0.1223335,0.0127544-0.0783997,0.1266823-0.0888062,0.1976681c-0.0148201,0.1011276-0.0060158,0.2055035-0.0120125,0.3082199
	c-0.002861,0.0491066-0.0165825,0.1367035-0.0676079,0.1151695c-0.3752079-0.15835-0.2035179,0.1752853-0.2163486,0.2669392
	c-0.0922451,0.6588993-0.5292683,1.0926952-1.1510544,1.1301289c-0.5579071,0.0335827-1.2513447-0.3647079-1.3216515-1.0045624
	c-0.0099754-0.0908031,0.0040989-0.2335205-0.1513996-0.2203426c-0.1471996,0.0124683-0.1108074,0.1521988-0.1303673,0.2438927
	c-0.1270523,0.5953465-0.3998756,0.8748569-0.9626827,0.9778595c-0.4868202,0.0890999-1.0756283-0.1619606-1.3158302-0.5573997
	c-0.1473503-0.2425804-0.1319065-0.5117416-0.140131-0.7786484c-0.0027256-0.0886784,0.058609-0.177248,0.0058842-0.2626839
	c-0.0461502-0.0195751-0.0571766,0.0123997-0.075058,0.0368423c-0.0490875,0.0670891-0.0375786,0.2140675-0.169117,0.17383
	c-0.0953789-0.0291748-0.0555115-0.1427288-0.0599155-0.2205582c-0.0087147-0.1542149-0.0085773-0.3089142-0.0143032-0.4633255
	c-0.0026646-0.0718975-0.0008297-0.1493034-0.1069469-0.1507015c-0.1019039-0.0013428-0.1148796,0.0697441-0.1177578,0.1449203
	c-0.0059052,0.1543884-0.0216427,0.3100948-0.0084953,0.4631233c0.018261,0.2124062-0.0826855,0.2708645-0.270853,0.2570972
	c-0.0921478-0.0067444-0.1860237-0.0068798-0.277914,0.0021973c-1.320406,0.1303864-2.6466331,0.1512909-3.9674702,0.0829678
	c-0.6413689-0.0331745-1.284338-0.0583649-1.926054-0.0961666c-0.5304699-0.0312576-0.5256138-0.0407677-0.5262928-0.5911198
	c-0.000206-0.1691589,0.0624752-0.3460751-0.0398598-0.5080681c-0.4077148-0.0989418-0.2182236,0.2045403-0.2444077,0.3626919
	c-0.0041618,0.2132988-0.0121803,0.4266357-0.0102692,0.639883c0.000618,0.0682735,0.022316,0.137989,0.0436192,0.2040596
	c0.032526,0.1008434,0.2661266,0.0776844,0.182951,0.2196808c-0.0558853,0.0954189-0.2269859,0.0297737-0.34552,0.0455265
	c-0.0201321,0.002676-0.0400162,0.0071449-0.0600204,0.0107841c-0.0712299-0.0064526-0.1432056-0.0084476-0.2135353-0.0202446
	c-0.1632404-0.0273838-0.1318111-0.0956802-0.0329189-0.1746979c0.026226-0.013382,0.052454-0.026762,0.0786819-0.0401421
	c0,0,0.0028095-0.0009632,0.0027866-0.0009518c0.1332684-0.043808,0.1112251-0.1582279,0.1127796-0.257761
	c0.0033741-0.2164173,0.0188866-0.4348736-0.0050526-0.6486301c-0.0139942-0.1249561,0.1236305-0.3725281-0.1348228-0.3538322
	c-0.2307987,0.0166874-0.079113,0.2434654-0.1032333,0.3756905c-0.0165234,0.1992664-0.2683582,0.3094463-0.2059822,0.5422573
	c0.0047112,0.0175877-0.0498734,0.0716305-0.0801601,0.0745239c-0.1434879,0.0137043-0.0694942-0.1427002-0.1540489-0.2044525
	c0,0.1730404,0.0001392,0.3326588-0.0000534,0.4922733c-0.0001049,0.0851021,0.0044708,0.1747379-0.1267948,0.1467056
	c0.0013313-0.1775856,0.0082302-0.3564339-0.1324959-0.5082188c0.0256977,0.2314701,0.018898,0.4592495-0.0136471,0.6858902
	c-0.1166325,0.5274487-0.4742947,0.7982693-0.9817104,0.8687172c-0.4672604,0.0648727-0.8707628-0.0968647-1.1866741-0.4516621
	c-0.0601616-0.0675716-0.1119175-0.153307-0.1366606-0.2395267c-0.0534105-0.1860809-0.1729412-0.218111-0.3481131-0.2175865
	c-0.1751833,0.0005207-0.2723112,0.0402737-0.3434,0.2201004c-0.1936483,0.4898605-0.6073141,0.6875687-1.1011047,0.6995792
	c-0.4885731,0.0118866-0.8744364-0.198246-1.1054964-0.6501141c-0.0613546-0.1199837-0.0717411-0.2706871-0.2807798-0.2719135
	c-0.2035789-0.001194-0.2339287,0.0994148-0.2616062,0.2562256c-0.0201941,0.114399-0.1309986,0.1136169-0.2255878,0.1137123
	c-0.9690952,0.0009766-1.9381905,0.0012569-2.9072857,0.002882c-0.1412144,0.0002403-0.2448063-0.040144-0.2496548-0.2036476
	c-0.0022469-0.0757332-0.0888882-0.1726017-0.0951529-0.1529217c-0.0828171,0.2601414-0.387805,0.0355358-0.4969702,0.2482243
	c-0.2547078,0.4962578-0.6984644,0.6881809-1.2286887,0.6515827c-0.534771-0.0369129-0.8927345-0.3314457-1.0459232-0.856678
	c-0.0105424-0.0361614-0.0401192-0.0667744-0.0960817-0.1564064c-0.0851998,0.4669151-0.3712816,0.3138466-0.6213865,0.2691631
	c-0.1216598-0.0217419-0.2415299-0.0544567-0.3636465-0.0725021c-0.819788-0.1211243-0.6737247-0.3474712-0.6490078-0.9168434
	c0.0087872-0.2023335,0.0406823-0.3919621,0.0003781-0.6006374c-0.034327-0.1776905-0.0767796-0.3852348,0.075541-0.5604706
	c0.0973539-0.1120129-0.0785923-0.1831093-0.0749712-0.3018837c0.0144544-0.4737816-0.0783989-0.9679661,0.0269036-1.4174805
	c0.1292949-0.5518837,0.0871067-1.1185875,0.238143-1.6605129c0.0161834-0.058075,0.0275564-0.1288223,0.0096097-0.1832981
	c-0.1680398-0.5101128,0.1417704-0.9485426,0.2090797-1.4226456c0.0066533-0.046875,0.0401978-0.1178389,0.0759182-0.1284943
	c0.5332532-0.1591473,0.8534427-0.6995363,1.4896836-0.7238531c0.8157248-0.0311785,1.6347384-0.1221886,2.4423189-0.2865963
	c0.4005604-0.0815477,0.6678934,0.0773354,0.7067862,0.5765181c0.0047388,0.060792-0.0070229,0.1519613,0.0270205,0.1768446
	c0.3120451,0.2280579,0.2098579,0.5575209,0.2111483,0.8533707c0.0066576,1.5257978,0.0104113,3.0516939-0.0029449,4.5774012
	C9.4788332,20.4148293,9.559,20.4988365,9.8286762,20.4756889c0.5917101-0.0507889,1.1830597-0.1033611,1.7797861-0.0911903
	c0.2898493,0.0059147,0.5605717,0.1155643,0.8528872,0.09725c0.1802206-0.0112896,0.2621231-0.0540733,0.2524872-0.2486725
	c-0.0121813-0.246027,0.0126457-0.4912891-0.093091-0.7285995c-0.4652939-1.0442486-0.7712708-2.1477871-1.1865911-3.2108345
	c-0.1910419-0.4889917-0.3841457-0.9773302-0.5641174-1.4704151c-0.0691557-0.1894712-0.1656828-0.2960958-0.3814716-0.2614737
	c-0.090498,0.0145216-0.1872711-0.0096283-0.2775908,0.005414c-0.3037758,0.0505972-0.391098-0.0734711-0.3700914-0.3705521
	c0.0147591-0.2087593,0.0868797-0.255867,0.2777929-0.2534733c0.6803169,0.0085516,1.3608122,0.0039949,2.041234,0.0023899
	c0.2984829-0.0007067,0.5512047,0.1532259,0.8192072,0.2476511c0.55723,0.1963091,1.1174774,0.3793612,1.6828022,0.5518637
	c0.6098204,0.1860847,1.2012825,0.4322739,1.8011618,0.6511221c0.0960655,0.0350475,0.1942749,0.0642281,0.2913265,0.0960894
	c0.0250645,0.0040331,0.0502949,0.0080986,0.0755234,0.0121651c1.283556,0.0324249,2.5671616,0.021225,3.8507576,0.003686
	c0.0615635-0.0008383,0.1243801-0.0050297,0.164238-0.0641975c0.0662537,0.0965872,0.1344757,0.1081266,0.2052879,0.0047073
	c0.1615047,0.1295071,0.3432617,0.0607367,0.5187874,0.0529995c0.2276421,0.0394573,0.454977,0.0309439,0.6821251-0.0044746
	c0.1010227,0.0387363,0.2016964,0.0255556,0.3022709-0.0020056c0.333231,0.0478001,0.6667061,0.0414448,1.0002975,0.0042677
	c0.04109,0.0019817,0.0821877,0.0039644,0.1232624,0.0059509c0.0276623-0.0002232,0.0553322-0.0004416,0.0830078-0.0006609
	c0.1130371,0.0182257,0.2263508,0.0414438,0.3349628-0.018857c0.0426903-0.0071106,0.0853882-0.0142241,0.1280785-0.0213375
	c0.2412357,0.0937672,0.4893742,0.0549879,0.7363625,0.0383291c0.1478348,0.0280733,0.2952023,0.0349493,0.441412-0.0098209
	C25.5659866,15.5290766,25.731884,15.5338497,25.8985443,15.5040617z M21.1826668,20.5624599
	c-0.0137882-0.0870399-0.0850563-0.0743294-0.1410904-0.0748539c-0.404829-0.003788-0.8102264,0.0076561-1.2143326-0.0105457
	c-0.2564678-0.0115433-0.3629494,0.0677776-0.2914639,0.327446c-0.0156689,0.6537628-0.1355991,0.6280136,0.5650578,0.6067638
	c0.1025105-0.003109,0.2050781-0.006031,0.3076248-0.0059299C21.2378559,21.4061699,21.2378559,21.4063988,21.1826668,20.5624599z
	 M25.3809967,21.4115143c0.5990257,0.0088005,0.5937309,0.0089836,0.5786285-0.4335651
	c-0.0049171-0.1442776-0.0336971-0.2295856-0.1985931-0.2431374c-0.1238403-0.0101814-0.2152939-0.1003227-0.3151436-0.1763058
	c-0.1663666-0.126585-0.3834743-0.0999069-0.5601254-0.0455875c-0.1292267,0.0397339-0.0522213,0.2214851-0.0562763,0.3362007
	C24.8099346,21.403017,24.815115,21.4032001,25.3809967,21.4115143z"/>
</svg>
