<?xml version="1.0" encoding="utf-8"?>
<!-- Generator: Adobe Illustrator 17.1.0, SVG Export Plug-In . SVG Version: 6.00 Build 0)  -->
<!DOCTYPE svg PUBLIC "-//W3C//DTD SVG 1.1//EN" "http://www.w3.org/Graphics/SVG/1.1/DTD/svg11.dtd">
<svg version="1.1" id="Layer_1" xmlns="http://www.w3.org/2000/svg" xmlns:xlink="http://www.w3.org/1999/xlink" x="0px" y="0px"
	 viewBox="0 0 50 50" enable-background="new 0 0 50 50" xml:space="preserve">
<g id="base">
	<g>
		
			<linearGradient id="SVGID_1_" gradientUnits="userSpaceOnUse" x1="-22.7237625" y1="6.0480018" x2="-22.7237625" y2="3.8048861" gradientTransform="matrix(8 0 -6.0949283 8 237.7319641 0)">
			<stop  offset="0" style="stop-color:#000000;stop-opacity:0.4"/>
			<stop  offset="1" style="stop-color:#000000;stop-opacity:0"/>
		</linearGradient>
		<path fill="url(#SVGID_1_)" d="M9.2211933,41.0931664c-1.0316696-1.155899-1.0465794-2.3570251-0.0451994-3.6714058
			c2.9830694-3.9154778,13.3386374-6.9826717,23.5756111-6.9826717c10.2364807,0,15.9184647,3.067194,12.9353905,6.9826717
			c-1.0015221,1.3145676-2.8461304,2.5156898-5.6389351,3.6714058l-20.9680862,7.2908478L9.2211933,41.0931664z"/>
		
			<linearGradient id="SVGID_2_" gradientUnits="userSpaceOnUse" x1="2.408241" y1="6.0480018" x2="2.408241" y2="0.1263049" gradientTransform="matrix(8 0 0 8 0 0)">
			<stop  offset="0" style="stop-color:#007BB8"/>
			<stop  offset="1" style="stop-color:#0094DE"/>
		</linearGradient>
		<path fill="url(#SVGID_2_)" d="M3.8527434,29.1365871c-1.9123095-3.051506-2.8423157-6.2224064-2.8423157-9.6922932
			c0-10.3366337,8.018774-18.4338551,18.2557507-18.4338551c10.2364788,0,18.2552528,8.0972214,18.2552528,18.4338551
			c0,3.4703789-0.929512,6.6412811-2.8418198,9.6922932l-15.4134331,19.247427L3.8527434,29.1365871z"/>
		<path fill="#FFFFFF" d="M19.2659454,2.0208669c9.6701679,0,17.2451401,7.653357,17.2451401,17.4236126
			c0,3.2562733-0.8693466,6.2360802-2.656971,9.1055412L19.2659454,46.7670326L4.6778779,28.5500679
			c-1.7876537-2.8695831-2.6570275-5.8494282-2.6570275-9.1055889C2.0208507,9.6742239,9.5957985,2.0208669,19.2659454,2.0208669
			 M19.2659454,0.0000152C8.532135,0.0000152,0,8.6111221,0,19.444479c0,3.888895,1.1009822,7.2222118,3.0275838,10.2777481
			l16.2383614,20.2777882l16.2384377-20.2777882c1.9266472-3.0555363,3.0275536-6.3888531,3.0275536-10.2777481
			C38.5319366,8.6111221,29.9998417,0.0000152,19.2659454,0.0000152L19.2659454,0.0000152z"/>
	</g>
</g>
<path opacity="0.6" fill="#020302" enable-background="new    " d="M26.8078175,16.2457466
	c0.7944317,0.0062561,1.5896301,0.0343113,2.3828316,0.0060005c0.2502975-0.0089321,0.443718-0.2496986,0.6418266-0.4126978
	c0.0759296-0.0624743,0.1353931-0.1160402,0.2408276-0.1152449c0.7416592,0.0056133,1.4834347,0.0119047,2.2250175,0.0041857
	c0.1655579-0.0017233,0.2320976,0.0689735,0.3070679,0.2014008c0.5053482,0.8926706,0.9122238,1.834136,1.3756485,2.7474051
	c0.0894814,0.1763515,0.1620064,0.3653793,0.2759285,0.5245228c0.4020653,0.5616436,0.4500351,1.1951904,0.4201851,1.8528328
	c-0.0072289,0.1593266-0.0417099,0.229578-0.216423,0.2724781c-0.2081757,0.0511265-0.4205818,0.1512108-0.3895645,0.4490528
	c0.0154686,0.1485691-0.0675888,0.264801-0.2205238,0.2998447c-0.134388,0.0307941-0.2617874,0.0009975-0.3008957-0.1500187
	c-0.031929-0.1233425-0.1167679-0.1442146-0.2110748-0.1343803c-0.1243057,0.0129623-0.0796661,0.1287251-0.0902405,0.2008572
	c-0.0150566,0.1027565-0.0061111,0.2088184-0.0122032,0.3131905c-0.0029068,0.0498962-0.0168495,0.1389065-0.0686989,0.1170254
	c-0.3812599-0.1609039-0.2067986,0.178112-0.2198334,0.2712402c-0.0937347,0.6695251-0.5378036,1.1103153-1.1696167,1.1483517
	c-0.5669041,0.0341244-1.2715206-0.3705864-1.3429642-1.0207577c-0.0101357-0.0922661,0.0041676-0.2372875-0.1538391-0.2238941
	c-0.1495743,0.0126686-0.1125927,0.1546497-0.1324692,0.2478256c-0.1291008,0.6049442-0.4063244,0.8889618-0.9782047,0.9936237
	c-0.494669,0.090538-1.0929718-0.1645699-1.3370457-0.5663872c-0.149725-0.2464905-0.1340332-0.5199928-0.1423893-0.7912045
	c-0.0027714-0.090107,0.0595531-0.1801033,0.0059757-0.2669163c-0.0468941-0.0198898-0.0580959,0.0125999-0.0762672,0.0374336
	c-0.0498772,0.0681744-0.0381832,0.2175198-0.1718426,0.1766357c-0.0969162-0.0296478-0.0564079-0.145031-0.0608807-0.2241154
	c-0.0088558-0.156702-0.0087185-0.3138943-0.014534-0.4707966c-0.0027103-0.0730553-0.000845-0.1517105-0.108675-0.1531296
	c-0.103548-0.0013676-0.1167278,0.0708675-0.1196537,0.1472549c-0.0060005,0.1568794-0.0219917,0.3150959-0.0086327,0.4705906
	c0.0185547,0.2158298-0.0840187,0.2752342-0.275219,0.2612419c-0.0936337-0.0068512-0.189024-0.0069904-0.2823963,0.0022335
	c-1.3416958,0.1324902-2.6893082,0.1537285-4.0314388,0.0843067c-0.6517105-0.0337105-1.3050461-0.0593052-1.9571095-0.0977211
	c-0.5390224-0.0317593-0.5340881-0.04142-0.5347805-0.6006489c-0.0002079-0.1718845,0.0634842-0.3516521-0.0405006-0.5162582
	c-0.4142876-0.1005363-0.2217464,0.2078381-0.2483482,0.3685379c-0.0042286,0.2167397-0.0123787,0.4335175-0.010437,0.6502037
	c0.0006294,0.0693722,0.0226765,0.1402111,0.0443249,0.2073479c0.0330505,0.1024685,0.2704163,0.0789375,0.1858997,0.2232246
	c-0.0567856,0.0969543-0.2306461,0.0302525-0.3510895,0.0462589c-0.0204582,0.0027199-0.0406647,0.0072594-0.0609913,0.0109596
	c-0.0723763-0.0065575-0.1455135-0.008585-0.2169781-0.0205765c-0.1658726-0.0278225-0.133934-0.0972176-0.0334473-0.1775093
	c0.0266495-0.0135975,0.053299-0.0271988,0.0799484-0.0407906c0,0,0.0028553-0.0009785,0.0028324-0.000967
	c0.135416-0.0445137,0.1130161-0.16078,0.1145973-0.261919c0.0034313-0.2199039,0.0191917-0.4418831-0.0051327-0.6590862
	c-0.0142193-0.1269722,0.1256237-0.3785362-0.1369953-0.359539c-0.2345219,0.0169582-0.080389,0.2473927-0.1049004,0.3817482
	c-0.0167904,0.2024803-0.2726841,0.3144379-0.2093029,0.5510025c0.0047874,0.0178719-0.0506763,0.0727825-0.0814533,0.0757236
	c-0.1458015,0.0139275-0.0706139-0.1450005-0.1565323-0.2077465c0,0.175827,0.0001431,0.3380222-0.0000553,0.5002098
	c-0.0001049,0.0864716,0.0045433,0.1775551-0.1288395,0.1490688c0.0013561-0.1804466,0.0083656-0.3621788-0.1346321-0.5164108
	c0.0261154,0.2352028,0.0192032,0.4666519-0.0138645,0.696949c-0.1185169,0.5359535-0.4819431,0.8111382-0.9975395,0.8827229
	c-0.4747944,0.0659199-0.8848038-0.0984249-1.2058086-0.4589462c-0.0611324-0.0686588-0.1137218-0.155777-0.1388645-0.2433872
	c-0.0542698-0.1890793-0.1757278-0.2216263-0.3537245-0.221096c-0.1780081,0.0005322-0.2767019,0.040926-0.348937,0.2236519
	c-0.1967697,0.4977589-0.6171064,0.6986523-1.1188583,0.7108593c-0.4964504,0.0120773-0.8885355-0.2014427-1.1233206-0.6605968
	c-0.0623446-0.1219177-0.0728998-0.275053-0.2853079-0.2762985c-0.2068605-0.001215-0.2377005,0.1010189-0.2658243,0.2603569
	c-0.0205183,0.1162434-0.13311,0.1154499-0.2292261,0.1155434c-0.9847193,0.0009956-1.9694386,0.0012779-2.9541597,0.0029316
	C9.3847494,23.283783,9.2794867,23.2427483,9.27456,23.0766087c-0.0022831-0.0769577-0.0903225-0.1753826-0.0966864-0.155386
	c-0.0841532,0.2643337-0.3940582,0.0361061-0.5049839,0.2522259c-0.2588139,0.5042572-0.7097259,0.6992779-1.2484994,0.6620865
	c-0.5433931-0.037508-0.9071283-0.3367901-1.0627871-0.870491c-0.0107126-0.0367432-0.0407662-0.0678482-0.097631-0.158926
	c-0.0865736,0.4744434-0.3772678,0.3189049-0.6314054,0.2735023c-0.1236215-0.0220928-0.2454243-0.055336-0.3695102-0.0736694
	c-0.8330059-0.1230774-0.684587-0.353075-0.6594715-0.9316292c0.0089283-0.2055931,0.041338-0.3982792,0.0003834-0.610321
	c-0.0348797-0.1805534-0.0780168-0.3914452,0.0767589-0.5695076c0.0989242-0.1138172-0.0798583-0.18606-0.076179-0.3067493
	c0.0146871-0.4814224-0.0796638-0.9835739,0.0273371-1.4403381c0.1313796-0.5607796,0.0885105-1.1366196,0.2419825-1.6872864
	c0.0164447-0.0590076,0.0280008-0.1308994,0.0097647-0.1862526c-0.1707487-0.5183392,0.1440563-0.9638348,0.212451-1.4455824
	c0.0067601-0.0476303,0.0408463-0.1197395,0.0771422-0.1305666c0.5418506-0.1617136,0.8672032-0.7108154,1.5137024-0.7355251
	c0.8288774-0.0316792,1.661097-0.1241579,2.4816985-0.2912149c0.4070177-0.0828638,0.6786633,0.0785799,0.7181816,0.5858126
	c0.0048151,0.0617723-0.0071354,0.1544113,0.0274563,0.1796961c0.3170767,0.2317333,0.2132406,0.5665102,0.2145538,0.8671293
	c0.0067635,1.550396,0.0105772,3.1008987-0.0029926,4.6512032c-0.0024633,0.2808762,0.0789957,0.3662357,0.3530188,0.3427143
	c0.6012526-0.0516071,1.202136-0.1050262,1.8084822-0.0926628c0.2945251,0.006012,0.5696106,0.1174297,0.8666401,0.0988216
	c0.1831264-0.0114708,0.2663507-0.0549469,0.2565594-0.2526817c-0.0123777-0.2499962,0.0128489-0.4992104-0.094593-0.7403488
	c-0.4727964-1.0610847-0.7837067-2.1824169-1.2057238-3.2626057c-0.1941214-0.4968739-0.3903389-0.9930859-0.5732117-1.4941216
	c-0.0702715-0.1925268-0.168355-0.300869-0.3876238-0.2656908c-0.0919571,0.0147572-0.1902905-0.0097837-0.2820654,0.0055027
	c-0.3086739,0.0514126-0.3974037-0.0746574-0.3760595-0.3765268c0.0149984-0.2121258,0.0882807-0.2599936,0.2822733-0.2575617
	c0.6912861,0.0086918,1.3827524,0.0040598,2.0741463,0.00243c0.3032942-0.0007172,0.5600901,0.1556969,0.8324146,0.2516432
	c0.5662146,0.1994753,1.1354942,0.385479,1.7099352,0.5607624c0.6196537,0.189085,1.2206516,0.4392433,1.8302021,0.6616211
	c0.0976162,0.0356121,0.1974068,0.0652637,0.2960243,0.0976372c0.0254688,0.0040989,0.0511074,0.0082302,0.0767403,0.0123634
	c1.3042526,0.0329456,2.6085529,0.0215664,3.9128475,0.0037441c0.0625534-0.0008507,0.1263828-0.0051117,0.1668854-0.0652332
	c0.067318,0.0981464,0.1366425,0.109869,0.2085991,0.0047855c0.1641064,0.1315937,0.3487949,0.0617142,0.5271511,0.0538521
	c0.2313137,0.0400944,0.4623089,0.0314445,0.6931248-0.0045471c0.1026497,0.039362,0.2049484,0.0259666,0.3071442-0.002037
	c0.3386021,0.0485706,0.6774521,0.0421143,1.0164261,0.0043354c0.0417519,0.0020142,0.0835114,0.0040283,0.125248,0.0060463
	c0.0281086-0.0002251,0.0562229-0.0004482,0.0843468-0.0006695c0.1148586,0.0185204,0.2300014,0.0421104,0.3403625-0.0191612
	c0.0433807-0.007225,0.0867653-0.0144539,0.1301441-0.0216827c0.2451248,0.0952797,0.497263,0.0558739,0.7482376,0.0389481
	c0.1502171,0.0285263,0.2999592,0.0355148,0.4485264-0.0099812C26.4698944,16.2711639,26.6384697,16.2760143,26.8078175,16.2457466z
	 M22.0159035,21.385704c-0.0140114-0.0884418-0.0864277-0.0755291-0.1433659-0.0760612
	c-0.4113579-0.0038471-0.8232899,0.0077801-1.2339096-0.0107136c-0.2606049-0.0117321-0.368803,0.0688686-0.2961636,0.3327255
	c-0.0159245,0.664299-0.1377869,0.6381359,0.5741673,0.6165428c0.1041622-0.0031567,0.2083855-0.0061264,0.3125839-0.0060215
	C22.0719814,22.2430191,22.0719814,22.2432499,22.0159035,21.385704z M26.2819252,22.2484493
	c0.6086807,0.0089417,0.6033058,0.0091267,0.5879555-0.4405575c-0.0049915-0.1466026-0.0342388-0.2332878-0.2017918-0.2470589
	c-0.1258392-0.0103436-0.2187653-0.1019402-0.3202248-0.1791458c-0.1690502-0.1286259-0.3896561-0.1015167-0.5691586-0.0463219
	c-0.1313095,0.0403748-0.0530605,0.2250538-0.0571804,0.3416195C25.7016544,22.2398148,25.7069187,22.2400017,26.2819252,22.2484493
	z"/>
<path fill="#FFFFFF" d="M26.3161221,15.7540503c0.7944298,0.006258,1.5896301,0.0343122,2.3828335,0.0060005
	c0.2502956-0.0089321,0.443716-0.2496977,0.6418247-0.4126959c0.0759296-0.0624752,0.1353951-0.1160402,0.2408276-0.1152468
	c0.7416592,0.0056133,1.4834347,0.0119057,2.2250156,0.0041866c0.1655598-0.0017233,0.2320995,0.0689735,0.307066,0.2014008
	c0.5053482,0.8926725,0.9122276,1.834136,1.3756523,2.7474089c0.0894814,0.1763477,0.1620026,0.3653755,0.2759247,0.5245171
	c0.4020691,0.5616474,0.4500351,1.1951923,0.4201889,1.8528347c-0.0072289,0.1593246-0.0417061,0.229578-0.216423,0.2724762
	c-0.2081757,0.0511303-0.4205818,0.1512108-0.3895607,0.4490547c0.0154686,0.1485672-0.0675964,0.2647991-0.2205276,0.2998447
	c-0.134388,0.0307961-0.2617912,0.0009975-0.3008957-0.1500187c-0.031929-0.1233387-0.1167679-0.1442165-0.2110748-0.1343784
	c-0.1243057,0.0129604-0.0796661,0.1287251-0.0902405,0.2008553c-0.0150566,0.1027584-0.0061111,0.2088165-0.012207,0.3131886
	c-0.0029068,0.0498981-0.0168495,0.1389084-0.0686951,0.1170273c-0.3812599-0.1609039-0.2068024,0.178112-0.2198372,0.2712421
	c-0.0937347,0.6695232-0.5378036,1.1103134-1.1696148,1.1483517c-0.5669022,0.0341244-1.2715206-0.3705883-1.3429604-1.0207596
	c-0.0101376-0.092268,0.0041637-0.2372856-0.153841-0.223896c-0.1495743,0.0126705-0.1125946,0.1546535-0.1324692,0.2478256
	c-0.1291008,0.6049461-0.4063244,0.8889618-0.9782047,0.9936256c-0.494669,0.0905361-1.0929718-0.1645718-1.3370457-0.5663872
	c-0.1497269-0.2464905-0.1340351-0.5199928-0.1423912-0.7912025c-0.0027695-0.0901089,0.0595531-0.1801052,0.0059795-0.2669201
	c-0.0468941-0.0198898-0.0580997,0.0125999-0.0762691,0.0374374c-0.0498791,0.0681705-0.0381832,0.2175198-0.1718426,0.1766319
	c-0.0969181-0.029644-0.0564079-0.1450291-0.0608826-0.2241135c-0.0088558-0.156702-0.0087147-0.3138943-0.014534-0.4707966
	c-0.0027065-0.0730572-0.000843-0.1517105-0.1086712-0.1531315c-0.1035461-0.0013638-0.1167316,0.0708694-0.1196556,0.1472569
	c-0.0060005,0.1568775-0.0219917,0.3150959-0.0086327,0.4705906c0.0185547,0.2158318-0.0840187,0.2752323-0.2752209,0.2612438
	c-0.0936337-0.0068531-0.1890221-0.0069904-0.2823944,0.0022316c-1.3416958,0.1324883-2.6893063,0.1537304-4.0314407,0.0843067
	c-0.6517105-0.0337105-1.3050461-0.0593071-1.9571095-0.0977173c-0.5390224-0.0317631-0.5340881-0.0414257-0.5347767-0.6006508
	c-0.0002098-0.1718864,0.0634823-0.351656-0.0405025-0.5162601c-0.4142895-0.1005383-0.2217426,0.2078381-0.2483501,0.3685398
	c-0.0042286,0.2167377-0.0123749,0.4335136-0.0104332,0.6501999c0.0006275,0.0693741,0.0226746,0.140213,0.0443211,0.2073498
	c0.0330505,0.1024685,0.2704182,0.0789375,0.1859016,0.2232227c-0.0567856,0.0969582-0.2306461,0.0302544-0.3510914,0.0462608
	c-0.0204563,0.002718-0.0406609,0.0072594-0.0609875,0.0109577c-0.0723782-0.0065575-0.1455154-0.0085831-0.2169781-0.0205708
	c-0.1658726-0.0278263-0.1339378-0.0972233-0.0334511-0.177515c0.0266495-0.0135975,0.0533009-0.0271931,0.0799522-0.0407887
	c0,0,0.0028534-0.0009785,0.0028305-0.000967c0.1354179-0.0445156,0.113018-0.16078,0.1145973-0.2619171
	c0.0034294-0.2199078,0.0191917-0.441885-0.0051327-0.6590881c-0.0142212-0.1269722,0.1256237-0.3785362-0.1369972-0.3595371
	c-0.23452,0.0169563-0.080389,0.2473907-0.1048985,0.3817463c-0.0167885,0.2024803-0.2726841,0.314436-0.2093029,0.5510006
	c0.0047874,0.0178719-0.0506783,0.0727863-0.0814533,0.0757256c-0.1457996,0.0139256-0.0706139-0.1450005-0.1565323-0.2077484
	c0,0.1758308,0.0001411,0.3380222-0.0000534,0.5002098c-0.0001068,0.0864754,0.0045433,0.1775551-0.1288395,0.1490726
	c0.0013523-0.1804504,0.0083618-0.3621826-0.1346321-0.5164146c0.0261116,0.2352028,0.0192032,0.4666557-0.0138664,0.696949
	c-0.1185131,0.5359535-0.4819431,0.811142-0.9975395,0.8827248c-0.4747944,0.065918-0.8848038-0.0984268-1.2058077-0.4589443
	c-0.0611324-0.0686607-0.1137228-0.1557789-0.1388645-0.2433891c-0.0542717-0.1890812-0.1757298-0.2216282-0.3537254-0.2210941
	c-0.1780081,0.0005283-0.2767019,0.0409222-0.348937,0.2236481c-0.1967707,0.4977589-0.6171064,0.6986561-1.1188583,0.7108593
	c-0.4964514,0.0120792-0.8885355-0.2014427-1.1233215-0.6605949c-0.0623436-0.1219196-0.0728979-0.275053-0.2853069-0.2762985
	c-0.2068615-0.0012131-0.2377005,0.101017-0.2658243,0.2603569c-0.0205193,0.1162434-0.133111,0.115448-0.2292252,0.1155453
	c-0.9847202,0.0009918-1.9694414,0.0012779-2.9541616,0.0029297c-0.1434908,0.0002441-0.2487535-0.0407925-0.2536802-0.2069321
	c-0.0022831-0.0769539-0.0903215-0.1753845-0.0966873-0.1553879C8.602025,22.693861,8.29212,22.4656353,8.1811943,22.6817532
	c-0.2588143,0.5042591-0.7097259,0.699276-1.2484994,0.6620884c-0.5433931-0.037508-0.9071288-0.3367901-1.0627871-0.870491
	c-0.0107126-0.0367451-0.0407662-0.067852-0.097631-0.1589279C5.6857033,22.788866,5.3950086,22.6333294,5.140871,22.587925
	c-0.123621-0.0220928-0.2454243-0.0553341-0.3695097-0.0736713c-0.8330059-0.1230774-0.6845875-0.3530731-0.659472-0.9316254
	c0.0089288-0.2055969,0.041338-0.398283,0.0003843-0.610323C4.0773931,20.79175,4.034256,20.5808601,4.1890326,20.4027977
	c0.0989237-0.1138172-0.0798597-0.18606-0.07618-0.3067513c0.0146875-0.4814205-0.0796633-0.983572,0.0273376-1.4403343
	c0.1313796-0.5607815,0.088511-1.1366234,0.2419825-1.6872864c0.0164442-0.0590115,0.0280008-0.1308994,0.0097647-0.1862545
	c-0.1707492-0.5183372,0.1440563-0.9638357,0.212451-1.4455833c0.0067606-0.0476303,0.0408459-0.1197386,0.0771422-0.1305656
	c0.541851-0.1617136,0.8672032-0.7108154,1.5137029-0.7355242c0.828877-0.0316811,1.6610961-0.1241589,2.481698-0.2912169
	C9.08395,14.0964184,9.3555937,14.257863,9.395113,14.7650948c0.0048151,0.0617714-0.0071363,0.1544113,0.0274563,0.1796951
	c0.3170767,0.2317352,0.2132416,0.5665102,0.2145529,0.8671303c0.0067644,1.5503998,0.0105791,3.1008987-0.0029926,4.6512051
	c-0.0024633,0.2808723,0.0789957,0.3662338,0.3530207,0.3427124c0.6012506-0.0516071,1.2021351-0.1050262,1.8084822-0.092659
	c0.2945232,0.0060101,0.5696106,0.1174259,0.8666391,0.0988178c0.1831264-0.0114727,0.2663498-0.054945,0.2565584-0.2526817
	c-0.0123777-0.2499943,0.0128498-0.4992123-0.0945921-0.7403488c-0.4727964-1.0610847-0.7837067-2.1824169-1.2057238-3.2626038
	c-0.1941223-0.4968758-0.3903389-0.9930887-0.5732126-1.4941235c-0.0702705-0.1925268-0.168354-0.3008699-0.3876228-0.2656898
	c-0.0919571,0.0147552-0.1902905-0.0097837-0.2820663,0.0055017c-0.3086739,0.0514126-0.3974037-0.0746565-0.3760586-0.3765268
	c0.0149975-0.2121258,0.0882807-0.2599926,0.2822723-0.2575607c0.6912861,0.0086899,1.3827534,0.0040598,2.0741463,0.002429
	c0.3032951-0.0007181,0.560092,0.1556959,0.8324156,0.2516441c0.5662146,0.1994743,1.1354952,0.3854771,1.7099352,0.5607615
	c0.6196527,0.189085,1.2206516,0.4392433,1.8302021,0.6616201c0.0976143,0.0356131,0.1974087,0.0652637,0.2960243,0.0976391
	c0.0254688,0.0040979,0.0511055,0.0082293,0.0767403,0.0123615c1.3042526,0.0329475,2.6085548,0.0215664,3.9128456,0.0037451
	c0.0625572-0.0008516,0.1263866-0.0051107,0.1668873-0.0652332c0.0673218,0.0981445,0.1366444,0.1098709,0.2085972,0.0047836
	c0.1641102,0.1315956,0.3487968,0.0617161,0.527153,0.053854c0.2313118,0.0400934,0.4623127,0.0314426,0.6931229-0.0045471
	c0.1026516,0.039361,0.2049484,0.0259686,0.3071442-0.002037c0.338604,0.0485706,0.6774559,0.0421124,1.0164261,0.0043364
	c0.0417538,0.0020132,0.0835133,0.0040283,0.1252499,0.0060463c0.0281086-0.000226,0.0562248-0.0004482,0.0843468-0.0006714
	c0.1148586,0.0185194,0.2299995,0.0421124,0.3403625-0.0191612c0.0433788-0.007225,0.0867653-0.0144529,0.1301441-0.0216808
	c0.2451248,0.0952787,0.4972649,0.0558739,0.7482357,0.0389471c0.150219,0.0285254,0.2999611,0.035512,0.4485283-0.0099792
	C25.9782028,15.7794685,26.1467743,15.7843189,26.3161221,15.7540503z M21.5242081,20.8940086
	c-0.0140114-0.0884438-0.0864277-0.0755272-0.1433659-0.0760612c-0.411356-0.003849-0.8232899,0.0077801-1.2339115-0.0107155
	c-0.260603-0.0117302-0.3688011,0.0688705-0.2961636,0.3327255c-0.0159206,0.6643047-0.137785,0.6381397,0.5741692,0.6165466
	c0.1041622-0.0031586,0.2083836-0.0061283,0.3125839-0.0060253C21.580286,21.7513218,21.580286,21.7515545,21.5242081,20.8940086z
	 M25.7902298,21.756752c0.6086845,0.0089436,0.6033039,0.0091286,0.5879593-0.4405556
	c-0.0049973-0.1466026-0.0342407-0.2332878-0.2017956-0.247057c-0.1258373-0.0103455-0.2187653-0.1019402-0.3202248-0.1791477
	c-0.1690502-0.1286278-0.389658-0.1015186-0.5691566-0.0463238c-0.1313114,0.0403748-0.0530643,0.2250557-0.0571842,0.3416214
	C25.2099609,21.7481194,25.2152252,21.7483044,25.7902298,21.756752z"/>
</svg>
