<?xml version="1.0" encoding="utf-8"?>
<!-- Generator: Adobe Illustrator 17.1.0, SVG Export Plug-In . SVG Version: 6.00 Build 0)  -->
<!DOCTYPE svg PUBLIC "-//W3C//DTD SVG 1.1//EN" "http://www.w3.org/Graphics/SVG/1.1/DTD/svg11.dtd">
<svg version="1.1" id="Layer_1" xmlns="http://www.w3.org/2000/svg" xmlns:xlink="http://www.w3.org/1999/xlink" x="0px" y="0px"
	 viewBox="0 0 85.3276367 68.0683594" enable-background="new 0 0 85.3276367 68.0683594" xml:space="preserve">
<path fill="#262F07" d="M73.50354,42.7837524L53.4846191,23.8821411c2.223999-2.5360107,3.5842285-5.847229,3.5842285-9.477356
	C57.0688477,6.4619141,50.6069336,0,42.6640625,0S28.2592773,6.4619141,28.2592773,14.4047852
	c0,3.630249,1.3602905,6.9415894,3.5844116,9.4776001L11.8241577,42.7837524C5.2330933,43.2194214,0,48.7053833,0,55.4052734
	c0,6.9824219,5.6811523,12.6630859,12.6640625,12.6630859s12.6635742-5.6806641,12.6635742-12.6630859
	c0-5.4940186-3.5223999-10.1682739-8.4223633-11.9179688l17.9810181-16.9766846
	c1.6704102,1.0769653,3.5758667,1.8103638,5.6220093,2.1195679v14.3085938C34.5506592,43.9667969,30,49.1581421,30,55.4052734
	c0,6.9824219,5.6811523,12.6630859,12.6640625,12.6630859s12.6635742-5.6806641,12.6635742-12.6630859
	c0-6.3553467-4.7097778-11.6165161-10.8193359-12.5141602V28.6778564c2.164856-0.2785645,4.1784058-1.0355225,5.9337769-2.1673584
	l17.9804077,16.9768677c-4.8996582,1.7496338-8.4219971,6.4238892-8.4219971,11.9179077
	c0,6.9824219,5.6806641,12.6630859,12.6630859,12.6630859c6.9833984,0,12.6640625-5.6806641,12.6640625-12.6630859
	C85.3276367,48.7053833,80.0950317,43.2194214,73.50354,42.7837524z M42.6640625,4
	c5.7368164,0,10.4047852,4.6674805,10.4047852,10.4047852s-4.6679688,10.4047852-10.4047852,10.4047852
	c-5.7373047,0-10.4047852-4.6674805-10.4047852-10.4047852S36.9267578,4,42.6640625,4z M21.3276367,55.4052734
	c0,4.7763672-3.8862305,8.6630859-8.6635742,8.6630859S4,60.1816406,4,55.4052734
	c0-4.7773438,3.8867188-8.6640625,8.6640625-8.6640625S21.3276367,50.6279297,21.3276367,55.4052734z M51.3276367,55.4052734
	c0,4.7763672-3.8867188,8.6630859-8.6635742,8.6630859C37.8867188,64.0683594,34,60.1816406,34,55.4052734
	c0-4.7773438,3.8867188-8.6640625,8.6640625-8.6640625C47.440918,46.7412109,51.3276367,50.6279297,51.3276367,55.4052734z
	 M72.6635742,64.0683594c-4.7763672,0-8.6630859-3.8867188-8.6630859-8.6630859
	c0-4.7773438,3.8867188-8.6640625,8.6630859-8.6640625c4.7773438,0,8.6640625,3.8867188,8.6640625,8.6640625
	C81.3276367,60.1816406,77.440918,64.0683594,72.6635742,64.0683594z"/>
</svg>
