<?xml version="1.0" encoding="utf-8"?>
<!-- Generator: Adobe Illustrator 17.1.0, SVG Export Plug-In . SVG Version: 6.00 Build 0)  -->
<!DOCTYPE svg PUBLIC "-//W3C//DTD SVG 1.1//EN" "http://www.w3.org/Graphics/SVG/1.1/DTD/svg11.dtd">
<svg version="1.1" id="Layer_1" xmlns="http://www.w3.org/2000/svg" xmlns:xlink="http://www.w3.org/1999/xlink" x="0px" y="0px"
	 viewBox="0 0 100 68.4664078" enable-background="new 0 0 100 68.4664078" xml:space="preserve">
<path fill="#262F07" d="M99.5632477,44.0600395c-2.0587921-6.2781906-7.0281677-12.5417519-11.8312988-18.5992126
	c-4.6558762-5.8700428-9.4608765-11.9412031-11.4026108-17.8022175C75.3495941,3.28106,71.5616989,0,67.0375137,0H18.5538502
	c-5.2679405,0-9.55863,4.4326534-9.55863,9.8771152v3.6938772C7.9915071,19.4410362,6.482512,25.3636932,4.9893947,31.1306877
	c-1.8941047,7.3258018-3.8579464,14.8953705-4.7467809,22.3811951c-0.2403433,1.9566803,0.3352976,3.8619919,1.629478,5.3737907
	c1.5164669,1.774868,3.7922568,2.7891655,6.2554641,2.7891655h1.3857107
	c1.2574434,3.9314156,4.8177624,6.7915688,9.0405836,6.7915688h48.4849091c3.2686081,0,6.155838-1.7129135,7.8793411-4.3112411
	h0.926506c2.3897324,0,4.646843-1.0062027,6.1922607-2.7617645c0.2658768-0.3050995,0.481308-0.6323051,0.6883392-0.9651108
	h0.6674881c2.5538025,0,4.9547424-1.0908852,6.4238892-2.9264603c1.1889496-1.4890709,1.6559372-3.3187294,1.317215-5.1539955
	c-0.0684891-0.3695412-0.1581497-0.7434425-0.2303772-1.1139221h1.2954254c2.8956375,0,5.4945831-1.1665382,6.788765-3.0534821
	C99.8387756,46.9429131,100.0392685,45.4781265,99.5632477,44.0600395z M3.6320152,57.278923
	c-0.5908959-0.6967468-1.2574441-1.8629723-1.060375-3.4684792c0.8701549-7.3211327,2.8094018-14.8116264,4.6848269-22.0543022
	c1.5264297-5.8937054,3.0659337-11.9412041,4.0824122-17.9802971h0.2148142c0.6472464,0,1.1708956-0.5432625,1.1708956-1.2123013
	c0-0.6186037-0.4483089-1.1045837-1.0239496-1.1802359c0.0996246-0.6690378,0.2291355-1.3436804,0.308835-2.0127192
	c0.3919592-3.2110119,3.2623806-5.7293243,6.5312986-5.7293243h48.4789963c1.7655258,0,3.4438858,0.7353508,4.4952316,1.9657094
	c0.5933838,0.6920767,1.2574387,1.8583026,1.0628662,3.4641194c-0.0930862,0.7593231-0.2334976,1.5220709-0.3465118,2.2801485
	h-0.1282654c-0.6453781,0-1.1724472,0.5389051-1.1724472,1.2135477c0,0.5843573,0.4062805,1.0485439,0.9430008,1.1606216
	c-1.0049591,5.8233433-2.5036774,11.6887169-3.9846573,17.4052773c-1.897522,7.3258018-3.8591843,14.8953705-4.7467766,22.3811951
	c-0.3941383,3.2203522-3.2645607,5.7395973-6.5344124,5.7395973H8.1275558
	C6.3651423,59.2502365,4.6870975,58.5151978,3.6320152,57.278923z M67.0387573,63.6131516H18.5538502
	c-1.5519581,0-2.9267721-0.7639923-3.8156071-1.9383125h41.8695526c4.4301605,0,8.3242188-3.4504204,8.8612595-7.8643951
	c0.8723373-7.3211327,2.8115845-14.8116264,4.6879425-22.0543022c0.5908966-2.2698746,1.1712036-4.5683918,1.7368851-6.8818512
	v33.7196693C71.8948135,61.3613358,69.7164688,63.6131516,67.0387573,63.6131516z M80.2990494,59.760498
	c-1.0519714,1.1986046-2.590538,1.8903694-4.2421265,1.9520111c0.3222275-0.9925041,0.5348587-2.0264168,0.5348587-3.1185493
	V28.6584511c0.3054123,1.433033,0.5999222,2.8794518,0.9096985,4.2928696
	c1.6493988,7.5602303,3.3532867,15.3732567,4.047226,23.016922C81.6782227,57.3542633,81.2299118,58.6979446,80.2990494,59.760498z
	 M88.0043564,55.9545441c-0.9651108,1.2076302-2.5516281,1.9327087-4.281662,2.0173874
	c0.1537933-0.7250748,0.235672-1.4694557,0.1628265-2.2278442c-0.7051544-7.8027534-2.4264755-15.6923637-4.0892639-23.3266907
	c-0.7026596-3.2066536-1.4012756-6.4693451-2.0379333-9.7379513c1.1347809,2.9024868,2.3614044,5.7912769,3.5911331,8.6423969
	c3.0516205,7.0593071,6.2078323,14.362381,7.4752426,21.4786606C89.0902557,54.2313576,88.5258255,55.3085442,88.0043564,55.9545441
	z M97.0670395,46.7841377c-0.8334122,1.2135468-2.7863617,2.0264168-4.8681946,2.0264168h-1.8486481
	c-1.5718842-6.2165489-4.2430573-12.4330978-6.8557053-18.47686c-2.0323334-4.7094212-4.0957947-9.5215797-5.6343689-14.3153725
	c2.3181305,3.7072659,5.2062988,7.3771706,8.0608444,10.9773407c4.6670761,5.8893433,9.49543,11.9788742,11.4228439,17.8591919
	C97.5785522,45.5388336,97.4879532,46.1702042,97.0670395,46.7841377z M23.2044296,24.9178753c0.74687,0,1.4952984,0,2.2424793,0
	c-1.7225647,6.9805412-3.7159824,13.9548588-5.1119652,20.9344654c-0.7471828,0-1.4974766,0-2.2449703,0
	c1.2378311-6.198494,2.9501209-12.3910675,4.5220051-18.5799103c-1.6727524,1.1469231-3.3529778,2.2938461-5.0344467,3.4351673
	c0.2104568-0.8004189,0.4162426-1.6055069,0.6254539-2.4062366C19.8754272,27.1740513,21.5403957,26.0510998,23.2044296,24.9178753z
	 M64.9519424,25.8359737c0,0.6690388-0.5915146,1.2923126-1.2443695,1.2923126H38.8111801
	c-0.6478691,0-1.2449913-0.6232738-1.2449913-1.2923126c0-0.6746426,0.5961914-1.2923126,1.2449913-1.2923126h24.8963928
	C64.3604279,24.5436611,64.9519424,25.1622658,64.9519424,25.8359737z M63.7075729,31.0052242
	c0,0.6690388-0.595253,1.2920017-1.2449875,1.2920017H37.5661888c-0.6509819,0-1.2446785-0.6220303-1.2446785-1.2920017
	c0-0.6690388,0.5936966-1.2923126,1.2446785-1.2923126h24.8963966
	C63.1135674,29.7129116,63.7075729,30.3361855,63.7075729,31.0052242z M52.5039024,36.1741638
	c0,0.6702843-0.5958786,1.2923126-1.2446785,1.2923126H36.3215103c-0.6497345,0-1.2449913-0.6220284-1.2449913-1.2923126
	c0-0.6687279,0.5952568-1.2923126,1.2449913-1.2923126h14.9377136
	C51.9077148,34.8830948,52.5039024,35.5054359,52.5039024,36.1741638z M61.9632187,12.5635433
	c0-0.6746426,0.5214691-1.2135477,1.1733856-1.2135477h2.2406082c0.6484909,0,1.174324,0.5389051,1.174324,1.2135477
	c0,0.6690388-0.5258331,1.2123013-1.174324,1.2123013h-2.2406082
	C62.4834442,13.7758446,61.9632187,13.2325821,61.9632187,12.5635433z M52.9905052,12.5635433
	c0-0.6746426,0.5276947-1.2135477,1.1743202-1.2135477h2.2402954c0.6500511,0,1.1755676,0.5389051,1.1755676,1.2135477
	c0,0.6690388-0.5255165,1.2123013-1.1755676,1.2123013h-2.2402954
	C53.5181999,13.7758446,52.9905052,13.2325821,52.9905052,12.5635433z M18.2805061,13.7758446
	c-0.6475582,0-1.1733875-0.5432625-1.1733875-1.2123013c0-0.6746426,0.5258293-1.2135477,1.1733875-1.2135477h2.2427883
	c0.6519165,0,1.1730747,0.5389051,1.1730747,1.2135477c0,0.6690388-0.5211582,1.2123013-1.1730747,1.2123013H18.2805061z
	 M44.0205917,12.5635433c0-0.6746426,0.5233383-1.2135477,1.1712074-1.2135477h2.2427902
	c0.6497345,0,1.1755638,0.5389051,1.1755638,1.2135477c0,0.6690388-0.5258293,1.2123013-1.1755638,1.2123013h-2.2427902
	C44.5439301,13.7758446,44.0205917,13.2325821,44.0205917,12.5635433z M30.6715736,12.5635433
	c0,0.6690388-0.5280075,1.2123013-1.1764984,1.2123013H27.252285c-0.6475563,0-1.1743202-0.5432625-1.1743202-1.2123013
	c0-0.6746426,0.5258293-1.2135477,1.1743202-1.2135477h2.2427902
	C30.1435661,11.3512411,30.6715736,11.8889008,30.6715736,12.5635433z M35.0488129,12.5635433
	c0-0.6746426,0.5233383-1.2135477,1.1743202-1.2135477h2.2427864c0.6472473,0,1.1755676,0.5389051,1.1755676,1.2135477
	c0,0.6690388-0.5283203,1.2123013-1.1755676,1.2123013h-2.2427864
	C35.5721512,13.7758446,35.0488129,13.2325821,35.0488129,12.5635433z"/>
</svg>
