<?xml version="1.0" encoding="utf-8"?>
<!-- Generator: Adobe Illustrator 17.1.0, SVG Export Plug-In . SVG Version: 6.00 Build 0)  -->
<!DOCTYPE svg PUBLIC "-//W3C//DTD SVG 1.1//EN" "http://www.w3.org/Graphics/SVG/1.1/DTD/svg11.dtd">
<svg version="1.1" id="Layer_1" xmlns="http://www.w3.org/2000/svg" xmlns:xlink="http://www.w3.org/1999/xlink" x="0px" y="0px"
	 viewBox="0 0 60 60" enable-background="new 0 0 60 60" xml:space="preserve">
<g id="base">
	<g>
		
			<linearGradient id="SVGID_1_" gradientUnits="userSpaceOnUse" x1="-12.6099606" y1="85" x2="-12.6099606" y2="90.3407974" gradientTransform="matrix(4 0 3.0474641 -4 -185.8804321 400)">
			<stop  offset="0" style="stop-color:#000000;stop-opacity:0.4"/>
			<stop  offset="1" style="stop-color:#000000;stop-opacity:0"/>
		</linearGradient>
		<path fill="url(#SVGID_1_)" d="M10.9777107,51.3203468c-1.2281895-1.3760834-1.2459393-2.8060074-0.0538082-4.3707581
			c3.5513048-4.6613235,15.8794746-8.3127785,28.0664539-8.3127785c12.1864014,0,18.9507294,3.6514549,15.3994217,8.3127785
			c-1.1922951,1.5649719-3.388279,2.9948997-6.7130814,4.3707581l-24.9622326,8.6796608L10.9777107,51.3203468z"/>
		
			<linearGradient id="SVGID_2_" gradientUnits="userSpaceOnUse" x1="5.7339597" y1="85.5998688" x2="5.7339597" y2="99.6992722" gradientTransform="matrix(4 0 0 -4 0 400)">
			<stop  offset="0" style="stop-color:#006699"/>
			<stop  offset="1" style="stop-color:#007BB8"/>
		</linearGradient>
		<path fill="url(#SVGID_2_)" d="M4.5866413,34.686718C2.3100612,31.0539417,1.202901,27.2790241,1.202901,23.1481705
			c0-12.3056307,9.5462475-21.9452667,21.7332325-21.9452667c12.1863976,0,21.7326431,9.639637,21.7326431,21.9452667
			c0,4.131443-1.1065712,7.9063587-3.383152,11.5385475L22.9361343,57.6005287L4.5866413,34.686718z"/>
		<path fill="#FFFFFF" d="M22.9358578,2.4058051c11.5122089,0,20.5301151,9.1112213,20.5301151,20.7425861
			c0,3.8765488-1.0349464,7.4239712-3.1630898,10.8400307L22.9358578,55.6755371L5.5689535,33.9884758
			c-2.1281793-3.4162006-3.163157-6.9636707-3.163157-10.8400841C2.4057965,11.5170269,11.4236746,2.4058051,22.9358578,2.4058051
			 M22.9358578,0.0000076C10.1573973,0.0000076,0,10.25142,0,23.1483917c0,4.6296749,1.3107049,8.5979481,3.6042993,12.2355232
			l19.3315582,24.1404457l19.3316555-24.1404457c2.2936401-3.6375751,3.6042557-7.6058483,3.6042557-12.2355232
			C45.871769,10.25142,35.7144241,0.0000076,22.9358578,0.0000076L22.9358578,0.0000076z"/>
	</g>
</g>
<g>
	<path opacity="0.6" enable-background="new    " d="M32.4896622,16.5797501v-3.9040909h-0.3563614
		c-1.0697041,0-1.9311943,0.8745613-1.9311943,1.9526672c0,1.0805979,0.8617992,1.9517365,1.9311943,1.9517365h0.3563614V16.5797501
		z"/>
	<path opacity="0.6" enable-background="new    " d="M29.5765324,15.6899385l-1.6884346-3.409234
		c-0.3753471-0.701828-1.1002045-1.1739664-1.9498672-1.1739664h-3.9187202c-0.3681889,0-0.6604366,0.299716-0.6604366,0.6716394
		c0,0.368185,0.2919369,0.6669693,0.6604366,0.6669693l3.9187202-0.0034237c0.3187008,0,0.6713276,0.218173,0.8085785,0.5216246
		l1.0771751,2.1745777L29.5765324,15.6899385z"/>
	<path opacity="0.6" enable-background="new    " d="M37.3610611,19.3410015
		c0.5088692,0.1456547,0.8842125,0.6252632,0.8842125,1.185791l-2.8527527,0.0040474
		c-3.7559433,0-6.8057041,3.0871124-6.8057041,6.8835163h-9.2915192c0-3.0522499-1.9651184-5.6370335-4.6775036-6.5424042
		l-5.1216326-1.7033749l0.8499746-1.3115292c0.2994061-0.4565792,0.8191624-0.7597179,1.4070787-0.7597179
		c0.1325865,0,0.2539654,0.0118256,0.3641434,0.0345459l11.4075804,3.5744972
		c0.1403656,0.0426388,0.2847786,0.0694046,0.4400845,0.0694046c0.5157108,0,0.9638844-0.2648582,1.2327862-0.6679039
		l2.5913162-3.7886238L37.3610611,19.3410015z"/>
	<path opacity="0.6" enable-background="new    " d="M34.3601646,30.3639011c0.9638863,0,1.7376137-0.7902184,1.7376137-1.7528591
		c0-0.9744682-0.7737274-1.7569046-1.7376137-1.7569046c-0.9520531,0-1.7257767,0.7824364-1.7257767,1.7569046
		C32.6343842,29.5733719,33.4081078,30.3639011,34.3601646,30.3639011 M29.7209435,28.611042
		c0-2.5962982,2.0787163-4.6899529,4.6392212-4.6899529c2.5570831-0.0003109,4.6358032,2.0936546,4.6358032,4.6899529
		c0,2.5888271-2.0787201,4.6905746-4.6358032,4.6905746C31.7993488,33.3016167,29.7209435,31.1998692,29.7209435,28.611042"/>
	<path opacity="0.6" enable-background="new    " d="M12.9863157,30.0374203c1.0472956,0,1.9044285-0.8590031,1.9044285-1.9249725
		c0-1.0665932-0.8571329-1.9290142-1.9044285-1.9290142c-1.0581875,0-1.9078512,0.8624229-1.9078512,1.9290142
		C11.0784645,29.1784172,11.9281282,30.0374203,12.9863157,30.0374203 M7.8727756,28.1087112
		c0-2.8421669,2.2835097-5.1549339,5.1026483-5.1549339c2.8225603,0,5.0986004,2.3130779,5.0986004,5.1549339
		c0,2.8493309-2.2760401,5.1620941-5.0986004,5.1620941C10.1562853,33.2708054,7.8727756,30.9583549,7.8727756,28.1087112"/>
	<path fill="#FFFFFF" d="M31.8841763,15.9742641v-3.9040918h-0.3563614c-1.0697021,0-1.9311924,0.8745613-1.9311924,1.9526701
		c0,1.080596,0.8617992,1.9517336,1.9311924,1.9517336h0.3563614V15.9742641z"/>
	<path fill="#FFFFFF" d="M28.9710464,15.0844526l-1.6884346-3.409234c-0.3753452-0.701827-1.1002045-1.1739664-1.9498672-1.1739664
		h-3.9187202c-0.3681889,0-0.6604347,0.299716-0.6604347,0.6716385c0,0.3681879,0.291935,0.6669703,0.6604347,0.6669703
		l3.9187202-0.0034237c0.3187008,0,0.6713295,0.218173,0.8085785,0.5216236l1.0771751,2.1745787L28.9710464,15.0844526z"/>
	<path fill="#FFFFFF" d="M36.7555771,18.7355137c0.5088654,0.1456604,0.8842125,0.625267,0.8842125,1.1857948l-2.8527527,0.0040436
		c-3.7559471,0-6.8057079,3.0871124-6.8057079,6.8835182h-9.2915173c0-3.052248-1.9651165-5.6370316-4.6775036-6.5424042
		l-5.1216326-1.7033749l0.8499737-1.3115292c0.2994061-0.4565773,0.8191633-0.7597179,1.4070807-0.7597179
		c0.1325846,0,0.2539644,0.0118256,0.3641415,0.0345459l11.4075813,3.5744991
		c0.1403675,0.0426388,0.2847786,0.0694027,0.4400826,0.0694027c0.5157108,0,0.9638844-0.2648563,1.2327881-0.6679039
		l2.5913181-3.7886238L36.7555771,18.7355137z"/>
	<path fill="#FFFFFF" d="M33.7546806,29.7584133c0.9638863,0,1.737606-0.7902164,1.737606-1.7528572
		c0-0.9744663-0.7737198-1.7569046-1.737606-1.7569046c-0.9520569,0-1.7257805,0.7824383-1.7257805,1.7569046
		C32.0289001,28.9678822,32.8026237,29.7584133,33.7546806,29.7584133 M29.1154556,28.0055561
		c0-2.5962963,2.0787201-4.6899548,4.639225-4.6899548c2.5570755-0.000309,4.6357956,2.0936584,4.6357956,4.6899548
		c0,2.5888271-2.0787201,4.6905766-4.6357956,4.6905766C31.1938648,32.6961327,29.1154556,30.5943832,29.1154556,28.0055561"/>
	<path fill="#FFFFFF" d="M12.3808289,29.4319305c1.0472965,0,1.9044285-0.8589993,1.9044285-1.9249668
		c0-1.0665951-0.857132-1.9290142-1.9044285-1.9290142c-1.0581875,0-1.9078512,0.8624229-1.9078512,1.9290142
		C10.4729776,28.5729313,11.3226414,29.4319305,12.3808289,29.4319305 M7.2672906,27.5032253
		c0-2.8421688,2.2835078-5.154932,5.1026464-5.154932c2.8225613,0,5.0986013,2.313076,5.0986013,5.154932
		c0,2.8493271-2.2760401,5.1620922-5.0986013,5.1620922C9.5507984,32.6653175,7.2672906,30.3528671,7.2672906,27.5032253"/>
</g>
</svg>
