<?xml version="1.0" encoding="utf-8"?>
<!-- Generator: Adobe Illustrator 17.1.0, SVG Export Plug-In . SVG Version: 6.00 Build 0)  -->
<!DOCTYPE svg PUBLIC "-//W3C//DTD SVG 1.1//EN" "http://www.w3.org/Graphics/SVG/1.1/DTD/svg11.dtd">
<svg version="1.1" id="Layer_1" xmlns="http://www.w3.org/2000/svg" xmlns:xlink="http://www.w3.org/1999/xlink" x="0px" y="0px"
	 viewBox="0 0 50 50" enable-background="new 0 0 50 50" xml:space="preserve">
<g id="base">
	<g>
		
			<linearGradient id="SVGID_1_" gradientUnits="userSpaceOnUse" x1="-22.579422" y1="6.2374568" x2="-22.579422" y2="3.9943411" gradientTransform="matrix(8 0 -6.0949283 8 237.7319641 0)">
			<stop  offset="0" style="stop-color:#000000;stop-opacity:0.4"/>
			<stop  offset="1" style="stop-color:#000000;stop-opacity:0"/>
		</linearGradient>
		<path fill="url(#SVGID_1_)" d="M9.2211933,42.6088028c-1.0316696-1.155899-1.0465803-2.3570213-0.0451984-3.671402
			c2.9830694-3.9154739,13.3386364-6.9826717,23.5756073-6.9826717c10.2364845,0,15.9184685,3.0671978,12.9353981,6.9826717
			c-1.0015221,1.3145676-2.8461304,2.5156937-5.6389351,3.671402L19.079977,49.8996544L9.2211933,42.6088028z"/>
		
			<linearGradient id="SVGID_2_" gradientUnits="userSpaceOnUse" x1="2.4082413" y1="6.0480018" x2="2.4082413" y2="0.1263049" gradientTransform="matrix(8 0 0 8 0 0)">
			<stop  offset="0" style="stop-color:#007BB8"/>
			<stop  offset="1" style="stop-color:#0094DE"/>
		</linearGradient>
		<path fill="url(#SVGID_2_)" d="M3.8527436,29.1365891c-1.9123098-3.051506-2.8423162-6.2224083-2.8423162-9.6922932
			c0-10.3366356,8.018775-18.433857,18.2557507-18.433857c10.2364826,0,18.2552528,8.0972223,18.2552528,18.433857
			c0,3.4703808-0.929512,6.6412811-2.8418198,9.6922932L19.2661781,48.3840141L3.8527436,29.1365891z"/>
		<path fill="#FFFFFF" d="M19.2659454,2.0208666c9.6701679,0,17.2451401,7.6533575,17.2451401,17.4236145
			c0,3.2562714-0.8693466,6.2360802-2.656971,9.1055431L19.2659454,46.7670326L4.6778784,28.5500717
			c-1.7876544-2.869585-2.6570275-5.849432-2.6570275-9.1055908C2.0208507,9.6742239,9.5957994,2.0208666,19.2659454,2.0208666
			 M19.2659454,0.0000152C8.532136,0.0000152,0,8.611124,0,19.4444809c0,3.8888931,1.1009821,7.2222099,3.0275838,10.2777481
			l16.2383614,20.2777863L35.5043907,29.722229c1.9266396-3.0555382,3.0275459-6.388855,3.0275459-10.2777481
			C38.5319366,8.611124,29.9998436,0.0000152,19.2659454,0.0000152L19.2659454,0.0000152z"/>
	</g>
</g>
<g>
	<path opacity="0.6" enable-background="new    " d="M27.6131248,13.8340254v-3.2575445h-0.2973442
		c-0.8925533,0-1.6113739,0.7297277-1.6113739,1.6292915c0,0.9016428,0.71908,1.6285133,1.6113739,1.6285133h0.2973442V13.8340254z"
		/>
	<path opacity="0.6" enable-background="new    " d="M25.1824322,13.0915728l-1.4088173-2.8446388
		c-0.3131866-0.5856009-0.9179993-0.9795485-1.626955-0.9795485h-3.2697506c-0.3072147,0-0.5510616,0.2500811-0.5510616,0.5604095
		c0,0.3072119,0.2435875,0.5565147,0.5510616,0.5565147l3.2697506-0.0028563c0.2659225,0,0.5601521,0.1820421,0.6746731,0.4352388
		l0.8987846,1.8144531L25.1824322,13.0915728z"/>
	<path opacity="0.6" enable-background="new    " d="M31.6777859,16.137991
		c0.424593,0.1215363,0.7377796,0.521719,0.7377796,0.989418l-2.3803158,0.003376
		c-3.1339321,0-5.6786289,2.5758629-5.6786289,5.7435551h-7.7527752c0-2.5467739-1.639678-4.7034988-3.902873-5.4589329
		l-4.2734518-1.4212837l0.7092133-1.0943308c0.2498217-0.3809662,0.6835032-0.6339025,1.1740551-0.6339025
		c0.1106291,0,0.2119074,0.0098667,0.3038378,0.0288248l9.5184011,2.9825335
		c0.1171207,0.0355778,0.2376175,0.0579109,0.3672028,0.0579109c0.4303036,0,0.8042564-0.2209969,1.0286274-0.5572929
		l2.1621761-3.1612005L31.6777859,16.137991z"/>
	<path opacity="0.6" enable-background="new    " d="M29.1738586,25.3354168c0.8042603,0,1.4498501-0.6593513,1.4498501-1.4625721
		c0-0.8130875-0.6455898-1.4659481-1.4498501-1.4659481c-0.7943878,0-1.4399776,0.6528606-1.4399776,1.4659481
		C27.7338791,24.6758041,28.3794689,25.3354168,29.1738586,25.3354168 M25.302927,23.8728447
		c0-2.1663303,1.7344666-3.9132614,3.8709297-3.9132614c2.1336117-0.0002594,3.8680782,1.7469311,3.8680782,3.9132614
		c0,2.1600971-1.7344666,3.9137821-3.8680782,3.9137821C27.0371323,27.7866268,25.302927,26.0329418,25.302927,23.8728447"/>
	<path opacity="0.6" enable-background="new    " d="M11.3396797,25.0630035c0.8738556,0,1.5890398-0.7167454,1.5890398-1.6061802
		c0-0.8899593-0.7151842-1.6095562-1.5890398-1.6095562c-0.8829441,0-1.5918961,0.7195988-1.5918961,1.6095562
		C9.7477837,24.3462582,10.4567356,25.0630035,11.3396797,25.0630035 M7.0729804,23.4537048
		c0-2.3714848,1.9053426-4.3012371,4.2576108-4.3012371c2.3551245,0,4.2542334,1.9300117,4.2542334,4.3012371
		c0,2.3774586-1.8991089,4.3072109-4.2542334,4.3072109C8.978323,27.7609158,7.0729804,25.8314266,7.0729804,23.4537048"/>
	<path fill="#FFFFFF" d="M27.1079121,13.3288126v-3.2575455h-0.2973442c-0.8925533,0-1.6113739,0.7297287-1.6113739,1.6292925
		c0,0.9016428,0.71908,1.6285133,1.6113739,1.6285133h0.2973442V13.3288126z"/>
	<path fill="#FFFFFF" d="M24.6772194,12.58636l-1.4088173-2.8446388c-0.3131866-0.5855999-0.9180012-0.9795485-1.626955-0.9795485
		h-3.2697506c-0.3072128,0-0.5510616,0.2500801-0.5510616,0.5604095c0,0.3072128,0.2435894,0.5565147,0.5510616,0.5565147
		l3.2697506-0.0028563c0.2659225,0,0.5601521,0.1820421,0.6746731,0.4352388l0.8987846,1.8144522L24.6772194,12.58636z"/>
	<path fill="#FFFFFF" d="M31.1725731,15.6327791c0.4245949,0.1215353,0.7377796,0.5217161,0.7377796,0.989419l-2.3803158,0.0033722
		c-3.133934,0-5.6786308,2.5758648-5.6786308,5.743557h-7.7527733c0-2.5467758-1.639678-4.7034988-3.9028721-5.4589329
		l-4.2734523-1.4212837l0.7092118-1.0943308c0.2498217-0.3809652,0.6835041-0.6339016,1.174057-0.6339016
		c0.1106281,0,0.2119064,0.0098658,0.3038368,0.0288229l9.5184011,2.9825344
		c0.1171207,0.0355797,0.2376175,0.0579128,0.3672028,0.0579128c0.4303036,0,0.8042564-0.2209969,1.0286274-0.5572948
		l2.1621761-3.1612015L31.1725731,15.6327791z"/>
	<path fill="#FFFFFF" d="M28.6686478,24.8302021c0.8042603,0,1.4498463-0.6593513,1.4498463-1.4625702
		c0-0.8130875-0.645586-1.4659481-1.4498463-1.4659481c-0.7943878,0-1.4399796,0.6528606-1.4399796,1.4659481
		C27.2286663,24.1705914,27.874258,24.8302021,28.6686478,24.8302021 M24.7977142,23.3676319
		c0-2.1663303,1.7344666-3.9132614,3.8709316-3.9132614c2.1336079-0.0002594,3.8680782,1.7469311,3.8680782,3.9132614
		c0,2.160099-1.7344704,3.913784-3.8680782,3.913784C26.5319195,27.2814159,24.7977142,25.5277309,24.7977142,23.3676319"/>
	<path fill="#FFFFFF" d="M10.8344669,24.5577908c0.8738556,0,1.5890398-0.7167454,1.5890398-1.6061802
		c0-0.8899593-0.7151842-1.6095562-1.5890398-1.6095562c-0.8829441,0-1.591897,0.7195988-1.591897,1.6095562
		C9.2425699,23.8410454,9.9515228,24.5577908,10.8344669,24.5577908 M6.5677681,22.9484921
		c0-2.3714848,1.9053421-4.3012371,4.2576103-4.3012371c2.3551245,0,4.2542334,1.9300117,4.2542334,4.3012371
		c0,2.3774567-1.8991089,4.3072109-4.2542334,4.3072109C8.4731102,27.255703,6.5677681,25.3262119,6.5677681,22.9484921"/>
</g>
</svg>
