<?xml version="1.0" encoding="utf-8"?>
<!-- Generator: Adobe Illustrator 17.1.0, SVG Export Plug-In . SVG Version: 6.00 Build 0)  -->
<!DOCTYPE svg PUBLIC "-//W3C//DTD SVG 1.1//EN" "http://www.w3.org/Graphics/SVG/1.1/DTD/svg11.dtd">
<svg version="1.1" id="Layer_1" xmlns="http://www.w3.org/2000/svg" xmlns:xlink="http://www.w3.org/1999/xlink" x="0px" y="0px"
	 viewBox="0 0 50 50" enable-background="new 0 0 50 50" xml:space="preserve">
<g>
	<linearGradient id="SVGID_1_" gradientUnits="userSpaceOnUse" x1="25.0671387" y1="47.8847656" x2="25.0671387" y2="1">
		<stop  offset="0" style="stop-color:#007BB8"/>
		<stop  offset="1" style="stop-color:#0094DE"/>
	</linearGradient>
	<path fill="url(#SVGID_1_)" d="M9.8129883,28.8359375C7.9204102,25.815918,7,22.6777344,7,19.2436523
		C7,9.0136719,14.9360352,1,25.0673828,1c10.1308594,0,18.0668945,8.0136719,18.0668945,18.2436523
		c0,3.4345703-0.9199219,6.5727539-2.8125,9.5922852L25.0673828,47.8847656L9.8129883,28.8359375z"/>
	<path fill="#FFFFFF" d="M25.067152,2.0000019c9.5703907,0,17.0672016,7.5743885,17.0672016,17.2438335
		c0,3.2226715-0.8603783,6.1717339-2.6295547,9.0115891L25.067152,46.2844696L10.6296091,28.2554703
		c-1.7692089-2.8399734-2.629612-5.7890739-2.629612-9.0116348C7.9999971,9.5743904,15.4967861,2.0000019,25.067152,2.0000019
		 M25.067152,0.0000019c-10.6230545,0-19.0671539,8.5222569-19.0671539,19.2438335
		c0,3.8487663,1.089622,7.1476898,2.9963446,10.1716995L25.067152,49.4840927L41.1380424,29.415535
		c1.906765-3.0240097,2.9963112-6.3229332,2.9963112-10.1716995C44.1343536,8.5222588,35.6902962,0.0000019,25.067152,0.0000019
		L25.067152,0.0000019z"/>
</g>
<g opacity="0.6">
	<g>
		<path d="M37.3308105,13.2075806h-0.2236328v-3.1125488c0-0.3510742-0.5245972-0.3510742-0.5245972,0v3.1125488h-0.1530762
			c-0.5594482-0.0547485-3.1887817-0.3344727-3.6965332-0.5957031c-0.5101929-0.2664185-1.0456543-0.5679321-1.5452271-0.8234253
			c-0.4586792-0.2285156-0.7264404-0.2116699-1.2232666-0.1279907c-0.2811279,0.0544434-1.9355469,0.3614502-3.5380249,0.7667236
			c-1.9793701,0.4973755-4.4232178,1.6446533-4.4232178,1.6446533l-2.7930298,0.0109253
			c-0.6390381-0.1846924-0.8901367-1.3755493-1.1690674-1.8995972l-0.7035522-1.4134521
			c-0.052063-0.1173706-0.180603-0.1522217-0.3034668-0.1582642l-1.7802734-0.105957
			c-0.2672119-0.0160522-0.1661987,0.2070312-0.1282959,0.3345337l1.22052,4.7650757
			c0.1280518,0.5325317,0.8710938,1.0410767,1.3924561,1.0958252l7.1887207,1.0976562h0.9909668l0.0114136-1.8848877
			l0.1245117-0.0372925c0.0800781-0.0234375,2.0426025-0.6033325,2.7556763-0.5548706
			c1.1325684,0.0770874,1.9633789,1.7174072,2.2896729,2.4770508l0.6610718,1.7386475
			c-0.2895508,0.1843872-0.4823608,0.5061035-0.4823608,0.873291c0,0.5739136,0.4668579,1.0383301,1.0429688,1.0383301
			c0.5760498,0,1.0426636-0.4647217,1.0426636-1.0383301c0-0.5692749-0.4606323-1.0307007-1.0310059-1.0367432l-0.5962524-1.5914917
			c0.6333008-0.1008301,1.8293457-0.2909546,2.5171509-0.4867554c0.296875-0.0759888,0.6008911-0.3829956,0.6880493-0.5597534
			l1.640564-2.4901733v3.1182861c0,0.3505249,0.5245972,0.3505249,0.5245972,0v-3.2185059h0.2236328
			C37.9586792,14.1453857,37.9586792,13.2075806,37.3308105,13.2075806z M24.9631958,14.2998047v0.0003052
			c-0.1064453,0-0.2181396-0.0629272-0.2181396-0.2285156v-0.2606812c0-0.1413574,0.0593872-0.2285156,0.1882324-0.2908936
			c0.147583-0.0675659,1.0296021-0.418396,1.5620728-0.557312c0.9604492-0.2391357,1.9680176-0.4570923,2.6756592-0.595459
			l0.6575317,1.9325562H24.9631958z M32.5150757,13.4301147c-0.0631714,0.1065063-0.4205322,0.7155762-0.4205322,0.7155762
			s-0.0762939,0.1549683-0.319519,0.1549683H30.552002l-0.6992188-2.06604
			c0.0547485-0.0109253,0.1116943-0.0217896,0.1498413-0.0272217c0.4368896-0.0787354,0.5875244-0.0787354,0.9119263,0.0866089
			c0,0,1.3927002,0.715271,1.4885864,0.7694702C32.520813,13.1204224,32.5940552,13.2919922,32.5150757,13.4301147z
			 M26.2949219,19.8787842c-0.2745972-0.0759888-0.5603027,0.0861206-0.6390381,0.3614502
			c-0.0778809,0.2753906,0.0809326,0.5587158,0.3554688,0.6347046c0.2748413,0.0765381,0.5608521-0.0866699,0.6392822-0.3614502
			C26.7290649,20.2383423,26.5697632,19.9539795,26.2949219,19.8787842z M19.1295776,23.7850952
			c-0.274292-0.0751953-0.5608521,0.086853-0.6390381,0.3622437c-0.078186,0.2748413,0.0811768,0.5592041,0.3557739,0.6343994
			c0.2745361,0.0754395,0.560791-0.0866089,0.6387329-0.3619995C19.5632324,24.1445923,19.4044189,23.8602295,19.1295776,23.7850952
			z M20.9943237,22.6525269c0.274292,0.0751343,0.5605469-0.0869141,0.6387329-0.3615112
			c0.078186-0.2753296-0.0806274-0.5599976-0.3557129-0.6346436c-0.274292-0.0756836-0.5608521,0.0869141-0.6392822,0.3617554
			C20.5595703,22.2935181,20.7191772,22.5773315,20.9943237,22.6525269z M21.7131348,24.5003662
			c0.078186-0.2751465-0.0806274-0.5592041-0.3554688-0.6343994c-0.2748413-0.0759888-0.5608521,0.0860596-0.6389771,0.3622437
			c-0.078186,0.274292,0.0806274,0.5578613,0.3554077,0.6343994C21.3492432,24.9378052,21.6349487,24.7757568,21.7131348,24.5003662
			z M20.3098145,24.9437866c-0.2745361-0.0762329-0.5605469,0.0863647-0.6390381,0.3617554
			c-0.0784302,0.2748413,0.0806274,0.5586548,0.3554688,0.6343384c0.2745972,0.0755005,0.5608521-0.0871582,0.6390381-0.3619995
			C20.7429199,25.3030396,20.5838013,25.0189819,20.3098145,24.9437866z M19.3126221,26.0916138
			c-0.2748413-0.0757446-0.5605469,0.0860596-0.6390381,0.3614502c-0.0786743,0.2751465,0.0803833,0.55896,0.3552246,0.6349487
			c0.2748413,0.0751953,0.560791-0.0866089,0.6395264-0.3617554C19.7457275,26.4508667,19.5866089,26.1668091,19.3126221,26.0916138
			z M18.2130127,27.2217407c-0.2748413-0.0762939-0.5606079,0.0863647-0.6390381,0.3617554
			c-0.0787354,0.2747803,0.0806274,0.5586548,0.3552246,0.6346436c0.2747803,0.0751343,0.560791-0.0874634,0.6395264-0.3619995
			C18.6461182,27.5812988,18.4869995,27.2971802,18.2130127,27.2217407z M20.2575073,22.7336426
			c-0.2748413-0.0751343-0.5608521,0.0869141-0.6389771,0.3623047c-0.078186,0.2748413,0.0808716,0.5586548,0.3557129,0.6340942
			c0.2745361,0.0757446,0.5608521-0.0863647,0.6387329-0.3616943
			C20.6911621,23.0935059,20.5317993,22.8091431,20.2575073,22.7336426z M24.6494141,22.1660156
			c-0.274292-0.0757446-0.5605469,0.0863647-0.6389771,0.3614502c-0.0776367,0.2753906,0.0808716,0.5592041,0.3560181,0.6346436
			c0.2745361,0.0759888,0.5605469-0.086853,0.6389771-0.3614502C25.083374,22.5255737,24.9242554,22.2412109,24.6494141,22.1660156z
			 M23.0047607,24.4099121c-0.2745361-0.0751953-0.560791,0.0869141-0.6389771,0.3614502
			c-0.0779419,0.2756348,0.0808716,0.5595093,0.3557129,0.635498c0.2745972,0.0751343,0.5603027-0.0874634,0.6390381-0.3617554
			C23.4384155,24.7697144,23.2796021,24.4853516,23.0047607,24.4099121z M22.0688477,25.5005493
			c-0.2748413-0.0751953-0.560791,0.0869141-0.6392822,0.3616943c-0.0778809,0.2756958,0.0809326,0.5592041,0.3557739,0.6352539
			c0.2748413,0.0751343,0.5602417-0.0869141,0.6389771-0.3617554C22.5025024,25.8603516,22.343689,25.5759888,22.0688477,25.5005493
			z M25.4725952,21.022522c-0.2751465-0.0751343-0.5608521,0.0861206-0.6392822,0.3615112
			c-0.0779419,0.2753296,0.0808716,0.5588989,0.3557129,0.6346436c0.2748413,0.0756836,0.5603027-0.0869141,0.6390381-0.3614502
			C25.9064941,21.3818359,25.7474365,21.0977173,25.4725952,21.022522z M19.0922241,19.8101807
			c-0.2750854-0.074646-0.5610962,0.0866089-0.6387329,0.3614502c-0.0784302,0.2759399,0.0800781,0.5599976,0.3549194,0.6351929
			c0.2751465,0.0754395,0.5611572-0.0866089,0.6392822-0.3606567
			C19.5256348,20.1707764,19.3665161,19.8861694,19.0922241,19.8101807z M23.8268433,23.3097534
			c-0.274292-0.0757446-0.5603027,0.0860596-0.6387329,0.3614502c-0.0779419,0.2748413,0.0806274,0.5586548,0.3554688,0.6343994
			c0.2750854,0.0759888,0.5605469-0.0866089,0.6392822-0.3619995
			C24.2610474,23.6690063,24.1016846,23.3849487,23.8268433,23.3097534z M17.9136353,20.789917
			c-0.2745361-0.0751343-0.5599976,0.0869141-0.6387329,0.3623047c-0.0778809,0.274292,0.0811768,0.5586548,0.3557129,0.6346436
			c0.274292,0.0751953,0.5606079-0.0869141,0.6387939-0.3623047C18.34729,21.1497803,18.1890259,20.8651123,17.9136353,20.789917z
			 M25.3867798,20.0147095c0.0778809-0.2756348-0.0811768-0.5597534-0.3557129-0.6348877
			c-0.2745972-0.0755005-0.5606079,0.0866089-0.6390381,0.361145c-0.0784302,0.2753906,0.0809326,0.5595093,0.3554688,0.6346436
			C25.0220337,20.4516602,25.3083496,20.2895508,25.3867798,20.0147095z M20.2161255,18.8012695
			c-0.2751465-0.0751953-0.5610962,0.086853-0.6392822,0.3616943c-0.0779419,0.2753906,0.0806274,0.5600586,0.3554688,0.6346436
			c0.2748413,0.0751953,0.5610962-0.0860596,0.6389771-0.3616943C20.6494751,19.161377,20.4906616,18.8769531,20.2161255,18.8012695
			z M22.0661621,23.7237549c0.2739868,0.0751953,0.5605469-0.0866089,0.6389771-0.3619995
			c0.0784912-0.2747803-0.0808716-0.5592041-0.3557129-0.6348877c-0.2745361-0.0748901-0.5605469,0.0863647-0.6392822,0.3625488
			C21.631958,23.3642578,21.7913208,23.6480713,22.0661621,23.7237549z M23.9328003,21.491333
			c0.274292,0.0751953,0.5608521-0.0860596,0.6392822-0.3614502c0.0778809-0.2751465-0.0808716-0.5595093-0.3557129-0.6346436
			c-0.2745972-0.0751953-0.5606079,0.086853-0.6390381,0.3616943C23.4994507,21.132019,23.6585083,21.4161377,23.9328003,21.491333z
			 M15.138855,23.7382202c0.2751465,0.0751953,0.5610962-0.0860596,0.6395874-0.3622437
			c0.078186-0.2748413-0.0814819-0.5592041-0.3560181-0.6343994s-0.5608521,0.086853-0.6392822,0.3622437
			C14.7052612,23.3792114,14.864563,23.6638794,15.138855,23.7382202z M17.0349121,22.3983765
			c0.0779419-0.2748413-0.0808716-0.5592041-0.3557129-0.6351929c-0.274292-0.0751953-0.5603027,0.0866089-0.6384888,0.3616943
			c-0.0778809,0.2751465,0.0809326,0.5595093,0.3552246,0.6349487
			C16.6704712,22.8355103,16.9567871,22.6737671,17.0349121,22.3983765z M21.3187256,17.7964478
			c-0.2748413-0.0754395-0.5608521,0.0863037-0.6392822,0.3619995c-0.0778809,0.2748413,0.0811768,0.5586548,0.3557129,0.6343384
			c0.2751465,0.0751953,0.5610962-0.0863037,0.6390381-0.3616943
			C21.7523804,18.1560059,21.5932617,17.8721313,21.3187256,17.7964478z M24.2318726,18.2379761
			c-0.2740479-0.0751953-0.5608521,0.0866089-0.6387329,0.3616943c-0.0784302,0.2759399,0.0811768,0.55896,0.3560181,0.635498
			c0.2739868,0.074646,0.5603027-0.0869141,0.6381836-0.3623047C24.6660767,18.5975342,24.506958,18.3136597,24.2318726,18.2379761z
			 M23.0045166,22.5811157c0.2739868,0.0757446,0.5608521-0.0863037,0.6389771-0.3609009
			c0.0784912-0.2753906-0.0808716-0.5594482-0.3557129-0.6346436c-0.274292-0.0757446-0.5605469,0.0863647-0.6387329,0.3609009
			C22.5706177,22.2218628,22.7296753,22.5056763,23.0045166,22.5811157z M22.8552246,18.0977173
			c-0.2750854-0.0755005-0.5605469,0.0866089-0.6389771,0.3616943c-0.0784912,0.2753906,0.0811768,0.5597534,0.3551636,0.6349487
			c0.2748413,0.0754395,0.5605469-0.0866089,0.6390381-0.3619995
			C23.2888794,18.4569702,23.1298218,18.1734009,22.8552246,18.0977173z M21.850708,19.0594482
			c-0.2748413-0.0759888-0.5608521,0.0861206-0.6392822,0.3615112c-0.078186,0.2756348,0.0814209,0.5594482,0.3551636,0.6351929
			c0.2750854,0.0751343,0.5608521-0.0869141,0.6392822-0.3623047S22.1255493,19.1351929,21.850708,19.0594482z
			 M20.2071533,20.4202881c-0.0784912,0.2762451,0.0811157,0.5603027,0.3551636,0.635498
			c0.2750854,0.0757446,0.5608521-0.0869141,0.6390381-0.3617554c0.0786743-0.2758789-0.0801392-0.5592041-0.3552246-0.6351929
			C20.5715942,19.9837036,20.2855835,20.145752,20.2071533,20.4202881z M19.1254883,21.3829346
			c-0.0784302,0.2750854,0.0811768,0.5592041,0.3551636,0.6343384c0.2751465,0.0759888,0.5606079-0.086853,0.6390381-0.3614502
			c0.0787354-0.2756348-0.0803833-0.5594482-0.3551636-0.6351929
			C19.4896851,20.9454346,19.2036743,21.1075439,19.1254883,21.3829346z M18.0825195,22.3831177
			c-0.0784302,0.2756348,0.0811768,0.5599976,0.3552246,0.635437c0.2747803,0.0751953,0.5605469-0.086853,0.6389771-0.3622437
			s-0.0803223-0.5586548-0.3554688-0.6346436C18.4467163,21.9464722,18.1607056,22.1082764,18.0825195,22.3831177z
			 M17.9689331,23.6311646c0.0784302-0.2753906-0.0803223-0.5592041-0.3554688-0.6343994
			c-0.2745361-0.0759888-0.5603027,0.0858154-0.6387329,0.3612061s0.0814209,0.5594482,0.3552246,0.6346436
			C17.6050415,24.0683594,17.8907471,23.9065552,17.9689331,23.6311646z M15.9200439,24.3067017
			c-0.0784302,0.2759399,0.0811768,0.5599976,0.3552246,0.6351929c0.2750854,0.0759888,0.5605469-0.0866089,0.6389771-0.3614502
			c0.0784912-0.2759399-0.0803223-0.5592041-0.3551636-0.6351929C16.2839966,23.8700562,15.99823,24.0321045,15.9200439,24.3067017z
			 M15.8217163,25.5667114c0.0787354-0.2753296-0.0803223-0.5592041-0.3551636-0.6351929
			c-0.2748413-0.0751343-0.5605469,0.0869141-0.6387329,0.3623047c-0.0784302,0.2753906,0.0811768,0.5594482,0.3551636,0.6346436
			C15.4578247,26.0042114,15.7435913,25.8415527,15.8217163,25.5667114z M14.6621704,26.5930786
			c0.0787354-0.2753906-0.0803223-0.5594482-0.3551636-0.6346436c-0.2748413-0.0759888-0.5605469,0.0860596-0.6390381,0.3614502
			c-0.0784302,0.2750854,0.0811768,0.5594482,0.3552246,0.6346436
			C14.2982788,27.0302734,14.5840454,26.8681641,14.6621704,26.5930786z M22.1080933,21.5526123
			c0.2740479,0.0751953,0.5605469-0.0866089,0.6384888-0.3623047c0.0778809-0.2750854-0.0809326-0.5592041-0.3552246-0.6346436
			c-0.2745361-0.0751343-0.5608521,0.0855713-0.6395264,0.3617554
			C21.673645,21.1930542,21.8330078,21.4766235,22.1080933,21.5526123z M23.3155518,19.4031982
			c-0.2745361-0.0754395-0.5605469,0.0858154-0.6392822,0.3612061c-0.078186,0.2753906,0.0811768,0.5595093,0.3554688,0.6346436
			c0.2751465,0.0754395,0.5610962-0.0866089,0.6392822-0.361145C23.7489624,19.7627563,23.5903931,19.4783936,23.3155518,19.4031982
			z M17.7507324,25.7944336c0.2748413,0.0757446,0.5608521-0.0866089,0.6393433-0.3619995
			c0.078125-0.2750854-0.0811768-0.5586548-0.3557739-0.6338501c-0.2745361-0.0759888-0.5603027,0.0858154-0.6384277,0.3612061
			C17.3171387,25.4351807,17.4767456,25.7192993,17.7507324,25.7944336z M16.9259644,25.8748169
			c-0.2748413-0.0751953-0.5605469,0.086853-0.6387329,0.3616943c-0.0784302,0.2753906,0.0811768,0.5592041,0.3552246,0.6343994
			c0.2747803,0.0759888,0.560791-0.0858154,0.6389771-0.3614502C17.3598633,26.2351685,17.2008057,25.9505005,16.9259644,25.8748169
			z M15.885498,27.0144653c-0.2745972-0.0759888-0.5603027,0.0860596-0.6384888,0.3614502
			c-0.0787354,0.2753906,0.0811768,0.5594482,0.3551636,0.6346436c0.2748413,0.0757446,0.5608521-0.086853,0.6390381-0.3622437
			C16.319397,27.3734741,16.1603394,27.0896606,15.885498,27.0144653z M14.6382446,28.1018066
			c-0.2745972-0.0754395-0.5603027,0.0863647-0.6387329,0.3614502c-0.0784912,0.2751465,0.0811157,0.5592041,0.3551636,0.6346436
			c0.2748413,0.0757446,0.5608521-0.0863037,0.6390381-0.3616943C15.0718384,28.4616089,14.9125366,28.177002,14.6382446,28.1018066
			z M13.9542847,24.746582c0.274292,0.0757446,0.5605469-0.0860596,0.6387329-0.3614502
			c0.078186-0.2745361-0.0806274-0.5592041-0.3557129-0.6346436c-0.274292-0.0754395-0.5606079,0.0874023-0.6387939,0.3619995
			C13.5203857,24.3873291,13.6794434,24.671936,13.9542847,24.746582z M28.786438,15.6671753
			c-0.5603027-0.0397339-2.06604,0.3786621-2.5084229,0.5047607l-0.0059814,2.0483398h-0.942749l0.0065308,0.5308838
			l1.8876343,0.8947754V17.798584h3.4903564C30.3231812,16.9572144,29.5814819,15.7200317,28.786438,15.6671753z"/>
	</g>
</g>
<g>
	<g>
		<path fill="#FFFFFF" d="M36.8049927,12.6817017h-0.2236328V9.5691528c0-0.3510742-0.5246582-0.3510742-0.5246582,0v3.1125488
			h-0.1530762c-0.5594482-0.0547485-3.1887817-0.3344727-3.6965332-0.5957031
			c-0.5101318-0.2663574-1.0456543-0.5679321-1.5452271-0.8234253c-0.4586792-0.2285156-0.7264404-0.2116089-1.2232666-0.1279907
			c-0.2810669,0.0544434-1.9355469,0.3614502-3.5379639,0.7667236c-1.9794312,0.4973755-4.4232788,1.6446533-4.4232788,1.6446533
			l-2.7930298,0.0109253c-0.6389771-0.1846924-0.8901367-1.3755493-1.1690674-1.8995972l-0.7035522-1.4133911
			c-0.052063-0.1174316-0.180603-0.1522827-0.3034668-0.1582642l-1.7802734-0.105957
			c-0.2672119-0.0161133-0.1661377,0.2069702-0.1282959,0.3344727l1.22052,4.7650757
			c0.1280518,0.5325317,0.8710938,1.0410767,1.3924561,1.0958252l7.1887817,1.0977173h0.9909058l0.0114746-1.8848877
			l0.1244507-0.0373535c0.0800781-0.0234375,2.0426025-0.6033325,2.7557373-0.5548096
			c1.1325684,0.0770264,1.9633179,1.7173462,2.2896118,2.4770508l0.6611328,1.7385864
			c-0.2895508,0.1844482-0.4824219,0.5061035-0.4824219,0.873291c0,0.5739136,0.4668579,1.0383301,1.0429688,1.0383301
			s1.0426636-0.4647217,1.0426636-1.0383301c0-0.5692749-0.4605713-1.0307007-1.0309448-1.0366821l-0.5962524-1.5915527
			c0.6333008-0.100769,1.8293457-0.2908936,2.5170898-0.4867554c0.296875-0.0759888,0.6008911-0.3829956,0.6880493-0.5597534
			l1.640564-2.4901123v3.1182251c0,0.3505859,0.5245972,0.3505859,0.5245972,0v-3.2185059h0.2236328
			C37.4328003,13.6195068,37.4328003,12.6817017,36.8049927,12.6817017z M24.4373779,13.7739868v0.0002441
			c-0.1065063,0-0.2182007-0.0629272-0.2182007-0.2285156v-0.2606812c0-0.1413574,0.0593872-0.2285156,0.1882324-0.2908936
			c0.147644-0.0675659,1.0296021-0.418396,1.5621338-0.557312c0.9603882-0.2391357,1.9679565-0.4570312,2.6755981-0.5953979
			l0.6575317,1.9325562H24.4373779z M31.9891968,12.9042358c-0.0631714,0.1065063-0.4205322,0.7155762-0.4205322,0.7155762
			s-0.0762939,0.1549683-0.319519,0.1549683H30.026123l-0.6992188-2.06604
			c0.0547485-0.0108643,0.1116943-0.0217896,0.1498413-0.0272217c0.4368896-0.0787354,0.5875244-0.0787354,0.9119263,0.0866089
			c0,0,1.3927002,0.715271,1.4885864,0.7694702C31.9949341,12.5945435,32.0681763,12.7661743,31.9891968,12.9042358z
			 M25.769043,19.3529663c-0.2745361-0.0759888-0.5603027,0.0860596-0.6389771,0.3614502
			c-0.0779419,0.2753906,0.0808716,0.5586548,0.3554077,0.6346436c0.2748413,0.0765381,0.5608521-0.0866089,0.6392822-0.3614502
			C26.2032471,19.7125244,26.0438843,19.4281006,25.769043,19.3529663z M18.6036987,23.2592163
			c-0.274292-0.0751953-0.5608521,0.086853-0.6389771,0.3622437c-0.078186,0.2748413,0.0811157,0.5592041,0.3557129,0.6343994
			c0.2745361,0.0754395,0.5608521-0.0866089,0.6387329-0.3619995C19.0373535,23.6187744,18.87854,23.3344116,18.6036987,23.2592163z
			 M20.4684448,22.1266479c0.274292,0.0751953,0.5605469-0.0869141,0.6387329-0.3614502
			c0.078186-0.2753906-0.0806274-0.5600586-0.3557129-0.6346436c-0.274292-0.0757446-0.5608521,0.086853-0.6392822,0.3616943
			C20.0337524,21.7676392,20.1933594,22.0514526,20.4684448,22.1266479z M21.1872559,23.9744873
			c0.078186-0.2750854-0.0806274-0.5592041-0.3554688-0.6343994c-0.2747803-0.0759888-0.560791,0.0861206-0.6389771,0.3623047
			c-0.078186,0.274292,0.0806274,0.5578003,0.3554688,0.6343384C20.8233643,24.4119263,21.1090698,24.2498779,21.1872559,23.9744873
			z M19.7839355,24.4179077c-0.2745361-0.0762329-0.5605469,0.0863647-0.6389771,0.3617554
			c-0.0784912,0.2748413,0.0806274,0.5586548,0.3554688,0.6343994c0.2745361,0.0754395,0.560791-0.0871582,0.6389771-0.3619995
			C20.217041,24.7772217,20.0579834,24.493103,19.7839355,24.4179077z M18.7867432,25.5657349
			c-0.2748413-0.0756836-0.5605469,0.0861206-0.6389771,0.3614502c-0.0787354,0.2751465,0.0803223,0.55896,0.3551636,0.6349487
			c0.2748413,0.0751953,0.5608521-0.0866089,0.6395264-0.3616943C19.2198486,25.9250488,19.060791,25.6409302,18.7867432,25.5657349
			z M17.6871338,26.6958618c-0.2748413-0.0762329-0.5605469,0.0863647-0.6390381,0.3617554
			c-0.0786743,0.2748413,0.0806274,0.5586548,0.3552246,0.6346436c0.2748413,0.0751953,0.5608521-0.0874634,0.6395264-0.3619995
			C18.1202393,27.0554199,17.9611816,26.7713013,17.6871338,26.6958618z M19.7316284,22.2078247
			c-0.2748413-0.0751953-0.560791,0.086853-0.6389771,0.3622437c-0.078186,0.2748413,0.0808716,0.5586548,0.3557129,0.6340942
			c0.2745972,0.0757446,0.5608521-0.0863037,0.6387329-0.3616943C20.1652832,22.567627,20.0059204,22.2832642,19.7316284,22.2078247
			z M24.1235962,21.6401367c-0.274292-0.0756836-0.5606079,0.0863647-0.6390381,0.3614502
			c-0.0776367,0.2753906,0.0809326,0.5592041,0.3560181,0.6347046c0.2745361,0.0759888,0.5605469-0.0869141,0.6389771-0.3614502
			C24.5574951,21.9996948,24.3984375,21.715332,24.1235962,21.6401367z M22.4789429,23.8840332
			c-0.2745972-0.0751343-0.5608521,0.0869141-0.6390381,0.3614502c-0.0778809,0.2756958,0.0808716,0.5595093,0.3557129,0.635498
			c0.2745972,0.0751953,0.5603027-0.0874023,0.6390381-0.3616943
			C22.9125366,24.2438965,22.7537842,23.9595337,22.4789429,23.8840332z M21.5430298,24.9746704
			c-0.2748413-0.0751343-0.5608521,0.0869141-0.6392822,0.3617554c-0.0779419,0.2756348,0.0808716,0.5592041,0.3557129,0.6351929
			c0.2748413,0.0751953,0.5603027-0.0869141,0.6390381-0.3617554
			C21.9766235,25.3345337,21.8178711,25.0501099,21.5430298,24.9746704z M24.9467163,20.4967041
			c-0.2750854-0.0751953-0.5608521,0.0860596-0.6392822,0.3614502c-0.0778809,0.2753906,0.0808716,0.5588989,0.3557129,0.6346436
			s0.5603027-0.0869141,0.6390381-0.3614502C25.3806152,20.855957,25.2215576,20.5718384,24.9467163,20.4967041z
			 M18.5664062,19.2843018c-0.2751465-0.074646-0.5610962,0.0866089-0.6387329,0.3614502
			c-0.0784912,0.2759399,0.0800781,0.5600586,0.3549194,0.6351929c0.2750854,0.0754395,0.5610962-0.0866089,0.6392822-0.3605957
			C18.9997559,19.6449585,18.8406982,19.3602905,18.5664062,19.2843018z M23.3009644,22.7838745
			c-0.274292-0.0756836-0.5603027,0.0861206-0.6387329,0.3614502c-0.0778809,0.2748413,0.0806274,0.5587158,0.3554688,0.6343994
			c0.2750854,0.0759888,0.5605469-0.0866089,0.6392822-0.3619995
			C23.7351685,23.1431885,23.5758057,22.8590698,23.3009644,22.7838745z M17.3877563,20.2640991
			c-0.2745361-0.0751953-0.5599976,0.086853-0.6387329,0.3622437c-0.0778809,0.274292,0.0811768,0.5586548,0.3557739,0.6346436
			c0.274292,0.0751953,0.5605469-0.086853,0.6387329-0.3622437C17.8214111,20.6239014,17.663147,20.3392334,17.3877563,20.2640991z
			 M24.8609009,19.4888916c0.0779419-0.2756958-0.0811768-0.5597534-0.3557129-0.6349487
			c-0.2745361-0.0754395-0.5605469,0.0866089-0.6390381,0.3612061c-0.0784302,0.2753296,0.0809326,0.5594482,0.3554688,0.6346436
			C24.4962158,19.9257812,24.7824707,19.7636719,24.8609009,19.4888916z M19.6902466,18.2753906
			c-0.2750854-0.0751953-0.5610962,0.0869141-0.6392822,0.3617554c-0.0778809,0.2753296,0.0806274,0.5599976,0.3554688,0.6346436
			c0.2748413,0.0751953,0.5610962-0.0860596,0.6389771-0.3617554C20.1235962,18.635498,19.9648438,18.3511353,19.6902466,18.2753906
			z M21.5402832,23.197937c0.2740479,0.0751343,0.5605469-0.0866089,0.6390381-0.3619995
			c0.0784302-0.2748413-0.0809326-0.5592041-0.3557739-0.6349487c-0.2745361-0.0748901-0.5605469,0.0863647-0.6392822,0.3625488
			C21.1060791,22.8383789,21.2654419,23.1221924,21.5402832,23.197937z M23.4069214,20.9654541
			c0.274292,0.0751953,0.5608521-0.0860596,0.6392822-0.3614502c0.0779419-0.2750854-0.0808716-0.5594482-0.3557129-0.6346436
			c-0.2745972-0.0751953-0.5605469,0.086853-0.6390381,0.3616943
			C22.9735718,20.6062012,23.1326294,20.8902588,23.4069214,20.9654541z M14.6130371,23.2123413
			c0.2750854,0.0751953,0.5610962-0.0860596,0.6395264-0.3622437c0.078186-0.2748413-0.0814209-0.5592041-0.3560181-0.6343994
			c-0.2745361-0.0751953-0.5608521,0.0869141-0.6392822,0.3623047
			C14.1793823,22.8533325,14.3387451,23.1380005,14.6130371,23.2123413z M16.5090942,21.8724976
			c0.0778809-0.2748413-0.0809326-0.5592041-0.3557739-0.6351929c-0.274292-0.0751953-0.5603027,0.0866089-0.6384277,0.3616943
			c-0.0779419,0.2751465,0.0808716,0.5595093,0.3551636,0.6349487
			C16.1446533,22.3096924,16.4309082,22.1478882,16.5090942,21.8724976z M20.7928467,17.2705688
			c-0.2748413-0.0754395-0.5608521,0.0863647-0.6392822,0.3619995c-0.0778809,0.2748413,0.0811768,0.5586548,0.3557739,0.6343994
			c0.2750854,0.0751343,0.5610962-0.0863647,0.6389771-0.3617554C21.2265015,17.630127,21.0674438,17.3463135,20.7928467,17.2705688
			z M23.7059937,17.7120972c-0.2739868-0.0751953-0.5608521,0.0866089-0.6387329,0.3617554
			c-0.0784302,0.2758789,0.0811768,0.5588989,0.3560181,0.635437c0.2739868,0.074646,0.5603027-0.086853,0.6381836-0.3622437
			C24.1401978,18.0716553,23.9811401,17.7878418,23.7059937,17.7120972z M22.4786377,22.0552979
			c0.2740479,0.0756836,0.5608521-0.0863647,0.6390381-0.3609619c0.0784302-0.2753296-0.0809326-0.5594482-0.3557739-0.6346436
			c-0.274292-0.0756836-0.5605469,0.0863647-0.6387329,0.3609009
			C22.0447388,21.6959839,22.2037964,21.9797974,22.4786377,22.0552979z M22.3294067,17.5718384
			c-0.2751465-0.0754395-0.5606079,0.0866089-0.6390381,0.3616943c-0.0784302,0.2753906,0.0811768,0.5597534,0.3551636,0.6349487
			c0.2748413,0.0754395,0.5606079-0.0866089,0.6390381-0.3619995S22.6039429,17.647522,22.3294067,17.5718384z
			 M21.3248291,18.5336304c-0.2748413-0.0759888-0.5608521,0.0860596-0.6392822,0.3614502
			c-0.078186,0.2756348,0.0814209,0.5594482,0.3551636,0.6351929c0.2751465,0.0751953,0.5608521-0.0869141,0.6392822-0.3623047
			C21.7584839,18.8926392,21.5996704,18.609314,21.3248291,18.5336304z M19.6812744,19.8944702
			c-0.0784302,0.2761841,0.0811768,0.5602417,0.3551636,0.635437c0.2751465,0.0757446,0.5608521-0.086853,0.6390381-0.3616943
			c0.0787354-0.2759399-0.0800781-0.5592041-0.3552246-0.6351929C20.0457153,19.4578247,19.7597046,19.619873,19.6812744,19.8944702
			z M18.5996094,20.8570557c-0.0784302,0.2750854,0.0811768,0.5592041,0.3552246,0.6343994
			c0.2750854,0.0759888,0.5605469-0.0869141,0.6389771-0.3614502c0.0787354-0.2756958-0.0803223-0.5595093-0.3551636-0.6351929
			C18.9638062,20.4196167,18.6777954,20.581665,18.5996094,20.8570557z M17.5566406,21.8572388
			c-0.0784302,0.2756348,0.0811768,0.5600586,0.3552246,0.635498c0.2748413,0.0751343,0.5605469-0.0869141,0.6389771-0.3623047
			c0.0784912-0.2753906-0.0803223-0.5586548-0.3554077-0.6346436
			C17.9208374,21.4205933,17.6348267,21.5823975,17.5566406,21.8572388z M17.4430542,23.1052856
			c0.0784912-0.2753296-0.0803223-0.5592041-0.3554077-0.6343384c-0.2745972-0.0759888-0.5603027,0.0857544-0.6387939,0.361145
			c-0.0784302,0.2753906,0.0814819,0.5595093,0.3552246,0.6346436
			C17.0791626,23.5424805,17.3649292,23.3806763,17.4430542,23.1052856z M15.3942261,23.7808228
			c-0.0784912,0.2759399,0.0811768,0.5599976,0.3551636,0.6351929c0.2750854,0.0759888,0.5605469-0.0866089,0.6390381-0.3614502
			c0.0784302-0.2759399-0.0803833-0.5592041-0.3552246-0.6351929
			C15.7581177,23.3441772,15.4723511,23.5062866,15.3942261,23.7808228z M15.2958984,25.0408936
			c0.0786743-0.2753906-0.0803833-0.5592041-0.3552246-0.6351929c-0.2748413-0.0751953-0.5605469,0.086853-0.6387329,0.3622437
			c-0.0784302,0.2753906,0.0811768,0.5594482,0.3551636,0.6346436
			C14.9319458,25.4783325,15.2177124,25.3157349,15.2958984,25.0408936z M14.1363525,26.0671997
			c0.0786743-0.2753906-0.0803833-0.5594482-0.3552246-0.6346436c-0.2748413-0.0759888-0.5605469,0.0860596-0.6389771,0.3614502
			c-0.0784912,0.2751465,0.0811768,0.5595093,0.3551636,0.6346436
			C13.7724609,26.5043945,14.0581665,26.3423462,14.1363525,26.0671997z M21.5822144,21.0267334
			c0.2740479,0.0751953,0.5606079-0.0866089,0.6384888-0.3622437c0.0778809-0.2751465-0.0808716-0.5592041-0.3551636-0.6346436
			c-0.2745972-0.0751953-0.5608521,0.0855103-0.6395874,0.3616943
			C21.1477661,20.6671753,21.3071289,20.9507446,21.5822144,21.0267334z M22.7897339,18.8773804
			c-0.2745972-0.0754395-0.5606079,0.0857544-0.6392822,0.361145c-0.078186,0.2753906,0.0811157,0.5595093,0.3554077,0.6347046
			c0.2751465,0.0754395,0.5611572-0.0866699,0.6392822-0.3612061
			C23.2230835,19.2369385,23.0645752,18.9525146,22.7897339,18.8773804z M17.2249146,25.2686157
			c0.2748413,0.0756836,0.5608521-0.0866699,0.6392822-0.3619995c0.078186-0.2751465-0.0811768-0.5587158-0.3557739-0.6338501
			c-0.2745361-0.0759888-0.5602417,0.0858154-0.6384277,0.361145
			C16.7912598,24.9093018,16.9508667,25.1934204,17.2249146,25.2686157z M16.4001465,25.348938
			c-0.2748413-0.0751953-0.5606079,0.0869141-0.6387939,0.3617554c-0.0784302,0.2753296,0.0811768,0.5592041,0.3552246,0.6343384
			c0.2748413,0.0759888,0.5608521-0.0857544,0.6389771-0.3614502C16.8340454,25.7092896,16.6749268,25.4246826,16.4001465,25.348938
			z M15.3596191,26.4885864c-0.2745972-0.0759888-0.5603027,0.0860596-0.6384888,0.3614502
			c-0.0786743,0.2753906,0.0811768,0.5595093,0.3552246,0.6346436c0.2748413,0.0757446,0.560791-0.086853,0.6389771-0.3622437
			C15.7935181,26.8475952,15.6344604,26.5637817,15.3596191,26.4885864z M14.1123657,27.5759277
			c-0.2745361-0.0754395-0.5603027,0.0863647-0.6387329,0.3614502c-0.0784302,0.2751465,0.0811768,0.5592651,0.3551636,0.6347046
			c0.2748413,0.0756836,0.5608521-0.0863647,0.6390381-0.3617554C14.5460205,27.935791,14.3866577,27.651123,14.1123657,27.5759277z
			 M13.4284058,24.2207031c0.274292,0.0757446,0.5605469-0.0860596,0.6387329-0.3614502
			c0.078186-0.2745361-0.0806274-0.5592041-0.3557129-0.6346436c-0.274292-0.0754395-0.5605469,0.0874634-0.6387329,0.3619995
			C12.9945068,23.8614502,13.1535645,24.1461182,13.4284058,24.2207031z M28.2605591,15.1413574
			c-0.5603027-0.0397949-2.06604,0.3786011-2.5084229,0.5046997l-0.0059814,2.0483398h-0.942688l0.0065308,0.5308838
			l1.8876343,0.8947754v-1.84729h3.4902954C29.7973633,16.4313354,29.0556641,15.1942139,28.2605591,15.1413574z"/>
	</g>
</g>
</svg>
