<?xml version="1.0" encoding="utf-8"?>
<!-- Generator: Adobe Illustrator 17.1.0, SVG Export Plug-In . SVG Version: 6.00 Build 0)  -->
<!DOCTYPE svg PUBLIC "-//W3C//DTD SVG 1.1//EN" "http://www.w3.org/Graphics/SVG/1.1/DTD/svg11.dtd">
<svg version="1.1" id="Layer_1" xmlns="http://www.w3.org/2000/svg" xmlns:xlink="http://www.w3.org/1999/xlink" x="0px" y="0px"
	 viewBox="0 0 60 60" enable-background="new 0 0 60 60" xml:space="preserve">
<g id="base">
	<g>
		
			<linearGradient id="SVGID_1_" gradientUnits="userSpaceOnUse" x1="-12.6099606" y1="85" x2="-12.6099606" y2="90.3407974" gradientTransform="matrix(4 0 3.0474641 -4 -185.8804321 400)">
			<stop  offset="0" style="stop-color:#000000;stop-opacity:0.4"/>
			<stop  offset="1" style="stop-color:#000000;stop-opacity:0"/>
		</linearGradient>
		<path fill="url(#SVGID_1_)" d="M10.9777107,51.3203468c-1.2281895-1.3760834-1.2459393-2.8060074-0.0538082-4.3707581
			c3.5513048-4.6613235,15.8794746-8.3127785,28.0664539-8.3127785c12.1864014,0,18.9507294,3.6514549,15.3994217,8.3127785
			c-1.1922951,1.5649719-3.388279,2.9948997-6.7130814,4.3707581l-24.9622326,8.6796608L10.9777107,51.3203468z"/>
		
			<linearGradient id="SVGID_2_" gradientUnits="userSpaceOnUse" x1="5.7339597" y1="85.5998688" x2="5.7339597" y2="99.6992722" gradientTransform="matrix(4 0 0 -4 0 400)">
			<stop  offset="0" style="stop-color:#006699"/>
			<stop  offset="1" style="stop-color:#007BB8"/>
		</linearGradient>
		<path fill="url(#SVGID_2_)" d="M4.5866413,34.686718C2.3100612,31.0539417,1.202901,27.2790241,1.202901,23.1481705
			c0-12.3056307,9.5462475-21.9452667,21.7332325-21.9452667c12.1863976,0,21.7326431,9.639637,21.7326431,21.9452667
			c0,4.131443-1.1065712,7.9063587-3.383152,11.5385475L22.9361343,57.6005287L4.5866413,34.686718z"/>
		<path fill="#FFFFFF" d="M22.9358578,2.4058051c11.5122089,0,20.5301151,9.1112213,20.5301151,20.7425861
			c0,3.8765488-1.0349464,7.4239712-3.1630898,10.8400307L22.9358578,55.6755371L5.5689535,33.9884758
			c-2.1281793-3.4162006-3.163157-6.9636707-3.163157-10.8400841C2.4057965,11.5170269,11.4236746,2.4058051,22.9358578,2.4058051
			 M22.9358578,0.0000076C10.1573973,0.0000076,0,10.25142,0,23.1483917c0,4.6296749,1.3107049,8.5979481,3.6042993,12.2355232
			l19.3315582,24.1404457l19.3316555-24.1404457c2.2936401-3.6375751,3.6042557-7.6058483,3.6042557-12.2355232
			C45.871769,10.25142,35.7144241,0.0000076,22.9358578,0.0000076L22.9358578,0.0000076z"/>
	</g>
</g>
<g opacity="0.6">
	<path d="M35.5734749,36.0487251c0-1.1491852-2.0696259-4.3652668-2.0696259-4.3652668s-2.1007404,3.2160816-2.1007404,4.3652668
		c0,1.1483688,0.9338131,2.0800018,2.0851841,2.0800018S35.5734749,37.197094,35.5734749,36.0487251z"/>
	<g>
		<path d="M20.6138611,18.0351734h-4.1703682v-4.170372h1.1374493v-2.2746229H9.9984999v2.2746229h1.1374474v6.444994
			c0,1.6751938,1.3580046,3.0329247,3.0329227,3.0329247h6.4449911v1.1374474h2.2746258v-7.5821705h-2.2746258V18.0351734z"/>
		<path d="M36.1576233,27.513361v-6.444994c0-1.6749172-1.3577309-3.0329208-3.03265-3.0329208h-6.4452648v-1.1374493h-2.2748966
			v7.5824432h2.2748966v-1.1374474h4.1700974v4.1703682h-1.1371765v2.2746239h7.5824413V27.513361H36.1576233z"/>
	</g>
</g>
<path fill="#FFFFFF" d="M34.9671516,35.4423981c0-1.1491852-2.0696297-4.3652668-2.0696297-4.3652668
	s-2.1007423,3.2160816-2.1007423,4.3652668c0,1.1483688,0.933815,2.079998,2.0851822,2.079998
	C34.0333366,37.5223961,34.9671516,36.5907669,34.9671516,35.4423981z"/>
<g>
	<path fill="#FFFFFF" d="M20.0075359,17.4288445h-4.1703701v-4.1703701h1.1374474v-2.2746239H9.3921709v2.2746239h1.1374483
		v6.4449921c0,1.6751938,1.3580046,3.0329247,3.0329227,3.0329247h6.444994v1.1374474h2.274622v-7.5821686h-2.274622V17.4288445z"/>
	<path fill="#FFFFFF" d="M35.5512962,26.9070358V20.462038c0-1.6749172-1.3577309-3.0329208-3.03265-3.0329208h-6.4452648
		v-1.1374474h-2.2748985v7.5824413h2.2748985v-1.1374474h4.1700954v4.170372h-1.1371765v2.2746201h7.5824432v-2.2746201H35.5512962z
		"/>
</g>
</svg>
