<?xml version="1.0" encoding="utf-8"?>
<!-- Generator: Adobe Illustrator 17.1.0, SVG Export Plug-In . SVG Version: 6.00 Build 0)  -->
<!DOCTYPE svg PUBLIC "-//W3C//DTD SVG 1.1//EN" "http://www.w3.org/Graphics/SVG/1.1/DTD/svg11.dtd">
<svg version="1.1" id="Layer_1" xmlns="http://www.w3.org/2000/svg" xmlns:xlink="http://www.w3.org/1999/xlink" x="0px" y="0px"
	 viewBox="0 0 50 50" enable-background="new 0 0 50 50" xml:space="preserve">
<g id="base">
	<g>
		
			<linearGradient id="SVGID_1_" gradientUnits="userSpaceOnUse" x1="-22.7237625" y1="6.0480018" x2="-22.7237625" y2="3.8048859" gradientTransform="matrix(8 0 -6.0949283 8 237.7319641 0)">
			<stop  offset="0" style="stop-color:#000000;stop-opacity:0.4"/>
			<stop  offset="1" style="stop-color:#000000;stop-opacity:0"/>
		</linearGradient>
		<path fill="url(#SVGID_1_)" d="M9.2211933,41.0931664c-1.0316706-1.155899-1.0465794-2.3570251-0.0451984-3.6714058
			c2.9830685-3.9154778,13.3386345-6.9826736,23.5756073-6.9826736c10.2364845,0,15.9184647,3.0671959,12.9353981,6.9826736
			c-1.0015221,1.3145676-2.8461342,2.5156937-5.6389427,3.6714058l-20.9680824,7.2908478L9.2211933,41.0931664z"/>
		
			<linearGradient id="SVGID_2_" gradientUnits="userSpaceOnUse" x1="2.408241" y1="6.0480018" x2="2.408241" y2="0.1263047" gradientTransform="matrix(8 0 0 8 0 0)">
			<stop  offset="0" style="stop-color:#007BB8"/>
			<stop  offset="1" style="stop-color:#0094DE"/>
		</linearGradient>
		<path fill="url(#SVGID_2_)" d="M3.8527436,29.1365871c-1.9123098-3.051506-2.8423159-6.2224064-2.8423159-9.6922932
			c0-10.3366346,8.018774-18.433857,18.2557507-18.433857c10.2364788,0,18.2552528,8.0972204,18.2552528,18.433857
			c0,3.4703808-0.929512,6.6412811-2.8418236,9.6922932l-15.4134293,19.247427L3.8527436,29.1365871z"/>
		<path fill="#FFFFFF" d="M19.2659435,2.0208666c9.6701679,0,17.245142,7.6533575,17.245142,17.4236126
			c0,3.2562714-0.8693466,6.2360802-2.656971,9.1055412l-14.588171,18.2170124L4.6778779,28.550066
			c-1.7876539-2.8695812-2.6570275-5.8494282-2.6570275-9.105587C2.0208504,9.6742239,9.5957994,2.0208666,19.2659435,2.0208666
			 M19.2659435,0.0000152C8.532135,0.0000152,0,8.6111231,0,19.444479c0,3.888895,1.1009822,7.2222118,3.0275838,10.27775
			l16.2383595,20.2777863L35.5043869,29.722229c1.9266396-3.0555382,3.0275459-6.388855,3.0275459-10.27775
			C38.5319328,8.6111231,29.9998417,0.0000152,19.2659435,0.0000152L19.2659435,0.0000152z"/>
	</g>
</g>
<g opacity="0.6">
	<path d="M29.6445637,30.0406075c0-0.957655-1.7246895-3.637722-1.7246895-3.637722s-1.750618,2.6800671-1.750618,3.637722
		c0,0.956974,0.7781773,1.7333336,1.7376537,1.7333336S29.6445637,30.9975815,29.6445637,30.0406075z"/>
	<g>
		<path d="M17.1782188,15.0293131h-3.4753075v-3.4753094h0.9478731V9.6584845H8.3320827v1.8955193h0.9478731v5.3708277
			c0,1.3959942,1.131671,2.5274372,2.5274363,2.5274372h5.3708267v0.9478722H19.07374V14.081666h-1.8955212V15.0293131z"/>
		<path d="M30.1313534,22.927803v-5.3708286c0-1.3957634-1.131443-2.5274334-2.5272083-2.5274334h-5.3710556v-0.947875h-1.8957462
			v6.3187037h1.8957462v-0.9478741h3.4750824v3.4753075h-0.9476471v1.8955193h6.3187027V22.927803H30.1313534z"/>
	</g>
</g>
<path fill="#FFFFFF" d="M29.1392918,29.5353336c0-0.957655-1.7246914-3.637722-1.7246914-3.637722
	s-1.750618,2.6800671-1.750618,3.637722c0,0.956974,0.7781792,1.7333336,1.7376537,1.7333336
	C28.3611126,31.2686672,29.1392918,30.4923077,29.1392918,29.5353336z"/>
<g>
	<path fill="#FFFFFF" d="M16.6729469,14.5240393h-3.4753084v-3.4753084h0.9478722V9.1532106H7.8268089v1.8955202H8.774682v5.3708286
		c0,1.3959923,1.131671,2.5274353,2.5274363,2.5274353h5.3708286v0.9478722h1.8955193v-6.3184738h-1.8955193V14.5240393z"/>
	<path fill="#FFFFFF" d="M29.6260815,22.4225311v-5.3708286c0-1.3957653-1.131443-2.5274353-2.5272102-2.5274353h-5.3710537
		v-0.9478741h-1.8957481v6.3187027h1.8957481v-0.9478741h3.4750805v3.4753094h-0.9476471v1.8955173h6.3187027v-1.8955173H29.6260815
		z"/>
</g>
</svg>
