<?xml version="1.0" encoding="utf-8"?>
<!-- Generator: Adobe Illustrator 17.1.0, SVG Export Plug-In . SVG Version: 6.00 Build 0)  -->
<!DOCTYPE svg PUBLIC "-//W3C//DTD SVG 1.1//EN" "http://www.w3.org/Graphics/SVG/1.1/DTD/svg11.dtd">
<svg version="1.1" id="Layer_1" xmlns="http://www.w3.org/2000/svg" xmlns:xlink="http://www.w3.org/1999/xlink" x="0px" y="0px"
	 viewBox="0 0 50 50" enable-background="new 0 0 50 50" xml:space="preserve">
<g id="base">
	<g>
		
			<linearGradient id="SVGID_1_" gradientUnits="userSpaceOnUse" x1="-26.220129" y1="3.0240018" x2="-26.220129" y2="1.9024439" gradientTransform="matrix(16 0 -12.1898565 16 475.4639282 0)">
			<stop  offset="0" style="stop-color:#000000;stop-opacity:0.4"/>
			<stop  offset="1" style="stop-color:#000000;stop-opacity:0"/>
		</linearGradient>
		<path fill="url(#SVGID_1_)" d="M9.2211933,41.0931778c-1.0316706-1.155899-1.0465784-2.3570213-0.0451994-3.671402
			c2.9830694-3.9154816,13.3386354-6.9826736,23.5756073-6.9826736c10.2364807,0,15.9184647,3.0671921,12.9353943,6.9826736
			c-1.0015221,1.3145676-2.8461304,2.5156937-5.6389389,3.671402l-20.9680843,7.2908516L9.2211933,41.0931778z"/>
		
			<linearGradient id="SVGID_2_" gradientUnits="userSpaceOnUse" x1="1.2041205" y1="3.0240018" x2="1.2041205" y2="0.0631534" gradientTransform="matrix(16 0 0 16 0 0)">
			<stop  offset="0" style="stop-color:#007BB8"/>
			<stop  offset="1" style="stop-color:#0094DE"/>
		</linearGradient>
		<path fill="url(#SVGID_2_)" d="M3.8527436,29.1366005c-1.9123099-3.0515041-2.8423162-6.2224045-2.8423162-9.6922913
			c0-10.3366346,8.018774-18.4338551,18.2557487-18.4338551c10.2364807,0,18.2552509,8.0972204,18.2552509,18.4338551
			c0,3.4703789-0.9295044,6.6412792-2.8418198,9.6922913L19.2661762,48.3840294L3.8527436,29.1366005z"/>
		<path fill="#FFFFFF" d="M19.2659435,2.0208819c9.6701679,0,17.245142,7.6533575,17.245142,17.4236126
			c0,3.2562733-0.8693466,6.2360802-2.6569748,9.1055431L19.2659435,46.7670479L4.6778779,28.5500832
			C2.890224,25.6805,2.0208504,22.7006531,2.0208504,19.4444942C2.0208504,9.6742392,9.5957994,2.0208819,19.2659435,2.0208819
			 M19.2659435,0.0000304C8.532135,0.0000304,0,8.6111374,0,19.4444942c0,3.8888931,1.1009821,7.2222099,3.0275838,10.2777481
			l16.2383595,20.2777882l16.2384434-20.2777882c1.9266396-3.0555382,3.0275459-6.388855,3.0275459-10.2777481
			C38.5319328,8.6111374,29.9998417,0.0000304,19.2659435,0.0000304L19.2659435,0.0000304z"/>
	</g>
</g>
<path opacity="0.6" enable-background="new    " d="M32.1340294,13.1500177v1.9021511h-6.2735519v16.5248795h-1.5554523h-0.3466969
	h-4.5002384h-4.5103807h-0.3540535H13.045558V15.0521688h-6.27355v-1.9021511h8.1757011v8.014905
	c0.3071337-0.1103249,0.5361519-0.375103,0.7306795-0.8247719c0.0025358-0.0159779,0.0098925-0.0322094,0.019783-0.0446377
	c0.0248528-0.0395641,0.0593462-0.0644188,0.1065197-0.0644188c0.0446358,0,0.081665,0.0248547,0.1065197,0.0644188h0.0025368
	c0.0025349,0.0025368,0.0025349,0.0060863,0.0050707,0.0124283c0.0050726,0.0060883,0.0098915,0.0159779,0.0149632,0.026123
	c0.259963,0.6180725,0.5868788,0.8940125,1.0923433,0.8940125h0.0050716c0.5052109,0,0.8321266-0.2761955,1.0946255-0.8879242
	c0.0025349-0.0159798,0.0124283-0.0322094,0.0223179-0.0446377c0.0223179-0.0395641,0.0593472-0.0644207,0.1065197-0.0644207
	c0.0446377,0,0.0791302,0.0248547,0.1065216,0.0644207c0.002533,0.0025349,0.0050716,0.0060863,0.0073547,0.0124283
	c0.0050716,0.0060863,0.0073547,0.0159779,0.0098896,0.026123c0.2576771,0.6079254,0.5845947,0.8818378,1.0748444,0.8917294
	c0.4904995-0.0098934,0.8123436-0.2835503,1.0700207-0.8853912c0.0073547-0.015976,0.0124283-0.0322094,0.0223198-0.0446358
	c0.0248547-0.039566,0.0618839-0.0644207,0.1065197-0.0644207c0.0446377,0,0.0791302,0.0248547,0.1065197,0.0644207h0.0025368
	c0,0.0025368,0.0025349,0.0060863,0.0073547,0.0124264c0.0025349,0.0060883,0.0050735,0.0159779,0.0098915,0.026123
	c0.2599602,0.6180744,0.5919495,0.8940125,1.0971603,0.8940125h0.0025349c0.5026741,0,0.8346634-0.2761936,1.0946274-0.8879242
	c0.0025368-0.0159779,0.0098915-0.0322094,0.0197811-0.0446377c0.0248566-0.0395641,0.0644207-0.0644207,0.1065216-0.0644207
	c0.0446377,0,0.0816631,0.0248547,0.1065197,0.0644207h0.0025368c0.0025368,0.0025368,0.0025368,0.0060883,0.0050716,0.0124283
	c0.0050716,0.0060863,0.0073547,0.0159779,0.0098915,0.026123c0.1955414,0.4557552,0.4260826,0.7220554,0.7354984,0.833395
	v-8.0176973H32.1340294z"/>
<polygon points="18.833931,18.1184387 20.4611568,18.1184387 20.4611568,12.2187243 22.3311005,12.2187243 19.6462765,9.5339003 
	16.9662704,12.2187243 18.833931,12.2187243 "/>
<path fill="#FFFFFF" d="M31.6287537,12.6447439v1.9021511h-6.2735481v16.5248795h-1.5554523h-0.3466988h-4.5002365h-4.5103827
	h-0.3540535h-1.5480976V14.546895H6.2667351v-1.9021511h8.1756992v8.014905
	c0.3071337-0.110323,0.5361528-0.375103,0.7306805-0.82477c0.0025358-0.0159798,0.0098915-0.0322113,0.0197821-0.0446396
	c0.0248537-0.0395622,0.0593472-0.0644188,0.1065197-0.0644188c0.0446377,0,0.081666,0.0248547,0.1065207,0.0644188h0.0025349
	c0.0025358,0.0025368,0.0025358,0.0060883,0.0050726,0.0124283c0.0050726,0.0060863,0.0098915,0.0159779,0.0149622,0.026125
	c0.2599621,0.6180706,0.5868778,0.8940105,1.0923424,0.8940105h0.0050735c0.5052109,0,0.8321266-0.2761917,1.0946236-0.8879242
	c0.0025349-0.0159779,0.0124264-0.0322113,0.0223179-0.0446377c0.0223198-0.0395641,0.0593472-0.0644188,0.1065197-0.0644188
	c0.0446377,0,0.0791302,0.0248547,0.1065197,0.0644188c0.0025368,0.0025368,0.0050735,0.0060863,0.0073547,0.0124264
	c0.0050735,0.0060883,0.0073547,0.0159779,0.0098915,0.026125c0.257679,0.6079273,0.5845966,0.8818359,1.0748444,0.8917274
	c0.4904995-0.0098915,0.8123455-0.2835484,1.0700207-0.8853874c0.0073547-0.0159779,0.0124283-0.0322113,0.0223198-0.0446396
	c0.0248547-0.0395622,0.0618839-0.0644169,0.1065216-0.0644169c0.0446358,0,0.0791283,0.0248528,0.1065197,0.0644169h0.0025349
	c0,0.0025368,0.0025349,0.0060883,0.0073547,0.0124283c0.0025349,0.0060863,0.0050716,0.0159798,0.0098915,0.026125
	c0.2599602,0.6180706,0.5919476,0.8940086,1.0971622,0.8940086h0.0025349c0.502676,0,0.8346634-0.2761898,1.0946236-0.8879223
	c0.0025368-0.015976,0.0098934-0.0322113,0.019783-0.0446377c0.0248566-0.0395641,0.0644207-0.0644169,0.1065216-0.0644169
	c0.0446377,0,0.081665,0.0248528,0.1065197,0.0644169h0.0025368c0.0025368,0.0025368,0.0025368,0.0060863,0.0050716,0.0124264
	c0.0050716,0.0060883,0.0073547,0.0159798,0.0098934,0.026125c0.1955395,0.4557571,0.4260807,0.7220573,0.7354965,0.833395
	v-8.0176973H31.6287537z"/>
<polygon fill="#FFFFFF" points="18.3286572,17.6131649 19.9558849,17.6131649 19.9558849,11.7134514 21.8258266,11.7134514 
	19.1410046,9.0286283 16.4609985,11.7134514 18.3286572,11.7134514 "/>
</svg>
