<?xml version="1.0" encoding="utf-8"?>
<!-- Generator: Adobe Illustrator 17.1.0, SVG Export Plug-In . SVG Version: 6.00 Build 0)  -->
<!DOCTYPE svg PUBLIC "-//W3C//DTD SVG 1.1//EN" "http://www.w3.org/Graphics/SVG/1.1/DTD/svg11.dtd">
<svg version="1.1" id="Layer_1" xmlns="http://www.w3.org/2000/svg" xmlns:xlink="http://www.w3.org/1999/xlink" x="0px" y="0px"
	 viewBox="0 0 60 60" enable-background="new 0 0 60 60" xml:space="preserve">
<g id="base">
	<g>
		
			<linearGradient id="SVGID_1_" gradientUnits="userSpaceOnUse" x1="-12.6099606" y1="85" x2="-12.6099606" y2="90.3407974" gradientTransform="matrix(4 0 3.0474641 -4 -185.8804321 400)">
			<stop  offset="0" style="stop-color:#000000;stop-opacity:0.4"/>
			<stop  offset="1" style="stop-color:#000000;stop-opacity:0"/>
		</linearGradient>
		<path fill="url(#SVGID_1_)" d="M10.9777107,51.3203468c-1.2281895-1.3760834-1.2459393-2.8060074-0.0538082-4.3707581
			c3.5513048-4.6613235,15.8794746-8.3127785,28.0664539-8.3127785c12.1864014,0,18.9507294,3.6514549,15.3994217,8.3127785
			c-1.1922951,1.5649719-3.388279,2.9948997-6.7130814,4.3707581l-24.9622326,8.6796608L10.9777107,51.3203468z"/>
		
			<linearGradient id="SVGID_2_" gradientUnits="userSpaceOnUse" x1="5.7339597" y1="85.5998688" x2="5.7339597" y2="99.6992722" gradientTransform="matrix(4 0 0 -4 0 400)">
			<stop  offset="0" style="stop-color:#006699"/>
			<stop  offset="1" style="stop-color:#007BB8"/>
		</linearGradient>
		<path fill="url(#SVGID_2_)" d="M4.5866413,34.686718C2.3100612,31.0539417,1.202901,27.2790241,1.202901,23.1481705
			c0-12.3056307,9.5462475-21.9452667,21.7332325-21.9452667c12.1863976,0,21.7326431,9.639637,21.7326431,21.9452667
			c0,4.131443-1.1065712,7.9063587-3.383152,11.5385475L22.9361343,57.6005287L4.5866413,34.686718z"/>
		<path fill="#FFFFFF" d="M22.9358578,2.4058051c11.5122089,0,20.5301151,9.1112213,20.5301151,20.7425861
			c0,3.8765488-1.0349464,7.4239712-3.1630898,10.8400307L22.9358578,55.6755371L5.5689535,33.9884758
			c-2.1281793-3.4162006-3.163157-6.9636707-3.163157-10.8400841C2.4057965,11.5170269,11.4236746,2.4058051,22.9358578,2.4058051
			 M22.9358578,0.0000076C10.1573973,0.0000076,0,10.25142,0,23.1483917c0,4.6296749,1.3107049,8.5979481,3.6042993,12.2355232
			l19.3315582,24.1404457l19.3316555-24.1404457c2.2936401-3.6375751,3.6042557-7.6058483,3.6042557-12.2355232
			C45.871769,10.25142,35.7144241,0.0000076,22.9358578,0.0000076L22.9358578,0.0000076z"/>
	</g>
</g>
<g>
	<g opacity="0.6">
		<g>
			<path d="M40.0134125,32.1268806c-0.4846268-0.0323067-0.9694023-0.0646095-1.4540253-0.0969124v-0.2908058
				c-1.4397469-0.1330986-2.9561996-0.8384476-4.2651024-1.26017c-0.572361-0.1843853-1.1939735-0.1037197-1.5509796-0.4846649
				c-0.2059212-0.3481216,0.1860886-1.4386711,0.1938972-2.1325493c0.5942307-0.0821838,0.6882172-0.3274765,1.0662766-0.5816116
				c0.3377228-1.3961201,0.1442375-1.6976929-0.4847031-2.6172523c-0.2992783-0.0720081-0.4357452-0.1546726-0.7754707-0.1938572
				c-0.0727844-1.0078125-0.397522-1.584465-0.7754688-2.2294998c-0.3316555-0.0885468-0.4251633-0.1807594-0.8724174-0.1938572
				c0.0969486-0.6138783,0.1938953-1.2279053,0.2908058-1.8417835c0.4943962,0.1706944,1.4807072,0.1823139,2.0356426,0.1938953
				V19.331501c-0.4291992,0.0014801-1.454586-0.2485123-1.8417835,0h-0.0969105
				c0.0012569-2.3361416-0.510603-3.9392176-1.4540291-5.331378c-0.226162-0.226162-0.4523964-0.4523973-0.6785221-0.6785593
				c-0.032341-0.4199829-0.0646439-0.8401508-0.0969467-1.2601337c-0.3856812-1.5835381-0.932991-3.8647299-3.3927231-3.2957735
				C25.5231533,8.84377,24.9881287,8.903862,24.6008205,9.0564623c-0.3634434,0.1431646-0.5544891,0.5629253-0.8724174,0.7754698
				c-0.0102501,0.2455511-0.0119152,0.3591499-0.0969486,0.484664c0.1188545,0.2185764,0.1674385,0.1938953,0.3877544,0.2908058
				c-0.2470684,0.3757639-0.9807987,0.2342653-1.4540291,0.3877535c-0.7049789,0.2286406-1.6606159,0.5725451-2.3264465,0.9693279
				c-0.2668648,0.1590376-0.5229244,0.5108986-0.7754688,0.6785583c-0.5624065,0.3733225-1.3712177,0.8077736-1.938694,1.0662756
				c-0.193821,0.0323038-0.3877525,0.0646076-0.5816116,0.0969105c-0.193821,0.2584658-0.3877525,0.5170422-0.5816116,0.775507
				c-0.3553753,0.1292143-0.7108622,0.258502-1.0662746,0.3877163c-0.3229246,0.197484-0.5817966,0.5656261-0.8724174,0.7754698
				c-0.9532309,0.688364-2.1405802,1.0730095-2.8110723,2.0356407c-1.0456648-0.355154-1.3170815-0.554081-2.3264465,0.0969467
				c0.0600557,0.6471806,0.2844048,0.5026474,0.6785593,0.7754707c0.2455511,0.0102482,0.3591499,0.0118771,0.484664,0.0969467
				c-0.1997051,0.1937847-0.5467548,1.4091816-0.6785593,1.9386921c-0.1579647,0.6347485,0.2250891,1.348793,0,1.7447987
				c-0.1444216,0.0622387-0.0419607,0.1204815-0.1938572,0c-1.1406889,0.0219059-0.9746571-0.3412037-1.5509405-0.7754707
				c-0.3169293,0.6144714-0.6193542,1.1356926-0.872417,1.6478882H6.8617797
				c-0.0738206,0.6088085-0.1967444,1.3847218-0.2908058,1.9386921c-0.0901389,0.5308056,0.3241086,0.6237202,0.1938586,1.26017
				c-0.2502508,1.2227249-0.3648486,3.8350544,0.0969472,4.9436607c0.1995196,0.4790401,0.6742668,0.6898079,0.9693279,1.0662766
				c0.8988376,0.0062904,2.3660388,0.0333405,2.9080577-0.3877525c0.8783751-0.5767288,1.2077742-2.107132,1.1632233-3.5865803
				l0.0969105-0.0969105h4.168191c0.5121574-0.0000381,1.4065914,0.1157074,1.7448349-0.0969486h1.0662766
				c0.1690655,0.0949135-0.0207596,0.340538,0.0969467,0.4846649c0.1514168,0.185421,0.6377068,0.1950417,0.7754688,0.3877525
				c0.1929703,0.2699356,0.070528,0.7770615,0.1938591,1.0662746c0.2103977,0.4932861,0.7084942,0.8461094,0.8724155,1.3570824
				c0.3172646,0.0437374,0.6563587,0.1305084,0.8724174,0.2908058h1.8417454
				c0.0932102-0.0456257,0.1481228-0.3484936,0.6785603-0.4846649c0.1268082-0.068676,0.4892139-0.0433674,0.6785221,0.0969105
				h0.1938934v3.683527c-0.7034988,0.0414429-0.1980762,0.2977257-0.8724155,0.3877525
				c0.1433849,0.119854,1.2606888,0.5658875,1.6478863,0.2908058h0.8724174v-0.0969467
				c-0.3337669-0.0869942-0.2668648,0.0671234-0.3877544-0.1938591h-0.1938572
				c-0.1849785-0.0780754,0.1938572-0.0969467,0.1938572-0.0969467c-0.1348381-0.2486229-0.238224-0.2574654-0.5816116-0.2908058
				c0.0121746-1.1457214,0.3274021-2.5235977,0-3.4896317h0.0969486c0.4344139-0.1867161,1.8598766,0.2477341,2.423357,0.3877182
				c2.344429,0.5824242,4.6071186,0.482811,6.9792995,1.0662727c0.5761375,0.1417236,2.4824181,0.4900322,3.1019173,0.0969505
				h0.1938591v-0.3877563c0.3973351,0.0119514,1.0200958,0.0624619,1.2601318-0.0969086
				c0.0969467-0.0323029,0.1938972-0.0646439,0.2908058-0.0969467
				C40.1721916,32.3450851,40.1321564,32.3480072,40.0134125,32.1268806z M12.1931944,27.8617783H11.999299
				c-0.2456255-0.7159328-0.256134-1.8354549-0.3877163-2.5203056c0.2248297,0.0720081,0.2165403,0.1006489,0.3877163,0.1938591
				c-0.0028124,0.4644604-0.0110273,1.2367477,0.1938953,1.5509396V27.8617783z M13.744133,27.7648296
				c0.0646076-0.4846268,0.1292515-0.9694023,0.1938581-1.4540291c0.0323038-0.0323029,0.0646448-0.0646057,0.0969477-0.0969105
				c1.2019653,0.0200195,0.8487358,0.4667187,1.5509396,0.6785221c0.8270893,0.2494736,1.5094223-0.3886414,2.7141628-0.3877163
				c0.0646439,0.4199829,0.1292877,0.8401146,0.1938953,1.2601337H13.744133z M25.957901,10.9951553
				c-0.4813709-0.1661806-0.9731388-0.0492516-1.3570805-0.2908058c-0.0406666-0.0624237-0.073637-0.4049597-0.0969486-0.6785593
				c0.7817612-0.0813694,1.9690361-0.667532,2.6172523-0.1938581c0.6888084,0.2312679,1.0649433,1.3271084,1.0662746,2.2294979
				C27.3816986,11.9013929,26.7202721,11.2583199,25.957901,10.9951553z"/>
		</g>
	</g>
	<g>
		<g>
			<path fill="#FFFFFF" d="M39.4209976,31.5344639c-0.4846268-0.0323048-0.9693985-0.0646076-1.4540253-0.0969486v-0.2907696
				c-1.4397507-0.1330986-2.9562035-0.8384476-4.2651062-1.26017c-0.572361-0.1844215-1.1939735-0.1037197-1.5509758-0.484663
				c-0.2059212-0.3481236,0.1860886-1.438673,0.1938591-2.1325512c0.594265-0.0821838,0.6882515-0.3274765,1.0663109-0.5816116
				c0.3377266-1.3961201,0.1441994-1.6976929-0.4846992-2.6172523c-0.2992821-0.0720062-0.4357452-0.1546707-0.7754707-0.1938572
				c-0.0727844-1.0078106-0.397522-1.584465-0.7754688-2.2294998c-0.3316574-0.0885468-0.4251633-0.1807575-0.8724174-0.1938572
				c0.0969467-0.6138783,0.1938953-1.2279034,0.2908058-1.8417816c0.4943943,0.1706944,1.4807072,0.1822758,2.0356388,0.1938953
				v-1.0663128c-0.4291954,0.0014801-1.4545822-0.2485123-1.8417816,0h-0.0969105
				c0.0012589-2.3361416-0.510603-3.9392176-1.4540291-5.331377l-0.6785583-0.6785593
				c-0.0323029-0.4200201-0.0646076-0.8401508-0.0969105-1.2601337c-0.3856812-1.583539-0.932991-3.8647304-3.3927212-3.2957735
				c-0.3377991,0.0781126-0.8728619,0.1382055-1.2601337,0.2908049c-0.3634434,0.1431646-0.5545254,0.5629253-0.8724174,0.7754698
				c-0.0102501,0.2455511-0.0119152,0.3591509-0.0969486,0.484664c0.1188545,0.2185392,0.1674385,0.1938953,0.3877544,0.2908058
				c-0.2471066,0.3757277-0.9807987,0.2342653-1.4540291,0.3877163c-0.7049789,0.2286415-1.6606522,0.5725832-2.3264465,0.9693651
				c-0.2668629,0.1590385-0.5229225,0.5108986-0.7754688,0.6785593c-0.5624065,0.3733215-1.3712158,0.8077726-1.9386921,1.0662756
				c-0.1938591,0.0323029-0.3877544,0.0646067-0.5816116,0.0969105c-0.1938229,0.2584648-0.3877544,0.5170412-0.5816126,0.775506
				c-0.3553753,0.1292143-0.7108622,0.258503-1.0662746,0.3877163c-0.3229246,0.197485-0.5817966,0.5656271-0.8724174,0.7754698
				c-0.9532318,0.688365-2.1405811,1.0730095-2.8110733,2.0356407c-1.0456648-0.355154-1.3170805-0.554081-2.3264456,0.0969467
				c0.0600557,0.6471443,0.2844038,0.5026474,0.6785583,0.7754707c0.2455521,0.0102501,0.3591509,0.0118771,0.484664,0.0969105
				c-0.1997032,0.193821-0.5467548,1.4092178-0.6785583,1.9386921c-0.1580029,0.6347847,0.2250881,1.3488293,0,1.7448349
				c-0.1444225,0.0622387-0.0419617,0.1204815-0.1938581,0c-1.1406884,0.0218678-0.9746571-0.3412037-1.5509396-0.7754688
				c-0.3169298,0.6144695-0.6193547,1.1356926-0.8724174,1.6478863H6.2693634
				c-0.0738206,0.6088085-0.1967444,1.3847218-0.2908058,1.9386921c-0.0901389,0.5308075,0.3241086,0.6237221,0.1938581,1.2601337
				c-0.2502503,1.2227612-0.3648481,3.8350906,0.0969477,4.9436989C6.468883,31.33498,6.943593,31.5457497,7.2386913,31.9222164
				c0.8988371,0.0062542,2.3660393,0.0333385,2.9080572-0.3877525c0.8783751-0.5767288,1.2077751-2.1071301,1.1632233-3.5865803
				c0.0323038-0.0323029,0.0646067-0.0646076,0.0969105-0.0969486h4.168191c0.5121574,0,1.4065914,0.1157455,1.7448349-0.0969105
				h1.0662746c0.1690674,0.0949135-0.0207577,0.340538,0.0969486,0.4846649
				c0.1514149,0.185421,0.6377087,0.1950417,0.7754707,0.3877525c0.1929684,0.2699375,0.070528,0.7770615,0.1938572,1.0662766
				c0.2103977,0.4932842,0.7084942,0.8461075,0.8724174,1.3570805c0.3172626,0.0437374,0.6563568,0.1305084,0.8724174,0.2908058
				h1.8417435c0.0932102-0.0456238,0.1480865-0.3485298,0.6785603-0.484663
				c0.1268082-0.0686779,0.4892159-0.0433674,0.6785221,0.0969105h0.1938953v3.683527
				c-0.7034988,0.0414429-0.1980762,0.2977257-0.8724174,0.3877525c0.1433849,0.119854,1.2606888,0.5658836,1.6478863,0.2907677
				h0.8724174v-0.0969086c-0.3337669-0.0869942-0.2668648,0.0671234-0.3877525-0.1938591h-0.1938591
				c-0.1849766-0.0780754,0.1938591-0.0969467,0.1938591-0.0969467c-0.13484-0.2486229-0.2382259-0.2574654-0.5816116-0.2908058
				c0.0121727-1.1457214,0.3274002-2.5236359,0-3.4896336h0.0969467c0.4344139-0.1867161,1.8598766,0.247736,2.423357,0.3877182
				c2.344429,0.5824261,4.6071205,0.4828129,6.9793015,1.0662746c0.5761337,0.1417198,2.4824142,0.4900284,3.1019173,0.0969467
				h0.1938591v-0.3877525c0.3973351,0.0119514,1.0200539,0.0624619,1.2601318-0.0969124
				c0.0969467-0.0323029,0.1938934-0.0646439,0.2908058-0.0969467
				C39.5797768,31.7526321,39.5397034,31.7555923,39.4209976,31.5344639z M11.6007404,27.2693615h-0.1938581
				c-0.2456617-0.7159328-0.256134-1.8354549-0.3877163-2.5203037c0.2248297,0.0720062,0.2165413,0.100647,0.3877163,0.1938572
				c-0.0028124,0.4644241-0.0110264,1.2367115,0.1938581,1.5509396V27.2693615z M13.1517172,27.1724129
				c0.0646067-0.4846268,0.1292505-0.9694004,0.1938581-1.4540272c0.0323029-0.0323048,0.0646439-0.0646076,0.0969477-0.0969105
				c1.2019644,0.0200176,0.8487349,0.4667168,1.5509386,0.6785221c0.8270893,0.2494354,1.5094223-0.3886433,2.7141628-0.3877544
				c0.0646439,0.4200191,0.1292515,0.8401508,0.1938953,1.26017H13.1517172z M25.3654842,10.4027014
				c-0.4813709-0.1661425-0.9731388-0.0492134-1.3570805-0.2907686c-0.0407028-0.0624237-0.073637-0.4049597-0.0969486-0.6785593
				c0.7817612-0.0813694,1.9690361-0.667532,2.6172523-0.1938581c0.6888084,0.2312689,1.0649433,1.3271093,1.0662746,2.2294989
				C26.7892818,11.3089762,26.1278553,10.6659031,25.3654842,10.4027014z"/>
		</g>
	</g>
</g>
</svg>
