<?xml version="1.0" encoding="utf-8"?>
<!-- Generator: Adobe Illustrator 17.1.0, SVG Export Plug-In . SVG Version: 6.00 Build 0)  -->
<!DOCTYPE svg PUBLIC "-//W3C//DTD SVG 1.1//EN" "http://www.w3.org/Graphics/SVG/1.1/DTD/svg11.dtd">
<svg version="1.1" id="Layer_1" xmlns="http://www.w3.org/2000/svg" xmlns:xlink="http://www.w3.org/1999/xlink" x="0px" y="0px"
	 viewBox="0 0 50 50" enable-background="new 0 0 50 50" xml:space="preserve">
<g id="base">
	<g>
		
			<linearGradient id="SVGID_1_" gradientUnits="userSpaceOnUse" x1="-22.7237625" y1="6.0480018" x2="-22.7237625" y2="3.8048861" gradientTransform="matrix(8 0 -6.0949283 8 237.7319641 0)">
			<stop  offset="0" style="stop-color:#000000;stop-opacity:0.4"/>
			<stop  offset="1" style="stop-color:#000000;stop-opacity:0"/>
		</linearGradient>
		<path fill="url(#SVGID_1_)" d="M9.2211933,41.0931625c-1.0316696-1.1558952-1.0465803-2.3570213-0.0451994-3.6713982
			c2.9830685-3.9154778,13.3386354-6.9826756,23.5756073-6.9826756c10.2364807,0,15.9184647,3.0671978,12.9353943,6.9826756
			c-1.0015221,1.3145638-2.8461342,2.5156898-5.6389389,3.6713982l-20.9680824,7.2908516L9.2211933,41.0931625z"/>
		
			<linearGradient id="SVGID_2_" gradientUnits="userSpaceOnUse" x1="2.408241" y1="6.0480018" x2="2.408241" y2="0.126305" gradientTransform="matrix(8 0 0 8 0 0)">
			<stop  offset="0" style="stop-color:#007BB8"/>
			<stop  offset="1" style="stop-color:#0094DE"/>
		</linearGradient>
		<path fill="url(#SVGID_2_)" d="M3.8527434,29.1365852c-1.9123096-3.0515041-2.8423157-6.2224045-2.8423157-9.6922894
			c0-10.3366365,8.018774-18.433857,18.2557468-18.433857c10.2364826,0,18.2552567,8.0972204,18.2552567,18.433857
			c0,3.470377-0.9295158,6.6412792-2.8418236,9.6922894L19.2661743,48.3840141L3.8527434,29.1365852z"/>
		<path fill="#FFFFFF" d="M19.2659435,2.0208666c9.6701679,0,17.2451344,7.6533566,17.2451344,17.4236126
			c0,3.2562714-0.8693428,6.2360802-2.6569672,9.1055412L19.2659435,46.7670326L4.6778784,28.550066
			c-1.7876546-2.8695812-2.657028-5.8494282-2.657028-9.105587C2.0208507,9.6742229,9.5957985,2.0208666,19.2659435,2.0208666
			 M19.2659435,0.0000152C8.532135,0.0000152,0,8.6111231,0,19.444479c0,3.8888931,1.1009821,7.2222118,3.0275836,10.2777462
			l16.2383614,20.2777901l16.2384453-20.2777901c1.9266396-3.0555344,3.0275459-6.3888531,3.0275459-10.2777462
			C38.5319328,8.6111231,29.9998398,0.0000152,19.2659435,0.0000152L19.2659435,0.0000152z"/>
	</g>
</g>
<g opacity="0.6">
	<g>
		<path d="M34.5744896,18.5685902c-0.22649-0.290596-0.807251-0.1971931-1.1145287-0.4052734
			c-0.0406418-0.0489979-0.0747147-0.138855-0.101326-0.202652c0.1044388-0.0654964,0.115509-0.1075268,0.253315-0.1519604
			v-0.253315c-0.0579414-0.1221104-1.3210945-0.4079266-1.5197983-0.4559383
			c-0.1893311-0.0457592-0.2421246,0.0676861-0.4053059,0.101326c0.0230942,0.1803303-0.0265808,0.1283703,0.101326,0.2026215
			c-0.0168667,0.050663-0.0337658,0.1013279-0.050663,0.1519909h-0.2026234
			c0.0489063-0.2346001,0.0380516-0.3683014-0.0506611-0.5572624c-0.1789112-0.0763206-1.2119083-0.4564629-1.469141-0.3546124
			c-0.0675602,0.0675297-0.1351223,0.1350918-0.202652,0.2026215c-0.4534721,0.2014179-1.3282509,0.4554749-1.8744125,0.303978
			c-1.5667648-0.4346294-3.2020149-0.5697193-4.7113953-0.9625359c-0.2363853-0.0168991-0.4728661-0.0337963-0.7092514-0.050663
			c-0.492878-0.1566772-1.1292973-0.1342888-1.6717911-0.3039799c-0.3599453-0.1125813-0.8149891-0.2508183-1.2664871-0.2532845
			c-0.006876-0.2889929-0.0816517-0.3455458-0.3039474-0.4052753c-0.1756382-0.1116858-0.5416908-0.0441246-0.7092533-0.151989
			c-0.2282143,0.0131989-0.2432613,0.0538397-0.4052734,0.1013269c0.0463772,0.1092815,0.043911,0.0736656,0.1012974,0.1519585
			h-0.0506325c-0.0480442,0.0550718-0.1280022,0.0060434-0.2026539-0.0506325
			c-0.0604076-0.0678692,0.0055809-0.1318541-0.0506649-0.2026529c-0.0065975-0.4010487-0.1289539-0.3109779-0.3039474-0.5065994
			c-0.8956242-0.0150785-1.4266453,0.1528521-2.1783905,0.3546104c-0.167345,0.0449276-1.0832291-0.2061987-1.2665167-0.2532845
			c-0.1688251-0.0168982-0.3377438-0.0337963-0.5065994-0.0506639c-0.2636766-0.1266422-1.096736-0.572835-1.3171492-0.7599163
			c-0.1477652-0.1254082-0.1095285-0.391798-0.4559374-0.5065994c-0.0699358-0.0277529-0.2096834,0.0134754-0.4052744,0
			c-0.0435095,0.4945736-0.116806,1.5848036-0.4559679,1.9757385c-0.1953144,0.1329641-1.0960264,0.2587433-1.4184752,0.253315
			c-0.1688566-0.1350908-0.3377447-0.2702131-0.5066013-0.4052734c-0.1063213-0.1733894-0.1059513-0.4313002-0.2532845-0.5572643
			c-0.3012342-0.2575092-0.7094383-0.3557825-0.9625373-0.6585894c-0.2139387,0.000308-0.385663,0.0118103-0.5066009,0.101326
			c-0.2490911,0.1089125-0.0591121,0.2592974-0.2026525,0.4559374c-0.0574775,0.0787239-0.24018,0.123744-0.3039479,0.2026529
			c-0.1730499,0.2140923-0.7491546,0.9837217-0.5066004,1.3678131c-0.007956,0.5451736,0.3184409,0.9865875,0.7092223,1.1145248
			c0.0269194,0.3138466,0.1028061,0.5005264,0.101326,0.8612137c-0.4003096,0.0055504-1.0199847,0.0181923-1.2665167,0.202652
			c-0.0506325,0.0168648-0.1013265,0.0337639-0.1519585,0.050663c0.0340734,0.2210598,0.1107931,0.3417511,0.3039479,0.4052734
			c-0.2489676,0.1364784-0.4130449-0.1816521-0.7092528-0.101326c-0.1101146,0.0298786-0.1286778,0.1222019-0.3039479,0.151989
			c0.0946965,0.668272,0.1500468,1.6644821,0.4052744,2.4823399c0.166482,0.5334587,0.4003401,1.1806698,0.4052734,1.8237495
			c0.1688571,0.16642,0.2716632,0.4068165,0.5066319,0.5066013c0.1785078,0.0758228,0.3149872-0.0685806,0.4559374,0
			c0.1465316,0.0713215,0.6212168,0.8674393,0.8612118,1.0131989c0.1127353,0.0684872,0.3521748,0.1835041,0.4559364,0.2026539
			c0.2051506,0.0378666,0.1611481-0.1047192,0.3039484-0.050663c0.3603163-0.0087261,0.3563385-0.1154804,0.5572634-0.2532845
			c-0.0081091-0.262289-0.0445881-0.3050594-0.2026215-0.4053059v-0.0506325c0.5402117,0.0146484,0.9275398,0.2902584,1.3678122,0
			c0.1175156-0.0376511,0.1131678-0.0526371,0.2026529-0.1013279c0.0451431-0.2251606,0.0507545-0.3141537-0.101326-0.4559364
			v-0.050663c0.2489367,0.0250397,0.4724035,0.0648174,0.6079264,0.2026215
			c0.2814684,0.009222,0.3959923,0.0068474,0.5065994-0.1519585c0.0465012-0.0970707,0.0202599-0.0372181,0-0.151989
			c0.3465328-0.1412277,0.4115038-0.3112259,0.9118748-0.3039474c0.1043177,1.975462,0.755969,3.3507652,2.1277294,4.2047634
			c0.6810074,0.4239902,1.9867163,0.4212151,2.4823389-0.2026234c0.2515888,0.1534081,0.3752079,1.1639881,0.5572624,1.4691391
			c0.6135712,1.0284634,1.1482315,1.8108292,2.1783924,2.4316769c0.247427,0.1491508,0.7983665,0.4684849,1.3171501,0.303978
			c0.602314-0.1910286,0.5671902-0.6274452,0.9118729-1.0132008c0.2468719-0.1531315,0.8054924-0.0440025,1.1145267-0.2533169
			c0.1976891-0.1338577,0.4575729-0.6874218,0.6079273-0.7598858h0.4559383
			c0.1222-0.0343819,0.3872032-0.1250057,0.5065994-0.202652c0.2036705-0.1324711,0.4002781-0.5720024,0.5572643-0.6585903
			c0.2026215-0.0337639,0.405304-0.0675278,0.6079254-0.101326c0.1374359-0.0629044,0.4624138-0.282238,0.5572643-0.4052734
			c0.065094-0.0844269,0.0744057-0.2369728,0.151989-0.3039474c0.1737595-0.1501408,0.6961803-0.2017879,0.9118748-0.3546429
			c0.1424618-0.100956,0.1817455-0.2883453,0.3039474-0.4052734c0.270153-0.1012955,0.5403957-0.202652,0.8105793-0.3039494
			c0.1931858-0.1253471,0.3185654-0.4454823,0.5066013-0.5572624c0.2000923-0.1189957,0.4243603-0.0825787,0.6078968-0.202652
			c0.1445866-0.094574,0.2277527-0.3029613,0.3546391-0.4052753c0.154829-0.1248226,0.3835678-0.0979347,0.5572662-0.202652
			l0.4052734-0.4052734c1.381876-0.9792824,3.2736797-1.3499279,3.0902653-3.7488251
			c-0.0102386-0.1337357-0.5111618-0.8163147-0.6079254-1.0132027c0.2526054-0.0635204,0.6788483,0.0309925,1.0132027-0.0506611
			C34.5138321,19.5064907,34.7726059,18.8419495,34.5744896,18.5685902z M6.1541672,18.6699162
			c0.08745,0.0326862,0.0495844,0.0099297,0.1013265,0.050663C6.1680431,18.6878948,6.2059097,18.7106514,6.1541672,18.6699162z
			 M6.711431,18.5685902H6.5594416v-0.101326H6.711431V18.5685902z M6.8634205,18.4166012
			c0.087419,0.0326862,0.0495834,0.0099297,0.1012955,0.050663C6.8772964,18.4345779,6.915132,18.457365,6.8634205,18.4166012z
			 M8.5351801,15.6303129c-0.1012945-0.0168972-0.2026529-0.0337954-0.3039474-0.050662
			c-0.0358315-0.1802654-0.0359859-0.275672,0-0.4559374h0.2026529c0.0446186,0.0736971,0.0914278,0.144743,0.1519585,0.2026205
			C8.5802937,15.4706154,8.5655537,15.5429564,8.5351801,15.6303129z M8.940485,17.8087044H8.7884951
			c-0.0326853-0.0874481-0.0099287-0.049614-0.050662-0.101326v-0.354641
			c0.2965469,0.0415039,0.2661123-0.0847988,0.5065994-0.1519604c0.2026224,0.0168686,0.4053059,0.0337658,0.6079273,0.0506649
			c0.0053339,0.1283054,0.0061989,0.1876965,0.050663,0.2532845C9.7592049,17.7260342,9.1687632,17.6674156,8.940485,17.8087044z
			 M9.9536867,17.4540615c0.0168667-0.0337639,0.0337648-0.0675278,0.050662-0.1013241
			C10.0043488,17.3527374,10.0420303,17.3831711,9.9536867,17.4540615z M11.6254463,15.8835983
			c0.08745,0.0326862,0.049614,0.0099297,0.101326,0.050663C11.6393528,15.9015751,11.6771889,15.9243326,11.6254463,15.8835983z
			 M11.7774353,15.9342613c0.08745,0.0326872,0.0495834,0.0099297,0.101326,0.0506639
			C11.7913113,15.952239,11.8291779,15.9749966,11.7774353,15.9342613z M12.1320467,16.4408627
			c-0.0506325-0.050663-0.1013269-0.101326-0.1519585-0.1519909C12.0262499,16.3243351,12.223937,16.3248272,12.1320467,16.4408627z
			 M12.1827097,16.2888718h0.151989C12.2474642,16.3339233,12.2698517,16.3335228,12.1827097,16.2888718z M12.3853626,16.4915237
			l-0.0506639,0.0506649v-0.0506649h-0.050662v-0.0506611C12.3178005,16.4577599,12.3515978,16.474659,12.3853626,16.4915237
			v-0.1519871C12.4303827,16.4267693,12.4299822,16.4044132,12.3853626,16.4915237z M12.3853626,14.5664492
			c-0.1666679,0.1022215-0.0908422,0.2823334-0.0506639,0.4559374l-0.050662,0.0506639
			c-0.1040716-0.0201979-0.0976267-0.0125818-0.1519899-0.0506639c-0.0375271-0.0666666,0.086772-0.6766586,0.1519899-0.8612108
			c0.2450514,0.0340729,0.3749313,0.1173296,0.5572634,0.2026215
			C12.6915922,14.4759464,12.4433022,14.5134745,12.3853626,14.5664492z M13.094615,14.4144602h0.1519594
			C13.159339,14.4594803,13.1817265,14.4591103,13.094615,14.4144602z M13.9051638,16.3395367
			c-0.0168982-0.0168686-0.0337648-0.0337658-0.050663-0.0506649c0.0214615-0.2336712,0.0371876-0.1946945,0-0.3546104
			c0.0951891-0.0429239,0.2680855-0.0894852,0.3546104-0.151989c0.4611177,0.0156336,0.8098707,0.1256866,1.2158537,0.2026529
			C15.0892868,16.2591152,14.3823786,16.3823051,13.9051638,16.3395367z M21.5041714,18.5685902h0.101326v0.101326
			c-0.1432953-0.0394707-0.1762581-0.0530052-0.2533169-0.151989
			C21.4576397,18.5503044,21.4431458,18.5259457,21.5041714,18.5685902z M20.6936226,17.6567154
			c0.0844288,0.0168667,0.1688576,0.0337658,0.2532845,0.050663c-0.065033,0.0445576-0.1250076,0.0468998-0.2532845,0.050663
			V17.6567154z M17.8566418,24.4451752h-0.1013279v-0.2026539c0.117485,0.0115013,0.1428928,0.0099907,0.202652,0.050663h0.1013279
			C17.9925957,24.4089737,17.9503517,24.3719692,17.8566418,24.4451752z M18.7685471,22.6213951
			c-0.2847996,0.0686703-0.4259644-0.1570168-0.6079273-0.2026234c-0.3288021-0.0824223-0.4589577,0.1181011-0.7092533,0.1519604
			c-0.0168972,0.0168953-0.0337639,0.0337944-0.050663,0.050663c0.0183182,0.2108536,0.0241127,0.2152023,0.1519909,0.303978
			c-0.0226955,0.1507874-0.0255947,0.1710148-0.1013279,0.2532845v0.101326
			c-0.5118732-0.6373119-0.6990757-1.3399658-1.4184742-1.7731171c0.0744991-0.1889305,0.1633663-0.1622257,0.2026215-0.4052753
			c0.2014809,0.0063534,0.3966694,0.1088524,0.5572624,0c0.0168991-0.0675297,0.0337963-0.1350899,0.0506649-0.2026196h0.354641
			c0.0506325-0.0506649,0.1013279-0.1013279,0.1519585-0.151989c0.1857548-0.066637,0.2817459-0.037281,0.4052734-0.1013279
			v-0.151989c0.4366665-0.0034542,0.3041649-0.1232815,0.5066032-0.2026215
			c0.0823288-0.0322838,0.202652,0.050663,0.202652,0.050663c0.2513103,0.0052433,0.5024052-0.196207,0.6079254-0.3546429
			c0.4220486,0.0547657,1.8155785,0.4127064,2.0770645,0.6079273c0.2720966,0.0983353,0.3992615,0.6080818,0.5065994,0.8612118
			C20.6937141,21.8445797,19.7309914,22.2330475,18.7685471,22.6213951z M24.0371742,17.7580414
			c0.0874481,0.0326557,0.049614,0.0098991,0.1013241,0.050663C24.0510502,17.7760201,24.0889149,17.7987766,24.0371742,17.7580414z
			 M24.2398262,17.8087044c0.1130428,0.0321312,0.1337967,0.037405,0.2026196,0.1012955
			C24.3294029,17.8778687,24.308651,17.8725948,24.2398262,17.8087044z M26.0635738,19.7337799
			c-0.0389137,0.0348759-0.1128902,0.0667591-0.1519566,0.1013279c-0.1556911-0.0852013-0.1399651-0.1621361-0.1013279-0.3039799
			c0.1012974,0.0337658,0.202652,0.0675621,0.3039494,0.101326C26.0815506,19.7199039,26.1043396,19.6820374,26.0635738,19.7337799z
			 M28.3432922,18.8725395c-0.5264282,0.0984573-0.7468719-0.0913982-1.1651897-0.2026234
			c-0.3588047-0.0954056-0.6445904,0.1116257-0.9118767,0.101326c0.1210938-0.2166519,0.4558468-0.2186871,0.6585903-0.354641
			c0.4558773,0.0844269,0.9119053,0.1688862,1.3678131,0.253315c0.0168991,0.0168667,0.0337658,0.0337658,0.050663,0.050663
			V18.8725395z"/>
	</g>
</g>
<g>
	<g>
		<path fill="#FFFFFF" d="M34.0692749,18.0633774c-0.22649-0.290596-0.8072472-0.1971951-1.1145287-0.4052734
			c-0.040638-0.0489998-0.0747147-0.1388531-0.101326-0.2026539c0.1044426-0.0654945,0.1155128-0.107523,0.253315-0.1519585
			c0-0.0844269,0-0.1688862,0-0.253315c-0.0579376-0.1221085-1.3210926-0.4079247-1.5197983-0.4559383
			c-0.189333-0.0457592-0.2421246,0.0676842-0.4053059,0.1013279c0.0230961,0.1803265-0.0265808,0.1283684,0.101326,0.2026215
			c-0.0168667,0.050663-0.0337658,0.101326-0.0506649,0.151989c-0.0675297,0-0.1350899,0-0.2026196,0
			c0.0489063-0.2345982,0.0380497-0.3683033-0.0506649-0.5572643c-0.1789074-0.0763168-1.2119045-0.456461-1.4691372-0.3546104
			c-0.0675602,0.0675297-0.1351223,0.1350899-0.202652,0.2026215c-0.4534702,0.2014198-1.3282509,0.4554749-1.8744125,0.3039799
			c-1.5667648-0.4346313-3.2020149-0.5697212-4.7113934-0.9625387c-0.2363892-0.0168982-0.4728661-0.0337954-0.7092552-0.0506639
			c-0.492878-0.1566753-1.1292953-0.1342888-1.6717892-0.3039789c-0.3599472-0.1125803-0.8149891-0.2508173-1.2664852-0.2532845
			c-0.006876-0.2889919-0.0816536-0.3455448-0.3039474-0.4052734c-0.175642-0.1116877-0.5416927-0.0441256-0.7092552-0.151989
			c-0.2282143,0.0131969-0.2432632,0.0538387-0.4052734,0.101326c0.0463753,0.1092815,0.043911,0.0736666,0.1012955,0.1519585
			c-0.0168667,0-0.0337639,0-0.0506325,0c-0.0480404,0.0550728-0.1279984,0.0060434-0.202652-0.0506325
			c-0.0604076-0.0678692,0.0055809-0.1318531-0.050663-0.202652c-0.0065994-0.4010506-0.1289558-0.3109789-0.3039494-0.5066013
			c-0.8956223-0.0150785-1.4266443,0.152853-2.1783905,0.3546114c-0.167345,0.0449276-1.0832281-0.2061987-1.2665157-0.2532854
			c-0.1688261-0.0168972-0.3377447-0.0337954-0.5066013-0.050662c-0.2636766-0.1266432-1.096735-0.5728369-1.3171492-0.7599163
			c-0.1477642-0.1254091-0.1095285-0.3917999-0.4559374-0.5066004c-0.0699348-0.0277519-0.2096825,0.0134745-0.4052734,0
			c-0.0435095,0.4945736-0.116806,1.5848026-0.4559679,1.9757385c-0.1953135,0.1329632-1.0960255,0.2587423-1.4184761,0.253315
			c-0.1688557-0.1350908-0.3377428-0.2702131-0.5066004-0.4052734c-0.1063204-0.1733904-0.1059513-0.4313002-0.2532845-0.5572634
			c-0.3012342-0.2575102-0.7094378-0.3557835-0.9625373-0.6585903c-0.2139387,0.000309-0.385663,0.0118103-0.5066009,0.101326
			c-0.2490911,0.1089125-0.0591121,0.2592983-0.2026525,0.4559374c-0.057478,0.0787239-0.2401795,0.123744-0.3039479,0.2026529
			c-0.1730504,0.2140923-0.7491546,0.9837208-0.5066009,1.3678112c-0.0079551,0.5451775,0.3184409,0.9865913,0.7092223,1.1145287
			c0.0269198,0.3138466,0.1028066,0.5005245,0.1013265,0.8612099c-0.40031,0.0055504-1.0199852,0.0181942-1.2665167,0.202652
			c-0.050632,0.0168686-0.101326,0.0337677-0.1519585,0.050663c0.0340734,0.2210636,0.1107926,0.3417549,0.3039479,0.4052753
			c-0.2489681,0.1364803-0.4130445-0.181654-0.7092528-0.101326c-0.1101146,0.0298805-0.1286778,0.1222019-0.3039484,0.151989
			c0.0946965,0.6682739,0.1500468,1.6644821,0.4052744,2.4823399c0.166482,0.5334568,0.4003406,1.1806698,0.4052744,1.8237495
			c0.1688566,0.16642,0.2716627,0.4068146,0.5066309,0.5065994c0.1785088,0.0758266,0.3149872-0.0685787,0.4559374,0
			c0.1465316,0.0713253,0.6212173,0.8674412,0.8612118,1.0132008c0.1127357,0.0684853,0.3521752,0.183506,0.4559374,0.202652
			c0.2051506,0.0378685,0.1611476-0.1047173,0.3039484-0.050663c0.3603148-0.0087261,0.3563371-0.1154785,0.5572629-0.2532845
			c-0.00811-0.262289-0.044589-0.3050556-0.2026215-0.405304c0-0.0168667,0-0.0337658,0-0.0506325
			c0.5402107,0.0146465,0.9275389,0.2902565,1.3678122,0c0.1175146-0.0376511,0.1131668-0.0526371,0.202652-0.101326
			c0.0451441-0.2251644,0.0507555-0.3141556-0.101326-0.4559364c0-0.0168991,0-0.0337982,0-0.050663
			c0.2489367,0.0250378,0.4724035,0.0648155,0.6079273,0.2026196c0.2814684,0.0092201,0.3959923,0.0068455,0.5066004-0.1519566
			c0.0464993-0.0970707,0.0202579-0.03722,0-0.1519909c0.3465319-0.1412277,0.4115028-0.311224,0.9118748-0.3039474
			c0.1043167,1.9754601,0.755969,3.3507671,2.1277275,4.2047615c0.6810074,0.4239922,1.9867172,0.421217,2.482338-0.2026215
			c0.2515888,0.1534081,0.3752117,1.1639881,0.5572662,1.4691372c0.6135674,1.0284653,1.1482296,1.8108292,2.1783905,2.4316769
			c0.2474251,0.1491528,0.7983685,0.4684887,1.3171482,0.303978c0.602314-0.1910267,0.5671921-0.6274452,0.9118748-1.0131989
			c0.24687-0.1531296,0.8054924-0.0440044,1.1145287-0.253315c0.1976871-0.1338596,0.457571-0.6874218,0.6079254-0.7598858
			c0.1519585,0,0.3039799,0,0.4559364,0c0.1222038-0.0343819,0.3872051-0.1250095,0.5066013-0.202652
			c0.2036705-0.1324711,0.4002781-0.5720043,0.5572643-0.6585903c0.2026215-0.0337658,0.405304-0.0675316,0.6079273-0.1013279
			c0.137434-0.0629044,0.46241-0.2822399,0.5572624-0.4052734c0.065094-0.0844288,0.0744076-0.2369728,0.151989-0.3039494
			c0.1737595-0.1501369,0.6961784-0.2017879,0.9118767-0.3546391c0.1424599-0.1009579,0.1817436-0.2883472,0.3039474-0.4052753
			c0.2701492-0.1012955,0.5403957-0.202652,0.8105774-0.3039474c0.1931877-0.1253471,0.3185635-0.4454842,0.5066013-0.5572643
			c0.2000923-0.1189957,0.4243622-0.0825768,0.6078949-0.2026539c0.1445904-0.0945721,0.2277546-0.3029594,0.3546429-0.4052715
			c0.1548271-0.1248245,0.3835659-0.0979347,0.5572624-0.2026539c0.1350613-0.1350613,0.2701836-0.2701817,0.4052753-0.4052734
			c1.3818741-0.9792824,3.2736778-1.3499279,3.0902634-3.7488251c-0.0102348-0.1337357-0.5111618-0.8163147-0.6079254-1.0132027
			c0.2526054-0.0635204,0.6788483,0.0309906,1.0132027-0.050663C34.0086174,19.001276,34.267395,18.3367348,34.0692749,18.0633774z
			 M5.6489549,18.1647034c0.08745,0.0326862,0.0495834,0.0099297,0.1013255,0.050663
			C5.6628304,18.1826801,5.7006969,18.2054367,5.6489549,18.1647034z M6.2062178,18.0633774c-0.050663,0-0.101326,0-0.1519895,0
			c0-0.0337658,0-0.0675602,0-0.101326c0.0506635,0,0.1013265,0,0.1519895,0
			C6.2062178,17.9958172,6.2062178,18.0296116,6.2062178,18.0633774z M6.3582072,17.9113884
			c0.0874195,0.0326843,0.0495839,0.0099277,0.1012955,0.050663C6.3720837,17.9293652,6.4099193,17.9521523,6.3582072,17.9113884z
			 M8.0299683,15.1251011c-0.1012959-0.0168982-0.2026529-0.0337963-0.3039484-0.0506639
			c-0.0358315-0.1802654-0.0359855-0.275671,0-0.4559364c0.0675302,0,0.1350913,0,0.2026525,0
			c0.0446191,0.0736971,0.0914283,0.144742,0.1519589,0.2026215C8.0750809,14.9654026,8.0603409,15.0377426,8.0299683,15.1251011z
			 M8.4352732,17.3034916c-0.0506639,0-0.1013269,0-0.1519899,0c-0.0326853-0.08745-0.0099297-0.049614-0.050663-0.101326
			c0-0.1181927,0-0.2364483,0-0.3546429c0.2965469,0.0415058,0.2661123-0.0847969,0.5066004-0.1519566
			c0.2026215,0.0168648,0.4053049,0.0337639,0.6079264,0.050663c0.0053349,0.1283073,0.0061979,0.1876965,0.050663,0.2532845
			C9.2539921,17.2208214,8.6635494,17.1622028,8.4352732,17.3034916z M9.448473,16.9488506
			c0.0168676-0.0337658,0.0337658-0.0675316,0.0506639-0.1013279C9.4991369,16.8475227,9.5368176,16.8779602,9.448473,16.9488506z
			 M11.1202326,15.3783855c0.08745,0.0326853,0.0496159,0.0099287,0.1013269,0.050663
			C11.13414,15.3963633,11.1719751,15.4191198,11.1202326,15.3783855z M11.2722225,15.4290485
			c0.08745,0.0326862,0.0495844,0.0099297,0.1013269,0.050663C11.2860994,15.4470253,11.3239651,15.4697828,11.2722225,15.4290485z
			 M11.6268339,15.9356499c-0.0506325-0.0506639-0.101326-0.1013269-0.1519585-0.1519899
			C11.5210361,15.8191214,11.7187243,15.8196144,11.6268339,15.9356499z M11.6774969,15.7836599c0.050663,0,0.101326,0,0.1519899,0
			C11.7422523,15.8287106,11.7646389,15.82831,11.6774969,15.7836599z M11.8801489,15.9863129
			c-0.0168972,0.0168972-0.0337648,0.0337658-0.050662,0.050663c0-0.0168972,0-0.0337658,0-0.050663
			c-0.0168982,0-0.0337658,0-0.0506639,0c0-0.0168667,0-0.0337658,0-0.050663
			C11.8125887,15.9525471,11.846384,15.9694462,11.8801489,15.9863129c0-0.050663,0-0.1013269,0-0.1519899
			C11.925169,15.9215574,11.9247684,15.8992014,11.8801489,15.9863129z M11.8801489,14.0612373
			c-0.166666,0.1022196-0.0908413,0.2823315-0.050662,0.4559374c-0.0168982,0.0168972-0.0337658,0.0337639-0.0506639,0.050662
			c-0.1040697-0.0201969-0.0976257-0.0125799-0.151989-0.050662c-0.0375271-0.0666676,0.086772-0.6766605,0.151989-0.8612127
			c0.2450523,0.0340738,0.3749323,0.1173306,0.5572634,0.2026224
			C12.1863794,13.9707346,11.9380903,14.0082607,11.8801489,14.0612373z M12.5894032,13.9092474
			c0.0506325,0,0.1012945,0,0.1519585,0C12.6541271,13.9542675,12.6765127,13.9538975,12.5894032,13.9092474z M13.399951,15.8343229
			c-0.0168982-0.0168667-0.0337648-0.0337648-0.050663-0.050663c0.0214615-0.2336731,0.0371885-0.1946964,0-0.3546114
			c0.09519-0.042923,0.2680855-0.0894852,0.3546114-0.151989c0.4611168,0.0156326,0.8098688,0.1256857,1.2158537,0.202652
			C14.584074,15.7539034,13.8771648,15.8770924,13.399951,15.8343229z M20.9989586,18.0633774c0.0337639,0,0.0675602,0,0.101326,0
			c0,0.0337658,0,0.0675621,0,0.101326c-0.1432934-0.0394688-0.1762581-0.0530071-0.2533169-0.151989
			C20.9524269,18.0450916,20.937933,18.020731,20.9989586,18.0633774z M20.1884098,17.1515026
			c0.0844269,0.0168667,0.1688557,0.0337658,0.2532845,0.050663c-0.0650311,0.0445576-0.1250076,0.0469017-0.2532845,0.050663
			C20.1884098,17.2190342,20.1884098,17.1852684,20.1884098,17.1515026z M17.3514271,23.9399605
			c-0.0337639,0-0.0675297,0-0.1013241,0c0-0.0675602,0-0.1351223,0-0.202652
			c0.1174831,0.0115013,0.1428928,0.0099907,0.202652,0.050663c0.0337639,0,0.0675621,0,0.101326,0
			C17.4873829,23.903759,17.4451389,23.8667564,17.3514271,23.9399605z M18.2633324,22.1161804
			c-0.2847977,0.0686722-0.4259644-0.1570148-0.6079254-0.2026215c-0.3288021-0.0824242-0.4589596,0.1181011-0.7092514,0.1519585
			c-0.0168991,0.0168991-0.0337658,0.0337982-0.0506649,0.050663c0.0183163,0.2108555,0.0241146,0.2152023,0.151989,0.3039799
			c-0.0226955,0.1507854-0.0255928,0.1710148-0.1013241,0.2532845c0,0.0337658,0,0.0675621,0,0.101326
			c-0.5118752-0.6373138-0.6990795-1.3399677-1.4184761-1.7731171c0.0744991-0.1889305,0.1633673-0.1622276,0.2026215-0.4052734
			c0.2014818,0.0063515,0.3966713,0.1088505,0.5572643,0c0.0168953-0.0675297,0.0337944-0.1350918,0.050663-0.2026215
			c0.1181927,0,0.2364159,0,0.3546429,0c0.0506306-0.050663,0.1013241-0.1013279,0.1519566-0.1519909
			c0.1857548-0.0666351,0.2817459-0.0372791,0.4052753-0.1013241c0-0.0506649,0-0.1013279,0-0.1519909
			c0.4366646-0.0034523,0.304163-0.1232815,0.5065994-0.2026215c0.0823326-0.0322857,0.202652,0.050663,0.202652,0.050663
			c0.2513123,0.0052414,0.5024071-0.196209,0.6079273-0.354641c0.4220486,0.0547638,1.8155785,0.4127045,2.0770664,0.6079254
			c0.2720928,0.0983353,0.3992596,0.6080799,0.5065994,0.8612118
			C20.1885014,21.3393669,19.2257805,21.7278366,18.2633324,22.1161804z M23.5319595,17.2528286
			c0.08745,0.0326557,0.049614,0.0098991,0.101326,0.050663C23.5458355,17.2708054,23.5837021,17.2935619,23.5319595,17.2528286z
			 M23.7346134,17.3034916c0.1130428,0.0321331,0.1337948,0.0374031,0.2026215,0.1012955
			C23.824192,17.3726578,23.8034382,17.367384,23.7346134,17.3034916z M25.558363,19.228569
			c-0.0389156,0.034874-0.1128902,0.0667591-0.1519604,0.1013241c-0.1556873-0.0851974-0.1399632-0.1621323-0.1013241-0.303978
			c0.1012936,0.0337639,0.202652,0.0675621,0.3039474,0.101326C25.5763397,19.2146912,25.5991268,19.1768246,25.558363,19.228569z
			 M27.8380795,18.3673248c-0.5264263,0.0984592-0.7468719-0.0913982-1.1651897-0.2026215
			c-0.3588066-0.0954056-0.6445904,0.1116257-0.9118748,0.1013279c0.1210918-0.2166519,0.4558449-0.218689,0.6585903-0.3546429
			c0.4558754,0.0844288,0.9119053,0.1688862,1.3678112,0.253315c0.0168972,0.0168686,0.0337658,0.0337658,0.050663,0.050663
			C27.8380795,18.2660313,27.8380795,18.3166924,27.8380795,18.3673248z"/>
	</g>
</g>
</svg>
