<?xml version="1.0" encoding="utf-8"?>
<!-- Generator: Adobe Illustrator 17.1.0, SVG Export Plug-In . SVG Version: 6.00 Build 0)  -->
<!DOCTYPE svg PUBLIC "-//W3C//DTD SVG 1.1//EN" "http://www.w3.org/Graphics/SVG/1.1/DTD/svg11.dtd">
<svg version="1.1" id="Layer_1" xmlns="http://www.w3.org/2000/svg" xmlns:xlink="http://www.w3.org/1999/xlink" x="0px" y="0px"
	 viewBox="0 0 50 50" enable-background="new 0 0 50 50" xml:space="preserve">
<g id="base">
	<g>
		
			<linearGradient id="SVGID_1_" gradientUnits="userSpaceOnUse" x1="-15.9328156" y1="88.0785217" x2="-15.9328156" y2="92.5000229" gradientTransform="matrix(4 0 3.0474641 -4 -185.8804321 400)">
			<stop  offset="0" style="stop-color:#000000;stop-opacity:0.4"/>
			<stop  offset="1" style="stop-color:#000000;stop-opacity:0"/>
		</linearGradient>
		<path fill="url(#SVGID_1_)" d="M9.0881481,40.5002556c-1.0167847-1.1392174-1.0314798-2.3230133-0.0445471-3.6184273
			c2.9400282-3.8589821,13.146184-6.8819275,23.2354546-6.8819275c10.0887871,0,15.6887894,3.0229454,12.7487602,6.8819275
			c-0.987072,1.2955971-2.805069,2.479393-5.557579,3.6184273l-20.6655521,7.1856575L9.0881481,40.5002556z"/>
		
			<linearGradient id="SVGID_2_" gradientUnits="userSpaceOnUse" x1="4.7469893" y1="88.0785217" x2="4.7469893" y2="99.7510376" gradientTransform="matrix(4 0 0 -4 0 400)">
			<stop  offset="0" style="stop-color:#007BB8"/>
			<stop  offset="1" style="stop-color:#0094DE"/>
		</linearGradient>
		<path fill="url(#SVGID_2_)" d="M3.7971554,28.7161903c-1.8847185-3.0074768-2.8013062-6.1326275-2.8013062-9.5524483
			c0-10.1874971,7.9030776-18.1678886,17.9923496-18.1678886c10.088789,0,17.9918652,7.980392,17.9918652,18.1678886
			c0,3.4203072-0.9161034,6.5454578-2.8008194,9.5524483L18.9881992,47.6859131L3.7971554,28.7161903z"/>
		<path fill="#FFFFFF" d="M18.9879704,1.9917018c9.5306454,0,16.9963207,7.5429325,16.9963207,17.1722221
			c0,3.2092896-0.8568001,6.1461048-2.6186333,8.974165l-14.3776875,17.954174L4.6103849,28.138134
			c-1.7618618-2.8281784-2.6186917-5.7650318-2.6186917-8.9742107C1.9916934,9.5346346,9.4573488,1.9917018,18.9879704,1.9917018
			 M18.9879704,0.0000076C8.4090319,0.0000076,0,8.4868727,0,19.1639233c0,3.8327827,1.085097,7.1180077,2.983901,10.1294575
			l16.0040703,19.985218l16.0041523-19.985218c1.8988419-3.0114498,2.9838638-6.2966747,2.9838638-10.1294575
			C37.9759865,8.4868727,29.5669975,0.0000076,18.9879704,0.0000076L18.9879704,0.0000076z"/>
	</g>
</g>
<g opacity="0.6">
	<g>
		<path d="M34.0756416,18.3006725c-0.2232208-0.2864037-0.7956009-0.1943493-1.0984459-0.3994274
			c-0.0400581-0.0482903-0.0736389-0.1368504-0.099865-0.199728c0.102932-0.0645504,0.113842-0.1059742,0.2496605-0.1497669
			v-0.2496605c-0.057106-0.120348-1.3020344-0.4020405-1.4978714-0.4493599
			c-0.1865997-0.0450993-0.2386303,0.0667095-0.3994579,0.099865c0.0227623,0.1777267-0.0261974,0.1265163,0.099865,0.1996975
			c-0.0166245,0.0499325-0.0332794,0.099865-0.0499325,0.1497974H31.079895
			c0.0482006-0.2312145,0.0375023-0.3629875-0.0499306-0.5492229c-0.1763306-0.0752182-1.1944237-0.4498768-1.4479446-0.3494949
			c-0.0665855,0.066555-0.133173,0.1331425-0.199728,0.1996975c-0.446928,0.198513-1.3090858,0.448904-1.8473682,0.299593
			c-1.5441589-0.4283581-3.1558151-0.5615005-4.6434174-0.9486494c-0.232975-0.016654-0.4660435-0.033308-0.6990185-0.0499315
			c-0.4857674-0.1544161-1.1130047-0.1323519-1.6476707-0.2995939c-0.3547516-0.1109571-0.8032303-0.2471991-1.2482128-0.24963
			c-0.0067768-0.2848234-0.0804749-0.34056-0.2995625-0.3994274c-0.1731052-0.110075-0.5338764-0.0434885-0.6990204-0.1497965
			c-0.2249222,0.0130081-0.2397518,0.0530624-0.3994255,0.099865c0.0457077,0.1077051,0.0432758,0.0726032,0.0998344,0.149766
			h-0.049902c-0.0473499,0.0542774-0.1261539,0.0059566-0.1997299-0.049902
			c-0.059536-0.0668898,0.0055008-0.1299515-0.0499325-0.199729c-0.0065022-0.3952627-0.1270943-0.3064909-0.2995625-0.4992905
			c-0.8827019-0.0148611-1.4060621,0.1506472-2.1469603,0.349494c-0.1649313,0.0442801-1.0676003-0.2032232-1.2482433-0.24963
			c-0.1663895-0.016654-0.3328705-0.033308-0.4992905-0.0499325c-0.2598724-0.124815-1.0809116-0.5645704-1.2981453-0.7489519
			c-0.1456327-0.1235991-0.1079483-0.3861456-0.4493589-0.4992905c-0.0689268-0.0273523-0.2066574,0.0132809-0.3994265,0
			c-0.042882,0.4874382-0.1151209,1.5619373-0.4493895,1.9472322c-0.1924963,0.1310453-1.0802126,0.2550097-1.3980093,0.2496605
			c-0.16642-0.1331425-0.3328714-0.2663145-0.4992914-0.3994265c-0.1047878-0.1708879-0.1044226-0.4250774-0.24963-0.5492239
			c-0.2968884-0.2537937-0.6992025-0.3506489-0.9486499-0.649087c-0.2108521,0.0003033-0.3800988,0.0116396-0.4992919,0.099864
			c-0.2454972,0.1073408-0.058259,0.2555561-0.1997285,0.4493589c-0.0566483,0.0775881-0.2367144,0.1219587-0.2995625,0.199729
			c-0.1705532,0.2110033-0.7383456,0.9695282-0.4992909,1.3480778c-0.0078411,0.5373087,0.3138461,0.9723539,0.6989894,1.0984449
			c0.0265312,0.3093185,0.1013227,0.4933052,0.099864,0.8487873c-0.3945336,0.0054703-1.0052681,0.0179291-1.2482429,0.199728
			c-0.049902,0.0166225-0.0998645,0.0332775-0.149766,0.0499325c0.0335817,0.2178707,0.1091943,0.3368206,0.2995625,0.3994255
			c-0.2453756,0.13451-0.4070854-0.1790314-0.6990199-0.0998631c-0.1085258,0.0294476-0.126821,0.1204376-0.2995625,0.1497955
			c0.0933304,0.6586304,0.147882,1.6404667,0.3994269,2.4465237c0.1640801,0.5257626,0.3945642,1.1636353,0.3994265,1.7974358
			c0.1664205,0.1640205,0.2677436,0.4009476,0.4993219,0.4992924c0.1759324,0.0747299,0.3104424-0.0675907,0.4493589,0
			c0.1444173,0.0702934,0.6122537,0.8549232,0.8487859,0.9985809c0.1111088,0.0674992,0.3470941,0.1808567,0.4493585,0.1997299
			c0.2021904,0.0373192,0.158823-0.1032085,0.2995625-0.0499325c0.3551178-0.0086002,0.3511972-0.1138134,0.5492239-0.24963
			c-0.0079927-0.2585049-0.0439453-0.3006573-0.1996984-0.3994579v-0.049902c0.5324173,0.0144367,0.9141569,0.2860699,1.3480768,0
			c0.1158199-0.0371075,0.1115351-0.051878,0.199729-0.099865c0.0444918-0.2219124,0.0500231-0.3096218-0.099864-0.449358
			v-0.0499325c0.2453451,0.0246773,0.4655876,0.0638809,0.5991554,0.1996975
			c0.2774076,0.0090885,0.3902788,0.0067482,0.4992905-0.149765c0.0458298-0.0956707,0.0199671-0.0366821,0-0.1497974
			c0.3415327-0.1391888,0.4055662-0.3067341,0.8987179-0.2995625c0.1028128,1.9469604,0.7450619,3.3024216,2.0970297,4.1440964
			c0.6711817,0.4178734,1.9580517,0.4151382,2.4465237-0.1996994c0.2479591,0.1511955,0.3697948,1.1471939,0.5492229,1.4479427
			c0.6047173,1.0136242,1.1316643,1.7847023,2.1469612,2.3965912c0.2438564,0.1469994,0.7868481,0.4617271,1.2981453,0.299593
			c0.5936241-0.1882725,0.5590076-0.6183929,0.8987179-0.9985828c0.243309-0.1509209,0.793869-0.0433674,1.0984459-0.2496605
			c0.1948357-0.1319275,0.4509697-0.6775036,0.5991554-0.7489223h0.4493599
			c0.1204376-0.033886,0.3816166-0.1232033,0.4992905-0.199728c0.2007313-0.1305599,0.3945026-0.5637493,0.5492229-0.6490879
			c0.1996994-0.0332775,0.3994579-0.066555,0.5991554-0.099865c0.1354523-0.0619965,0.4557419-0.2781658,0.5492229-0.3994255
			c0.0641556-0.08321,0.0733337-0.2335548,0.1497974-0.2995625c0.1712513-0.147974,0.6861343-0.1988773,0.8987179-0.3495255
			c0.1404057-0.0995007,0.1791229-0.2841854,0.2995625-0.3994274c0.2662544-0.0998325,0.5325985-0.199728,0.7988834-0.2995625
			c0.1903992-0.123539,0.3139687-0.4390564,0.4992924-0.5492229c0.1972046-0.1172791,0.4182377-0.0813866,0.5991249-0.199728
			c0.1425018-0.0932102,0.2244663-0.2985897,0.3495235-0.3994274c0.1525936-0.1230221,0.3780327-0.0965214,0.5492249-0.199728
			l0.3994255-0.3994274c1.3619385-0.9651527,3.2264462-1.3304501,3.0456791-3.6947365
			c-0.0100899-0.1318054-0.503788-0.8045368-0.5991554-0.9985828c0.2489624-0.0626049,0.6690559,0.0305443,0.9985847-0.0499306
			C34.0158615,19.2250404,34.2709007,18.5700874,34.0756416,18.3006725z M6.0653739,18.4005356
			c0.0861883,0.0322151,0.0488687,0.0097866,0.0998645,0.0499325C6.0790496,18.4182549,6.1163697,18.4406834,6.0653739,18.4005356z
			 M6.6145973,18.3006725H6.4648008v-0.099865h0.1497965V18.3006725z M6.7643938,18.1508751
			c0.0861578,0.0322151,0.0488682,0.0097866,0.099834,0.0499325C6.7780695,18.1685925,6.8153591,18.1910515,6.7643938,18.1508751z
			 M8.4120331,15.404789c-0.0998335-0.016654-0.199729-0.033308-0.2995625-0.0499315
			c-0.0353146-0.1776648-0.0354662-0.2716942,0-0.4493589h0.199729c0.0439749,0.0726337,0.0901089,0.1426544,0.149766,0.1996975
			C8.4564953,15.2473955,8.441968,15.3186922,8.4120331,15.404789z M8.8114901,17.5517502H8.6616936
			c-0.0322142-0.0861874-0.0097857-0.0488987-0.0499315-0.099865v-0.3495235
			c0.2922688,0.040905,0.2622728-0.0835762,0.4992905-0.1497669c0.1996984,0.0166245,0.3994579,0.0332775,0.5991554,0.0499325
			c0.0052576,0.1264553,0.0061092,0.184988,0.0499325,0.24963C9.6183977,17.4702721,9.0364742,17.4125004,8.8114901,17.5517502z
			 M9.8100729,17.2022247c0.0166235-0.0332775,0.0332775-0.066555,0.0499315-0.0998631
			C9.8600044,17.1023617,9.8971424,17.1323566,9.8100729,17.2022247z M11.4577122,15.6544199
			c0.0861883,0.0322142,0.0488987,0.0097857,0.099864,0.0499315C11.4714184,15.6721373,11.508708,15.6945658,11.4577122,15.6544199z
			 M11.6075087,15.7043514c0.0861883,0.0322161,0.0488682,0.0097866,0.099864,0.0499334
			C11.6211843,15.7220697,11.6585045,15.7444992,11.6075087,15.7043514z M11.9570036,16.2036438
			c-0.049902-0.0499325-0.099865-0.099865-0.149766-0.1497974C11.8527327,16.0887966,12.0475683,16.089283,11.9570036,16.2036438z
			 M12.0069351,16.0538464h0.1497965C12.070756,16.0982475,12.0928202,16.0978527,12.0069351,16.0538464z M12.2066641,16.2535744
			l-0.0499325,0.0499325v-0.0499325h-0.0499315v-0.0499306C12.1400776,16.2202969,12.1733866,16.2369518,12.2066641,16.2535744
			v-0.1497955C12.2510347,16.1897545,12.2506399,16.1677208,12.2066641,16.2535744z M12.2066641,14.3562746
			c-0.1642628,0.1007462-0.0895309,0.2782593-0.0499325,0.4493589l-0.0499315,0.0499325
			c-0.1025696-0.019906-0.0962181-0.0123997-0.1497965-0.0499325c-0.0369854-0.0657043,0.0855198-0.6668959,0.1497965-0.8487854
			c0.2415161,0.0335817,0.3695221,0.1156368,0.5492229,0.1996984
			C12.5084753,14.2670774,12.2637682,14.3040638,12.2066641,14.3562746z M12.9056835,14.2064781h0.1497669
			C12.9694738,14.2508488,12.991538,14.2504845,12.9056835,14.2064781z M13.7045374,16.1037788
			c-0.016654-0.0166245-0.0332775-0.0332775-0.0499315-0.0499325c0.0211515-0.2303009,0.0366507-0.1918869,0-0.3494949
			c0.0938158-0.042304,0.2642174-0.0881939,0.349494-0.1497955c0.4544649,0.0154076,0.7981853,0.1238728,1.1983109,0.199729
			C14.8715763,16.024519,14.1748667,16.1459312,13.7045374,16.1037788z M21.1939049,18.3006725h0.099865v0.0998631
			c-0.1412277-0.0389004-0.1737156-0.0522404-0.2496624-0.1497955C21.1480446,18.28265,21.1337605,18.2586422,21.1939049,18.3006725
			z M20.395052,17.4019547c0.08321,0.0166225,0.16642,0.0332775,0.24963,0.0499306
			c-0.0640945,0.0439148-0.1232052,0.0462246-0.24963,0.0499325V17.4019547z M17.5990028,24.0924683h-0.099865v-0.1997299
			c0.1157894,0.0113354,0.140831,0.0098476,0.199728,0.0499325h0.099865
			C17.732996,24.0567894,17.6913605,24.020319,17.5990028,24.0924683z M18.4977512,22.295002
			c-0.2806911,0.0676804-0.4198189-0.1547508-0.5991554-0.1996994c-0.3240585-0.081234-0.4523373,0.1163979-0.6990204,0.1497669
			c-0.0166531,0.0166531-0.0332775,0.033308-0.0499325,0.0499325c0.0180531,0.2078114,0.0237656,0.2120972,0.1497974,0.299593
			c-0.0223675,0.1486111-0.0252247,0.1685467-0.099865,0.24963v0.0998631
			c-0.504488-0.6281166-0.6889896-1.3206329-1.3980083-1.7475338c0.0734243-0.1862049,0.1610098-0.1598854,0.1996975-0.3994274
			c0.1985741,0.0062618,0.3909473,0.1072807,0.5492229,0c0.016655-0.066555,0.033308-0.1331406,0.0499325-0.1996975h0.3495255
			c0.049902-0.0499325,0.099865-0.099865,0.149765-0.1497955c0.183075-0.0656757,0.2776814-0.0367432,0.3994274-0.099865v-0.1497974
			c0.4303646-0.0034027,0.2997761-0.1215019,0.4992924-0.1996975c0.0811424-0.0318184,0.199728,0.0499325,0.199728,0.0499325
			c0.2476845,0.005167,0.4951572-0.1933765,0.5991554-0.3495255c0.4159584,0.0539742,1.7893829,0.4067516,2.0470963,0.5991554
			c0.2681694,0.0969162,0.3935013,0.599308,0.4992905,0.8487854C20.3951416,21.5293941,19.44631,21.9122581,18.4977512,22.295002z
			 M23.690361,17.5018177c0.0861874,0.0321846,0.0488987,0.0097561,0.0998631,0.0499325
			C23.7040367,17.519537,23.7413559,17.5419655,23.690361,17.5018177z M23.890089,17.5517502
			c0.111412,0.0316677,0.1318665,0.0368652,0.1996975,0.0998344C23.9783745,17.6199169,23.957922,17.6147194,23.890089,17.5517502z
			 M25.6875248,19.4490509c-0.038353,0.0343723-0.1112614,0.0657959-0.149765,0.099865
			c-0.1534443-0.083971-0.1379452-0.1597958-0.099865-0.299593c0.0998344,0.0332775,0.199728,0.0665855,0.2995625,0.0998631
			C25.7052422,19.4353752,25.7277012,19.3980541,25.6875248,19.4490509z M27.934351,18.600235
			c-0.5188332,0.0970383-0.7360973-0.0900784-1.1483784-0.1996994c-0.3536282-0.0940285-0.6352901,0.1100159-0.8987198,0.099865
			c0.1193466-0.2135258,0.4492683-0.2155323,0.6490879-0.3495255c0.4492989,0.08321,0.8987484,0.1664505,1.3480778,0.2496605
			c0.016655,0.0166245,0.0332775,0.0332794,0.0499325,0.0499325V18.600235z"/>
	</g>
</g>
<g>
	<g>
		<path fill="#FFFFFF" d="M33.5777168,17.8027477c-0.2232208-0.2864017-0.7956009-0.1943493-1.0984459-0.3994255
			c-0.0400543-0.0482922-0.0736389-0.1368504-0.099865-0.1997299c0.1029358-0.0645504,0.1138458-0.1059723,0.2496605-0.149765
			c0-0.08321,0-0.1664505,0-0.2496605c-0.0571022-0.120348-1.3020325-0.4020405-1.4978714-0.4493599
			c-0.1866016-0.0450993-0.2386303,0.0667076-0.3994579,0.099865c0.0227623,0.1777248-0.0261974,0.1265163,0.0998631,0.1996975
			c-0.0166225,0.0499325-0.0332775,0.099865-0.0499325,0.1497974c-0.066555,0-0.1331406,0-0.1996975,0
			c0.0482006-0.2312145,0.0375023-0.3629894-0.0499325-0.5492249c-0.1763268-0.0752163-1.1944199-0.4498739-1.4479408-0.349493
			c-0.0665855,0.066555-0.133173,0.1331406-0.199728,0.1996975c-0.446928,0.198513-1.3090858,0.4489021-1.8473682,0.299593
			c-1.5441589-0.428359-3.1558151-0.5615005-4.6434174-0.9486504c-0.2329769-0.016654-0.4660435-0.033308-0.6990204-0.0499325
			c-0.4857674-0.1544151-1.1130028-0.1323519-1.6476688-0.299593c-0.3547535-0.1109562-0.8032303-0.2471991-1.2482128-0.24963
			c-0.0067768-0.2848225-0.0804749-0.34056-0.2995625-0.3994265c-0.1731071-0.110076-0.5338764-0.0434895-0.6990204-0.1497965
			c-0.2249222,0.0130072-0.2397537,0.0530624-0.3994274,0.099864c0.0457077,0.1077051,0.0432777,0.0726042,0.0998344,0.149766
			c-0.0166225,0-0.0332775,0-0.049902,0c-0.047348,0.0542784-0.126152,0.0059566-0.199728-0.049902
			c-0.059536-0.0668898,0.0055008-0.1299505-0.0499325-0.199728c-0.0065041-0.3952637-0.1270943-0.3064919-0.2995625-0.4992914
			c-0.8827019-0.0148611-1.4060612,0.1506472-2.1469612,0.3494949c-0.1649303,0.0442791-1.0675993-0.2032242-1.2482424-0.2496309
			c-0.1663904-0.016654-0.3328714-0.033308-0.4992914-0.0499315c-0.2598724-0.1248159-1.0809116-0.5645714-1.2981453-0.7489519
			c-0.1456327-0.1236-0.1079483-0.3861465-0.4493589-0.4992914c-0.0689259-0.0273514-0.2066574,0.0132809-0.3994265,0
			c-0.042882,0.4874382-0.1151209,1.5619373-0.4493895,1.9472322c-0.1924953,0.1310453-1.0802116,0.2550097-1.3980093,0.2496605
			c-0.16642-0.1331415-0.3328705-0.2663145-0.4992914-0.3994265c-0.1047869-0.1708879-0.1044226-0.4250765-0.24963-0.5492229
			c-0.2968879-0.2537947-0.6992021-0.3506498-0.9486499-0.6490879c-0.2108517,0.0003042-0.3800983,0.0116396-0.4992914,0.099864
			c-0.2454972,0.1073408-0.058259,0.2555571-0.1997285,0.4493589c-0.0566487,0.0775881-0.2367144,0.1219587-0.2995625,0.199729
			c-0.1705537,0.2110033-0.7383456,0.9695282-0.4992914,1.3480768c-0.0078406,0.5373116,0.3138461,0.9723558,0.6989894,1.0984468
			c0.0265312,0.3093185,0.1013231,0.4933033,0.0998645,0.8487854c-0.3945341,0.0054703-1.0052686,0.017931-1.2482433,0.199728
			c-0.0499015,0.0166245-0.099864,0.0332794-0.149766,0.0499325c0.0335817,0.2178726,0.1091943,0.3368225,0.2995625,0.3994274
			c-0.2453756,0.13451-0.4070849-0.1790333-0.6990194-0.099865c-0.1085258,0.0294495-0.126821,0.1204395-0.2995629,0.1497974
			c0.0933304,0.6586304,0.147882,1.6404667,0.3994269,2.4465237c0.1640801,0.5257607,0.3945646,1.1636353,0.3994269,1.7974358
			c0.1664205,0.1640186,0.2677431,0.4009457,0.4993215,0.4992905c0.1759329,0.0747318,0.3104424-0.0675888,0.4493589,0
			c0.1444173,0.0702953,0.6122541,0.8549252,0.8487859,0.9985828c0.1111093,0.0674973,0.3470941,0.1808567,0.4493589,0.199728
			c0.2021909,0.0373211,0.1588225-0.1032066,0.2995634-0.0499325c0.3551164-0.0086002,0.3511958-0.1138134,0.5492225-0.24963
			c-0.0079927-0.2585049-0.0439453-0.3006554-0.1996984-0.399456c0-0.0166245,0-0.0332794,0-0.049902
			c0.5324173,0.0144348,0.9141569,0.286068,1.3480778,0c0.115819-0.0371075,0.1115341-0.051878,0.199728-0.099865
			c0.0444927-0.2219143,0.0500231-0.3096218-0.099864-0.449358c0-0.016655,0-0.0333099,0-0.0499325
			c0.2453451,0.0246773,0.4655876,0.0638809,0.5991554,0.1996975c0.2774076,0.0090866,0.3902788,0.0067463,0.4992914-0.149765
			c0.0458288-0.0956707,0.0199661-0.0366821,0-0.1497974c0.3415318-0.1391907,0.4055653-0.3067341,0.8987179-0.2995625
			c0.1028118,1.9469585,0.7450619,3.3024216,2.0970287,4.1440945c0.6711817,0.4178753,1.9580526,0.4151402,2.4465227-0.1996975
			c0.2479591,0.1511936,0.3697968,1.1471939,0.5492249,1.4479408c0.6047153,1.0136261,1.1316624,1.7847023,2.1469612,2.3965912
			c0.2438545,0.1470013,0.7868481,0.461729,1.2981434,0.299593c0.5936241-0.1882706,0.5590096-0.6183929,0.8987179-0.9985809
			c0.243309-0.1509209,0.7938709-0.0433693,1.0984478-0.2496605c0.1948357-0.1319275,0.4509697-0.6775036,0.5991554-0.7489223
			c0.149765,0,0.299593,0,0.449358,0c0.1204395-0.033886,0.3816185-0.1232052,0.4992924-0.199728
			c0.2007313-0.1305599,0.3945026-0.5637512,0.5492229-0.6490879c0.1996975-0.0332775,0.399456-0.0665569,0.5991554-0.099865
			c0.1354523-0.0619965,0.45574-0.2781677,0.5492229-0.3994274c0.0641556-0.08321,0.0733337-0.2335529,0.1497955-0.2995625
			c0.1712532-0.1479721,0.6861343-0.1988773,0.8987198-0.3495235c0.1404057-0.0995007,0.1791229-0.2841854,0.2995625-0.3994274
			c0.2662525-0.0998344,0.5325985-0.199728,0.7988834-0.2995625c0.1903992-0.123539,0.3139668-0.4390564,0.4992905-0.5492229
			c0.1972065-0.1172791,0.4182396-0.0813866,0.5991249-0.1997299c0.1425037-0.0932083,0.2244682-0.2985897,0.3495255-0.3994255
			c0.1525936-0.1230221,0.3780327-0.0965214,0.5492229-0.1997299c0.133112-0.133112,0.2662849-0.266283,0.3994274-0.3994255
			c1.3619366-0.9651527,3.2264442-1.3304501,3.0456772-3.6947365c-0.0100861-0.1318054-0.503788-0.8045368-0.5991554-0.9985828
			c0.2489624-0.0626049,0.6690559,0.0305424,0.9985847-0.0499325
			C33.5179367,18.7271156,33.7729797,18.0721626,33.5777168,17.8027477z M5.5674505,17.9026127
			c0.0861883,0.0322151,0.0488682,0.0097866,0.099864,0.0499325C5.5811262,17.92033,5.6184464,17.9427586,5.5674505,17.9026127z
			 M6.1166735,17.8027477c-0.049932,0-0.099864,0-0.1497965,0c0-0.0332775,0-0.0665855,0-0.0998631
			c0.0499325,0,0.0998645,0,0.1497965,0C6.1166735,17.7361622,6.1166735,17.7694702,6.1166735,17.8027477z M6.26647,17.6529522
			c0.0861583,0.0322132,0.0488687,0.0097847,0.099834,0.0499325C6.2801461,17.6706696,6.3174357,17.6931286,6.26647,17.6529522z
			 M7.9141102,14.9068661c-0.099834-0.016654-0.199729-0.033309-0.2995629-0.0499325
			c-0.0353141-0.1776648-0.0354662-0.2716942,0-0.4493589c0.066556,0,0.1331425,0,0.199729,0
			c0.0439754,0.0726337,0.0901089,0.1426544,0.149766,0.1996984C7.9585719,14.7494717,7.9440451,14.8207684,7.9141102,14.9068661z
			 M8.3135672,17.0538273c-0.0499325,0-0.099865,0-0.1497965,0c-0.0322142-0.0861893-0.0097866-0.0488987-0.0499325-0.099865
			c0-0.1164875,0-0.233036,0-0.3495255c0.2922688,0.0409069,0.2622728-0.0835743,0.4992914-0.149765
			c0.1996984,0.0166225,0.399457,0.0332775,0.5991554,0.0499325c0.0052576,0.1264553,0.0061083,0.184988,0.0499315,0.24963
			C9.1204739,16.9723492,8.5385504,16.9145756,8.3135672,17.0538273z M9.312149,16.7043018
			c0.0166235-0.0332775,0.0332785-0.0665569,0.0499325-0.099865C9.3620815,16.6044369,9.3992186,16.6344337,9.312149,16.7043018z
			 M10.9597883,15.156496c0.0861883,0.0322142,0.0488997,0.0097857,0.099865,0.0499325
			C10.9734945,15.1742144,11.0107841,15.1966429,10.9597883,15.156496z M11.1095848,15.2064285
			c0.0861883,0.0322142,0.0488691,0.0097857,0.099865,0.0499315C11.1232615,15.2241459,11.1605806,15.2465744,11.1095848,15.2064285
			z M11.4590797,15.7057199c-0.049902-0.0499325-0.099864-0.099865-0.149766-0.1497965
			C11.3548088,15.5908728,11.5496445,15.5913591,11.4590797,15.7057199z M11.5090122,15.5559235c0.0499315,0,0.099864,0,0.1497965,0
			C11.5728331,15.6003237,11.5948963,15.5999289,11.5090122,15.5559235z M11.7087402,15.7556524
			c-0.016654,0.016654-0.0332775,0.0332785-0.0499315,0.0499325c0-0.016654,0-0.0332785,0-0.0499325
			c-0.016654,0-0.0332785,0-0.0499325,0c0-0.0166235,0-0.0332785,0-0.0499325
			C11.6421547,15.722374,11.6754627,15.7390289,11.7087402,15.7556524c0-0.0499325,0-0.099865,0-0.1497974
			C11.7531109,15.6918306,11.7527161,15.6697979,11.7087402,15.7556524z M11.7087402,13.8583517
			c-0.1642618,0.1007452-0.0895309,0.2782583-0.0499315,0.4493589c-0.016654,0.016654-0.0332785,0.0332775-0.0499325,0.0499315
			c-0.1025686-0.019906-0.0962172-0.0123987-0.1497965-0.0499315c-0.0369854-0.0657053,0.0855198-0.6668968,0.1497965-0.8487864
			c0.2415161,0.0335817,0.3695221,0.1156378,0.5492229,0.1996984
			C12.0105524,13.7691545,11.7658453,13.8061399,11.7087402,13.8583517z M12.4077606,13.7085552c0.049902,0,0.0998335,0,0.149766,0
			C12.4715509,13.7529259,12.4936142,13.7525606,12.4077606,13.7085552z M13.2066145,15.605855
			c-0.016655-0.0166235-0.0332785-0.0332775-0.0499325-0.0499315c0.0211515-0.2303019,0.0366516-0.1918879,0-0.3494949
			c0.0938168-0.042304,0.2642174-0.0881948,0.3494949-0.1497965c0.454464,0.0154076,0.7981844,0.1238728,1.1983109,0.199728
			C14.3736525,15.5265961,13.6769428,15.6480074,13.2066145,15.605855z M20.695982,17.8027477c0.0332775,0,0.0665855,0,0.0998631,0
			c0,0.0332794,0,0.0665874,0,0.099865c-0.1412258-0.0389004-0.1737137-0.0522423-0.2496605-0.1497955
			C20.6501217,17.7847271,20.6358376,17.7607174,20.695982,17.8027477z M19.8971272,16.9040298
			c0.08321,0.0166245,0.16642,0.0332794,0.24963,0.0499325c-0.0640926,0.0439148-0.1232033,0.0462246-0.24963,0.0499325
			C19.8971272,16.9705868,19.8971272,16.9373093,19.8971272,16.9040298z M17.101078,23.5945435c-0.0332775,0-0.066555,0-0.0998631,0
			c0-0.0665855,0-0.133173,0-0.199728c0.1157894,0.0113354,0.140831,0.0098457,0.199728,0.0499325
			c0.0332775,0,0.0665874,0,0.099865,0C17.2350712,23.5588646,17.1934376,23.5223961,17.101078,23.5945435z M17.9998264,21.7970772
			c-0.2806892,0.0676804-0.4198189-0.1547489-0.5991554-0.1996975c-0.3240566-0.0812359-0.4523373,0.116396-0.6990185,0.149765
			c-0.016655,0.016655-0.0332775,0.0333099-0.0499325,0.0499325c0.0180511,0.2078133,0.0237656,0.2120972,0.1497955,0.299593
			c-0.0223675,0.1486111-0.0252228,0.1685486-0.0998631,0.24963c0,0.0332794,0,0.0665874,0,0.099865
			c-0.504488-0.6281185-0.6889915-1.3206348-1.3980093-1.7475338c0.0734243-0.1862049,0.1610107-0.1598873,0.1996984-0.3994274
			c0.1985741,0.0062599,0.3909483,0.1072807,0.5492229,0c0.0166531-0.066555,0.033308-0.1331425,0.0499325-0.1996975
			c0.1164875,0,0.2330055,0,0.3495255,0c0.0499001-0.0499325,0.0998631-0.099865,0.149765-0.1497974
			c0.183075-0.0656738,0.2776814-0.0367413,0.3994274-0.0998631c0-0.0499325,0-0.099865,0-0.1497974
			c0.4303646-0.0034027,0.2997742-0.1215019,0.4992905-0.1996975c0.0811443-0.0318203,0.199728,0.0499325,0.199728,0.0499325
			c0.2476864,0.0051651,0.4951591-0.1933784,0.5991554-0.3495255c0.4159603,0.0539742,1.7893829,0.4067497,2.0470982,0.5991554
			c0.2681675,0.0969162,0.3934994,0.5993061,0.4992905,0.8487854
			C19.8972187,21.0314713,18.9483871,21.4143353,17.9998264,21.7970772z M23.1924362,17.0038948
			c0.0861893,0.0321846,0.0488987,0.0097561,0.099865,0.0499325C23.2061119,17.0216122,23.243433,17.0440407,23.1924362,17.0038948z
			 M23.3921661,17.0538273c0.111412,0.0316677,0.1318645,0.0368633,0.1996975,0.0998325
			C23.4804516,17.121994,23.4599972,17.1167965,23.3921661,17.0538273z M25.1896019,18.951128
			c-0.038353,0.0343704-0.1112614,0.0657959-0.1497669,0.0998631c-0.1534424-0.0839691-0.1379433-0.1597939-0.0998631-0.299593
			c0.0998325,0.0332775,0.199728,0.0665874,0.2995625,0.099865C25.2073193,18.9374504,25.2297783,18.9001312,25.1896019,18.951128z
			 M27.4364262,18.1023102c-0.5188313,0.0970383-0.7360954-0.0900784-1.1483784-0.1996975
			c-0.3536282-0.0940285-0.6352901,0.110014-0.8987179,0.099865c0.1193447-0.2135258,0.4492683-0.2155323,0.6490879-0.3495255
			c0.4492989,0.08321,0.8987484,0.1664505,1.3480778,0.2496605c0.0166531,0.0166245,0.0332775,0.0332775,0.0499306,0.0499325
			C27.4364262,18.0024776,27.4364262,18.0524082,27.4364262,18.1023102z"/>
	</g>
</g>
</svg>
