<?xml version="1.0" encoding="utf-8"?>
<!-- Generator: Adobe Illustrator 17.1.0, SVG Export Plug-In . SVG Version: 6.00 Build 0)  -->
<!DOCTYPE svg PUBLIC "-//W3C//DTD SVG 1.1//EN" "http://www.w3.org/Graphics/SVG/1.1/DTD/svg11.dtd">
<svg version="1.1" id="Layer_1" xmlns="http://www.w3.org/2000/svg" xmlns:xlink="http://www.w3.org/1999/xlink" x="0px" y="0px"
	 viewBox="0 0 50 50" enable-background="new 0 0 50 50" xml:space="preserve">
<g id="base">
	<g>
		
			<linearGradient id="SVGID_1_" gradientUnits="userSpaceOnUse" x1="-2.0374808" y1="76.0604782" x2="-2.0374808" y2="84.9393005" gradientTransform="matrix(2 0 1.5237321 -2 -92.9402161 200)">
			<stop  offset="0" style="stop-color:#000000;stop-opacity:0.4"/>
			<stop  offset="1" style="stop-color:#000000;stop-opacity:0"/>
		</linearGradient>
		<path fill="url(#SVGID_1_)" d="M9.124958,40.6642914c-1.0209036-1.143837-1.0356569-2.3324242-0.0447273-3.6330872
			c2.9519367-3.8746147,13.1994286-6.9097996,23.329567-6.9097996c10.1296501,0,15.7523346,3.0351849,12.800396,6.9097996
			c-0.9910698,1.3008461-2.8164291,2.4894371-5.5800896,3.6330872l-20.7492542,7.2147598L9.124958,40.6642914z"/>
		
			<linearGradient id="SVGID_2_" gradientUnits="userSpaceOnUse" x1="9.5324326" y1="76.0604782" x2="9.5324326" y2="99.500061" gradientTransform="matrix(2 0 0 -2 0 200)">
			<stop  offset="0" style="stop-color:#007BB8"/>
			<stop  offset="1" style="stop-color:#0094DE"/>
		</linearGradient>
		<path fill="url(#SVGID_2_)" d="M3.812535,28.8324966c-1.8923522-3.019659-2.8126526-6.1574669-2.8126526-9.5911407
			c0-10.2287579,7.9350872-18.2414742,18.0652275-18.2414742c10.1296482,0,18.0647354,8.0127153,18.0647354,18.2414742
			c0,3.4341621-0.9198112,6.57197-2.8121643,9.5911407L19.0651093,47.8790512L3.812535,28.8324966z"/>
		<path fill="#FFFFFF" d="M19.0648785,1.999765c9.5692463,0,17.0651646,7.5734839,17.0651646,17.2417736
			c0,3.2222881-0.8602753,6.1709976-2.6292419,9.0105133L19.0648785,46.2789459L4.6290584,28.2520981
			c-1.7689977-2.8396339-2.6292982-5.7883816-2.6292982-9.0105591C1.9997603,9.5732489,9.4956541,1.999765,19.0648785,1.999765
			 M19.0648785,0.0000038C8.4430914,0.0000038,0,8.5212431,0,19.241539c0,3.8483086,1.089492,7.1468372,2.9959869,10.1704865
			l16.0688915,20.0661621l16.0689716-20.0661621c1.9065361-3.0236492,2.9959526-6.3221779,2.9959526-10.1704865
			C38.1298027,8.5212431,29.6867542,0.0000038,19.0648785,0.0000038L19.0648785,0.0000038z"/>
	</g>
</g>
<g opacity="0.6">
	<g>
		<path fill-rule="evenodd" clip-rule="evenodd" d="M34.149353,20.2131348
			c-0.1204224-0.0411377-0.3478394,0.0374146-0.4545898-0.0259399h-0.2987061
			c-0.0432739-0.3939209-0.0866089-0.7879639-0.1298828-1.1818848c-0.0645142-0.2778931-0.048584-0.5808716-0.1168823-0.8702393
			c-0.1495972-0.6339111-0.1628418-1.322876-0.3117065-1.9481812v-0.1038818
			c-0.0316772-0.1251221-0.0910034-0.3026123-0.0779419-0.4545898c0.0048218-0.0561523,0.0351562-0.0567017,0.0519409-0.0909424
			c0.0588989-0.119873,0.0020752-0.2681885-0.0778809-0.324646c0.0032349-0.1276245,0.0842896-0.3979492,0.1428223-0.4805908
			c-0.0311279-0.1555176-0.3218994-0.1086426-0.4415894-0.1818237h-0.0259399
			c0.0093994-0.0792236,0.0247192-0.2025757,0.0649414-0.2597656v-0.1038818
			c-0.3068848-0.0770874-0.8225098-0.026001-1.1819458-0.026001c-0.2421875,0-0.4002686-0.0171509-0.5454712,0.0779419
			c-0.0282593,0.1057129-0.0616455,0.5796509,0.026001,0.675354c0.0408936,0.1182251,0.1807251,0.1251221,0.2987061,0.1688843
			c0.1837158,0.0680542,0.4104614,0.1146851,0.6104126,0.1688232c0.104126,0.0281982,0.2314453,0.0123291,0.3117065,0.0649414
			c0.0170898,0.0283203-0.0273438,0.085083-0.0129395,0.1428833c0.0088501,0.0355225,0.0565796,0.0800171,0.0649414,0.1038818
			c0.0214233,0.0611572-0.0603638,0.2028198-0.0779419,0.2467651c-0.017334,0.0779419-0.034668,0.1558838-0.0519409,0.2337646
			c-0.0429688,0.1313477-0.1000977,0.2980957-0.1428833,0.4286499c-0.0473022,0.1442261-0.0491333,0.2689819-0.0909424,0.4155884
			c-0.0690918,0.2426147-0.1345825,0.5247803-0.2077637,0.7662964c-0.0609131,0.2008667-0.0616455,0.3815918-0.1169434,0.5844727
			c-0.071228,0.2614136-0.1063843,0.539978-0.1818237,0.8182373c-0.038208,0.1409912-0.0888062,0.3125-0.1038818,0.4675293
			l-0.0130005,0.0130005c-0.2219238-0.0031738-0.5958862-0.0668335-0.7532959,0.0390015
			c-0.124939,0.0839233-0.1675415,0.2709961-0.2727661,0.3766479c-0.0720825,0.0437012-0.1699219,0.0323486-0.2337646,0.0778809
			c-0.1680908,0.1200562-0.28479,0.3737793-0.4026489,0.5455322c-0.0427856,0.0623779-0.1929932,0.2380371-0.1038818,0.3766479
			c0.0198364,0.0577393,0.0690918,0.0759888,0.1428833,0.0779419c0.0148926,0.0909424,0.0090332,0.2765503,0.0130005,0.3895874
			c-0.071228-0.0007935-0.2685547,0.0097656-0.324707-0.0259399c-0.1240845-0.0065308-0.2371826-0.0274658-0.2597656,0.0779419
			c-0.6079712-0.0046997-1.2026978-0.0808716-1.7923584-0.1169434c0.012085-0.0372925,0.0419312-0.0603027,0.0519409-0.0908813
			c0.0393066-0.119812-0.0214233-0.289856,0.0390015-0.3896484c-0.0006104-0.0401001-0.0045166-0.0665894-0.0130005-0.0909424
			h-0.1298828c0.0216675-0.2813721,0.0432739-0.5628052,0.0649414-0.8441772c0.0170288-0.078064-0.0140381-0.2161865,0-0.2597656
			c0.0178833-0.055603,0.0947876-0.0905151,0.1168823-0.1558838c0.0202026-0.0283203,0.0205688-0.1275024,0-0.1558228
			c-0.0562134-0.1494751-0.4282227-0.1151123-0.6104126-0.1558838c-0.1844482-0.0411987-0.6798096-0.1107788-0.8572388-0.0389404
			c-0.1505737,0.0609741-0.2559814,0.1949463-0.3766479,0.2857056c-0.0646362,0.0487061-0.1535645,0.0994263-0.1818237,0.1818848
			c-0.3829346,0.0021362-0.5337524,0.2608032-0.7272949,0.4545288c-0.0819092,0.0820312-0.208252,0.1793823-0.2467651,0.2987671
			v0.1558228c0.0442505,0.0410767,0.0754395,0.0547485,0.1428223,0.0779419
			c-0.0004272,0.1402588,0.0233154,0.2630615,0.026001,0.4155884c-0.0906372-0.0007324-0.461853-0.0028687-0.5195312-0.0389404
			c-0.1150513-0.0064697-0.1615601,0.0016479-0.1818237,0.0909424c-0.1204834,0.0004272-0.6408081-0.0144043-0.701355-0.052002
			h-0.1428833c0.0172729-0.0471191,0.0617065-0.0654297,0.0779419-0.1038818
			c0.0508423-0.1202393,0.0123901-0.3288574,0.0519409-0.4545898c-0.0402832-0.0140381-0.1094971-0.0144043-0.1688232-0.0130005
			c0.008667-0.2597046,0.017334-0.5195312,0.026001-0.7792358c0.000061-0.09021,0.0233154-0.2800903,0-0.324707
			c0.0142212-0.0864258,0.0753784-0.0588989,0.1038818-0.1298828c0.0083008-0.0193481,0.0161133-0.0056152,0-0.026001
			c0.0001831-0.0558472,0.005188-0.1060791-0.026001-0.1298828c-0.0754395-0.0576172-0.184082-0.0122681-0.2987061-0.0389404
			c-0.1364746-0.0317383-0.3023682,0.0093994-0.4545898-0.026001c-0.0968018-0.022522-0.2890625-0.0531006-0.4025879-0.0259399
			c-0.2547607,0.0608521-0.4534912,0.1504517-0.6624146,0.2597656c-0.0527344,0.0275879-0.114502,0.0848389-0.1688232,0.1038818
			c-0.1379395,0.0483398-0.3037109,0.0108643-0.4286499,0.0649414c-0.0873413,0.0378418-0.1680298,0.1192017-0.2467651,0.1688232
			c-0.206665,0.1304321-0.4085693,0.2634888-0.6104126,0.3896484c-0.0101929,0.0449829-0.0290527,0.1522827,0,0.1948242
			c0.0140381,0.0394287,0.0119629,0.0385132,0.0519409,0.0519409c0.0219116,0.0166016,0.0553589,0.0228271,0.0909424,0.026001
			c0.0090332,0.0845947-0.0023804,0.2613525,0.0389404,0.324707v0.1038818
			c-0.1461792-0.0485229-0.5557861-0.0002441-0.6623535-0.0649414c-0.0872803,0.0022583-0.1264038,0.0466309-0.1428833,0.1168823
			h-0.0519409c0.0072632-0.0959473,0.0519409-0.0741577,0.0778809-0.1298828
			c0.0407104-0.0872803-0.0091553-0.2208862,0.0390015-0.2987061c0.0014648-0.0479736,0.0056763-0.1149292-0.0130005-0.1428833
			c-0.0317993-0.0213013-0.1159058-0.0149536-0.1688232-0.0129395l-0.0130005-0.0130005
			c0.0094604-0.0509033,0.0340576-0.095459,0.0389404-0.1168823c-0.0043335-0.0909424-0.008667-0.1818848-0.0129395-0.2727661
			c0.0169678-0.0540161,0.0820923-0.1049194,0.1038818-0.1558838c0.0611572-0.1431885-0.0473022-0.274353-0.0909424-0.3636475
			c0.0857544-0.0671997,0.1740723-0.2112427,0.1039429-0.3636475c-0.0177612-0.0385132-0.0925903-0.1004639-0.1168823-0.1558838
			c-0.1696777-0.387146-0.3294067-0.7817383-0.5325317-1.1429443c-0.0562744-0.0101929-0.2115479,0.0042725-0.2597656-0.0259399
			H17.732605c-0.1255493,0.2337646-0.2510986,0.4675903-0.3766479,0.701355
			c-0.0289307,0.0101929-0.0706177,0.0137939-0.1168823,0.0129395c-0.0279541,0.0792236,0.0026245,0.1814575-0.026001,0.2727661
			c-0.048584,0.1550903-0.2628174,0.3984375-0.1038818,0.5584717v0.0130005
			c-0.1467285,0.02948-0.3447266-0.0037231-0.4805908,0.0390015c-0.0910645,0.0286255-0.1835938,0.0964966-0.2597656,0.1428223
			c-0.1817627,0.1105957-0.3791504,0.1994019-0.5584717,0.2987671c-0.053772,0.0297852-0.324646,0.0339355-0.3766479,0H15.303833
			c0.0143433-0.1204834-0.0128174-0.3198242-0.0130005-0.4675903c-0.000061-0.06604,0.0140381-0.1774902-0.0129395-0.2208252
			c-0.0055542-0.1264038,0.0230103-0.1463013,0.1038818-0.1818237c-0.0003052-0.0354004-0.0004883-0.0595093-0.0130005-0.0778809
			c-0.0148926-0.1402588-0.1463013-0.0761108-0.2727661-0.1039429c-0.0651245-0.0143433-0.6737061-0.0472412-0.7922363-0.0130005
			c-0.2415771,0.0698853-0.4839478,0.1835938-0.7143555,0.2857666c-0.0304565,0.0134888-0.0725098,0.0546265-0.1038818,0.0649414
			c-0.1471558,0.0043335-0.2944336,0.008667-0.4415894,0.0130005c-0.2325439,0.0606079-0.40271,0.1879883-0.5844727,0.2987061
			c-0.0716553,0.0436401-0.1502686,0.0609131-0.2078247,0.1168823H12.225708
			c-0.0050659-0.2576294-0.0108643-0.519165-0.0519409-0.7402954c0.0391235-0.0192261,0.0700684-0.0407104,0.1168823-0.0519409
			c-0.0011597-0.0499268-0.0043945-0.0770874-0.026001-0.1039429c-0.0336304-0.0802002-0.0855103-0.0449829-0.1818237-0.0649414
			c-0.1552734-0.0321045-0.6470337-0.0597534-0.8312378,0c-0.2055054,0.0667114-0.4190063,0.1360474-0.6234131,0.2208252
			c-0.0580444,0.0240479-0.1327515,0.0734863-0.1948242,0.0908813h-0.1688232
			c-0.161438,0.000061-0.3191528-0.0076904-0.4415894,0.0390015c-0.4285889,0.2120972-0.8572388,0.4242554-1.2858276,0.6364136
			c-0.0281982,0.0723267-0.0055542,0.1121216,0,0.2077637c0.0389404,0.0043335,0.0779419,0.008667,0.1168823,0.0130005
			c0.0144653,0.1202393,0.0740356,0.2096558,0.0779419,0.3377075c-0.3116455-0.017334-0.6234741-0.034668-0.9351196-0.0519409
			c-0.0185547-0.1331177-0.0791016-0.249939-0.1168823-0.3637085c-0.0541382-0.1628418-0.0750122-0.3040771-0.1298828-0.4675293
			c-0.0458374-0.1364746-0.1224365-0.3009644-0.1558838-0.4415894c-0.0160522-0.067749,0.0385132-0.055542,0.026001-0.1168823
			c-0.0487671-0.2387085-0.1699219-0.4984131-0.2467651-0.727356c-0.1107788-0.329895-0.1856079-0.6449585-0.2987671-0.9740601
			c-0.0892944-0.2598877-0.1590576-0.5379028-0.2597046-0.8052979c-0.0584106-0.1551514-0.140625-0.3240967-0.1298828-0.5065308
			c0.0424805-0.0393066,0.0910645-0.0731201,0.1428223-0.1038818c0.0045776-0.1559448,0.0011597-0.2410278-0.0908813-0.2987061
			v-0.026001c0.1296387-0.0661621,0.232605-0.1706543,0.350647-0.2467651
			c0.0404663-0.180481-0.0148315-0.3800659-0.0389404-0.5584717c-0.2052002-0.0515747-0.4874878,0.0514526-0.6883545,0.1038818
			c-0.0650635,0.0170288-0.1768799,0.00354-0.2078247,0.0519409c-0.0426025,0.0667725,0.0413818,0.1990356,0.0649414,0.2597656
			c-0.1159668,0.0473022-0.1879883,0.1003418-0.2857056,0.1558838c0.0202026,0.0545654,0.0290527,0.1174316,0.0649414,0.1558228
			c-0.0128174,0.1109009-0.0965576,0.0757446-0.1428833,0.1428833c-0.0216675,0.0313721-0.010437,0.0544434-0.0390015,0.0779419
			c0.0350952,0.1143188,0.003479,0.2089233,0.1169434,0.2727051c-0.0736084,1.0908813-0.1472168,2.1821289-0.2208252,3.2730103
			c-0.0585938-0.0126343-0.0637817-0.0484619-0.1038818-0.0649414H5.2641602
			c-0.1794434-0.0396729-0.4384766-0.0614014-0.5844727,0.0130005c-0.0240479,0.0876465-0.0664062,0.2299194,0,0.3117065
			c0.0153198,0.0671997,0.0809937,0.0976562,0.1558838,0.1038818c0.0083618,0.0223999,0.0025024,0.0126953,0.0129395,0.026001
			c-0.0281982,0.0230103-0.0627441,0.0268555-0.1168823,0.0259399c-0.0043335,0.0043335-0.008667,0.008667-0.0129395,0.0130005
			c-0.0016479,0.0532227-0.0084229,0.1366577,0.0129395,0.1688232C4.75,19.4312134,5.0742798,19.5802612,5.1862183,19.6676636
			c0.0352783,0.0275269,0.2642822,0.5182495,0.2857666,0.5844727c0.0043335,0.4285278,0.008667,0.8572388,0.0129395,1.2858276
			c0,0.1237793-0.0314331,0.4404907,0.0130005,0.4935303c0.0049438,0.0038452,0.3128052,0.0765991,0.324707,0.0779419
			c0.0029297,0.0300903,0.0025635,0.0366211,0.0130005,0.0519409v0.0649414
			c0.1583862,0.0275269,0.4457397-0.0987549,0.5195312-0.052002h0.1038818
			c-0.0083618,0.0224609-0.0025635,0.0127563-0.0130005,0.026001c-0.0325317,0.0266113-0.100708,0.0373535-0.1558228,0.0389404
			c-0.0004272,0.0379028-0.0006714,0.0708008,0.0129395,0.0909424v0.026001
			c0.121521,0.0237427,0.5502319,0.1011963,0.6884155,0.0649414c0.1695557-0.0445557,0.3646851-0.1159668,0.5584717-0.1298828
			v-0.0779419c0.0818481,0.0002441,0.2161865,0.0021973,0.2727051,0.0389404
			c0.0852661,0.0033569,0.0657349,0.026001,0.1169434,0.0519409c0.0552979,0.0366211,0.2035522,0.0283813,0.2857056,0.026001
			v-0.0389404c0.1716309-0.0022583,0.2471313-0.055603,0.3896484-0.0649414
			c0.0037231,0.0371704,0.0078125,0.1150513,0.026001,0.1428223c0.0042725,0.0130005,0.008606,0.026001,0.0129395,0.0390015
			c0.1560669,0.0043335,0.3656006,0.0683594,0.4675903-0.026001h0.026001c-0.0037842,0.0514526-0.0192261,0.0853882,0,0.1168823
			c-0.0020142,0.1426392-0.0136719,0.3168945,0.0389404,0.4026489c0.1453857,0.0064697,0.2926025,0.0517578,0.4805298,0.0519409
			c0.137207,0.3106689,0.2689209,0.4736328,0.727356,0.4675903c0.0805664-0.0876465,0.1170654-0.1325073,0.2727661-0.1168823
			c0.0432739,0.0043335,0.0865479,0.008606,0.1298218,0.0129395c0.0488281,0.0267944,0.05896,0.1165161,0.1039429,0.1428833
			h0.0519409c0.0610962,0.0310059,0.1156616,0.1008911,0.1818237,0.1298828
			c0.1938477,0.0849609,0.5046997,0.131958,0.7532959,0.0779419h0.1948242
			c0.052002-0.0180054,0.105957-0.0906982,0.1558838-0.1168823c0.0847168-0.0445557,0.1442871-0.053833,0.1948242-0.1298828
			c0.0175171-0.0134888-0.005188-0.0201416-0.0130005-0.0519409c0.0292358-0.0076904,0.0160522-0.0043335,0.0349121-0.0009766
			c0.001709-0.0004883,0.00354-0.0026855,0.0055542-0.0039673c0.0065918-0.1233521,0.1705933-0.2165527,0.1932983-0.3717041
			c0.0690918,0.0440674,0.0533447,0.2347412,0.0909424,0.3117065c0.0814819,0.1668701,0.2637939,0.2648926,0.324707,0.4545288
			h0.0129395c0.0256348,0.0073242-0.0259399,0.0130005-0.0259399,0.0130005
			c0.0853882,0.1089478,0.2785645,0.123291,0.4805298,0.1168823c0.0443726-0.0460815,0.1040039-0.0640869,0.1558838-0.1038818
			c0.0272217-0.020874,0.0343628-0.0569458,0.0649414-0.0779419c0,0-0.0029297-0.0509644-0.0130005-0.0259399
			c-0.0043335,0.0043335-0.008667,0.008667-0.0130005,0.0129395c0.0713501-0.1445923,0.1727295-0.3451538,0.1818237-0.5324707
			c0.2049561,0.0093384,0.4782715,0.0425415,0.6624146,0.0259399c0.0214233,0.0748901-0.0022583,0.2494507,0.0129395,0.3896484
			c0.0705566,0.0148926,0.5270996,0.0679932,0.5325317,0.0649414h0.1038818v0.026001
			c-0.0223999-0.0083618-0.0126953-0.0025635-0.0259399-0.0130005h-0.0779419
			c0.1088867,0.1606445,0.2209473,0.3406372,0.2727661,0.5584717c0.3063965,0.0812378,0.6883545,0.0714111,1.0130615,0.1428833
			h0.3117065c0.1116333,0.024353,0.3832397,0.088562,0.5195312,0.0519409
			c0.1190796-0.0320435,0.1448364-0.1433716,0.2467651-0.1818237c0.0830078-0.052124,0.2783813,0.0374756,0.4025879-0.0130005
			c0.0549927-0.0223389,0.1039429-0.0930786,0.1558838-0.1168823c0.1470337-0.0673218,0.3447266-0.1201172,0.4545898-0.2207642
			h0.0389404c-0.0462036,0.1287842-0.0315552,0.4599609-0.0908813,0.5584717
			c-0.0029297,0.0579834,0.0076294,0.0483398-0.026001,0.0519409c0.005188,0.0266724,0.0032349,0.0250244,0.0130005,0.0389404
			c0,0-0.0029297,0.0509644-0.0130005,0.026001L18.407959,24.538147c0.0058594,0.0386963,0.0065918,0.0438232,0.026001,0.0649414
			v0.0130005c0.0141602-0.0221558,0.0068359-0.0400391,0.0130005-0.0519409v-0.026001
			c0.0200806,0.0303345,0.0183716,0.0891113,0.0389404,0.1168823c0.0686035,0.0557251,0.4902344,0.1112671,0.5324707,0.0519409
			l0.052002,0.052002c0.1480103-0.0053711,0.4121704-0.1461182,0.5065308-0.2208252
			c0.0396729-0.0532837,0.0304565-0.2492065,0.0129395-0.2857056c-0.0014038-0.1263428-0.0344849-0.5742188,0.0130005-0.6494141
			c0.1077271-0.072998,0.3411255-0.031311,0.4805908-0.0130005c0.0003052,0.0354004,0.0004883,0.0595093,0.0129395,0.0779419
			v0.0259399h0.0649414c0.0009766,0.2745972,0.0161743,0.583252,0.1428833,0.7403564
			c0.0715332,0.0886841,0.2230835,0.1287842,0.2857666,0.2207642c0.0422363,0.0620728,0.0332031,0.1636353,0.0778809,0.2208252
			c0.0836182,0.1040649,0.5166626-0.0008545,0.5974731-0.0649414c0.0377197-0.0302734,0.0790405-0.1154785,0.1038818-0.1558838
			c0.0401611-0.0083008,0.086731-0.0137939,0.1428833-0.0130005c0.0510864,0.0488281,0.1078491,0.062439,0.1428833,0.1298828
			c0.3043213-0.0249023,0.5575562-0.5341187,0.5584717-0.8831787c0.0917358-0.0371704,0.1359253-0.0882568,0.1818237-0.1688232
			c0.2437134,0.0012207,0.4992676,0.0302124,0.7143555,0.0779419c0.0877075,0.0194702,0.1737671-0.0133057,0.2337646,0.0259399
			h0.0130005c-0.0012207,0.0716553,0.0043335,0.1156006,0.026001,0.1558838
			c0.0859375,0.0023804,0.2233276,0.0076294,0.2727051,0.0519409c0.0321045,0.0192871,0.0241089,0.0160522,0.026001,0.0649414
			c0.0476074,0.0130005,0.0952148,0.026001,0.1428833,0.0389404c0.1183472,0.0062256,0.3059692,0.0432739,0.3117065-0.0778809
			c0.038147,0.0131836,0.0557251,0.0405884,0.0908813,0.0519409c0.1035767,0.0334473,0.1837769-0.0102539,0.2987061-0.0130005
			c-0.0015869,0.3835449,0.0281372,0.9569702,0.2597656,1.052002v0.0130005
			c-0.0371094-0.0046997-0.0560913-0.0084839-0.0778809-0.0259399h-0.0130005
			c0.0240479,0.1109009,0.1286621,0.0651855,0.2207642,0.1038818c0.1031494,0.043335,0.1595459,0.1340332,0.2078247,0.2337646
			c0.0264893,0.0092163,0.0788574,0.0004883,0.1168823,0.0130005c0.046875,0.0154419,0.1025391,0.0568848,0.1558838,0.0779419
			c0.0557861-0.1000977,0.1004028-0.2366333,0.1948242-0.2987061c0.1951904-0.128418,0.4599609,0.0015869,0.5065308,0.1818237
			c0.1599731-0.0469971,0.1818848-0.5408325,0.5454712-0.4415894c0.0365601,0.0099487,0.0980225,0.0419312,0.1298828,0.0649414
			c0.0737305,0.0531616,0.0748901,0.1481323,0.1298828,0.2207642v0.1688843
			c0.0389404,0.0216064,0.0779419,0.0432739,0.1168823,0.0649414c0.0579224,0.0425415,0.0620117,0.1083984,0.1038818,0.1688232
			c0.0460815,0.0664062,0.1467285,0.0859985,0.1948242,0.1558228h0.5195312c0.0630493,0,0.1670532,0.0126953,0.2078247-0.0129395
			c0.0895386-0.0175171,0.1265869-0.1265259,0.1818237-0.1818848l0.1688232-0.1688232
			c0.043396-0.0814209,0.0324097-0.1885376,0.0519409-0.2597656c0.0565796-0.2056274,0.1700439-0.4328613,0.1818848-0.675354
			c0.1043701-0.0002441,0.1312866,0.020874,0.1947632,0.0519409v0.0519409
			c0.1618652,0.0087891,0.326355,0.0494995,0.4675903,0.0130005c0.0043335-0.0216675,0.008667-0.0432739,0.0130005-0.0649414
			h0.0519409c-0.0031738,0.380127-0.0123901,0.7281494,0.1298828,0.9611206
			c0.017334,0.0519409,0.0346069,0.1038818,0.0519409,0.1558228c0.015686,0.0136108,0.350708,0.0687256,0.4026489,0.0909424
			c0.0917969,0.0393066,0.1347046,0.1473999,0.2207642,0.1818237c0.0369873,0.012146,0.0518799-0.0230103,0.0909424-0.0389404
			l0.1818237-0.026001c0.0967407-0.0348511,0.1885986-0.1380005,0.2987061-0.1688232
			c0.1181641-0.0331421,0.3029175,0.0248413,0.3896484-0.0390015c0.0629272-0.0446777,0.112915-0.2149658,0.1168823-0.3117065
			c0.119873-0.0241699,0.1486816-0.1482544,0.2338257-0.2077637c0.0013428-0.0328979,0.0015869-0.0481567,0.0129395-0.0649414
			c0.0033569-0.133667-0.0447388-0.1154175-0.1428223-0.1428833c0.0026855-0.1154785,0.0275879-0.2070312,0.0389404-0.3117065
			h0.1038818c0.001709,0.0667725,0.0152588,0.1906128-0.0129395,0.2337646
			c0.0083618,0.0223999,0.0025024,0.0126953,0.0129395,0.026001c0.0638428,0.0445557,0.4423828,0.0762939,0.5455322,0.0779419
			c0.0011597,0.0499268,0.0043335,0.0770264,0.0259399,0.1038818c0.0302734,0.0687866,0.1080322,0.0300903,0.1688843,0.0649414
			c0.1483765,0.0028687,0.1253052-0.0407104,0.1948242-0.1039429c0.1743774-0.0761719,0.5930176,0.12854,0.8052368-0.0129395
			c0.1226807-0.0817871,0.2249146-0.3304443,0.2727661-0.4805908c0.0424805-0.1334839-0.0696411-0.1856079-0.052002-0.2857056
			c0.0249634-0.1416016-0.0216064-0.3496094,0.0130005-0.5065308c0.0456543-0.2067871,0.0254517-0.5161743,0.026001-0.7143555
			v-0.3766479l-0.0130005-0.5844727c0-0.0686035,0.0155029-0.1884155-0.0130005-0.2337646v-0.2467651
			c0.0230103-0.0430298,0.1463623-0.0566406,0.1948242-0.0779419c0.1627808-0.0714111,0.3584595-0.1569214,0.5065308-0.2467651
			c0.0264893-0.1004639,0.0415649-0.218689,0.0389404-0.3636475c-0.0527954,0.0006714-0.1082153-0.0009766-0.1428223-0.0130005
			c0.0249023-0.0949097,0.1817627-0.1051025,0.2337646-0.1818237C34.4182129,20.5726929,34.3150635,20.2697754,34.149353,20.2131348
			z M5.4849243,19.1351929c-0.0367432-0.0106201-0.0525513-0.0090332-0.1038818-0.0130005v-0.0390015
			c0.0581665,0.0007324,0.0430908,0.012085,0.0779419-0.0259399h0.0259399V19.1351929z M5.7836914,15.3037109h-0.026001V15.277771
			c0.008667,0.0042725,0.017334,0.008606,0.026001,0.0129395V15.3037109z M5.7966919,15.1738281h-0.026001
			c-0.010437-0.0339355-0.0161133-0.0307617-0.026001-0.0649414l0.052002,0.0130005V15.1738281z M6.2122803,18.3039551v0.0389404
			c-0.0098267-0.0139771-0.0081787-0.0120239-0.0130005-0.0389404H6.2122803z M6.1992798,18.3688965
			c0.0098267,0.0139771,0.0081787,0.0119629,0.0130005,0.0389404H6.1473389
			C6.1712646,18.3887329,6.1821289,18.3988037,6.1992798,18.3688965z M6.1213379,18.3168945v0.026001
			c-0.0043335-0.0043335-0.008606-0.008667-0.0129395-0.0130005c-0.0248413-0.0216064-0.043335-0.0823975-0.052002-0.1168823
			C6.0950928,18.2351074,6.0941772,18.2850342,6.1213379,18.3168945z M6.1343384,18.355896v0.0259399H6.1213379V18.355896H6.1343384
			z M5.9265137,18.0181885c0.0228882,0.0352173,0.0062256,0.0739136,0,0.1168823H5.9135742
			C5.913269,18.0887451,5.9164429,18.0473022,5.9265137,18.0181885z M5.9265137,18.1480713h0.052002
			c-0.026062,0.0514526-0.0239258,0.0807495-0.052002,0.1298828H5.9135742
			C5.913269,18.210144,5.9176025,18.1771851,5.9265137,18.1480713z M5.9265137,18.3428955v0.0389404
			c-0.0098267-0.013916-0.0081177-0.0119629-0.0129395-0.0389404H5.9265137z M6.0044556,18.3039551v-0.0130005h0.0130005
			c-0.0043335,0.0432739-0.008667,0.0866089-0.0130005,0.1298828c0.0216675-0.0043335,0.043335-0.008667,0.0649414-0.0130005
			l0.0130005,0.0130005v0.0130005c-0.0338745-0.0044556-0.0691528-0.0108643-0.1038818,0.0129395
			c-0.0301514-0.0029297-0.0366821-0.0025635-0.052002-0.0129395c-0.0042725-0.0043335-0.008606-0.008667-0.0129395-0.0130005
			C5.9708252,18.3901978,5.9674683,18.3522949,6.0044556,18.3039551z M5.9265137,18.5117188H5.9135742
			c0.0043335-0.008606,0.008667-0.0172729,0.0129395-0.0259399c0.0792236,0.0011597,0.2183838,0.0090332,0.2727661-0.026001
			h0.0390015C6.1672974,18.5147705,5.9855957,18.4833984,5.9265137,18.5117188z M7.7058716,20.2521362h0.0519409
			c-0.0125122,0.010437-0.0355835,0.019165-0.0519409,0.0259399V20.2521362z M6.9136353,19.1351929
			c-0.0043335-0.1645508-0.008667-0.3291016-0.0130005-0.4935913v-0.0519409c-0.0762939-0.0142212-0.1773682,0.0272217-0.2597656,0
			C6.62146,18.583252,6.6226807,18.559082,6.5759277,18.5637207c-0.0300903,0.0029297-0.0758667,0.0180664-0.0908813,0.0129395
			c-0.0636597-0.0415649-0.0180054-0.2663574-0.0390015-0.3636475c-0.013855-0.0643311,0.0060425-0.2212524-0.0130005-0.3377075
			c-0.0177612-0.1090698-0.0422363-0.4772339-0.0129395-0.6234131c0.020813-0.1039429-0.05896-0.270813,0-0.3636475
			c0.0043335-0.0043335,0.008667-0.008667,0.0129395-0.0130005c0.1524048,0.3655396,0.2164917,0.7581177,0.350708,1.1429443
			c0.0612183,0.1755371,0.1706543,0.3899536,0.1948242,0.5844727c0.1057739,0.0220337,0.0955811,0.1790161,0.1298828,0.2727661
			c0.0756836,0.2068481,0.1452637,0.4429321,0.2207642,0.649353c0.0278931,0.0761719,0.024292,0.1591187,0.0649414,0.2208252
			c-0.0073242,0.0789795-0.0614014,0.0809326-0.1298828,0.0908813c0.0082397,0.0369873,0.0186768,0.0784302,0.0390015,0.1039429
			c-0.010498,0.0524902-0.0272217,0.0568848-0.0649414,0.0779419v0.0778809
			c-0.050415,0.0055542-0.121521,0.0142822-0.1558838,0.0390015c-0.0297241,0.0133667-0.0281372,0.0222778-0.0519409,0.0389404
			c-0.0012207,0.0847168,0.0015259,0.1733398,0.0389404,0.2208252c-0.0014038,0.0369873-0.005188,0.055481-0.0129395,0.0778809
			l-0.0390015,0.0130005C6.9829102,20.0357056,6.9482422,19.5853882,6.9136353,19.1351929z M7.3162231,22.1483765
			c-0.0266724-0.005188-0.0250244-0.0032349-0.0389404-0.0130005c-0.0528564,0.0006714-0.1082153-0.0009766-0.1428833-0.0130005
			v-0.0389404c0.0689697-0.0152588,0.0932617-0.0183716,0.1688843-0.0130005
			c0.0043335,0.0043335,0.008667,0.008667,0.0129395,0.0130005V22.1483765z M8.2773438,21.057373
			c-0.1454468,0.0278931-0.2730103-0.0123901-0.4415894-0.0130005v0.052002c-0.1359863,0.0119019-0.454834,0.0831299-0.5844116,0
			h-0.026001v-0.1169434c-0.0266724-0.005127-0.0250244-0.0031738-0.0389404-0.0129395
			c-0.0528564,0.0006104-0.1082764-0.0010376-0.1428833-0.0130005c0.0016479-0.0640259,0.013855-0.1798706-0.0130005-0.2208252
			v-0.0130005c0.274231-0.0594482,0.9421997-0.1782837,1.1040039-0.324646
			c0.0206909-0.0077515,0.0146484-0.0045166,0.0239258-0.0120239c-0.001709-0.0012207-0.005249-0.0014038-0.0070801-0.0025024
			c-0.0228882-0.0038452-0.0458984-0.0076294-0.0688477-0.0114746v-0.0130005
			c0.0356445,0.0021362,0.0513306,0.0136108,0.0688477,0.0244751c0.0030518,0.0004883,0.0060425,0.0010376,0.0090942,0.0015259
			c-0.0010376,0.0007935-0.0012207,0.0003662-0.0020142,0.0009766c0.026123,0.0181274,0.0463257,0.0407715,0.0799561,0.0639648
			c-0.0006104,0.100708-0.0001221,0.4312744,0.0389404,0.4935303V21.057373z M8.8748169,20.758667
			c-0.0350342,0.0090942-0.0562134,0.0179443-0.0779419,0.0389404c-0.0728149-0.0462036-0.0411987-0.3184814-0.0908813-0.4025879
			v-0.026001c0.0605469,0.0043335,0.1212158,0.008667,0.1818237,0.0130005
			c0.0020752,0.1323853,0.0527344,0.1658325,0.0908813,0.2467651C8.9277344,20.6665039,8.8793945,20.6689453,8.8748169,20.758667z
			 M12.4075317,23.4212036h-0.0130005v-0.026001h0.0130005V23.4212036z M12.5244141,20.1222534
			c-0.1017456,0.0030518-0.1931152,0.0063477-0.1948242-0.026001h0.1818237l0.0130005,0.0130005V20.1222534z M14.0180664,21.3690796
			c-0.0574951,0.0009155-0.0889282-0.0001221-0.1169434-0.0259399c-0.0211182-0.0150757,0.0028076-0.0166016,0.0130005-0.0390015
			c0.0192261,0.0145874-0.0050049,0.0159302,0.026001,0.0390015c0.0200195,0.0101318,0.0318604-0.0009155,0.0519409-0.026001
			h0.026001V21.3690796z M14.0700073,21.2132568h-0.026001l-0.0130005-0.0130005v-0.0519409l0.0390015,0.0130005V21.2132568z
			 M13.9790649,21.0963745c-0.0579224,0.0012817-0.060791-0.0046997-0.0779419,0.0389404
			c-0.0223999-0.0083618-0.0126953-0.0025635-0.0259399-0.0130005h-0.0130005
			c0.0170898-0.0195923,0.024353-0.027832,0.0519409-0.0389404c0.0111084-0.008606,0.0407715-0.0175781,0.0519409-0.026001
			c0.034668,0.0130005,0.0692749,0.026001,0.1039429,0.0390015C14.0512695,21.1304932,13.9990845,21.1442871,13.9790649,21.0963745z
			 M15.2388916,23.7199097c-0.0098267-0.0139771-0.0081177-0.0120239-0.0130005-0.0389404h0.0130005V23.7199097z
			 M15.4337158,21.5899048c-0.0217896,0.0515747-0.0790405,0.0565796-0.1168823,0.0908813h-0.026001
			c0.00177-0.0805054,0.0222168-0.2443237-0.0129395-0.2987061c-0.0046997-0.0487061-0.0100708-0.0482788-0.026001-0.0779419
			c-0.0774536-0.0192261-0.4678955-0.102417-0.5454712-0.0519409c-0.0794678,0.0278931-0.097168,0.1500244-0.1039429,0.2467651
			c-0.039917-0.0139771-0.046875-0.0317383-0.0778809-0.0519409c-0.0015869-0.1362305-0.0118408-0.3456421,0.0129395-0.4026489
			c0.0100098-0.1126709,0.1918335-0.1732178,0.2597656-0.2727051c0.05896,0.0143433,0.0479126,0.046875,0.0909424,0.0649414
			c0.1558228,0.0129395,0.3117065,0.0259399,0.4675293,0.0389404c0.022644,0.0639038,0.0205688,0.0980835,0.0909424,0.1168823
			C15.4481812,21.1107788,15.4783936,21.5193481,15.4337158,21.5899048z M17.6806641,20.2910767
			c0.0223999,0.0084229,0.0126953,0.0025635,0.0259399,0.0130005h0.0130005v0.026001h-0.0519409L17.6806641,20.2910767z
			 M17.6936035,21.3301392c-0.0442505-0.0027466-0.0662842-0.0062256-0.0908813-0.026001h-0.0130005
			c0.0100098-0.0089111,0.0289307-0.0170898,0.0389404-0.0259399h0.0649414
			C17.6893921,21.3186646,17.689209,21.2987061,17.6936035,21.3301392z M17.5897217,21.5639038v-0.0259399h0.0779419v0.0389404
			c-0.0359497,0.0062866-0.0375366,0.015686-0.0649414,0h-0.026001L17.5897217,21.5639038z M17.4208984,20.5249023
			c0.0270386-0.0053711,0.071167-0.0123291,0.0908813-0.026001c0.017334,0.008667,0.034668,0.017334,0.0519409,0.026001
			c-0.0042725,0.008606-0.008606,0.0172729-0.0129395,0.0259399h-0.1298828V20.5249023z M17.5377808,20.758667v0.0389404
			l-0.0130005,0.0130005c-0.0378418,0.0004272-0.0708008,0.0006714-0.0908813-0.0130005l-0.0130005-0.0130005
			C17.4570923,20.7679443,17.4779663,20.7585449,17.5377808,20.758667z M17.355957,21.083374
			c0.0172729-0.017334,0.0346069-0.034668,0.0519409-0.0519409h0.1168823
			c0.0043335,0.0042725,0.008667,0.008606,0.0130005,0.0129395c-0.0249634,0.0379028-0.1090698,0.0247192-0.1428833,0.052002
			H17.355957V21.083374z M17.5117798,21.2911377v0.0390015h-0.1428223v-0.026001
			C17.4090576,21.2958374,17.4556885,21.2903442,17.5117798,21.2911377z M17.3040161,20.8106079h0.0259399v0.026001h-0.0259399
			V20.8106079z M17.4468384,22.0574341v0.0390015c-0.065979-0.0020752-0.1231689-0.0039062-0.1558228,0.0259399
			c-0.0301514-0.0029297-0.0366211-0.0025635-0.0519409-0.0129395h-0.0130005
			C17.2755127,22.0751953,17.3734131,22.0564575,17.4468384,22.0574341z M17.4468384,22.3302002
			c-0.0275879,0.0114746-0.0578003,0.0203857-0.0778809,0.0389404h-0.0390015
			c-0.0043335-0.0129395-0.008667-0.0259399-0.0130005-0.0389404c0.0170288-0.0066528,0.0511475-0.0158691,0.0649414-0.026001
			c0.0267334,0.005188,0.0250244,0.0032349,0.0390015,0.0130005C17.4432983,22.3256226,17.4335938,22.3197632,17.4468384,22.3302002
			z M17.1741333,21.9016113v0.0130005c-0.0327148-0.0212402-0.0135498-0.0024414,0-0.0390015
			C17.1824341,21.8949585,17.1902466,21.8812256,17.1741333,21.9016113z M17.2000732,22.8497314
			c0.0224609-0.0083618,0.0127563-0.0025635,0.026001-0.0130005h0.0389404l0.0130005,0.0130005v0.0130005h-0.0779419V22.8497314z
			 M17.3299561,23.2783203h-0.0519409c0.0119019-0.0280151,0.0112915-0.0188599,0.026001-0.0389404
			c0.0354004,0.0003052,0.0595093,0.0004883,0.0778809,0.0129395h0.026001
			C17.3892212,23.2863159,17.3549194,23.2904663,17.3299561,23.2783203z M17.3429565,23.0964966h-0.1168823v-0.0130005
			c0.0424805-0.010437,0.0961914-0.027832,0.1298828-0.0519409c0.0266724,0.005188,0.0250244,0.0032349,0.0389404,0.0130005
			h0.026001C17.4022217,23.0758667,17.3685913,23.0744019,17.3429565,23.0964966z M17.4468384,22.836731h-0.1688232v-0.0130005
			c0.0161743-0.008667,0.0268555-0.0140991,0.0389404-0.0259399c0.0403442-0.0008545,0.0819702-0.0018921,0.1039429,0.0129395
			h0.0259399V22.836731z M17.4598389,22.6029663c-0.0479736,0.0014648-0.1149292,0.0056763-0.1428833-0.0130005
			c-0.0043335-0.0043335-0.008606-0.008667-0.0129395-0.0130005c0.0402832-0.0185547,0.0750122-0.0274658,0.1428223-0.0259399
			c0.005188,0.0266724,0.0032349,0.0250244,0.0130005,0.0389404V22.6029663z M17.381897,21.8626099
			c-0.0133667-0.010437-0.0031738-0.0047607-0.0259399-0.0129395v-0.0390015
			c0.0266724-0.005188,0.0250244-0.0032349,0.0389404-0.0130005c0.0528564,0.0030518,0.0500488,0.0064087,0.0779419,0.026001
			C17.4512329,21.8405762,17.4099121,21.8552246,17.381897,21.8626099z M17.4858398,21.5899048
			c-0.0479736,0.0014648-0.1149292,0.0056763-0.1428833-0.0130005h-0.0130005v-0.0130005
			c0.0519409-0.0043335,0.1039429-0.008667,0.1558838-0.0130005V21.5899048z M17.5247803,22.78479h0.0909424v0.0130005
			c-0.0163574,0.0071411-0.0392456,0.015564-0.052002,0.0259399h-0.0519409
			C17.5161133,22.81073,17.5204468,22.7977905,17.5247803,22.78479z M17.5377808,23.0185547h0.0908813
			c-0.0042725,0.0130005-0.008606,0.026001-0.0129395,0.0390015c-0.026001,0.0042725-0.052002,0.008606-0.0779419,0.0129395
			v-0.0129395C17.5258179,23.0326538,17.5325928,23.0479736,17.5377808,23.0185547z M17.6416626,23.2523193
			c-0.0183105,0.0066528-0.0625,0.0154419-0.0779419,0.026001h-0.0259399
			c0.0166626,0.0114136,0.0320435,0.0120239,0.0649414,0.0130005c-0.0043335,0.0130005-0.008667,0.0259399-0.0130005,0.0389404
			c-0.0462646-0.0042725-0.0432739-0.0007935-0.0649414-0.0259399c-0.0174561-0.0244751-0.0061035-0.0407715,0.0130005-0.0779419
			h0.0908813l0.0130005,0.0130005V23.2523193z M17.5897217,22.5899658
			c-0.0646362-0.0062256-0.0523071-0.0080566-0.0389404-0.0519409c0.0266724,0.005188,0.0250244,0.0032349,0.0389404,0.0130005
			h0.0519409C17.6245728,22.5806885,17.6137695,22.571167,17.5897217,22.5899658z M17.5247803,22.3432007
			c0.0119019-0.0280151,0.0112915-0.0189209,0.026001-0.0390015h0.0778809
			c-0.0042725,0.0130005-0.008606,0.026001-0.0129395,0.0390015H17.5247803z M17.6546631,22.0834351h-0.1168823v-0.026001h0.1168823
			V22.0834351z M17.5637207,21.8366699v-0.0390015c0.0428467-0.0010986,0.0930786-0.0030518,0.1169434,0.0130005
			c0.0223999,0.0084229,0.0126953,0.0025635,0.0259399,0.0130005
			C17.6580811,21.8395386,17.6245117,21.8349609,17.5637207,21.8366699z M17.6806641,21.0703735h-0.052002
			c-0.0042114-0.0404663-0.0043945-0.0205078,0-0.0519409h0.0909424l0.0130005,0.0130005
			C17.7145386,21.0473022,17.6964111,21.0512085,17.6806641,21.0703735z M17.7585449,20.7846069
			c-0.0389404,0.0043335-0.0778809,0.008667-0.1168823,0.0130005V20.758667h0.1039429
			c0.0043335,0.0043335,0.008606,0.008667,0.0129395,0.0130005V20.7846069z M17.7585449,20.5119019
			c-0.0392456,0.0080566-0.0690308,0.0135498-0.0908813,0.0389404c-0.0223999-0.0083618-0.0126953-0.0025635-0.026001-0.0130005
			c-0.0125122-0.020874-0.0007324-0.0012207,0-0.0389404h0.1168823V20.5119019z M17.9404297,21.0443726
			c0.0223999,0.0084229,0.0126953,0.0025635,0.0259399,0.0130005h0.0130005l-0.0130005,0.026001h0.0130005
			c-0.012207,0.0537109-0.0013428,0.0223999-0.0389404,0.0389404
			C17.9191284,21.0720825,17.9213257,21.0890503,17.9404297,21.0443726z M17.9533691,22.0704346
			c0,0-0.0128174,0.0021362-0.0129395-0.0389404h0.0129395V22.0704346z M17.9663696,21.8496704
			c-0.0223999-0.0084229-0.0126953-0.0025635-0.0259399-0.0130005c-0.010498-0.0133667-0.0048218-0.0032349-0.0130005-0.026001
			c0.0118408-0.012085,0.0175171-0.022644,0.0259399-0.0389404h0.0130005V21.8496704z M17.9404297,21.3431396v-0.0649414
			c0.0390015,0.017395,0.0263672,0.0289307,0.0778809,0.0389404C17.9988403,21.3495483,17.9910889,21.3435059,17.9404297,21.3431396
			z M18.0962524,21.5899048l-0.0130005,0.0130005h-0.0130005c0.008728-0.0475464,0.0215454-0.055542,0.0390015-0.0909424
			C18.1212769,21.5366211,18.109375,21.5574341,18.0962524,21.5899048z M18.1351929,21.4859619h-0.0259399
			c-0.0113525-0.0477295-0.0221558-0.0643921-0.0130005-0.1038818c0.0130005,0.008667,0.026001,0.017334,0.0389404,0.026001
			V21.4859619z M18.6937256,24.6680298c0.0306396,0.0114136,0.0214233,0.0048828,0.0389404,0.026001
			C18.7164917,24.6853027,18.7058105,24.6798706,18.6937256,24.6680298z M18.8365479,22.5250244h-0.0259399v-0.026001h0.0259399
			V22.5250244z M19.3301392,24.4342651h-0.0130005l-0.0130005-0.0130005
			c0.0025635-0.0337524,0.0057373-0.0441284,0.0130005-0.0649414h0.0130005V24.4342651z M19.6158447,21.6937866
			c-0.0532837,0.0363159-0.5664062-0.1092529-0.6623535-0.026001c-0.1126709,0.0657959-0.0484619,0.3540039-0.1298828,0.4545898
			c-0.0133667,0.010498-0.0032349,0.0048218-0.026001,0.0130005c-0.0249634-0.0368652-0.0167847-0.1091309-0.0389404-0.1558228
			c-0.0522461-0.1098633-0.1575317-0.1608887-0.1558838-0.324707c0.0501709-0.0014038,0.065979-0.0029907,0.0909424-0.026001
			c0.0129395-0.0043335,0.0259399-0.008667,0.0389404-0.0130005c-0.0013428-0.0328979-0.0015869-0.0480957-0.0130005-0.0649414
			c-0.0139771-0.0098267-0.0119629-0.0081177-0.0389404-0.0129395c0.0057983-0.2327881,0.1290894-0.2689209,0.1688232-0.4415894
			c0.1204834-0.003479,0.1384888,0.0368652,0.1818237,0.1038818c0.0829468-0.0010376,0.2521973-0.012085,0.3117065,0.0259399
			c0.3112793-0.0032959,0.1194458,0.1004028,0.2987671,0.1558838
			C19.6425781,21.4614868,19.6530151,21.6356201,19.6158447,21.6937866z M24.1616211,21.2002563l0.026001,0.0130005v0.0129395
			h-0.026001V21.2002563z M23.8109741,21.1742554c0.0840454,0.0168457,0.2076416,0.0142822,0.3117065,0.0130005v0.0389404
			c-0.1318359-0.0009155-0.1872559-0.026062-0.3117065-0.0259399V21.1742554z M22.2653809,21.083374v0.0130005
			c-0.0306396-0.0114136-0.0214233-0.0049438-0.0389404-0.026001C22.2394409,21.074707,22.2523804,21.0790405,22.2653809,21.083374z
			 M21.9666748,23.135437h-0.0130005v-0.0259399h0.0130005V23.135437z M23.2784424,22.8627319
			c-0.0404663-0.0078735-0.0315552-0.0022583-0.0519409-0.026001h0.0519409V22.8627319z M24.3175049,22.0834351v0.0908813
			c-0.0141602,0.0237427-0.1078491,0.0310059-0.1298828,0.052002c-0.008667,0.0302734-0.017334,0.0606079-0.026001,0.0908813
			c-0.0266113,0.0367432-0.0940552,0.0614624-0.1298828,0.0909424c-0.0098267,0.0139771-0.0081177,0.0119629-0.0130005,0.0389404
			h-0.0389404c-0.012207,0.0281982-0.0258789,0.053772-0.0389404,0.0779419c-0.0359497,0.0062866-0.0375366,0.015686-0.0649414,0
			c-0.1991577-0.0074463-0.1177979,0.0333862-0.1818237,0.1428833c-0.0437012,0.0193481-0.3393555-0.0222168-0.4156494-0.0390015
			c-0.1298828-0.008667-0.2597656-0.0172729-0.3896484-0.0259399c-0.2139282-0.0477905-0.4844971-0.086731-0.7272949-0.0909424
			l-0.0130005-0.0130005c0.0043335-0.0735474,0.008667-0.1471558,0.0130005-0.2207642l0.1558228-0.0130005v-0.0649414
			c-0.1401978-0.0125122-0.2312622-0.0543213-0.4025879-0.0519409c0.0005493,0.104126,0.0574341,0.0932617,0.1298828,0.1168823
			l-0.026001,0.2208252c-0.0917358,0.0015259-0.2265625,0.0125732-0.2857056-0.026001
			c-0.0123291-0.0219116,0.0033569-0.1248779,0.0259399-0.1558838c0.0062866-0.1307983,0.1234741-0.1671753,0.1818237-0.2467651
			c0.1016846-0.1386719,0.2069092-0.2667847,0.3117065-0.4025879c0.0698242-0.0904541,0.184082-0.1719971,0.2208252-0.2597656
			c0.401123,0.00354,0.772583,0.0678101,1.1559448,0.0908813c0.0029297,0.0301514,0.0025635,0.0366821,0.0129395,0.052002
			c0.0120239,0.0350342,0.0223389,0.0380249,0.0390015,0.0649414c0.1818237,0.0129395,0.3636475,0.0259399,0.5454712,0.0389404
			c0.005188,0.0266724,0.0032349,0.0250244,0.0130005,0.0389404c0.0062866,0.0774536,0.0383301,0.0896606,0.0909424,0.1168823
			C24.335022,21.8727417,24.361084,22.0164185,24.3175049,22.0834351z M25.3825073,21.3301392
			c-0.1618042-0.0410156-0.277771-0.024353-0.4285889-0.0390015v-0.0259399
			c0.0709839,0.0126343,0.2819824-0.0245972,0.3636475,0.0259399c0.0480347,0.0057983,0.038208,0.0072632,0.0649414,0.026001
			V21.3301392z M25.4084473,21.3041382c-0.0042725,0.0043335-0.008606,0.008667-0.0129395,0.0130005v-0.026001
			c0.0223999,0.0084229,0.0126953,0.0025635,0.0259399,0.0130005H25.4084473z M26.4085693,24.9927368h-0.0130005
			c0.0043335-0.017334,0.008667-0.034668,0.0130005-0.0519409h0.0259399
			C26.4248657,24.9708862,26.4210205,24.9697876,26.4085693,24.9927368z M26.4475098,24.9667358v-0.0259399
			c0.0223389,0.0078735,0.0408325,0.012085,0.0779419,0.0130005C26.5072021,24.9662476,26.4828491,24.9668579,26.4475098,24.9667358
			z M26.8760986,25.1485596h-0.0130005v-0.0259399h0.0130005V25.1485596z M26.7982178,24.9927368h0.0389404
			c0.0171509,0.0315552-0.0061035,0.0091553,0.0259399,0.026001v0.0648804
			C26.8391113,25.0533447,26.821167,25.020874,26.7982178,24.9927368z M26.8630981,24.6030884h-0.0648804v-0.0259399
			c0.0042725-0.0043335,0.008606-0.008667,0.0129395-0.0130005c0.0471191,0.0024414,0.1589966,0.0028687,0.1948242,0.0259399
			c0.0098877,0.0139771,0.0081787,0.0120239,0.0130005,0.0390015
			C26.9589844,24.6295776,26.8985596,24.6279907,26.8630981,24.6030884z M28.3956909,25.3693848v0.0130005h-0.0130005
			c0.0111694-0.0241699,0.0185547-0.0343628,0.026001-0.0649414C28.4202271,25.3425293,28.4161377,25.3448486,28.3956909,25.3693848
			z M29.3308105,22.5899658c-0.0209351,0.0153198-0.1183472,0.0603638-0.1428223,0.0649414
			c-0.0050659,0.0499268-0.0124512,0.1132812-0.0390015,0.1428833c-0.0220947,0.050293-0.0570679,0.0369263-0.0778809,0.0908813
			h-0.052002v0.0909424c-0.0310669,0.0116577-0.0686035,0.0189209-0.0908813,0.0389404
			c-0.0213013,0.0302124-0.026001,0.0944824-0.026001,0.1428833l-0.0130005,0.0130005l-0.1428223-0.0130005
			c0.0194092-0.100708-0.003479-0.2507935-0.026001-0.350708c-0.0446777-0.1980591-0.0472412-0.3648682-0.1428833-0.5065308
			c-0.2104492-0.3117676-0.8259277-0.3563843-1.1429443-0.1428223c-0.1047363,0.0705566-0.1596069,0.2208252-0.2207642,0.3376465
			c-0.0497437,0.0950317-0.2053223,0.375061-0.1688232,0.4935913l-0.2208252-0.026001
			c-0.0029297-0.0300903-0.0025635-0.0366211-0.0130005-0.0519409c-0.0014038-0.0369873-0.005188-0.055542-0.0129395-0.0779419
			c-0.032959-0.0013428-0.0481567-0.0015869-0.0649414-0.0130005c-0.0859985,0.0169678-0.1088867,0.0784302-0.1818848,0.1039429
			c-0.0509644,0.0303955-0.1554565-0.0101929-0.2337646-0.0130005l-0.0130005-0.0130005
			c0.0013428-0.0504761,0.0072021-0.114624,0.0130005-0.1298828c-0.0003662-0.0378418-0.0006104-0.0708008,0.0130005-0.0909424
			c0.0300293-0.0188599,0.1125488-0.0075684,0.1428833-0.0259399h0.0259399
			c-0.0029297-0.0301514-0.0025635-0.0366211-0.0130005-0.0519409c-0.0321045-0.0247192-0.0909424-0.0370483-0.1428223-0.0390015
			c0.0172729-0.12854,0.1227417-0.2307129,0.1818237-0.324707c0.0656738-0.1044312,0.1043091-0.206665,0.1688232-0.3117065
			c0.0361328-0.0587769,0.0912476-0.0977173,0.1039429-0.1818237c0.3148804,0.0013428,0.6793213,0.0039673,0.9610596,0.0649414
			c0.1897583,0.0410767,0.3979492,0.0014038,0.5714722,0.0390015c0.1531982,0.0331421,0.3740845-0.0340576,0.4935303,0.0389404
			c0.0148926,0.0217285,0.0214844,0.0886841,0.026001,0.1168823c0.2034912,0.017334,0.4069824,0.034668,0.6104126,0.0519409
			c0.0037842,0.0983276,0.0368652,0.0961304,0.052002,0.1428833C29.5333862,22.2645264,29.3632812,22.5491333,29.3308105,22.5899658
			z M32.4219971,15.2907104h0.0129395c-0.0163574,0.0376587-0.0180664,0.012146-0.0389404-0.0129395
			C32.418396,15.2861328,32.4086914,15.2802734,32.4219971,15.2907104z M32.12323,23.3043213
			c-0.0043335,0.0043335-0.008667,0.008606-0.0129395,0.0129395c-0.0641479-0.0008545-0.2025757-0.0133057-0.2208252-0.0259399
			c-0.1401367-0.0062866-0.1929932,0.0294189-0.2207642,0.1298828l-0.4416504-0.0390015
			c-0.0042725-0.0043335-0.008606-0.008606-0.0129395-0.0129395c0.0068359-0.1738281,0.0411987-0.2924805,0.0519409-0.4545898
			c0.0625-0.001709,0.1826172-0.0181885,0.2207642-0.0519409c0.072876-0.0014648,0.0782471-0.0022583,0.0779419,0.0389404
			c0.1444092,0.0078125,0.4251709,0.0505371,0.5325317-0.026001c0.0299683,0.0042725,0.0322266,0.0060425,0.0519409,0.0130005
			C32.1351929,23.0065918,32.1358032,23.1862793,32.12323,23.3043213z M32.4089966,22.3432007
			c-0.0626831,0.100647-0.1578369,0.2022095-0.1948242,0.324707c-0.0809326-0.0194092-0.0987549-0.1004028-0.1558838-0.1428833
			c-0.0942993-0.0700684-0.2381592-0.1016235-0.324707-0.1818237h-0.0129395
			c0.0015869-0.0897827-0.0088501-0.1208496-0.0390015-0.1688843h-0.0389404
			c0.0346069-0.1038818,0.0692749-0.2077637,0.1038818-0.3117065c0.0307007-0.0348511,0.0823975-0.0144653,0.1039429-0.0649414
			c0.0571899-0.1341553-0.0202026-0.2362671-0.0130005-0.324646c0.0055542-0.0683594,0.0586548-0.2143555,0.0130005-0.2857666
			c-0.0043335-0.0130005-0.008667-0.026001-0.0130005-0.0389404H31.746582
			c0.0059814-0.1907959,0.0289917-0.3596191,0.0649414-0.5195312V20.382019
			c0.0076904-0.026123,0.0245972-0.0401611,0.026001-0.0909424v-0.1558228
			c0.0286255-0.083374,0.1976929-0.2622681,0.1298828-0.3896484c-0.0046387-0.0830078-0.0319824-0.081665-0.0649414-0.1298828
			c-0.1038818-0.0130005-0.2078247-0.026001-0.3117065-0.0389404c0.0098267-0.2915649,0.1210327-0.6990967,0.1948242-0.9611206
			c0.0304565-0.1083374,0.0214844-0.1920776,0.0519409-0.2987671c0.1119995-0.3925171,0.1697998-0.8028564,0.2987061-1.1948853
			c0.0575562-0.1750488,0.171936-0.4450684,0.1818237-0.6364136h0.0130005
			c0.0154419,0.0447388-0.0032349,0.123291,0.0130005,0.1818848c0.0706787,0.2553711,0.0440063,0.5507812,0.1038818,0.8311768
			c0.0584106,0.2734375,0.0581665,0.6934204,0.1298828,1.0001221c0.0311279,0.1331177-0.008667,0.2299805,0.026001,0.3636475
			c0.0481567,0.18573,0.0283813,0.4053345,0.0778809,0.6104126c0.0146484,0.0605469,0.0529175,0.2046509,0.052002,0.2597656
			c-0.0024414,0.1382446,0.0135498,0.3644409,0.0519409,0.5065308c0.0301514,0.1116333-0.0193481,0.227417,0,0.324707
			c0.0014648,0.0075073,0.0281372,0.0825195,0.0259399,0.0909424c-0.010498,0.0406494-0.0766602,0.0848389-0.0908813,0.1298218
			c-0.0213013,0.0675659,0.0123901,0.2376099,0.0259399,0.2987671c0.0415039,0.1871338-0.0306396,0.4064331,0.0909424,0.5065308
			c-0.0205078,0.100647-0.0957031,0.1707764-0.1428833,0.2467651
			C32.5899658,22.0053711,32.5137939,22.1748657,32.4089966,22.3432007z M32.8505859,23.3822021
			c-0.1168823-0.008606-0.2338257-0.0172729-0.350708-0.0259399c-0.0043335-0.0043335-0.008667-0.008667-0.0129395-0.0130005
			c-0.0005493-0.2878418,0.1409302-0.3953247,0.2597046-0.5844727c0.03479-0.0552979,0.046936-0.1117554,0.0909424-0.1558228
			c0.0139771-0.0098877,0.0120239-0.0081787,0.0389404-0.0130005c0.00177,0.1082764,0.0363159,0.3515015-0.0129395,0.4285889
			C32.864624,23.1315308,32.8809814,23.2920532,32.8505859,23.3822021z M33.0713501,20.3040771
			c-0.0266724-0.005188-0.0250244-0.0032349-0.0389404-0.0130005c0,0-0.0509644-0.0029297-0.026001-0.0130005
			c0.0043335-0.0042725,0.008667-0.008606,0.0130005-0.0129395h0.0649414
			C33.0800171,20.2780762,33.0756836,20.2910767,33.0713501,20.3040771z M5.4589844,19.0961914l0.0130005-0.0130005h-0.026001
			C5.4337158,19.0968628,5.4500122,19.0979004,5.4589844,19.0961914z M12.4554443,23.3682861
			c-0.0116577,0.0036011-0.0186768-0.0007935-0.0089722,0.0269165c0.0181274,0.0094604,0.0164185,0.0042114,0.0390015-0.0130005
			c0.0223999-0.0083618,0.0126953-0.0025024,0.0259399-0.0129395c-0.0129395-0.0043335-0.0259399-0.008667-0.0389404-0.0130005
			c-0.0050659,0.0083618-0.0073242,0.0053101-0.0114746,0.0080566c-0.000061,0.001709-0.0015259,0.0032349-0.0015259,0.0049438
			C12.4561157,23.3688965,12.4576416,23.3687134,12.4554443,23.3682861z M21.4731445,25.0836182h0.0259399v-0.0259399h-0.0259399
			V25.0836182z"/>
	</g>
</g>
<g>
	<g>
		<path fill-rule="evenodd" clip-rule="evenodd" fill="#FFFFFF" d="M33.6494141,19.7131958
			c-0.1204224-0.0411377-0.3478394,0.0374146-0.4545898-0.0259399c-0.0995483,0-0.1991577,0-0.2987061,0
			c-0.0432739-0.3939209-0.0866089-0.7879639-0.1298828-1.1818848c-0.0645142-0.2778931-0.048584-0.5808716-0.1168823-0.8702393
			c-0.1495972-0.6339111-0.1628418-1.322876-0.3117065-1.9481812c0-0.0346069,0-0.0692749,0-0.1038818
			c-0.0316772-0.1251831-0.0910034-0.3026123-0.0779419-0.4545898c0.0048218-0.0561523,0.0351562-0.0567017,0.0519409-0.0909424
			c0.0588989-0.119873,0.0020752-0.2681885-0.0778809-0.324646c0.0032349-0.1276245,0.0842896-0.3979492,0.1428223-0.4805908
			c-0.0311279-0.1555176-0.3219604-0.1086426-0.4415894-0.1818237c-0.008606,0-0.0172729,0-0.0259399,0
			c0.0093994-0.0792847,0.0247192-0.2025757,0.0649414-0.2597656c0-0.0346069,0-0.0692749,0-0.1038818
			c-0.3068848-0.0770874-0.8225098-0.026001-1.1819458-0.026001c-0.2421875,0-0.4002686-0.0171509-0.5454712,0.0779419
			c-0.0282593,0.1057129-0.0616455,0.5796509,0.026001,0.675354c0.0408936,0.1182251,0.1807251,0.1251221,0.2987061,0.1688843
			c0.1837158,0.0680542,0.4104614,0.1146851,0.6104126,0.1688232c0.104126,0.0281982,0.2314453,0.0123291,0.3117065,0.0649414
			c0.0170898,0.0283203-0.0273438,0.085083-0.0129395,0.1428833c0.0088501,0.0355225,0.0565186,0.0800171,0.0649414,0.1038818
			c0.0214233,0.0611572-0.0603638,0.2028198-0.0779419,0.2467651c-0.017334,0.0779419-0.034668,0.1558838-0.0519409,0.2337646
			c-0.0429688,0.1313477-0.1000977,0.2980957-0.1428833,0.4286499c-0.0473022,0.1442261-0.0491333,0.2689819-0.0909424,0.4155884
			c-0.0690918,0.2426147-0.1345825,0.5247803-0.2077637,0.7662964c-0.0609131,0.2008667-0.0616455,0.3815918-0.1169434,0.5844727
			c-0.071228,0.2614136-0.1063843,0.539978-0.1818237,0.8182373c-0.038208,0.1409912-0.0888062,0.3125-0.1038818,0.4675293
			c-0.0043335,0.0043335-0.008667,0.008667-0.0130005,0.0130005c-0.2219238-0.0031738-0.5958862-0.0668335-0.7532959,0.0390015
			c-0.124939,0.0839233-0.1675415,0.2709961-0.2727661,0.3766479c-0.0720825,0.0437012-0.1699219,0.0323486-0.2337646,0.0778809
			c-0.1681519,0.1200562-0.28479,0.3737793-0.4026489,0.5455322c-0.0427856,0.0623779-0.1929932,0.2380371-0.1038818,0.3766479
			c0.0198364,0.0577393,0.0690918,0.0759888,0.1428833,0.0779419c0.0148926,0.0909424,0.0090332,0.2765503,0.0130005,0.3895874
			c-0.071228-0.0007935-0.2685547,0.0097656-0.324707-0.0259399c-0.1240845-0.0065308-0.2372437-0.0274658-0.2597656,0.0779419
			c-0.6079712-0.0046997-1.2026978-0.0808716-1.7923584-0.1169434c0.012085-0.0372925,0.0419312-0.0603027,0.0519409-0.0908813
			c0.0393066-0.119812-0.0214233-0.289856,0.0390015-0.3896484c-0.0006714-0.0401001-0.0045166-0.0665894-0.0130005-0.0909424
			c-0.0432739,0-0.0866089,0-0.1298828,0c0.0216675-0.2813721,0.0432739-0.5628052,0.0649414-0.8441772
			c0.0170288-0.078064-0.0140381-0.2161865,0-0.2597656c0.0178833-0.055603,0.0947876-0.0905151,0.1168823-0.1558838
			c0.0202026-0.0283203,0.0205688-0.1275635,0-0.1558228c-0.0562134-0.1494751-0.4282227-0.1151123-0.6104126-0.1558838
			c-0.1844482-0.0411987-0.6798096-0.1107788-0.8572388-0.0389404c-0.1505737,0.0609741-0.2559814,0.1949463-0.3766479,0.2857056
			c-0.0646362,0.0487061-0.1535645,0.0994263-0.1818237,0.1818848c-0.3829346,0.0021362-0.5337524,0.2608032-0.7272949,0.4545288
			c-0.0819092,0.0820312-0.208252,0.1793823-0.2467651,0.2987671c0,0.0519409,0,0.1038818,0,0.1558228
			c0.0442505,0.0410767,0.0754395,0.0547485,0.1428223,0.0779419c-0.0004272,0.1402588,0.0233154,0.2630615,0.026001,0.4155884
			c-0.0906372-0.0007324-0.461853-0.0028687-0.5195312-0.0389404c-0.1150513-0.0064697-0.1615601,0.0016479-0.1818237,0.0909424
			c-0.1204834,0.0004272-0.6408081-0.0144043-0.701355-0.052002c-0.0476074,0-0.0952759,0-0.1428833,0
			c0.0172119-0.0471191,0.0617065-0.0654297,0.0779419-0.1038818c0.0508423-0.1202393,0.0123901-0.3288574,0.0519409-0.4545898
			c-0.0402832-0.0140381-0.1094971-0.0144043-0.1688232-0.0130005c0.008667-0.2597046,0.017334-0.5195312,0.026001-0.7792358
			c0.000061-0.09021,0.0233154-0.2800903,0-0.324707c0.0142212-0.0864258,0.0753784-0.0588989,0.1038818-0.1298828
			c0.0083008-0.0193481,0.0161133-0.0056152,0-0.026001c0.0001831-0.0558472,0.005188-0.1060791-0.026001-0.1298828
			c-0.0754395-0.0576172-0.184082-0.0122681-0.2987061-0.0389404c-0.1364746-0.0317383-0.3023682,0.0093994-0.4545898-0.026001
			c-0.0968018-0.022522-0.2890625-0.0531006-0.4025879-0.0259399c-0.2547607,0.0608521-0.4534912,0.1504517-0.6624146,0.2597656
			c-0.0527344,0.0275879-0.114502,0.0848389-0.1688232,0.1038818c-0.1379395,0.0483398-0.3037109,0.0108643-0.4286499,0.0649414
			c-0.0873413,0.0378418-0.1680298,0.1192017-0.2467651,0.1688232c-0.206665,0.1304321-0.4085693,0.2634888-0.6104126,0.3896484
			c-0.0101929,0.0449829-0.0290527,0.1522827,0,0.1948242c0.0140381,0.0394287,0.0119629,0.0384521,0.0519409,0.0519409
			c0.0219116,0.0166016,0.0553589,0.0228271,0.0909424,0.026001c0.0090332,0.0845947-0.0023804,0.2613525,0.0389404,0.324707
			c0,0.0346069,0,0.0692749,0,0.1038818c-0.1461792-0.0485229-0.5557861-0.0002441-0.6623535-0.0649414
			c-0.0872803,0.0022583-0.1264038,0.0466309-0.1428833,0.1168823c-0.017334,0-0.034668,0-0.0519409,0
			c0.0072632-0.0959473,0.0519409-0.0741577,0.0778809-0.1298828c0.0407104-0.0872803-0.0091553-0.2208862,0.0390015-0.2987061
			c0.0014648-0.0479736,0.0056763-0.1149292-0.0130005-0.1428833c-0.0317993-0.0213013-0.1159058-0.0149536-0.1688232-0.0130005
			c-0.0043335-0.0042725-0.008667-0.008606-0.0130005-0.0129395c0.0094604-0.0509033,0.0340576-0.095459,0.0389404-0.1168823
			c-0.0043335-0.0909424-0.008667-0.1818848-0.0129395-0.2727661c0.0169678-0.0540161,0.0820923-0.1049194,0.1038818-0.1558838
			c0.0611572-0.1431885-0.0473022-0.274353-0.0909424-0.3636475c0.0857544-0.0671997,0.1740723-0.2112427,0.1039429-0.3636475
			c-0.0177612-0.0385132-0.0925903-0.1004639-0.1168823-0.1558838c-0.1696777-0.387146-0.3294067-0.7817383-0.5325317-1.1429443
			c-0.0562744-0.0101929-0.2115479,0.0042725-0.2597656-0.0259399c-0.1212158,0-0.2424316,0-0.3636475,0
			c-0.1255493,0.2337646-0.2510986,0.4675903-0.3766479,0.701355c-0.0289307,0.0101929-0.0706177,0.0137939-0.1168823,0.0129395
			c-0.0279541,0.0792236,0.0026245,0.1814575-0.026001,0.2727661c-0.048584,0.1550903-0.2628174,0.3984375-0.1038818,0.5584717
			c0,0.0043335,0,0.008667,0,0.0130005c-0.1467285,0.02948-0.3447266-0.0037231-0.4805908,0.0390015
			c-0.0910645,0.0286255-0.1835938,0.0964966-0.2597656,0.1428223c-0.1817627,0.1105957-0.3792114,0.1994019-0.5584717,0.2987671
			c-0.053772,0.0297852-0.324646,0.0339355-0.3766479,0c-0.0432739,0-0.0866089,0-0.1298828,0
			c0.0143433-0.1204834-0.0128174-0.3198242-0.0130005-0.4675903c-0.000061-0.06604,0.0140381-0.1774902-0.0129395-0.2208252
			c-0.0055542-0.1264038,0.0230103-0.1463013,0.1038818-0.1818237c-0.0003052-0.0354004-0.0004883-0.0595093-0.0130005-0.0778809
			c-0.0148926-0.1402588-0.1463013-0.0761108-0.2727661-0.1039429c-0.0651245-0.0143433-0.6737061-0.0472412-0.7922363-0.0130005
			c-0.2415771,0.0698853-0.4839478,0.1835938-0.7143555,0.2857666c-0.0304565,0.0134888-0.0725098,0.0546265-0.1038818,0.0649414
			c-0.1472168,0.0043335-0.2944336,0.008667-0.4415894,0.0130005c-0.2325439,0.0606079-0.40271,0.1879272-0.5844727,0.2987061
			c-0.0716553,0.0436401-0.1502686,0.0609131-0.2078247,0.1168823c-0.008606,0-0.0172729,0-0.0259399,0
			c-0.0050659-0.2576294-0.0108643-0.519165-0.0519409-0.7402954c0.0391235-0.0192261,0.0700684-0.0407104,0.1168823-0.0519409
			c-0.0011597-0.0499878-0.0043945-0.0770874-0.026001-0.1039429c-0.0336304-0.0802002-0.0855103-0.0449829-0.1818237-0.0649414
			c-0.1552734-0.0321045-0.6470337-0.0597534-0.8312378,0c-0.2055054,0.0667114-0.4190063,0.1360474-0.6234131,0.2208252
			c-0.0580444,0.0240479-0.1327515,0.0734863-0.1948242,0.0908813c-0.0562744,0-0.1125488,0-0.1688232,0
			c-0.161438,0.000061-0.3191528-0.0076904-0.4415894,0.0390015c-0.4285889,0.2120972-0.8572388,0.4242554-1.2858276,0.6364136
			c-0.0281982,0.0723267-0.0055542,0.1121216,0,0.2077637c0.0389404,0.0043335,0.0779419,0.008667,0.1168823,0.0130005
			c0.0144653,0.1202393,0.0740356,0.2096558,0.0779419,0.3377075c-0.3116455-0.017334-0.6234741-0.034668-0.9351196-0.0519409
			c-0.0185547-0.1331177-0.0791016-0.249939-0.1168823-0.3637085c-0.0541382-0.1628418-0.0750122-0.3040771-0.1298828-0.4675293
			c-0.0458374-0.1364746-0.1224365-0.3009644-0.1558838-0.4415894c-0.0160522-0.067749,0.0385132-0.055542,0.026001-0.1168823
			c-0.0487671-0.2387085-0.1699219-0.4984131-0.2467651-0.727356c-0.1107788-0.329895-0.1856079-0.6449585-0.2987671-0.9741211
			c-0.0892944-0.2598267-0.1590576-0.5378418-0.2597046-0.8052368c-0.0584106-0.1551514-0.140625-0.3240967-0.1298828-0.5065308
			c0.0424805-0.0393066,0.0910645-0.0731201,0.1428223-0.1038818c0.0045166-0.1559448,0.0010986-0.2410278-0.0908813-0.2987061
			c0-0.008667,0-0.017334,0-0.026001c0.1296387-0.0661621,0.232605-0.1706543,0.350647-0.2467651
			c0.0404663-0.180481-0.0148315-0.3800659-0.0389404-0.5584717c-0.2052002-0.0515747-0.4875488,0.0514526-0.6883545,0.1038818
			c-0.0650635,0.0169678-0.1768799,0.00354-0.2078247,0.0519409c-0.0426025,0.0667725,0.0413818,0.1990356,0.0649414,0.2597656
			c-0.1159668,0.0473022-0.1879883,0.1003418-0.2857056,0.1558838c0.0201416,0.0545654,0.0290527,0.1174316,0.0648804,0.1558228
			c-0.0127563,0.1109009-0.0964966,0.0757446-0.1428223,0.1428833c-0.0216675,0.0313721-0.010437,0.0544434-0.0390015,0.0779419
			c0.0350952,0.1143188,0.003479,0.2089233,0.1169434,0.2727051c-0.0736084,1.0908813-0.1472168,2.1821289-0.2208252,3.2730103
			c-0.0585938-0.0126343-0.0637817-0.0484619-0.1038818-0.0649414c-0.0476685,0-0.0952759,0-0.1428833,0
			c-0.1794434-0.0396729-0.4384766-0.0614014-0.5844727,0.0130005c-0.0240479,0.0876465-0.0664062,0.2299194,0,0.3117065
			c0.0153198,0.0671997,0.0809937,0.0976562,0.1558838,0.1038818c0.0083618,0.0223999,0.0025024,0.0126953,0.0129395,0.026001
			c-0.0281982,0.0230103-0.0627441,0.0268555-0.1168823,0.0259399c-0.0043335,0.0043335-0.008667,0.008667-0.0129395,0.0130005
			c-0.0016479,0.0532227-0.0084229,0.1366577,0.0129395,0.1688232c0.0183716,0.1531982,0.3426514,0.3022461,0.4545898,0.3896484
			c0.0352783,0.0275269,0.2642822,0.5182495,0.2857666,0.5844727c0.0043335,0.4285278,0.008606,0.8572388,0.0129395,1.2858276
			c0,0.1237793-0.0314331,0.4404907,0.0130005,0.4935303c0.0049438,0.0038452,0.3128052,0.0765991,0.324707,0.0778809
			c0.0029297,0.0301514,0.0025635,0.0366821,0.0130005,0.052002c0,0.0216064,0,0.0432739,0,0.0649414
			c0.1583862,0.0275269,0.4457397-0.0987549,0.5195312-0.052002c0.0346069,0,0.0692749,0,0.1038818,0
			c-0.0083618,0.0224609-0.0025635,0.0127563-0.0130005,0.026001c-0.0325317,0.0266113-0.100708,0.0373535-0.1558228,0.0389404
			c-0.0004272,0.0379028-0.0006714,0.0708008,0.0129395,0.0909424c0,0.008667,0,0.017334,0,0.026001
			c0.121521,0.0237427,0.5502319,0.1011963,0.6884155,0.0649414c0.1695557-0.0445557,0.364624-0.1159668,0.5584717-0.1298828
			c0-0.026001,0-0.052002,0-0.0779419c0.0818481,0.0002441,0.2161865,0.0021973,0.2727051,0.0389404
			c0.0852661,0.0033569,0.0657349,0.026001,0.1169434,0.0519409c0.0552979,0.0366211,0.2035522,0.0283813,0.2857056,0.026001
			c0-0.0130005,0-0.026001,0-0.0389404c0.1716309-0.0022583,0.2471313-0.055603,0.3896484-0.0649414
			c0.0037231,0.0371704,0.0078125,0.1150513,0.026001,0.1428223c0.0042725,0.0130005,0.008606,0.026001,0.0129395,0.0390015
			c0.1560669,0.0043335,0.3656006,0.0683594,0.4675903-0.026001c0.008667,0,0.017334,0,0.026001,0
			c-0.0037842,0.0514526-0.0192261,0.0853882,0,0.1168823c-0.0020142,0.1426392-0.0136719,0.3168945,0.0389404,0.4026489
			c0.1453857,0.0064697,0.2926025,0.0517578,0.4805298,0.0519409c0.137207,0.3106689,0.2689209,0.4736328,0.727356,0.4675903
			c0.0805664-0.0876465,0.1170044-0.1325684,0.2727051-0.1168823c0.043335,0.0043335,0.0866089,0.008606,0.1298828,0.0129395
			c0.0488281,0.0267944,0.05896,0.1165161,0.1039429,0.1428833c0.0172729,0,0.0346069,0,0.0519409,0
			c0.0610962,0.0310059,0.1156616,0.1008911,0.1818237,0.1298828c0.1938477,0.0849609,0.5046997,0.131958,0.7532959,0.0779419
			c0.0649414,0,0.1298828,0,0.1948242,0c0.052002-0.0180054,0.105957-0.0906982,0.1558838-0.1168823
			c0.0847168-0.0445557,0.1442871-0.053833,0.1948242-0.1298828c0.0175171-0.0134888-0.005188-0.0201416-0.0130005-0.0519409
			c0.0292358-0.0076904,0.0160522-0.0043335,0.0349121-0.0009766c0.001709-0.0004883,0.00354-0.0026855,0.0055542-0.0039673
			c0.0065918-0.1233521,0.1705933-0.2165527,0.1932983-0.3717041c0.0690918,0.0440674,0.0533447,0.2347412,0.0909424,0.3117065
			c0.0814819,0.1668701,0.2637939,0.2648926,0.324646,0.4545288c0.0043335,0,0.008667,0,0.0130005,0
			c0.0256348,0.0073242-0.0259399,0.0130005-0.0259399,0.0130005c0.0853882,0.1089478,0.2785645,0.123291,0.4805298,0.1168823
			c0.0443726-0.0460815,0.1040039-0.0640869,0.1558838-0.1038818c0.0272217-0.020874,0.0343628-0.0569458,0.0649414-0.0779419
			c0,0-0.0029297-0.0509644-0.0130005-0.0259399c-0.0043335,0.0043335-0.008667,0.008667-0.0130005,0.0129395
			c0.0713501-0.1445923,0.1727295-0.3451538,0.1818237-0.5324707c0.2049561,0.0093384,0.4782715,0.0425415,0.6624146,0.0259399
			c0.0214233,0.0748901-0.0022583,0.2494507,0.0129395,0.3896484c0.0705566,0.0148926,0.5270996,0.0679932,0.5325317,0.0649414
			c0.0346069,0,0.0692749,0,0.1038818,0c0,0.008667,0,0.017334,0,0.026001
			c-0.0223999-0.0083618-0.0126953-0.0025635-0.0259399-0.0130005c-0.026001,0-0.0519409,0-0.0779419,0
			c0.1088867,0.1606445,0.2209473,0.3406372,0.2727661,0.5584717c0.3063965,0.0812378,0.6883545,0.0714111,1.0130615,0.1428833
			c0.1038818,0,0.2078247,0,0.3117065,0c0.1116333,0.024353,0.3832397,0.088562,0.5195312,0.0519409
			c0.1190796-0.0320435,0.1448364-0.1433716,0.2467651-0.1818237c0.0830078-0.052124,0.2783813,0.0374756,0.4025879-0.0130005
			c0.0549927-0.0223389,0.1039429-0.0930786,0.1558838-0.1168823c0.1470337-0.0673218,0.3447266-0.1201172,0.4545898-0.2207642
			c0.0129395,0,0.0259399,0,0.0389404,0c-0.0462036,0.1287842-0.0315552,0.4599609-0.0908813,0.5584717
			c-0.0029297,0.0579834,0.0076294,0.0483398-0.026001,0.0519409c0.005188,0.0266724,0.0032349,0.0250244,0.0130005,0.0389404
			c0,0-0.0029297,0.0509644-0.0130005,0.026001c-0.0043335-0.0043335-0.008667-0.008667-0.0130005-0.0130005
			c0.0057983,0.0386353,0.0065918,0.0438232,0.026001,0.0649414c0,0.0043335,0,0.008667,0,0.0130005
			c0.0141602-0.0221558,0.0068359-0.0400391,0.0130005-0.0519409c0-0.008667,0-0.017334,0-0.026001
			c0.0200806,0.0303345,0.0183716,0.0891113,0.0389404,0.1168823c0.0686035,0.0557251,0.4902344,0.1112671,0.5324707,0.0519409
			c0.017334,0.017334,0.034668,0.034668,0.052002,0.052002c0.1479492-0.0053711,0.4121704-0.1461182,0.5065308-0.2208252
			c0.0396729-0.0532837,0.0304565-0.2492065,0.0129395-0.2857056c-0.0014038-0.1263428-0.0344849-0.5742188,0.0130005-0.6494141
			c0.1077271-0.072998,0.3411255-0.031311,0.4805908-0.0130005c0.0003052,0.0354004,0.0004883,0.0595093,0.0129395,0.0779419
			c0,0.008667,0,0.017334,0,0.0259399c0.0216675,0,0.043335,0,0.0649414,0
			c0.0009766,0.2745972,0.0161743,0.583252,0.1428833,0.7403564c0.0715332,0.0886841,0.2230835,0.1287842,0.2857666,0.2207642
			c0.0422363,0.0620728,0.0332031,0.1636353,0.0778809,0.2208252c0.0836182,0.1040649,0.5166626-0.0008545,0.5974731-0.0649414
			c0.0377197-0.0302734,0.0790405-0.1154785,0.1038818-0.1558838c0.0401611-0.0083008,0.086731-0.0137939,0.1428833-0.0130005
			c0.0510864,0.0488281,0.1078491,0.062439,0.1428833,0.1298828c0.3043213-0.0249023,0.5575562-0.5341187,0.5584717-0.8831787
			c0.0917358-0.0371704,0.1359253-0.0882568,0.1818237-0.1688232c0.2437134,0.0012207,0.4992676,0.0302124,0.7143555,0.0779419
			c0.0877075,0.0194702,0.1737671-0.0133057,0.2337646,0.0259399c0.0043335,0,0.008667,0,0.0130005,0
			c-0.0012207,0.0716553,0.0043335,0.1156006,0.0259399,0.1558838c0.0859985,0.0023804,0.2233887,0.0076294,0.2727661,0.0519409
			c0.0321045,0.0192871,0.0241089,0.0160522,0.026001,0.0649414c0.0476074,0.0130005,0.0952148,0.026001,0.1428223,0.0389404
			c0.1184082,0.0062256,0.3060303,0.0432739,0.3117676-0.0778809c0.038147,0.0131836,0.0557251,0.0405884,0.0908813,0.0519409
			c0.1035767,0.0334473,0.1837769-0.0102539,0.2987061-0.0130005c-0.0015869,0.3835449,0.0281372,0.9569702,0.2597656,1.052002
			c0,0.0043335,0,0.008667,0,0.0130005c-0.0371094-0.0046997-0.0560913-0.0084839-0.0778809-0.0259399
			c-0.0043335,0-0.008667,0-0.0130005,0c0.0240479,0.1109009,0.1286621,0.0651855,0.2207642,0.1038818
			c0.1031494,0.043335,0.1595459,0.1340332,0.2078247,0.2337646c0.0264893,0.0092163,0.0788574,0.0004883,0.1168823,0.0130005
			c0.046875,0.0154419,0.1025391,0.0568848,0.1558838,0.0779419c0.0557861-0.1000977,0.1004028-0.2366333,0.1948242-0.2987061
			c0.1951904-0.128418,0.4599609,0.0015869,0.5065308,0.1818237c0.1599121-0.0469971,0.1818848-0.5408325,0.5454712-0.4415894
			c0.0365601,0.0099487,0.0980225,0.0419312,0.1298828,0.0649414c0.0736694,0.0531616,0.0748901,0.1481323,0.1298828,0.2207642
			c0,0.0562744,0,0.1125488,0,0.1688843c0.0389404,0.0216064,0.0779419,0.0432739,0.1168823,0.0648804
			c0.0579224,0.0426025,0.0620117,0.1084595,0.1038818,0.1688843c0.0460815,0.0664062,0.1467285,0.0859985,0.1948242,0.1558228
			c0.1731567,0,0.3463745,0,0.5195312,0c0.0630493,0,0.1670532,0.0126953,0.2078247-0.0129395
			c0.0895386-0.0175171,0.1265869-0.1265259,0.1818237-0.1818848c0.0562744-0.0562744,0.1125488-0.1125488,0.1688232-0.1688232
			c0.043396-0.0814209,0.0324097-0.1885376,0.0519409-0.2597656c0.0565796-0.2056885,0.1700439-0.4328613,0.1818848-0.675354
			c0.1043701-0.0002441,0.1312866,0.020874,0.1947632,0.0519409c0,0.017334,0,0.034668,0,0.0519409
			c0.1618652,0.0087891,0.326355,0.0494995,0.4675903,0.0130005c0.0043335-0.0216675,0.008667-0.0432739,0.0130005-0.0649414
			c0.017334,0,0.0346069,0,0.0519409,0c-0.0031738,0.380127-0.0123901,0.7281494,0.1298828,0.9611206
			c0.017334,0.0519409,0.0346069,0.1038818,0.0519409,0.1558228c0.015686,0.0136108,0.350708,0.0686646,0.4026489,0.0909424
			c0.0917969,0.0393066,0.1347046,0.1473999,0.2207642,0.1818237c0.0369873,0.012146,0.0518799-0.0230103,0.0909424-0.0389404
			c0.0606079-0.008667,0.1212158-0.017334,0.1818237-0.026001c0.0967407-0.0348511,0.1885986-0.1380005,0.2987061-0.1688232
			c0.1181641-0.0331421,0.3029175,0.0248413,0.3896484-0.0390015c0.0629272-0.0446777,0.112915-0.2149658,0.1168823-0.3117065
			c0.119873-0.0241699,0.1486816-0.1482544,0.2338257-0.2077637c0.0013428-0.0328979,0.0015869-0.0481567,0.0129395-0.0649414
			c0.0033569-0.133667-0.0447388-0.1154175-0.1428223-0.1428833c0.0026855-0.1154785,0.0275879-0.2070312,0.0389404-0.3117065
			c0.0346069,0,0.0692749,0,0.1038818,0c0.001709,0.0667725,0.0152588,0.1906128-0.0129395,0.2337646
			c0.0083618,0.0223999,0.0025024,0.0126953,0.0129395,0.026001c0.0638428,0.0445557,0.4423828,0.0762939,0.5455322,0.0778809
			c0.0011597,0.0499878,0.0043335,0.0770874,0.0259399,0.1039429c0.0302734,0.0687866,0.1080322,0.0300903,0.1688843,0.0649414
			c0.1483765,0.0028687,0.1253052-0.0407104,0.1948242-0.1039429c0.1743164-0.0761719,0.5930176,0.12854,0.8052368-0.0129395
			c0.1226807-0.0817871,0.2249146-0.3304443,0.2727661-0.4805908c0.0424805-0.1334839-0.0696411-0.1856079-0.052002-0.2857056
			c0.0249634-0.1416016-0.0216064-0.3496094,0.0130005-0.5065308c0.0456543-0.2067871,0.0254517-0.5161743,0.026001-0.7143555
			c0-0.1255493,0-0.2510986,0-0.3766479c-0.0043335-0.1948242-0.008667-0.3896484-0.0130005-0.5844727
			c0-0.0686035,0.0155029-0.1884155-0.0130005-0.2337646c0-0.0822754,0-0.1645508,0-0.2467651
			c0.0230103-0.0430298,0.1463623-0.0566406,0.1948242-0.0779419c0.1627808-0.0714111,0.3584595-0.1569214,0.5065308-0.2467651
			c0.0264893-0.1004639,0.0415649-0.218689,0.0389404-0.3636475c-0.0527954,0.0006714-0.1082153-0.0009766-0.1428223-0.0130005
			c0.0249023-0.0949097,0.1817627-0.1051025,0.2337646-0.1818237
			C33.9182739,20.0727539,33.8151245,19.7698364,33.6494141,19.7131958z M4.9849854,18.6352539
			c-0.0368042-0.0106201-0.0525513-0.0090332-0.1038818-0.0130005c0-0.0130005,0-0.026001,0-0.0390015
			c0.0581665,0.0007324,0.0430908,0.012085,0.0779419-0.0259399c0.008667,0,0.017334,0,0.0259399,0
			C4.9849854,18.583252,4.9849854,18.6092529,4.9849854,18.6352539z M5.2837524,14.803772c-0.008667,0-0.017334,0-0.026001,0
			c0-0.008667,0-0.017334,0-0.026001c0.008667,0.0043335,0.017334,0.008667,0.026001,0.0130005
			C5.2837524,14.795105,5.2837524,14.7994385,5.2837524,14.803772z M5.2966919,14.6738892c-0.008606,0-0.0172729,0-0.0259399,0
			c-0.010437-0.0339355-0.0161133-0.0307617-0.026001-0.0649414c0.017334,0.0043335,0.034668,0.008667,0.0519409,0.0130005
			C5.2966919,14.6392822,5.2966919,14.6565552,5.2966919,14.6738892z M5.7123413,17.8040161c0,0.0129395,0,0.0259399,0,0.0389404
			c-0.0098267-0.0139771-0.0081787-0.0120239-0.0130005-0.0389404C5.7036743,17.8040161,5.7080078,17.8040161,5.7123413,17.8040161z
			 M5.6993408,17.8689575c0.0098267,0.013916,0.0081787,0.0119629,0.0130005,0.0389404c-0.0216675,0-0.0432739,0-0.0649414,0
			C5.6713257,17.8887939,5.6821899,17.8988647,5.6993408,17.8689575z M5.6213989,17.8169556c0,0.008667,0,0.017334,0,0.026001
			c-0.0043335-0.0043335-0.008667-0.008667-0.0129395-0.0130005c-0.0248413-0.0216064-0.043335-0.0823975-0.052002-0.1168823
			C5.5951538,17.7351685,5.5942383,17.7850952,5.6213989,17.8169556z M5.6343994,17.855957c0,0.008667,0,0.017334,0,0.0259399
			c-0.0043335,0-0.008667,0-0.0130005,0c0-0.008606,0-0.0172729,0-0.0259399
			C5.6257324,17.855957,5.6300659,17.855957,5.6343994,17.855957z M5.4265747,17.5182495
			c0.0228882,0.0352173,0.0062256,0.0739136,0,0.1168823c-0.0042725,0-0.008606,0-0.0129395,0
			C5.4133301,17.5888062,5.4165039,17.5473633,5.4265747,17.5182495z M5.4265747,17.6481323c0.017334,0,0.034668,0,0.052002,0
			c-0.026062,0.0514526-0.0239258,0.0807495-0.052002,0.1298828c-0.0042725,0-0.008606,0-0.0129395,0
			C5.4133301,17.7102051,5.4176636,17.6772461,5.4265747,17.6481323z M5.4265747,17.8429565c0,0.0130005,0,0.026001,0,0.0389404
			c-0.0098267-0.013916-0.0081177-0.0119629-0.0129395-0.0389404C5.4179688,17.8429565,5.4223022,17.8429565,5.4265747,17.8429565z
			 M5.5045166,17.8040161c0-0.0043335,0-0.008667,0-0.0130005c0.0043335,0,0.008667,0,0.0130005,0
			c-0.0043335,0.0432739-0.008667,0.0866089-0.0130005,0.1298828c0.0216675-0.0043335,0.043335-0.008667,0.0649414-0.0130005
			c0.0043335,0.0043335,0.008667,0.008667,0.0130005,0.0130005c0,0.0043335,0,0.008667,0,0.0130005
			c-0.0338745-0.0044556-0.0691528-0.0108643-0.1038818,0.0129395c-0.0301514-0.0029297-0.0366821-0.0025635-0.052002-0.0129395
			c-0.0042725-0.0043335-0.008606-0.008667-0.0129395-0.0130005C5.4708862,17.8902588,5.4675293,17.852356,5.5045166,17.8040161z
			 M5.4265747,18.0117798c-0.0042725,0-0.008606,0-0.0129395,0c0.0043335-0.008606,0.008667-0.0172729,0.0129395-0.0259399
			c0.0792236,0.0011597,0.2183838,0.0090332,0.2727661-0.026001c0.0130005,0,0.026001,0,0.0390015,0
			C5.6673584,18.0148315,5.4856567,17.9834595,5.4265747,18.0117798z M7.2059326,19.7521973c0.017334,0,0.034668,0,0.0519409,0
			c-0.0125122,0.010437-0.0355835,0.019165-0.0519409,0.0259399C7.2059326,19.7695312,7.2059326,19.7608643,7.2059326,19.7521973z
			 M6.4136963,18.6352539c-0.0043335-0.1645508-0.008667-0.3291016-0.0130005-0.4935913c0-0.0172729,0-0.0346069,0-0.0519409
			c-0.0762939-0.0142212-0.1773682,0.0272217-0.2597656,0c-0.0194092-0.0064087-0.0181885-0.0305786-0.0649414-0.0259399
			c-0.0300903,0.0029297-0.0758667,0.0180664-0.0908813,0.0129395c-0.0636597-0.0415649-0.0180054-0.2663574-0.0390015-0.3636475
			c-0.013855-0.0643311,0.0060425-0.2212524-0.0130005-0.3377075c-0.0177612-0.1090698-0.0422363-0.4772339-0.0129395-0.6234131
			c0.020813-0.1039429-0.05896-0.270813,0-0.3636475c0.0043335-0.0043335,0.008606-0.008667,0.0129395-0.0130005
			c0.1524048,0.3655396,0.2164917,0.7581177,0.350708,1.1429443c0.0612183,0.1755371,0.1706543,0.3899536,0.1948242,0.5844727
			c0.1057739,0.0220337,0.0955811,0.1790161,0.1298828,0.2727661c0.0756836,0.2068481,0.1452637,0.4429321,0.2207642,0.649353
			c0.0278931,0.0761719,0.024292,0.1591187,0.0649414,0.2208252c-0.0073242,0.0789795-0.0614014,0.0809326-0.1298828,0.0908813
			C6.772583,19.3735352,6.78302,19.414978,6.8033447,19.4404907c-0.010498,0.0524902-0.0272217,0.0568848-0.0649414,0.0779419
			c0,0.0259399,0,0.0519409,0,0.0778809c-0.050415,0.0055542-0.121521,0.0142822-0.1558838,0.0390015
			c-0.0297241,0.0133667-0.0281372,0.0222778-0.0519409,0.0389404c-0.0012207,0.0847168,0.0015259,0.1733398,0.0389404,0.2208252
			c-0.0014038,0.0369873-0.005188,0.055481-0.0129395,0.0778809c-0.0130005,0.0043335-0.026001,0.008667-0.0390015,0.0130005
			C6.4829712,19.5357666,6.4483032,19.0854492,6.4136963,18.6352539z M6.8162842,21.6484375
			c-0.0266724-0.005188-0.0250244-0.0032349-0.0389404-0.0130005c-0.0528564,0.0006714-0.1082153-0.0009766-0.1428833-0.0130005
			c0-0.0129395,0-0.0259399,0-0.0389404c0.0689697-0.0152588,0.0932617-0.0183716,0.1688843-0.0130005
			c0.0043335,0.0043335,0.008667,0.008667,0.0129395,0.0130005C6.8162842,21.6051636,6.8162842,21.62677,6.8162842,21.6484375z
			 M7.7774048,20.5574341c-0.1454468,0.0278931-0.2730103-0.0123901-0.4415894-0.0130005c0,0.017334,0,0.034668,0,0.052002
			c-0.1359863,0.0119019-0.454895,0.0831299-0.5844727,0c-0.008606,0-0.0172729,0-0.0259399,0c0-0.0390015,0-0.0779419,0-0.1169434
			c-0.0266724-0.005127-0.0250244-0.0031738-0.0389404-0.0129395c-0.0528564,0.0006104-0.1082764-0.0010376-0.1428833-0.0130005
			c0.0016479-0.0640259,0.013855-0.1798706-0.0130005-0.2208252c0-0.0043335,0-0.008667,0-0.0130005
			c0.274231-0.0594482,0.9421997-0.1782837,1.1040039-0.324646c0.0206909-0.0077515,0.0146484-0.0045166,0.0239258-0.0120239
			c-0.001709-0.0012207-0.005249-0.0014038-0.0070801-0.0025024C7.62854,19.876709,7.6055298,19.8729248,7.5825806,19.8690796
			c0-0.0043335,0-0.008667,0-0.0130005c0.0356445,0.0021362,0.0513306,0.0136108,0.0688477,0.0244751
			c0.0030518,0.0004883,0.0060425,0.0010376,0.0090942,0.0015259c-0.0010376,0.0007935-0.0012207,0.0003662-0.0020142,0.0009766
			c0.026123,0.0181274,0.0463257,0.0407715,0.0799561,0.0639648c-0.0006104,0.100708-0.0001221,0.4312744,0.0389404,0.4935303
			C7.7774048,20.4794922,7.7774048,20.5184937,7.7774048,20.5574341z M8.3748779,20.258728
			c-0.0350342,0.0090942-0.0562134,0.0179443-0.0779419,0.0389404c-0.0728149-0.0462036-0.0411987-0.3184814-0.0909424-0.4025879
			c0-0.008667,0-0.017334,0-0.026001c0.0606079,0.0043335,0.1212769,0.008667,0.1818848,0.0130005
			c0.0020752,0.1323853,0.0527344,0.1658325,0.0908813,0.2467651C8.4277954,20.1665649,8.3794556,20.1690063,8.3748779,20.258728z
			 M11.9075928,22.9212646c-0.0043335,0-0.008667,0-0.0130005,0c0-0.008667,0-0.017334,0-0.026001
			c0.0043335,0,0.008667,0,0.0130005,0C11.9075928,22.9039307,11.9075928,22.9125977,11.9075928,22.9212646z M12.0244751,19.6223145
			c-0.1017456,0.0030518-0.1931152,0.0063477-0.1948242-0.026001c0.0606079,0,0.1212158,0,0.1818237,0
			c0.0043335,0.0043335,0.008667,0.008667,0.0130005,0.0130005C12.0244751,19.6136475,12.0244751,19.617981,12.0244751,19.6223145z
			 M13.5181274,20.8691406c-0.0574951,0.0009155-0.0889282-0.0001221-0.1169434-0.0259399
			c-0.0211182-0.0150757,0.0028076-0.0166016,0.0130005-0.0390015c0.0192261,0.0145874-0.0050049,0.0159302,0.026001,0.0390015
			c0.0200195,0.0101318,0.0318604-0.0009155,0.0519409-0.026001c0.008667,0,0.017334,0,0.026001,0
			C13.5181274,20.8345337,13.5181274,20.8518066,13.5181274,20.8691406z M13.5700684,20.7133179c-0.008667,0-0.017334,0-0.026001,0
			c-0.0043335-0.0043335-0.008667-0.008667-0.0130005-0.0130005c0-0.017334,0-0.034668,0-0.0519409
			c0.0130005,0.0043335,0.026001,0.008667,0.0390015,0.0129395C13.5700684,20.6786499,13.5700684,20.6959839,13.5700684,20.7133179z
			 M13.479126,20.5964355c-0.0579224,0.0012817-0.060791-0.0046997-0.0779419,0.0389404
			c-0.0223999-0.0083618-0.0126953-0.0025635-0.0259399-0.0130005c-0.0043335,0-0.008667,0-0.0130005,0
			c0.0170898-0.0195923,0.024353-0.027832,0.0519409-0.0389404c0.0111084-0.008606,0.0407715-0.0175781,0.0519409-0.026001
			c0.034668,0.0130005,0.0692749,0.026001,0.1039429,0.0390015C13.5513306,20.6305542,13.4991455,20.6443481,13.479126,20.5964355z
			 M14.7389526,23.2199707c-0.0098267-0.0139771-0.0081177-0.0120239-0.0130005-0.0389404c0.0043335,0,0.008667,0,0.0130005,0
			C14.7389526,23.1939697,14.7389526,23.2069702,14.7389526,23.2199707z M14.9337769,21.0899658
			c-0.0217896,0.0515747-0.0790405,0.0565796-0.1168823,0.0908813c-0.008667,0-0.017334,0-0.026001,0
			c0.00177-0.0805054,0.0222168-0.2443237-0.0129395-0.2987061c-0.0046997-0.0487061-0.0100708-0.0482788-0.026001-0.0779419
			c-0.0774536-0.0192261-0.4678955-0.102417-0.5454712-0.0519409c-0.0794678,0.0278931-0.097229,0.1500244-0.1039429,0.2467651
			c-0.039917-0.0139771-0.046875-0.0317383-0.0778809-0.0519409c-0.0015869-0.1362305-0.0118408-0.3456421,0.0129395-0.4026489
			c0.0100098-0.1126709,0.1918335-0.1732178,0.2597656-0.2727051c0.05896,0.0143433,0.0479126,0.046875,0.0909424,0.0649414
			c0.1558228,0.0129395,0.3117065,0.0259399,0.4675293,0.0389404c0.022583,0.0638428,0.0205688,0.0980835,0.0909424,0.1168823
			C14.9482422,20.6108398,14.9784546,21.0194092,14.9337769,21.0899658z M17.1807251,19.7911377
			c0.0223999,0.0084229,0.0126953,0.0025635,0.0259399,0.0130005c0.0043335,0,0.008667,0,0.0130005,0
			c0,0.008667,0,0.017334,0,0.026001c-0.017334,0-0.0346069,0-0.0519409,0
			C17.1720581,19.8171387,17.1763916,19.8041382,17.1807251,19.7911377z M17.1936646,20.8302002
			c-0.0442505-0.0027466-0.0662842-0.0062256-0.0908813-0.026001c-0.0043335,0-0.008667,0-0.0130005,0
			c0.0100098-0.0089111,0.0289307-0.0170898,0.0389404-0.0259399c0.0216675,0,0.043335,0,0.0649414,0
			C17.1894531,20.8187256,17.18927,20.7987671,17.1936646,20.8302002z M17.0897827,21.0639648c0-0.008667,0-0.017334,0-0.0259399
			c0.026001,0,0.0519409,0,0.0779419,0c0,0.0129395,0,0.0259399,0,0.0389404c-0.0359497,0.0062866-0.0375366,0.015686-0.0649414,0
			c-0.008667,0-0.017334,0-0.026001,0C17.0811157,21.0726318,17.0854492,21.0682983,17.0897827,21.0639648z M16.9209595,20.0249634
			c0.0270386-0.0053711,0.071167-0.0123291,0.0908813-0.026001c0.017334,0.008667,0.034668,0.017334,0.0519409,0.026001
			c-0.0042725,0.008606-0.008606,0.0172729-0.0129395,0.0259399c-0.043335,0-0.0866089,0-0.1298828,0
			C16.9209595,20.0422363,16.9209595,20.0335693,16.9209595,20.0249634z M17.0378418,20.258728c0,0.0130005,0,0.0259399,0,0.0389404
			c-0.0043335,0.0043335-0.008667,0.008667-0.0130005,0.0130005c-0.0378418,0.0004272-0.0708008,0.0006714-0.0908813-0.0130005
			c-0.0043335-0.0043335-0.008667-0.008667-0.0130005-0.0130005C16.9571533,20.2680054,16.9780273,20.258606,17.0378418,20.258728z
			 M16.8560181,20.5834351c0.0172729-0.017334,0.0346069-0.034668,0.0519409-0.0519409c0.0389404,0,0.0779419,0,0.1168823,0
			c0.0043335,0.0042725,0.008667,0.008606,0.0130005,0.0129395c-0.0249634,0.0379028-0.1090698,0.0247192-0.1428833,0.052002
			c-0.0130005,0-0.0259399,0-0.0389404,0C16.8560181,20.5921021,16.8560181,20.5877686,16.8560181,20.5834351z
			 M17.0118408,20.7911987c0,0.0130005,0,0.026001,0,0.0390015c-0.0476074,0-0.0952148,0-0.1428223,0
			c0-0.008667,0-0.017334,0-0.026001C16.9091187,20.7958984,16.9556885,20.7904053,17.0118408,20.7911987z M16.8040771,20.3106689
			c0.008606,0,0.0172729,0,0.0259399,0c0,0.008667,0,0.017334,0,0.026001c-0.008667,0-0.017334,0-0.0259399,0
			C16.8040771,20.3280029,16.8040771,20.3193359,16.8040771,20.3106689z M16.9468994,21.5574951c0,0.0130005,0,0.026001,0,0.0390015
			c-0.065979-0.0020752-0.1231689-0.0039062-0.1558228,0.0259399c-0.0301514-0.0029297-0.0366211-0.0025635-0.0519409-0.0130005
			c-0.0043335,0-0.008667,0-0.0130005,0C16.7755737,21.5752563,16.8734741,21.5565186,16.9468994,21.5574951z
			 M16.9468994,21.8302612c-0.0275879,0.0114746-0.0578003,0.0203857-0.0778809,0.0389404c-0.0130005,0-0.026001,0-0.0390015,0
			c-0.0043335-0.0129395-0.008667-0.0259399-0.0130005-0.0389404c0.0170288-0.0066528,0.0511475-0.0158691,0.0649414-0.026001
			c0.0267334,0.005188,0.0250244,0.0032349,0.0390015,0.0130005C16.9433594,21.8256226,16.9336548,21.8198242,16.9468994,21.8302612
			z M16.6741943,21.4016724c0,0.0043335,0,0.008667,0,0.0130005c-0.0327148-0.0212402-0.0135498-0.0024414,0-0.0390015
			C16.6824951,21.3950195,16.6903076,21.3812866,16.6741943,21.4016724z M16.7001343,22.3497925
			c0.0223999-0.0083618,0.0127563-0.0025635,0.026001-0.0130005c0.0130005,0,0.0259399,0,0.0389404,0
			c0.0043335,0.0043335,0.008667,0.008667,0.0130005,0.0130005c0,0.0043335,0,0.008667,0,0.0130005
			c-0.026001,0-0.0519409,0-0.0779419,0C16.7001343,22.3584595,16.7001343,22.354126,16.7001343,22.3497925z M16.8300171,22.7783813
			c-0.017334,0-0.0346069,0-0.0519409,0c0.0119019-0.0280151,0.0112915-0.0188599,0.026001-0.0389404
			c0.0354004,0.0003052,0.0595093,0.0004883,0.0778809,0.0129395c0.008667,0,0.017334,0,0.026001,0
			C16.8892822,22.786377,16.8549805,22.7904663,16.8300171,22.7783813z M16.8430176,22.5965576
			c-0.0389404,0-0.0779419,0-0.1168823,0c0-0.0043335,0-0.008667,0-0.0130005
			c0.0424194-0.010437,0.0961914-0.027832,0.1298828-0.0519409c0.0266724,0.005188,0.0250244,0.0032349,0.0389404,0.0130005
			c0.008667,0,0.017334,0,0.026001,0C16.9022827,22.5759277,16.8686523,22.5744629,16.8430176,22.5965576z M16.9468994,22.336792
			c-0.0562744,0-0.1125488,0-0.1688232,0c0-0.0043335,0-0.008667,0-0.0130005
			c0.0161743-0.008667,0.0268555-0.0140991,0.0389404-0.0259399c0.0403442-0.0008545,0.0819702-0.0018921,0.1039429,0.0129395
			c0.008667,0,0.0172729,0,0.0259399,0C16.9468994,22.319458,16.9468994,22.328125,16.9468994,22.336792z M16.9598999,22.1030273
			c-0.0479736,0.0014648-0.1149292,0.0056763-0.1428833-0.0130005c-0.0043335-0.0043335-0.008667-0.008667-0.0129395-0.0130005
			c0.0402832-0.0185547,0.0750122-0.0274658,0.1428223-0.0259399c0.005188,0.0266724,0.0032349,0.0250244,0.0130005,0.0389404
			C16.9598999,22.0943604,16.9598999,22.0986938,16.9598999,22.1030273z M16.881958,21.3626709
			c-0.0133667-0.010437-0.0031738-0.0047607-0.0259399-0.0129395c0-0.0130005,0-0.026001,0-0.0390015
			c0.0266724-0.005188,0.0250244-0.0032349,0.0389404-0.0130005c0.0528564,0.0030518,0.0500488,0.0064087,0.0779419,0.026001
			C16.9512939,21.3406372,16.9099731,21.3552856,16.881958,21.3626709z M16.9859009,21.0899658
			c-0.0479736,0.0014648-0.1149902,0.0056763-0.1428833-0.0130005c-0.0043335,0-0.008667,0-0.0130005,0
			c0-0.0043335,0-0.008667,0-0.0130005c0.0519409-0.0043335,0.1039429-0.008667,0.1558838-0.0130005
			C16.9859009,21.0639648,16.9859009,21.0769653,16.9859009,21.0899658z M17.0248413,22.2848511
			c0.0303345,0,0.0606079,0,0.0909424,0c0,0.0043335,0,0.008667,0,0.0130005
			c-0.0163574,0.0071411-0.0392456,0.015564-0.052002,0.0259399c-0.0172729,0-0.0346069,0-0.0519409,0
			C17.0161743,22.310791,17.0205078,22.2978516,17.0248413,22.2848511z M17.0378418,22.5186157c0.0302734,0,0.0606079,0,0.0908813,0
			c-0.0042725,0.0130005-0.008606,0.026001-0.0129395,0.0390015c-0.026001,0.0042725-0.052002,0.008606-0.0779419,0.0129395
			c0-0.0043335,0-0.008667,0-0.0129395C17.0258789,22.5327148,17.0326538,22.5480347,17.0378418,22.5186157z M17.1417236,22.7523804
			c-0.0183105,0.0066528-0.0625,0.0154419-0.0779419,0.026001c-0.008606,0-0.0172729,0-0.0259399,0
			c0.0166626,0.0114136,0.0320435,0.0120239,0.0649414,0.0130005c-0.0043335,0.0130005-0.008667,0.0259399-0.0130005,0.0389404
			c-0.0462646-0.0042725-0.0432739-0.0007935-0.0649414-0.0259399c-0.0174561-0.0245361-0.0061035-0.0407715,0.0130005-0.0779419
			c0.0302734,0,0.0606079,0,0.0908813,0c0.0043335,0.0043335,0.008667,0.008667,0.0130005,0.0130005
			C17.1417236,22.7437744,17.1417236,22.7480469,17.1417236,22.7523804z M17.0897827,22.0900269
			c-0.0646362-0.0062256-0.0523071-0.0080566-0.0389404-0.0519409c0.0266724,0.005188,0.0250244,0.0032349,0.0389404,0.0130005
			c0.017334,0,0.034668,0,0.0519409,0C17.1246338,22.0807495,17.1138306,22.071228,17.0897827,22.0900269z M17.0248413,21.8432617
			c0.0119019-0.0280151,0.0112915-0.0189209,0.026001-0.0390015c0.0259399,0,0.0519409,0,0.0778809,0
			c-0.0042725,0.0130005-0.008606,0.026001-0.0129395,0.0390015C17.0854492,21.8432617,17.0551758,21.8432617,17.0248413,21.8432617
			z M17.1547241,21.5834961c-0.0389404,0-0.0779419,0-0.1168823,0c0-0.008667,0-0.017334,0-0.026001
			c0.0389404,0,0.0779419,0,0.1168823,0C17.1547241,21.5661621,17.1547241,21.5748291,17.1547241,21.5834961z M17.0637817,21.336731
			c0-0.0130005,0-0.026001,0-0.0390015c0.0428467-0.0010986,0.0930786-0.0030518,0.1169434,0.0130005
			c0.0223999,0.0083618,0.0126953,0.0025635,0.0259399,0.0130005C17.1581421,21.3395996,17.1245728,21.335022,17.0637817,21.336731z
			 M17.1807251,20.5704346c-0.017334,0-0.034668,0-0.052002,0c-0.0042114-0.0404663-0.0043945-0.0205078,0-0.0519409
			c0.0303345,0,0.0606689,0,0.0909424,0c0.0043335,0.0043335,0.008667,0.008667,0.0130005,0.0130005
			C17.2145996,20.5473633,17.1964722,20.5512695,17.1807251,20.5704346z M17.258606,20.284668
			c-0.0389404,0.0043335-0.0778809,0.008667-0.1168823,0.0130005c0-0.0130005,0-0.0259399,0-0.0389404
			c0.034668,0,0.0692749,0,0.1039429,0c0.0043335,0.0043335,0.008606,0.008667,0.0129395,0.0130005
			C17.258606,20.276062,17.258606,20.2803955,17.258606,20.284668z M17.258606,20.0119629
			c-0.0392456,0.0079956-0.0690308,0.0135498-0.0908813,0.0389404c-0.0223999-0.0083618-0.0126953-0.0025635-0.026001-0.0130005
			c-0.0125122-0.020874-0.0007324-0.0012207,0-0.0389404c0.0390015,0,0.0779419,0,0.1168823,0
			C17.258606,20.0032959,17.258606,20.0076294,17.258606,20.0119629z M17.4404907,20.5444336
			c0.0223999,0.0084229,0.0126953,0.0025635,0.0259399,0.0130005c0.0043335,0,0.008667,0,0.0130005,0
			c-0.0043335,0.008667-0.008667,0.017334-0.0130005,0.026001c0.0043335,0,0.008667,0,0.0130005,0
			c-0.012207,0.0537109-0.0013428,0.0223999-0.0389404,0.0389404
			C17.4191895,20.5721436,17.4213867,20.5891113,17.4404907,20.5444336z M17.4534302,21.5704956
			c0,0-0.0128174,0.0021362-0.0129395-0.0389404c0.0042725,0,0.008606,0,0.0129395,0
			C17.4534302,21.5444946,17.4534302,21.5574951,17.4534302,21.5704956z M17.4664307,21.3497314
			c-0.0223999-0.0084229-0.0126953-0.0025635-0.0259399-0.0130005c-0.010498-0.0133667-0.0048218-0.0032349-0.0130005-0.026001
			c0.0117798-0.012085,0.0175171-0.022644,0.0259399-0.0389404c0.0043335,0,0.008667,0,0.0130005,0
			C17.4664307,21.2977295,17.4664307,21.3237305,17.4664307,21.3497314z M17.4404907,20.8432007c0-0.0216675,0-0.043335,0-0.0649414
			c0.0390015,0.017395,0.0263672,0.0289307,0.0778809,0.0389404C17.4989014,20.8496094,17.4911499,20.8435669,17.4404907,20.8432007
			z M17.5963135,21.0899658c-0.0043335,0.0043335-0.008667,0.008667-0.0130005,0.0129395c-0.0043335,0-0.008667,0-0.0130005,0
			c0.008728-0.0474854,0.0215454-0.055481,0.0390015-0.0908813C17.6213379,21.0366821,17.609436,21.0574951,17.5963135,21.0899658z
			 M17.6352539,20.9860229c-0.008606,0-0.0172729,0-0.0259399,0c-0.0113525-0.0477295-0.0221558-0.0644531-0.0130005-0.1038818
			c0.0130005,0.008667,0.026001,0.017334,0.0389404,0.026001C17.6352539,20.934082,17.6352539,20.960083,17.6352539,20.9860229z
			 M18.1937866,24.1680908c0.0306396,0.0114136,0.0214233,0.0048828,0.0389404,0.026001
			C18.2165527,24.1853638,18.2058716,24.1799316,18.1937866,24.1680908z M18.3366089,22.0250854
			c-0.008667,0-0.0172729,0-0.0259399,0c0-0.008667,0-0.017334,0-0.026001c0.008667,0,0.0172729,0,0.0259399,0
			C18.3366089,22.0077515,18.3366089,22.0164185,18.3366089,22.0250854z M18.8302002,23.9343262
			c-0.0043335,0-0.008667,0-0.0130005,0c-0.0043335-0.0043335-0.008667-0.008667-0.0130005-0.0130005
			c0.0025635-0.0337524,0.0057373-0.0441284,0.0130005-0.0649414c0.0043335,0,0.008667,0,0.0130005,0
			C18.8302002,23.8823853,18.8302002,23.9083252,18.8302002,23.9343262z M19.1159058,21.1938477
			c-0.0532837,0.0363159-0.5664062-0.1092529-0.6624146-0.026001c-0.1126099,0.0657959-0.0484009,0.3540039-0.1298218,0.4545898
			c-0.0133667,0.010498-0.0032349,0.0048218-0.026001,0.0130005c-0.0249634-0.0368652-0.0167847-0.1091309-0.0389404-0.1558228
			c-0.0522461-0.1098633-0.1575317-0.1608887-0.1558838-0.324707c0.0501709-0.0014038,0.065979-0.0029907,0.0909424-0.026001
			c0.0129395-0.0043335,0.0259399-0.008667,0.0389404-0.0130005c-0.0014038-0.0328979-0.0015869-0.0480957-0.0130005-0.0649414
			c-0.0139771-0.0098267-0.0119629-0.0081177-0.0389404-0.0129395c0.0057983-0.2327881,0.1290894-0.2689209,0.1688232-0.4415894
			c0.1204834-0.003479,0.1384888,0.0368652,0.1818237,0.1038818c0.0829468-0.0010376,0.2521973-0.012085,0.3117065,0.0259399
			c0.3112793-0.0032959,0.1194458,0.1004028,0.2987671,0.1558838
			C19.1426392,20.9615479,19.1530762,21.1356812,19.1159058,21.1938477z M23.6616821,20.7003174
			c0.008667,0.0043335,0.017334,0.008667,0.026001,0.0130005c0,0.0043335,0,0.008667,0,0.0129395c-0.008667,0-0.017334,0-0.026001,0
			C23.6616821,20.7176514,23.6616821,20.7089844,23.6616821,20.7003174z M23.3110352,20.6743164
			c0.0840454,0.0167847,0.2076416,0.0142822,0.3117065,0.0130005c0,0.0130005,0,0.026001,0,0.0389404
			c-0.1318359-0.0009155-0.1872559-0.026062-0.3117065-0.0259399
			C23.3110352,20.6916504,23.3110352,20.6829834,23.3110352,20.6743164z M21.7654419,20.5834351c0,0.0043335,0,0.008667,0,0.0130005
			c-0.0306396-0.0114136-0.0214233-0.0049438-0.0389404-0.026001C21.739502,20.5747681,21.7524414,20.5791016,21.7654419,20.5834351
			z M21.4667358,22.635498c-0.0043335,0-0.008667,0-0.0130005,0c0-0.008667,0-0.0172729,0-0.0259399
			c0.0043335,0,0.008667,0,0.0130005,0C21.4667358,22.6182251,21.4667358,22.6268311,21.4667358,22.635498z M22.7785034,22.362793
			c-0.0404663-0.0078735-0.0315552-0.0022583-0.0519409-0.026001c0.017334,0,0.0346069,0,0.0519409,0
			C22.7785034,22.345459,22.7785034,22.354126,22.7785034,22.362793z M23.8175659,21.5834961c0,0.0302734,0,0.0606079,0,0.0908813
			c-0.0141602,0.0237427-0.1078491,0.0310059-0.1298828,0.052002c-0.008667,0.0302734-0.017334,0.0606079-0.026001,0.0908813
			c-0.0266113,0.0367432-0.0940552,0.0614624-0.1298828,0.0909424c-0.0098267,0.0139771-0.0081177,0.0119629-0.0130005,0.0389404
			c-0.0129395,0-0.0259399,0-0.0389404,0c-0.012207,0.0281982-0.0258789,0.053772-0.0389404,0.0779419
			c-0.0359497,0.0062866-0.0375366,0.015686-0.0649414,0c-0.1991577-0.0074463-0.1177979,0.0333862-0.1818237,0.1428833
			c-0.0437012,0.0193481-0.3393555-0.0222168-0.4156494-0.0390015c-0.1298828-0.008667-0.2597656-0.0172729-0.3896484-0.0259399
			c-0.2139282-0.0477905-0.4844971-0.086731-0.7272949-0.0909424c-0.0043335-0.0043335-0.008667-0.008667-0.0130005-0.0130005
			c0.0043335-0.0735474,0.008667-0.1471558,0.0130005-0.2207642c0.0519409-0.0043335,0.1038818-0.008667,0.1558228-0.0130005
			c0-0.0216675,0-0.0432739,0-0.0649414c-0.1401978-0.0125122-0.2312622-0.0543213-0.4025879-0.0519409
			c0.0005493,0.104126,0.0574341,0.0932617,0.1298828,0.1168823c-0.008667,0.0736084-0.017334,0.1472168-0.026001,0.2208252
			c-0.0917358,0.0015259-0.2265625,0.0125732-0.2857056-0.026001c-0.0123291-0.0219116,0.0033569-0.1248779,0.0259399-0.1558838
			c0.0062866-0.1307983,0.1234741-0.1671753,0.1818237-0.2467651c0.1016846-0.1386719,0.2069092-0.2667847,0.3117065-0.4025879
			c0.0698242-0.0904541,0.184021-0.1719971,0.2208252-0.2597656c0.401123,0.00354,0.772583,0.0678101,1.1559448,0.0908813
			c0.0029297,0.0301514,0.0025635,0.0366821,0.0129395,0.052002c0.0120239,0.0350342,0.0223389,0.0380249,0.0390015,0.0648804
			c0.1818237,0.0130005,0.3636475,0.026001,0.5454712,0.0390015c0.005188,0.0266724,0.0032349,0.0250244,0.0130005,0.0389404
			c0.0062866,0.0774536,0.0383301,0.0896606,0.0908813,0.1168823C23.835083,21.3728027,23.861145,21.5164795,23.8175659,21.5834961z
			 M24.8825684,20.8302002c-0.1618042-0.0410156-0.277771-0.024353-0.4285889-0.0390015c0-0.008606,0-0.0172729,0-0.0259399
			c0.0709839,0.0126343,0.2819824-0.0245972,0.3636475,0.0259399c0.0480347,0.0057983,0.038208,0.0072632,0.0649414,0.026001
			C24.8825684,20.8215332,24.8825684,20.8258667,24.8825684,20.8302002z M24.9085083,20.8041992
			c-0.0042725,0.0043335-0.008606,0.008667-0.0129395,0.0130005c0-0.008667,0-0.017334,0-0.026001
			c0.0223999,0.0084229,0.0126953,0.0025635,0.0259399,0.0130005
			C24.9171753,20.8041992,24.9128418,20.8041992,24.9085083,20.8041992z M25.9086304,24.4927979
			c-0.0043335,0-0.008667,0-0.0130005,0c0.0043335-0.017334,0.008667-0.034668,0.0130005-0.0519409
			c0.008606,0,0.0172729,0,0.0259399,0C25.9249268,24.4709473,25.9210815,24.4698486,25.9086304,24.4927979z M25.9475708,24.4667969
			c0-0.008667,0-0.0172729,0-0.0259399c0.0223389,0.0078735,0.0408325,0.012085,0.0779419,0.0130005
			C26.0072632,24.4663086,25.9829102,24.4669189,25.9475708,24.4667969z M26.3761597,24.6486206
			c-0.0043335,0-0.008667,0-0.0130005,0c0-0.008606,0-0.0172729,0-0.0259399c0.0043335,0,0.008667,0,0.0130005,0
			C26.3761597,24.6313477,26.3761597,24.6400146,26.3761597,24.6486206z M26.2982178,24.4927979c0.0130005,0,0.026001,0,0.0390015,0
			c0.0171509,0.0315552-0.0061035,0.0091553,0.0259399,0.0259399c0,0.0216675,0,0.043335,0,0.0649414
			C26.3391724,24.5534058,26.321228,24.5209351,26.2982178,24.4927979z M26.3631592,24.1031494
			c-0.0216064,0-0.0432739,0-0.0649414,0c0-0.008667,0-0.017334,0-0.026001
			c0.0043335-0.0042725,0.008667-0.008606,0.0130005-0.0129395c0.0471191,0.0024414,0.1589966,0.0028687,0.1948242,0.0259399
			c0.0098267,0.0139771,0.0081787,0.0120239,0.0130005,0.0390015
			C26.4590454,24.1296387,26.3986206,24.1280518,26.3631592,24.1031494z M27.895752,24.8694458c0,0.0043335,0,0.008667,0,0.0130005
			c-0.0043335,0-0.008667,0-0.0130005,0c0.0111694-0.0241699,0.0185547-0.0343628,0.026001-0.0649414
			C27.9202881,24.8425903,27.9161987,24.8449097,27.895752,24.8694458z M28.8308716,22.0900269
			c-0.0209351,0.0153198-0.1183472,0.0603638-0.1428223,0.0649414c-0.0050659,0.0499268-0.0124512,0.1132812-0.0390015,0.1428833
			c-0.0220947,0.050293-0.0570679,0.0369263-0.0778809,0.0908813c-0.017334,0-0.034668,0-0.052002,0
			c0,0.0303345,0,0.0606079,0,0.0909424c-0.0310669,0.0116577-0.0686035,0.0189209-0.0908813,0.0389404
			c-0.0213623,0.0302124-0.026001,0.0944824-0.026001,0.1428833c-0.0043335,0.0043335-0.008667,0.008667-0.0130005,0.0130005
			c-0.0476074-0.0043335-0.0952148-0.008667-0.1428223-0.0130005c0.0194092-0.100708-0.003479-0.2507935-0.026001-0.350708
			c-0.0446777-0.1980591-0.0472412-0.3648682-0.1428833-0.5065308c-0.2104492-0.3117676-0.8259277-0.3563843-1.1429443-0.1428223
			c-0.1047363,0.0705566-0.1596069,0.2208252-0.2207642,0.3376465c-0.0497437,0.0950317-0.2053223,0.375061-0.1688232,0.4935913
			c-0.0736084-0.008667-0.1472168-0.017334-0.2208252-0.026001c-0.0029297-0.0300903-0.0025635-0.0366211-0.0130005-0.0519409
			c-0.0014038-0.0369873-0.005188-0.055542-0.0130005-0.0779419c-0.0328979-0.0013428-0.0480957-0.0015869-0.0648804-0.0130005
			c-0.0859985,0.0169678-0.1088867,0.0784302-0.1818848,0.1039429c-0.0509644,0.0303955-0.1554565-0.0101929-0.2337646-0.0130005
			c-0.0043335-0.0043335-0.008667-0.008667-0.0130005-0.0130005c0.0013428-0.0504761,0.0072021-0.114624,0.0130005-0.1298828
			c-0.0003662-0.0378418-0.0006104-0.0708008,0.0130005-0.0909424c0.0300293-0.0188599,0.1125488-0.0075684,0.1428833-0.0259399
			c0.008606,0,0.0172729,0,0.0259399,0c-0.0029297-0.0301514-0.0025635-0.0366211-0.0130005-0.0519409
			c-0.0321045-0.0247192-0.0909424-0.0370483-0.1428223-0.0390015c0.0172729-0.12854,0.1227417-0.2307129,0.1818237-0.324707
			c0.0656738-0.1044312,0.1043091-0.206665,0.1688232-0.3117065c0.0361328-0.0587769,0.0912476-0.0977173,0.1038818-0.1818237
			c0.3149414,0.0013428,0.6793823,0.0039673,0.9611206,0.0649414c0.1897583,0.0410767,0.3979492,0.0014038,0.5714722,0.0390015
			c0.1531982,0.0331421,0.3740845-0.0340576,0.4935303,0.0389404c0.0148926,0.0217285,0.0214844,0.0886841,0.026001,0.1168823
			c0.2034302,0.017334,0.4069824,0.034668,0.6104126,0.0519409c0.0037842,0.0983276,0.0368652,0.0961304,0.052002,0.1428833
			C29.0334473,21.7645874,28.8633423,22.0491943,28.8308716,22.0900269z M31.9220581,14.7907715c0.0042725,0,0.008606,0,0.0129395,0
			c-0.0163574,0.0376587-0.0180664,0.012146-0.0389404-0.0130005C31.918457,14.7861938,31.9087524,14.7803345,31.9220581,14.7907715
			z M31.623291,22.8043823c-0.0043335,0.0043335-0.008667,0.008606-0.0129395,0.0129395
			c-0.064209-0.0008545-0.2025757-0.0133057-0.2208252-0.0259399c-0.1401367-0.0062866-0.1929932,0.0293579-0.2208252,0.1298828
			c-0.1471558-0.0130005-0.2943726-0.026001-0.4415894-0.0390015c-0.0042725-0.0043335-0.008606-0.008667-0.0129395-0.0129395
			c0.0068359-0.1738281,0.0411987-0.2924805,0.0519409-0.4545898c0.0625-0.001709,0.1826172-0.0181885,0.2207642-0.0519409
			c0.072876-0.0014648,0.0782471-0.0022583,0.0779419,0.0389404c0.1444092,0.0078125,0.4251709,0.0505371,0.5325317-0.026001
			c0.0299683,0.0042725,0.0322266,0.0060425,0.0519409,0.0130005C31.6352539,22.5066528,31.6358643,22.6863403,31.623291,22.8043823
			z M31.9090576,21.8432617c-0.0626831,0.100647-0.1578369,0.2022095-0.1948242,0.324707
			c-0.0809326-0.0194092-0.0987549-0.1004028-0.1558838-0.1428833c-0.0942993-0.0700684-0.2381592-0.1016235-0.324707-0.1818237
			c-0.0042725,0-0.008606,0-0.0129395,0c0.0015869-0.0897827-0.0088501-0.1208496-0.0390015-0.1688843
			c-0.0129395,0-0.0259399,0-0.0389404,0c0.0346069-0.1038818,0.0692749-0.2077637,0.1038818-0.3117065
			c0.0307007-0.0348511,0.0823975-0.0144653,0.1039429-0.0649414c0.0571899-0.1341553-0.0202026-0.2362671-0.0130005-0.324646
			c0.0055542-0.0683594,0.0586548-0.2143555,0.0130005-0.2857666c-0.0043335-0.0130005-0.008667-0.026001-0.0130005-0.0389404
			c-0.0303345,0-0.0606079,0-0.0909424,0c0.0059814-0.1907959,0.0289917-0.3596191,0.0649414-0.5195312
			c0-0.0822754,0-0.1645508,0-0.2467651c0.0076904-0.026123,0.0245972-0.0401611,0.026001-0.0909424
			c0-0.0519409,0-0.1038818,0-0.1558228c0.0286255-0.083374,0.1976929-0.2622681,0.1298828-0.3896484
			c-0.0046387-0.0830078-0.0319824-0.081665-0.0649414-0.1298828c-0.1038818-0.0130005-0.2078247-0.026001-0.3117065-0.0389404
			c0.0098267-0.2915649,0.1210327-0.6990967,0.1948242-0.9611206c0.0304565-0.1083374,0.0214844-0.1920776,0.0519409-0.2987671
			c0.1119995-0.3925171,0.1697998-0.8028564,0.2987061-1.1948853c0.0575562-0.1750488,0.171936-0.4450684,0.1818237-0.6364136
			c0.0043335,0,0.008667,0,0.0130005,0c0.0154419,0.0447388-0.0032349,0.123291,0.0130005,0.1818848
			c0.0706787,0.2553711,0.0440063,0.5507812,0.1038818,0.8311768c0.0584106,0.2734375,0.0581665,0.6934204,0.1298828,1.0001221
			c0.0311279,0.1331177-0.008728,0.2299805,0.026001,0.3636475c0.0481567,0.18573,0.0283813,0.4053345,0.0778809,0.6104126
			c0.0146484,0.0605469,0.0529175,0.2046509,0.052002,0.2597656c-0.0024414,0.1382446,0.0135498,0.3644409,0.0519409,0.5065308
			c0.0301514,0.1116333-0.0193481,0.227417,0,0.324707c0.0014648,0.0075073,0.0281372,0.0825195,0.0259399,0.0908813
			c-0.010498,0.0407104-0.0766602,0.0848999-0.0908813,0.1298828c-0.0213623,0.0675659,0.0123901,0.2376099,0.0259399,0.2987671
			c0.0415039,0.1871338-0.0306396,0.4064331,0.0909424,0.5065308c-0.0205078,0.100647-0.0957031,0.1707764-0.1428833,0.2467651
			C32.0900269,21.5054321,32.013855,21.6749268,31.9090576,21.8432617z M32.350647,22.8822632
			c-0.1168823-0.008606-0.2338257-0.0172729-0.350708-0.0259399c-0.0043335-0.0043335-0.008667-0.008667-0.0129395-0.0130005
			c-0.0005493-0.2878418,0.1409302-0.3953247,0.2597046-0.5844727c0.03479-0.0552979,0.046936-0.1117554,0.0909424-0.1558228
			c0.0139771-0.0098877,0.0120239-0.0081787,0.0389404-0.0130005c0.00177,0.1082764,0.0363159,0.3515015-0.0129395,0.4285889
			C32.3646851,22.6315918,32.3810425,22.7921143,32.350647,22.8822632z M32.5714111,19.8041382
			c-0.0266724-0.005188-0.0250244-0.0032349-0.0389404-0.0130005c0,0-0.0509644-0.0029297-0.026001-0.0130005
			c0.0043335-0.0042725,0.008667-0.008606,0.0130005-0.0129395c0.0216675,0,0.0432739,0,0.0649414,0
			C32.5800781,19.7781372,32.5757446,19.7911377,32.5714111,19.8041382z M4.9590454,18.5962524
			c0.0043335-0.0043335,0.008667-0.008667,0.0130005-0.0130005c-0.008667,0-0.017334,0-0.026001,0
			C4.9337769,18.5969238,4.9500732,18.5979614,4.9590454,18.5962524z M11.9555054,22.8683472
			c-0.0116577,0.0036011-0.0186768-0.0007935-0.0089722,0.0269165c0.0181274,0.0094604,0.0164185,0.0042114,0.0390015-0.0130005
			c0.0223999-0.0083618,0.0126953-0.0025024,0.0259399-0.0129395c-0.0129395-0.0043335-0.0259399-0.008667-0.0389404-0.0130005
			c-0.0050659,0.0083618-0.0073242,0.0053101-0.0114746,0.0080566c-0.000061,0.001709-0.0015259,0.0032349-0.0015259,0.0049438
			C11.9561768,22.8688965,11.9577026,22.8687744,11.9555054,22.8683472z M20.9732056,24.5836792c0.008667,0,0.0172729,0,0.0259399,0
			c0-0.008606,0-0.0172729,0-0.0259399c-0.008667,0-0.0172729,0-0.0259399,0
			C20.9732056,24.5664062,20.9732056,24.5750732,20.9732056,24.5836792z"/>
	</g>
</g>
</svg>
