<?xml version="1.0" encoding="utf-8"?>
<!-- Generator: Adobe Illustrator 17.1.0, SVG Export Plug-In . SVG Version: 6.00 Build 0)  -->
<!DOCTYPE svg PUBLIC "-//W3C//DTD SVG 1.1//EN" "http://www.w3.org/Graphics/SVG/1.1/DTD/svg11.dtd">
<svg version="1.1" id="Layer_1" xmlns="http://www.w3.org/2000/svg" xmlns:xlink="http://www.w3.org/1999/xlink" x="0px" y="0px"
	 viewBox="0 0 50 50" enable-background="new 0 0 50 50" xml:space="preserve">
<g id="base">
	<g>
		
			<linearGradient id="SVGID_1_" gradientUnits="userSpaceOnUse" x1="-22.7237625" y1="93.9519958" x2="-22.7237625" y2="96.1951141" gradientTransform="matrix(8 0 6.0949283 -8 -371.7608643 800)">
			<stop  offset="0" style="stop-color:#000000;stop-opacity:0.4"/>
			<stop  offset="1" style="stop-color:#000000;stop-opacity:0"/>
		</linearGradient>
		<path fill="url(#SVGID_1_)" d="M9.2211933,41.0931664c-1.0316706-1.155899-1.0465794-2.3570251-0.0451984-3.6714058
			c2.9830685-3.9154778,13.3386345-6.9826736,23.5756073-6.9826736c10.2364845,0,15.9184647,3.0671959,12.9353981,6.9826736
			c-1.0015221,1.3145676-2.8461342,2.5156937-5.6389427,3.6714058l-20.9680824,7.2908478L9.2211933,41.0931664z"/>
		
			<linearGradient id="SVGID_2_" gradientUnits="userSpaceOnUse" x1="2.408241" y1="93.9519958" x2="2.408241" y2="99.8736954" gradientTransform="matrix(8 0 0 -8 0 800)">
			<stop  offset="0" style="stop-color:#007BB8"/>
			<stop  offset="1" style="stop-color:#0094DE"/>
		</linearGradient>
		<path fill="url(#SVGID_2_)" d="M3.8527436,29.1365871c-1.9123098-3.051506-2.8423159-6.2224064-2.8423159-9.6922932
			c0-10.3366346,8.018774-18.433857,18.2557507-18.433857c10.2364788,0,18.2552528,8.0972204,18.2552528,18.433857
			c0,3.4703808-0.929512,6.6412811-2.8418236,9.6922932l-15.4134293,19.247427L3.8527436,29.1365871z"/>
		<path fill="#FFFFFF" d="M19.2659435,2.0208666c9.6701679,0,17.245142,7.6533575,17.245142,17.4236126
			c0,3.2562714-0.8693466,6.2360802-2.656971,9.1055412l-14.588171,18.2170124L4.6778779,28.550066
			c-1.7876539-2.8695812-2.6570275-5.8494282-2.6570275-9.105587C2.0208504,9.6742239,9.5957994,2.0208666,19.2659435,2.0208666
			 M19.2659435,0.0000152C8.532135,0.0000152,0,8.6111231,0,19.444479c0,3.888895,1.1009822,7.2222118,3.0275838,10.27775
			l16.2383595,20.2777863L35.5043869,29.722229c1.9266396-3.0555382,3.0275459-6.388855,3.0275459-10.27775
			C38.5319328,8.6111231,29.9998417,0.0000152,19.2659435,0.0000152L19.2659435,0.0000152z"/>
	</g>
</g>
<g opacity="0.6">
	<g>
		<path d="M34.5095062,20.426321c-0.1216927-0.0415707-0.3515091,0.0378094-0.4593849-0.0262127h-0.301857
			c-0.0437279-0.398077-0.0875206-0.7962742-0.1312523-1.1943493c-0.065197-0.2808247-0.0490952-0.586998-0.1181145-0.8794174
			c-0.1511726-0.6405964-0.1645584-1.3368282-0.314991-1.9687271v-0.1049767
			c-0.0320129-0.126442-0.0919685-0.3058052-0.0787659-0.4593849c0.0048714-0.0567446,0.0355263-0.0573006,0.0524864-0.0919008
			c0.0595245-0.1211376,0.0020981-0.271018-0.078701-0.3280706c0.0032692-0.1289711,0.0851784-0.4021463,0.1443253-0.4856596
			c-0.031456-0.1571569-0.3252945-0.1097879-0.4462433-0.1837416h-0.0262146
			c0.0095024-0.0800591,0.0249786-0.2047119,0.0656281-0.2625046v-0.1049776
			c-0.3101196-0.0779009-0.8311863-0.0262747-1.1944122-0.0262747c-0.2447414,0-0.4044895-0.0173321-0.5512238,0.078763
			c-0.0285568,0.1068287-0.0622959,0.5857649,0.0262737,0.682477c0.0413265,0.1194725,0.1826324,0.126442,0.3018589,0.1706648
			c0.1856518,0.0687723,0.4147892,0.1158953,0.6168518,0.1706038c0.1052208,0.0284967,0.2338829,0.0124598,0.314991,0.0656271
			c0.0172729,0.0286188-0.0276299,0.0859804-0.0130768,0.1443901c0.0089455,0.0358973,0.0571785,0.0808601,0.0656242,0.1049767
			c0.0216522,0.0618029-0.060997,0.2049599-0.0787582,0.2493677c-0.0175171,0.078764-0.0350342,0.1575279-0.0524902,0.2362309
			c-0.0434227,0.1327324-0.1011543,0.301239-0.1443901,0.4331703c-0.047802,0.1457462-0.0496521,0.2718182-0.0918999,0.4199715
			c-0.0698223,0.2451725-0.1360035,0.5303135-0.2099571,0.7743778c-0.0615559,0.2029858-0.0622959,0.3856163-0.1181774,0.5906372
			c-0.0719795,0.2641697-0.1075039,0.5456734-0.1837406,0.8268681c-0.0386105,0.142477-0.0897427,0.315794-0.1049767,0.4724579
			l-0.0131378,0.0131378c-0.2242661-0.0032063-0.6021709-0.0675373-0.76124,0.0394135
			c-0.1262569,0.0848083-0.1693096,0.2738533-0.2756443,0.380619c-0.0728436,0.0441628-0.1717148,0.03269-0.2362309,0.0787029
			c-0.1698627,0.1213226-0.2877922,0.3777218-0.4068928,0.5512848c-0.0432396,0.0630379-0.1950302,0.2405491-0.1049786,0.380621
			c0.0200462,0.0583477,0.0698204,0.0767899,0.1443901,0.078764c0.015049,0.0919018,0.0091286,0.2794666,0.0131359,0.3936977
			c-0.0719776-0.000803-0.2713852,0.0098667-0.3281288-0.0262146c-0.1253948-0.0065994-0.2396851-0.0277557-0.2625065,0.0787621
			c-0.6143837-0.0047474-1.2153816-0.0817242-1.8112621-0.1181755c0.0122128-0.0376854,0.0423737-0.0609398,0.0524902-0.0918407
			c0.0397205-0.1210747-0.0216503-0.2929115,0.0394115-0.3937569c-0.0006161-0.0405235-0.0045624-0.0672913-0.0131378-0.0919018
			h-0.1312523c0.0218964-0.2843399,0.0437317-0.5687389,0.0656261-0.8530807c0.0172081-0.078886-0.014185-0.2184658,0-0.2625027
			c0.0180721-0.0561905,0.095787-0.0914726,0.1181164-0.1575298c0.0204163-0.0286179,0.0207863-0.1288471,0-0.157465
			c-0.0568085-0.1510525-0.4327393-0.1163273-0.6168518-0.1575279c-0.1863918-0.0416336-0.6869774-0.111948-0.8662777-0.0393524
			c-0.1521626,0.0616169-0.2586823,0.1970024-0.380621,0.2887192c-0.0653191,0.0492191-0.1551838,0.1004753-0.1837406,0.1838036
			c-0.3869743,0.0021591-0.5393829,0.2635536-0.7349663,0.4593239c-0.0827732,0.0828934-0.2104492,0.1812725-0.2493668,0.3019161
			v0.1574669c0.0447159,0.0415077,0.0762348,0.0553265,0.1443291,0.0787621
			c-0.000433,0.1417389,0.0235596,0.2658367,0.0262737,0.4199715c-0.0915928-0.0007401-0.4667244-0.0028992-0.5250092-0.0393486
			c-0.1162663-0.0065403-0.1632652,0.0016651-0.1837425,0.0918999c-0.1217537,0.000433-0.6475658-0.014555-0.7087517-0.0525513
			h-0.1443901c0.0174561-0.0476151,0.0623569-0.0661182,0.078764-0.1049767
			c0.0513783-0.1215076,0.0125198-0.332325,0.0524883-0.4593849c-0.0407085-0.014185-0.110651-0.014555-0.1706047-0.0131359
			c0.0087605-0.2624435,0.0175171-0.5250111,0.0262775-0.7874546c0.000061-0.0911617,0.0235596-0.2830448,0-0.3281307
			c0.01437-0.0873394,0.0761719-0.0595207,0.1049767-0.1312542c0.0083885-0.0195522,0.016283-0.0056725,0-0.0262737
			c0.000185-0.0564365,0.0052433-0.1071987-0.0262756-0.1312523c-0.0762348-0.0582256-0.1860237-0.0123978-0.301857-0.0393524
			c-0.1379128-0.032074-0.3055573,0.0094986-0.459383-0.0262756c-0.0978222-0.0227585-0.2921124-0.0536594-0.4068336-0.0262127
			c-0.2574482,0.0614948-0.4582748,0.1520386-0.6693993,0.2625046c-0.0532913,0.0278797-0.1157112,0.0857334-0.1706066,0.1049786
			c-0.1393929,0.0488491-0.3069134,0.0109787-0.4331703,0.0656261c-0.0882626,0.0382404-0.1698017,0.1204586-0.2493668,0.1706028
			c-0.2088451,0.1318073-0.412878,0.2662697-0.6168499,0.3937588c-0.0103016,0.0454578-0.0293598,0.1538887,0,0.1968784
			c0.0141869,0.0398445,0.0120888,0.0389194,0.0524883,0.0524883c0.0221424,0.016777,0.0559425,0.0230694,0.0919018,0.0262756
			c0.0091286,0.0854855-0.0024052,0.2641087,0.0393505,0.3281307v0.1049786
			c-0.1477203-0.0490341-0.5616474-0.000246-0.6693382-0.0656261c-0.0882015,0.0022812-0.127737,0.047123-0.1443901,0.1181145
			h-0.0524883c0.0073376-0.0969582,0.0524883-0.0749397,0.078701-0.1312523
			c0.0411396-0.0882015-0.0092506-0.2232151,0.0394135-0.3018551c0.0014782-0.048481,0.0057354-0.1161423-0.0131378-0.144392
			c-0.032135-0.0215244-0.1171284-0.0151119-0.1706028-0.0130768L19.0614815,20.34762
			c0.0095596-0.0514412,0.0344162-0.0964661,0.0393505-0.1181164c-0.0043793-0.0918999-0.0087585-0.1838017-0.0130768-0.2756424
			c0.0171471-0.0545845,0.0829582-0.1060257,0.1049786-0.1575279c0.0618019-0.1446991-0.0478001-0.2772465-0.0919018-0.3674812
			c0.0866585-0.0679092,0.1759071-0.2134724,0.1050396-0.3674831c-0.0179482-0.0389194-0.0935669-0.1015244-0.1181164-0.1575298
			c-0.1714668-0.3912258-0.33288-0.7899818-0.5381489-1.1549969c-0.0568657-0.0102997-0.2137775,0.0043182-0.2625027-0.0262127
			h-0.367485c-0.126873,0.2362289-0.253746,0.4725208-0.380619,0.7087517
			c-0.0292358,0.0102997-0.0713634,0.0139389-0.1181145,0.0130749c-0.0282497,0.0800591,0.0026512,0.1833725-0.0262756,0.2756443
			c-0.0490971,0.1567249-0.2655907,0.4026394-0.1049786,0.5643616v0.0131359
			c-0.1482735,0.0297909-0.3483601-0.0037632-0.4856567,0.0394135c-0.0920258,0.0289268-0.1855316,0.0975151-0.2625065,0.1443291
			c-0.1836796,0.111763-0.3831482,0.2015038-0.5643616,0.301918c-0.0543394,0.030098-0.3280697,0.0342941-0.38062,0h-0.1312523
			c0.0144939-0.1217537-0.0129538-0.3231983-0.0131388-0.4725227c-0.000062-0.0667362,0.0141869-0.1793633-0.0130758-0.2231541
			c-0.0056124-0.127737,0.0232534-0.1478443,0.1049776-0.1837425c-0.000308-0.0357723-0.000493-0.0601349-0.0131369-0.078701
			c-0.0150499-0.141737-0.1478443-0.0769138-0.2756433-0.1050377c-0.0658112-0.0144958-0.6808109-0.047739-0.8005915-0.0131378
			c-0.2441254,0.0706215-0.4890509,0.1855297-0.7218895,0.2887802c-0.0307779,0.0136299-0.0732746,0.0552006-0.1049776,0.0656261
			c-0.1487074,0.0043774-0.2975388,0.0087585-0.4462461,0.0131378c-0.2349958,0.0612469-0.4069567,0.18997-0.5906363,0.3018551
			c-0.0724115,0.0440998-0.1518536,0.0615559-0.2100172,0.1181164h-0.0262136
			c-0.0051184-0.2603474-0.0109787-0.524641-0.0524883-0.7481041c0.0395365-0.0194283,0.0708075-0.0411396,0.1181154-0.0524883
			c-0.0011721-0.0504532-0.0044422-0.0778999-0.0262756-0.1050396c-0.0339851-0.0810452-0.0864115-0.0454559-0.1837416-0.0656261
			c-0.1569109-0.0324421-0.6538572-0.0603828-0.840004,0c-0.2076721,0.0674152-0.4234257,0.1374836-0.6299877,0.2231541
			c-0.0586567,0.0243034-0.1341515,0.0742626-0.1968794,0.0918407h-0.1706038
			c-0.1631403,0.0000629-0.3225193-0.0077724-0.4462461,0.0394115c-0.4331093,0.2143345-0.8662796,0.4287319-1.2993879,0.6431255
			c-0.0284967,0.0730915-0.0056133,0.1133041,0,0.2099552c0.0393505,0.0043793,0.078763,0.0087585,0.1181145,0.0131378
			c0.0146179,0.1215076,0.0748167,0.2118664,0.078764,0.3412685c-0.3149328-0.0175171-0.6300497-0.0350342-0.9449816-0.0524864
			c-0.0187507-0.1345234-0.0799365-0.2525768-0.1181154-0.3675461c-0.0547094-0.1645584-0.0758033-0.3072853-0.1312528-0.4724598
			c-0.0463204-0.1379147-0.1237278-0.3041401-0.1575279-0.4462471c-0.0162215-0.0684643,0.0389199-0.0561256,0.0262756-0.1181145
			c-0.0492816-0.2412262-0.1717143-0.5036697-0.2493677-0.7350273c-0.1119475-0.333374-0.1875653-0.6517601-0.301918-0.984333
			c-0.0902362-0.2626286-0.1607351-0.5435753-0.2624435-0.8137894c-0.0590267-0.1567888-0.142108-0.3275156-0.1312528-0.5118742
			c0.0429287-0.0397205,0.0920248-0.0738907,0.1443286-0.1049767c0.0046258-0.1575899,0.0011721-0.2435703-0.0918398-0.301856
			v-0.0262756c0.1310058-0.0668602,0.2350583-0.1724548,0.3543448-0.2493677
			c0.0408936-0.1823845-0.0149875-0.3840742-0.039351-0.5643616c-0.2073641-0.0521183-0.4926291,0.0519953-0.6956143,0.1049776
			c-0.0657496,0.0172081-0.1787453,0.0035772-0.2100163,0.0524883c-0.0430517,0.0674772,0.0418186,0.2011347,0.0656266,0.2625055
			c-0.1171899,0.047801-0.189971,0.1014004-0.2887192,0.1575279c0.0204158,0.0551405,0.0293593,0.1186695,0.0656266,0.1574659
			c-0.0129528,0.112071-0.0975761,0.0765429-0.1443901,0.1443901c-0.0218964,0.031703-0.0105472,0.0550175-0.039413,0.078764
			c0.0354652,0.1155252,0.0035157,0.2111273,0.1181765,0.2755814c-0.0743847,1.1023865-0.1487694,2.2051411-0.2231536,3.3075275
			c-0.0592122-0.0127659-0.0644546-0.0489731-0.1049776-0.0656261H5.3196778
			c-0.1813359-0.0400906-0.4431009-0.062048-0.5906363,0.0131378c-0.0243015,0.0885715-0.0671072,0.2323456,0,0.3149948
			c0.015481,0.0679092,0.0818472,0.0986862,0.1575274,0.1049767c0.0084505,0.0226364,0.0025287,0.0128307,0.0130758,0.0262756
			c-0.0284953,0.0232525-0.063406,0.0271378-0.1181145,0.0262127c-0.0043793,0.0043812-0.0087585,0.0087605-0.0130763,0.0131378
			c-0.0016656,0.0537853-0.0085115,0.1380997,0.0130763,0.1706047c0.0185647,0.1548138,0.3462648,0.3054333,0.459384,0.3937569
			c0.0356503,0.0278187,0.2670693,0.523716,0.2887802,0.5906372c0.0043793,0.4330482,0.0087581,0.8662796,0.0130758,1.2993889
			c0,0.1250858-0.0317645,0.445137,0.0131378,0.4987335c0.0049958,0.0038872,0.3161044,0.0774097,0.3281317,0.0787659
			c0.0029602,0.030407,0.0025902,0.0370064,0.0131373,0.0524883v0.0656261
			c0.1600566,0.0278187,0.4504409-0.0997982,0.5250101-0.0525513h0.1049776
			c-0.00845,0.0226994-0.0025907,0.0128918-0.0131373,0.0262756c-0.0328751,0.0268917-0.1017704,0.0377483-0.1574659,0.0393505
			c-0.000432,0.0383034-0.0006785,0.0715485,0.0130754,0.0919037v0.0262737
			c0.1228027,0.0239944,0.556035,0.1022644,0.6956758,0.0656261c0.1713443-0.0450249,0.3685312-0.1171894,0.5643616-0.1312523
			v-0.078764c0.0827117,0.000246,0.2184668,0.0022202,0.2755814,0.0393524
			c0.0861654,0.0033913,0.0664282,0.0262737,0.1181769,0.0524864c0.0558805,0.0370083,0.205699,0.0286827,0.2887192,0.0262775
			v-0.0393524c0.17344-0.0022831,0.2497368-0.0561886,0.3937569-0.0656261
			c0.0037622,0.0375633,0.0078955,0.1162643,0.0262756,0.1443272c0.0043173,0.0131378,0.0086966,0.0262775,0.0130758,0.0394135
			c0.157712,0.0043812,0.3694563,0.0690823,0.4725208-0.0262756h0.0262756c-0.0038233,0.0519962-0.0194283,0.0862904,0,0.1181164
			c-0.0020351,0.1441422-0.0138159,0.3202362,0.0393515,0.4068947c0.1469193,0.0065384,0.2956886,0.0523052,0.4855976,0.0524902
			c0.1386538,0.3139439,0.2717571,0.4786263,0.7350264,0.4725189c0.0814161-0.0885696,0.1183014-0.1339035,0.2756433-0.1181126
			c0.0437307,0.0043793,0.0874605,0.0086956,0.1311913,0.0130749c0.0493431,0.0270767,0.0595808,0.1177464,0.1050386,0.1443901
			h0.0524883c0.0617418,0.0313339,0.1168823,0.1019554,0.1837425,0.1312523
			c0.1958914,0.0858593,0.5100212,0.1333504,0.7612391,0.078764h0.1968794
			c0.0525503-0.0181942,0.1070747-0.0916538,0.1575279-0.1181145c0.0856104-0.0450249,0.1458082-0.0543995,0.1968794-0.1312542
			c0.0177021-0.0136299-0.0052423-0.0203514-0.0131378-0.0524864c0.0295439-0.0077724,0.016222-0.0043793,0.0352802-0.0009861
			c0.0017271-0.000494,0.0035772-0.0027142,0.0056133-0.0040112c0.0066614-0.124651,0.1723919-0.2188358,0.1953363-0.3756237
			c0.0698204,0.0445328,0.0539074,0.2372169,0.0919018,0.3149948c0.0823412,0.1686287,0.2665758,0.2676849,0.3281307,0.459322
			h0.0130768c0.0259056,0.0074005-0.0262136,0.0131378-0.0262136,0.0131378
			c0.0862885,0.110096,0.2815018,0.1245918,0.4855976,0.1181145c0.0448399-0.0465679,0.1051006-0.064764,0.157527-0.1049767
			c0.0275097-0.0210953,0.0347261-0.0575485,0.0656271-0.078764c0,0-0.0029602-0.0515022-0.0131378-0.0262146
			c-0.0043793,0.0043793-0.0087585,0.0087585-0.0131378,0.0130749c0.0721035-0.1461163,0.174552-0.348793,0.1837416-0.538084
			c0.2071171,0.0094357,0.4833155,0.0429897,0.6694012,0.0262127c0.0216484,0.0756798-0.0022831,0.2520809,0.0130749,0.3937588
			c0.0713005,0.015049,0.5326586,0.0687084,0.5381489,0.0656261h0.1049776v0.0262737
			c-0.0226374-0.0084476-0.0128298-0.0025902-0.0262136-0.0131359h-0.078764
			c0.1100349,0.1623383,0.2232771,0.3442287,0.2756424,0.5643616c0.3096275,0.0820942,0.6956158,0.0721626,1.0237446,0.1443901
			h0.3149948c0.112812,0.0246086,0.3872814,0.0894947,0.5250111,0.0524883
			c0.1203346-0.0323811,0.1463623-0.1448841,0.2493668-0.1837425c0.0838852-0.0526733,0.2813168,0.0378723,0.4068356-0.0131359
			c0.0555706-0.0225754,0.1050377-0.0940609,0.157526-0.1181164c0.1485863-0.0680332,0.348362-0.1213837,0.459383-0.223093
			h0.0393524c-0.04669,0.1301441-0.0318871,0.4648132-0.0918388,0.5643616
			c-0.0029602,0.0585957,0.0077095,0.048851-0.0262756,0.0524902c0.0052433,0.0269527,0.0032692,0.0252876,0.0131378,0.0393505
			c0,0-0.0029602,0.0515022-0.0131378,0.0262756l-0.0131378-0.0131378c0.0059223,0.0391045,0.0066624,0.0442848,0.0262756,0.0656261
			v0.0131378c0.0143089-0.0223904,0.0069065-0.0404625,0.0131378-0.0524883v-0.0262756
			c0.0202904,0.0306549,0.0185661,0.0900517,0.0393505,0.1181145c0.0693264,0.0563126,0.4954052,0.1124401,0.5380859,0.0524883
			l0.0525513,0.0525513c0.1495705-0.0054283,0.4165173-0.1476593,0.5118713-0.2231541
			c0.0400925-0.0538464,0.0307789-0.2518349,0.0130768-0.2887192c-0.0014191-0.127676-0.0348492-0.5802746,0.0131378-0.6562634
			c0.1088638-0.0737667,0.3447227-0.031641,0.4856586-0.0131378c0.000309,0.0357742,0.000494,0.0601368,0.0130768,0.078764
			v0.0262127h0.0656242c0.000988,0.2774944,0.016346,0.5894051,0.144392,0.7481651
			c0.0722866,0.0896206,0.2254372,0.1301441,0.2887802,0.223093c0.0426826,0.062727,0.0335541,0.1653614,0.0787029,0.2231541
			c0.0845013,0.1051636,0.52211-0.000864,0.6037731-0.0656242c0.0381184-0.0305958,0.079874-0.1166973,0.1049786-0.1575298
			c0.0405827-0.0083885,0.0876446-0.0139389,0.1443901-0.0131378c0.0516262,0.0493431,0.1089859,0.063097,0.1443901,0.1312523
			c0.3075314-0.0251637,0.5634365-0.5397511,0.5643616-0.8924923c0.0927029-0.0375614,0.1373596-0.0891876,0.1837406-0.1706028
			c0.2462826,0.0012341,0.5045319,0.0305309,0.7218895,0.078764c0.0886326,0.0196743,0.1756001-0.0134468,0.2362289,0.0262127
			h0.0131397c-0.0012341,0.0724106,0.0043774,0.1168194,0.0262737,0.1575279
			c0.0868454,0.0024052,0.2256832,0.0077095,0.2755814,0.0524883c0.032444,0.0194912,0.0243626,0.016222,0.0262756,0.0656261
			c0.0481091,0.0131378,0.0962181,0.0262756,0.1443901,0.0393524c0.1195965,0.0062904,0.3091965,0.0437298,0.3149948-0.0787029
			c0.0385475,0.0133228,0.0563107,0.0410156,0.0918388,0.0524883c0.1046696,0.0338001,0.1857166-0.0103626,0.3018551-0.0131378
			c-0.0016041,0.3875904,0.0284367,0.967062,0.2625065,1.063097v0.0131378
			c-0.0375023-0.0047493-0.0566826-0.0085735-0.0787029-0.0262146h-0.0131359
			c0.0242996,0.1120701,0.1300182,0.0658741,0.2230911,0.1049786c0.1042385,0.0437927,0.1612282,0.1354465,0.2100163,0.2362289
			c0.0267677,0.0093136,0.079689,0.000494,0.1181164,0.0131378c0.047369,0.015604,0.1036186,0.0574856,0.1575279,0.078764
			c0.0563736-0.1011524,0.1014614-0.2391281,0.1968784-0.3018551c0.1972504-0.1297741,0.4648113,0.0016022,0.5118732,0.1837406
			c0.1616592-0.0474911,0.1838036-0.5465355,0.5512238-0.4462471c0.0369453,0.0100555,0.0990562,0.0423737,0.1312523,0.0656261
			c0.0745068,0.0537224,0.0756798,0.1496964,0.1312523,0.223093v0.1706657
			c0.0393505,0.0218353,0.078764,0.0437298,0.1181145,0.0656261c0.0585346,0.0429897,0.0626659,0.1095409,0.1049786,0.1706028
			c0.0465679,0.0671082,0.1482754,0.0869064,0.1968784,0.1574669h0.5250092c0.063715,0,0.1688175,0.0128307,0.2100182-0.0130768
			c0.0904827-0.0177021,0.1279202-0.1278591,0.1837406-0.1838017l0.1706028-0.1706047
			c0.0438538-0.0822792,0.032753-0.1905251,0.0524902-0.2625027c0.0571747-0.207798,0.1718369-0.4374275,0.1838036-0.682478
			c0.1054707-0.000246,0.1326694,0.0210934,0.1968155,0.0524883v0.0524883
			c0.1635723,0.0088825,0.3297977,0.0500221,0.4725227,0.0131378c0.0043793-0.0218964,0.0087585-0.0437298,0.0131359-0.0656261
			H29.66642c-0.0032082,0.3841362-0.0125198,0.7358284,0.1312523,0.9712563
			c0.0175171,0.0524883,0.0349731,0.1049786,0.0524902,0.1574669c0.0158501,0.0137539,0.3544064,0.0694504,0.4068928,0.0919018
			c0.0927677,0.0397205,0.1361256,0.1489544,0.2230949,0.1837425c0.0373764,0.0122719,0.0524254-0.0232544,0.0918999-0.0393524
			l0.1837425-0.0262756c0.0977612-0.0352173,0.190588-0.1394558,0.3018551-0.1706047
			c0.1194115-0.0334911,0.3061123,0.0251045,0.3937588-0.0394115c0.063591-0.0451508,0.1141052-0.2172337,0.1181145-0.3149948
			c0.1211376-0.0244236,0.1502495-0.1498184,0.2362919-0.2099552c0.001358-0.0332451,0.0016022-0.0486641,0.0130768-0.0656261
			c0.0033913-0.1350746-0.0452099-0.1166344-0.1443291-0.1443901c0.0027142-0.1166954,0.0278778-0.2092133,0.0393505-0.3149929
			h0.1049786c0.0017262,0.0674763,0.015419,0.1926231-0.0130768,0.2362289
			c0.0084496,0.0226383,0.0025272,0.0128288,0.0130768,0.0262756c0.0645161,0.0450268,0.4470482,0.0771008,0.5512848,0.0787659
			c0.0011711,0.0504513,0.0043793,0.077837,0.0262146,0.1049767c0.0305901,0.0695114,0.1091728,0.030407,0.1706657,0.0656261
			c0.1499405,0.0028992,0.1266251-0.0411415,0.1968803-0.1050396c0.1762123-0.0769749,0.5992699,0.1298943,0.8137245-0.0130768
			c0.1239777-0.0826492,0.2272873-0.3339291,0.2756462-0.4856586c0.0429268-0.1348915-0.0703773-0.1875648-0.0525513-0.2887192
			c0.0252266-0.143095-0.0218353-0.3532963,0.0131378-0.5118713c0.0461349-0.2089691,0.0257187-0.5216198,0.0262718-0.7218895
			v-0.380621l-0.013134-0.5906372c0-0.0693264,0.0156631-0.1904011-0.0131378-0.2362309V21.8701
			c0.0232506-0.0434837,0.1479073-0.0572376,0.1968765-0.0787621c0.1644974-0.0721664,0.3622437-0.1585789,0.5118752-0.2493687
			c0.0267677-0.1015244,0.0420036-0.2209949,0.0393486-0.3674831c-0.0533485,0.000679-0.1093559-0.0009861-0.1443291-0.0131378
			c0.0251694-0.0959091,0.1836815-0.1062107,0.2362328-0.1837406C34.7812004,20.7896729,34.6769638,20.4835606,34.5095062,20.426321
			z M5.5427704,19.3370113c-0.0371308-0.0107327-0.0531054-0.0091286-0.1049776-0.0131378V19.284462
			c0.0587802,0.0007401,0.0435452,0.0122108,0.0787644-0.0262127h0.0262132V19.3370113z M5.8446884,15.4651213H5.8184133v-0.0262136
			c0.0087585,0.0043182,0.0175171,0.0086966,0.0262752,0.0130758V15.4651213z M5.8578262,15.333869H5.8315511
			c-0.0105476-0.0342941-0.016283-0.031086-0.0262756-0.0656271l0.0525508,0.0131388V15.333869z M6.2777972,18.4970074v0.0393505
			c-0.0099301-0.0141239-0.008265-0.0121498-0.0131378-0.0393505H6.2777972z M6.2646594,18.5626335
			c0.0099306,0.0141258,0.008265,0.0120888,0.0131378,0.0393505H6.2121711
			C6.2363491,18.5826778,6.2473283,18.5928574,6.2646594,18.5626335z M6.1858959,18.5100842v0.0262737
			c-0.0043793-0.0043793-0.0086966-0.0087585-0.0130758-0.0131378c-0.0251036-0.0218353-0.0437922-0.0832672-0.0525503-0.1181145
			C6.1593738,18.427433,6.1584492,18.4778862,6.1858959,18.5100842z M6.1990337,18.5494957v0.0262146H6.1858959v-0.0262146
			H6.1990337z M5.989017,18.2082272c0.0231295,0.0355873,0.0062914,0.0746937,0,0.1181145H5.9759412
			C5.9756327,18.2795277,5.9788399,18.237648,5.989017,18.2082272z M5.989017,18.3394775h0.0525503
			c-0.0263367,0.0519962-0.024178,0.0816021-0.0525503,0.1312542H5.9759412
			C5.9756327,18.4022083,5.9800119,18.3689003,5.989017,18.3394775z M5.989017,18.5363579v0.0393524
			c-0.0099301-0.0140629-0.008203-0.0120888-0.0130758-0.0393524H5.989017z M6.067781,18.4970074v-0.0131397h0.0131378
			c-0.0043793,0.0437317-0.0087585,0.0875244-0.0131378,0.1312542c0.0218959-0.0043774,0.0437918-0.0087585,0.0656261-0.0131378
			l0.0131378,0.0131378v0.0131378c-0.0342321-0.0045013-0.0698824-0.0109787-0.1049776,0.0130768
			c-0.0304694-0.0029621-0.0370688-0.0025902-0.0525503-0.0130768c-0.0043173-0.0043793-0.0086966-0.0087585-0.0130758-0.0131378
			C6.0337958,18.5841579,6.0304031,18.5458584,6.067781,18.4970074z M5.989017,18.7069626H5.9759412
			c0.0043793-0.0086975,0.0087585-0.0174561,0.0130758-0.0262146c0.0800591,0.0011711,0.2206869,0.0091286,0.2756424-0.0262737
			h0.0394135C6.2323399,18.7100449,6.0487223,18.6783428,5.989017,18.7069626z M7.7871404,20.4657345h0.0524888
			c-0.0126443,0.0105476-0.0359588,0.0193672-0.0524888,0.0262127V20.4657345z M6.9865494,19.3370113
			c-0.0043793-0.1662865-0.0087585-0.3325729-0.0131378-0.4987965v-0.0524883c-0.0770984-0.0143719-0.1792388,0.0275078-0.2625051,0
			c-0.0196137-0.0064774-0.0183806-0.030901-0.0656266-0.0262146c-0.0304074,0.0029602-0.0766668,0.0182571-0.0918398,0.0130768
			c-0.0643311-0.0420036-0.0181952-0.2691669-0.0394125-0.3674831c-0.0140014-0.0650101,0.0061059-0.223587-0.0131378-0.3412704
			c-0.0179486-0.11022-0.0426817-0.4822655-0.0130758-0.6299877c0.0210323-0.1050377-0.0595818-0.2736683,0-0.3674812
			c0.0043793-0.0043793,0.0087585-0.0087585,0.0130758-0.0131378c0.1540122,0.3693943,0.2187753,0.7661133,0.3544068,1.1549988
			c0.0618639,0.1773891,0.1724539,0.3940659,0.1968789,0.5906372c0.1068892,0.0222664,0.0965886,0.1809044,0.1312528,0.2756424
			c0.0764818,0.2090282,0.1467953,0.4476032,0.2230926,0.6562004c0.0281873,0.0769768,0.0245476,0.1607971,0.0656257,0.2231541
			c-0.0074015,0.079813-0.0620484,0.0817852-0.1312523,0.0918407c0.0083265,0.0373764,0.0188737,0.079258,0.0394125,0.1050377
			c-0.0106082,0.0530453-0.0275083,0.0574856-0.0656261,0.078764v0.0787048
			c-0.0509467,0.0056114-0.1228023,0.014431-0.1575279,0.0394115c-0.0300374,0.0135059-0.0284338,0.0225124-0.0524888,0.0393505
			c-0.0012331,0.0856094,0.0015421,0.175169,0.0393515,0.2231541c-0.0014186,0.0373783-0.0052428,0.0560646-0.0130758,0.0787029
			L7.091527,20.7019634C7.0565543,20.2470207,7.0215211,19.791954,6.9865494,19.3370113z M7.393383,22.3819733
			c-0.0269542-0.0052433-0.0252886-0.0032692-0.039351-0.0131378c-0.0534139,0.000679-0.1093569-0.0009861-0.1443906-0.0131378
			v-0.0393505c0.0696974-0.0154209,0.0942454-0.0185661,0.1706653-0.0131378
			c0.0043793,0.0043793,0.0087585,0.0087585,0.0130763,0.0131378V22.3819733z M8.3646393,21.2794628
			C8.217659,21.3076515,8.0887499,21.266943,7.9183936,21.266325v0.0525513c-0.1374207,0.0120277-0.459631,0.0840073-0.5905752,0
			H7.3015432v-0.1181774c-0.0269542-0.0051785-0.0252886-0.0032082-0.0393515-0.0130749
			c-0.0534134,0.0006161-0.1094184-0.001049-0.1443901-0.0131378c0.0016656-0.0647011,0.0140014-0.1817684-0.0131378-0.2231541
			v-0.0131359c0.2771235-0.0600777,0.952137-0.1801643,1.1156473-0.3280716
			c0.0209093-0.0078335,0.0148029-0.0045643,0.0241785-0.0121498c-0.0017271-0.0012341-0.0053043-0.0014191-0.0071545-0.0025291
			c-0.0231295-0.0038853-0.0463829-0.0077114-0.0695734-0.0115967v-0.0131378
			c0.0360193,0.0021591,0.0518713,0.0137539,0.0695734,0.0247345c0.0030842,0.000494,0.0061054,0.001049,0.0091896,0.001543
			c-0.0010481,0.0008011-0.0012331,0.00037-0.0020351,0.0009861c0.0263987,0.0183163,0.046814,0.0412006,0.0807991,0.06464
			c-0.000617,0.1017685-0.000123,0.4358215,0.0393505,0.4987335V21.2794628z M8.9684143,20.9776077
			c-0.0354033,0.0091896-0.0568066,0.0181332-0.078764,0.0393505c-0.0735836-0.04669-0.0416336-0.3218384-0.0918407-0.4068336
			V20.583849c0.0611868,0.0043793,0.1224947,0.0087585,0.1837425,0.0131397
			c0.0020962,0.1337795,0.0532904,0.1675797,0.0918388,0.2493649C9.0218897,20.8844719,8.9730406,20.88694,8.9684143,20.9776077z
			 M12.5383863,23.6682224h-0.0131378v-0.0262737h0.0131378V23.6682224z M12.6565018,20.3344822
			c-0.1028194,0.0030842-0.1951523,0.0064125-0.1968794-0.0262737h0.1837416l0.0131378,0.0131359V20.3344822z
			 M14.1659069,21.5944576c-0.0581017,0.0009251-0.0898666-0.000124-0.1181774-0.0262146
			c-0.0213404-0.015234,0.0028372-0.0167751,0.0131378-0.0394115c0.0194283,0.0147419-0.0050583,0.016098,0.0262747,0.0394115
			c0.0202312,0.0102406,0.032196-0.0009232,0.0524893-0.0262737h0.0262756V21.5944576z M14.2183952,21.4369926h-0.0262756
			l-0.0131378-0.0131397v-0.0524864l0.0394135,0.0131359V21.4369926z M14.1264944,21.3188763
			c-0.0585337,0.0012951-0.0614328-0.0047493-0.0787649,0.0393505c-0.0226364-0.0084496-0.0128288-0.0025883-0.0262127-0.0131378
			H14.008378c0.017271-0.0197964,0.0246105-0.0281239,0.0524893-0.0393505
			c0.0112257-0.0086975,0.0412016-0.0177631,0.0524883-0.0262756c0.0350342,0.0131397,0.0700064,0.0262756,0.1050396,0.0394135
			C14.19946,21.3533554,14.1467237,21.3672943,14.1264944,21.3188763z M15.3996067,23.9700813
			c-0.0099306-0.0141239-0.0082026-0.0121498-0.0131369-0.0393524h0.0131369V23.9700813z M15.5964861,21.8176117
			c-0.0220203,0.0521183-0.079875,0.0571766-0.1181154,0.0918388H15.452095
			c0.0017891-0.0813541,0.0224524-0.2468987-0.0130758-0.3018551c-0.0047483-0.049221-0.0101767-0.0487881-0.0262747-0.078764
			c-0.0782709-0.0194302-0.4728298-0.1034985-0.5512238-0.0524883c-0.0803061,0.0281849-0.0981922,0.1516056-0.1050386,0.2493668
			c-0.0403385-0.0141239-0.0473709-0.0320721-0.0787029-0.0524883c-0.0016031-0.1376667-0.0119658-0.349287,0.0130758-0.4068966
			c0.0101147-0.1138592,0.1938572-0.1750431,0.2625055-0.2755814c0.0595818,0.0144958,0.0484171,0.0473709,0.0919018,0.0656281
			c0.157465,0.0130749,0.3149939,0.0262146,0.4724588,0.0393505c0.0228834,0.064579,0.0207872,0.0991192,0.0919027,0.1181145
			C15.611104,21.3334332,15.6416349,21.7463093,15.5964861,21.8176117z M17.8671322,20.505085
			c0.0226345,0.0085125,0.0128288,0.0025902,0.0262127,0.0131397h0.0131378v0.0262737h-0.0524902L17.8671322,20.505085z
			 M17.8802071,21.5551052c-0.0447159-0.0027752-0.0669823-0.0062885-0.0918388-0.0262737h-0.0131397
			c0.0101166-0.0090065,0.0292377-0.017271,0.0393524-0.0262127h0.0656261
			C17.8759518,21.5435104,17.8757668,21.5233421,17.8802071,21.5551052z M17.7752285,21.791338v-0.0262146h0.078764v0.0393505
			c-0.0363274,0.0063515-0.0379314,0.015852-0.0656242,0h-0.0262756L17.7752285,21.791338z M17.6046257,20.7413788
			c0.0273228-0.0054283,0.0719166-0.0124607,0.0918388-0.0262775c0.0175171,0.0087605,0.0350342,0.0175171,0.0524902,0.0262775
			c-0.0043182,0.0086956-0.0086956,0.0174541-0.0130749,0.0262127h-0.1312542V20.7413788z M17.7227421,20.9776077v0.0393505
			l-0.0131397,0.0131378c-0.0382385,0.000433-0.0715466,0.000679-0.0918388-0.0131378l-0.0131378-0.0131378
			C17.6412029,20.9869823,17.6622944,20.9774837,17.7227421,20.9776077z M17.5389996,21.3057384
			c0.0174561-0.0175152,0.0349731-0.0350323,0.0524902-0.0524883h0.1181126
			c0.0043793,0.0043182,0.0087605,0.0086956,0.0131397,0.0130749c-0.0252285,0.0383034-0.1102219,0.0249825-0.1443901,0.0525513
			h-0.0393524V21.3057384z M17.6964645,21.5156937v0.0394115h-0.1443272v-0.0262737
			C17.5926609,21.520443,17.6397839,21.5148926,17.6964645,21.5156937z M17.4865112,21.0300961h0.0262146v0.0262756h-0.0262146
			V21.0300961z M17.6308384,22.2900715v0.0394115c-0.0666752-0.0020962-0.1244659-0.0039444-0.157465,0.0262146
			c-0.0304699-0.0029602-0.0370083-0.0025902-0.0524883-0.0130749h-0.0131378
			C17.4577065,22.3080215,17.5566406,22.2890854,17.6308384,22.2900715z M17.6308384,22.5657158
			c-0.0278778,0.0115948-0.0584087,0.0205994-0.078701,0.0393486h-0.0394115
			c-0.0043812-0.0130749-0.0087605-0.0262127-0.0131397-0.0393486c0.0172081-0.0067253,0.0516872-0.016037,0.0656261-0.0262775
			c0.0270176,0.0052433,0.0252895,0.0032692,0.0394135,0.0131397C17.627264,22.5610886,17.6174545,22.5551662,17.6308384,22.5657158
			z M17.355257,22.1326065v0.0131378c-0.0330601-0.0214653-0.0136909-0.0024681,0-0.0394135
			C17.3636475,22.1258831,17.3715401,22.1120052,17.355257,22.1326065z M17.3814716,23.0907249
			c0.0226974-0.0084496,0.0128918-0.0025921,0.0262756-0.0131378h0.0393524l0.0131359,0.0131378v0.0131359h-0.078764V23.0907249z
			 M17.5127258,23.5238323h-0.0524902c0.0120277-0.0283089,0.0114098-0.0190563,0.0262756-0.0393486
			c0.0357742,0.0003071,0.0601368,0.0004921,0.078701,0.0130749h0.0262775
			C17.5726147,23.5319138,17.5379505,23.536108,17.5127258,23.5238323z M17.5258617,23.3400936h-0.1181145v-0.0131378
			c0.0429268-0.0105476,0.0972061-0.0281277,0.1312523-0.0524883c0.0269527,0.0052433,0.0252876,0.0032692,0.0393524,0.0131359
			h0.0262737C17.5857525,23.3192444,17.5517673,23.3177643,17.5258617,23.3400936z M17.6308384,23.0775871h-0.1706028v-0.0131378
			c0.016346-0.0087585,0.0271378-0.014246,0.0393505-0.0262146c0.0407715-0.0008602,0.0828342-0.0019093,0.1050396,0.0130787
			h0.0262127V23.0775871z M17.6439762,22.8413582c-0.0484791,0.0014801-0.1161404,0.0057354-0.1443901-0.0131397
			c-0.0043774-0.0043774-0.0086956-0.0087566-0.0130749-0.0131359c0.0407085-0.0187511,0.0758038-0.0277557,0.1443272-0.0262146
			c0.0052433,0.0269547,0.0032692,0.0252876,0.0131378,0.0393505V22.8413582z M17.5652122,22.0931931
			c-0.0135078-0.0105457-0.0032063-0.0048122-0.0262127-0.0130749v-0.0394154
			c0.0269527-0.0052414,0.0252876-0.0032692,0.0393524-0.0131359c0.0534115,0.0030842,0.0505753,0.0064774,0.078764,0.0262737
			C17.6352806,22.0709267,17.5935249,22.0857296,17.5652122,22.0931931z M17.6702518,21.8176117
			c-0.0484791,0.0014801-0.1161404,0.0057373-0.1443901-0.0131378h-0.0131359V21.791338
			c0.0524864-0.0043812,0.1050377-0.0087605,0.157526-0.0131397V21.8176117z M17.7096024,23.0250988h0.0919037v0.0131359
			c-0.016531,0.0072174-0.0396614,0.015728-0.0525513,0.0262146h-0.0524902
			C17.7008457,23.0513134,17.705225,23.0382347,17.7096024,23.0250988z M17.7227421,23.2613297h0.0918388
			c-0.0043182,0.0131378-0.0086975,0.0262737-0.0130749,0.0394115c-0.0262775,0.0043182-0.0525513,0.0086975-0.078764,0.0130749
			v-0.0130749C17.7106514,23.2755775,17.7174988,23.2910576,17.7227421,23.2613297z M17.8277187,23.4975586
			c-0.0185051,0.0067234-0.0631599,0.015604-0.078764,0.0262737h-0.0262127
			c0.0168381,0.0115356,0.0323811,0.0121536,0.0656261,0.0131397c-0.0043793,0.0131378-0.0087585,0.0262127-0.0131397,0.0393505
			c-0.046751-0.0043182-0.0437298-0.000803-0.0656261-0.0262127c-0.0176373-0.0247345-0.0061665-0.0412025,0.0131397-0.078764
			h0.0918388l0.0131378,0.0131378V23.4975586z M17.7752285,22.8282185
			c-0.0653172-0.0062904-0.0528564-0.0081406-0.0393486-0.0524864c0.0269527,0.0052414,0.0252857,0.0032692,0.0393486,0.0131359
			h0.0524902C17.8104477,22.8188438,17.7995319,22.8092232,17.7752285,22.8282185z M17.7096024,22.5788517
			c0.0120296-0.0283089,0.0114117-0.0191193,0.0262775-0.0394135h0.078701
			c-0.0043182,0.0131397-0.0086975,0.0262775-0.0130749,0.0394135H17.7096024z M17.8408546,22.3163471h-0.1181126v-0.0262756
			h0.1181126V22.3163471z M17.7489548,22.0669804v-0.0394135c0.0432968-0.0011101,0.094059-0.0030842,0.1181774,0.0131359
			c0.0226345,0.0085144,0.0128288,0.0025921,0.0262127,0.0131378
			C17.8443108,22.0698776,17.8103867,22.0652523,17.7489548,22.0669804z M17.8671322,21.2926025h-0.0525513
			c-0.0042572-0.0408955-0.0044422-0.0207253,0-0.0524902h0.0919018l0.0131359,0.0131378
			C17.9013634,21.2692871,17.8830452,21.2732353,17.8671322,21.2926025z M17.9458332,21.0038204
			c-0.0393505,0.0043793-0.078701,0.0087585-0.1181145,0.0131378v-0.0393505h0.1050396
			c0.0043774,0.0043793,0.0086956,0.0087585,0.0130749,0.0131359V21.0038204z M17.9458332,20.728241
			c-0.0396595,0.0081406-0.0697594,0.0136929-0.0918407,0.0393505c-0.0226345-0.0084496-0.0128288-0.0025921-0.0262737-0.0131378
			c-0.0126438-0.0210953-0.0007401-0.0012341,0-0.0393524h0.1181145V20.728241z M18.1296349,21.266325
			c0.0226383,0.0085125,0.0128307,0.0025921,0.0262146,0.0131378h0.0131378l-0.0131378,0.0262756h0.0131378
			c-0.0123348,0.0542774-0.0013561,0.0226364-0.0393524,0.0393505
			C18.1081104,21.2943268,18.1103325,21.3114738,18.1296349,21.266325z M18.1427135,22.3032093
			c0,0-0.0129547,0.0021591-0.0130787-0.0393524h0.0130787V22.3032093z M18.1558495,22.0801182
			c-0.0226364-0.0085144-0.0128288-0.0025921-0.0262146-0.0131378c-0.0106068-0.0135098-0.0048714-0.0032692-0.0131359-0.0262775
			c0.0119648-0.0122108,0.0177021-0.0228806,0.0262146-0.0393486h0.0131359V22.0801182z M18.1296349,21.568243v-0.0656242
			c0.0394154,0.0175762,0.0266476,0.0292358,0.0787048,0.0393505C18.1886635,21.5747204,18.18083,21.5686131,18.1296349,21.568243z
			 M18.2871037,21.8176117l-0.0131397,0.0131378h-0.0131378c0.0088215-0.048048,0.0217743-0.0561275,0.0394135-0.0919018
			C18.3123913,21.7637653,18.3003635,21.7847977,18.2871037,21.8176117z M18.3264542,21.712574h-0.0262146
			c-0.0114708-0.048233-0.0223885-0.0650711-0.0131359-0.1049786c0.0131359,0.0087585,0.0262737,0.0175171,0.0393505,0.0262737
			V21.712574z M18.8908768,24.9281998c0.030962,0.0115337,0.0216503,0.0049343,0.0393524,0.0262756
			C18.9138832,24.9456539,18.9030895,24.9401665,18.8908768,24.9281998z M19.0352039,22.7625942h-0.0262127v-0.0262756h0.0262127
			V22.7625942z M19.5340023,24.6919689h-0.0131378l-0.0131378-0.0131359
			c0.0025921-0.0341091,0.0057983-0.0445938,0.0131378-0.0656261h0.0131378V24.6919689z M19.8227215,21.9225903
			c-0.0538464,0.0366974-0.5723801-0.1104069-0.6693401-0.0262775c-0.1138592,0.0664902-0.0489731,0.3577385-0.1312523,0.4593849
			c-0.0135078,0.0106087-0.0032692,0.0048714-0.0262737,0.0131378c-0.0252285-0.0372543-0.0169621-0.110281-0.0393524-0.157465
			c-0.0527973-0.1110229-0.159193-0.1625862-0.1575279-0.3281326c0.0507011-0.0014191,0.0666752-0.0030231,0.0919018-0.0262737
			c0.0130749-0.0043812,0.0262146-0.0087605,0.0393524-0.0131397c-0.001358-0.0332451-0.0016041-0.0486031-0.0131378-0.0656261
			c-0.0141239-0.0099297-0.0120907-0.0082035-0.0393524-0.0130749c0.0058613-0.2352428,0.1304512-0.2717571,0.1706047-0.4462471
			c0.1217537-0.0035152,0.1399498,0.0372543,0.1837406,0.1049767c0.0838223-0.001049,0.2548561-0.0122128,0.3149948,0.0262146
			c0.3145618-0.0033302,0.1207047,0.1014633,0.301918,0.1575279C19.8497372,21.6878395,19.8602829,21.8638096,19.8227215,21.9225903
			z M24.4164391,21.4238529l0.0262756,0.0131397v0.0130749h-0.0262756V21.4238529z M24.0620937,21.3975792
			c0.0849323,0.0170231,0.2098312,0.0144329,0.3149948,0.0131359v0.0393524
			c-0.1332264-0.0009251-0.1892319-0.0263386-0.3149948-0.0262146V21.3975792z M22.5002003,21.3057384v0.0131378
			c-0.030962-0.0115337-0.0216503-0.0049953-0.0393524-0.0262737
			C22.4739857,21.2969799,22.4870644,21.3013592,22.5002003,21.3057384z M22.1983433,23.3794422h-0.0131378v-0.0262127h0.0131378
			V23.3794422z M23.5239449,23.1038609c-0.0408916-0.0079556-0.0318871-0.0022793-0.0524864-0.0262737h0.0524864V23.1038609z
			 M24.573967,22.3163471v0.0918388c-0.0143108,0.0239944-0.1089878,0.0313339-0.1312523,0.0525513
			c-0.0087585,0.030592-0.0175171,0.0612469-0.0262756,0.0918407c-0.0268917,0.0371284-0.095047,0.0621109-0.1312523,0.0918999
			c-0.0099297,0.0141258-0.0082035,0.0120888-0.0131378,0.0393505h-0.0393505
			c-0.0123367,0.0284977-0.0261536,0.0543404-0.0393524,0.0787659c-0.0363293,0.0063515-0.0379333,0.015852-0.0656261,0
			c-0.2012577-0.0075264-0.1190414,0.0337372-0.1837425,0.1443901c-0.0441608,0.0195503-0.3429317-0.0224514-0.4200325-0.0394135
			c-0.1312504-0.0087566-0.2625027-0.0174561-0.3937569-0.0262127c-0.2161846-0.0482941-0.4896069-0.0876465-0.7349663-0.0919037
			l-0.0131359-0.0131359c0.0043793-0.0743237,0.0087585-0.1487083,0.0131359-0.223093l0.1574688-0.0131378v-0.0656261
			c-0.1416779-0.0126438-0.2337036-0.0548935-0.4068356-0.0524883c0.000555,0.1052246,0.0580406,0.094244,0.1312542,0.1181145
			l-0.0262775,0.2231541c-0.0927029,0.001543-0.2289524,0.0127068-0.2887173-0.0262737
			c-0.0124588-0.0221443,0.0033913-0.1261959,0.0262127-0.1575298c0.0063534-0.1321754,0.1247768-0.1689377,0.1837406-0.2493668
			c0.1027584-0.1401348,0.2090912-0.2695999,0.3149967-0.4068336c0.0705585-0.0914078,0.1860218-0.173811,0.2231522-0.2625046
			c0.4053535,0.0035763,0.7807312,0.0685253,1.1681347,0.0918407c0.0029621,0.030468,0.0025921,0.0370674,0.0130787,0.0525494
			c0.0121498,0.0354023,0.0225735,0.0384254,0.0394115,0.0656261c0.1837406,0.0130749,0.3674812,0.0262146,0.5512238,0.0393505
			c0.0052433,0.0269547,0.0032692,0.0252876,0.0131378,0.0393505c0.0063534,0.0782719,0.0387344,0.0906086,0.0919018,0.1181164
			C24.5916672,22.1034317,24.6180058,22.2486229,24.573967,22.3163471z M25.6502018,21.5551052
			c-0.1635113-0.0414467-0.2807007-0.0246086-0.4331093-0.0394115v-0.0262146
			c0.0717316,0.0127697,0.284956-0.0248547,0.3674831,0.0262146c0.0485401,0.0058594,0.0386086,0.0073395,0.0656261,0.0262756
			V21.5551052z M25.6764145,21.5288315c-0.0043182,0.0043793-0.0086956,0.0087566-0.0130749,0.0131378v-0.0262756
			c0.0226364,0.0085106,0.0128288,0.0025921,0.0262127,0.0131378H25.6764145z M26.6870861,25.2563305h-0.0131397
			c0.0043793-0.0175171,0.0087585-0.0350342,0.0131397-0.0524883h0.0262127
			C26.7035542,25.2342491,26.699667,25.2331409,26.6870861,25.2563305z M26.7264347,25.2300568v-0.0262146
			c0.0225754,0.0079575,0.0412655,0.0122128,0.078764,0.0131397C26.7867565,25.2295628,26.7621479,25.2301807,26.7264347,25.2300568
			z M27.159544,25.4137974h-0.0131378v-0.0262127h0.0131378V25.4137974z M27.0808411,25.2563305h0.0393524
			c0.0173321,0.031889-0.0061684,0.0092545,0.0262127,0.0262775v0.0655632
			C27.1221676,25.3175774,27.1040344,25.2847652,27.0808411,25.2563305z M27.1464062,24.8625736h-0.0655651V24.836359
			c0.0043182-0.0043793,0.0086994-0.0087566,0.0130768-0.0131359c0.0476151,0.0024662,0.1606731,0.0028992,0.1968784,0.0262127
			c0.0099945,0.0141239,0.0082664,0.0121517,0.0131378,0.0394135
			C27.2433033,24.8893433,27.1822433,24.8877392,27.1464062,24.8625736z M28.6951618,25.6369534v0.0131359h-0.0131359
			c0.0112858-0.0244255,0.0187492-0.0347252,0.0262737-0.0656261C28.7199593,25.6098118,28.715826,25.6121559,28.6951618,25.6369534
			z M29.6401463,22.8282185c-0.0211582,0.0154839-0.1195965,0.0610027-0.1443291,0.0656261
			c-0.0051193,0.0504551-0.0125847,0.1144772-0.0394135,0.1443901c-0.0223293,0.0508251-0.0576687,0.0373173-0.0787029,0.0918427
			h-0.0525513v0.0918999c-0.0313931,0.0117798-0.0693264,0.0191212-0.0918388,0.0393524
			c-0.0215263,0.0305309-0.0262737,0.0954781-0.0262737,0.1443901l-0.0131397,0.0131378l-0.1443272-0.0131378
			c0.0196133-0.1017704-0.0035172-0.2534409-0.0262756-0.3544064c-0.0451488-0.2001495-0.047739-0.3687191-0.1443901-0.5118752
			c-0.2126694-0.3150539-0.8346367-0.3601418-1.1549988-0.1443272c-0.1058407,0.0713005-0.1612911,0.2231522-0.223093,0.3412075
			c-0.0502682,0.0960331-0.2074871,0.3790169-0.1706028,0.4987965l-0.2231522-0.0262756
			c-0.0029621-0.030407-0.0025921-0.0370064-0.0131397-0.0524883c-0.0014191-0.0373783-0.0052414-0.0561275-0.0130768-0.078764
			c-0.0333061-0.0013561-0.0486641-0.0016041-0.0656261-0.0131378c-0.0869045,0.0171471-0.1100349,0.079258-0.1838017,0.1050396
			c-0.0515022,0.0307159-0.1570969-0.0102997-0.2362309-0.0131378l-0.0131378-0.0131378
			c0.001358-0.0510082,0.0072803-0.1158333,0.0131378-0.1312523c-0.00037-0.0382423-0.0006161-0.0715466,0.0131378-0.0919018
			c0.0303478-0.0190582,0.1137352-0.0076485,0.1443901-0.0262146h0.0262146
			c-0.0029621-0.030468-0.0025921-0.0370045-0.0131378-0.0524864c-0.0324421-0.0249805-0.0919018-0.0374393-0.1443291-0.0394135
			c0.0174561-0.1298962,0.1240368-0.2331448,0.1837406-0.3281326c0.0663662-0.1055317,0.1054096-0.2088451,0.1706047-0.3149929
			c0.0365124-0.0593967,0.0922089-0.0987473,0.1050377-0.1837425c0.3182011,0.001358,0.6864872,0.0040092,0.9711971,0.0656261
			c0.1917591,0.0415115,0.4021454,0.0014191,0.5774975,0.0394154c0.1548157,0.0334911,0.3780308-0.0344181,0.4987354,0.0393486
			c0.015049,0.0219593,0.0217113,0.0896206,0.0262756,0.1181164c0.205637,0.0175171,0.411274,0.0350342,0.6168518,0.0524883
			c0.0038223,0.0993652,0.0372524,0.0971451,0.0525494,0.1443901
			C29.8448563,22.4993477,29.6729584,22.7869568,29.6401463,22.8282185z M32.7639351,15.4519835h0.013073
			c-0.0165291,0.0380564-0.0182571,0.0122747-0.0393524-0.0130758
			C32.7602959,15.4473581,32.7504845,15.4414368,32.7639351,15.4519835z M32.4620132,23.5501099
			c-0.0043793,0.0043793-0.0087585,0.0086956-0.0130768,0.0130749c-0.0648232-0.000864-0.2047119-0.0134449-0.2231522-0.0262127
			c-0.1416168-0.0063534-0.1950264,0.0297298-0.2230949,0.1312504l-0.4463062-0.0394115
			c-0.0043182-0.0043793-0.0086956-0.0086975-0.0130749-0.0130749c0.0069065-0.1756611,0.0416317-0.2955666,0.0524883-0.4593849
			c0.0631599-0.0017281,0.1845417-0.0183811,0.223093-0.0524902c0.0736427-0.0014782,0.079071-0.0022793,0.078764,0.0393524
			c0.1459332,0.0078945,0.4296551,0.0510712,0.5381489-0.0262737c0.0302849,0.0043163,0.0325661,0.0061054,0.0524864,0.0131378
			C32.4741058,23.249239,32.47472,23.4308224,32.4620132,23.5501099z M32.7507935,22.5788517
			c-0.063343,0.1017094-0.1595001,0.2043419-0.1968765,0.3281326c-0.0817871-0.0196133-0.0998001-0.1014614-0.1575279-0.1443901
			c-0.095295-0.0708084-0.2406731-0.1026955-0.3281326-0.1837425h-0.0130768
			c0.001606-0.0907288-0.0089417-0.1221237-0.0394096-0.1706657h-0.0393543
			c0.0349712-0.1049767,0.0700054-0.2099552,0.1049786-0.3149929c0.0310249-0.0352192,0.0832672-0.0146179,0.1050377-0.0656261
			c0.0577927-0.1355705-0.0204163-0.2387581-0.0131378-0.3280716c0.0056114-0.0690784,0.0592728-0.2166138,0.0131378-0.2887802
			c-0.0043793-0.0131359-0.0087547-0.0262737-0.0131378-0.0393486h-0.0918999
			c0.0060425-0.1928082,0.0292969-0.3634129,0.0656242-0.525013v-0.2493649
			c0.0077744-0.0264015,0.0248604-0.0405865,0.0262756-0.0919037V20.34762
			c0.0289268-0.0842552,0.1997795-0.2650356,0.1312561-0.3937588c-0.0046883-0.0838814-0.0323219-0.0825253-0.0656281-0.1312523
			c-0.1049767-0.0131378-0.2100182-0.0262756-0.3149948-0.0393505c0.0099316-0.2946415,0.1223106-0.7064705,0.1968803-0.9712582
			c0.030777-0.1094799,0.0217094-0.1941032,0.0524864-0.3019161c0.1131821-0.3966579,0.1715927-0.8113251,0.3018608-1.2074871
			c0.0581627-0.1768951,0.1737442-0.4497643,0.1837387-0.6431274h0.013134
			c0.0156059,0.0452118-0.0032654,0.1245937,0.0131416,0.1838036c0.0714226,0.2580643,0.0444717,0.556591,0.1049767,0.8399429
			c0.0590248,0.2763214,0.0587807,0.7007351,0.1312523,1.0106697c0.031456,0.1345215-0.0087585,0.2324066,0.0262756,0.3674831
			c0.0486641,0.1876888,0.0286789,0.4096088,0.0787048,0.6168518c0.014801,0.0611839,0.0534744,0.2068081,0.0525475,0.2625027
			c-0.0024681,0.1397038,0.0136909,0.3682842,0.0524864,0.5118752c0.0304718,0.1128101-0.0195503,0.2298126,0,0.3281288
			c0.0014801,0.0075874,0.0284348,0.0833912,0.0262146,0.0919037c-0.0106049,0.0410767-0.0774651,0.0857315-0.0918388,0.1311893
			c-0.0215263,0.0682793,0.0125198,0.2401161,0.0262108,0.301918c0.0419426,0.1891079-0.0309601,0.4107189,0.0919075,0.5118732
			c-0.0207291,0.1017094-0.096714,0.1725769-0.1443939,0.2493687C32.93367,22.2374592,32.8566971,22.408741,32.7507935,22.5788517z
			 M33.1970406,23.6288109c-0.1181145-0.0086975-0.23629-0.0174541-0.3544083-0.0262127
			c-0.0043793-0.0043793-0.0087585-0.0087585-0.013073-0.0131378c-0.0005531-0.2908783,0.1424141-0.3994942,0.2624397-0.5906372
			c0.0351601-0.0558815,0.0474358-0.1129341,0.0919075-0.157465c0.014122-0.0099926,0.012146-0.0082664,0.0393448-0.0131397
			c0.0017891,0.1094208,0.0367012,0.3552094-0.013073,0.4331112C33.2112274,23.3754978,33.2277565,23.5377121,33.1970406,23.6288109
			z M33.4201317,20.5182247c-0.0269508-0.0052433-0.0252876-0.0032692-0.0393486-0.0131397
			c0,0-0.0515022-0.0029583-0.0262756-0.0131378c0.0043793-0.0043182,0.0087585-0.0086956,0.0131378-0.0130749h0.0656281
			C33.4288902,20.4919472,33.424511,20.505085,33.4201317,20.5182247z M5.5165572,19.2975979l0.0131373-0.0131359H5.5034194
			C5.4910221,19.2982769,5.5074902,19.2993259,5.5165572,19.2975979z M12.5868044,23.6147499
			c-0.0117807,0.0036392-0.0188732-0.000803-0.0090675,0.0271988c0.0183191,0.0095596,0.016592,0.0042572,0.0394135-0.0131378
			c0.0226364-0.0084496,0.0128288-0.0025291,0.0262136-0.0130749c-0.0130758-0.0043793-0.0262136-0.0087585-0.0393515-0.0131378
			c-0.0051193,0.0084496-0.0074015,0.0053654-0.0115948,0.0081406c-0.000062,0.0017281-0.0015421,0.0032692-0.0015421,0.0049973
			C12.5874825,23.615366,12.5890245,23.615181,12.5868044,23.6147499z M21.6996078,25.3481712h0.0262146v-0.0262146h-0.0262146
			V25.3481712z"/>
	</g>
</g>
<g>
	<g>
		<path fill="#FFFFFF" d="M34.0042915,19.9211102c-0.1216888-0.0415707-0.3515053,0.0378094-0.4593849-0.0262146
			c-0.1005936,0-0.201252,0-0.3018532,0c-0.0437317-0.3980732-0.0875206-0.7962742-0.1312523-1.1943493
			c-0.0651932-0.2808228-0.049099-0.586998-0.1181145-0.8794155c-0.1511765-0.6405983-0.1645584-1.3368282-0.3149948-1.9687281
			c0-0.0349722,0-0.0700054,0-0.1049776c-0.0320129-0.126503-0.0919647-0.3058033-0.0787621-0.459384
			c0.0048714-0.0567446,0.0355263-0.0572996,0.0524864-0.0919018c0.0595207-0.1211367,0.0020981-0.2710161-0.078701-0.3280687
			c0.0032654-0.1289711,0.0851784-0.4021463,0.1443291-0.4856596c-0.031456-0.1571589-0.3253593-0.1097889-0.4462471-0.1837416
			c-0.0086975,0-0.0174561,0-0.0262146,0c0.0094986-0.080121,0.0249825-0.2047119,0.0656281-0.2625055
			c0-0.0349722,0-0.0700054,0-0.1049776c-0.3101234-0.0778999-0.8311844-0.0262756-1.1944122-0.0262756
			c-0.2447433,0-0.4044914-0.0173302-0.5512257,0.0787649c-0.0285568,0.1068268-0.062294,0.5857639,0.0262775,0.682476
			c0.0413227,0.1194715,0.1826286,0.126441,0.3018551,0.1706657c0.1856537,0.0687714,0.4147892,0.1158953,0.6168518,0.1706038
			c0.1052227,0.0284948,0.2338848,0.0124588,0.3149929,0.0656261c0.0172691,0.0286188-0.0276318,0.0859804-0.0130768,0.1443901
			c0.0089455,0.0358973,0.0571156,0.0808611,0.0656261,0.1049776c0.0216503,0.0618019-0.0609989,0.204958-0.0787621,0.2493677
			c-0.0175171,0.078764-0.0350342,0.157527-0.0524902,0.2362299c-0.0434208,0.1327324-0.1011524,0.30124-0.1443901,0.4331713
			c-0.0478001,0.1457481-0.0496521,0.2718182-0.0918999,0.4199715c-0.0698223,0.2451725-0.1360035,0.5303154-0.2099552,0.7743778
			c-0.0615559,0.2029839-0.0622959,0.3856163-0.1181774,0.5906353c-0.0719776,0.2641716-0.1075058,0.5456734-0.1837406,0.8268681
			c-0.0386124,0.142477-0.0897446,0.315794-0.1049786,0.4724598c-0.0043793,0.0043793-0.0087566,0.0087585-0.0131378,0.0131378
			c-0.2242641-0.0032082-0.6021709-0.0675392-0.76124,0.0394115c-0.1262569,0.0848083-0.1693077,0.2738552-0.2756424,0.380621
			c-0.0728416,0.0441628-0.1717129,0.03269-0.2362289,0.0787029c-0.1699276,0.1213207-0.2877941,0.3777199-0.4068966,0.5512848
			c-0.0432358,0.063036-0.1950283,0.2405472-0.1049786,0.380621c0.0200462,0.0583477,0.0698204,0.0767879,0.1443901,0.0787621
			c0.0150509,0.0919037,0.0091305,0.2794685,0.0131397,0.3936977c-0.0719795-0.0008011-0.271389,0.0098686-0.3281326-0.0262127
			c-0.1253929-0.0066013-0.2397461-0.0277576-0.2625046,0.078764c-0.6143837-0.0047512-1.2153835-0.0817242-1.8112621-0.1181774
			c0.0122128-0.0376873,0.0423737-0.0609379,0.0524883-0.0918388c0.0397224-0.1210766-0.0216503-0.2929134,0.0394135-0.3937588
			c-0.0006771-0.0405235-0.0045643-0.0672932-0.0131359-0.0919018c-0.0437317,0-0.0875244,0-0.1312542,0
			c0.0218945-0.2843399,0.0437298-0.5687408,0.0656261-0.8530788c0.01721-0.0788898-0.0141869-0.2184677,0-0.2625065
			c0.0180702-0.0561905,0.095789-0.0914707,0.1181145-0.1575279c0.0204163-0.0286198,0.0207863-0.1289082,0-0.1574669
			c-0.0568047-0.1510506-0.4327393-0.1163254-0.6168499-0.1575279c-0.1863937-0.0416317-0.6869793-0.1119461-0.8662796-0.0393505
			c-0.1521606,0.0616188-0.2586803,0.1970024-0.380619,0.2887192c-0.0653191,0.049221-0.1551857,0.1004734-0.1837425,0.1838017
			c-0.3869724,0.0021591-0.5393829,0.2635555-0.7349644,0.4593239c-0.0827732,0.0828972-0.2104473,0.1812744-0.2493687,0.301918
			c0,0.0524883,0,0.1049786,0,0.157465c0.0447178,0.0415115,0.0762348,0.0553265,0.1443291,0.078764
			c-0.0004311,0.1417389,0.0235615,0.2658367,0.0262737,0.4199715c-0.0915909-0.0007381-0.4667225-0.0028973-0.5250092-0.0393505
			c-0.1162643-0.0065384-0.1632633,0.0016651-0.1837425,0.0919018c-0.1217518,0.0004311-0.6475658-0.0145569-0.7087498-0.0525513
			c-0.048111,0-0.0962811,0-0.1443901,0c0.0173931-0.047617,0.0623569-0.0661182,0.0787621-0.1049767
			c0.0513802-0.1215096,0.0125217-0.332325,0.0524902-0.4593849c-0.0407066-0.0141869-0.110651-0.0145569-0.1706028-0.0131378
			c0.0087566-0.2624435,0.0175152-0.5250092,0.0262737-0.7874527c0.000061-0.0911617,0.0235615-0.2830448,0-0.3281326
			c0.0143719-0.0873356,0.0761738-0.0595188,0.1049767-0.1312523c0.0083885-0.0195522,0.016283-0.0056744,0-0.0262756
			c0.000185-0.0564346,0.0052433-0.1071968-0.0262737-0.1312523c-0.0762348-0.0582237-0.1860237-0.0123978-0.301857-0.0393505
			c-0.1379147-0.0320721-0.3055553,0.0094986-0.4593849-0.0262756c-0.0978222-0.0227585-0.2921104-0.0536594-0.4068336-0.0262127
			c-0.2574482,0.0614929-0.4582729,0.1520367-0.6693993,0.2625046c-0.0532913,0.0278797-0.1157093,0.0857334-0.1706047,0.1049767
			c-0.1393948,0.048851-0.3069134,0.0109787-0.4331703,0.0656261c-0.0882626,0.0382423-0.1698017,0.1204605-0.2493668,0.1706028
			c-0.2088451,0.1318092-0.4128799,0.2662697-0.6168499,0.3937588c-0.0102997,0.0454578-0.0293598,0.1538906,0,0.1968803
			c0.014185,0.0398426,0.0120869,0.0388584,0.0524883,0.0524883c0.0221424,0.016777,0.0559425,0.0230675,0.0919018,0.0262756
			c0.0091267,0.0854874-0.0024071,0.2641087,0.0393486,0.3281307c0,0.0349731,0,0.0700054,0,0.1049767
			c-0.1477184-0.0490341-0.5616474-0.000246-0.6693363-0.0656261c-0.0882034,0.0022831-0.127737,0.047123-0.1443901,0.1181164
			c-0.0175171,0-0.0350342,0-0.0524902,0c0.0073414-0.0969601,0.0524902-0.0749397,0.0787029-0.1312542
			c0.0411396-0.0881996-0.0092525-0.2232151,0.0394135-0.3018551c0.0014801-0.0484791,0.0057335-0.1161423-0.0131378-0.1443901
			c-0.032135-0.0215263-0.1171284-0.0151119-0.1706047-0.0131378c-0.0043793-0.0043163-0.0087585-0.0086975-0.0131378-0.0130768
			c0.0095596-0.0514393,0.0344181-0.0964661,0.0393524-0.1181145c-0.0043793-0.0919018-0.0087585-0.1838036-0.0130768-0.2756424
			c0.0171452-0.0545864,0.0829582-0.1060276,0.1049786-0.1575298c0.0618019-0.1446972-0.047802-0.2772446-0.0919018-0.3674812
			c0.0866585-0.0679092,0.1759071-0.2134705,0.1050377-0.3674812c-0.0179482-0.0389214-0.0935669-0.1015244-0.1181145-0.1575279
			c-0.1714668-0.3912296-0.33288-0.7899837-0.538147-1.1549988c-0.0568695-0.0102997-0.2137794,0.0043163-0.2625065-0.0262127
			c-0.1224937,0-0.2449894,0-0.3674812,0c-0.126873,0.2362289-0.2537479,0.4725208-0.3806229,0.7087498
			c-0.0292339,0.0102997-0.0713596,0.0139408-0.1181126,0.0130768c-0.0282497,0.0800591,0.0026512,0.1833706-0.0262775,0.2756424
			c-0.0490952,0.1567249-0.2655869,0.4026394-0.1049747,0.5643616c0,0.0043793,0,0.0087585,0,0.0131378
			c-0.1482773,0.0297928-0.3483639-0.0037613-0.4856606,0.0394135c-0.0920258,0.0289268-0.1855297,0.0975132-0.2625046,0.1443272
			c-0.1836805,0.111763-0.3832111,0.2015057-0.5643625,0.301918c-0.0543385,0.0300999-0.3280687,0.0342941-0.38062,0
			c-0.0437298,0-0.0875225,0-0.1312532,0c0.0144958-0.1217537-0.0129519-0.3231964-0.0131369-0.4725208
			c-0.000062-0.0667362,0.0141859-0.1793613-0.0130758-0.2231541c-0.0056133-0.127737,0.0232534-0.1478443,0.1049776-0.1837406
			c-0.000308-0.0357742-0.000493-0.0601387-0.0131378-0.0787029c-0.0150499-0.1417389-0.1478443-0.0769138-0.2756433-0.1050396
			c-0.0658102-0.0144939-0.6808109-0.047739-0.8005905-0.0131378c-0.2441254,0.0706234-0.4890528,0.1855297-0.7218895,0.2887802
			c-0.0307779,0.0136318-0.0732746,0.0552044-0.1049776,0.0656281c-0.1487703,0.0043793-0.2975388,0.0087566-0.4462471,0.0131359
			c-0.2349968,0.0612469-0.4069567,0.189909-0.5906372,0.301857c-0.0724106,0.0441017-0.1518526,0.0615559-0.2100163,0.1181145
			c-0.0086966,0-0.0174551,0-0.0262127,0c-0.0051203-0.2603474-0.0109787-0.5246391-0.0524893-0.7481022
			c0.0395365-0.0194283,0.0708075-0.0411396,0.1181145-0.0524883c-0.0011711-0.0505161-0.0044403-0.0778999-0.0262737-0.1050396
			c-0.0339861-0.0810471-0.0864134-0.0454578-0.1837425-0.0656261c-0.1569099-0.032444-0.6538572-0.0603848-0.840004,0
			c-0.2076731,0.0674152-0.4234247,0.1374817-0.6299877,0.2231541c-0.0586567,0.0243015-0.1341515,0.0742607-0.1968784,0.0918407
			c-0.0568686,0-0.1137362,0-0.1706038,0c-0.1631413,0.000061-0.3225193-0.0077724-0.4462471,0.0394115
			c-0.4331083,0.2143345-0.8662786,0.42873-1.2993889,0.6431274c-0.0284948,0.0730877-0.0056124,0.1133041,0,0.2099533
			c0.0393515,0.0043793,0.078764,0.0087585,0.1181164,0.0131378c0.014617,0.1215057,0.0748158,0.2118664,0.078763,0.3412685
			c-0.3149319-0.0175152-0.6300492-0.0350323-0.9449816-0.0524883c-0.0187507-0.1345215-0.079936-0.2525749-0.1181149-0.3675442
			c-0.0547094-0.1645584-0.0758033-0.3072834-0.1312528-0.4724598c-0.0463209-0.1379147-0.1237278-0.3041382-0.1575279-0.4462471
			c-0.0162215-0.0684624,0.0389194-0.0561275,0.0262752-0.1181145c-0.0492811-0.2412262-0.1717138-0.5036697-0.2493672-0.7350273
			c-0.1119475-0.333374-0.1875658-0.6517601-0.3019185-0.984396c-0.0902357-0.2625656-0.1607351-0.5435123-0.2624435-0.8137283
			c-0.0590262-0.1567869-0.1421075-0.3275146-0.1312523-0.5118723c0.0429282-0.0397205,0.0920248-0.0738916,0.1443286-0.1049776
			c0.0045643-0.1575899,0.0011101-0.2435694-0.0918398-0.301856c0-0.0087585,0-0.0175171,0-0.0262756
			c0.1310058-0.0668592,0.2350583-0.1724539,0.3543448-0.2493677c0.0408931-0.1823835-0.0149879-0.3840742-0.039351-0.5643616
			c-0.2073646-0.0521183-0.4926906,0.0519962-0.6956143,0.1049776c-0.0657492,0.0171471-0.1787448,0.0035782-0.2100167,0.0524893
			c-0.0430512,0.0674763,0.0418186,0.2011347,0.0656266,0.2625046c-0.1171899,0.047801-0.189971,0.1014004-0.2887187,0.1575279
			c0.0203538,0.0551414,0.0293589,0.1186705,0.0655646,0.1574659c-0.0128913,0.1120701-0.0975146,0.0765438-0.1443286,0.1443901
			c-0.0218964,0.031703-0.0105467,0.0550175-0.0394125,0.078764C5.204277,14.90483,5.1723275,15.000432,5.2869883,15.064887
			c-0.0743847,1.1023855-0.1487694,2.2051439-0.2231541,3.3075285c-0.0592117-0.0127678-0.0644546-0.0489731-0.1049771-0.0656261
			c-0.0481715,0-0.0962811,0-0.1443901,0c-0.1813364-0.0400906-0.4431014-0.0620499-0.5906372,0.0131378
			c-0.0243015,0.0885696-0.0671067,0.2323437,0,0.3149929c0.0154815,0.0679092,0.0818481,0.0986862,0.1575279,0.1049786
			c0.00845,0.0226364,0.0025287,0.0128288,0.0130758,0.0262756c-0.0284953,0.0232525-0.063406,0.0271378-0.1181149,0.0262127
			c-0.0043793,0.0043793-0.0087585,0.0087585-0.0130758,0.0131378c-0.0016656,0.0537834-0.008512,0.1380997,0.0130758,0.1706028
			c0.0185652,0.1548138,0.3462648,0.3054352,0.459384,0.3937588c0.0356503,0.0278168,0.2670698,0.5237141,0.2887807,0.5906372
			c0.0043788,0.4330463,0.0086966,0.8662777,0.0130758,1.2993889c0,0.1250839-0.031765,0.4451351,0.0131373,0.4987354
			c0.0049963,0.0038834,0.3161044,0.0774059,0.3281317,0.078701c0.0029607,0.0304699,0.0025907,0.0370693,0.0131378,0.0525513
			c0,0.0218334,0,0.0437298,0,0.0656261c0.1600566,0.0278168,0.4504404-0.0997963,0.5250101-0.0525513
			c0.0349722,0,0.0700054,0,0.1049771,0c-0.0084496,0.0226974-0.0025902,0.0128918-0.0131369,0.0262756
			c-0.0328751,0.0268917-0.1017704,0.0377483-0.1574664,0.0393505c-0.0004315,0.0383015-0.0006785,0.0715466,0.0130763,0.0919018
			c0,0.0087566,0,0.0175171,0,0.0262737c0.1228023,0.0239944,0.5560346,0.1022644,0.6956754,0.0656281
			c0.1713438-0.0450268,0.3684697-0.1171894,0.5643616-0.1312542c0-0.0262737,0-0.0525494,0-0.078764
			c0.0827112,0.000248,0.2184663,0.0022221,0.2755809,0.0393524c0.0861659,0.0033932,0.0664287,0.0262756,0.1181769,0.0524902
			c0.055881,0.0370045,0.205699,0.0286789,0.2887187,0.0262737c0-0.0131378,0-0.0262737,0-0.0393524
			c0.1734409-0.0022793,0.2497382-0.0561886,0.3937573-0.0656242c0.0037632,0.0375614,0.0078945,0.1162624,0.0262756,0.1443291
			c0.0043182,0.0131359,0.0086966,0.0262737,0.0130768,0.0394115c0.157712,0.0043793,0.3694553,0.0690804,0.4725208-0.0262756
			c0.0087585,0,0.0175171,0,0.0262756,0c-0.0038242,0.0519962-0.0194292,0.0862885,0,0.1181145
			c-0.0020361,0.144146-0.0138168,0.3202381,0.0393505,0.4068966c0.1469193,0.0065384,0.2956886,0.0523033,0.4855986,0.0524883
			c0.1386538,0.3139458,0.2717562,0.4786282,0.7350264,0.4725227c0.0814161-0.0885715,0.1182384-0.1339664,0.2755814-0.1181164
			c0.0437918,0.0043793,0.0875225,0.0086975,0.1312523,0.0130768c0.0493431,0.0270767,0.0595818,0.1177444,0.1050386,0.1443901
			c0.0174551,0,0.0349722,0,0.0524893,0c0.0617399,0.031332,0.1168814,0.1019554,0.1837406,0.1312523
			c0.1958923,0.0858574,0.5100231,0.1333504,0.761241,0.078764c0.0656271,0,0.1312532,0,0.1968784,0
			c0.0525513-0.0181961,0.1070747-0.0916538,0.1575279-0.1181145c0.0856104-0.0450268,0.1458092-0.0544014,0.1968794-0.1312523
			c0.0177011-0.0136318-0.0052433-0.0203552-0.0131378-0.0524902c0.0295448-0.0077724,0.016222-0.0043793,0.0352802-0.0009861
			c0.0017281-0.000494,0.0035772-0.0027142,0.0056133-0.0040092c0.0066605-0.1246529,0.1723919-0.2188358,0.1953363-0.3756237
			c0.0698204,0.0445328,0.0539074,0.2372169,0.0919018,0.3149929c0.0823412,0.1686306,0.2665768,0.2676849,0.3280697,0.4593239
			c0.0043793,0,0.0087585,0,0.0131378,0c0.0259047,0.0074005-0.0262127,0.0131378-0.0262127,0.0131378
			c0.0862875,0.110096,0.2815018,0.1245899,0.4855967,0.1181126c0.0448408-0.046566,0.1051006-0.0647602,0.1575279-0.1049767
			c0.0275087-0.0210934,0.0347252-0.0575447,0.0656261-0.078764c0,0-0.0029602-0.0515022-0.0131378-0.0262146
			c-0.0043783,0.0043812-0.0087585,0.0087605-0.0131369,0.0130787c0.0721025-0.1461182,0.1745501-0.3487949,0.1837406-0.5380878
			c0.207118,0.0094357,0.4833155,0.0429897,0.6694002,0.0262127c0.0216503,0.0756817-0.0022812,0.2520828,0.0130768,0.3937588
			c0.0713005,0.015049,0.5326586,0.0687103,0.5381479,0.0656261c0.0349722,0,0.0700054,0,0.1049776,0
			c0,0.0087585,0,0.0175171,0,0.0262756c-0.0226364-0.0084496-0.0128288-0.0025921-0.0262136-0.0131378
			c-0.0262747,0-0.0524883,0-0.078764,0c0.1100349,0.1623383,0.2232771,0.3442307,0.2756424,0.5643616
			c0.3096285,0.0820942,0.6956148,0.0721645,1.0237455,0.1443901c0.1049786,0,0.2100182,0,0.3149948,0
			c0.1128101,0.0246105,0.3872814,0.0894966,0.5250111,0.0524883c0.1203346-0.0323811,0.1463642-0.1448822,0.2493668-0.1837406
			c0.0838833-0.0526733,0.2813168,0.0378704,0.4068336-0.0131378c0.0555744-0.0225735,0.1050377-0.0940609,0.1575279-0.1181164
			c0.1485844-0.0680294,0.348362-0.1213818,0.4593849-0.2230911c0.0130749,0,0.0262127,0,0.0393486,0
			c-0.04669,0.1301422-0.0318871,0.4648132-0.0918388,0.5643616c-0.0029602,0.0585957,0.0077114,0.0488491-0.0262737,0.0524883
			c0.0052414,0.0269527,0.0032673,0.0252895,0.0131378,0.0393524c0,0-0.0029621,0.0515003-0.0131378,0.0262737
			c-0.0043793-0.0043793-0.0087605-0.0087566-0.0131397-0.0131359c0.0058613,0.0390415,0.0066624,0.0442848,0.0262775,0.0656261
			c0,0.0043793,0,0.0087566,0,0.0131378c0.0143089-0.0223904,0.0069065-0.0404625,0.0131359-0.0524902
			c0-0.0087566,0-0.0175171,0-0.0262737c0.0202942,0.030653,0.0185661,0.0900497,0.0393524,0.1181145
			c0.0693264,0.0563126,0.4954033,0.1124401,0.5380859,0.0524883c0.0175152,0.0175171,0.0350323,0.0350342,0.0525494,0.0525513
			c0.1495113-0.0054302,0.4165173-0.1476612,0.5118732-0.2231541c0.0400925-0.0538464,0.030777-0.2518368,0.0130749-0.2887192
			c-0.0014172-0.1276741-0.0348473-0.5802746,0.0131397-0.6562634c0.1088619-0.0737686,0.3447208-0.0316429,0.4856586-0.0131378
			c0.000309,0.0357742,0.000494,0.0601368,0.0130768,0.078764c0,0.0087585,0,0.0175171,0,0.0262146
			c0.0218945,0,0.0437908,0,0.0656261,0c0.0009861,0.2774906,0.0163441,0.5894012,0.1443901,0.7481632
			c0.0722866,0.0896206,0.2254353,0.1301422,0.2887802,0.223093c0.0426807,0.062727,0.0335522,0.1653595,0.078701,0.2231541
			c0.0845013,0.1051617,0.5221119-0.000864,0.603775-0.0656261c0.0381165-0.030592,0.079874-0.1166973,0.1049767-0.1575279
			c0.0405865-0.0083885,0.0876465-0.0139408,0.1443901-0.0131378c0.0516262,0.0493431,0.1089859,0.063097,0.1443901,0.1312523
			c0.3075314-0.0251637,0.5634365-0.5397511,0.5643616-0.8924942c0.0927048-0.0375614,0.1373596-0.0891857,0.1837425-0.1706028
			c0.2462845,0.0012341,0.5045338,0.0305309,0.7218876,0.078764c0.0886345,0.0196762,0.1756001-0.0134449,0.2362328,0.0262146
			c0.0043774,0,0.0087566,0,0.0131359,0c-0.0012321,0.0724106,0.0043812,0.1168175,0.0262127,0.1575279
			c0.0869064,0.0024052,0.2257462,0.0077076,0.2756443,0.0524883c0.0324421,0.0194893,0.0243645,0.016222,0.0262737,0.0656242
			c0.048111,0.0131397,0.0962219,0.0262775,0.144331,0.0393524c0.1196556,0.0062923,0.3092556,0.0437298,0.3150539-0.078701
			c0.0385494,0.0133209,0.0563145,0.0410156,0.0918388,0.0524883c0.1046715,0.0338001,0.1857166-0.0103626,0.3018589-0.0131397
			c-0.0016041,0.3875904,0.0284328,0.9670658,0.2625027,1.0630989c0,0.0043774,0,0.0087585,0,0.0131378
			c-0.0374985-0.0047512-0.0566807-0.0085754-0.078701-0.0262146c-0.0043774,0-0.0087585,0-0.0131378,0
			c0.0243034,0.112072,0.1300201,0.0658722,0.223093,0.1049786c0.1042366,0.0437908,0.1612282,0.1354465,0.2100163,0.2362289
			c0.0267696,0.0093136,0.079689,0.000494,0.1181145,0.0131378c0.047369,0.0156059,0.1036224,0.0574856,0.1575279,0.078764
			c0.0563755-0.1011524,0.1014614-0.23913,0.1968784-0.301857c0.1972504-0.1297722,0.4648132,0.0016041,0.5118732,0.1837425
			c0.1615982-0.047493,0.1838036-0.5465374,0.5512238-0.4462471c0.0369473,0.0100536,0.0990562,0.0423737,0.1312523,0.0656281
			c0.0744457,0.0537205,0.0756798,0.1496925,0.1312542,0.2230911c0,0.0568676,0,0.1137352,0,0.1706638
			c0.0393505,0.0218353,0.078764,0.0437298,0.1181145,0.0655651c0.0585327,0.0430508,0.0626659,0.1096039,0.1049767,0.1706676
			c0.0465679,0.0671043,0.1482773,0.0869045,0.1968803,0.157465c0.1749821,0,0.3500271,0,0.5250092,0
			c0.0637131,0,0.1688156,0.0128288,0.2100163-0.0130749c0.0904846-0.0177021,0.127924-0.127861,0.1837425-0.1838036
			c0.0568676-0.0568695,0.1137352-0.1137371,0.1706028-0.1706047c0.0438538-0.0822792,0.0327511-0.190527,0.0524883-0.2625046
			c0.0571785-0.2078571,0.1718388-0.4374275,0.1838036-0.682478c0.1054707-0.000246,0.1326714,0.0210953,0.1968174,0.0524902
			c0,0.0175171,0,0.0350342,0,0.0524883c0.1635742,0.0088806,0.3297958,0.0500202,0.4725208,0.0131378
			c0.0043793-0.0218964,0.0087605-0.0437317,0.0131397-0.0656261c0.0175171,0,0.0349693,0,0.0524864,0
			c-0.0032043,0.3841343-0.0125198,0.7358284,0.1312542,0.9712563c0.0175171,0.0524883,0.0349712,0.1049767,0.0524883,0.1574669
			c0.015852,0.0137539,0.3544064,0.0693893,0.4068966,0.0918999c0.0927639,0.0397224,0.1361237,0.1489544,0.2230911,0.1837425
			c0.0373783,0.0122738,0.0524273-0.0232544,0.0919018-0.0393524c0.0612469-0.0087566,0.1224937-0.0175171,0.1837406-0.0262737
			c0.0977612-0.0352192,0.190588-0.1394558,0.301857-0.1706047c0.1194096-0.0334911,0.3061123,0.0251045,0.3937588-0.0394115
			c0.0635891-0.0451488,0.1141052-0.2172337,0.1181145-0.3149948c0.1211376-0.0244255,0.1502495-0.1498165,0.2362919-0.2099552
			c0.0013561-0.0332451,0.0016041-0.0486641,0.0130749-0.0656261c0.0033932-0.1350765-0.0452099-0.1166344-0.1443291-0.1443901
			c0.0027142-0.1166954,0.0278797-0.2092152,0.0393524-0.3149929c0.0349712,0,0.0700054,0,0.1049767,0
			c0.0017281,0.0674763,0.015419,0.1926231-0.0130749,0.2362289c0.0084496,0.0226364,0.0025291,0.0128288,0.0130749,0.0262756
			c0.0645161,0.0450249,0.4470482,0.0770988,0.5512867,0.0787029c0.0011711,0.0505142,0.0043793,0.0778999,0.0262127,0.1050377
			c0.030592,0.0695133,0.1091709,0.030407,0.1706676,0.0656261c0.1499367,0.0028992,0.1266251-0.0411396,0.1968765-0.1050377
			c0.1761551-0.0769768,0.5992737,0.1298962,0.8137283-0.0130749c0.1239738-0.0826511,0.2272873-0.333931,0.2756462-0.4856606
			c0.0429268-0.1348915-0.0703773-0.1875668-0.0525551-0.2887211c0.0252266-0.1430931-0.0218315-0.3532963,0.0131416-0.5118713
			c0.0461311-0.2089672,0.0257187-0.5216179,0.0262718-0.7218895c0-0.126873,0-0.253746,0-0.380621
			c-0.0043793-0.1968765-0.0087585-0.3937569-0.0131378-0.5906353c0-0.0693283,0.015667-0.190403-0.013134-0.2362289
			c0-0.0831432,0-0.1662865,0-0.2493687c0.0232506-0.0434837,0.1479034-0.0572376,0.1968803-0.078764
			c0.1644974-0.0721645,0.362236-0.158577,0.5118713-0.2493687c0.0267677-0.1015224,0.0420036-0.2209949,0.0393524-0.3674812
			c-0.0533562,0.0006771-0.1093597-0.000988-0.1443329-0.0131378c0.0251656-0.095911,0.1836777-0.1062107,0.2362328-0.1837425
			C34.2759895,20.2844601,34.1717529,19.9783478,34.0042915,19.9211102z M5.037559,18.8318005
			c-0.0371923-0.0107327-0.0531058-0.0091305-0.1049776-0.0131378c0-0.0131378,0-0.0262756,0-0.0394135
			c0.0587802,0.0007401,0.0435457,0.0122128,0.078764-0.0262127c0.0087585,0,0.0175166,0,0.0262136,0
			C5.037559,18.7792492,5.037559,18.8055248,5.037559,18.8318005z M5.3394771,14.9599094c-0.0087585,0-0.0175166,0-0.0262752,0
			c0-0.0087585,0-0.0175161,0-0.0262747c0.0087585,0.0043793,0.0175166,0.0087585,0.0262752,0.0131378
			C5.3394771,14.9511509,5.3394771,14.9555302,5.3394771,14.9599094z M5.3525529,14.8286572c-0.008697,0-0.0174551,0-0.0262136,0
			c-0.0105472-0.0342932-0.016283-0.0310869-0.0262752-0.0656261c0.0175171,0.0043783,0.0350337,0.0087585,0.0524888,0.0131369
			C5.3525529,14.793685,5.3525529,14.8111401,5.3525529,14.8286572z M5.7725859,17.9917965c0,0.0130749,0,0.0262127,0,0.0393505
			c-0.0099301-0.0141258-0.008265-0.0121517-0.0131373-0.0393505C5.7638273,17.9917965,5.7682066,17.9917965,5.7725859,17.9917965z
			 M5.7594485,18.0574226c0.0099301,0.0140629,0.0082645,0.0120888,0.0131373,0.0393486c-0.0218959,0-0.0437303,0-0.0656261,0
			C5.7311378,18.0774689,5.7421165,18.0876446,5.7594485,18.0574226z M5.6806846,18.0048714c0,0.0087585,0,0.0175171,0,0.0262756
			c-0.0043793-0.0043793-0.0087585-0.0087585-0.0130763-0.0131378c-0.0251031-0.0218334-0.0437918-0.0832672-0.0525503-0.1181145
			C5.6541629,17.9222221,5.6532373,17.9726753,5.6806846,18.0048714z M5.6938219,18.0442848c0,0.0087566,0,0.0175171,0,0.0262127
			c-0.0043793,0-0.0087581,0-0.0131373,0c0-0.0086956,0-0.0174561,0-0.0262127
			C5.6850638,18.0442848,5.6894426,18.0442848,5.6938219,18.0442848z M5.4838057,17.7030163
			c0.0231295,0.0355892,0.0062909,0.0746918,0,0.1181145c-0.0043178,0-0.008697,0-0.0130763,0
			C5.4704213,17.7743149,5.4736285,17.7324352,5.4838057,17.7030163z M5.4838057,17.8342686c0.0175166,0,0.0350332,0,0.0525503,0
			c-0.0263371,0.0519943-0.024178,0.0816002-0.0525503,0.1312523c-0.0043178,0-0.008697,0-0.0130763,0
			C5.4704213,17.8969955,5.4748006,17.8636894,5.4838057,17.8342686z M5.4838057,18.031147c0,0.0131378,0,0.0262756,0,0.0393505
			c-0.0099306-0.0140629-0.0082035-0.0120888-0.0130763-0.0393505C5.4751086,18.031147,5.4794879,18.031147,5.4838057,18.031147z
			 M5.5625691,17.9917965c0-0.0043812,0-0.0087605,0-0.0131378c0.0043793,0,0.0087585,0,0.0131378,0
			c-0.0043793,0.0437298-0.0087585,0.0875206-0.0131378,0.1312523c0.0218964-0.0043793,0.0437922-0.0087585,0.0656266-0.0131397
			c0.0043793,0.0043812,0.0087585,0.0087605,0.0131378,0.0131397c0,0.0043774,0,0.0087585,0,0.0131378
			c-0.0342321-0.0045033-0.0698824-0.0109806-0.1049776,0.0130749c-0.0304694-0.0029602-0.0370688-0.0025902-0.0525503-0.0130749
			c-0.0043178-0.0043793-0.008697-0.0087605-0.0130763-0.0131378C5.5285845,18.078949,5.5251923,18.0406456,5.5625691,17.9917965z
			 M5.4838057,18.2017498c-0.0043178,0-0.008697,0-0.0130763,0c0.0043793-0.0086975,0.0087585-0.0174541,0.0130763-0.0262127
			c0.0800591,0.0011711,0.2206869,0.0091286,0.2756429-0.0262756c0.0131373,0,0.0262752,0,0.0394125,0
			C5.727129,18.204834,5.5435104,18.1731319,5.4838057,18.2017498z M7.281929,19.9605236c0.0175171,0,0.0350337,0,0.0524888,0
			c-0.0126438,0.0105457-0.0359588,0.0193672-0.0524888,0.0262127C7.281929,19.9780407,7.281929,19.9692822,7.281929,19.9605236z
			 M6.4813375,18.8318005c-0.0043788-0.1662865-0.0087581-0.3325729-0.0131373-0.4987965c0-0.0174561,0-0.0349731,0-0.0524902
			c-0.0770988-0.01437-0.1792393,0.0275078-0.2625055,0c-0.0196137-0.0064774-0.0183797-0.030901-0.0656261-0.0262127
			c-0.0304074,0.0029621-0.0766668,0.0182571-0.0918398,0.0130768c-0.0643311-0.0420055-0.0181956-0.2691669-0.0394125-0.3674831
			c-0.0140014-0.0650101,0.0061059-0.223587-0.0131378-0.3412685c-0.0179491-0.11022-0.0426817-0.4822674-0.0130763-0.6299877
			c0.0210328-0.1050415-0.0595813-0.2736702,0-0.3674831c0.0043793-0.0043793,0.008697-0.0087585,0.0130763-0.0131397
			c0.1540122,0.3693943,0.2187748,0.7661152,0.3544064,1.1550007c0.0618644,0.1773872,0.1724544,0.3940639,0.1968789,0.5906353
			c0.1068897,0.0222664,0.0965896,0.1809044,0.1312528,0.2756424c0.0764818,0.2090302,0.1467957,0.4476032,0.2230926,0.6562023
			c0.0281873,0.0769749,0.0245485,0.1607971,0.0656261,0.2231541c-0.0074015,0.079813-0.0620489,0.0817871-0.1312523,0.0918388
			c0.0083265,0.0373783,0.0188732,0.079258,0.0394125,0.1050415c-0.0106087,0.0530415-0.0275087,0.0574837-0.0656266,0.0787621
			c0,0.0262146,0,0.0524883,0,0.0787029c-0.0509462,0.0056114-0.1228023,0.0144329-0.1575274,0.0394115
			c-0.0300374,0.0135098-0.0284343,0.0225143-0.0524888,0.0393524c-0.0012331,0.0856113,0.0015421,0.1751671,0.0393515,0.2231541
			c-0.0014191,0.0373764-0.0052428,0.0560665-0.0130763,0.078701c-0.0131373,0.0043793-0.0262752,0.0087605-0.0394125,0.0131378
			C6.551343,19.7418098,6.5163097,19.2867432,6.4813375,18.8318005z M6.8881712,21.8767605
			c-0.0269532-0.0052414-0.0252881-0.0032673-0.039351-0.0131359c-0.0534139,0.0006771-0.1093564-0.000988-0.1443906-0.0131378
			c0-0.0130749,0-0.0262127,0-0.0393524c0.0696974-0.015419,0.0942459-0.0185642,0.1706657-0.0131378
			c0.0043793,0.0043812,0.0087585,0.0087605,0.0130758,0.0131378C6.8881712,21.8330307,6.8881712,21.854866,6.8881712,21.8767605z
			 M7.8594279,20.7742519c-0.1469803,0.0281868-0.2758889-0.0125217-0.4462461-0.0131378c0,0.0175171,0,0.0350342,0,0.0525513
			c-0.1374207,0.0120258-0.4596925,0.0840054-0.5906367,0c-0.008697,0-0.0174551,0-0.0262132,0c0-0.0394135,0-0.078764,0-0.1181755
			c-0.0269542-0.0051823-0.0252886-0.0032082-0.0393515-0.0130787c-0.0534139,0.000618-0.1094179-0.001049-0.1443901-0.0131359
			c0.0016656-0.0647011,0.0140014-0.1817684-0.0131378-0.2231541c0-0.0043812,0-0.0087585,0-0.0131378
			c0.2771235-0.0600739,0.952137-0.1801643,1.1156473-0.3280697c0.0209093-0.0078335,0.0148029-0.0045662,0.024178-0.0121517
			c-0.0017266-0.0012321-0.0053043-0.0014172-0.0071545-0.0025291c-0.0231295-0.0038853-0.0463829-0.0077095-0.0695739-0.0115948
			c0-0.0043793,0-0.0087585,0-0.0131359c0.0360203,0.0021553,0.0518718,0.0137539,0.0695739,0.0247307
			c0.0030837,0.000494,0.0061059,0.001049,0.0091901,0.001543c-0.0010486,0.0008011-0.0012336,0.00037-0.0020356,0.0009861
			c0.0263987,0.0183201,0.0468144,0.0412006,0.0807991,0.06464c-0.0006166,0.1017704-0.000123,0.4358234,0.039351,0.4987354
			C7.8594279,20.6954899,7.8594279,20.7349014,7.8594279,20.7742519z M8.4632025,20.4723949
			c-0.0354042,0.0091915-0.0568056,0.0181332-0.078763,0.0393524c-0.0735836-0.04669-0.0416336-0.3218403-0.0919027-0.4068336
			c0-0.0087585,0-0.0175171,0-0.0262756c0.0612469,0.0043774,0.1225567,0.0087585,0.1838036,0.0131378
			c0.0020971,0.1337814,0.0532904,0.1675816,0.0918398,0.2493668C8.5166779,20.379261,8.4678278,20.3817272,8.4632025,20.4723949z
			 M12.0331755,23.1630135c-0.0043802,0-0.0087585,0-0.0131388,0c0-0.0087605,0-0.0175171,0-0.0262775
			c0.0043802,0,0.0087585,0,0.0131388,0C12.0331755,23.1454964,12.0331755,23.154253,12.0331755,23.1630135z M12.1512899,19.8292694
			c-0.1028185,0.0030842-0.1951523,0.0064163-0.1968784-0.0262737c0.0612469,0,0.1224937,0,0.1837406,0
			c0.0043793,0.0043793,0.0087585,0.0087566,0.0131378,0.0131378
			C12.1512899,19.8205128,12.1512899,19.8248901,12.1512899,19.8292694z M13.6606951,21.0892467
			c-0.0581017,0.0009251-0.0898666-0.000124-0.1181765-0.0262146c-0.0213413-0.015234,0.0028372-0.0167751,0.0131369-0.0394135
			c0.0194292,0.0147419-0.0050573,0.016098,0.0262756,0.0394135c0.0202312,0.0102386,0.032196-0.0009251,0.0524893-0.0262756
			c0.0087576,0,0.0175161,0,0.0262747,0C13.6606951,21.0542736,13.6606951,21.0717297,13.6606951,21.0892467z
			 M13.7131834,20.9317799c-0.0087576,0-0.0175161,0-0.0262747,0c-0.0043793-0.0043793-0.0087585-0.0087585-0.0131378-0.0131378
			c0-0.0175152,0-0.0350323,0-0.0524883c0.0131378,0.0043793,0.0262747,0.0087566,0.0394125,0.0130749
			C13.7131834,20.8967457,13.7131834,20.9142628,13.7131834,20.9317799z M13.6212816,20.8136654
			c-0.0585327,0.0012951-0.0614319-0.0047493-0.078763,0.0393505c-0.0226364-0.0084496-0.0128298-0.0025902-0.0262136-0.0131359
			c-0.0043793,0-0.0087585,0-0.0131378,0c0.0172701-0.0198002,0.0246105-0.0281277,0.0524883-0.0393524
			c0.0112257-0.0086956,0.0412016-0.0177631,0.0524893-0.0262756c0.0350332,0.0131378,0.0700054,0.0262756,0.1050386,0.0394135
			C13.6942482,20.8481426,13.6415129,20.8620815,13.6212816,20.8136654z M14.8943949,23.4648685
			c-0.0099297-0.0141239-0.0082026-0.0121498-0.0131369-0.0393524c0.0043793,0,0.0087585,0,0.0131369,0
			C14.8943949,23.4385948,14.8943949,23.4517307,14.8943949,23.4648685z M15.0912743,21.3123989
			c-0.0220194,0.0521202-0.079874,0.0571785-0.1181145,0.0918427c-0.0087585,0-0.0175171,0-0.0262756,0
			c0.0017891-0.081356,0.0224504-0.2469025-0.0130758-0.3018589c-0.0047493-0.0492191-0.0101767-0.0487881-0.0262756-0.078764
			c-0.07827-0.0194283-0.4728298-0.1034946-0.5512238-0.0524883c-0.0803061,0.0281887-0.0982542,0.1516075-0.1050386,0.2493687
			c-0.0403385-0.0141239-0.04737-0.032074-0.078702-0.0524902c-0.0016041-0.1376648-0.0119667-0.3492851,0.0130749-0.4068947
			c0.0101156-0.1138573,0.1938572-0.175045,0.2625055-0.2755795c0.0595818,0.0144939,0.048418,0.047369,0.0919008,0.0656242
			c0.1574669,0.0130768,0.3149948,0.0262146,0.4724607,0.0393524c0.0228214,0.0645161,0.0207853,0.0991173,0.0919008,0.1181145
			C15.1058922,20.8282204,15.1364241,21.2411003,15.0912743,21.3123989z M17.3619194,19.9998741
			c0.0226364,0.0085106,0.0128288,0.0025902,0.0262127,0.0131378c0.0043812,0,0.0087605,0,0.0131397,0
			c0,0.0087585,0,0.0175171,0,0.0262737c-0.0175171,0-0.0349731,0-0.0524883,0
			C17.3531609,20.0261497,17.3575401,20.0130119,17.3619194,19.9998741z M17.3749962,21.0498962
			c-0.0447178-0.0027771-0.0669842-0.0062923-0.0918407-0.0262775c-0.0043793,0-0.0087585,0-0.0131359,0
			c0.0101147-0.0090027,0.0292339-0.0172691,0.0393486-0.0262127c0.0218983,0,0.0437927,0,0.0656281,0
			C17.370739,21.0382996,17.370554,21.0181313,17.3749962,21.0498962z M17.2700195,21.2861252c0-0.0087585,0-0.0175171,0-0.0262127
			c0.0262737,0,0.0524864,0,0.078764,0c0,0.0130749,0,0.0262127,0,0.0393505c-0.0363312,0.0063534-0.0379333,0.0158501-0.0656281,0
			c-0.0087585,0-0.0175171,0-0.0262756,0C17.2612591,21.2948818,17.2656384,21.2905045,17.2700195,21.2861252z
			 M17.0994148,20.236166c0.0273247-0.0054283,0.0719185-0.0124588,0.0918407-0.0262737
			c0.0175152,0.0087566,0.0350323,0.0175152,0.0524864,0.0262737c-0.0043163,0.0086956-0.0086956,0.0174561-0.0130749,0.0262127
			c-0.0437908,0-0.0875206,0-0.1312523,0C17.0994148,20.2536221,17.0994148,20.2448616,17.0994148,20.236166z
			 M17.2175293,20.4723949c0,0.0131397,0,0.0262146,0,0.0393524c-0.0043793,0.0043793-0.0087585,0.0087566-0.0131359,0.0131378
			c-0.0382423,0.0004311-0.0715485,0.0006771-0.0918427-0.0131378c-0.0043774-0.0043793-0.0087566-0.0087605-0.0131359-0.0131378
			C17.1359901,20.4817715,17.1570854,20.472271,17.2175293,20.4723949z M17.0337868,20.8005276
			c0.0174561-0.0175171,0.0349731-0.0350342,0.0524902-0.0524902c0.0393524,0,0.078764,0,0.1181164,0
			c0.0043774,0.0043182,0.0087566,0.0086994,0.0131359,0.0130768c-0.0252266,0.0383034-0.11022,0.0249805-0.1443901,0.0525513
			c-0.0131359,0-0.0262146,0-0.0393524,0C17.0337868,20.8092842,17.0337868,20.8049068,17.0337868,20.8005276z
			 M17.1912556,21.0104828c0,0.0131359,0,0.0262737,0,0.0394135c-0.0481091,0-0.0962219,0-0.144331,0
			c0-0.0087605,0-0.0175171,0-0.0262775C17.0874481,21.0152321,17.13451,21.0096798,17.1912556,21.0104828z M16.9813004,20.5248852
			c0.0086956,0,0.0174541,0,0.0262127,0c0,0.0087585,0,0.0175171,0,0.0262737c-0.0087585,0-0.0175171,0-0.0262127,0
			C16.9813004,20.5424023,16.9813004,20.5336437,16.9813004,20.5248852z M17.1256294,21.7848606
			c0,0.0131359,0,0.0262737,0,0.0394135c-0.0666752-0.0020981-0.1244698-0.0039482-0.1574688,0.0262127
			c-0.030468-0.0029621-0.0370045-0.0025902-0.0524864-0.0131378c-0.0043793,0-0.0087605,0-0.0131397,0
			C16.9524956,21.8028088,17.0514278,21.7838726,17.1256294,21.7848606z M17.1256294,22.060503
			c-0.0278816,0.0115948-0.0584126,0.0206013-0.0787048,0.0393524c-0.0131378,0-0.0262737,0-0.0394115,0
			c-0.0043793-0.0130787-0.0087585-0.0262146-0.0131378-0.0393524c0.01721-0.0067234,0.0516872-0.016037,0.0656281-0.0262737
			c0.0270138,0.0052414,0.0252857,0.0032673,0.0394115,0.0131359C17.1220512,22.0558147,17.1122437,22.0499573,17.1256294,22.060503
			z M16.8500481,21.6273937c0,0.0043812,0,0.0087585,0,0.0131378c-0.0330601-0.0214653-0.0136948-0.0024681,0-0.0394135
			C16.8584347,21.6206703,16.8663311,21.6067924,16.8500481,21.6273937z M16.8762608,22.5855141
			c0.0226364-0.0084515,0.0128899-0.0025902,0.0262737-0.0131397c0.0131397,0,0.0262146,0,0.0393524,0
			c0.0043793,0.0043812,0.0087566,0.0087605,0.0131378,0.0131397c0,0.0043774,0,0.0087585,0,0.0131378
			c-0.0262756,0-0.0524902,0-0.078764,0C16.8762608,22.5942726,16.8762608,22.5898914,16.8762608,22.5855141z M17.007513,23.0186234
			c-0.0175171,0-0.0349712,0-0.0524883,0c0.0120258-0.0283127,0.0114098-0.0190601,0.0262756-0.0393524
			c0.0357723,0.000309,0.0601368,0.000494,0.0787029,0.0130749c0.0087566,0,0.0175152,0,0.0262737,0
			C17.0674019,23.0267029,17.0327396,23.0308342,17.007513,23.0186234z M17.0206509,22.8348808c-0.0393505,0-0.078764,0-0.1181164,0
			c0-0.0043793,0-0.0087566,0-0.0131378c0.0428677-0.0105457,0.0972061-0.0281239,0.1312523-0.0524883
			c0.0269566,0.0052433,0.0252895,0.0032692,0.0393524,0.0131378c0.0087585,0,0.0175171,0,0.0262756,0
			C17.0805397,22.8140335,17.0465546,22.8125534,17.0206509,22.8348808z M17.1256294,22.5723743
			c-0.0568695,0-0.1137371,0-0.1706047,0c0-0.0043774,0-0.0087566,0-0.0131359
			c0.0163441-0.0087585,0.0271378-0.0142479,0.0393505-0.0262127c0.0407696-0.000864,0.0828362-0.0019131,0.1050396,0.0130749
			c0.0087585,0,0.0174541,0,0.0262146,0C17.1256294,22.5548592,17.1256294,22.5636177,17.1256294,22.5723743z
			 M17.1387653,22.3361454c-0.0484791,0.0014801-0.1161404,0.0057373-0.1443901-0.0131359
			c-0.0043793-0.0043812-0.0087585-0.0087605-0.0130749-0.0131378c0.0407066-0.0187511,0.0758018-0.0277576,0.1443291-0.0262146
			c0.0052414,0.0269547,0.0032673,0.0252895,0.0131359,0.0393524
			C17.1387653,22.3273869,17.1387653,22.3317661,17.1387653,22.3361454z M17.0600033,21.5879803
			c-0.0135098-0.0105457-0.0032082-0.0048084-0.0262165-0.0130749c0-0.0131378,0-0.0262737,0-0.0394115
			c0.0269566-0.0052433,0.0252895-0.0032692,0.0393524-0.0131397c0.0534153,0.0030842,0.0505772,0.0064774,0.078764,0.0262775
			C17.1300678,21.5657158,17.0883121,21.5805187,17.0600033,21.5879803z M17.165041,21.3123989
			c-0.0484791,0.001482-0.1162033,0.0057373-0.1443901-0.0131359c-0.0043793,0-0.0087585,0-0.0131378,0
			c0-0.0043812,0-0.0087585,0-0.0131378c0.0524902-0.0043793,0.1050377-0.0087585,0.1575279-0.0131378
			C17.165041,21.2861252,17.165041,21.299263,17.165041,21.3123989z M17.2043934,22.5198879c0.030653,0,0.061245,0,0.0918999,0
			c0,0.0043774,0,0.0087585,0,0.0131378c-0.0165291,0.0072155-0.0396595,0.015728-0.0525513,0.0262127
			c-0.0174541,0-0.0349712,0-0.0524864,0C17.1956329,22.5461006,17.2000122,22.5330257,17.2043934,22.5198879z
			 M17.2175293,22.7561169c0.0305939,0,0.0612469,0,0.0918388,0c-0.0043163,0.0131378-0.0086956,0.0262756-0.0130749,0.0394135
			c-0.0262737,0.0043163-0.0525513,0.0086956-0.078764,0.0130768c0-0.0043812,0-0.0087605,0-0.0130768
			C17.2054405,22.7703648,17.212286,22.7858467,17.2175293,22.7561169z M17.322506,22.9923458
			c-0.0185013,0.0067253-0.063158,0.0156059-0.078764,0.0262775c-0.0086956,0-0.0174541,0-0.0262127,0
			c0.0168381,0.0115337,0.0323811,0.0121498,0.0656261,0.0131378c-0.0043793,0.0131359-0.0087585,0.0262127-0.0131359,0.0393486
			c-0.0467529-0.0043163-0.0437317-0.0008011-0.0656261-0.0262127c-0.0176411-0.0247936-0.0061703-0.0412006,0.0131359-0.078764
			c0.0305939,0,0.0612469,0,0.0918388,0c0.0043812,0.0043812,0.0087605,0.0087585,0.0131378,0.0131378
			C17.322506,22.9836502,17.322506,22.9879684,17.322506,22.9923458z M17.2700195,22.3230095
			c-0.0653191-0.0062923-0.0528603-0.0081425-0.0393524-0.0524902c0.0269527,0.0052433,0.0252895,0.0032692,0.0393524,0.0131378
			c0.0175171,0,0.0350323,0,0.0524864,0C17.3052368,22.313633,17.2943192,22.3040104,17.2700195,22.3230095z M17.2043934,22.0736408
			c0.0120258-0.0283108,0.0114098-0.0191212,0.0262737-0.0394115c0.0262127,0,0.0524883,0,0.078701,0
			c-0.0043163,0.0131359-0.0086956,0.0262737-0.0130749,0.0394115
			C17.2656384,22.0736408,17.2350464,22.0736408,17.2043934,22.0736408z M17.3356457,21.8111343
			c-0.0393524,0-0.0787659,0-0.1181164,0c0-0.0087566,0-0.0175152,0-0.0262737c0.0393505,0,0.078764,0,0.1181164,0
			C17.3356457,21.7936192,17.3356457,21.8023777,17.3356457,21.8111343z M17.243742,21.5617676c0-0.0131359,0-0.0262737,0-0.0394135
			c0.0433006-0.0011101,0.0940609-0.0030823,0.1181774,0.0131397c0.0226364,0.0084496,0.0128288,0.0025883,0.0262127,0.0131378
			C17.339098,21.5646667,17.3051739,21.5600414,17.243742,21.5617676z M17.3619194,20.7873898c-0.0175171,0-0.0350342,0-0.0525513,0
			c-0.0042553-0.0408936-0.0044403-0.0207253,0-0.0524883c0.0306549,0,0.0613098,0,0.0919037,0
			c0.0043774,0.0043793,0.0087566,0.0087585,0.0131378,0.0131359
			C17.3961525,20.7640743,17.3778324,20.7680225,17.3619194,20.7873898z M17.4406223,20.4986095
			c-0.0393505,0.0043774-0.0787029,0.0087585-0.1181164,0.0131378c0-0.0131378,0-0.0262127,0-0.0393524
			c0.0350342,0,0.0700073,0,0.1050396,0c0.0043812,0.0043793,0.0086956,0.0087605,0.0130768,0.0131397
			C17.4406223,20.489912,17.4406223,20.4942913,17.4406223,20.4986095z M17.4406223,20.2230282
			c-0.0396595,0.0080795-0.0697594,0.0136929-0.0918388,0.0393505c-0.0226383-0.0084496-0.0128288-0.0025883-0.0262775-0.0131378
			c-0.0126438-0.0210934-0.0007401-0.0012341,0-0.0393486c0.0394135,0,0.0787659,0,0.1181164,0
			C17.4406223,20.2142696,17.4406223,20.2186489,17.4406223,20.2230282z M17.6244259,20.7611141
			c0.0226345,0.0085125,0.0128288,0.0025902,0.0262127,0.0131378c0.0043793,0,0.0087585,0,0.0131378,0
			c-0.0043793,0.0087585-0.0087585,0.0175171-0.0131378,0.0262756c0.0043793,0,0.0087585,0,0.0131378,0
			c-0.0123367,0.0542774-0.001358,0.0226364-0.0393505,0.0393524
			C17.6028996,20.7891178,17.6051197,20.8062649,17.6244259,20.7611141z M17.6375008,21.7979965
			c0,0-0.0129528,0.0021591-0.0130749-0.0393486c0.0043163,0,0.0086956,0,0.0130749,0
			C17.6375008,21.7717228,17.6375008,21.7848606,17.6375008,21.7979965z M17.6506386,21.5749054
			c-0.0226364-0.0085106-0.0128288-0.0025902-0.0262127-0.0131378c-0.0106106-0.0135078-0.0048733-0.0032692-0.0131378-0.0262737
			c0.0119038-0.0122147,0.0177002-0.0228844,0.0262127-0.0393524c0.0043793,0,0.0087585,0,0.0131378,0
			C17.6506386,21.5223541,17.6506386,21.5486317,17.6506386,21.5749054z M17.6244259,21.0630322
			c0-0.0218964,0-0.0437927,0-0.0656261c0.0394115,0.01758,0.0266438,0.0292358,0.078701,0.0393505
			C17.6834507,21.0695076,17.6756191,21.0634022,17.6244259,21.0630322z M17.7818909,21.3123989
			c-0.0043793,0.0043812-0.0087585,0.0087605-0.0131378,0.0130787c-0.0043793,0-0.0087585,0-0.0131359,0
			c0.0088196-0.0479889,0.0217705-0.0560684,0.0394115-0.0918427
			C17.8071785,21.2585545,17.7951527,21.2795868,17.7818909,21.3123989z M17.8212433,21.2073612
			c-0.0086975,0-0.0174561,0-0.0262146,0c-0.0114727-0.048233-0.0223885-0.0651321-0.0131378-0.1049786
			c0.0131378,0.0087605,0.0262756,0.0175171,0.0393524,0.0262775
			C17.8212433,21.1548729,17.8212433,21.1811466,17.8212433,21.2073612z M18.3856659,24.4229889
			c0.0309639,0.0115337,0.0216484,0.0049324,0.0393505,0.0262737
			C18.4086704,24.4404449,18.3978786,24.4349537,18.3856659,24.4229889z M18.529995,22.2573814
			c-0.0087605,0-0.0174561,0-0.0262146,0c0-0.0087585,0-0.0175152,0-0.0262756c0.0087585,0,0.0174541,0,0.0262146,0
			C18.529995,22.2398663,18.529995,22.2486229,18.529995,22.2573814z M19.0287914,24.186758c-0.0043793,0-0.0087605,0-0.0131378,0
			c-0.0043793-0.0043774-0.0087585-0.0087585-0.0131378-0.0131378c0.0025902-0.0341091,0.0057983-0.0445938,0.0131378-0.0656261
			c0.0043774,0,0.0087585,0,0.0131378,0C19.0287914,24.1342697,19.0287914,24.1604824,19.0287914,24.186758z M19.3175106,21.4173775
			c-0.0538464,0.0366993-0.572382-0.110405-0.6694031-0.0262756c-0.1137962,0.0664902-0.0489101,0.3577366-0.1311913,0.4593849
			c-0.0135059,0.0106087-0.0032673,0.0048733-0.0262737,0.0131378c-0.0252266-0.0372543-0.0169621-0.1102829-0.0393505-0.1574669
			c-0.0527973-0.111021-0.1591949-0.1625843-0.1575279-0.3281326c0.0506992-0.0014172,0.0666752-0.0030212,0.0919018-0.0262737
			c0.0130768-0.0043793,0.0262127-0.0087585,0.0393505-0.0131378c-0.0014191-0.0332451-0.0016041-0.0486031-0.0131378-0.0656261
			c-0.0141239-0.0099316-0.0120888-0.0082035-0.0393524-0.0130749c0.0058613-0.2352448,0.1304512-0.271759,0.1706066-0.4462471
			c0.1217518-0.0035172,0.1399479,0.0372543,0.1837387,0.1049767c0.0838223-0.0010471,0.2548599-0.0122128,0.3149948,0.0262146
			c0.3145618-0.0033321,0.1207047,0.1014614,0.301918,0.157526C19.3445244,21.1826267,19.355072,21.3585968,19.3175106,21.4173775z
			 M23.9112263,20.918642c0.0087605,0.0043793,0.0175171,0.0087585,0.0262775,0.0131378c0,0.0043793,0,0.0087585,0,0.0130768
			c-0.0087605,0-0.0175171,0-0.0262775,0C23.9112263,20.9361591,23.9112263,20.9274006,23.9112263,20.918642z M23.556881,20.8923664
			c0.0849323,0.0169621,0.2098331,0.0144329,0.3149948,0.0131397c0,0.0131359,0,0.0262737,0,0.0393505
			c-0.1332264-0.000927-0.18923-0.0263367-0.3149948-0.0262146C23.556881,20.9098835,23.556881,20.9011269,23.556881,20.8923664z
			 M21.9949894,20.8005276c0,0.0043793,0,0.0087566,0,0.0131378c-0.0309639-0.0115337-0.0216503-0.0049953-0.0393505-0.0262756
			C21.9687767,20.791769,21.9818516,20.7961483,21.9949894,20.8005276z M21.6931324,22.8742332
			c-0.0043793,0-0.0087585,0-0.0131359,0c0-0.0087605,0-0.0174561,0-0.0262146c0.0043774,0,0.0087566,0,0.0131359,0
			C21.6931324,22.8567772,21.6931324,22.8654728,21.6931324,22.8742332z M23.0187359,22.5986519
			c-0.0408955-0.0079575-0.031889-0.0022831-0.0524902-0.0262775c0.0175171,0,0.0349731,0,0.0524902,0
			C23.0187359,22.5811348,23.0187359,22.5898914,23.0187359,22.5986519z M24.0687561,21.8111343
			c0,0.0305939,0,0.0612488,0,0.0918407c-0.0143089,0.0239925-0.1089878,0.0313339-0.1312523,0.0525513
			c-0.0087605,0.030592-0.0175171,0.0612469-0.0262775,0.0918388c-0.0268917,0.0371323-0.095047,0.0621109-0.1312504,0.0919018
			c-0.0099316,0.0141239-0.0082035,0.0120888-0.0131397,0.0393524c-0.0130749,0-0.0262127,0-0.0393505,0
			c-0.0123348,0.0284939-0.0261517,0.0543365-0.0393505,0.0787621c-0.0363293,0.0063534-0.0379314,0.015852-0.0656261,0
			c-0.2012577-0.0075245-0.1190395,0.0337391-0.1837406,0.1443901c-0.0441647,0.0195541-0.3429356-0.0224514-0.4200325-0.0394135
			c-0.1312542-0.0087566-0.2625065-0.0174541-0.3937588-0.0262127c-0.2161865-0.0482941-0.4896088-0.0876465-0.7349644-0.0918999
			c-0.0043812-0.0043793-0.0087605-0.0087605-0.0131397-0.0131397c0.0043793-0.0743217,0.0087585-0.1487064,0.0131397-0.2230911
			c0.0524864-0.0043793,0.1049767-0.0087585,0.157465-0.0131378c0-0.0218964,0-0.0437298,0-0.0656261
			c-0.1416759-0.0126438-0.2337017-0.0548935-0.4068336-0.0524902c0.000555,0.1052265,0.0580387,0.0942478,0.1312523,0.1181164
			c-0.0087585,0.0743828-0.0175171,0.1487694-0.0262737,0.2231541c-0.0927048,0.0015411-0.2289524,0.0127048-0.2887211-0.0262756
			c-0.0124588-0.0221424,0.0033932-0.126194,0.0262146-0.157526c0.0063515-0.1321793,0.1247768-0.1689396,0.1837406-0.2493687
			c0.1027565-0.1401348,0.2090912-0.269598,0.3149948-0.4068356c0.0705605-0.0914059,0.1859608-0.1738091,0.2231541-0.2625027
			c0.4053535,0.0035763,0.7807312,0.0685234,1.1681366,0.0918388c0.0029602,0.0304699,0.0025902,0.0370693,0.0130749,0.0525513
			c0.0121498,0.0354023,0.0225754,0.0384254,0.0394115,0.0655651c0.1837425,0.0131359,0.367485,0.0262737,0.5512238,0.0394115
			c0.0052433,0.0269527,0.0032692,0.0252895,0.0131397,0.0393524c0.0063515,0.07827,0.0387325,0.0906048,0.0918388,0.1181126
			C24.0864582,21.5982208,24.1127949,21.743412,24.0687561,21.8111343z M25.144989,21.0498962
			c-0.1635094-0.0414505-0.2807007-0.0246105-0.4331074-0.0394135c0-0.0086956,0-0.0174561,0-0.0262127
			c0.0717316,0.0127659,0.2849541-0.0248585,0.3674812,0.0262127c0.048542,0.0058594,0.0386124,0.0073395,0.0656261,0.0262737
			C25.144989,21.0411358,25.144989,21.045517,25.144989,21.0498962z M25.1712017,21.0236187
			c-0.0043163,0.0043812-0.0086956,0.0087605-0.0130749,0.0131378c0-0.0087566,0-0.0175171,0-0.0262737
			c0.0226364,0.0085125,0.0128288,0.0025902,0.0262146,0.0131359
			C25.1799622,21.0236187,25.1755829,21.0236187,25.1712017,21.0236187z M26.1818733,24.7511196
			c-0.0043793,0-0.0087605,0-0.0131378,0c0.0043774-0.0175171,0.0087585-0.0350323,0.0131378-0.0524883
			c0.0086956,0,0.0174561,0,0.0262127,0C26.1983414,24.7290401,26.1944561,24.7279282,26.1818733,24.7511196z M26.2212238,24.724844
			c0-0.0087566,0-0.0174541,0-0.0262127c0.0225754,0.0079556,0.0412636,0.0122128,0.0787659,0.0131378
			C26.2815475,24.7243519,26.2569351,24.724968,26.2212238,24.724844z M26.6543331,24.9085865c-0.0043793,0-0.0087585,0-0.0131378,0
			c0-0.0086975,0-0.0174561,0-0.0262146c0.0043793,0,0.0087585,0,0.0131378,0
			C26.6543331,24.8911304,26.6543331,24.899889,26.6543331,24.9085865z M26.5755672,24.7511196c0.0131397,0,0.0262775,0,0.0394154,0
			c0.0173302,0.0318871-0.0061703,0.0092525,0.0262127,0.0262146c0,0.0218945,0,0.0437908,0,0.0656261
			C26.6169567,24.8123684,26.5988216,24.7795544,26.5755672,24.7511196z M26.6411953,24.3573627
			c-0.0218334,0-0.0437298,0-0.0656281,0c0-0.0087605,0-0.0175171,0-0.0262775
			c0.0043812-0.0043144,0.0087605-0.0086956,0.0131397-0.0130749c0.047617,0.0024681,0.1606731,0.0028992,0.1968784,0.0262146
			c0.0099316,0.0141239,0.0082645,0.0121498,0.0131378,0.0394115
			C26.7380924,24.3841305,26.6770306,24.3825264,26.6411953,24.3573627z M28.1899509,25.1317406
			c0,0.0043793,0,0.0087566,0,0.0131378c-0.0043774,0-0.0087585,0-0.0131378,0
			c0.0112896-0.0244255,0.0187511-0.0347271,0.0262756-0.0656281C28.2147465,25.1046028,28.2106133,25.106945,28.1899509,25.1317406
			z M29.1349335,22.3230095c-0.0211563,0.01548-0.1195965,0.0609989-0.1443291,0.0656261
			c-0.0051193,0.0504532-0.0125809,0.1144753-0.0394135,0.1443901c-0.0223255,0.0508232-0.0576687,0.0373135-0.078701,0.0918388
			c-0.0175171,0-0.0350342,0-0.0525513,0c0,0.0306549,0,0.0612469,0,0.0918999
			c-0.031395,0.0117836-0.0693264,0.0191212-0.0918388,0.0393524c-0.0215874,0.0305309-0.0262756,0.09548-0.0262756,0.1443901
			c-0.0043793,0.0043793-0.0087585,0.0087585-0.0131359,0.0131378c-0.048111-0.0043793-0.09622-0.0087585-0.1443291-0.0131378
			c0.0196114-0.1017704-0.0035172-0.253437-0.0262756-0.3544064c-0.0451488-0.2001476-0.0477409-0.3687153-0.1443901-0.5118713
			c-0.2126694-0.3150578-0.8346386-0.3601437-1.1549988-0.1443291c-0.1058407,0.0713005-0.1612892,0.2231541-0.223093,0.3412056
			c-0.0502663,0.096035-0.2074871,0.3790169-0.1706028,0.4987984c-0.0743847-0.0087585-0.1487694-0.0175171-0.2231541-0.0262756
			c-0.0029602-0.030407-0.0025902-0.0370083-0.0131378-0.0524902c-0.0014191-0.0373745-0.0052433-0.0561256-0.0131397-0.078764
			c-0.0332413-0.0013561-0.0486012-0.0016022-0.0655613-0.0131359c-0.0869064,0.0171471-0.1100368,0.0792561-0.1838036,0.1050396
			c-0.0515022,0.0307159-0.1570969-0.0103016-0.2362309-0.0131397c-0.0043793-0.0043774-0.0087585-0.0087566-0.0131378-0.0131359
			c0.0013561-0.0510101,0.0072784-0.1158333,0.0131378-0.1312542c-0.00037-0.0382385-0.0006161-0.0715466,0.0131378-0.0918999
			c0.0303459-0.0190601,0.1137352-0.0076485,0.1443901-0.0262127c0.0086956,0,0.0174561,0,0.0262127,0
			c-0.0029602-0.0304699-0.0025902-0.0370083-0.0131378-0.0524902c-0.0324421-0.0249805-0.0918999-0.0374393-0.1443272-0.0394135
			c0.0174541-0.1298962,0.1240349-0.2331448,0.1837425-0.3281307c0.0663643-0.1055336,0.1054077-0.2088432,0.1706028-0.3149948
			c0.0365143-0.0593948,0.0922089-0.0987473,0.1049747-0.1837387c0.3182659,0.0013561,0.6865501,0.0040073,0.9712582,0.0656261
			c0.1917591,0.0415096,0.4021454,0.0014172,0.5775013,0.0394115c0.1548119,0.0334911,0.378027-0.0344181,0.4987335,0.0393524
			c0.0150509,0.0219555,0.0217113,0.0896187,0.0262756,0.1181126c0.205574,0.0175171,0.4112759,0.0350342,0.6168499,0.0524902
			c0.0038242,0.0993652,0.0372543,0.0971432,0.0525513,0.1443901C29.3396454,21.9941368,29.1677456,22.281744,29.1349335,22.3230095
			z M32.2587204,14.9467726c0.0043182,0,0.0086975,0,0.0130768,0c-0.0165291,0.0380554-0.0182571,0.0122728-0.0393524-0.0131378
			C32.2550812,14.9421463,32.2452736,14.9362249,32.2587204,14.9467726z M31.9568024,23.0448971
			c-0.0043774,0.0043793-0.0087585,0.0086975-0.0130749,0.0130768c-0.064888-0.000864-0.2047119-0.0134468-0.2231541-0.0262127
			c-0.1416149-0.0063553-0.1950302,0.0296669-0.2231541,0.1312523c-0.1487083-0.0131378-0.2974777-0.0262775-0.4462471-0.0394135
			c-0.0043163-0.0043812-0.0086975-0.0087585-0.0130768-0.0130768c0.0069084-0.1756611,0.0416355-0.2955647,0.0524902-0.4593849
			c0.063158-0.0017242,0.1845417-0.0183773,0.2230911-0.0524864c0.0736465-0.0014801,0.079073-0.0022831,0.078764,0.0393505
			c0.1459312,0.0078945,0.4296551,0.0510693,0.5381489-0.0262756c0.030283,0.0043182,0.0325661,0.0061073,0.0524883,0.0131378
			C31.9688911,22.7440281,31.9695072,22.9256096,31.9568024,23.0448971z M32.2455826,22.0736408
			c-0.063343,0.1017094-0.1595001,0.2043419-0.1968765,0.3281307c-0.0817871-0.0196133-0.0997982-0.1014614-0.1575298-0.1443901
			c-0.095295-0.0708065-0.2406712-0.1026955-0.3281307-0.1837406c-0.0043182,0-0.0086975,0-0.0130768,0
			c0.0016041-0.0907288-0.0089436-0.1221237-0.0394115-0.1706657c-0.0130768,0-0.0262165,0-0.0393524,0
			c0.0349712-0.1049786,0.0700054-0.2099533,0.1049786-0.3149948c0.031023-0.0352192,0.0832653-0.0146179,0.1050377-0.0656261
			c0.0577946-0.1355686-0.0204144-0.2387581-0.0131378-0.3280678c0.0056133-0.0690823,0.0592728-0.2166176,0.0131378-0.2887802
			c-0.0043774-0.0131397-0.0087585-0.0262775-0.0131378-0.0393524c-0.030653,0-0.0612469,0-0.0918999,0
			c0.0060425-0.1928082,0.0292969-0.3634129,0.0656261-0.5250111c0-0.0831413,0-0.1662846,0-0.2493668
			c0.0077705-0.0263977,0.0248547-0.0405865,0.0262737-0.0919018c0-0.0524883,0-0.1049786,0-0.1574669
			c0.0289268-0.0842514,0.1997795-0.2650337,0.1312542-0.3937569c-0.0046883-0.0838833-0.03232-0.0825253-0.0656281-0.1312523
			c-0.1049767-0.0131378-0.2100163-0.0262775-0.3149929-0.0393524c0.0099297-0.2946377,0.1223087-0.7064686,0.1968784-0.9712563
			c0.030777-0.1094799,0.0217113-0.1941032,0.0524883-0.301918c0.1131821-0.396656,0.1715908-0.8113251,0.301857-1.2074871
			c0.0581627-0.1768951,0.1737518-0.4497623,0.1837425-0.6431255c0.0043793,0,0.0087585,0,0.0131378,0
			c0.0156021,0.0452118-0.003273,0.1245918,0.013134,0.1838036c0.0714264,0.2580643,0.0444717,0.5565891,0.1049805,0.839941
			c0.0590286,0.2763214,0.0587807,0.7007351,0.1312485,1.0106716c0.031456,0.1345196-0.0088158,0.2324047,0.0262794,0.3674831
			c0.0486641,0.1876869,0.0286827,0.4096088,0.078701,0.6168499c0.0148048,0.0611839,0.0534744,0.2068081,0.0525513,0.2625046
			c-0.0024681,0.1397038,0.0136909,0.3682842,0.0524902,0.5118732c0.030468,0.1128101-0.0195541,0.2298164,0,0.3281326
			c0.0014801,0.0075855,0.0284309,0.0833874,0.0262108,0.0918388c-0.0106087,0.0411396-0.0774689,0.0857964-0.0918388,0.1312523
			c-0.0215874,0.0682774,0.0125237,0.2401161,0.0262108,0.301918c0.0419464,0.189106-0.0309601,0.4107208,0.0919037,0.5118713
			c-0.0207253,0.1017094-0.096714,0.1725788-0.1443901,0.2493687
			C32.4284592,21.7322483,32.3514824,21.9035301,32.2455826,22.0736408z M32.6918297,23.1236
			c-0.1181145-0.0086956-0.2362938-0.0174561-0.3544044-0.0262127c-0.0043831-0.0043812-0.0087624-0.0087605-0.0130806-0.0131378
			c-0.0005531-0.2908783,0.1424179-0.3994961,0.2624435-0.5906372c0.0351601-0.0558815,0.0474358-0.1129341,0.0919037-0.1574669
			c0.0141258-0.0099907,0.0121498-0.0082645,0.0393524-0.0131359c0.0017891,0.109417,0.0366974,0.3552074-0.0130806,0.4331074
			C32.7060127,22.870285,32.7225456,23.0325012,32.6918297,23.1236z M32.9149208,20.0130119
			c-0.0269508-0.0052433-0.0252876-0.0032692-0.0393524-0.0131378c0,0-0.0514984-0.0029602-0.0262718-0.0131378
			c0.0043793-0.0043163,0.0087585-0.0086956,0.0131378-0.0130768c0.0218964,0,0.0437279,0,0.0656281,0
			C32.9236832,19.9867363,32.9193001,19.9998741,32.9149208,20.0130119z M5.0113454,18.792387
			c0.0043793-0.0043793,0.0087585-0.0087585,0.0131378-0.0131378c-0.0087585,0-0.0175171,0-0.0262752,0
			C4.9858103,18.7930641,5.0022788,18.7941132,5.0113454,18.792387z M12.0815926,23.1095371
			c-0.0117807,0.0036392-0.0188732-0.000803-0.0090666,0.0271988c0.0183191,0.0095615,0.016592,0.0042572,0.0394125-0.0131359
			c0.0226364-0.0084496,0.0128288-0.0025291,0.0262136-0.0130768c-0.0130758-0.0043793-0.0262136-0.0087566-0.0393505-0.0131359
			c-0.0051203,0.0084476-0.0074015,0.0053635-0.0115957,0.0081406c-0.000062,0.0017262-0.001543,0.0032692-0.001543,0.0049953
			C12.0822716,23.1100922,12.0838137,23.1099682,12.0815926,23.1095371z M21.194397,24.8429604c0.0087585,0,0.0174561,0,0.0262146,0
			c0-0.0086975,0-0.0174561,0-0.0262146c-0.0087585,0-0.0174561,0-0.0262146,0
			C21.194397,24.8255043,21.194397,24.8342628,21.194397,24.8429604z"/>
	</g>
</g>
</svg>
