<?xml version="1.0" encoding="utf-8"?>
<!-- Generator: Adobe Illustrator 17.1.0, SVG Export Plug-In . SVG Version: 6.00 Build 0)  -->
<!DOCTYPE svg PUBLIC "-//W3C//DTD SVG 1.1//EN" "http://www.w3.org/Graphics/SVG/1.1/DTD/svg11.dtd">
<svg version="1.1" id="Layer_1" xmlns="http://www.w3.org/2000/svg" xmlns:xlink="http://www.w3.org/1999/xlink" x="0px" y="0px"
	 viewBox="0 0 60 60" enable-background="new 0 0 60 60" xml:space="preserve">
<g id="base">
	<g>
		
			<linearGradient id="SVGID_1_" gradientUnits="userSpaceOnUse" x1="-12.6099606" y1="85" x2="-12.6099606" y2="90.3407974" gradientTransform="matrix(4 0 3.0474641 -4 -185.8804321 400)">
			<stop  offset="0" style="stop-color:#000000;stop-opacity:0.4"/>
			<stop  offset="1" style="stop-color:#000000;stop-opacity:0"/>
		</linearGradient>
		<path fill="url(#SVGID_1_)" d="M10.9777107,51.3203468c-1.2281895-1.3760834-1.2459393-2.8060074-0.0538082-4.3707581
			c3.5513048-4.6613235,15.8794746-8.3127785,28.0664539-8.3127785c12.1864014,0,18.9507294,3.6514549,15.3994217,8.3127785
			c-1.1922951,1.5649719-3.388279,2.9948997-6.7130814,4.3707581l-24.9622326,8.6796608L10.9777107,51.3203468z"/>
		
			<linearGradient id="SVGID_2_" gradientUnits="userSpaceOnUse" x1="5.7339597" y1="85.5998688" x2="5.7339597" y2="99.6992722" gradientTransform="matrix(4 0 0 -4 0 400)">
			<stop  offset="0" style="stop-color:#006699"/>
			<stop  offset="1" style="stop-color:#007BB8"/>
		</linearGradient>
		<path fill="url(#SVGID_2_)" d="M4.5866413,34.686718C2.3100612,31.0539417,1.202901,27.2790241,1.202901,23.1481705
			c0-12.3056307,9.5462475-21.9452667,21.7332325-21.9452667c12.1863976,0,21.7326431,9.639637,21.7326431,21.9452667
			c0,4.131443-1.1065712,7.9063587-3.383152,11.5385475L22.9361343,57.6005287L4.5866413,34.686718z"/>
		<path fill="#FFFFFF" d="M22.9358578,2.4058051c11.5122089,0,20.5301151,9.1112213,20.5301151,20.7425861
			c0,3.8765488-1.0349464,7.4239712-3.1630898,10.8400307L22.9358578,55.6755371L5.5689535,33.9884758
			c-2.1281793-3.4162006-3.163157-6.9636707-3.163157-10.8400841C2.4057965,11.5170269,11.4236746,2.4058051,22.9358578,2.4058051
			 M22.9358578,0.0000076C10.1573973,0.0000076,0,10.25142,0,23.1483917c0,4.6296749,1.3107049,8.5979481,3.6042993,12.2355232
			l19.3315582,24.1404457l19.3316555-24.1404457c2.2936401-3.6375751,3.6042557-7.6058483,3.6042557-12.2355232
			C45.871769,10.25142,35.7144241,0.0000076,22.9358578,0.0000076L22.9358578,0.0000076z"/>
	</g>
</g>
<path opacity="0.6" enable-background="new    " d="M15.0439787,25.7916584
	c-0.9390574-0.6559181-1.2823505,0.1645374-1.8410473,0.6749592c0.0797653-0.3083591,0.1595316-0.6167183,0.2535067-0.9800053
	c-0.3481722-0.0603485-0.6909428-0.1197643-1.0565414-0.1831322c-0.2074156,0.3410702-0.4101439,0.6744308-0.6128721,1.0077896
	c-0.0831842-0.0369358-0.1663637-0.0738716-0.2495489-0.1108093c0.0976601-0.2847176,0.1953144-0.5694313,0.2953138-0.8609715
	c-0.9297619-0.6879387-1.2990465,0.0308781-1.8309088,0.6642227c0.0630417-0.317358,0.1260824-0.6347179,0.2040176-1.027071
	c-0.348897-0.0455742-0.6944561-0.0907097-1.0367289-0.1354141c-0.2211857,0.3401127-0.4284306,0.6587849-0.6356754,0.9774551
	c-0.0691147-0.0354996-0.1382322-0.0709991-0.207346-0.1064968c0.0929298-0.2992382,0.1858597-0.5984764,0.2713394-0.8737354
	c-0.9367208-0.6371918-1.3243489,0.0248032-1.6521678,0.825428c-0.0614829-0.0456791-0.1229634-0.0913563-0.1844473-0.1370316
	c0.0615301-0.3198128,0.1230597-0.6396236,0.1969094-1.023468c-0.5612149-0.1034718-1.124867-0.2073917-1.6929646-0.31213
	c0.3497148-1.3595486,1.2059646-2.0587349,2.4502082-2.0581264c3.4187217,0.0016804,6.8374419,0.0010643,10.2561665,0.0013485
	c0.3871365,0.0000324,0.7742748,0.0000038,1.3075695,0.0000038c-0.0908718,1.2489986-0.1654472,2.3917961-0.2694473,3.531908
	c-0.0111446,0.1221981-0.1858654,0.3169651-0.2982578,0.3270473c-0.4484024,0.0402336-0.9579315-0.1057587-1.337141,0.0614357
	c-0.3318901,0.1463356-0.5195427,0.6198101-0.9396839,0.8640175c0.0744457-0.280674,0.1488914-0.561348,0.2409916-0.9085884
	c-0.3316364-0.0808525-0.6673126-0.1626911-1.0462694-0.2550812c-0.1999922,0.3585453-0.3912086,0.7013454-0.5824194,1.0441513
	c-0.0771494-0.0278168-0.1543045-0.0556297-0.2314539-0.0834427C14.8917513,26.4079189,14.9684238,26.0999146,15.0439787,25.7916584
	z M15.4691553,22.6440468c0.3467026,0.912632,0.6600542,1.7374725,1.0068655,2.6503849
	c0.6644039-0.9407215,1.2387619-1.7539558,1.8718777-2.6503849C17.3634243,22.6440468,16.480835,22.6440468,15.4691553,22.6440468z
	 M16.1972885,25.3710232c-0.348628-0.9472961-0.6578693-1.7875729-1.0073004-2.7370396
	c-0.6544657,0.7863865-1.2358589,1.484972-1.9128456,2.2984142C14.314414,25.0882015,15.1877403,25.2193832,16.1972885,25.3710232z
	 M11.8449659,22.6376705c0.3893795,0.7829227,0.7392092,1.4863377,1.1217451,2.2554932
	c0.6434164-0.7750931,1.2232399-1.4735813,1.8723173-2.2554932C13.7792215,22.6376705,12.8669939,22.6376705,11.8449659,22.6376705z
	 M11.4862547,22.5068684c-0.5858946,0.700613-1.1091661,1.3263493-1.6024466,1.916214
	c0.786211,0.1157246,1.6982203,0.2499619,2.7445841,0.4039803C12.2247238,24.0070324,11.8815098,23.3098125,11.4862547,22.5068684z
	 M18.7574615,22.7596626c-0.0464287-0.016819-0.0928574-0.0336361-0.1392918-0.0504551
	c-0.6149826,0.8745651-1.2299671,1.7491283-1.9359074,2.753046c0.7005367,0,1.2453651,0,1.8918533,0
	C18.6337605,24.5830631,18.69561,23.6713638,18.7574615,22.7596626z M8.5743799,22.6412544
	c0.2145596,0.5835838,0.401248,1.0913715,0.6271639,1.7058411c0.6282797-0.589222,1.1775646-1.1043549,1.8189173-1.7058411
	C10.1141729,22.6412544,9.4003334,22.6412544,8.5743799,22.6412544z M6.6716518,23.9638805
	c0.8253479,0.1061192,1.4626141,0.188055,2.2208138,0.2855396c-0.2506762-0.6155415-0.4427414-1.0871658-0.6623449-1.6264114
	C7.707304,23.0728245,7.2664089,23.4521656,6.6716518,23.9638805z M7.8337779,22.6791973
	c-1.2395134-0.3175335-1.4547887,0.5141487-1.8537207,1.1015778c0.0516577,0.0700836,0.1033168,0.1401672,0.1549745,0.2102489
	C6.6608276,23.5849876,7.186625,23.1789513,7.8337779,22.6791973z"/>
<path opacity="0.6" enable-background="new    " d="M41.6017303,24.1643696
	c-0.7566147,0.1331291-1.3026772,0.2292118-1.8971138,0.3338089c0.0834923,0.355505,0.1601601,0.6819916,0.2368355,1.0084782
	c-0.0712776,0.0309715-0.1425514,0.0619411-0.2138176,0.0929184c-0.1799202-0.3208466-0.3598328-0.641695-0.5827026-1.0391426
	c-0.3252831,0.0608864-0.676342,0.1265945-1.0763435,0.2014675c0.1016159,0.3244114,0.1944733,0.6208382,0.2873306,0.9172668
	c-0.0595894,0.0379581-0.1191826,0.0759163-0.178772,0.1138783c-0.1999779-0.2779732-0.3999596-0.5559483-0.6615944-0.9196186
	c-0.2517853,0.0164566-0.6077957,0.0397301-1.0307922,0.0673809c0.078083,0.3737469,0.1479683,0.7082787,0.2178497,1.0428066
	c-0.5426521-0.4950562-0.8914375-1.3692265-1.8480949-0.6570339c0.0879593,0.2819157,0.1818047,0.5827007,0.27565,0.8834896
	c-0.0668488,0.0339756-0.1337013,0.0679531-0.2005539,0.1019268c-0.2092018-0.323576-0.4183922-0.6471519-0.6420174-0.993042
	c-0.3386574,0.049551-0.693058,0.1014042-1.0548668,0.1543427c0.0859795,0.3421898,0.1647911,0.655817,0.2435989,0.9694443
	c-0.0471687,0.058054-0.0943413,0.1161041-0.1415062,0.1741543c-0.4226875-0.6202812-0.7422104-1.4959297-1.7163429-0.8076572
	c0.0850201,0.2632141,0.1810589,0.5605297,0.2770958,0.8578491c-0.6241131-0.2856426-0.8325272-1.5059357-1.8543911-0.5474186
	c0.0433769,0.1797314,0.1161995,0.4814262,0.2021885,0.8376694c-0.0886002-0.037281-2.5036831-1.0536003-2.6078739-1.0974445
	c-0.0648918-1.1541729-0.1325798-2.3580284-0.2096806-3.7294407c0.7130375,0,1.3496571-0.0001583,1.986269,0.0000286
	c3.1655788,0.0009136,6.3318729,0.0396519,9.4962826-0.0206242c0.922226-0.0175686,1.5680122,0.2061443,2.0023613,1.0240402
	C41.0758896,23.4448948,41.3026924,23.723156,41.6017303,24.1643696z M30.2231178,25.3191032
	c0.3466797-0.9566383,0.6531563-1.8023262,0.9716339-2.6811409c-0.986433,0-1.8716602,0-2.8699837,0
	C28.9727421,23.5531349,29.5601101,24.3827,30.2231178,25.3191032z M33.4123726,24.9267025
	c-0.7040749-0.8334351-1.2934418-1.5310879-1.9273205-2.281435c-0.3453121,0.938158-0.6530209,1.7741528-1.0017071,2.7214813
	C31.4834309,25.2164974,32.3737297,25.0827427,33.4123726,24.9267025z M31.8273354,22.6347027
	c0.661087,0.7885036,1.2445641,1.484436,1.9003983,2.2666836c0.3857498-0.8038387,0.7323647-1.5261173,1.0877495-2.2666836
	C33.7748985,22.6347027,32.8654709,22.6347027,31.8273354,22.6347027z M37.1062813,24.3761845
	c-0.7189217-0.6833134-1.2954369-1.231266-1.9304199-1.8348045c-0.3870811,0.7845554-0.7276688,1.4748745-1.129528,2.2893867
	C35.1080666,24.6730347,36.01968,24.537611,37.1062813,24.3761845z M28.0732002,22.7156487
	c-0.0496101,0.0126095-0.0992146,0.025219-0.1488171,0.0378304c0.0653057,0.9243069,0.1306114,1.8486118,0.1989956,2.8164177
	c0.6753006-0.0331268,1.2060585-0.0591621,1.8883228-0.0926323C29.2832184,24.4394569,28.6782131,23.5775528,28.0732002,22.7156487z
	 M35.6166725,22.6276169c0.7028008,0.6424732,1.2473373,1.1402645,1.8798866,1.718523
	c0.2215996-0.6340942,0.3989258-1.1415176,0.6005783-1.718523C37.2656288,22.6276169,36.5529594,22.6276169,35.6166725,22.6276169z
	 M40.0128403,23.9654846c-0.6018867-0.5145473-1.0608177-0.9068813-1.5791359-1.3499794
	c-0.2156105,0.5685349-0.3986206,1.0511112-0.6224709,1.641367C38.5506096,24.1590176,39.1782837,24.075943,40.0128403,23.9654846z
	 M40.5267906,24.0063686c0.0723686-0.0959492,0.1447411-0.1918964,0.2171097-0.2878456
	c-0.5089989-0.4358902-0.6398888-1.4495754-1.8317757-1.0010414C39.4929008,23.181078,40.0098495,23.5937214,40.5267906,24.0063686z
	"/>
<path opacity="0.6" enable-background="new    " d="M21.3992214,18.6194668
	c0.7374306,2.0905132-0.476614,3.0907478-2.0094109,4.0168324c0-0.3502808,0-0.6477814,0-1.0092716
	c-0.9216805,0-1.7798786,0-2.7536411,0c0-0.7264805-0.1694317-1.4562778,0.0557842-2.0315704
	c0.1678982-0.4288635,0.8202114-0.8749142,1.30229-0.932518C19.1292953,18.5273151,20.291563,18.6194668,21.3992214,18.6194668z"/>
<path opacity="0.6" enable-background="new    " d="M21.1772594,25.9856853c1.2876186,0,2.5452099,0,3.8578358,0
	c0,1.0967026,0,2.1483326,0,3.2539082c-1.2883186,0-2.5410862,0-3.8578358,0
	C21.1772594,28.1563778,21.1772594,27.0786152,21.1772594,25.9856853z"/>
<path opacity="0.6" enable-background="new    " d="M21.8907757,21.8129272
	c0.0008621-1.0165577,0.0269089-2.0340328-0.0089436-3.0493279c-0.0213661-0.6051311,0.1599007-0.8820801,0.8082161-0.8651581
	c1.2418842,0.0324116,2.4854889,0.0248528,3.7278194,0.0027332c0.5606575-0.0099812,0.8221245,0.1753464,0.8192806,0.7736626
	c-0.0097885,2.0599937,0.0081635,4.1201839,0.0261097,6.1802063c0.0053158,0.6107712-0.1893215,0.9405365-0.883604,0.9170895
	c-1.2130909-0.0409622-2.4296684-0.0441818-3.6425495-0.0007935c-0.6984558,0.0249863-0.8772545-0.2757053-0.8562412-0.9085617
	C21.9145851,23.8471813,21.8899097,22.8296432,21.8907757,21.8129272z M22.4339333,25.1870975c1.461668,0,2.8302479,0,4.1744919,0
	c0-2.2801304,0-4.4970436,0-6.6949673c-1.430357,0-2.7956467,0-4.1744919,0
	C22.4339333,20.7568989,22.4339333,22.9516811,22.4339333,25.1870975z"/>
<path opacity="0.6" enable-background="new    " d="M18.841568,30.4460373
	c-0.0001335,0.9312515-0.0155926,1.8628464,0.0055084,2.7936211c0.0132084,0.5828896-0.2629223,0.9597397-0.8075581,0.9805946
	c-0.5704155,0.021843-0.8600483-0.4121819-0.8653526-0.9488945c-0.0189552-1.9186935-0.0211277-3.8378696,0.0026054-5.7564659
	c0.0065174-0.5270252,0.2568016-0.9341698,0.8775272-0.9135494c0.6215649,0.020647,0.798336,0.4082241,0.7909184,0.9664478
	C18.8324776,28.5270538,18.8416977,29.4866066,18.841568,30.4460373z"/>
<path opacity="0.6" enable-background="new    " d="M28.8810635,30.4783993c0,0.9310188-0.0088387,1.862154,0.0032578,2.7930126
	c0.0074348,0.5725479-0.2387028,0.9532051-0.8182774,0.950325c-0.5299702-0.0026321-0.8088779-0.3713799-0.8118324-0.8939171
	c-0.0109711-1.9443474-0.0177727-3.8888645-0.0022316-5.8331261c0.0043468-0.5433044,0.2597904-0.9249535,0.8801174-0.8935089
	c0.578434,0.0293236,0.7543812,0.4073296,0.7557507,0.9163494c0.0026627,0.986948,0.000782,1.9739075,0.000782,2.9608612
	C28.8861103,30.4783955,28.883585,30.4783955,28.8810635,30.4783993z"/>
<path opacity="0.6" enable-background="new    " d="M21.5203762,21.6962452c0,1.1834755,0,2.4087276,0,3.6879063
	c-0.2720013,0.0242844-0.5130024,0.0457993-0.7963142,0.0710907c-0.0394058,0.3739338-0.0763988,0.7250252-0.1166325,1.1068287
	c-0.4007435,0-0.7584629,0-1.1151829,0C19.0409393,24.4832039,19.2966232,22.690815,21.5203762,21.6962452z"/>
<path opacity="0.6" enable-background="new    " d="M27.5282078,21.8067608c0-1.3069496,0-2.5409718,0-3.8273354
	c0.439661,0,0.8461933,0,1.3062725,0c0,1.2618542,0,2.5175323,0,3.8273354
	C28.4166679,21.8067608,28.0084877,21.8067608,27.5282078,21.8067608z"/>
<path opacity="0.6" enable-background="new    " d="M26.8815575,17.4019794
	c-2.6126041,0.4585037-4.5791321,0.2842579-5.3057594-0.4792862C23.4537144,17.1149311,25.2227154,16.6368237,26.8815575,17.4019794
	z"/>
<path opacity="0.6" enable-background="new    " d="M19.225975,29.3654747
	c-0.4253273-1.5302963,0.8848457-1.7751427,1.5659447-2.5318813C21.2535229,28.3784695,19.8302174,28.5452843,19.225975,29.3654747z
	"/>
<path opacity="0.6" enable-background="new    " d="M26.8250732,29.257494
	c-0.6051121-0.710125-1.9180126-0.9360657-1.483078-2.3150177C27.0296078,27.9666367,27.1822529,28.2013626,26.8250732,29.257494z"
	/>
<path fill="#FFFFFF" d="M14.4376507,25.1853313c-0.9390574-0.65592-1.2823496,0.1645374-1.8410473,0.6749611
	c0.0797663-0.3083591,0.1595316-0.6167221,0.2535076-0.9800091c-0.3481722-0.0603485-0.6909428-0.1197605-1.0565434-0.1831284
	c-0.2074146,0.3410664-0.4101439,0.674427-0.6128712,1.0077896c-0.0831842-0.0369358-0.1663637-0.0738735-0.2495489-0.1108131
	c0.0976601-0.2847137,0.1953135-0.5694313,0.2953148-0.8609715c-0.9297619-0.6879349-1.2990475,0.03088-1.8309107,0.6642246
	c0.0630426-0.3173561,0.1260834-0.6347198,0.2040195-1.027071c-0.3488979-0.0455742-0.6944571-0.0907078-1.0367289-0.135416
	c-0.2211866,0.3401127-0.4284315,0.6587849-0.6356759,0.9774551c-0.0691142-0.0354977-0.1382322-0.0709972-0.207346-0.1064949
	c0.0929294-0.2992382,0.1858592-0.5984783,0.2713394-0.8737373c-0.9367213-0.6371899-1.3243499,0.0248051-1.6521678,0.825428
	c-0.0614834-0.0456772-0.1229639-0.0913525-0.1844473-0.1370296c0.0615296-0.3198128,0.1230593-0.6396217,0.1969094-1.0234699
	c-0.5612149-0.1034718-1.124867-0.2073879-1.6929646-0.31213c0.3497138-1.3595486,1.2059646-2.0587349,2.4502082-2.0581226
	c3.4187202,0.0016766,6.8374424,0.0010624,10.2561646,0.0013447c0.3871365,0.0000324,0.7742729,0.0000038,1.3075695,0.0000038
	c-0.0908737,1.2490005-0.1654491,2.391798-0.2694473,3.531908c-0.0111446,0.1222-0.1858654,0.316967-0.2982597,0.3270493
	c-0.4484005,0.0402317-0.9579296-0.1057568-1.3371391,0.0614376c-0.3318901,0.1463318-0.5195427,0.6198063-0.9396839,0.8640137
	c0.0744448-0.280674,0.1488905-0.5613461,0.2409916-0.9085846c-0.3316364-0.0808544-0.6673136-0.1626949-1.0462694-0.255085
	c-0.1999922,0.3585472-0.3912086,0.7013493-0.5824194,1.0441513c-0.0771494-0.0278168-0.1543055-0.0556278-0.2314529-0.0834427
	C14.2854233,25.80159,14.3620968,25.4935894,14.4376507,25.1853313z M14.8628283,22.0377178
	c0.3467016,0.912632,0.6600542,1.7374725,1.0068655,2.6503849c0.664402-0.9407196,1.23876-1.7539539,1.8718777-2.6503849
	C16.7570953,22.0377178,15.874507,22.0377178,14.8628283,22.0377178z M15.5909615,24.7646961
	c-0.348628-0.947298-0.6578693-1.7875748-1.0073013-2.7370415c-0.6544666,0.7863903-1.2358589,1.484972-1.9128447,2.2984142
	C13.708086,24.4818764,14.5814123,24.6130543,15.5909615,24.7646961z M11.2386379,22.0313416
	c0.3893795,0.7829227,0.7392101,1.4863377,1.1217461,2.2554932c0.6434145-0.7750912,1.223238-1.4735794,1.8723164-2.2554932
	C13.1728935,22.0313416,12.2606668,22.0313416,11.2386379,22.0313416z M10.8799267,21.9005413
	c-0.5858946,0.7006111-1.1091671,1.3263493-1.6024466,1.9162121c0.786211,0.1157246,1.6982212,0.2499657,2.7445831,0.4039803
	C11.6183968,23.4007034,11.2751818,22.7034836,10.8799267,21.9005413z M18.1511326,22.1533375
	c-0.0464268-0.0168228-0.0928574-0.0336399-0.1392899-0.050457c-0.6149845,0.8745651-1.229969,1.7491264-1.9359074,2.7530479
	c0.7005367,0,1.2453651,0,1.8918514,0C18.0274315,23.976738,18.089283,23.0650368,18.1511326,22.1533375z M7.9680514,22.0349274
	c0.21456,0.5835819,0.4012485,1.0913696,0.6271644,1.705843c0.6282806-0.5892239,1.1775646-1.1043568,1.8189182-1.705843
	C9.5078468,22.0349274,8.7940054,22.0349274,7.9680514,22.0349274z M6.0653238,23.3575535
	c0.8253484,0.1061192,1.462615,0.1880531,2.2208147,0.2855396c-0.2506771-0.6155434-0.4427428-1.0871677-0.6623454-1.6264133
	C7.100976,22.4664993,6.6600804,22.8458366,6.0653238,23.3575535z M7.2274504,22.0728703
	c-1.2395139-0.3175335-1.4547887,0.5141468-1.8537216,1.1015759c0.0516586,0.0700855,0.1033173,0.1401672,0.1549754,0.2102509
	C6.0544991,22.9786587,6.5802975,22.5726242,7.2274504,22.0728703z"/>
<path fill="#FFFFFF" d="M40.9954033,23.5580406c-0.7566147,0.1331329-1.3026848,0.2292156-1.8971176,0.3338108
	c0.0834961,0.3555069,0.1601639,0.6819897,0.2368355,1.0084763c-0.0712738,0.0309715-0.1425476,0.061945-0.2138138,0.0929184
	c-0.179924-0.3208466-0.3598328-0.6416912-0.5827065-1.0391407c-0.3252792,0.0608845-0.6763382,0.1265926-1.0763435,0.2014675
	c0.1016197,0.3244114,0.1944733,0.6208363,0.2873344,0.9172649c-0.0595894,0.0379601-0.1191826,0.0759182-0.1787682,0.1138783
	c-0.1999817-0.2779732-0.3999672-0.5559483-0.661602-0.9196186c-0.2517815,0.0164585-0.6077919,0.0397301-1.0307884,0.0673809
	c0.078083,0.3737507,0.1479683,0.7082787,0.2178497,1.0428066c-0.5426521-0.4950562-0.8914375-1.3692265-1.8480949-0.6570301
	c0.0879593,0.2819118,0.1818047,0.5827007,0.27565,0.8834858c-0.0668488,0.0339775-0.1336975,0.0679531-0.2005539,0.1019287
	c-0.209198-0.3235741-0.4183922-0.6471539-0.6420174-0.9930439c-0.3386574,0.049551-0.6930542,0.101408-1.0548706,0.1543465
	c0.0859833,0.3421879,0.1647949,0.6558151,0.2435989,0.9694424c-0.0471649,0.058054-0.0943336,0.1161041-0.1415062,0.1741543
	c-0.4226837-0.6202831-0.7422085-1.4959316-1.7163391-0.8076572c0.0850182,0.2632122,0.1810589,0.5605297,0.2770977,0.8578491
	c-0.6241169-0.2856445-0.8325291-1.5059338-1.854393-0.5474205c0.0433769,0.1797352,0.1162014,0.4814301,0.2021866,0.8376713
	c-0.0885963-0.0372829-2.5036812-1.0536022-2.607872-1.0974464c-0.0648937-1.154171-0.1325779-2.3580265-0.2096825-3.7294407
	c0.7130375,0,1.3496571-0.0001545,1.9862709,0.0000286c3.1655769,0.0009136,6.3318691,0.0396519,9.4962788-0.0206242
	c0.9222298-0.0175667,1.5680161,0.2061481,2.0023689,1.0240421C40.4695625,22.8385677,40.6963654,23.1168289,40.9954033,23.5580406z
	 M29.6167908,24.7127762c0.3466797-0.9566364,0.6531582-1.8023262,0.971632-2.6811409c-0.986433,0-1.8716602,0-2.8699837,0
	C28.3664169,22.946806,28.953783,23.7763729,29.6167908,24.7127762z M32.8060455,24.3203754
	c-0.7040787-0.833437-1.2934437-1.5310898-1.9273205-2.2814369c-0.345314,0.938158-0.653019,1.7741547-1.0017071,2.7214813
	C30.8771038,24.6101704,31.7674046,24.4764175,32.8060455,24.3203754z M31.2210064,22.0283775
	c0.661087,0.7885017,1.2445621,1.4844341,1.9004002,2.2666836c0.3857498-0.8038406,0.7323647-1.5261211,1.0877457-2.2666836
	C33.1685753,22.0283775,32.2591438,22.0283775,31.2210064,22.0283775z M36.4999542,23.7698574
	c-0.7189217-0.6833115-1.2954369-1.2312679-1.9304199-1.8348064c-0.3870811,0.7845554-0.7276688,1.4748745-1.1295319,2.2893867
	C34.5017357,24.0667095,35.413353,23.931282,36.4999542,23.7698574z M27.4668732,22.1093197
	c-0.049612,0.0126095-0.0992146,0.025219-0.148819,0.0378323c0.0653057,0.924305,0.1306114,1.8486099,0.1989975,2.8164177
	c0.6753006-0.0331249,1.2060604-0.059164,1.8883247-0.0926323C28.6768894,23.8331299,28.0718842,22.9712257,27.4668732,22.1093197z
	 M35.0103416,22.0212879c0.7028046,0.642477,1.2473373,1.1402664,1.8798904,1.718523
	c0.2215996-0.6340923,0.3989296-1.1415176,0.6005745-1.718523C36.6592979,22.0212879,35.9466286,22.0212879,35.0103416,22.0212879z
	 M39.4065132,23.3591557c-0.6018867-0.5145473-1.0608215-0.9068794-1.5791359-1.3499756
	c-0.2156105,0.568531-0.3986244,1.0511074-0.6224709,1.6413631C37.9442787,23.5526886,38.5719604,23.469614,39.4065132,23.3591557z
	 M39.9204636,23.4000397c0.0723686-0.0959473,0.1447411-0.1918964,0.2171097-0.2878437
	c-0.5089989-0.4358921-0.6398888-1.4495773-1.8317719-1.0010433C38.8865738,22.574749,39.4035149,22.9873962,39.9204636,23.4000397z
	"/>
<path fill="#FFFFFF" d="M20.7928944,18.0131397c0.7374287,2.0905113-0.476614,3.0907478-2.0094109,4.0168304
	c0-0.3502789,0-0.6477776,0-1.0092716c-0.9216824,0-1.7798805,0-2.753643,0c0-0.7264805-0.1694298-1.4562759,0.0557861-2.0315704
	c0.1678982-0.4288635,0.8202095-0.8749123,1.30229-0.9325161C18.5229664,17.9209881,19.6852341,18.0131397,20.7928944,18.0131397z"
	/>
<path fill="#FFFFFF" d="M20.5709305,25.3793583c1.2876186,0,2.5452118,0,3.8578377,0c0,1.0967026,0,2.1483326,0,3.2539082
	c-1.2883205,0-2.5410862,0-3.8578377,0C20.5709305,27.5500507,20.5709305,26.4722862,20.5709305,25.3793583z"/>
<path fill="#FFFFFF" d="M21.2844467,21.2066021c0.0008659-1.0165596,0.0269089-2.0340385-0.0089436-3.0493298
	c-0.0213623-0.6051311,0.1599007-0.8820801,0.8082199-0.86516c1.2418823,0.0324135,2.4854851,0.0248528,3.7278156,0.0027332
	c0.5606594-0.0099812,0.8221264,0.1753483,0.8192806,0.7736645c-0.0097866,2.0599937,0.0081654,4.1201839,0.0261097,6.1802044
	c0.0053158,0.6107712-0.1893177,0.9405365-0.8836021,0.9170895c-1.213089-0.0409622-2.4296684-0.0441818-3.6425514-0.0007935
	c-0.6984558,0.0249863-0.8772545-0.2757034-0.8562393-0.9085617C21.3082561,23.2408524,21.2835808,22.2233162,21.2844467,21.2066021
	z M21.8276081,24.5807686c1.4616642,0,2.8302479,0,4.17449,0c0-2.2801304,0-4.4970417,0-6.6949654
	c-1.430357,0-2.7956467,0-4.17449,0C21.8276081,20.1505718,21.8276081,22.3453522,21.8276081,24.5807686z"/>
<path fill="#FFFFFF" d="M18.235239,29.8397102c-0.0001335,0.9312496-0.0155907,1.8628483,0.0055084,2.7936172
	c0.0132103,0.5828934-0.2629204,0.9597435-0.8075562,0.9805984c-0.5704155,0.0218391-0.8600483-0.4121819-0.8653545-0.9488945
	c-0.0189552-1.9186954-0.0211258-3.8378716,0.0026073-5.7564678c0.0065155-0.5270233,0.2567997-0.934166,0.8775253-0.9135494
	c0.6215649,0.020647,0.7983379,0.4082241,0.7909184,0.9664516C18.2261505,27.9207268,18.2353706,28.8802795,18.235239,29.8397102z"
	/>
<path fill="#FFFFFF" d="M28.2747345,29.8720722c0,0.9310188-0.0088387,1.8621521,0.0032597,2.7930126
	c0.0074329,0.5725479-0.2387009,0.9532051-0.8182774,0.950325c-0.5299721-0.002636-0.8088779-0.3713799-0.8118324-0.8939171
	c-0.010973-1.9443493-0.0177727-3.8888645-0.0022335-5.8331261c0.0043468-0.5433064,0.2597942-0.9249554,0.8801193-0.8935089
	c0.5784359,0.0293217,0.7543793,0.4073296,0.7557526,0.9163494c0.0026608,0.986948,0.000782,1.9739056,0.000782,2.9608631
	C28.2797813,29.8720703,28.2772598,29.8720703,28.2747345,29.8720722z"/>
<path fill="#FFFFFF" d="M20.9140511,21.0899162c0,1.1834755,0,2.4087315,0,3.6879101
	c-0.2720051,0.0242825-0.5130062,0.0457993-0.7963181,0.0710907c-0.039402,0.37393-0.0763988,0.7250233-0.1166306,1.1068249
	c-0.4007454,0-0.758461,0-1.1151829,0C18.4346123,23.8768787,18.6902962,22.0844898,20.9140511,21.0899162z"/>
<path fill="#FFFFFF" d="M26.9218826,21.2004356c0-1.3069515,0-2.5409737,0-3.8273392c0.4396572,0,0.8461895,0,1.3062687,0
	c0,1.2618561,0,2.5175323,0,3.8273392C27.810339,21.2004356,27.4021587,21.2004356,26.9218826,21.2004356z"/>
<path fill="#FFFFFF" d="M26.2752304,16.7956524c-2.612606,0.4585037-4.579134,0.2842579-5.3057613-0.4792862
	C22.8473873,16.5086021,24.6163883,16.0304966,26.2752304,16.7956524z"/>
<path fill="#FFFFFF" d="M18.6196461,28.7591457c-0.4253273-1.5302963,0.8848476-1.7751427,1.5659466-2.5318775
	C20.6471977,27.7721424,19.2238922,27.9389572,18.6196461,28.7591457z"/>
<path fill="#FFFFFF" d="M26.2187443,28.651165c-0.6051121-0.710125-1.9180088-0.9360657-1.483078-2.3150139
	C26.4232807,27.3603077,26.5759258,27.5950356,26.2187443,28.651165z"/>
</svg>
