<?xml version="1.0" encoding="utf-8"?>
<!-- Generator: Adobe Illustrator 17.1.0, SVG Export Plug-In . SVG Version: 6.00 Build 0)  -->
<!DOCTYPE svg PUBLIC "-//W3C//DTD SVG 1.1//EN" "http://www.w3.org/Graphics/SVG/1.1/DTD/svg11.dtd">
<svg version="1.1" id="Layer_1" xmlns="http://www.w3.org/2000/svg" xmlns:xlink="http://www.w3.org/1999/xlink" x="0px" y="0px"
	 viewBox="0 0 50 50" enable-background="new 0 0 50 50" xml:space="preserve">
<g id="base">
	<g>
		
			<linearGradient id="SVGID_1_" gradientUnits="userSpaceOnUse" x1="-15.9602642" y1="88.1022644" x2="-15.9602642" y2="92.5149612" gradientTransform="matrix(4 0 3.0474641 -4 -185.8804321 400)">
			<stop  offset="0" style="stop-color:#000000;stop-opacity:0.4"/>
			<stop  offset="1" style="stop-color:#000000;stop-opacity:0"/>
		</linearGradient>
		<path fill="url(#SVGID_1_)" d="M9.0700502,40.4196053c-1.014761-1.1369553-1.0294247-2.3183899-0.0444584-3.6112251
			c2.9341745-3.8512993,13.1200037-6.8682213,23.1891861-6.8682213c10.0686951,0,15.657547,3.016922,12.7233696,6.8682213
			c-0.9851036,1.2930183-2.7994804,2.4744568-5.5465126,3.6112251L18.7672367,47.59095L9.0700502,40.4196053z"/>
		
			<linearGradient id="SVGID_2_" gradientUnits="userSpaceOnUse" x1="4.737536" y1="88.1022644" x2="4.737536" y2="99.7515335" gradientTransform="matrix(4 0 0 -4 0 400)">
			<stop  offset="0" style="stop-color:#007BB8"/>
			<stop  offset="1" style="stop-color:#0094DE"/>
		</linearGradient>
		<path fill="url(#SVGID_2_)" d="M3.7895937,28.6590061c-1.8809652-3.0014896-2.7957277-6.1204147-2.7957277-9.5334282
			c0-10.1672077,7.8873396-18.1317081,17.956522-18.1317081c10.0686951,0,17.9560337,7.9645004,17.9560337,18.1317081
			c0,3.4134979-0.9142761,6.5324249-2.7952423,9.5334282L18.950388,47.59095L3.7895937,28.6590061z"/>
		<path fill="#FFFFFF" d="M18.9501591,1.9877356c9.5116653,0,16.9624767,7.5279112,16.9624767,17.1380253
			c0,3.202898-0.8550987,6.1338634-2.6134186,8.9562931L18.9501591,46.000473L4.6012039,28.0820999
			c-1.7583532-2.8225479-2.613477-5.7535515-2.613477-8.9563389C1.987727,9.5156469,9.4385157,1.9877356,18.9501591,1.9877356
			 M18.9501591,0.0000076C8.3922863,0.0000076,0,8.4699717,0,19.125761c0,3.8251514,1.0829362,7.1038322,2.9779592,10.1092873
			l15.9722004,19.9454174l15.9722805-19.9454174c1.8950615-3.005455,2.9779243-6.2841358,2.9779243-10.1092873
			C37.9003639,8.4699717,29.5081196,0.0000076,18.9501591,0.0000076L18.9501591,0.0000076z"/>
	</g>
</g>
<path opacity="0.6" enable-background="new    " d="M12.3311625,21.1407547
	c-0.769721-0.5376396-1.0511093,0.1348667-1.509059,0.5532475c0.065382-0.2527542,0.130764-0.5055084,0.2077932-0.8032856
	c-0.285388-0.0494671-0.5663481-0.0981674-0.8660202-0.1501083C9.9938631,21.020174,9.827692,21.2934208,9.661521,21.5666676
	c-0.0681839-0.0302753-0.136364-0.0605507-0.2045488-0.0908279c0.0800495-0.2333755,0.1600943-0.4667492,0.2420616-0.7057171
	c-0.7621021-0.5638847-1.0647955,0.0253105-1.5007496,0.5444469c0.0516739-0.2601299,0.1033468-0.5202618,0.1672287-0.8418636
	c-0.2859821-0.0373554-0.5692282-0.0743523-0.8497801-0.1109962c-0.1813002,0.2787819-0.3511739,0.5399895-0.5210471,0.8011951
	c-0.0566511-0.0290985-0.1133051-0.0581951-0.1699557-0.0872917c0.0761719-0.2452793,0.1523442-0.4905567,0.2224097-0.7161789
	c-0.7678061-0.5222893-1.085535,0.0203304-1.3542395,0.6765823c-0.050396-0.0374432-0.10079-0.0748825-0.1511869-0.1123219
	c0.0504346-0.2621422,0.1008692-0.5242825,0.1614017-0.8389111c-0.4600134-0.0848122-0.9220247-0.1699924-1.3876796-0.2558441
	c0.2866521-1.1143875,0.9884982-1.6874924,2.0083728-1.6869926c2.802238,0.0013771,5.6044755,0.0008717,8.4067154,0.0011044
	c0.3173256,0.0000267,0.6346521,0.0000038,1.0717812,0.0000038c-0.0744858,1.0237713-0.1356134,1.9604931-0.2208595,2.8950138
	c-0.0091343,0.1001625-0.1523485,0.2598076-0.2444744,0.2680721c-0.3675442,0.0329781-0.7851915-0.0866871-1.0960197,0.0503578
	c-0.2720423,0.1199474-0.4258556,0.5080414-0.7702351,0.7082119c0.0610209-0.2300606,0.1220427-0.4601212,0.1975346-0.7447453
	c-0.2718334-0.0662727-0.546979-0.1333542-0.8576002-0.2090836c-0.163928,0.29389-0.3206635,0.5748749-0.4773941,0.8558636
	c-0.0632372-0.0228004-0.1264791-0.045599-0.1897163-0.0683956C12.2063856,21.6458874,12.2692327,21.393425,12.3311625,21.1407547z
	 M12.6796694,18.5607376c0.2841825,0.7480621,0.5410299,1.4241619,0.8253021,2.1724529
	c0.5445938-0.7710857,1.0153799-1.4376717,1.5343294-2.1724529C14.2323523,18.5607376,13.5089169,18.5607376,12.6796694,18.5607376z
	 M13.2765017,20.7959709c-0.2857618-0.776474-0.5392389-1.4652271-0.8256588-2.2434807
	c-0.5364485,0.6445808-1.0130014,1.2171936-1.5679102,1.8839512C11.7331572,20.5641499,12.4490004,20.6716747,13.2765017,20.7959709
	z M9.7090139,18.5555115c0.3191643,0.6417427,0.6059113,1.2183132,0.919466,1.8487701
	c0.5273914-0.6353245,1.0026579-1.2078571,1.5346899-1.8487701C11.2944736,18.5555115,10.5467443,18.5555115,9.7090139,18.5555115z
	 M9.4149876,18.4482975c-0.4802427,0.5742741-0.9091549,1.0871735-1.3134842,1.5706711
	c0.6444368,0.0948563,1.3919878,0.2048874,2.2496653,0.331131C10.0202923,19.6779423,9.7389679,19.1064491,9.4149876,18.4482975z
	 M15.3750086,18.6555061c-0.0380554-0.0137863-0.0761127-0.0275707-0.1141729-0.041357
	c-0.5040865,0.7168579-1.008173,1.4337158-1.5868139,2.2566013c0.5742121,0,1.0207939,0,1.550703,0
	C15.2736139,20.1501007,15.3243113,19.4028034,15.3750086,18.6555061z M7.0281987,18.5584488
	c0.175869,0.4783497,0.3288927,0.8945694,0.51407,1.3982353c0.5149851-0.4829712,0.9652195-0.9052124,1.4909201-1.3982353
	C8.290328,18.5584488,7.7052116,18.5584488,7.0281987,18.5584488z M5.4685817,19.6425724
	c0.6765165,0.0869827,1.1988673,0.1541443,1.820344,0.2340488c-0.2054729-0.5045433-0.3629041-0.8911209-0.5429072-1.333128
	C6.3174791,18.9121971,5.9560885,19.2231331,5.4685817,19.6425724z M6.4211464,18.58955
	c-1.0159974-0.260273-1.1924529,0.4214344-1.5194473,0.902935c0.0423427,0.0574455,0.0846863,0.1148911,0.1270289,0.1723366
	C5.4597092,19.3320026,5.8906918,18.9991856,6.4211464,18.58955z"/>
<path opacity="0.6" enable-background="new    " d="M34.0998688,19.8069077
	c-0.6201782,0.1091232-1.0677719,0.1878796-1.5550156,0.2736149c0.0684357,0.291399,0.131279,0.5590115,0.1941299,0.8266239
	c-0.0584259,0.0253868-0.116848,0.0507717-0.1752625,0.0761623c-0.1474762-0.262989-0.2949448-0.52598-0.4776268-0.851759
	c-0.2666245,0.0499077-0.5543804,0.1037674-0.8822517,0.1651382c0.083292,0.2659111,0.1594048,0.5088844,0.2355175,0.7518597
	c-0.0488434,0.0311146-0.0976887,0.0622272-0.1465321,0.0933437c-0.1639175-0.2278481-0.3278389-0.4556961-0.5422935-0.753788
	c-0.2063808,0.0134888-0.4981937,0.0325661-0.8449135,0.0552311c0.0640011,0.3063507,0.1212845,0.5805569,0.178566,0.8547611
	c-0.4447994-0.4057846-0.7306881-1.1223202-1.5148354-0.5385532c0.0720978,0.2310791,0.1490192,0.4776249,0.2259426,0.7241726
	c-0.0547943,0.0278492-0.1095905,0.0557003-0.1643906,0.0835476c-0.1714745-0.2652264-0.3429432-0.5304546-0.5262451-0.8139706
	c-0.2775879,0.0406151-0.568079,0.0831184-0.8646469,0.1265106c0.0704765,0.2804832,0.1350765,0.5375557,0.1996727,0.7946281
	c-0.038662,0.0475845-0.0773277,0.0951672-0.1159897,0.1427498c-0.3464642-0.5084286-0.6083698-1.2261753-1.4068413-0.6620159
	c0.0696888,0.2157497,0.1484089,0.4594517,0.227129,0.7031574c-0.51157-0.2341347-0.6824017-1.2343769-1.5199966-0.4487057
	c0.0355549,0.1473217,0.0952454,0.3946133,0.1657276,0.6866169c-0.0726223-0.0305595-2.0522041-0.8636093-2.1376076-0.8995476
	c-0.0531902-0.9460468-0.1086712-1.9328156-0.1718693-3.0569267c0.5844593,0,1.1062794-0.0001297,1.6280937,0.0000229
	c2.5947437,0.0007496,5.190073,0.0325012,7.7838573-0.0169048c0.7559261-0.0144005,1.2852612,0.168972,1.6412868,0.8393803
	C33.6688499,19.2171726,33.8547554,19.4452572,34.0998688,19.8069077z M24.7731133,20.7534142
	c0.2841644-0.784132,0.5353756-1.4773216,0.796423-2.1976624c-0.8085537,0-1.5341511,0-2.3524513,0
	C23.7482128,19.3058949,24.2296619,19.9858685,24.7731133,20.7534142z M27.3872623,20.4317722
	c-0.5771122-0.6831455-1.0602016-1.2549934-1.5797749-1.8700333c-0.2830429,0.7689838-0.5352631,1.4542274-0.8210735,2.2307281
	C25.80616,20.6693096,26.5359154,20.5596752,27.3872623,20.4317722z M26.0880489,18.5530796
	c0.5418758,0.6463165,1.0201359,1.216753,1.5577087,1.8579426c0.3161869-0.658886,0.6002998-1.2509193,0.8915977-1.8579426
	C27.6844177,18.5530796,26.938982,18.5530796,26.0880489,18.5530796z M30.4150658,19.9805279
	c-0.5892811-0.5600948-1.0618362-1.0092373-1.5823174-1.5039425c-0.3172798,0.6430798-0.5964489,1.2089157-0.9258442,1.8765507
	C28.7771797,20.2238483,29.5244064,20.1128445,30.4150658,19.9805279z M23.0108814,18.6194286
	c-0.0406647,0.0103359-0.0813236,0.0206718-0.1219826,0.0310078c0.0535297,0.7576313,0.1070595,1.5152607,0.1631126,2.3085461
	c0.5535259-0.027153,0.988575-0.0484943,1.5478096-0.0759277C24.0027008,20.0323906,23.506794,19.3259087,23.0108814,18.6194286z
	 M29.1940708,18.5472717c0.576067,0.526619,1.0224094,0.9346447,1.5408955,1.4086285
	c0.1816387-0.5197506,0.3269901-0.9356728,0.4922771-1.4086285C30.5456772,18.5472717,29.9615211,18.5472717,29.1940708,18.5472717z
	 M32.7974968,19.6438866c-0.493351-0.4217606-0.8695259-0.7433472-1.2943764-1.1065426
	c-0.1767311,0.466013-0.3267403,0.8615685-0.5102253,1.3453865C31.5989437,19.8025208,32.1134338,19.7344265,32.7974968,19.6438866z
	 M33.2187691,19.6773987c0.0593185-0.0786476,0.1186409-0.1572933,0.1779594-0.235939
	c-0.4172134-0.3572884-0.5245018-1.1881809-1.5014591-0.820528C32.371315,19.0009289,32.7950439,19.3391628,33.2187691,19.6773987z"
	/>
<path opacity="0.6" enable-background="new    " d="M17.5403919,15.2618942
	c0.6044521,1.7135391-0.3906689,2.5334053-1.6470623,3.2924938c0-0.287117,0-0.5309696,0-0.8272743
	c-0.7554779,0-1.4589214,0-2.2570887,0c0-0.5954781-0.1388788-1.1936741,0.0457249-1.665226
	c0.1376219-0.3515291,0.6723051-0.717145,1.0674534-0.7643604C15.6797915,15.1863594,16.632473,15.2618942,17.5403919,15.2618942z"
	/>
<path opacity="0.6" enable-background="new    " d="M17.3584557,21.2997932c1.0554276,0,2.0862427,0,3.1621685,0
	c0,0.8989391,0,1.7609329,0,2.6671448c-1.0560017,0-2.0828629,0-3.1621685,0
	C17.3584557,23.0790539,17.3584557,22.1956406,17.3584557,21.2997932z"/>
<path opacity="0.6" enable-background="new    " d="M17.943306,17.8794918
	c0.0007076-0.8332462,0.0220566-1.6672459-0.0073299-2.4994564c-0.0175133-0.4960108,0.1310654-0.7230186,0.6624737-0.7091484
	c1.0179405,0.0265675,2.0372906,0.0203714,3.0555973,0.0022411c0.4595566-0.0081816,0.6738739,0.1437263,0.6715431,0.6341515
	c-0.0080223,1.6885242,0.006691,3.3772087,0.0214024,5.0657558c0.0043564,0.5006332-0.1551819,0.7709332-0.724268,0.7517147
	c-0.994339-0.0335751-1.9915371-0.0362148-2.9857044-0.0006504c-0.572506,0.0204811-0.7190628-0.2259884-0.7018394-0.7447243
	C17.962822,19.546917,17.9425964,18.7128677,17.943306,17.8794918z M18.3885193,20.6452122c1.1980915,0,2.3198814,0,3.4217224,0
	c0-1.8689651,0-3.6861115,0-5.4876928c-1.1724262,0-2.2915192,0-3.4217224,0
	C18.3885193,17.0138912,18.3885193,18.8128986,18.3885193,20.6452122z"/>
<path opacity="0.6" enable-background="new    " d="M15.4439497,24.9558296
	c-0.0001106,0.7633228-0.0127811,1.5269279,0.0045137,2.2898579c0.010828,0.4777813-0.2155094,0.7866764-0.6619339,0.8037701
	c-0.467555,0.0179024-0.7049589-0.3378544-0.7093077-0.7777843c-0.0155373-1.5727043-0.0173168-3.1458035,0.0021362-4.7184277
	c0.0053415-0.4319897,0.210494-0.7657146,0.719286-0.7488136c0.5094805,0.0169239,0.654376,0.3346119,0.6482954,0.7921734
	C15.4364977,23.3828888,15.4440556,24.1694088,15.4439497,24.9558296z"/>
<path opacity="0.6" enable-background="new    " d="M23.6730652,24.9823551c0,0.7631321-0.0072441,1.5263596,0.0026703,2.289362
	c0.006094,0.4693031-0.1956577,0.7813168-0.6707211,0.7789574c-0.4344025-0.0021591-0.6630154-0.3044109-0.6654377-0.7327232
	c-0.0089931-1.5937309-0.0145683-3.1876011-0.0018291-4.7812614c0.0035629-0.4453335,0.212944-0.7581615,0.7214088-0.7323875
	c0.4741287,0.0240364,0.6183472,0.3338776,0.6194706,0.7511082c0.002182,0.8089771,0.0006409,1.6179619,0.0006409,2.4269428
	C23.6772022,24.9823532,23.6751328,24.9823532,23.6730652,24.9823551z"/>
<path opacity="0.6" enable-background="new    " d="M17.6396999,17.7838497c0,0.9700642,0,1.9743729,0,3.0228825
	c-0.2229538,0.0199051-0.420496,0.0375404-0.6527195,0.0582714c-0.032299,0.3065033-0.0626221,0.5942841-0.0956001,0.907238
	c-0.3284798,0-0.6216927,0-0.9140863,0C15.6073685,20.0682487,15.816946,18.5990734,17.6396999,17.7838497z"/>
<path opacity="0.6" enable-background="new    " d="M22.5641651,17.8744373c0-1.0712738,0-2.0827694,0-3.1371689
	c0.3603783,0,0.6936016,0,1.0707169,0c0,1.0343094,0,2.0635567,0,3.1371689
	C23.2924118,17.8744373,22.9578381,17.8744373,22.5641651,17.8744373z"/>
<path opacity="0.6" enable-background="new    " d="M22.0341225,14.2639503
	c-2.1414852,0.375824-3.753397,0.2329998-4.3489952-0.3928585C19.2244072,14.0286636,20.6744118,13.6367722,22.0341225,14.2639503z"
	/>
<path opacity="0.6" enable-background="new    " d="M15.759037,24.0701199
	c-0.348629-1.2543449,0.7252865-1.4550381,1.2835655-2.0753174C17.4209671,23.261097,16.2543201,23.397831,15.759037,24.0701199z"/>
<path opacity="0.6" enable-background="new    " d="M21.9878235,23.9816113
	c-0.4959946-0.5820713-1.5721455-0.7672691-1.215641-1.8975601C22.1554756,22.9235287,22.2805939,23.1159267,21.9878235,23.9816113z
	"/>
<path fill="#FFFFFF" d="M11.8341713,20.6437645c-0.769721-0.5376415-1.0511093,0.1348667-1.509059,0.5532475
	c0.065382-0.2527542,0.130764-0.5055103,0.2077932-0.8032875c-0.285388-0.0494671-0.5663481-0.0981655-0.8660212-0.1501064
	c-0.1700125,0.2795639-0.3361845,0.5528107-0.5023546,0.8260593c-0.0681839-0.0302753-0.136364-0.0605526-0.2045488-0.0908298
	c0.0800495-0.2333736,0.1600933-0.4667492,0.2420616-0.7057171c-0.7621021-0.5638828-1.0647955,0.0253124-1.5007505,0.5444489
	c0.0516748-0.2601299,0.1033473-0.5202637,0.1672301-0.8418636c-0.2859826-0.0373573-0.5692286-0.0743523-0.8497806-0.1109982
	c-0.1813006,0.2787819-0.3511739,0.5399895-0.5210471,0.8011951c-0.0566511-0.0290966-0.1133051-0.0581951-0.1699562-0.0872917
	c0.0761719-0.2452774,0.1523442-0.4905567,0.2224102-0.7161789C5.782342,19.3401527,5.464613,19.8827744,5.195909,20.5390244
	c-0.0503964-0.0374413-0.1007905-0.0748806-0.1511869-0.1123199c0.0504346-0.2621422,0.1008687-0.5242825,0.1614017-0.838913
	c-0.4600134-0.0848122-0.9220247-0.1699905-1.3876796-0.2558441c0.2866516-1.1143875,0.9884982-1.6874924,2.0083728-1.6869907
	c2.802237,0.0013752,5.6044755,0.0008717,8.4067154,0.0011024c0.3173256,0.0000267,0.6346512,0.0000038,1.0717812,0.0000038
	c-0.0744867,1.0237732-0.1356144,1.960495-0.2208595,2.8950138c-0.0091343,0.1001644-0.1523485,0.2598095-0.2444754,0.268074
	c-0.3675432,0.0329762-0.7851906-0.0866871-1.0960188,0.0503578c-0.2720423,0.1199455-0.4258556,0.5080395-0.7702351,0.70821
	c0.0610209-0.2300606,0.1220417-0.4601212,0.1975346-0.7447433c-0.2718334-0.0662746-0.5469799-0.1333561-0.8576002-0.2090855
	c-0.163928,0.2938919-0.3206635,0.5748768-0.4773941,0.8558636c-0.0632372-0.0228004-0.1264801-0.0455971-0.1897163-0.0683956
	C11.7093945,21.1488953,11.7722416,20.8964348,11.8341713,20.6437645z M12.1826782,18.0637455
	c0.2841825,0.7480621,0.5410299,1.4241619,0.8253021,2.1724529c0.5445938-0.7710838,1.0153799-1.4376717,1.5343294-2.1724529
	C13.7353601,18.0637455,13.0119257,18.0637455,12.1826782,18.0637455z M12.7795105,20.2989807
	c-0.2857618-0.7764759-0.5392389-1.465229-0.8256588-2.2434826c-0.5364494,0.6445827-1.0130024,1.2171936-1.5679102,1.8839512
	C11.236166,20.0671597,11.9520092,20.1746826,12.7795105,20.2989807z M9.2120228,18.0585194
	c0.3191643,0.6417427,0.6059113,1.2183132,0.919466,1.8487701c0.5273905-0.6353226,1.0026569-1.2078552,1.5346899-1.8487701
	C10.7974825,18.0585194,10.0497532,18.0585194,9.2120228,18.0585194z M8.9179964,17.9513054
	c-0.4802427,0.5742741-0.9091558,1.0871754-1.3134842,1.5706711c0.6444368,0.0948563,1.3919878,0.2048893,2.2496643,0.331131
	C9.5233011,19.1809502,9.2419767,18.609457,8.9179964,17.9513054z M14.8780174,18.1585159
	c-0.0380554-0.0137882-0.0761127-0.0275726-0.1141729-0.041357c-0.5040865,0.7168579-1.0081739,1.4337139-1.5868139,2.2566013
	c0.5742121,0,1.0207939,0,1.550703,0C14.7766228,19.6531105,14.8273201,18.9058132,14.8780174,18.1585159z M6.5312071,18.0614586
	c0.175869,0.4783478,0.3288932,0.8945675,0.5140705,1.3982353c0.5149851-0.4829712,0.9652195-0.9052124,1.4909201-1.3982353
	C7.7933373,18.0614586,7.2082205,18.0614586,6.5312071,18.0614586z M4.97159,19.1455822
	c0.676517,0.0869827,1.1988678,0.1541424,1.8203444,0.2340488c-0.2054729-0.5045452-0.3629045-0.8911228-0.5429072-1.3331299
	C5.8204875,18.4152069,5.4590969,18.726141,4.97159,19.1455822z M5.9241552,18.0925598
	c-1.0159974-0.2602749-1.1924529,0.4214325-1.5194478,0.9029331c0.0423431,0.0574474,0.0846863,0.1148911,0.1270294,0.1723366
	C4.9627175,18.8350105,5.3937006,18.5021954,5.9241552,18.0925598z"/>
<path fill="#FFFFFF" d="M33.6028786,19.3099155c-0.6201782,0.1091251-1.0677757,0.1878815-1.5550194,0.2736168
	c0.0684395,0.291399,0.1312828,0.5590096,0.1941299,0.826622c-0.0584221,0.0253868-0.1168442,0.0507736-0.1752586,0.0761623
	c-0.1474781-0.262989-0.2949448-0.5259781-0.4776306-0.851757c-0.2666225,0.0499058-0.5543766,0.1037655-0.8822498,0.1651382
	c0.0832939,0.2659111,0.1594048,0.5088825,0.2355194,0.7518578c-0.0488434,0.0311146-0.0976887,0.0622292-0.1465321,0.0933437
	c-0.1639194-0.2278481-0.3278408-0.4556961-0.5422955-0.753788c-0.2063808,0.0134907-0.4981937,0.0325661-0.8449116,0.0552311
	c0.0640011,0.3063526,0.1212845,0.5805569,0.1785641,0.8547611c-0.4447975-0.4057846-0.7306881-1.1223202-1.5148335-0.5385513
	c0.0720959,0.2310772,0.1490192,0.4776249,0.2259426,0.7241707c-0.0547943,0.0278511-0.1095905,0.0557003-0.1643906,0.0835495
	c-0.1714745-0.2652264-0.3429451-0.5304565-0.5262451-0.8139725c-0.2775879,0.0406151-0.568079,0.0831203-0.8646488,0.1265125
	c0.0704765,0.2804832,0.1350765,0.5375557,0.1996727,0.7946281c-0.038662,0.0475845-0.0773258,0.0951672-0.1159897,0.1427498
	c-0.3464642-0.5084305-0.6083698-1.2261772-1.4068394-0.6620159c0.0696869,0.2157478,0.1484089,0.4594517,0.227129,0.7031555
	c-0.5115719-0.2341347-0.6824017-1.234375-1.5199986-0.4487057c0.0355549,0.1473236,0.0952473,0.3946152,0.1657276,0.6866169
	c-0.0726204-0.0305595-2.0522022-0.8636093-2.1376057-0.8995476c-0.0531921-0.9460449-0.1086712-1.9328136-0.1718712-3.0569267
	c0.5844593,0,1.1062794-0.0001278,1.6280956,0.0000229c2.5947418,0.0007496,5.1900711,0.0325012,7.7838554-0.0169048
	c0.755928-0.0143986,1.2852631,0.1689739,1.6412888,0.8393803C33.1718597,18.7201824,33.3577652,18.9482651,33.6028786,19.3099155z
	 M24.276123,20.256422c0.2841644-0.7841301,0.5353756-1.4773197,0.7964211-2.1976624c-0.8085537,0-1.5341511,0-2.3524513,0
	C23.2512226,18.8089027,23.7326717,19.4888763,24.276123,20.256422z M26.8902721,19.934782
	c-0.5771141-0.6831474-1.0602016-1.2549953-1.5797749-1.8700352c-0.2830448,0.7689838-0.5352631,1.4542294-0.8210735,2.2307281
	C25.3091679,20.1723194,26.0389252,20.062685,26.8902721,19.934782z M25.5910568,18.0560894
	c0.5418758,0.6463146,1.0201359,1.216753,1.5577087,1.8579426c0.3161888-0.6588879,0.6002998-1.2509212,0.8915977-1.8579426
	C27.1874275,18.0560894,26.4419918,18.0560894,25.5910568,18.0560894z M29.9180756,19.4835358
	c-0.589283-0.5600929-1.0618362-1.0092373-1.5823174-1.5039425c-0.3172798,0.6430798-0.5964508,1.2089157-0.9258461,1.8765507
	C28.2801876,19.7268581,29.0274162,19.6158524,29.9180756,19.4835358z M22.5138893,18.1224365
	c-0.0406647,0.0103359-0.0813236,0.0206718-0.1219826,0.0310097c0.0535297,0.7576294,0.1070595,1.5152588,0.1631126,2.3085461
	c0.5535278-0.027153,0.9885769-0.0484962,1.5478115-0.0759296C23.5057087,19.5353985,23.0098019,18.8289185,22.5138893,18.1224365z
	 M28.6970787,18.0502796c0.5760689,0.5266209,1.0224094,0.9346466,1.5408955,1.4086285
	c0.1816406-0.5197487,0.326992-0.9356728,0.4922771-1.4086285C30.0486851,18.0502796,29.464529,18.0502796,28.6970787,18.0502796z
	 M32.3005066,19.1468945c-0.4933529-0.4217606-0.8695297-0.7433453-1.2943783-1.1065407
	c-0.1767311,0.466011-0.3267403,0.8615665-0.5102234,1.3453846C31.1019516,19.3055286,31.6164436,19.2374344,32.3005066,19.1468945z
	 M32.7217789,19.1804066c0.0593185-0.0786457,0.1186409-0.1572933,0.1779594-0.235939
	c-0.4172134-0.3572884-0.5245018-1.1881809-1.5014572-0.820528C31.8743248,18.5039368,32.2980499,18.8421726,32.7217789,19.1804066z
	"/>
<path fill="#FFFFFF" d="M17.0434017,14.7649031c0.6044502,1.7135382-0.3906689,2.5334063-1.6470633,3.2924929
	c0-0.2871151,0-0.5309677,0-0.8272743c-0.7554789,0-1.4589214,0-2.2570896,0c0-0.5954781-0.1388779-1.1936722,0.0457258-1.665226
	c0.1376219-0.3515291,0.6723042-0.717144,1.0674534-0.7643595C15.1827993,14.6893682,16.1354809,14.7649031,17.0434017,14.7649031z"
	/>
<path fill="#FFFFFF" d="M16.8614635,20.802803c1.0554276,0,2.0862446,0,3.1621704,0c0,0.8989391,0,1.7609329,0,2.6671448
	c-1.0560036,0-2.0828629,0-3.1621704,0C16.8614635,22.5820637,16.8614635,21.6986485,16.8614635,20.802803z"/>
<path fill="#FFFFFF" d="M17.4463139,17.3825016c0.0007095-0.8332481,0.0220566-1.6672487-0.0073299-2.4994574
	c-0.0175114-0.4960108,0.1310654-0.7230186,0.6624756-0.7091484c1.0179405,0.0265675,2.0372887,0.0203705,3.0555954,0.0022402
	c0.4595585-0.0081816,0.6738758,0.1437273,0.6715431,0.6341524c-0.0080223,1.6885233,0.0066929,3.3772097,0.0214024,5.0657549
	c0.0043564,0.5006332-0.15518,0.7709332-0.7242661,0.7517147c-0.994339-0.0335751-1.9915371-0.0362148-2.9857063-0.0006504
	c-0.572506,0.0204811-0.7190628-0.2259865-0.7018375-0.7447243C17.4658298,19.0499249,17.4456043,18.2158756,17.4463139,17.3825016z
	 M17.8915291,20.1482201c1.1980896,0,2.3198814,0,3.4217224,0c0-1.8689651,0-3.6861095,0-5.4876919
	c-1.1724262,0-2.2915192,0-3.4217224,0C17.8915291,16.516901,17.8915291,18.3159065,17.8915291,20.1482201z"/>
<path fill="#FFFFFF" d="M14.9469576,24.4588394c-0.0001097,0.7633209-0.0127802,1.5269279,0.0045147,2.289856
	c0.010828,0.4777832-0.2155094,0.7866764-0.6619339,0.8037701c-0.467555,0.0179024-0.7049589-0.3378544-0.7093077-0.7777824
	c-0.0155373-1.5727062-0.0173168-3.1458054,0.0021362-4.7184296c0.0053415-0.4319878,0.2104931-0.7657127,0.719286-0.7488136
	c0.5094805,0.0169239,0.654376,0.3346119,0.6482944,0.7921753C14.9395065,22.8858967,14.9470644,23.6724186,14.9469576,24.4588394z"
	/>
<path fill="#FFFFFF" d="M23.1760731,24.4853649c0,0.7631321-0.0072441,1.5263577,0.0026722,2.28936
	c0.0060921,0.4693031-0.1956577,0.7813187-0.6707211,0.7789574c-0.4344044-0.0021591-0.6630173-0.3044109-0.6654377-0.7327213
	c-0.0089951-1.5937328-0.0145683-3.1876011-0.0018311-4.7812634c0.0035629-0.4453335,0.2129459-0.7581615,0.7214108-0.7323856
	c0.4741287,0.0240345,0.6183453,0.3338776,0.6194706,0.7511082c0.002182,0.8089752,0.0006409,1.61796,0.0006409,2.4269428
	C23.1802101,24.485363,23.1781425,24.485363,23.1760731,24.4853649z"/>
<path fill="#FFFFFF" d="M17.1427097,17.2868576c0,0.9700642,0,1.9743748,0,3.0228844
	c-0.2229557,0.0199051-0.4204979,0.0375404-0.6527214,0.0582714c-0.0322971,0.3065014-0.0626221,0.5942841-0.0955982,0.9072361
	c-0.3284817,0-0.6216917,0-0.9140873,0C15.1103773,19.5712585,15.3199549,18.1020832,17.1427097,17.2868576z"/>
<path fill="#FFFFFF" d="M22.0671749,17.3774471c0-1.0712738,0-2.0827703,0-3.1371708c0.3603764,0,0.6935997,0,1.070715,0
	c0,1.0343103,0,2.0635567,0,3.1371708C22.7954197,17.3774471,22.4608459,17.3774471,22.0671749,17.3774471z"/>
<path fill="#FFFFFF" d="M21.5371304,13.7669592c-2.1414852,0.375824-3.753397,0.2329998-4.3489952-0.3928585
	C18.727417,13.5316715,20.1774216,13.139781,21.5371304,13.7669592z"/>
<path fill="#FFFFFF" d="M15.2620459,23.5731277c-0.34863-1.2543449,0.7252865-1.4550381,1.2835665-2.0753155
	C16.9239769,22.7641068,15.7573299,22.9008408,15.2620459,23.5731277z"/>
<path fill="#FFFFFF" d="M21.4908314,23.4846191c-0.4959946-0.5820713-1.5721436-0.7672691-1.215641-1.8975582
	C21.6584835,22.4265366,21.7836037,22.6189365,21.4908314,23.4846191z"/>
</svg>
