<?xml version="1.0" encoding="utf-8"?>
<!-- Generator: Adobe Illustrator 17.1.0, SVG Export Plug-In . SVG Version: 6.00 Build 0)  -->
<!DOCTYPE svg PUBLIC "-//W3C//DTD SVG 1.1//EN" "http://www.w3.org/Graphics/SVG/1.1/DTD/svg11.dtd">
<svg version="1.1" id="Layer_1" xmlns="http://www.w3.org/2000/svg" xmlns:xlink="http://www.w3.org/1999/xlink" x="0px" y="0px"
	 viewBox="0 0 50 50" enable-background="new 0 0 50 50" xml:space="preserve">
<g id="base">
	<g>
		
			<linearGradient id="SVGID_1_" gradientUnits="userSpaceOnUse" x1="-22.7237625" y1="6.0480013" x2="-22.7237625" y2="3.8048861" gradientTransform="matrix(8 0 -6.0949283 8 237.7319641 0)">
			<stop  offset="0" style="stop-color:#000000;stop-opacity:0.4"/>
			<stop  offset="1" style="stop-color:#000000;stop-opacity:0"/>
		</linearGradient>
		<path fill="url(#SVGID_1_)" d="M9.2211933,41.0931625c-1.0316706-1.155899-1.0465794-2.3570213-0.0451994-3.671402
			c2.9830694-3.9154778,13.3386354-6.9826717,23.5756111-6.9826717c10.2364769,0,15.9184647,3.067194,12.9353905,6.9826717
			c-1.0015182,1.3145676-2.8461304,2.5156937-5.6389389,3.671402l-20.9680843,7.2908478L9.2211933,41.0931625z"/>
		
			<linearGradient id="SVGID_2_" gradientUnits="userSpaceOnUse" x1="2.408241" y1="6.0480013" x2="2.408241" y2="0.1263049" gradientTransform="matrix(8 0 0 8 0 0)">
			<stop  offset="0" style="stop-color:#007BB8"/>
			<stop  offset="1" style="stop-color:#0094DE"/>
		</linearGradient>
		<path fill="url(#SVGID_2_)" d="M3.8527434,29.1365871c-1.9123096-3.051506-2.8423157-6.2224064-2.8423157-9.6922932
			c0-10.3366346,8.018774-18.4338551,18.2557487-18.4338551c10.2364807,0,18.2552547,8.0972204,18.2552547,18.4338551
			c0,3.4703808-0.929512,6.6412811-2.8418236,9.6922932L19.2661762,48.3840103L3.8527434,29.1365871z"/>
		<path fill="#FFFFFF" d="M19.2659435,2.0208666c9.6701679,0,17.2451382,7.6533566,17.2451382,17.4236126
			c0,3.2562714-0.8693466,6.2360783-2.6569672,9.1055412l-14.588171,18.2170124L4.6778784,28.550066
			c-1.7876544-2.8695812-2.657028-5.8494282-2.657028-9.105587C2.0208504,9.6742229,9.5957985,2.0208666,19.2659435,2.0208666
			 M19.2659435,0.0000152C8.532135,0.0000152,0,8.6111221,0,19.444479c0,3.888895,1.1009822,7.2222118,3.0275838,10.2777481
			l16.2383595,20.2777882l16.2384434-20.2777882c1.9266396-3.0555363,3.0275459-6.3888531,3.0275459-10.2777481
			C38.5319328,8.6111221,29.9998417,0.0000152,19.2659435,0.0000152L19.2659435,0.0000152z"/>
	</g>
</g>
<path opacity="0.6" enable-background="new    " d="M12.5366488,21.4930515
	c-0.782548-0.5465984-1.0686255,0.1371136-1.5342064,0.5624657c0.0664721-0.2569656,0.1329432-0.5139313,0.211256-0.8166714
	c-0.290143-0.0502911-0.5757856-0.099802-0.8804512-0.1526089c-0.1728468,0.2842236-0.3417864,0.5620251-0.5107269,0.8398247
	c-0.0693197-0.0307808-0.1386366-0.0615597-0.2079573-0.0923424c0.0813837-0.2372646,0.1627617-0.4745274,0.2460957-0.7174759
	c-0.7748022-0.5732822-1.0825396,0.025732-1.5257587,0.5535183c0.0525351-0.2644634,0.1050692-0.5289307,0.1700153-0.8558922
	c-0.2907476-0.0379772-0.5787134-0.0755901-0.8639407-0.1128445c-0.1843209,0.2834263-0.3570256,0.5489864-0.5297298,0.8145447
	c-0.0575948-0.029583-0.1151929-0.059164-0.1727877-0.0887451c0.0774412-0.2493668,0.1548829-0.4987316,0.2261162-0.7281132
	c-0.780601-0.5309925-1.1036243,0.020668-1.3768067,0.6878567c-0.0512357-0.0380669-0.1024694-0.0761299-0.1537061-0.1141949
	c0.0512748-0.26651,0.10255-0.5330181,0.1640911-0.85289c-0.467679-0.0862255-0.9373894-0.1728249-1.4108038-0.260107
	c0.291429-1.1329575,1.0049706-1.7156124,2.0418401-1.7151051c2.8489342,0.0014,5.6978683,0.0008869,8.5468054,0.0011234
	c0.3226137,0.0000267,0.6452284,0.0000038,1.0896406,0.0000038c-0.0757265,1.0408306-0.1378727,1.9931622-0.2245388,2.9432564
	c-0.0092869,0.1018314-0.1548882,0.2641373-0.2485485,0.2725391c-0.3736696,0.0335274-0.7982759-0.0881329-1.1142845,0.0511971
	c-0.2765751,0.1219463-0.4329519,0.5165062-0.7830696,0.7200127c0.0620375-0.2338943,0.1240759-0.4677887,0.2008257-0.7571545
	c-0.2763624-0.0673771-0.5560932-0.1355782-0.871891-0.2125683c-0.1666594,0.2987862-0.3260069,0.5844536-0.4853497,0.8701248
	c-0.064291-0.02318-0.1285868-0.0463581-0.1928778-0.0695343C12.4097929,22.0066013,12.4736872,21.7499313,12.5366488,21.4930515z
	 M12.8909626,18.8700409c0.2889185,0.7605286,0.550046,1.4478931,0.8390551,2.2086544
	c0.553669-0.7839355,1.0323009-1.461628,1.5598974-2.2086544C14.4695196,18.8700409,13.7340288,18.8700409,12.8909626,18.8700409z
	 M13.4977407,21.1425228c-0.2905235-0.7894135-0.5482244-1.489645-0.8394175-2.2808666
	c-0.5453873,0.6553211-1.0298824,1.2374763-1.594038,1.9153442C11.9286785,20.9068375,12.6564503,21.0161552,13.4977407,21.1425228z
	 M9.8708048,18.864727c0.3244829,0.6524372,0.6160078,1.238615,0.9347878,1.8795776
	c0.5361795-0.6459103,1.0193663-1.2279835,1.5602636-1.8795776C11.4826841,18.864727,10.7224951,18.864727,9.8708048,18.864727z
	 M9.5718784,18.7557278c-0.488245,0.5838432-0.924305,1.1052895-1.335372,1.5968437
	c0.6551762,0.0964375,1.415184,0.2083015,2.2871542,0.3366489C10.1872702,20.0058632,9.9012575,19.4248466,9.5718784,18.7557278z
	 M15.631217,18.9663887c-0.0386896-0.0140171-0.0773811-0.0280304-0.1160755-0.0420456
	c-0.5124865,0.7288036-1.0249729,1.4576073-1.6132565,2.2942047c0.5837812,0,1.0378046,0,1.5765438,0
	C15.5281334,20.4858894,15.5796747,19.7261391,15.631217,18.9663887z M7.1453166,18.8677139
	c0.1787996,0.4863205,0.334373,0.9094772,0.5226364,1.4215355c0.5235667-0.4910202,0.9813037-0.9202976,1.5157647-1.4215355
	C8.4284782,18.8677139,7.833611,18.8677139,7.1453166,18.8677139z M5.55971,19.9699039
	c0.6877899,0.0884323,1.2188454,0.1567116,1.850678,0.2379475c-0.2088966-0.5129509-0.3689513-0.9059696-0.5519543-1.3553429
	C6.4227533,19.2273579,6.0553408,19.5434742,5.55971,19.9699039z M6.5281482,18.899334
	c-1.032928-0.2646103-1.2123237,0.4284573-1.5447674,0.9179802c0.0430484,0.058403,0.0860977,0.116806,0.1291456,0.175209
	C5.5506897,19.6541576,5.9888539,19.3157959,6.5281482,18.899334z"/>
<path opacity="0.6" enable-background="new    " d="M34.6681099,20.1369762
	c-0.6305161,0.1109428-1.0855675,0.1910114-1.5809288,0.2781754c0.0695763,0.2962551,0.1334648,0.568327,0.1973648,0.8403988
	c-0.0594025,0.0258102-0.1187973,0.0516167-0.1781845,0.0774307c-0.1499329-0.2673702-0.2998581-0.5347443-0.4855843-0.8659515
	c-0.2710686,0.0507393-0.5636215,0.1054955-0.8969555,0.1678886c0.0846806,0.2703438,0.1620617,0.5173645,0.2394428,0.764389
	c-0.0496578,0.0316334-0.0993176,0.0632648-0.1489735,0.0949001c-0.1666489-0.2316456-0.3333035-0.4632912-0.5513306-0.7663498
	c-0.2098198,0.0137138-0.5064964,0.0331097-0.8589935,0.0561523c0.0650673,0.3114548,0.1233063,0.5902309,0.1815414,0.8690033
	c-0.4522114-0.4125462-0.7428646-1.1410217-1.5400791-0.5475273c0.0732994,0.23493,0.1515026,0.4855843,0.2297077,0.7362404
	c-0.055706,0.0283127-0.1114159,0.0566292-0.1671295,0.08494c-0.1743317-0.2696457-0.3486576-0.5392933-0.5350132-0.8275337
	c-0.2822151,0.0412922-0.5775471,0.0845032-0.8790569,0.1286182c0.0716515,0.2851562,0.1373291,0.5465126,0.203001,0.807869
	c-0.0393066,0.048378-0.0786171,0.0967541-0.1179218,0.1451302c-0.3522377-0.516901-0.6185093-1.2466087-1.4302864-0.673048
	c0.0708504,0.2193451,0.1508827,0.4671078,0.2309151,0.7148743c-0.5200958-0.2380371-0.6937733-1.2549458-1.5453262-0.4561825
	c0.0361481,0.1497765,0.0968323,0.4011879,0.1684895,0.6980591c-0.0738335-0.0310688-2.0864029-0.8780022-2.1732292-0.9145393
	c-0.0540771-0.9618111-0.1104813-1.965023-0.1747322-3.1078663c0.5941982,0,1.1247139-0.0001316,1.6552238,0.0000229
	c2.6379814,0.0007629,5.2765598,0.0330429,7.9135666-0.0171871c0.7685242-0.0146389,1.3066788,0.1717892,1.6686363,0.8533688
	C34.229908,19.5374146,34.418911,19.7693005,34.6681099,20.1369762z M25.1859322,21.0992565
	c0.2888985-0.7971992,0.5442963-1.5019398,0.8096943-2.2342854c-0.8220272,0-1.5597172,0-2.3916531,0
	C24.1439533,19.627615,24.6334248,20.3189201,25.1859322,21.0992565z M27.8436432,20.7722549
	c-0.586729-0.6945305-1.0778694-1.2759075-1.6061001-1.9011955c-0.2877598,0.7817974-0.5441837,1.4784603-0.8347569,2.2679005
	C26.2361927,21.0137501,26.9781094,20.9022884,27.8436432,20.7722549z M26.5227795,18.8622551
	c0.5509052,0.6570873,1.0371361,1.2370281,1.5836658,1.8889027c0.3214569-0.6698647,0.6103039-1.2717648,0.906456-1.8889027
	C28.14575,18.8622551,27.3878918,18.8622551,26.5227795,18.8622551z M30.9219017,20.3134899
	c-0.5991001-0.5694275-1.0795307-1.0260544-1.6086845-1.5290031c-0.322567,0.6537952-0.6063881,1.2290611-0.9412727,1.9078217
	C29.2567215,20.5608654,30.0164013,20.4480114,30.9219017,20.3134899z M23.3943348,18.9297104
	c-0.0413437,0.0105076-0.0826797,0.0210152-0.1240158,0.0315247c0.0544224,0.770256,0.1088428,1.5405102,0.1658306,2.3470154
	c0.5627499-0.027607,1.0050488-0.0493031,1.5736027-0.0771942C24.4026814,20.3662167,23.89851,19.6479626,23.3943348,18.9297104z
	 M29.6805592,18.8563499c0.5856667,0.5353947,1.0394478,0.9502201,1.5665741,1.4321022
	c0.1846657-0.5284119,0.3324394-0.9512653,0.5004807-1.4321022C31.0546894,18.8563499,30.4607983,18.8563499,29.6805592,18.8563499z
	 M33.3440323,19.9712391c-0.5015717-0.4287891-0.8840141-0.7557335-1.3159447-1.1249809
	c-0.1796761,0.4737778-0.3321857,0.8759251-0.5187283,1.3678055C32.1255074,20.1325169,32.648571,20.0632877,33.3440323,19.9712391z
	 M33.7723274,20.0053101c0.0603065-0.079958,0.1206169-0.159914,0.1809235-0.2398701
	c-0.4241676-0.3632431-0.5332413-1.2079811-1.5264778-0.8342018C32.9107513,19.3175678,33.3415413,19.661438,33.7723274,20.0053101z
	"/>
<path opacity="0.6" enable-background="new    " d="M17.8326855,15.5162258
	c0.6145229,1.742094-0.3971806,2.5756226-1.674509,3.3473587c0-0.2919006,0-0.5398159,0-0.8410587
	c-0.7680683,0-1.4832335,0-2.2947016,0c0-0.605402-0.1411934-1.2135658,0.0464869-1.692976
	c0.1399155-0.3573866,0.6835089-0.7290955,1.0852413-0.7770977C15.9410791,15.4394321,16.9096355,15.5162258,17.8326855,15.5162258z
	"/>
<path opacity="0.6" enable-background="new    " d="M17.6477165,21.6547394c1.0730152,0,2.1210079,0,3.2148628,0
	c0,0.9139194,0,1.7902775,0,2.7115898c-1.0735989,0-2.1175709,0-3.2148628,0
	C17.6477165,23.4636497,17.6477165,22.5655155,17.6477165,21.6547394z"/>
<path opacity="0.6" enable-background="new    " d="M18.2423134,18.1774426
	c0.0007191-0.8471317,0.0224228-1.6950283-0.007452-2.5411072c-0.0178051-0.5042763,0.1332493-0.7350674,0.6735115-0.7209654
	c1.0349045,0.02701,2.0712414,0.0207109,3.1065159,0.0022783c0.4672146-0.0083179,0.6851044,0.146121,0.6827335,0.6447191
	c-0.0081558,1.7166624,0.0068035,3.433486,0.021759,5.1501703c0.0044308,0.508976-0.1577663,0.7837811-0.7363358,0.7642422
	c-1.01091-0.0341339-2.024725-0.0368176-3.0354595-0.0006618c-0.5820446,0.0208225-0.7310448-0.2297535-0.7135334-0.7571335
	C18.2621536,19.872654,18.2415905,19.0247059,18.2423134,18.1774426z M18.6949444,20.9892502c1.2180576,0,2.3585415,0,3.4787426,0
	c0-1.9001083,0-3.7475357,0-5.5791388c-1.1919632,0-2.3297043,0-3.4787426,0
	C18.6949444,17.2974186,18.6949444,19.1264038,18.6949444,20.9892502z"/>
<path opacity="0.6" enable-background="new    " d="M15.7013073,25.3717003
	c-0.0001125,0.7760429-0.0129938,1.552372,0.0045891,2.3280163c0.0110083,0.4857426-0.219101,0.7997856-0.6729641,0.8171635
	c-0.4753466,0.0182018-0.7167063-0.3434849-0.7211275-0.7907448c-0.0157967-1.5989113-0.0176058-3.198225,0.0021715-4.7970562
	c0.0054302-0.439188,0.2140017-0.7784729,0.7312717-0.7612915c0.517971,0.0172062,0.6652803,0.340189,0.6590986,0.8053741
	C15.6937313,23.7725487,15.7014151,24.5721741,15.7013073,25.3717003z"/>
<path opacity="0.6" enable-background="new    " d="M24.0675526,25.3986683c0,0.7758484-0.0073643,1.5517941,0.0027142,2.3275108
	c0.006197,0.4771233-0.1989174,0.7943363-0.6818981,0.7919388c-0.4416409-0.0021954-0.6740627-0.3094845-0.6765251-0.7449341
	c-0.0091438-1.6202888-0.0148125-3.2407188-0.0018597-4.8609352c0.0036221-0.452755,0.2164917-0.7707958,0.733429-0.7445927
	c0.4820309,0.024437,0.6286526,0.3394413,0.6297951,0.7636242c0.0022182,0.8224583,0.0006504,1.6449242,0.0006504,2.4673862
	C24.0717583,25.3986664,24.0696545,25.3986664,24.0675526,25.3986683z"/>
<path opacity="0.6" enable-background="new    " d="M17.9336472,18.0802059c0,0.9862309,0,2.0072746,0,3.0732574
	c-0.2266693,0.0202351-0.4275036,0.038166-0.6635952,0.0592422c-0.0328388,0.3116093-0.0636673,0.604187-0.0971947,0.9223557
	c-0.3339539,0-0.6320515,0-0.9293175,0C15.8674488,20.4026737,16.0805187,18.9090157,17.9336472,18.0802059z"/>
<path opacity="0.6" enable-background="new    " d="M22.9401741,18.1723042c0-1.0891266,0-2.1174774,0-3.1894464
	c0.3663826,0,0.7051601,0,1.0885582,0c0,1.0515451,0,2.0979433,0,3.1894464
	C23.6805553,18.1723042,23.3404064,18.1723042,22.9401741,18.1723042z"/>
<path opacity="0.6" enable-background="new    " d="M22.4012985,14.5016518
	c-2.1771717,0.3820868-3.8159428,0.2368822-4.4214668-0.3994045C19.5447617,14.2624445,21.0189304,13.8640223,22.4012985,14.5016518
	z"/>
<path opacity="0.6" enable-background="new    " d="M16.0216446,24.4712315
	c-0.3544378-1.2752476,0.7373734-1.4792843,1.3049545-2.1099014C17.7112694,23.6487274,16.5251808,23.7877388,16.0216446,24.4712315
	z"/>
<path opacity="0.6" enable-background="new    " d="M22.3542271,24.3812485
	c-0.5042591-0.5917721-1.5983429-0.780056-1.2358971-1.9291821C22.5246735,23.3055325,22.6518764,23.5011368,22.3542271,24.3812485z
	"/>
<path fill="#FFFFFF" d="M12.0313759,20.9877796c-0.782548-0.5466003-1.0686255,0.1371136-1.5342064,0.5624657
	c0.0664721-0.2569656,0.1329432-0.5139332,0.211256-0.8166733c-0.290144-0.0502911-0.5757856-0.0998001-0.8804522-0.152607
	c-0.1728458,0.2842216-0.3417873,0.5620232-0.510726,0.8398247c-0.0693207-0.0307808-0.1386366-0.0615616-0.2079573-0.0923443
	c0.0813828-0.2372627,0.1627607-0.4745274,0.2460947-0.7174759c-0.7748013-0.5732803-1.0825386,0.0257339-1.5257587,0.5535202
	c0.052536-0.2644634,0.1050696-0.5289326,0.1700168-0.8558922c-0.2907481-0.0379791-0.5787139-0.0755901-0.8639412-0.1128483
	c-0.1843219,0.2834282-0.3570256,0.5489883-0.5297298,0.8145466c-0.0575953-0.0295811-0.1151929-0.059164-0.1727881-0.0887451
	c0.0774412-0.2493649,0.1548829-0.4987316,0.2261162-0.7281132c-0.780601-0.5309944-1.1036248,0.0206699-1.3768063,0.6878567
	c-0.0512362-0.038065-0.1024699-0.0761299-0.1537066-0.114193c0.0512753-0.26651,0.1025496-0.5330181,0.1640916-0.8528919
	c-0.467679-0.0862255-0.9373894-0.172823-1.410804-0.260107c0.2914283-1.1329575,1.0049708-1.7156124,2.0418403-1.7151031
	c2.8489332,0.0013981,5.6978683,0.0008869,8.5468044,0.0011215c0.3226137,0.0000267,0.6452265,0.0000038,1.0896416,0.0000038
	c-0.0757284,1.0408325-0.1378746,1.9931641-0.2245407,2.9432564c-0.0092859,0.1018333-0.1548872,0.2641373-0.2485485,0.272541
	c-0.3736687,0.0335255-0.798275-0.0881329-1.1142836,0.0511971c-0.2765751,0.1219444-0.4329519,0.5165043-0.7830696,0.7200108
	c0.0620375-0.2338943,0.1240749-0.4677887,0.2008257-0.7571545c-0.2763634-0.067379-0.5560942-0.1355782-0.871891-0.2125683
	c-0.1666594,0.2987881-0.3260069,0.5844555-0.4853497,0.8701248c-0.064291-0.02318-0.1285877-0.0463562-0.1928778-0.0695343
	C11.9045191,21.5013275,11.9684143,21.2446594,12.0313759,20.9877796z M12.3856897,18.3647671
	c0.2889185,0.7605267,0.550046,1.4478931,0.8390551,2.2086544c0.553669-0.7839336,1.0323-1.4616299,1.5598974-2.2086544
	C13.9642458,18.3647671,13.228756,18.3647671,12.3856897,18.3647671z M12.9924679,20.637249
	c-0.2905235-0.7894135-0.5482244-1.489645-0.8394175-2.2808666c-0.5453892,0.655323-1.0298834,1.2374763-1.594038,1.9153442
	C11.4234056,20.4015656,12.1511774,20.5108814,12.9924679,20.637249z M9.3655319,18.3594532
	c0.3244829,0.6524372,0.6160078,1.238615,0.9347878,1.8795776c0.5361786-0.6459084,1.0193653-1.2279816,1.5602636-1.8795776
	C10.9774113,18.3594532,10.2172222,18.3594532,9.3655319,18.3594532z M9.0666056,18.250452
	c-0.488245,0.5838451-0.9243059,1.1052933-1.335372,1.5968456c0.6551762,0.0964375,1.415184,0.2083035,2.2871523,0.3366489
	C9.6819973,19.5005894,9.3959846,18.9195728,9.0666056,18.250452z M15.1259441,18.4611168
	c-0.0386896-0.014019-0.0773811-0.0280323-0.1160755-0.0420475c-0.5124865,0.7288036-1.0249739,1.4576054-1.6132565,2.2942066
	c0.5837812,0,1.0378046,0,1.5765438,0C15.0228596,19.9806175,15.0744019,19.2208672,15.1259441,18.4611168z M6.6400428,18.362442
	c0.1787996,0.4863186,0.334374,0.9094734,0.5226374,1.4215355c0.5235667-0.4910202,0.9813037-0.9202976,1.5157647-1.4215355
	C7.9232054,18.362442,7.3283381,18.362442,6.6400428,18.362442z M5.0544367,19.464632
	c0.6877904,0.0884304,1.2188454,0.1567097,1.8506784,0.2379475c-0.2088971-0.5129528-0.3689518-0.9059715-0.5519543-1.3553448
	C5.91748,18.722084,5.5500669,19.0382004,5.0544367,19.464632z M6.0228753,18.394062
	c-1.032928-0.2646122-1.2123241,0.4284554-1.5447679,0.9179783c0.0430489,0.0584049,0.0860972,0.116806,0.1291461,0.175209
	C5.0454164,19.1488838,5.4835811,18.8105221,6.0228753,18.394062z"/>
<path fill="#FFFFFF" d="M34.162838,19.6317024c-0.6305161,0.1109447-1.0855713,0.1910133-1.5809326,0.2781773
	c0.0695801,0.2962551,0.1334686,0.568325,0.1973648,0.8403969c-0.0593987,0.0258102-0.1187935,0.0516186-0.1781807,0.0774307
	c-0.1499367-0.2673702-0.2998581-0.5347424-0.4855881-0.8659496c-0.2710667,0.0507374-0.5636158,0.1054935-0.8969536,0.1678886
	c0.0846825,0.2703438,0.1620617,0.5173626,0.2394447,0.7643871c-0.0496578,0.0316334-0.0993176,0.0632668-0.1489735,0.0949001
	c-0.1666508-0.2316456-0.3333054-0.4632912-0.5513325-0.7663498c-0.2098198,0.0137157-0.5064964,0.0331097-0.8589916,0.0561523
	c0.0650673,0.3114567,0.1233063,0.5902309,0.1815395,0.8690033c-0.4522095-0.4125462-0.7428646-1.1410217-1.5400772-0.5475254
	c0.0732975,0.2349281,0.1515026,0.4855843,0.2297077,0.7362385c-0.055706,0.0283146-0.1114159,0.0566292-0.1671295,0.0849419
	c-0.1743317-0.2696457-0.3486595-0.5392952-0.5350132-0.8275356c-0.2822151,0.0412903-0.5775471,0.0845051-0.8790588,0.1286201
	c0.0716515,0.2851562,0.1373272,0.5465126,0.203001,0.807869c-0.0393066,0.048378-0.0786152,0.0967541-0.1179237,0.1451283
	c-0.3522377-0.5169029-0.6185074-1.2466087-1.4302826-0.6730461c0.0708485,0.2193432,0.1508827,0.4671078,0.2309151,0.7148724
	c-0.5200977-0.2380371-0.6937733-1.2549438-1.5453281-0.4561825c0.0361462,0.1497784,0.0968342,0.4011898,0.1684895,0.6980572
	c-0.0738316-0.0310688-2.086401-0.8780003-2.1732273-0.9145374c-0.0540791-0.9618092-0.1104813-1.9650211-0.174736-3.1078663
	c0.5942001,0,1.1247158-0.0001297,1.6552277,0.0000229c2.6379795,0.0007629,5.2765579,0.0330429,7.9135647-0.0171871
	c0.7685261-0.014637,1.3066807,0.1717911,1.6686382,0.8533688C33.7246361,19.0321426,33.9136391,19.2640266,34.162838,19.6317024z
	 M24.6806602,20.5939827c0.2888985-0.7971973,0.5442963-1.5019379,0.8096924-2.2342854c-0.8220272,0-1.5597172,0-2.3916531,0
	C23.6386795,19.1223412,24.1281528,19.8136463,24.6806602,20.5939827z M27.3383713,20.266983
	c-0.586731-0.6945324-1.0778694-1.2759094-1.6061001-1.9011974c-0.2877617,0.7817974-0.5441837,1.4784622-0.8347569,2.2679005
	C25.7309189,20.5084782,26.4728374,20.3970165,27.3383713,20.266983z M26.0175056,18.3569832
	c0.5509052,0.6570854,1.0371361,1.2370281,1.5836658,1.8889027c0.3214588-0.6698666,0.6103039-1.2717667,0.906456-1.8889027
	C27.6404781,18.3569832,26.8826199,18.3569832,26.0175056,18.3569832z M30.4166298,19.8082161
	c-0.599102-0.5694256-1.0795307-1.0260544-1.6086845-1.5290031c-0.322567,0.6537952-0.60639,1.2290611-0.9412746,1.9078217
	C28.7514477,20.0555935,29.5111275,19.9427376,30.4166298,19.8082161z M22.889061,18.4244366
	c-0.0413437,0.0105076-0.0826797,0.0210152-0.1240158,0.0315266c0.0544224,0.7702541,0.1088428,1.5405083,0.1658306,2.3470154
	c0.5627518-0.027607,1.0050507-0.049305,1.5736046-0.0771961C23.8974075,19.8609428,23.3932362,19.1426907,22.889061,18.4244366z
	 M29.1752853,18.3510761c0.5856686,0.5353966,1.0394478,0.950222,1.5665741,1.4321022
	c0.1846676-0.52841,0.3324413-0.9512653,0.5004807-1.4321022C30.5494156,18.3510761,29.9555244,18.3510761,29.1752853,18.3510761z
	 M32.8387604,19.4659653c-0.5015717-0.4287891-0.8840179-0.7557316-1.3159466-1.1249809
	c-0.1796761,0.4737778-0.3321857,0.8759251-0.5187263,1.3678055C31.6202335,19.627243,32.1432991,19.5580139,32.8387604,19.4659653z
	 M33.2670555,19.5000362c0.0603065-0.0799561,0.1206169-0.159914,0.1809235-0.239872
	c-0.4241676-0.3632412-0.5332413-1.2079792-1.5264778-0.8341999C32.4054794,18.812294,32.8362656,19.1561661,33.2670555,19.5000362z
	"/>
<path fill="#FFFFFF" d="M17.3274117,15.0109529c0.6145229,1.7420912-0.3971786,2.5756216-1.674509,3.3473577
	c0-0.2918987,0-0.5398159,0-0.8410587c-0.7680683,0-1.4832325,0-2.2947016,0c0-0.605402-0.1411924-1.2135639,0.0464878-1.692976
	c0.1399155-0.3573866,0.683507-0.7290945,1.0852413-0.7770967C15.4358053,14.9341593,16.4043617,15.0109529,17.3274117,15.0109529z"
	/>
<path fill="#FFFFFF" d="M17.1424427,21.1494675c1.0730152,0,2.1210098,0,3.2148647,0c0,0.9139194,0,1.7902775,0,2.7115898
	c-1.0736008,0-2.1175709,0-3.2148647,0C17.1424427,22.9583778,17.1424427,22.0602417,17.1424427,21.1494675z"/>
<path fill="#FFFFFF" d="M17.7370396,17.6721706c0.000721-0.8471336,0.0224228-1.6950321-0.007452-2.5411081
	c-0.0178032-0.5042763,0.1332493-0.7350674,0.6735134-0.7209654c1.0349045,0.02701,2.0712395,0.02071,3.106514,0.0022774
	c0.4672165-0.0083179,0.6851063,0.146122,0.6827335,0.6447201c-0.0081558,1.7166595,0.0068054,3.4334869,0.021759,5.1501694
	c0.0044289,0.508976-0.1577644,0.7837811-0.7363338,0.7642422c-1.01091-0.0341339-2.024725-0.0368176-3.0354614-0.0006618
	c-0.5820446,0.0208225-0.7310448-0.2297516-0.7135315-0.7571335C17.7568798,19.3673801,17.7363167,18.5194321,17.7370396,17.6721706
	z M18.1896725,20.4839764c1.2180557,0,2.3585396,0,3.4787426,0c0-1.9001083,0-3.7475338,0-5.5791378
	c-1.1919632,0-2.3297043,0-3.4787426,0C18.1896725,16.7921448,18.1896725,18.62113,18.1896725,20.4839764z"/>
<path fill="#FFFFFF" d="M15.1960335,24.8664284c-0.0001116,0.776041-0.0129929,1.552372,0.00459,2.3280144
	c0.0110083,0.4857445-0.219101,0.7997856-0.672965,0.8171635c-0.4753456,0.0182018-0.7167063-0.3434849-0.7211275-0.7907429
	c-0.0157957-1.5989132-0.0176048-3.1982269,0.0021725-4.7970581c0.0054302-0.4391861,0.2140007-0.7784729,0.7312717-0.7612915
	c0.517971,0.0172062,0.6652803,0.340189,0.6590977,0.8053761C15.1884584,23.2672749,15.1961422,24.0669022,15.1960335,24.8664284z"
	/>
<path fill="#FFFFFF" d="M23.5622787,24.8933964c0,0.7758484-0.0073643,1.5517921,0.0027161,2.3275089
	c0.0061932,0.4771233-0.1989174,0.7943382-0.6818981,0.7919388c-0.4416428-0.0021954-0.6740646-0.3094845-0.6765251-0.7449322
	c-0.0091457-1.6202908-0.0148125-3.2407188-0.0018616-4.8609371c0.0036221-0.452755,0.2164936-0.7707958,0.7334309-0.7445908
	c0.4820309,0.024435,0.6286507,0.3394413,0.6297951,0.7636242c0.0022182,0.8224564,0.0006504,1.6449223,0.0006504,2.4673862
	C23.5664845,24.8933945,23.5643826,24.8933945,23.5622787,24.8933964z"/>
<path fill="#FFFFFF" d="M17.4283752,17.5749321c0,0.9862309,0,2.0072765,0,3.0732574
	c-0.2266712,0.020237-0.4275055,0.038166-0.663599,0.0592442c-0.032835,0.3116074-0.0636654,0.604187-0.0971909,0.9223537
	c-0.3339558,0-0.6320515,0-0.9293194,0C15.3621759,19.8974018,15.5752459,18.4037437,17.4283752,17.5749321z"/>
<path fill="#FFFFFF" d="M22.4349022,17.6670322c0-1.0891266,0-2.1174774,0-3.1894484c0.3663807,0,0.7051582,0,1.0885563,0
	c0,1.0515451,0,2.0979433,0,3.1894484C23.1752815,17.6670322,22.8351326,17.6670322,22.4349022,17.6670322z"/>
<path fill="#FFFFFF" d="M21.8960247,13.9963789c-2.1771717,0.3820868-3.8159428,0.2368822-4.4214668-0.3994055
	C19.0394897,13.7571707,20.5136585,13.3587494,21.8960247,13.9963789z"/>
<path fill="#FFFFFF" d="M15.5163727,23.9659576c-0.3544397-1.2752476,0.7373714-1.4792843,1.3049545-2.1098995
	C17.2059975,23.1434555,16.0199089,23.2824669,15.5163727,23.9659576z"/>
<path fill="#FFFFFF" d="M21.8489532,23.8759747c-0.5042591-0.5917721-1.598341-0.780056-1.2358971-1.9291801
	C22.0193996,22.8002586,22.1466045,22.9958649,21.8489532,23.8759747z"/>
</svg>
