<?xml version="1.0" encoding="utf-8"?>
<!-- Generator: Adobe Illustrator 17.1.0, SVG Export Plug-In . SVG Version: 6.00 Build 0)  -->
<!DOCTYPE svg PUBLIC "-//W3C//DTD SVG 1.1//EN" "http://www.w3.org/Graphics/SVG/1.1/DTD/svg11.dtd">
<svg version="1.1" id="Layer_1" xmlns="http://www.w3.org/2000/svg" xmlns:xlink="http://www.w3.org/1999/xlink" x="0px" y="0px"
	 viewBox="0 0 60 60" enable-background="new 0 0 60 60" xml:space="preserve">
<g id="base">
	<g>
		
			<linearGradient id="SVGID_1_" gradientUnits="userSpaceOnUse" x1="-12.6099606" y1="85" x2="-12.6099606" y2="90.3407974" gradientTransform="matrix(4 0 3.0474641 -4 -185.8804321 400)">
			<stop  offset="0" style="stop-color:#000000;stop-opacity:0.4"/>
			<stop  offset="1" style="stop-color:#000000;stop-opacity:0"/>
		</linearGradient>
		<path fill="url(#SVGID_1_)" d="M10.9777107,51.3203468c-1.2281895-1.3760834-1.2459393-2.8060074-0.0538082-4.3707581
			c3.5513048-4.6613235,15.8794746-8.3127785,28.0664539-8.3127785c12.1864014,0,18.9507294,3.6514549,15.3994217,8.3127785
			c-1.1922951,1.5649719-3.388279,2.9948997-6.7130814,4.3707581l-24.9622326,8.6796608L10.9777107,51.3203468z"/>
		
			<linearGradient id="SVGID_2_" gradientUnits="userSpaceOnUse" x1="5.7339597" y1="85.5998688" x2="5.7339597" y2="99.6992722" gradientTransform="matrix(4 0 0 -4 0 400)">
			<stop  offset="0" style="stop-color:#006699"/>
			<stop  offset="1" style="stop-color:#007BB8"/>
		</linearGradient>
		<path fill="url(#SVGID_2_)" d="M4.5866413,34.686718C2.3100612,31.0539417,1.202901,27.2790241,1.202901,23.1481705
			c0-12.3056307,9.5462475-21.9452667,21.7332325-21.9452667c12.1863976,0,21.7326431,9.639637,21.7326431,21.9452667
			c0,4.131443-1.1065712,7.9063587-3.383152,11.5385475L22.9361343,57.6005287L4.5866413,34.686718z"/>
		<path fill="#FFFFFF" d="M22.9358578,2.4058051c11.5122089,0,20.5301151,9.1112213,20.5301151,20.7425861
			c0,3.8765488-1.0349464,7.4239712-3.1630898,10.8400307L22.9358578,55.6755371L5.5689535,33.9884758
			c-2.1281793-3.4162006-3.163157-6.9636707-3.163157-10.8400841C2.4057965,11.5170269,11.4236746,2.4058051,22.9358578,2.4058051
			 M22.9358578,0.0000076C10.1573973,0.0000076,0,10.25142,0,23.1483917c0,4.6296749,1.3107049,8.5979481,3.6042993,12.2355232
			l19.3315582,24.1404457l19.3316555-24.1404457c2.2936401-3.6375751,3.6042557-7.6058483,3.6042557-12.2355232
			C45.871769,10.25142,35.7144241,0.0000076,22.9358578,0.0000076L22.9358578,0.0000076z"/>
	</g>
</g>
<path opacity="0.6" fill="#020302" enable-background="new    " d="M38.6647224,24.6770782
	c-0.0120125,0.2401371-0.0240173,0.4802856-0.035862,0.7202168c-0.2090034,0.1296558-0.4132652,0.2640934-0.4864311,0.5209522
	c-0.0469398-0.009882-0.0575142,0.0081596-0.037941,0.0493813c-0.1212349,0.0752525-0.0857773,0.1507111-0.0003128,0.2262363
	c0.323101,0.2639961,0.2268448,0.5090694-0.1174774,0.7711468c0.425045,0.052702,0.5104523,0.3434753,0.6174355,0.615715
	c0.1191559,0.3032131,0.2288933,0.6104774,0.3582993,0.9092331c0.1154518,0.2665234,0.0184517,0.3828659-0.2459564,0.4293499
	c-0.3940735,0.0693054-0.7875023,0.1441307-1.1779861,0.2311077c-0.2203331,0.0490742-0.3885727,0.069685-0.2641678,0.4310036
	c0.2677841,0.7777786-0.2324486,1.6906281-0.9202347,2.2068882c-0.5136642,0.3855686-1.015564,0.5428486-1.6371078,0.5129108
	c-0.4977646-0.0239639-0.8566971-0.308712-1.2480583-0.537487c-0.1726532-0.1009197-0.3083992-0.2649651-0.4608841-0.4002304
	c0.1444054-0.2635059-0.1356354-0.3171558-0.2291451-0.4630871c0.0943794-0.2788963-0.2676392-0.4962788-0.1089401-0.7873554
	c0.0055351-0.0101528-0.0476456-0.0717888-0.0812416-0.0809631c-0.8835564-0.2411919-1.7503376-0.6003761-2.6990814-0.398407
	c-0.0577908,0.0122852-0.1343594,0.0146599-0.1675777,0.0522442c-0.4324303,0.4891529-1.0070782,0.3325806-1.5416145,0.3414383
	c-0.6678638,0.0110569-1.3360195,0.0095291-2.0040054,0.006361c-0.3522987-0.0016785-0.5544605,0.1302547-0.5159855,0.5151672
	c0.0040531,0.0406036-0.0236835,0.0834885-0.0310459,0.1262779c-0.046896,0.2721882-0.4169617,0.2663383-0.4629135,0.4603081
	c-0.072094,0.3044014-0.3607502,0.3107185-0.475317,0.4565411c-0.2431583,0.3095188-0.6578102,0.2365761-0.875639,0.525713
	c-0.0447941,0.0594368-0.1777821,0.1141853-0.2379589,0.0902634c-0.4004135-0.1592216-0.7352409,0.2124596-1.1901989,0.089447
	c-0.2824821-0.0763512-0.6062832-0.2522202-0.8724442-0.2303238c-0.416048,0.0342331-0.6210098-0.2354527-0.8796482-0.4068737
	c-0.2951622-0.1956711-0.6108761-0.4495983-0.7593708-0.7551441c-0.1937618-0.3986816-0.4981022-0.7477226-0.5925274-1.1914406
	c-0.0370808-0.1742535-0.174242-0.3670788,0.0338688-0.5331097c0.0359058-0.0286369,0.1344547-0.0738697,0.0490913-0.1242504
	c-0.3025246-0.1784821-0.1204987-0.4514847-0.1501732-0.6823845c0.0577965-0.0282173,0.115593-0.0564213,0.1733818-0.0846138
	c-0.0806885-0.0557957-0.1550426-0.0473728-0.2233772,0.0220375c-0.6704674,0.211216-0.7455349,0.2848358-0.6148453,0.933876
	c0.1565361,0.7773876,0.1910133,1.51754-0.2502308,2.2262115c-0.144455,0.2319889-0.2704449,0.3799782-0.5803776,0.3619614
	c-0.5476093-0.0318546-1.0984421-0.0047703-1.6478443-0.0105362c-0.5211926-0.0054569-1.0387259-0.011219-1.5257816,0.22686
	c-0.1003904,0.0490761-0.231348,0.0487823-0.3482513,0.0489883c-2.7469807,0.0047264-5.4939661,0.0065155-8.2409515,0.0080185
	c-0.0709882,0.000042-0.1419754-0.0089645-0.2217932-0.0143356c0.0227618-0.1529579,0.1261148-0.2362499,0.2172122-0.2777653
	c1.0822449-0.4930859,1.94768-1.3282986,2.9929304-1.8853493c0.368453-0.1963806,0.6926622-0.0264416,1.0613384-0.0828819
	c-0.0418196-0.3272972-0.2731895-0.5493088-0.3983393-0.819088c-0.0373211-0.0804615-0.0771856-0.1635437-0.1333151-0.2308998
	c-0.6198778-0.7438164-0.5862446-1.4914742-0.0213461-2.2453194c0.1622267-0.1405373,0.2469578-0.3262844,0.3070736-0.5263901
	c0.247551-0.4597301,0.6279716-0.6101589,1.1396322-0.5398731c0.2908354,0.0399799,0.5936241,0.0224724,0.8883219-0.0018539
	c0.4674215-0.0385838,0.8785181,0.0237598,1.1295071,0.4799614c-0.0059109,0.0242271,0.0014648,0.0433254,0.0221291,0.0572891
	c-0.0107832,0.0795116,0.0182362,0.1419544,0.0813265,0.1898098c0.0557642,0.1190891,0.0648928,0.2636681,0.1888189,0.3454685
	c0.0795498,0.1163235,0.1960287,0.1167583,0.3119316,0.0866585c0.4557981-0.1184139,0.9200926-0.0926704,1.3832397-0.0901012
	c0.296174,0.0211906,0.5923557,0.0423775,0.8885298,0.0635777c0.2630253,0.0315781,0.5350761,0.0281792,0.7553883,0.2145805
	c0.0715504,0.0605335,0.1610336,0.0863323,0.248476,0.0387363c0.5359268-0.2916431,1.0258923-0.6473064,1.498827-1.0569382
	c-0.8777351,0.0725174-1.2577629-0.4727936-1.5458698-1.1412868c-0.0549641-0.2042866-0.1099281-0.4085655-0.1648903-0.6128616
	c-0.0384445-0.149725-0.0768814-0.2994442-0.1153202-0.4491653c0.0056915-0.1629372-0.0059967-0.3209152-0.1275101-0.4476166
	c-0.0516949-0.5912952-0.2029591-1.1558838-0.4540768-1.6937141c0.0020161-0.5343513-0.0591135-1.0537014-0.3601742-1.516058
	c-0.1344862-0.3368626,0.0120373-0.6094303,0.1996794-0.8725758c0.279748-0.1399612-0.0009365-0.5580997,0.3331251-0.6711006
	c0.1427937,0.0252743,0.3193836,0.0707436,0.3501034-0.1280308c0.0674095-0.4361458,0.3587265-0.3134403,0.6222973-0.2783413
	l0.0025158,0.0043564c0.0400009,0.1773815-0.0265961,0.5443859,0.280014,0.3891964
	c0.3622704-0.1833611,0.7161541-0.0919437,1.0671787-0.1578388c0.1188698-0.0009689,0.2377415-0.0019283,0.3566113-0.0028858
	c0.649025-0.0485115,1.2537041,0.2926655,1.913763,0.2062798c0.2187767-0.0286388,0.4273319-0.0536957,0.5541573-0.2225227
	c0.2768917-0.368618,0.6442223-0.4310055,1.0661011-0.4053612c0.2504959,0.0152187,0.5036201-0.0127563,0.7555561-0.0213089
	c0.6198215,0.0367565,1.2396584,0.0494041,1.8594913,0.0002747c0.7543583,0.0092468,1.5087585,0.027689,2.2630424,0.0234737
	c0.3259144-0.0018177,0.5699825,0.0635223,0.8210621,0.3225594c0.310812,0.3206959,0.7140293,0.5233498,1.1759701,0.6648026
	c2.0039616,0.6136799,4.056675,0.4844608,6.1018333,0.493742c1.8579865,0.0084305,3.7160416,0.0010891,5.57407,0.0035934
	c0.6322937,0.0008488,1.3889999,0.7571487,1.389904,1.3817101c0.0003357,0.2378178,0.0025063,0.4757214-0.0033875,0.7134094
	c-0.0020523,0.0824337,0.0296021,0.1919231-0.0791893,0.2304306c-0.0997276,0.0353165-0.1641464-0.0486374-0.2259331-0.1086941
	c-0.2982979-0.2899094-0.5979691-0.5786572-0.8886185-0.8761387c-0.1770439-0.1812057-0.3779678-0.2664776-0.6342506-0.2651939
	c-1.1741524,0.0059357-2.3484154,0.0084972-3.52248-0.0034637c-0.2818642-0.0028763-0.3296928,0.0559044-0.281929,0.351078
	c0.1486549,0.9186134,0.8097763,1.4773216,1.3670578,2.1229954c0.2510529,0.2908802,0.689064,0.44594,0.7182617,0.9117489
	C38.6164436,24.0634079,38.6090775,24.3701935,38.6647224,24.6770782z M10.2717066,29.8716259
	c0.7792997,0.3862228,1.4745064,0.4020386,2.1844578,0.128685c0.1912031-0.0736179,0.3996353-0.1046658,0.6018639-0.1471157
	c0.993516-0.2085266,1.7877731-0.8163223,2.6351185-1.3164787c0.0968609-0.0571823,0.2148438-0.1623898,0.0411234-0.2700214
	c-0.5536013-0.343071-1.1059866-0.6890163-1.6728287-1.0090599c-0.1106186-0.0624638-0.3960466-0.0957012-0.293087,0.1780548
	c0.1292152,0.3435955-0.0334358,0.5663033-0.1909037,0.8171501c-0.2518873,0.4012527-0.5267591,0.7916794-0.7380133,1.213665
	c-0.1577711,0.3151169-0.3651466,0.4208736-0.7007732,0.4103279C11.5471754,29.8582497,10.9546795,29.8716259,10.2717066,29.8716259
	z M6.9641104,31.5692596c0.1011963,0.0234013,0.1450973,0.0476265,0.1828051,0.0402412
	c1.2654037-0.2477417,2.4394541-0.8104038,3.6997156-1.0781708c0.0427847-0.0090961,0.0930319-0.0808525,0.1021385-0.1303329
	c0.0190363-0.1034546-0.0819626-0.1087055-0.1458921-0.124588c-0.4591532-0.1140327-0.911128-0.2694721-1.3903694-0.2764683
	c-0.0983477-0.0014381-0.2141466,0.0193157-0.293478,0.0723648C8.4085169,30.5474319,7.6510925,30.9555378,6.9641104,31.5692596z
	 M11.3455677,26.2462444c-0.1327372,0.0335617-0.3854952-0.1224346-0.5232668,0.1340771
	c-0.0512657,0.0954475,0.3576689,0.8567791,0.4716749,0.8734779c0.2967739,0.0434666,0.2519255-0.2642021,0.3776207-0.3993587
	c0.0695772-0.0748043,0.1175852-0.1692638,0.1835575-0.2479591c0.067976-0.0810928,0.1507187-0.1666164,0.1001501-0.2724037
	c-0.0518255-0.1084003-0.1775169-0.0820293-0.2778625-0.0869293C11.5892525,26.2428341,11.5006876,26.2462444,11.3455677,26.2462444
	z M10.3949566,27.8111038c-0.1735401,0.084362-0.4534559-0.1361027-0.5470486,0.1910973
	c-0.0231438,0.0808964,0.5390692,0.845808,0.6055527,0.8531284c0.0972853,0.0107117,0.5794935-0.7435417,0.5255222-0.8765945
	C10.8654938,27.6990204,10.5979195,27.8748016,10.3949566,27.8111038z M11.3678732,29.161581
	c0.2001305-0.0775299,0.4721928,0.124157,0.5764923-0.1664295c0.0530252-0.1477184-0.45576-0.8426323-0.5825663-0.8520966
	c-0.1648912-0.0123215-0.5652838,0.5360603-0.5385513,0.8070393C10.8641863,29.365097,11.2075462,29.0336037,11.3678732,29.161581z
	 M10.420845,27.5681667c0.1884251-0.0735188,0.4783316,0.133709,0.5586824-0.1730995
	c0.0625401-0.2388306-0.3451195-0.8823338-0.5045195-0.8841667c-0.1100531-0.0012627-0.6615191,0.7399483-0.6163692,0.8803234
	C9.9565649,27.6956768,10.2357531,27.4870548,10.420845,27.5681667z M12.8365726,28.0140953
	c0.0184097-0.0945358-0.0326195-0.1520958-0.1102152-0.1631203c-0.3085947-0.0439548-0.6207705-0.0542049-0.9274473,0.0001526
	c-0.1526794,0.0270576-0.1103401,0.1562481-0.05334,0.2453117c0.1508923,0.2357597,0.3107986,0.4658318,0.4700308,0.6961441
	c0.0466738,0.0675182,0.1278133,0.1114101,0.1775217,0.0277481C12.5503597,28.5557365,12.6911812,28.2813911,12.8365726,28.0140953z
	 M11.8693752,27.1692333c0.1974964,0.0413952,0.3474941-0.0728874,0.5097265-0.1277046
	c0.0917673-0.031004,0.2188959-0.0633812,0.1666565-0.208559c-0.039278-0.1091194-0.0706558-0.2430782-0.1971025-0.2802238
	c-0.1174984-0.034523-0.1922569,0.0561428-0.2425842,0.151495C12.0265646,26.8548431,11.8742666,26.9698582,11.8693752,27.1692333z"
	/>
<path fill="#FFFFFF" d="M38.0583954,24.0707493c-0.0120163,0.240139-0.0240211,0.4802856-0.035862,0.7202187
	c-0.2090034,0.1296539-0.413269,0.2640934-0.4864311,0.5209522c-0.0469398-0.009882-0.057518,0.0081577-0.037941,0.0493793
	c-0.1212349,0.0752525-0.0857773,0.1507149-0.0003166,0.2262402c0.3231049,0.2639923,0.2268486,0.5090656-0.1174774,0.771143
	c0.425045,0.052702,0.5104523,0.3434753,0.6174393,0.6157169c0.1191521,0.3032112,0.2288971,0.6104774,0.3582993,0.9092312
	c0.1154518,0.2665234,0.0184555,0.3828659-0.2459526,0.4293499c-0.3940773,0.0693054-0.7875099,0.1441326-1.17799,0.2311096
	c-0.2203331,0.0490742-0.3885765,0.069685-0.2641678,0.4310036c0.2677841,0.7777805-0.2324486,1.6906281-0.9202385,2.2068863
	c-0.5136604,0.3855667-1.0155602,0.5428486-1.6371078,0.5129128c-0.497757-0.0239639-0.8566933-0.3087139-1.2480545-0.5374889
	c-0.1726532-0.1009197-0.3083992-0.2649651-0.4608879-0.4002304c0.1444092-0.2635021-0.1356316-0.3171558-0.2291451-0.4630871
	c0.0943832-0.2788963-0.2676334-0.4962788-0.1089363-0.7873535c0.0055351-0.0101528-0.0476456-0.0717888-0.0812416-0.0809612
	c-0.8835583-0.2411938-1.7503395-0.6003761-2.6990833-0.3984108c-0.0577888,0.0122871-0.1343594,0.0146618-0.1675758,0.0522442
	c-0.4324303,0.4891548-1.0070782,0.3325806-1.5416164,0.3414383c-0.66786,0.0110569-1.3360195,0.009531-2.0040035,0.0063629
	c-0.3522987-0.0016766-0.5544624,0.1302547-0.5159874,0.5151672c0.0040531,0.0406017-0.0236816,0.0834885-0.0310459,0.126276
	c-0.046896,0.2721901-0.4169617,0.2663422-0.4629097,0.46031c-0.0720959,0.3043995-0.360754,0.3107185-0.4753208,0.4565411
	c-0.2431564,0.3095169-0.6578102,0.2365742-0.8756371,0.5257111c-0.0447941,0.0594368-0.1777821,0.1141872-0.2379589,0.0902653
	c-0.4004154-0.1592197-0.735239,0.2124577-1.1901989,0.0894489c-0.2824802-0.0763531-0.6062851-0.2522202-0.8724461-0.2303238
	c-0.4160461,0.0342274-0.6210098-0.2354527-0.8796463-0.4068756c-0.2951603-0.1956692-0.610878-0.4496002-0.7593708-0.7551441
	c-0.1937637-0.3986835-0.4981022-0.7477245-0.5925274-1.1914406c-0.0370827-0.1742554-0.1742439-0.3670807,0.0338688-0.5331078
	c0.0359039-0.0286407,0.1344528-0.0738735,0.0490913-0.1242542c-0.3025265-0.1784821-0.1205006-0.4514847-0.1501751-0.6823845
	c0.0577984-0.0282154,0.1155949-0.0564194,0.1733837-0.0846119c-0.0806885-0.0557976-0.1550426-0.0473747-0.2233772,0.0220356
	c-0.6704674,0.2112198-0.7455368,0.2848377-0.6148472,0.933876c0.156538,0.7773876,0.1910152,1.5175419-0.2502308,2.2262115
	c-0.144453,0.2319889-0.270443,0.3799801-0.5803757,0.3619633c-0.5476112-0.0318565-1.098444-0.0047722-1.6478453-0.0105362
	c-0.5211926-0.005455-1.0387249-0.011219-1.5257816,0.22686c-0.1003904,0.0490761-0.231348,0.0487823-0.3482523,0.0489883
	c-2.7469788,0.0047283-5.4939651,0.0065155-8.2409496,0.0080185c-0.0709882,0.000042-0.1419754-0.0089684-0.2217927-0.0143394
	c0.0227618-0.1529541,0.1261144-0.2362461,0.2172117-0.2777615c1.0822449-0.4930878,1.94768-1.3283005,2.9929304-1.8853512
	c0.368454-0.1963806,0.6926622-0.0264416,1.0613403-0.0828819c-0.0418215-0.3272972-0.2731905-0.5493069-0.3983412-0.819088
	c-0.0373211-0.0804577-0.0771856-0.1635418-0.1333151-0.2308998c-0.6198778-0.7438126-0.5862446-1.4914722-0.0213461-2.2453194
	c0.1622267-0.1405354,0.2469568-0.3262825,0.3070736-0.5263901c0.247551-0.4597282,0.6279707-0.6101589,1.1396332-0.5398731
	c0.2908354,0.0399799,0.5936222,0.0224724,0.8883219-0.0018539c0.4674206-0.0385838,0.8785172,0.0237598,1.1295052,0.4799652
	c-0.005909,0.0242233,0.0014658,0.0433216,0.022131,0.0572891c-0.0107841,0.0795097,0.0182352,0.1419506,0.0813265,0.1898079
	c0.0557632,0.1190891,0.0648928,0.2636662,0.188817,0.3454666c0.0795517,0.1163235,0.1960306,0.1167583,0.3119326,0.0866604
	c0.4557981-0.1184139,0.9200935-0.0926723,1.3832397-0.0901012c0.296175,0.0211887,0.5923557,0.0423756,0.8885298,0.0635757
	c0.2630253,0.0315781,0.5350752,0.0281792,0.7553892,0.2145805c0.0715485,0.0605373,0.1610336,0.0863323,0.248476,0.0387363
	c0.5359268-0.2916431,1.0258923-0.6473064,1.4988251-1.0569382c-0.8777332,0.0725193-1.257761-0.4727898-1.5458679-1.1412868
	c-0.054966-0.2042866-0.1099281-0.4085655-0.1648912-0.6128616c-0.0384436-0.1497211-0.0768814-0.2994423-0.1153193-0.4491653
	c0.0056906-0.1629372-0.0059986-0.3209114-0.1275101-0.4476166c-0.0516958-0.5912933-0.2029581-1.1558838-0.4540777-1.6937103
	c0.0020161-0.5343552-0.0591135-1.0537052-0.3601732-1.5160599c-0.1344872-0.3368645,0.0120363-0.6094322,0.1996784-0.8725777
	c0.279747-0.1399593-0.0009375-0.5580997,0.3331261-0.6710987c0.1427927,0.0252724,0.3193836,0.0707436,0.3501034-0.1280327
	c0.0674095-0.4361458,0.3587265-0.3134403,0.6222973-0.2783413l0.0025158,0.0043564
	c0.039999,0.1773815-0.026598,0.5443859,0.2800121,0.3891964c0.3622723-0.1833611,0.716156-0.0919418,1.0671787-0.1578369
	c0.1188717-0.0009689,0.2377434-0.0019283,0.3566113-0.0028877c0.649025-0.0485096,1.253706,0.2926674,1.913763,0.2062817
	c0.2187767-0.0286388,0.4273319-0.0536957,0.5541573-0.2225246c0.2768955-0.3686161,0.6442242-0.4310036,1.0661011-0.4053612
	c0.2504978,0.0152187,0.5036201-0.0127544,0.7555561-0.021307c0.6198235,0.0367546,1.2396584,0.0494022,1.8594913,0.0002728
	c0.7543583,0.0092487,1.5087605,0.0276909,2.2630424,0.0234756c0.3259144-0.0018196,0.5699863,0.0635204,0.8210621,0.3225594
	c0.3108139,0.3206959,0.7140293,0.5233498,1.1759701,0.6648006c2.0039635,0.6136799,4.056673,0.4844608,6.1018353,0.493742
	c1.8579865,0.0084324,3.7160378,0.0010891,5.5740662,0.0035954c0.6323013,0.0008488,1.3889999,0.7571468,1.389904,1.3817081
	c0.0003357,0.2378197,0.0025063,0.4757233-0.0033836,0.7134113c-0.0020485,0.0824318,0.0296059,0.1919212-0.0791855,0.2304306
	c-0.0997353,0.0353184-0.1641464-0.0486393-0.2259407-0.108696c-0.2982941-0.2899094-0.5979652-0.5786572-0.8886185-0.8761387
	c-0.1770401-0.1812019-0.377964-0.2664776-0.6342468-0.2651939c-1.1741524,0.0059376-2.3484154,0.0084972-3.5224838-0.0034618
	c-0.2818604-0.0028782-0.3296928,0.0559025-0.2819252,0.3510761c0.1486549,0.9186153,0.8097763,1.4773235,1.3670578,2.1229954
	c0.2510529,0.2908802,0.689064,0.44594,0.7182579,0.9117489C38.0101166,23.4570808,38.0027504,23.7638664,38.0583954,24.0707493z
	 M9.6653786,29.2652969c0.7792997,0.3862228,1.4745064,0.4020386,2.1844568,0.128685
	c0.1912041-0.0736179,0.3996363-0.1046638,0.6018648-0.1471157c0.993516-0.2085247,1.7877722-0.8163223,2.6351185-1.3164768
	c0.0968609-0.0571823,0.2148447-0.1623917,0.0411243-0.2700195c-0.5536013-0.3430729-1.1059875-0.6890202-1.6728296-1.0090618
	c-0.1106176-0.0624657-0.3960466-0.0956993-0.2930861,0.1780548c0.1292143,0.3435936-0.0334377,0.5663013-0.1909056,0.8171482
	c-0.2518864,0.4012547-0.5267572,0.7916832-0.7380114,1.213665c-0.1577721,0.3151207-0.3651485,0.4208755-0.7007732,0.4103317
	C10.9408484,29.2519226,10.3483515,29.2652969,9.6653786,29.2652969z M6.3577828,30.9629307
	c0.1011958,0.0234013,0.1450968,0.0476265,0.1828051,0.0402412c1.2654037-0.2477398,2.4394536-0.8104038,3.6997151-1.0781708
	c0.0427856-0.0090942,0.0930319-0.0808525,0.1021395-0.1303291c0.0190353-0.1034565-0.0819635-0.1087074-0.1458921-0.1245918
	c-0.4591551-0.1140327-0.911129-0.2694721-1.3903704-0.2764683c-0.0983477-0.0014381-0.2141457,0.0193157-0.293478,0.0723686
	C7.8021898,29.9411049,7.0447645,30.3492088,6.3577828,30.9629307z M10.7392406,25.6399155
	c-0.1327391,0.0335617-0.3854971-0.1224346-0.5232668,0.1340771c-0.0512667,0.0954494,0.3576679,0.8567791,0.4716749,0.8734798
	c0.296773,0.0434666,0.2519245-0.2642021,0.3776197-0.3993568c0.0695782-0.0748081,0.1175852-0.1692657,0.1835566-0.247963
	c0.067977-0.0810909,0.1507196-0.1666145,0.1001511-0.2724037c-0.0518265-0.1084003-0.1775169-0.0820274-0.2778625-0.0869293
	C10.9829245,25.6365051,10.8943605,25.6399155,10.7392406,25.6399155z M9.7886295,27.2047768
	c-0.1735411,0.0843601-0.4534569-0.1361046-0.5470486,0.1910954c-0.0231438,0.0808964,0.5390682,0.8458099,0.6055517,0.8531303
	c0.0972853,0.0107098,0.5794945-0.7435417,0.5255232-0.8765926C10.2591648,27.0926933,9.9915924,27.2684727,9.7886295,27.2047768z
	 M10.7615452,28.5552559c0.2001314-0.0775318,0.4721928,0.1241531,0.5764933-0.1664333
	c0.0530243-0.1477165-0.45576-0.8426304-0.5825672-0.8520947c-0.1648903-0.0123215-0.5652847,0.5360584-0.5385504,0.8070374
	C10.2578583,28.7587681,10.6012192,28.4272766,10.7615452,28.5552559z M9.8145161,26.9618397
	c0.188427-0.0735188,0.4783335,0.133707,0.5586834-0.1730995c0.0625401-0.2388306-0.3451195-0.8823357-0.5045185-0.8841686
	c-0.1100531-0.0012627-0.6615191,0.7399483-0.6163712,0.8803253C9.3502378,27.0893478,9.6294241,26.8807259,9.8145161,26.9618397z
	 M12.2302456,27.4077682c0.0184097-0.0945339-0.0326214-0.1520939-0.1102161-0.1631222
	c-0.3085938-0.0439548-0.6207714-0.0542049-0.9274473,0.0001526c-0.1526785,0.0270615-0.1103411,0.1562481-0.0533409,0.2453136
	c0.1508932,0.2357578,0.3107996,0.4658298,0.4700317,0.696146c0.0466728,0.0675163,0.1278143,0.1114063,0.1775227,0.0277443
	C11.9440317,27.9494076,12.0848541,27.6750641,12.2302456,27.4077682z M11.2630482,26.5629044
	c0.1974945,0.0413952,0.3474941-0.0728874,0.5097265-0.1277046c0.0917673-0.031002,0.218894-0.0633793,0.1666555-0.2085552
	c-0.0392771-0.1091232-0.0706558-0.243082-0.1971035-0.2802277c-0.1174984-0.034523-0.192255,0.0561447-0.2425842,0.151495
	C11.4202356,26.248518,11.2679386,26.3635311,11.2630482,26.5629044z"/>
</svg>
