<?xml version="1.0" encoding="utf-8"?>
<!-- Generator: Adobe Illustrator 17.1.0, SVG Export Plug-In . SVG Version: 6.00 Build 0)  -->
<!DOCTYPE svg PUBLIC "-//W3C//DTD SVG 1.1//EN" "http://www.w3.org/Graphics/SVG/1.1/DTD/svg11.dtd">
<svg version="1.1" id="Layer_1" xmlns="http://www.w3.org/2000/svg" xmlns:xlink="http://www.w3.org/1999/xlink" x="0px" y="0px"
	 viewBox="0 0 50 50" enable-background="new 0 0 50 50" xml:space="preserve">
<g id="base">
	<g>
		
			<linearGradient id="SVGID_1_" gradientUnits="userSpaceOnUse" x1="-15.8786392" y1="88.031662" x2="-15.8786392" y2="92.4705429" gradientTransform="matrix(4 0 3.0474641 -4 -185.8804321 400)">
			<stop  offset="0" style="stop-color:#000000;stop-opacity:0.4"/>
			<stop  offset="1" style="stop-color:#000000;stop-opacity:0"/>
		</linearGradient>
		<path fill="url(#SVGID_1_)" d="M9.1238689,40.6594429c-1.0207815-1.1436996-1.035533-2.3321457-0.0447216-3.6326561
			c2.9515839-3.8741493,13.1978531-6.9089737,23.3267822-6.9089737c10.1284409,0,15.7504539,3.0348244,12.7988701,6.9089737
			c-0.9909515,1.3006935-2.8160934,2.4891434-5.5794258,3.6326561l-20.7467766,7.2138977L9.1238689,40.6594429z"/>
		
			<linearGradient id="SVGID_2_" gradientUnits="userSpaceOnUse" x1="4.7656469" y1="88.031662" x2="4.7656469" y2="99.750061" gradientTransform="matrix(4 0 0 -4 0 400)">
			<stop  offset="0" style="stop-color:#007BB8"/>
			<stop  offset="1" style="stop-color:#0094DE"/>
		</linearGradient>
		<path fill="url(#SVGID_2_)" d="M3.8120801,28.8290596c-1.8921264-3.0192986-2.8123169-6.1567326-2.8123169-9.5899963
			c0-10.2275372,7.9341407-18.2392979,18.0630703-18.2392979c10.1284389,0,18.0625782,8.0117588,18.0625782,18.2392979
			c0,3.4337521-0.9197006,6.5711861-2.8118286,9.5899963l-15.2507496,19.044281L3.8120801,28.8290596z"/>
		<path fill="#FFFFFF" d="M19.062603,1.9995302c9.5681038,0,17.0631294,7.5725799,17.0631294,17.2397156
			c0,3.2219028-0.8601723,6.1702614-2.6289291,9.0094376L19.062603,46.2734261L4.6285057,28.2487297
			c-1.7687864-2.8392944-2.6289842-5.7876911-2.6289842-9.0094833C1.9995216,9.5721102,9.4945211,1.9995302,19.062603,1.9995302
			 M19.062603,0.0000076C8.4420834,0.0000076,0,8.5202303,0,19.2392464c0,3.8478489,1.0893619,7.1459846,2.9956293,10.1692734
			L19.062603,49.4722862l16.0670547-20.0637665c1.9063072-3.0232887,2.995594-6.3214245,2.995594-10.1692734
			C38.1252518,8.5202303,29.6832104,0.0000076,19.062603,0.0000076L19.062603,0.0000076z"/>
	</g>
</g>
<path opacity="0.6" fill="#020302" enable-background="new    " d="M31.8805332,20.3471832
	c-0.0099068,0.1980019-0.0198059,0.3960133-0.0295696,0.5938454c-0.1723309,0.1069069-0.3407555,0.2177563-0.4010811,0.4295464
	c-0.0387039-0.0081482-0.0474243,0.0067272-0.0312843,0.0407162c-0.0999622,0.062048-0.0707264,0.1242676-0.0002594,0.1865406
	c0.2664108,0.2176743,0.1870441,0.4197464-0.0968647,0.6358395c0.3504658,0.0434551,0.420887,0.2832088,0.5091,0.5076809
	c0.0982475,0.2500095,0.1887321,0.5033607,0.295433,0.7496967c0.095192,0.219759,0.015213,0.3156872-0.2028008,0.3540154
	c-0.3249283,0.0571442-0.6493282,0.1188412-0.9712944,0.1905575c-0.181675,0.0404625-0.3203945,0.057457-0.2178173,0.3553791
	c0.2207985,0.6413078-0.1916618,1.3939857-0.75877,1.8196621c-0.4235344,0.317915-0.8373699,0.4475994-1.3498573,0.4229145
	c-0.4104233-0.0197601-0.706377-0.2545452-1.0290699-0.4431782c-0.1423588-0.0832119-0.2542858-0.2184734-0.3800182-0.3300056
	c0.1190681-0.2172699-0.1118355-0.261507-0.1889381-0.3818321c0.0778198-0.2299614-0.2206764-0.4092007-0.0898247-0.6492043
	c0.0045643-0.0083714-0.0392857-0.0591927-0.066988-0.0667572c-0.7285252-0.1988716-1.4432182-0.4950333-2.2254944-0.3285027
	c-0.0476494,0.0101299-0.1107845,0.0120888-0.1381741,0.0430775c-0.356554,0.403326-0.8303738,0.2742252-1.2711201,0.2815285
	c-0.5506783,0.0091171-1.1015987,0.0078583-1.6523781,0.0052452c-0.2904835-0.0013828-0.4571743,0.1074009-0.4254494,0.4247761
	c0.0033417,0.0334778-0.0195274,0.0688381-0.0255985,0.1041203c-0.0386677,0.2244301-0.3438015,0.2196064-0.3816891,0.3795414
	c-0.0594444,0.2509899-0.2974529,0.2561989-0.3919182,0.3764362c-0.2004929,0.255209-0.5423889,0.1950645-0.7219963,0.4334698
	c-0.0369358,0.0490074-0.1465893,0.0941505-0.196207,0.0744267c-0.3301563-0.1312847-0.6062336,0.1751785-0.9813633,0.0737514
	c-0.2329178-0.0629559-0.4999046-0.2079639-0.7193642-0.1899109c-0.3430481,0.0282249-0.5120468-0.1941395-0.7253036-0.3354836
	c-0.243372-0.1613369-0.5036907-0.3707104-0.6261292-0.6226444c-0.1597652-0.3287277-0.4107046-0.6165257-0.4885616-0.9823875
	c-0.0305748-0.1436787-0.1436701-0.3026714,0.0279255-0.4395695c0.0296059-0.023613,0.1108627-0.0609093,0.0404778-0.1024494
	c-0.2494431-0.1471653-0.0993557-0.3722668-0.1238232-0.5626526c0.0476551-0.0232658,0.0953102-0.0465202,0.1429605-0.069767
	c-0.0665312-0.0460052-0.1278391-0.0390606-0.1841841,0.0181713c-0.5528259,0.1741562-0.6147223,0.2348576-0.5069628,0.7700157
	c0.1290693,0.6409855,0.1574984,1.2512703-0.2063255,1.8355961c-0.1191082,0.1912842-0.222991,0.3133068-0.4785423,0.2984505
	c-0.4515247-0.0262642-0.9057083-0.003933-1.3587112-0.0086861c-0.4297428-0.0044994-0.8564682-0.0092506-1.2580643,0.1870537
	c-0.0827761,0.0404663-0.1907549,0.0402241-0.2871466,0.0403938c-2.2649899,0.0038967-4.5299835,0.0053711-6.7949772,0.0066109
	c-0.0585322,0.0000343-0.117064-0.0073929-0.1828766-0.0118217c0.0187678-0.1261177,0.1039863-0.1947956,0.1790996-0.2290268
	c0.8923521-0.4065685,1.6059361-1.095232,2.4677844-1.5545425c0.3038039-0.1619225,0.5711269-0.021801,0.8751144-0.0683384
	c-0.034482-0.2698689-0.225255-0.4529266-0.3284459-0.6753693c-0.0307732-0.0663433-0.063643-0.1348476-0.1099238-0.1903858
	c-0.5111127-0.6133041-0.4833803-1.2297764-0.0176005-1.8513508c0.1337624-0.1158791,0.2036262-0.2690334,0.2531943-0.4340286
	c0.2041149-0.3790646,0.517786-0.5030994,0.9396696-0.4451466c0.2398052,0.0329647,0.4894657,0.0185299,0.7324553-0.0015278
	c0.3854065-0.0318146,0.7243719,0.0195904,0.9313211,0.3957462c-0.0048733,0.0199757,0.0012083,0.0357227,0.0182467,0.0472374
	c-0.0088911,0.0655594,0.0150366,0.1170464,0.0670567,0.1565056c0.0459795,0.0981922,0.0535069,0.2174034,0.1556883,0.2848511
	c0.0655918,0.0959129,0.1616335,0.0962715,0.2571993,0.0714531c0.375823-0.0976372,0.7586517-0.0764103,1.1405344-0.0742912
	c0.2442064,0.0174713,0.4884195,0.0349407,0.732626,0.0524216c0.2168751,0.0260372,0.4411907,0.0232353,0.6228466,0.1769295
	c0.0589952,0.0499134,0.1327782,0.0711842,0.2048779,0.0319405c0.4418917-0.2404709,0.8458872-0.5337296,1.2358398-0.8714867
	c-0.7237253,0.0597935-1.0370731-0.3898354-1.2746286-0.9410343c-0.0453196-0.1684418-0.0906391-0.3368778-0.1359587-0.5053272
	c-0.0316982-0.1234531-0.0633917-0.2469025-0.0950851-0.3703537c0.004693-0.1343479-0.0049448-0.2646065-0.1051369-0.3690777
	c-0.0426245-0.487545-0.167347-0.9530697-0.374404-1.3965302c0.0016623-0.4405937-0.0487413-0.8688183-0.296977-1.2500477
	c-0.1108894-0.2777557,0.0099249-0.5024996,0.1646433-0.7194729c0.2306623-0.1154022-0.0007725-0.4601746,0.2746744-0.5533466
	c0.1177387,0.0208387,0.2633438,0.0583305,0.2886734-0.105567c0.055582-0.3596191,0.295783-0.2584438,0.5131073-0.2295036
	l0.0020752,0.0035925c0.0329819,0.1462574-0.0219307,0.4488668,0.2308817,0.3209066
	c0.2987061-0.1511879,0.590497-0.0758104,0.8799295-0.1301432c0.0980129-0.0007992,0.1960268-0.0015898,0.2940397-0.0023804
	c0.5351448-0.0399981,1.0337267,0.2413149,1.5779696,0.1700869c0.1803894-0.0236139,0.3523521-0.0442743,0.4569244-0.1834793
	c0.2283077-0.3039389,0.5311852-0.3553801,0.8790398-0.3342352c0.2065449,0.0125475,0.4152546-0.0105181,0.6229858-0.0175695
	c0.5110664,0.0303059,1.0221443,0.0407343,1.5332203,0.0002251c0.6219978,0.0076256,1.24403,0.0228319,1.8659649,0.0193558
	c0.2687283-0.0014992,0.4699726,0.0523758,0.6769962,0.2659626c0.2562771,0.2644262,0.5887451,0.4315214,0.9696331,0.5481548
	c1.6523418,0.5060015,3.3448811,0.399456,5.0311928,0.4071083c1.5319805,0.0069523,3.0640163,0.0008984,4.5960331,0.002964
	c0.5213509,0.0007,1.1452827,0.6242971,1.1460266,1.1392717c0.0002785,0.1960907,0.0020676,0.3922501-0.0027924,0.5882339
	c-0.0016899,0.0679684,0.0244102,0.158247-0.0652924,0.1899986c-0.0822296,0.0291195-0.1353455-0.0401039-0.1862907-0.0896225
	c-0.2459602-0.2390423-0.4930496-0.4771252-0.7327003-0.7224102c-0.1459808-0.1494102-0.3116493-0.2197208-0.5229645-0.2186623
	c-0.968132,0.0048943-1.9363575,0.0070057-2.9044189-0.0028553c-0.2324066-0.0023727-0.2718449,0.0460949-0.23246,0.2894764
	c0.1225719,0.757431,0.6676922,1.2181072,1.1271915,1.7504902c0.2070026,0.2398415,0.5681572,0.3676949,0.5922318,0.7517719
	C31.840723,19.8411884,31.8346519,20.0941448,31.8805332,20.3471832z M8.4694118,24.6302853
	c0.6425629,0.3184547,1.2157869,0.3314953,1.8011684,0.1061058c0.1576548-0.0607014,0.3295145-0.0863018,0.4962597-0.1213036
	c0.8191919-0.1719379,1.4740868-0.6730881,2.1727552-1.0854855c0.0798655-0.0471497,0.1771469-0.1338978,0.0339079-0.2226429
	c-0.4564648-0.2828751-0.9119282-0.568121-1.3793106-0.8320084c-0.0912094-0.0515041-0.3265553-0.0789089-0.2416611,0.1468124
	c0.1065426,0.283308-0.0275698,0.466938-0.1574078,0.6737709c-0.2076902,0.3308487-0.4343328,0.652771-0.6085196,1.0007133
	c-0.1300888,0.2598267-0.3010778,0.3470268-0.5778141,0.3383312C9.5210848,24.6192551,9.0325489,24.6302853,8.4694118,24.6302853z
	 M5.7421737,26.0300484c0.0834398,0.0192947,0.119638,0.0392704,0.1507297,0.0331802
	c1.0433736-0.2042713,2.0114222-0.6682091,3.0505562-0.8889923c0.0352774-0.0074997,0.0767078-0.0666656,0.0842171-0.1074638
	c0.0156956-0.0853024-0.0675812-0.089632-0.1202936-0.1027279c-0.3785896-0.0940247-0.7512598-0.2221909-1.1464128-0.2279587
	c-0.0810909-0.0011864-0.1765718,0.0159264-0.2419839,0.0596676C6.9331417,25.1875134,6.3086162,25.5240116,5.7421737,26.0300484z
	 M9.3548517,21.6410198c-0.1094475,0.0276737-0.3178558-0.1009521-0.4314537,0.1105518
	c-0.0422707,0.078701,0.2949114,0.7064476,0.3889141,0.7202168c0.2447014,0.0358391,0.2077217-0.2178459,0.3113623-0.3292866
	c0.0573692-0.0616798,0.0969534-0.1395645,0.15135-0.2044525c0.0560493-0.066864,0.1242733-0.1373806,0.0825777-0.2246075
	c-0.0427322-0.0893803-0.146369-0.0676365-0.2291079-0.0716763C9.5557785,21.6382084,9.4827538,21.6410198,9.3548517,21.6410198z
	 M8.5710363,22.9313068c-0.1430902,0.0695591-0.3738918-0.1122227-0.4510622,0.1575661
	c-0.019083,0.0667019,0.4444828,0.697401,0.499301,0.7034378c0.0802155,0.008831,0.4778147-0.6130791,0.4333134-0.7227859
	C8.959012,22.8388901,8.7383871,22.9838276,8.5710363,22.9313068z M9.3732433,24.0448265
	c0.1650152-0.0639267,0.3893404,0.1023712,0.4753399-0.137228c0.0437212-0.1217995-0.3757915-0.6947823-0.4803486-0.7025852
	c-0.1359587-0.0101604-0.4660978,0.4420013-0.4440556,0.6654339C8.9579344,24.2126331,9.2410479,23.9393044,9.3732433,24.0448265z
	 M8.5923824,22.7309952c0.155364-0.0606194,0.3944025,0.1102486,0.4606552-0.1427269
	c0.0515661-0.1969242-0.284564-0.7275181-0.4159956-0.7290287c-0.0907431-0.0010414-0.5454473,0.6101151-0.5082197,0.7258606
	C8.2095661,22.836132,8.4397669,22.6641159,8.5923824,22.7309952z M10.5842419,23.0986805
	c0.0151796-0.0779476-0.0268965-0.1254082-0.0908766-0.1344986c-0.2544479-0.0362434-0.5118494-0.0446949-0.7647161,0.0001259
	c-0.1258898,0.0223103-0.0909796,0.1288319-0.0439806,0.2022686c0.1244164,0.1943932,0.2562656,0.3840961,0.387558,0.5739975
	c0.0384846,0.0556717,0.1053877,0.0918617,0.1463737,0.0228786C10.3482485,23.5452843,10.4643612,23.3190765,10.5842419,23.0986805z
	 M9.7867508,22.4020596c0.1628428,0.034132,0.2865219-0.0600986,0.420289-0.1052971
	c0.0756655-0.0255642,0.1804876-0.0522594,0.137414-0.1719646c-0.0323858-0.0899734-0.0582581-0.200428-0.1625185-0.2310562
	c-0.0968819-0.0284653-0.1585226,0.0462933-0.2000198,0.1249142C9.9163589,22.1428337,9.7907839,22.2376671,9.7867508,22.4020596z"
	/>
<path fill="#FFFFFF" d="M31.3805923,19.8472424c-0.0099068,0.1980038-0.0198059,0.3960133-0.0295696,0.5938473
	c-0.1723309,0.106905-0.3407555,0.2177544-0.4010811,0.4295444c-0.038702-0.0081482-0.0474243,0.0067272-0.0312843,0.0407162
	c-0.0999622,0.062048-0.0707245,0.1242695-0.0002594,0.1865425c0.2664108,0.2176723,0.1870441,0.4197445-0.0968647,0.6358376
	c0.3504658,0.0434551,0.420887,0.2832088,0.5091,0.5076809c0.0982475,0.2500095,0.188736,0.5033627,0.295433,0.7496967
	c0.0951939,0.219759,0.0152168,0.3156872-0.2027988,0.3540154c-0.3249302,0.0571442-0.6493301,0.1188431-0.9712963,0.1905575
	c-0.181673,0.0404644-0.3203945,0.0574589-0.2178173,0.3553791c0.2207985,0.6413097-0.1916618,1.3939877-0.75877,1.8196621
	c-0.4235344,0.317915-0.8373699,0.4475994-1.3498573,0.4229164c-0.4104214-0.0197601-0.706377-0.2545471-1.0290699-0.4431801
	c-0.1423588-0.0832119-0.2542858-0.2184734-0.3800182-0.3300056c0.1190701-0.217268-0.1118355-0.261507-0.1889381-0.3818321
	c0.0778198-0.2299614-0.2206745-0.4092007-0.0898228-0.6492043c0.0045624-0.0083714-0.0392876-0.0591927-0.066988-0.0667553
	c-0.7285271-0.1988735-1.4432201-0.4950333-2.2254963-0.3285046c-0.0476494,0.0101318-0.1107845,0.0120888-0.1381721,0.0430775
	c-0.3565559,0.403326-0.8303738,0.2742252-1.271122,0.2815285c-0.5506763,0.0091171-1.1015987,0.0078583-1.6523762,0.0052471
	c-0.2904835-0.0013828-0.4571762,0.107399-0.4254513,0.4247742c0.0033417,0.0334778-0.0195274,0.06884-0.0255985,0.1041203
	c-0.0386677,0.2244301-0.3438015,0.2196083-0.3816872,0.3795433c-0.0594463,0.250988-0.2974548,0.2561989-0.3919201,0.3764343
	c-0.200491,0.255209-0.5423889,0.1950645-0.7219963,0.4334698c-0.0369339,0.0490074-0.1465874,0.0941505-0.1962051,0.0744267
	c-0.3301582-0.1312828-0.6062336,0.1751785-0.9813652,0.0737534c-0.2329159-0.0629559-0.4999046-0.2079639-0.7193642-0.1899109
	c-0.3430462,0.028223-0.5120468-0.1941395-0.7253017-0.3354836c-0.243372-0.1613369-0.5036926-0.3707123-0.6261301-0.6226444
	c-0.1597652-0.3287296-0.4107046-0.6165276-0.4885616-0.9823895c-0.0305758-0.1436787-0.1436701-0.3026714,0.0279255-0.4395676
	c0.0296049-0.0236149,0.1108618-0.0609112,0.0404778-0.1024513c-0.249444-0.1471653-0.0993567-0.3722668-0.1238241-0.5626526
	c0.0476561-0.0232639,0.0953112-0.0465202,0.1429615-0.0697651c-0.0665312-0.0460072-0.1278391-0.0390625-0.1841841,0.0181694
	c-0.5528259,0.1741581-0.6147223,0.2348595-0.5069637,0.7700157c0.1290703,0.6409855,0.1574984,1.2512703-0.2063246,1.8355961
	c-0.1191082,0.1912842-0.222991,0.3133087-0.4785423,0.2984524c-0.4515257-0.0262661-0.9057093-0.0039349-1.3587112-0.008688
	c-0.4297428-0.0044975-0.8564682-0.0092506-1.2580652,0.1870556c-0.0827751,0.0404644-0.1907549,0.0402222-0.2871466,0.0403919
	c-2.2649889,0.0038986-4.529983,0.005373-6.7949767,0.0066128c-0.0585322,0.0000343-0.117064-0.0073948-0.1828766-0.0118237
	c0.0187683-0.1261177,0.1039863-0.1947937,0.1790996-0.2290249c0.8923521-0.4065704,1.6059361-1.0952339,2.4677844-1.5545444
	c0.3038044-0.1619225,0.5711269-0.021801,0.8751154-0.0683384c-0.034483-0.2698689-0.2252555-0.4529247-0.3284469-0.6753693
	c-0.0307727-0.0663414-0.063643-0.1348476-0.1099238-0.1903858c-0.5111127-0.6133022-0.4833803-1.2297764-0.0176005-1.8513508
	c0.1337624-0.1158772,0.2036257-0.2690334,0.2531939-0.4340286c0.2041154-0.3790646,0.517786-0.5030994,0.9396706-0.4451466
	c0.2398052,0.0329647,0.4894648,0.0185299,0.7324553-0.0015278c0.3854065-0.0318146,0.724371,0.0195904,0.9313202,0.3957481
	c-0.0048723,0.0199738,0.0012083,0.0357208,0.0182476,0.0472374c-0.0088921,0.0655594,0.0150356,0.1170444,0.0670567,0.1565037
	c0.0459795,0.0981941,0.0535069,0.2174034,0.1556873,0.2848511c0.0655928,0.0959129,0.1616344,0.0962715,0.2572002,0.071455
	c0.375823-0.0976372,0.7586517-0.0764122,1.1405334-0.0742931c0.2442074,0.0174713,0.4884195,0.0349407,0.7326269,0.0524216
	c0.2168741,0.0260372,0.4411898,0.0232353,0.6228466,0.1769295c0.0589943,0.0499153,0.1327782,0.0711842,0.2048779,0.0319405
	c0.4418917-0.2404709,0.8458872-0.5337296,1.2358389-0.8714867c-0.7237244,0.0597954-1.0370722-0.3898335-1.2746277-0.9410343
	c-0.0453205-0.1684418-0.0906401-0.3368778-0.1359587-0.5053272c-0.0316982-0.1234512-0.0633917-0.2469025-0.0950851-0.3703537
	c0.0046921-0.1343479-0.0049458-0.2646046-0.1051369-0.3690777c-0.0426254-0.4875431-0.167347-0.9530697-0.374404-1.3965282
	c0.0016623-0.4405956-0.0487413-0.8688202-0.296977-1.2500496c-0.1108894-0.2777567,0.0099249-0.5024996,0.1646423-0.7194719
	c0.2306623-0.1154032-0.0007725-0.4601755,0.2746754-0.5533466c0.1177378,0.0208378,0.2633438,0.0583305,0.2886734-0.1055679
	c0.055582-0.3596191,0.295783-0.2584438,0.5131073-0.2295027l0.0020742,0.0035915
	c0.0329819,0.1462574-0.0219297,0.4488668,0.2308817,0.3209066c0.298707-0.1511879,0.590497-0.0758095,0.8799295-0.1301422
	c0.0980139-0.0007992,0.1960278-0.0015898,0.2940397-0.0023804c0.5351448-0.0399981,1.0337276,0.2413149,1.5779696,0.1700869
	c0.1803894-0.0236149,0.3523521-0.0442743,0.4569244-0.1834803c0.2283096-0.3039379,0.5311871-0.3553791,0.8790398-0.3342352
	c0.2065449,0.0125484,0.4152546-0.0105171,0.6229858-0.0175686c0.5110664,0.0303059,1.0221443,0.0407333,1.5332203,0.0002241
	c0.6219978,0.0076265,1.24403,0.0228329,1.8659649,0.0193567c0.2687283-0.0015001,0.4699745,0.0523758,0.6769962,0.2659626
	c0.256279,0.2644262,0.5887451,0.4315214,0.9696331,0.5481539c1.6523438,0.5060024,3.3448811,0.399456,5.0311928,0.4071083
	c1.5319805,0.0069523,3.0640163,0.0008984,4.5960312,0.002965c0.5213547,0.0007,1.1452827,0.6242962,1.1460266,1.1392708
	c0.0002785,0.1960907,0.0020676,0.392252-0.0027885,0.5882339c-0.0016899,0.0679684,0.0244102,0.158247-0.0652924,0.1899986
	c-0.0822334,0.0291214-0.1353455-0.0401039-0.1862946-0.0896225c-0.2459564-0.2390423-0.4930458-0.4771252-0.7327003-0.7224102
	c-0.145977-0.1494083-0.3116455-0.2197208-0.5229607-0.2186623c-0.9681339,0.0048962-1.9363575,0.0070057-2.9044209-0.0028553
	c-0.2324047-0.0023727-0.2718449,0.0460949-0.2324581,0.2894764c0.12257,0.7574329,0.6676903,1.2181091,1.1271896,1.7504902
	c0.2070026,0.2398415,0.5681591,0.3676949,0.5922318,0.7517719C31.3407841,19.3412495,31.3347111,19.5942059,31.3805923,19.8472424z
	 M7.9694715,24.1303444c0.6425624,0.3184547,1.2157865,0.3314953,1.801168,0.1061058
	c0.1576548-0.0607014,0.3295155-0.0862999,0.4962606-0.1213036c0.819191-0.171936,1.4740858-0.6730881,2.1727552-1.0854855
	c0.0798655-0.0471478,0.1771469-0.1338978,0.0339079-0.222641c-0.4564648-0.282877-0.9119282-0.5681229-1.3793116-0.8320103
	c-0.0912085-0.0515041-0.3265553-0.078907-0.2416601,0.1468143c0.1065416,0.2833061-0.0275707,0.4669361-0.1574087,0.673769
	c-0.2076902,0.3308506-0.4343319,0.6527729-0.6085186,1.0007133c-0.1300888,0.2598286-0.3010788,0.3470268-0.5778141,0.3383331
	C9.0211449,24.1193161,8.532609,24.1303444,7.9694715,24.1303444z M5.2422333,25.5301075
	c0.0834398,0.0192947,0.119638,0.0392704,0.1507297,0.0331802c1.0433736-0.2042713,2.0114226-0.6682091,3.0505557-0.8889923
	c0.0352783-0.0074997,0.0767088-0.0666656,0.084218-0.1074619c0.0156956-0.0853043-0.0675821-0.0896339-0.1202936-0.1027298
	c-0.3785906-0.0940247-0.7512608-0.2221909-1.1464133-0.2279587c-0.0810909-0.0011864-0.1765714,0.0159264-0.2419839,0.0596695
	C6.4332018,24.6875725,5.8086758,25.0240707,5.2422333,25.5301075z M8.8549118,21.1410789
	c-0.1094484,0.0276737-0.3178568-0.1009521-0.4314537,0.1105518c-0.0422707,0.078701,0.2949114,0.7064476,0.3889141,0.7202168
	c0.2447004,0.035841,0.2077217-0.217844,0.3113623-0.3292847c0.0573692-0.0616817,0.0969534-0.1395664,0.1513491-0.2044544
	c0.0560493-0.0668621,0.1242743-0.1373806,0.0825787-0.2246075c-0.0427332-0.0893803-0.1463699-0.0676346-0.2291088-0.0716763
	C9.0558386,21.1382675,8.9828138,21.1410789,8.8549118,21.1410789z M8.0710964,22.431366
	c-0.1430912,0.0695591-0.3738923-0.1122227-0.4510622,0.1575661c-0.019083,0.0667019,0.4444828,0.697403,0.499301,0.7034378
	c0.0802155,0.008831,0.4778147-0.6130772,0.4333134-0.722784C8.4590712,22.3389492,8.2384472,22.4838867,8.0710964,22.431366z
	 M8.8733025,23.5448875c0.1650162-0.0639267,0.3893414,0.1023693,0.4753408-0.1372299
	c0.0437202-0.1217976-0.3757915-0.6947803-0.4803486-0.7025852c-0.1359587-0.0101585-0.4660988,0.4420013-0.4440556,0.6654339
	C8.4579935,23.7126923,8.7411079,23.4393635,8.8733025,23.5448875z M8.0924416,22.2310562
	c0.155365-0.0606194,0.3944035,0.1102467,0.4606552-0.1427269c0.0515671-0.1969261-0.284564-0.72752-0.4159946-0.7290306
	c-0.0907431-0.0010414-0.5454473,0.6101151-0.5082211,0.7258606C7.7096262,22.3361912,7.939826,22.164175,8.0924416,22.2310562z
	 M10.0843019,22.5987415c0.0151796-0.0779476-0.0268974-0.1254082-0.0908775-0.1345005
	c-0.254447-0.0362434-0.5118494-0.0446949-0.7647152,0.0001259c-0.1258898,0.0223122-0.0909805,0.1288319-0.0439816,0.2022705
	c0.1244173,0.1943913,0.2562656,0.3840942,0.3875589,0.5739975c0.0384836,0.0556698,0.1053877,0.0918598,0.1463737,0.0228767
	C9.8483076,23.0453434,9.9644213,22.8191357,10.0843019,22.5987415z M9.2868109,21.9021187
	c0.1628418,0.034132,0.2865219-0.0600986,0.420289-0.1052971c0.0756655-0.0255623,0.1804867-0.0522594,0.137414-0.1719627
	c-0.0323858-0.0899754-0.058259-0.2004299-0.1625195-0.2310581c-0.0968819-0.0284653-0.1585217,0.0462933-0.2000198,0.1249142
	C9.4164181,21.6428947,9.290843,21.7377281,9.2868109,21.9021187z"/>
</svg>
