<?xml version="1.0" encoding="utf-8"?>
<!-- Generator: Adobe Illustrator 17.1.0, SVG Export Plug-In . SVG Version: 6.00 Build 0)  -->
<!DOCTYPE svg PUBLIC "-//W3C//DTD SVG 1.1//EN" "http://www.w3.org/Graphics/SVG/1.1/DTD/svg11.dtd">
<svg version="1.1" id="Layer_1" xmlns="http://www.w3.org/2000/svg" xmlns:xlink="http://www.w3.org/1999/xlink" x="0px" y="0px"
	 viewBox="0 0 60 60" enable-background="new 0 0 60 60" xml:space="preserve">
<g id="base">
	<g>
		
			<linearGradient id="SVGID_1_" gradientUnits="userSpaceOnUse" x1="-12.6099606" y1="85" x2="-12.6099606" y2="90.3407974" gradientTransform="matrix(4 0 3.0474641 -4 -185.8804321 400)">
			<stop  offset="0" style="stop-color:#000000;stop-opacity:0.4"/>
			<stop  offset="1" style="stop-color:#000000;stop-opacity:0"/>
		</linearGradient>
		<path fill="url(#SVGID_1_)" d="M10.9777107,51.3203468c-1.2281895-1.3760834-1.2459393-2.8060074-0.0538082-4.3707581
			c3.5513048-4.6613235,15.8794746-8.3127785,28.0664539-8.3127785c12.1864014,0,18.9507294,3.6514549,15.3994217,8.3127785
			c-1.1922951,1.5649719-3.388279,2.9948997-6.7130814,4.3707581l-24.9622326,8.6796608L10.9777107,51.3203468z"/>
		
			<linearGradient id="SVGID_2_" gradientUnits="userSpaceOnUse" x1="5.7339597" y1="85.5998688" x2="5.7339597" y2="99.6992722" gradientTransform="matrix(4 0 0 -4 0 400)">
			<stop  offset="0" style="stop-color:#006699"/>
			<stop  offset="1" style="stop-color:#007BB8"/>
		</linearGradient>
		<path fill="url(#SVGID_2_)" d="M4.5866413,34.686718C2.3100612,31.0539417,1.202901,27.2790241,1.202901,23.1481705
			c0-12.3056307,9.5462475-21.9452667,21.7332325-21.9452667c12.1863976,0,21.7326431,9.639637,21.7326431,21.9452667
			c0,4.131443-1.1065712,7.9063587-3.383152,11.5385475L22.9361343,57.6005287L4.5866413,34.686718z"/>
		<path fill="#FFFFFF" d="M22.9358578,2.4058051c11.5122089,0,20.5301151,9.1112213,20.5301151,20.7425861
			c0,3.8765488-1.0349464,7.4239712-3.1630898,10.8400307L22.9358578,55.6755371L5.5689535,33.9884758
			c-2.1281793-3.4162006-3.163157-6.9636707-3.163157-10.8400841C2.4057965,11.5170269,11.4236746,2.4058051,22.9358578,2.4058051
			 M22.9358578,0.0000076C10.1573973,0.0000076,0,10.25142,0,23.1483917c0,4.6296749,1.3107049,8.5979481,3.6042993,12.2355232
			l19.3315582,24.1404457l19.3316555-24.1404457c2.2936401-3.6375751,3.6042557-7.6058483,3.6042557-12.2355232
			C45.871769,10.25142,35.7144241,0.0000076,22.9358578,0.0000076L22.9358578,0.0000076z"/>
	</g>
</g>
<g opacity="0.6">
	<g>
		<path d="M39.5809898,15.3129711h-2.0118332c-0.4056358-0.1298218-1.1704292-0.2577562-1.6346092-0.3772154
			c-0.5238762-0.0209465-1.0479012-0.0419292-1.5717773-0.0628757c-1.1245766-0.2729664-2.5426979-0.2371426-3.6464405-0.5029659
			c-0.8734093-0.2103128-1.7903042-0.1234198-2.5776711-0.3143406h-0.754467
			c-0.9752922-0.241251-2.2128525-0.2610874-3.2063522-0.5029669H23.486248
			c-0.2111645-0.0555477-0.7911415-0.2295933-1.0687714-0.1885881c-1.1304245,0.1668291-3.0062523,0.5828276-3.9608192,1.0058956
			c-0.110281,0.0488863-1.6679573,0.2603827-1.8232403,0.2515011c-0.4390526,0.2329979-0.9533072,0.2207117-1.5088978,0.3772154
			c-1.193634,0.3362484-2.5000668,0.4661446-3.772193,0.8173075c-0.8908033,0.2458754-1.9301167,0.6615057-2.8920469,0.7544298
			c0.0096588,0.8723736-0.1225319,0.8601246-0.3772154,1.3831482c0.3631897,0.3185234,0.1236038,0.4923458,0.3772154,0.943058
			c0.27563,0.4897556,0.72612,0.9683704,1.0059319,1.4460239c0.311491,0.5316467,0.5098124,1.0936413,0.8801823,1.5717373
			c0.2091293,0.2699318,0.6425581,0.3779945,0.943058,0.5658417c0.4637384,0.2898788,0.8101635,0.6355267,1.1945219,0.8801842
			c-0.0131378,0.438942-0.2145681,1.078392-0.0628757,1.3202705v0.0628757h-0.1885891
			c0.0591755,0.5225067,0.0165796,3.1571674-0.1886263,3.4578533v0.4400902
			c0.0628757,0.0209465,0.1257505,0.041893,0.1886263,0.0628757c0.0418921-0.1257515,0.0838213-0.2515011,0.1257515-0.3772526
			h0.4400902c0.0498486,0.1887379,0.0971813,0.2210445,0.1257133,0.4400921
			c-0.4805021,0.012249-1.1389732,0.1767445-1.5088615-0.0628395c-0.1547279,0.1621284-0.1778574,0.4461231-0.3143778,0.6286793
			v0.1257515c0.1886272-0.0628757,0.3772526-0.1257515,0.5658426-0.1886253l0.0628757,0.0628738v0.0628757
			c-0.1947327,0.0291996-0.1509533,0.0393028-0.3143406,0c-0.0344906,0.0957375-0.0444078,0.1050644-0.0628757,0.2514648
			c-0.1673098-0.0632095-0.1066179-0.0837822-0.3143396-0.1257133v0.2514648
			c-0.4321718,0.0669079-0.4120035,0.1897736-0.8173437,0.251503c0.0676489,0.0476265,0.0581379,0.0394497,0.1886263,0.0628357
			v0.0628757c-0.6863375,0.0757542-2.41717,0.6177254-2.7662969,0.8801842
			c-0.2736688,0.0932198-0.2368097,0.3419838-0.3143401,0.4400902c0.0864496,0.2081642,0.0940728,0.1839638,0.3772159,0.1886253
			v0.0628757c-0.2520938,0.1056576-0.681046-0.0342312-0.9430575,0.1257153H6.6370769
			c0.0806756,0.0553246,0.1551347,0.0582485,0.3143401,0.0628738c-0.0738301,0.0507755-0.1051378,0.0505905-0.251502,0.0628757
			c0.0405602,0.1085052,0.0123239,0.0615425,0.0628757,0.1257515c0.1237526,0.0838928,0.4102998,0.0711288,0.6287169,0.0628738
			c0.0209465,0.0209465,0.0419297,0.041893,0.0628753,0.0628777v0.2514648
			c0.3192997,0.0474777,0.3801765,0.1686783,0.6286812,0.251461c-0.0504045,0.289547-0.3393574,0.7493286-0.1257143,1.0688095
			v0.1257515h0.1257143c0.0610981-0.2597923,0.3233328-0.5634727,0.0628748-0.943058
			C8.1807995,32.675396,8.335454,32.6040459,8.58603,32.5393944c0.0395613-0.0186157,1.2251635,0.0165405,1.3202734,0
			c0.0987349,0.3179321-0.0148039,0.904274,0.2515011,1.0687714c-0.0587673,0.1668663-0.0625429,0.163681-0.1886263,0.251503
			c0.0159874,0.2193069,0.0220194,0.2646751,0.1257505,0.3772125c0.0613956,0.0370827,0.1194229,0.0052948,0.3143406,0
			c-0.0676117,0.0476685-0.0581017,0.0394897-0.1886263,0.0628777c0.0209827,0.0209465,0.0419292,0.041893,0.0628757,0.0628738
			c0.0808229,0.048481,0.1719723-0.0344505,0.3772154-0.0628738c-0.1100235-0.1606483-0.2179365-0.3771057-0.3143406-0.5658417
			c-0.0209465-0.0209465-0.0418911-0.0419312-0.0628748-0.0628738c0.2233019-0.3765869,0.3244057-0.7419968,0.251502-1.2574005
			c2.2029705-0.4458637,4.9191589-1.0502663,6.9785805-1.3202705c0.0418911,0.0419273,0.0838203,0.0838203,0.1257496,0.1257496
			c-0.0646896,0.0507355-0.0154686,0.0232029-0.1257496,0.0628757c0.0705338,0.126749,0.1406269,0.2852879,0.2514648,0.3772144
			c0.0936642,0.0403385,0.0272369,0.0781231,0.1257496,0c0.3221493,0.0217228,0.3583431,0.0526257,0.3772163,0.3772144
			c0.3244419,0.0864487,0.3352852,0.1109505,0.6287174,0c0.0344906,0.0957413,0.0443707,0.1050644,0.0628738,0.2514648
			c1.1396046,0.0612869,2.2125206,0.1955109,3.0177631-0.3143387c0.1909943-0.1209412,0.2176399-0.3654842,0.3772163-0.5029659
			c0.1406994-0.1212368,0.4019356-0.1606503,0.5029659-0.3143406c0.0878544-0.133707-0.0284595-0.3841,0-0.4400902
			c0.0834866-0.1645336,0.2426548-0.1278973,0.3143387-0.3772144c0.5402699-0.0781231,1.1181393,0.2667103,1.634613,0.3772144
			c0.2248936,0.0481091,0.5770912-0.126379,0.7544308-0.1257496c0.0989208,0.00037,0.5804234,0.0459614,0.7544689-0.0628777
			c0.3049393-0.0042934,0.6685371-0.0099545,0.8801823,0.0628777c-0.0159874,0.2193031-0.0220203,0.2646751-0.1257515,0.3772125
			c0.0102882,0.3603764,0.0609512,0.3410225,0.3143406,0.4400921c-0.0066261,0.1592789-0.0076981,0.2329597-0.0628757,0.3143768
			c0.0187988,0.556221,0.2423992,0.356678,0.5029659,0.5029678c0.0654659,0.1014366,0.0624695,0.4005661,0.1257515,0.5029259
			c0.5217667,0.6743469,2.7702198,1.2284966,4.0865688,0.8173103c0.4527473-0.141407,0.8236351-0.4814682,1.2573967-0.691555
			c0.1065826-0.2861061,0.2944679-0.4624825,0.3772163-0.6915588v-0.3772144
			c0.0896683-0.1832619,0.4320984-0.2194538,0.5029678-0.4400902c0.1050262-0.3271103-0.2269669-0.3938332-0.1257515-0.6915951
			c0.0628738-0.0418911,0.1257515-0.0838184,0.1886253-0.1257496c0.2080574-0.5323505-0.3080101-0.7856655,0.2514648-1.0058956
			c-0.0360451-0.5062962-0.1577606-0.3077888-0.2514648-0.5658417c-0.0882988-0.243103,0.1116905-0.4068203,0.1257133-0.5029659
			c0.0604706-0.4142246-0.4709549-0.5153656-0.0628357-0.9430599c-0.0681305-0.3037548-0.1940689-0.2184525-0.3772545-0.3772125
			c-0.1421432-0.200285,0.0149155-0.3913536-0.1257133-0.6286831v-0.1257496h-0.3143768
			c0.0276833-0.203207,0.0918884-0.2918758,0-0.4400902c-0.1237907-0.2608643-0.2962074-0.2341442-0.5658035-0.1886272
			c0.477356-0.5427132,0.7091713-1.2776775,1.1316452-1.886076c0.3771782-0.3772163,0.754467-0.7545052,1.131649-1.1316853
			c0.1608658-0.2129765,0.3513451-0.6108418,0.5658417-0.7544308c0.1733398-0.1160545,0.3059731-0.0706463,0.3772125-0.1257515
			h1.5088997c0.0333061,0.225523,0.0076981,0.311861,0,0.6287174c0.287693,0.1506939,0.9976425,0.5508556,1.2574005,0.7544308
			h0.4400864c0.2578697-0.1701584,0.2624245-0.8049068,0.440094-1.0688076
			c0.1150551-0.1709003,0.4026031-0.4904194,0.5658379-0.6286793c0.0222435-0.7337074-0.1532822-0.8666382-0.2514992-1.5088997
			c-0.2295914-0.093111-0.6888161-0.2711525-0.8801804-0.4400921c-0.0884857-0.0556221,0.1150551-0.163866,0.1886253-0.2514648
			c-0.0419273-0.0209446-0.0838203-0.0419273-0.1257515-0.0628738c-0.0775681-0.11376-0.3761787-0.1106167-0.6286812-0.1257515
			v-0.0628757c0.4542274-0.1208286,0.5642166-0.4923458,0.9430237-0.691555
			c-0.0019646-0.3156357-0.0150261-0.4167385-0.2514687-0.5029659c0.0204315-0.1449947,0.0292015-0.1561718,0.0628777-0.2514648
			c0.041893-0.0209465,0.0838242-0.0419292,0.1257477-0.0628757v0.0628757
			c0.2125359-0.1248989,0.8174553-1.2765312,1.2574005-1.5717754v-0.5029287
			C40.3773842,15.4806509,39.9791527,15.3967924,39.5809898,15.3129711z M12.7983503,28.2642365h-0.4400902
			c0.0837841-1.0477505,0.1676416-2.0957985,0.2514648-3.1435127c0.2077951,0.0053272,0.4650707,0.0146179,0.5029659,0h0.1257505
			c-0.089447,0.3731079-0.0748281,1.069067-0.0628757,1.5717373c0.0021839,0.0917034,0.1070251,0.2605305,0.0628757,0.4400921
			C13.1393728,27.5351181,12.8625956,27.8297691,12.7983503,28.2642365z M13.2384415,28.0756092v0.0628757h-0.0628757
			c0.0209465-0.1257496,0.041893-0.2515011,0.0628757-0.3772144C13.3103094,27.8711815,13.3128633,27.9652901,13.2384415,28.0756092
			z M12.0438824,29.5216331c-0.0782709-0.0420761-0.1300077-0.0683537-0.1885891-0.1257515h0.1885891V29.5216331z
			 M13.1126909,29.7102222c-0.4714003,0.0168381-0.5334234-0.0922585-0.4400911-0.4400902h0.2514639
			c0.0209837,0.0209465,0.0419302,0.0419273,0.0628767,0.0628738c0.0318251,0.133709,0.0562506,0.227375,0.1257505,0.3143406
			V29.7102222z M13.4270306,28.83004c-0.0405598,0.1085072-0.0123224,0.0615425-0.0628748,0.1257515
			c-0.0440769-0.1694927-0.0867825-0.2720413-0.18859-0.3772163c0.0575466-0.1356316,0.054512-0.091444,0.1257133-0.1886253
			c0.0628767,0.0209465,0.1257515,0.0419292,0.1886272,0.0628757C13.4884262,28.6242428,13.4874268,28.7409267,13.4270306,28.83004z
			 M13.5527811,25.3093128c-0.0604324-0.08815-0.0633192-0.2062416-0.0628748-0.3772144
			c-0.1860361,0.1177921-0.0557327,0.1471405-0.1257505,0.2515011v0.0628376
			c-0.0476284-0.0676117-0.0394869-0.0581017-0.0628767-0.1885891c-0.1714172-0.0014801-0.2881012-0.0024796-0.3772154-0.0628757
			c-0.1668291-0.0742741-0.1308937-0.12253-0.3143387-0.1886253c0.0193176-0.1934013,0.028532-0.6660595,0.1257505-0.8173084
			v-0.4400902c0.3311415,0.1011047,0.4980803,0.3526802,0.8173056,0.5029678
			c0.0582123,0.2248554,0.2564983,0.5692101,0.18859,0.6915913c-0.021946,0.2550926-0.0553627,0.3127117-0.18859,0.4400921
			V25.3093128z M13.6785316,25.2464371c0.0776787,0.1141663,0.0702038,0.3596382,0.0628395,0.5658417
			C13.6636925,25.6981125,13.6711674,25.4526424,13.6785316,25.2464371z M15.0616446,29.1444168
			c-0.3089743,0.038784-1.0334301-0.0167255-1.1945229-0.1257496h-0.1257505
			c0.0838213-1.11059,0.1676807-2.2215137,0.2515011-3.3321381c0.3872452,0.5504093,0.4610739,1.6436062,0.6915569,2.38908
			c0.0400038,0.1293411,0.2112741,0.2673054,0.2515011,0.3772163c0.0901117,0.2463932-0.0049229,0.3440189,0.1257143,0.5029659
			V29.1444168z"/>
	</g>
</g>
<g>
	<g>
		<path fill="#FFFFFF" d="M38.974659,14.7066431h-2.0118256c-0.4056396-0.1298208-1.170433-0.2577553-1.6346169-0.3772154
			c-0.5238724-0.0209465-1.0478973-0.0419292-1.5717735-0.0628748c-1.1245766-0.2729664-2.5426979-0.2371435-3.6464424-0.5029669
			c-0.8734093-0.2103128-1.7903004-0.1234198-2.5776691-0.3143406h-0.7544689
			c-0.9752884-0.24125-2.2128525-0.2610865-3.2063484-0.5029659h-0.6915951
			c-0.2111626-0.0555477-0.7911415-0.2295933-1.0687695-0.18859c-1.1304264,0.1668291-3.0062542,0.5828285-3.9608192,1.0058966
			c-0.1102829,0.0488873-1.6679573,0.2603836-1.8232403,0.251502c-0.4390545,0.2329979-0.9533081,0.2207108-1.5088987,0.3772154
			c-1.193634,0.3362484-2.5000658,0.4661446-3.772193,0.8173056c-0.8908024,0.2458773-1.9301167,0.6615067-2.8920469,0.7544327
			c0.0096588,0.8723726-0.1225314,0.8601236-0.3772159,1.3831472c0.3631902,0.3185215,0.1236043,0.4923458,0.3772159,0.9430561
			c0.27563,0.4897556,0.72612,0.9683723,1.0059328,1.4460258c0.3114901,0.5316467,0.5098124,1.0936394,0.8801823,1.5717373
			c0.2091274,0.2699318,0.6425581,0.3779926,0.9430571,0.5658417c0.4637384,0.2898769,0.8101645,0.6355267,1.1945219,0.8801823
			c-0.0131369,0.438942-0.2145691,1.078392-0.0628748,1.3202724v0.0628757h-0.18859
			c0.0591745,0.5225067,0.0165787,3.1571693-0.1886253,3.4578514v0.4400902
			c0.0628748,0.0209465,0.1257505,0.041893,0.1886253,0.0628757c0.041893-0.1257496,0.0838223-0.2515011,0.1257505-0.3772507
			h0.4400921c0.0498486,0.188736,0.0971804,0.2210426,0.1257133,0.4400902
			c-0.480504,0.012249-1.1389751,0.1767483-1.5088615-0.0628395c-0.1547289,0.1621304-0.1778574,0.446125-0.3143778,0.6286831
			v0.1257496c0.1886263-0.0628777,0.3772526-0.1257496,0.5658417-0.1886272l0.0628757,0.0628777v0.0628719
			c-0.1947327,0.0292015-0.1509523,0.0393028-0.3143396,0c-0.0344915,0.0957413-0.0444098,0.1050663-0.0628767,0.2514648
			c-0.1673098-0.0632057-0.1066179-0.0837822-0.3143406-0.1257114v0.2514648
			c-0.4321709,0.0669098-0.4120016,0.1897717-0.8173428,0.2515011c0.0676498,0.0476284,0.0581388,0.0394497,0.1886263,0.0628395
			v0.0628757c-0.6863375,0.0757542-2.4171696,0.6177254-2.7662964,0.8801804
			c-0.2736692,0.0932198-0.2368097,0.3419838-0.3143401,0.4400902c0.0864491,0.208168,0.0940723,0.1839638,0.3772154,0.1886272
			v0.0628738c-0.2520938,0.1056576-0.681046-0.0342312-0.9430575,0.1257153H6.0307488
			c0.0806761,0.0553265,0.1551347,0.0582504,0.3143401,0.0628757c-0.0738292,0.0507736-0.1051378,0.0505886-0.2515016,0.0628738
			c0.0405598,0.1085072,0.0123234,0.0615444,0.0628753,0.1257515c0.1237526,0.0838966,0.4103003,0.0711288,0.6287174,0.0628757
			c0.020946,0.0209465,0.0419292,0.041893,0.0628757,0.0628738v0.2514648
			c0.3192987,0.0474815,0.3801756,0.1686821,0.6286798,0.2514687c-0.0504041,0.2895432-0.3393569,0.749321-0.1257138,1.0688057
			v0.1257515h0.1257138c0.0610991-0.2597923,0.3233328-0.5634727,0.0628757-0.943058
			c0.0348611-0.3040886,0.1895146-0.3754387,0.4400907-0.4400921c0.0395613-0.0186138,1.2251644,0.0165424,1.3202724,0
			c0.0987358,0.3179302-0.014802,0.9042759,0.251503,1.0687733c-0.0587683,0.1668625-0.0625429,0.1636848-0.1886263,0.2514992
			c0.0159864,0.2193069,0.0220184,0.264679,0.1257505,0.3772163c0.0613947,0.0370827,0.119422,0.005291,0.3143396,0
			c-0.0676126,0.0476646-0.0581017,0.0394897-0.1886263,0.0628738c0.0209827,0.0209465,0.0419292,0.041893,0.0628757,0.0628777
			c0.0808239,0.048481,0.1719732-0.0344543,0.3772154-0.0628777c-0.1100225-0.1606445-0.2179356-0.3771019-0.3143396-0.5658379
			c-0.0209465-0.0209465-0.041893-0.0419312-0.0628757-0.0628777c0.2233019-0.3765869,0.3244057-0.7419968,0.2515011-1.2573967
			c2.2029715-0.4458637,4.9191608-1.0502682,6.9785805-1.3202724c0.041893,0.0419292,0.0838223,0.0838223,0.1257515,0.1257496
			c-0.0646896,0.0507393-0.0154686,0.0232048-0.1257515,0.0628757c0.0705357,0.1267509,0.1406288,0.2852898,0.2514648,0.3772163
			c0.0936661,0.0403385,0.0272369,0.0781231,0.1257515,0c0.3221474,0.0217247,0.3583412,0.0526237,0.3772144,0.3772144
			c0.3244438,0.0864506,0.3352871,0.1109486,0.6287174,0c0.0344906,0.0957375,0.0443726,0.1050644,0.0628757,0.2514648
			c1.1396027,0.061285,2.2125206,0.1955109,3.0177612-0.3143406c0.1909943-0.1209373,0.2176399-0.3654842,0.3772163-0.5029659
			c0.1407032-0.1212349,0.4019356-0.1606464,0.5029659-0.3143387c0.0878544-0.133707-0.0284595-0.3841,0-0.4400921
			c0.0834904-0.1645336,0.2426567-0.1278973,0.3143406-0.3772144c0.5402699-0.0781231,1.1181393,0.2667103,1.6346111,0.3772144
			c0.2248955,0.048111,0.5770931-0.126379,0.7544308-0.1257496c0.0989208,0.00037,0.5804234,0.0459614,0.7544689-0.0628757
			c0.3049412-0.0042934,0.668539-0.0099545,0.8801823,0.0628757c-0.0159855,0.219305-0.0220184,0.2646751-0.1257515,0.3772144
			c0.0102901,0.3603783,0.0609512,0.3410225,0.3143406,0.4400921c-0.0066223,0.159277-0.0076962,0.2329617-0.0628738,0.3143749
			c0.0188007,0.5562229,0.2423973,0.356678,0.5029659,0.5029659c0.0654659,0.1014385,0.0624676,0.4005699,0.1257496,0.5029335
			c0.5217667,0.6743469,2.7702198,1.2284927,4.0865707,0.8173027c0.4527473-0.1414032,0.8236351-0.4814644,1.2573967-0.691555
			c0.1065826-0.2861023,0.2944679-0.4624786,0.3772163-0.691555v-0.3772163
			c0.0896683-0.1832581,0.4320984-0.2194519,0.5029678-0.4400902c0.1050224-0.3271065-0.2269669-0.3938313-0.1257515-0.6915913
			c0.0628738-0.041893,0.1257515-0.0838223,0.1886253-0.1257515c0.2080536-0.5323505-0.3080101-0.7856655,0.2514648-1.0058956
			c-0.0360451-0.5062981-0.1577606-0.3077908-0.2514648-0.5658436c-0.0882988-0.2430992,0.1116867-0.4068203,0.1257133-0.5029659
			c0.0604706-0.4142227-0.4709549-0.5153618-0.0628395-0.9430561c-0.0681305-0.3037586-0.1940651-0.2184544-0.3772507-0.3772163
			c-0.1421471-0.2002831,0.0149117-0.3913536-0.1257133-0.6286793v-0.1257515h-0.3143768
			c0.0276794-0.203207,0.0918884-0.2918777,0-0.4400902c-0.1237907-0.2608662-0.2962074-0.2341461-0.5658035-0.1886272
			c0.477356-0.5427113,0.7091675-1.2776756,1.1316452-1.8860779c0.3771782-0.3772163,0.754467-0.7545052,1.1316452-1.1316853
			c0.1608734-0.2129765,0.3513489-0.6108398,0.5658417-0.7544308c0.1733437-0.1160545,0.3059769-0.0706463,0.3772163-0.1257496
			h1.5088997c0.0333061,0.225523,0.0076981,0.311861,0,0.6287174c0.2876968,0.1506939,0.9976425,0.5508537,1.2573967,0.7544308
			h0.4400902c0.2578659-0.1701603,0.2624207-0.8049088,0.440094-1.0688076
			c0.1150551-0.1709003,0.4025993-0.4904213,0.5658417-0.6286812c0.0222359-0.7337055-0.153286-0.8666363-0.2515068-1.5088978
			c-0.2295914-0.093111-0.6888123-0.2711525-0.8801804-0.4400921c-0.0884819-0.0556221,0.1150551-0.163868,0.1886292-0.2514648
			c-0.0419312-0.0209465-0.0838242-0.0419292-0.1257515-0.0628738c-0.0775681-0.1137619-0.3761787-0.1106167-0.6286812-0.1257534
			v-0.0628738c0.4542274-0.1208305,0.5642128-0.4923458,0.9430199-0.6915569
			c-0.0019569-0.3156338-0.0150223-0.4167385-0.2514648-0.5029659c0.0204277-0.1449947,0.0291977-0.1561699,0.0628777-0.2514648
			c0.0418892-0.0209465,0.0838203-0.0419273,0.1257477-0.0628738v0.0628738
			c0.2125359-0.1248989,0.8174553-1.2765293,1.2574005-1.5717745v-0.5029297
			C39.7710571,14.8743238,39.3728218,14.7904654,38.974659,14.7066431z M12.1920233,27.6579075h-0.4400921
			c0.0837851-1.0477505,0.1676435-2.0957985,0.2514648-3.1435127c0.2077971,0.005331,0.4650707,0.0146179,0.5029659,0h0.1257515
			c-0.0894461,0.3731098-0.0748291,1.0690689-0.0628748,1.5717392c0.002183,0.0917034,0.1070251,0.2605324,0.0628748,0.4400902
			C12.5330458,26.9287891,12.2562675,27.2234421,12.1920233,27.6579075z M12.6321135,27.4692822v0.0628738h-0.0628748
			c0.0209455-0.1257496,0.0418921-0.2515011,0.0628748-0.3772144C12.7039814,27.2648525,12.7065353,27.358963,12.6321135,27.4692822
			z M11.4375553,28.9153061c-0.0782709-0.042078-0.1300077-0.0683537-0.18859-0.1257534h0.18859V28.9153061z M12.506362,29.1038933
			c-0.4713984,0.0168381-0.5334234-0.0922585-0.4400902-0.4400902h0.2514648
			c0.0209837,0.0209465,0.0419283,0.0419312,0.0628748,0.0628777c0.031827,0.133707,0.0562525,0.2273712,0.1257505,0.3143368
			V29.1038933z M12.8207026,28.2237129c-0.0405598,0.1085052-0.0123234,0.0615425-0.0628757,0.1257496
			c-0.044075-0.1694927-0.0867815-0.2720394-0.1885881-0.3772144c0.0575457-0.1356316,0.0545111-0.0914459,0.1257133-0.1886272
			c0.0628748,0.0209465,0.1257505,0.0419292,0.1886253,0.0628757
			C12.8820982,28.0179138,12.8810987,28.1345978,12.8207026,28.2237129z M12.946454,24.7029839
			c-0.0604334-0.08815-0.0633202-0.2062416-0.0628767-0.3772144c-0.1860342,0.117794-0.0557327,0.1471405-0.1257505,0.251503
			V24.64011c-0.0476284-0.0676136-0.0394869-0.0581017-0.0628748-0.188591
			c-0.1714172-0.0014801-0.2881012-0.0024796-0.3772154-0.0628738c-0.1668291-0.0742741-0.1308956-0.1225319-0.3143406-0.1886272
			c0.0193176-0.1933994,0.028533-0.6660557,0.1257505-0.8173065v-0.4400902
			c0.3311424,0.1011047,0.4980822,0.3526802,0.8173075,0.5029659c0.0582123,0.2248573,0.2564964,0.5692101,0.1885881,0.6915932
			c-0.021944,0.2550907-0.0553627,0.3127098-0.1885881,0.4400921V24.7029839z M13.0722046,24.64011
			c0.0776787,0.1141682,0.0702028,0.3596363,0.0628376,0.5658398C13.0573645,25.0917835,13.0648403,24.8463135,13.0722046,24.64011z
			 M14.4553156,28.5380898c-0.3089743,0.0387821-1.0334291-0.0167274-1.1945219-0.1257515h-0.1257515
			c0.0838223-1.11059,0.1676807-2.2215099,0.251503-3.3321381c0.3872442,0.5504093,0.4610739,1.6436062,0.691555,2.389082
			c0.0400047,0.1293411,0.2112741,0.2673035,0.251502,0.3772144c0.0901127,0.2463951-0.0049219,0.3440189,0.1257133,0.5029659
			V28.5380898z"/>
	</g>
</g>
</svg>
