<?xml version="1.0" encoding="utf-8"?>
<!-- Generator: Adobe Illustrator 17.1.0, SVG Export Plug-In . SVG Version: 6.00 Build 0)  -->
<!DOCTYPE svg PUBLIC "-//W3C//DTD SVG 1.1//EN" "http://www.w3.org/Graphics/SVG/1.1/DTD/svg11.dtd">
<svg version="1.1" id="Layer_1" xmlns="http://www.w3.org/2000/svg" xmlns:xlink="http://www.w3.org/1999/xlink" x="0px" y="0px"
	 viewBox="0 0 60 60" enable-background="new 0 0 60 60" xml:space="preserve">
<g id="base">
	<g>
		
			<linearGradient id="SVGID_1_" gradientUnits="userSpaceOnUse" x1="-12.6099606" y1="85" x2="-12.6099606" y2="90.3407974" gradientTransform="matrix(4 0 3.0474641 -4 -185.8804321 400)">
			<stop  offset="0" style="stop-color:#000000;stop-opacity:0.4"/>
			<stop  offset="1" style="stop-color:#000000;stop-opacity:0"/>
		</linearGradient>
		<path fill="url(#SVGID_1_)" d="M10.9777107,51.3203468c-1.2281895-1.3760834-1.2459393-2.8060074-0.0538082-4.3707581
			c3.5513048-4.6613235,15.8794746-8.3127785,28.0664539-8.3127785c12.1864014,0,18.9507294,3.6514549,15.3994217,8.3127785
			c-1.1922951,1.5649719-3.388279,2.9948997-6.7130814,4.3707581l-24.9622326,8.6796608L10.9777107,51.3203468z"/>
		
			<linearGradient id="SVGID_2_" gradientUnits="userSpaceOnUse" x1="5.7339597" y1="85.5998688" x2="5.7339597" y2="99.6992722" gradientTransform="matrix(4 0 0 -4 0 400)">
			<stop  offset="0" style="stop-color:#006699"/>
			<stop  offset="1" style="stop-color:#007BB8"/>
		</linearGradient>
		<path fill="url(#SVGID_2_)" d="M4.5866413,34.686718C2.3100612,31.0539417,1.202901,27.2790241,1.202901,23.1481705
			c0-12.3056307,9.5462475-21.9452667,21.7332325-21.9452667c12.1863976,0,21.7326431,9.639637,21.7326431,21.9452667
			c0,4.131443-1.1065712,7.9063587-3.383152,11.5385475L22.9361343,57.6005287L4.5866413,34.686718z"/>
		<path fill="#FFFFFF" d="M22.9358578,2.4058051c11.5122089,0,20.5301151,9.1112213,20.5301151,20.7425861
			c0,3.8765488-1.0349464,7.4239712-3.1630898,10.8400307L22.9358578,55.6755371L5.5689535,33.9884758
			c-2.1281793-3.4162006-3.163157-6.9636707-3.163157-10.8400841C2.4057965,11.5170269,11.4236746,2.4058051,22.9358578,2.4058051
			 M22.9358578,0.0000076C10.1573973,0.0000076,0,10.25142,0,23.1483917c0,4.6296749,1.3107049,8.5979481,3.6042993,12.2355232
			l19.3315582,24.1404457l19.3316555-24.1404457c2.2936401-3.6375751,3.6042557-7.6058483,3.6042557-12.2355232
			C45.871769,10.25142,35.7144241,0.0000076,22.9358578,0.0000076L22.9358578,0.0000076z"/>
	</g>
</g>
<path opacity="0.6" fill="#020302" enable-background="new    " d="M32.1693802,19.4948921
	c0.9533195,0.0075092,1.9075584,0.0411739,2.8593979,0.0072002c0.3003578-0.0107174,0.5324631-0.2996368,0.7701912-0.4952374
	c0.0911179-0.0749683,0.1624718-0.1392479,0.2889938-0.1382923c0.8899918,0.0067348,1.7801247,0.014286,2.6700211,0.005022
	c0.1986694-0.0020676,0.2785187,0.0827694,0.3684807,0.2416821c0.6064186,1.0712051,1.0946693,2.2009621,1.6507797,3.2968864
	c0.1073799,0.2116222,0.1944084,0.4384537,0.3311119,0.629427c0.4824829,0.6739731,0.5400429,1.4342289,0.5042267,2.2233982
	c-0.0086746,0.1911907-0.0500526,0.2754936-0.2597084,0.3269749c-0.2498093,0.0613518-0.5046997,0.1814518-0.4674797,0.5388622
	c0.0185623,0.1782837-0.0811081,0.3177605-0.2646255,0.3598156c-0.1612663,0.0369511-0.3141479,0.001194-0.3610764-0.1800232
	c-0.0383148-0.1480122-0.1401215-0.1730595-0.2532921-0.1612568c-0.1491661,0.0155544-0.0955963,0.1544704-0.108284,0.2410297
	c-0.0180702,0.1233063-0.0073357,0.2505798-0.0146484,0.3758259c-0.0034866,0.0598774-0.0202179,0.1666908-0.0824356,0.1404324
	c-0.4575119-0.1930866-0.2481613,0.2137337-0.2638054,0.3254871c-0.1124802,0.8034306-0.645359,1.3323784-1.4035378,1.3780231
	c-0.6802826,0.0409489-1.5258255-0.4447041-1.6115532-1.2249088c-0.0121651-0.1107216,0.0049973-0.2847462-0.1846085-0.2686749
	c-0.1794891,0.0152035-0.1351128,0.1855812-0.1589622,0.29739c-0.1549225,0.725935-0.4875908,1.0667553-1.1738472,1.1923504
	c-0.5936012,0.1086445-1.3115654-0.197485-1.604454-0.6796646c-0.1796722-0.2957878-0.1608391-0.6239929-0.1708679-0.9494476
	c-0.0033264-0.1081257,0.0714645-0.2161217,0.0071716-0.3202972c-0.0562744-0.0238686-0.0697174,0.0151196-0.0915222,0.0449219
	c-0.0598526,0.0818062-0.0458183,0.2610226-0.2062111,0.2119617c-0.1162987-0.0355778-0.067688-0.1740379-0.0730553-0.2689381
	c-0.0106277-0.1880436-0.0104637-0.3766747-0.0174408-0.5649567c-0.0032539-0.0876675-0.0010147-0.1820545-0.1304131-0.1837559
	c-0.1242561-0.0016403-0.1400719,0.085041-0.1435814,0.1767063c-0.0072021,0.1882553-0.0263901,0.3781147-0.0103607,0.5647087
	c0.0222664,0.258997-0.1008224,0.3302803-0.3302612,0.3134899c-0.1123619-0.0082207-0.2268295-0.0083885-0.3388748,0.0026798
	c-1.6100368,0.158989-3.2271709,0.184473-4.8377285,0.1011696c-0.782053-0.0404549-1.5660553-0.071167-2.3485317-0.1172657
	c-0.6468258-0.0381126-0.6409054-0.0497055-0.6417351-0.7207794c-0.0002499-0.2062607,0.0761814-0.4219837-0.0486012-0.6195087
	c-0.4971466-0.1206455-0.2660961,0.2494049-0.2980175,0.4422455c-0.0050755,0.260088-0.0148544,0.5202198-0.0125256,0.7802429
	c0.0007572,0.0832462,0.0272121,0.1682529,0.0531902,0.2488174c0.0396614,0.122963,0.3244991,0.0947266,0.2230778,0.267868
	c-0.06814,0.1163483-0.2767735,0.0363064-0.4213066,0.0555134c-0.0245495,0.0032635-0.0487957,0.0087109-0.0731869,0.0131493
	c-0.086853-0.0078678-0.1746178-0.0102997-0.2603741-0.0246887c-0.1990471-0.0333881-0.1607227-0.116663-0.0401382-0.2130127
	c0.0319786-0.0163174,0.0639591-0.0326385,0.0959377-0.0489483c0,0,0.0034275-0.0011749,0.0033989-0.0011597
	c0.1625004-0.0534172,0.1356201-0.1929379,0.1375179-0.3143024c0.0041161-0.2638874,0.0230293-0.5302601-0.0061588-0.790905
	c-0.0170631-0.1523666,0.1507492-0.4542427-0.1643963-0.4314461c-0.2814255,0.0203495-0.0964661,0.2968712-0.1258793,0.4580975
	c-0.0201473,0.2429771-0.3272209,0.3773251-0.2511635,0.6612015c0.0057468,0.0214462-0.060812,0.0873413-0.097744,0.0908699
	c-0.1749611,0.0167122-0.0847378-0.1740017-0.1878395-0.2492981c0,0.2109947,0.0001717,0.4056282-0.0000648,0.6002541
	c-0.0001259,0.1037655,0.0054512,0.2130661-0.1546078,0.1788826c0.001627-0.2165375,0.0100384-0.4346142-0.1615582-0.6196938
	c0.0313377,0.2822437,0.0230427,0.5599823-0.0166378,0.83634c-0.1422195,0.6431427-0.5783329,0.9733658-1.1970463,1.0592651
	c-0.5697536,0.0791054-1.0617657-0.1181087-1.4469719-0.5507355c-0.0733585-0.0823879-0.136467-0.1869316-0.1666374-0.2920647
	c-0.0651245-0.2268944-0.2108746-0.2659492-0.424469-0.2653122c-0.2136097,0.0006371-0.3320427,0.0491085-0.418726,0.2683811
	c-0.2361221,0.597311-0.7405262,0.8383827-1.3426285,0.8530312c-0.5957413,0.0144939-1.0662441-0.2417316-1.3479853-0.792717
	c-0.0748138-0.1463013-0.0874796-0.3300629-0.3423691-0.3315582c-0.2482328-0.0014572-0.2852402,0.1212234-0.3189888,0.3124275
	c-0.0246229,0.139492-0.1597319,0.1385403-0.2750721,0.1386528c-1.1816635,0.0011959-2.363327,0.0015354-3.5449915,0.0035191
	c-0.1721907,0.0002899-0.2985048-0.0489521-0.3044167-0.2483196c-0.0027399-0.0923481-0.108387-0.2104607-0.116025-0.1864624
	c-0.1009827,0.3171997-0.4728689,0.0433273-0.6059799,0.3026714c-0.3105764,0.6051083-0.8516712,0.8391323-1.4981995,0.7945042
	c-0.652072-0.0450096-1.0885544-0.4041481-1.2753444-1.04459c-0.0128551-0.0440922-0.0489197-0.081419-0.1171575-0.1907101
	c-0.103888,0.5693321-0.4527216,0.3826847-0.7576866,0.3282013c-0.1483455-0.0265121-0.2945089-0.0664024-0.4434118-0.0884037
	C5.316061,27.459444,5.494164,27.1834488,5.5243025,26.4891834c0.0107141-0.2467117,0.0496054-0.4779358,0.0004597-0.7323856
	c-0.0418553-0.2166653-0.0936203-0.4697342,0.0921111-0.6834087c0.1187086-0.1365814-0.0958304-0.2232723-0.0914149-0.3680992
	c0.0176244-0.5777073-0.0955968-1.1802883,0.032804-1.728405c0.1576557-0.6729355,0.1062131-1.363945,0.2903795-2.024744
	c0.019733-0.0708103,0.0336008-0.1570797,0.0117173-0.2235031c-0.2048984-0.6220074,0.1728678-1.1566029,0.254941-1.7346992
	c0.0081124-0.0571575,0.049016-0.1436882,0.0925708-0.1566811c0.6502209-0.1940556,1.0406442-0.8529778,1.816443-0.8826294
	c0.9946527-0.0380154,1.9933167-0.1489887,2.9780378-0.3494587c0.4884214-0.0994358,0.8143959,0.0942974,0.8618183,0.7029762
	c0.0057783,0.0741253-0.008563,0.1852932,0.0329475,0.2156353c0.3804922,0.27808,0.2558889,0.6798115,0.2574644,1.040556
	c0.0081167,1.8604755,0.0126925,3.7210789-0.0035906,5.5814419c-0.0029564,0.3370514,0.0947943,0.4394836,0.4236221,0.4112587
	c0.7215033-0.0619297,1.4425631-0.1260319,2.1701794-0.1111965c0.3534288,0.0072155,0.6835318,0.1409168,1.0399675,0.1185875
	c0.2197523-0.0137672,0.3196211-0.065937,0.3078718-0.3032188c-0.0148544-0.2999954,0.0154171-0.5990524-0.113512-0.8884182
	c-0.5673561-1.2733021-0.9404478-2.6189022-1.4468679-3.9151268c-0.2329473-0.5962505-0.4684076-1.1917038-0.6878548-1.7929478
	c-0.0843258-0.2310314-0.2020264-0.361042-0.4651489-0.3188286c-0.1103477,0.0177097-0.2283478-0.0117397-0.3384781,0.0066032
	c-0.3704081,0.0616951-0.4768848-0.0895882-0.4512711-0.4518318c0.0179977-0.2545509,0.1059361-0.3119926,0.338727-0.3090725
	c0.8295431,0.0104294,1.6593027,0.0048714,2.4889755,0.0029144c0.3639536-0.0008602,0.6721077,0.1868362,0.9988976,0.3019714
	c0.6794586,0.2393703,1.3625927,0.4625759,2.0519218,0.6729164c0.7435856,0.226902,1.4647827,0.527092,2.1962433,0.7939434
	c0.1171398,0.0427361,0.2368889,0.0783176,0.3552284,0.1171665c0.0305653,0.0049171,0.0613289,0.0098763,0.0920887,0.0148354
	c1.5651035,0.0395355,3.1302643,0.0258808,4.6954174,0.0044937c0.0750656-0.0010223,0.1516609-0.006134,0.200264-0.0782795
	c0.0807819,0.117775,0.163969,0.1318417,0.2503166,0.0057411c0.196928,0.1579132,0.4185543,0.0740566,0.6325836,0.0646229
	c0.2775745,0.0481129,0.5547695,0.0377331,0.8317471-0.005455c0.1231804,0.0472317,0.2459393,0.0311584,0.3685741-0.0024452
	c0.4063225,0.0582848,0.8129425,0.0505352,1.2197113,0.0052013c0.0501022,0.0024185,0.1002121,0.0048332,0.1502972,0.0072556
	c0.0337296-0.0002708,0.0674686-0.000536,0.1012173-0.000803c0.1378288,0.0222244,0.276001,0.0505333,0.4084339-0.022995
	c0.0520573-0.0086689,0.1041183-0.0173416,0.1561718-0.0260181c0.2941513,0.114336,0.5967159,0.067049,0.8978863,0.0467377
	c0.1802616,0.0342312,0.359951,0.0426178,0.5382328-0.0119762C31.7638741,19.5253944,31.9661636,19.5312138,32.1693802,19.4948921z
	 M26.4190845,25.6628399c-0.0168152-0.1061287-0.1037121-0.0906334-0.172039-0.0912724
	c-0.4936314-0.0046158-0.9879494,0.0093384-1.4806938-0.0128555c-0.3127232-0.0140781-0.4425602,0.0826416-0.3553944,0.3992691
	c-0.0191097,0.7971611-0.1653442,0.7657661,0.6890011,0.7398529c0.1249943-0.0037899,0.2500629-0.0073528,0.3750992-0.0072269
	C26.4863777,26.6916199,26.4863777,26.6918964,26.4190845,25.6628399z M31.5383091,26.6981354
	c0.7304173,0.0107307,0.7239666,0.010952,0.7055492-0.5286694c-0.0059929-0.1759224-0.0410881-0.2799435-0.2421494-0.2964687
	c-0.1510086-0.0124111-0.2625198-0.1223278-0.3842716-0.2149754c-0.2028618-0.1543522-0.4675884-0.1218224-0.6829891-0.0555878
	c-0.1575737,0.0484505-0.0636749,0.2700653-0.0686188,0.4099445C30.8419857,26.6877747,30.8483028,26.6879978,31.5383091,26.6981354
	z"/>
<path fill="#FFFFFF" d="M31.5793476,18.9048576c0.9533138,0.0075092,1.9075527,0.0411739,2.8593998,0.0072002
	c0.300354-0.0107193,0.5324593-0.2996368,0.7701874-0.4952354c0.0911179-0.0749702,0.1624756-0.1392479,0.2889938-0.1382961
	c0.8899918,0.0067368,1.7801208,0.0142879,2.6700211,0.005024c0.1986694-0.0020676,0.2785149,0.0827694,0.3684807,0.2416801
	c0.6064186,1.071207,1.0946693,2.200964,1.6507797,3.2968922c0.1073761,0.2116165,0.1944046,0.4384518,0.3311119,0.6294212
	c0.4824791,0.673975,0.5400429,1.4342289,0.5042267,2.2234001c-0.0086746,0.1911907-0.0500526,0.2754936-0.2597084,0.326973
	c-0.2498131,0.0613556-0.5046959,0.1814537-0.4674759,0.538866c0.0185623,0.1782799-0.0811119,0.3177586-0.2646294,0.3598118
	c-0.1612663,0.0369549-0.3141518,0.0011978-0.3610802-0.1800232c-0.038311-0.1480064-0.1401176-0.1730595-0.2532883-0.161253
	c-0.1491661,0.0155525-0.0955963,0.1544685-0.1082878,0.2410259c-0.0180702,0.1233101-0.0073318,0.2505798-0.0146446,0.3758278
	c-0.0034904,0.0598774-0.0202217,0.1666889-0.0824394,0.1404305c-0.4575081-0.1930828-0.2481575,0.2137356-0.2638054,0.3254929
	c-0.1124763,0.8034267-0.645359,1.3323765-1.4035339,1.3780212c-0.6802826,0.0409489-1.5258255-0.444706-1.6115532-1.2249126
	c-0.0121651-0.1107197,0.0049973-0.2847424-0.1846085-0.2686749c-0.1794891,0.0152035-0.1351128,0.185585-0.1589661,0.2973919
	c-0.1549187,0.7259331-0.487587,1.0667553-1.1738434,1.1923504c-0.593605,0.1086445-1.3115654-0.1974869-1.604454-0.6796646
	c-0.1796722-0.2957897-0.1608429-0.623991-0.1708717-0.9494438c-0.0033226-0.1081295,0.0714645-0.2161274,0.0071754-0.320303
	c-0.0562706-0.0238686-0.0697174,0.0151196-0.0915222,0.0449238c-0.0598526,0.0818043-0.0458183,0.2610226-0.2062111,0.2119598
	c-0.1162987-0.035574-0.067688-0.174036-0.0730591-0.2689381c-0.0106239-0.1880417-0.0104561-0.3766727-0.0174408-0.5649548
	c-0.0032463-0.0876675-0.0010109-0.1820526-0.1304054-0.1837578c-0.1242561-0.0016365-0.1400776,0.085043-0.1435871,0.1767082
	c-0.0072002,0.1882534-0.0263901,0.3781147-0.0103588,0.5647087c0.0222664,0.258997-0.1008224,0.3302784-0.3302631,0.3134918
	c-0.11236-0.0082245-0.2268276-0.0083885-0.3388748,0.0026779c-1.6100349,0.158987-3.2271671,0.1844769-4.8377285,0.1011677
	c-0.7820511-0.040451-1.5660553-0.071167-2.3485298-0.11726c-0.6468277-0.0381145-0.6409073-0.0497112-0.6417351-0.7207813
	c-0.0002499-0.2062645,0.0761795-0.4219856-0.0486031-0.6195126c-0.4971466-0.1206436-0.2660904,0.2494068-0.2980175,0.4422474
	c-0.0050755,0.2600861-0.0148525,0.5202179-0.0125217,0.780241c0.0007534,0.08325,0.0272102,0.1682568,0.0531864,0.2488194
	c0.0396614,0.122963,0.324501,0.0947247,0.2230816,0.267868c-0.0681438,0.1163483-0.2767754,0.0363045-0.4213085,0.0555115
	c-0.0245495,0.0032635-0.0487938,0.0087128-0.0731869,0.0131512c-0.086853-0.0078678-0.1746178-0.0103016-0.2603741-0.0246868
	c-0.1990471-0.03339-0.1607227-0.1166668-0.0401402-0.2130165c0.0319805-0.0163174,0.063961-0.0326328,0.0959415-0.0489464
	c0,0,0.0034256-0.0011749,0.003397-0.0011616c0.1625023-0.0534172,0.1356239-0.192934,0.1375179-0.3143005
	c0.0041142-0.2638874,0.0230293-0.530262-0.0061607-0.790905c-0.0170631-0.1523666,0.1507492-0.4542427-0.1643963-0.4314461
	c-0.2814236,0.0203476-0.0964661,0.2968693-0.1258774,0.4580975c-0.0201473,0.2429752-0.3272209,0.3773232-0.2511635,0.6612015
	c0.0057449,0.0214443-0.060812,0.0873413-0.0977421,0.0908699c-0.174963,0.0167103-0.0847378-0.1740017-0.1878395-0.2492981
	c0,0.2109966,0.0001698,0.4056263-0.0000648,0.6002522c-0.0001297,0.1037693,0.0054512,0.2130661-0.1546078,0.1788845
	c0.0016232-0.2165375,0.0100346-0.4346161-0.1615582-0.6196957c0.0313339,0.2822437,0.0230427,0.5599861-0.0166416,0.83634
	c-0.1422157,0.6431427-0.5783291,0.9733677-1.1970463,1.059269c-0.5697536,0.0791016-1.0617638-0.1181126-1.44697-0.5507336
	c-0.0733566-0.0823936-0.1364651-0.1869354-0.1666355-0.2920666c-0.0651264-0.2268982-0.2108765-0.2659531-0.4244709-0.2653141
	c-0.2136097,0.0006351-0.3320427,0.0491085-0.418726,0.2683792c-0.236124,0.597311-0.7405262,0.8383865-1.3426285,0.8530312
	c-0.5957413,0.0144939-1.0662432-0.2417316-1.3479862-0.7927151c-0.0748129-0.1463032-0.0874777-0.3300629-0.3423681-0.3315582
	c-0.2482338-0.0014553-0.2852411,0.1212215-0.3189898,0.3124294c-0.0246229,0.139492-0.1597328,0.1385384-0.2750702,0.1386547
	c-1.1816645,0.0011902-2.3633289,0.0015316-3.5449934,0.0035133c-0.1721897,0.0002937-0.2985039-0.0489502-0.3044167-0.2483177
	c-0.002739-0.0923443-0.1083851-0.2104607-0.116024-0.1864643c-0.1009827,0.3172035-0.4728689,0.0433311-0.6059799,0.3026714
	c-0.3105774,0.6051121-0.8516712,0.8391323-1.4981995,0.7945061c-0.652072-0.0450096-1.0885544-0.4041462-1.2753448-1.0445881
	c-0.0128546-0.0440941-0.0489192-0.0814209-0.117157-0.1907139c-0.103888,0.5693321-0.4527216,0.3826885-0.7576866,0.3282032
	C6.0207,27.0789967,5.8745365,27.0391064,5.7256336,27.0171013c-0.9996071-0.1476917-0.8215051-0.423687-0.7913666-1.1179504
	c0.0107145-0.2467155,0.0496058-0.4779396,0.0004611-0.7323875c-0.0418568-0.2166653-0.0936213-0.4697342,0.0921111-0.6834087
	c0.1187081-0.1365814-0.0958314-0.2232742-0.0914164-0.3681011c0.0176249-0.5777035-0.0955954-1.1802883,0.032805-1.7284012
	c0.1576557-0.6729393,0.1062136-1.3639488,0.290379-2.024744c0.0197334-0.0708141,0.0336013-0.1570797,0.0117178-0.223505
	c-0.2048988-0.6220055,0.1728673-1.1566029,0.254941-1.7347012c0.0081129-0.0571556,0.049015-0.1436863,0.0925708-0.1566792
	c0.6502213-0.1940556,1.0406437-0.8529778,1.8164434-0.8826275c0.9946523-0.0380173,1.9933152-0.1489906,2.9780374-0.3494606
	c0.4884224-0.0994358,0.814395,0.0942974,0.8618183,0.7029762c0.0057783,0.0741253-0.008563,0.1852932,0.0329475,0.2156353
	c0.3804913,0.2780819,0.2558899,0.6798115,0.2574635,1.040556c0.0081177,1.8604774,0.0126944,3.721077-0.0035915,5.5814457
	c-0.0029554,0.3370457,0.0947962,0.4394798,0.423625,0.4112549c0.7215004-0.0619297,1.4425621-0.1260338,2.1701794-0.1111927
	c0.3534269,0.0072117,0.6835318,0.140913,1.0399666,0.1185818c0.2197514-0.0137653,0.3196192-0.0659351,0.3078699-0.3032188
	c-0.0148535-0.2999916,0.015419-0.5990524-0.1135111-0.8884163c-0.5673552-1.2733021-0.9404469-2.6189003-1.4468679-3.9151249
	c-0.2329464-0.5962524-0.4684067-1.1917057-0.6878557-1.7929497c-0.0843248-0.2310314-0.2020245-0.3610439-0.4651461-0.3188267
	c-0.1103487,0.0177059-0.2283487-0.0117397-0.33848,0.0066013c-0.370409,0.0616951-0.4768848-0.0895863-0.4512701-0.4518318
	c0.0179958-0.2545509,0.1059361-0.3119907,0.338726-0.3090725c0.8295431,0.0104275,1.6593037,0.0048714,2.4889755,0.0029144
	c0.3639545-0.0008621,0.6721106,0.1868362,0.9988985,0.3019733c0.6794567,0.2393684,1.3625946,0.4625721,2.0519218,0.6729145
	c0.7435837,0.226902,1.4647827,0.527092,2.1962433,0.7939434c0.1171379,0.0427361,0.2368889,0.0783176,0.3552284,0.1171665
	c0.0305634,0.0049171,0.061327,0.0098743,0.0920906,0.0148335c1.5651016,0.0395374,3.1302643,0.0258808,4.6954136,0.0044956
	c0.0750675-0.0010223,0.1516628-0.006134,0.200264-0.0782795c0.0807858,0.1177731,0.1639729,0.1318436,0.2503166,0.0057392
	c0.1969318,0.1579151,0.4185562,0.0740585,0.6325836,0.0646248c0.2775745,0.0481129,0.5547752,0.0377312,0.8317471-0.0054569
	c0.1231823,0.0472336,0.2459393,0.0311623,0.3685741-0.0024452c0.4063244,0.0582848,0.8129463,0.0505371,1.2197113,0.0052052
	c0.0501022,0.0024166,0.1002159,0.0048332,0.1502991,0.0072556c0.0337315-0.0002728,0.0674706-0.0005379,0.1012154-0.0008068
	c0.1378326,0.0222244,0.276001,0.0505352,0.4084377-0.0229931c0.0520535-0.0086689,0.1041183-0.0173435,0.1561718-0.0260162
	c0.2941513,0.1143341,0.5967178,0.067049,0.8978825,0.0467358c0.1802616,0.0342312,0.3599548,0.0426159,0.5382347-0.0119743
	C31.1738434,18.93536,31.3761292,18.9411793,31.5793476,18.9048576z M25.8290501,25.0728073
	c-0.0168133-0.1061325-0.103714-0.0906334-0.172039-0.0912724c-0.4936275-0.0046196-0.9879475,0.0093346-1.4806938-0.0128593
	c-0.3127232-0.0140762-0.4425621,0.0826435-0.3553963,0.399271c-0.0191059,0.7971649-0.1653423,0.7657661,0.689003,0.7398567
	c0.1249943-0.0037918,0.250061-0.0073547,0.3751011-0.0072308C25.8963451,26.1015835,25.8963451,26.101862,25.8290501,25.0728073z
	 M30.9482765,26.1081009c0.7304211,0.0107307,0.7239647,0.0109539,0.7055492-0.5286674
	c-0.0059948-0.1759243-0.0410881-0.2799454-0.2421551-0.2964687c-0.1510029-0.0124149-0.2625179-0.1223297-0.3842697-0.2149792
	c-0.202858-0.1543503-0.4675884-0.1218204-0.6829872-0.0555859c-0.1575718,0.0484486-0.0636749,0.2700672-0.0686207,0.4099445
	C30.2519531,26.0977383,30.2582684,26.0979633,30.9482765,26.1081009z"/>
</svg>
