<?xml version="1.0" encoding="utf-8"?>
<!-- Generator: Adobe Illustrator 17.1.0, SVG Export Plug-In . SVG Version: 6.00 Build 0)  -->
<!DOCTYPE svg PUBLIC "-//W3C//DTD SVG 1.1//EN" "http://www.w3.org/Graphics/SVG/1.1/DTD/svg11.dtd">
<svg version="1.1" id="Layer_1" xmlns="http://www.w3.org/2000/svg" xmlns:xlink="http://www.w3.org/1999/xlink" x="0px" y="0px"
	 viewBox="-11.416667 0 61.5 50" enable-background="new -11.416667 0 61.5 50" xml:space="preserve">
<g id="base">
	<g>
		
			<linearGradient id="SVGID_1_" gradientUnits="userSpaceOnUse" x1="-26.1479588" y1="96.8812714" x2="-26.1479588" y2="98.0028305" gradientTransform="matrix(16 0 12.1898565 -16 -743.5217285 1600)">
			<stop  offset="0" style="stop-color:#000000;stop-opacity:0.4"/>
			<stop  offset="1" style="stop-color:#000000;stop-opacity:0"/>
		</linearGradient>
		<path fill="url(#SVGID_1_)" d="M9.2211933,42.6088181c-1.0316696-1.155899-1.0465803-2.3570213-0.0451984-3.671402
			c2.9830694-3.9154739,13.3386364-6.9826717,23.5756073-6.9826717c10.2364845,0,15.9184685,3.0671978,12.9353981,6.9826717
			c-1.0015221,1.3145676-2.8461304,2.5156937-5.6389351,3.671402L19.079977,49.8996696L9.2211933,42.6088181z"/>
		
			<linearGradient id="SVGID_2_" gradientUnits="userSpaceOnUse" x1="1.2041203" y1="96.9759979" x2="1.2041203" y2="99.9368439" gradientTransform="matrix(16 0 0 -16 0 1600)">
			<stop  offset="0" style="stop-color:#007BB8"/>
			<stop  offset="1" style="stop-color:#0094DE"/>
		</linearGradient>
		<path fill="url(#SVGID_2_)" d="M3.8527434,29.1366043c-1.9123099-3.051506-2.8423162-6.2224083-2.8423162-9.6922932
			c0-10.3366356,8.018775-18.433857,18.2557507-18.433857c10.2364826,0,18.2552528,8.0972223,18.2552528,18.433857
			c0,3.4703808-0.929512,6.6412811-2.8418198,9.6922932L19.2661781,48.3840294L3.8527434,29.1366043z"/>
		<path fill="#FFFFFF" d="M19.2659454,2.0208819c9.6701679,0,17.2451401,7.6533575,17.2451401,17.4236145
			c0,3.2562714-0.8693466,6.2360802-2.656971,9.1055431L19.2659454,46.7670479L4.6778779,28.550087
			c-1.7876542-2.869585-2.6570272-5.849432-2.6570272-9.1055908C2.0208504,9.6742392,9.5957994,2.0208819,19.2659454,2.0208819
			 M19.2659454,0.0000304c-10.7338095,0-19.2659454,8.6111088-19.2659454,19.4444656
			c0,3.8888931,1.1009821,7.2222099,3.0275838,10.2777481l16.2383614,20.2777863l16.2384453-20.2777863
			c1.9266396-3.0555382,3.0275459-6.388855,3.0275459-10.2777481C38.5319366,8.6111393,29.9998436,0.0000304,19.2659454,0.0000304
			L19.2659454,0.0000304z"/>
	</g>
</g>
</svg>
