<?xml version="1.0" encoding="utf-8"?>
<!-- Generator: Adobe Illustrator 17.1.0, SVG Export Plug-In . SVG Version: 6.00 Build 0)  -->
<!DOCTYPE svg PUBLIC "-//W3C//DTD SVG 1.1//EN" "http://www.w3.org/Graphics/SVG/1.1/DTD/svg11.dtd">
<svg version="1.1" id="Layer_1" xmlns="http://www.w3.org/2000/svg" xmlns:xlink="http://www.w3.org/1999/xlink" x="0px" y="0px"
	 viewBox="0 0 100 100" enable-background="new 0 0 100 100" xml:space="preserve">
<g>
	<g>
		<path fill="#262F07" d="M57.0614624,72.2938843c0,0,3.5072632-1.5437622,0.7276611-6.8192749
			c-2.7786865-5.2745972-6.2207642-5.5977173-6.2207642-11.3864136c0,0-4.5680542,11.3864136-0.6630859,15.9534912
			C50.9052734,70.041687,53.0230103,74.0301514,57.0614624,72.2938843z M61.7915649,62.2998047
			c0,0,3.5858154-1.3634033,1.0930176-6.7717896c-2.4924927-5.4096069-5.9103394-5.9069214-5.5999146-11.6893921
			c0,0-5.1727295,11.1405029-1.5189209,15.9000854C55.7657471,59.7387085,57.664978,63.8289795,61.7915649,62.2998047z
			 M66.7302246,52.5714111c0,0,3.6261597-1.2615967,1.2988892-6.7388916
			c-2.3273315-5.4785156-5.7303467-6.0736084-5.2451172-11.8427124c0,0-5.5076904,10.9868774-1.9979248,15.8494873
			C60.7860718,49.8383789,62.5604858,53.9823608,66.7302246,52.5714111z M72.2879028,42.350708
			c0,0,3.5753174-1.3913574,1.0390625-6.7811279c-2.5350342-5.3900146-5.9578857-5.8615723-5.6930542-11.6449585
			c0,0-5.0848999,11.1784058-1.3919678,15.9115601C66.2419434,39.8361816,68.1740723,43.9109497,72.2879028,42.350708z
			 M76.9745483,32.3432617c0,0,3.6494751-1.1936035,1.4313965-6.7131348
			c-2.2186279-5.5210571-5.6107788-6.178894-5.0100708-11.9386597c0,0-5.7228394,10.881958-2.3115234,15.8094482
			C71.0843506,29.5,72.7784424,33.6746826,76.9745483,32.3432617z M66.1382446,68.781311
			c-5.9876709,1.111084-5.0852051,4.7471924-5.0852051,4.7471924c1.0740967,4.1635132,5.6116943,3.3346558,5.6116943,3.3346558
			c6.1062012,0.1853638,12.5365601-10.3153687,12.5365601-10.3153687
			C74.5062866,70.1087646,72.1268311,67.6671753,66.1382446,68.781311z M66.2546387,63.7600708
			c1.2976074,4.1014404,5.7830811,3.0428467,5.7830811,3.0428467c6.1096191-0.1235352,11.9647217-10.9371948,11.9647217-10.9371948
			c-4.5003662,3.7904053-7.0033569,1.4776611-12.9264526,2.8926392
			C65.1550903,60.1733398,66.2546387,63.7600708,66.2546387,63.7600708z M71.1107788,53.991333
			c1.4196167,4.0635986,5.8721313,2.8792725,5.8721313,2.8792725c6.1022339-0.2995605,11.6288452-11.2761841,11.6288452-11.2761841
			c-4.3814697,3.9195557-6.9558716,1.6766357-12.8311157,3.260498C69.9031982,50.4365845,71.1107788,53.991333,71.1107788,53.991333
			z M80.8456421,38.4817505c-5.9314575,1.3709106-4.8604736,4.9666748-4.8604736,4.9666748
			c1.2628784,4.1107178,5.7576294,3.0894165,5.7576294,3.0894165c6.109314-0.0794678,12.0516357-10.8508911,12.0516357-10.8508911
			C89.265564,39.4478149,86.7792969,37.1112061,80.8456421,38.4817505z M81.2225342,33.7035522
			c1.5,4.034729,5.9283447,2.7672119,5.9283447,2.7672119c6.0947266-0.4119263,11.4044189-11.4916382,11.4044189-11.4916382
			c-4.3041992,4.0018311-6.9230347,1.8061523-12.765686,3.498291
			C79.9472656,30.1714478,81.2225342,33.7035522,81.2225342,33.7035522z M50.6264648,86.0054321l2.8001099,1.104248
			c2.2711792-3.9710693,7.5681152-9.1199341,7.5681152-9.1199341l-6.3570557-3.753479
			C54.7869263,78.5044556,50.6264648,86.0054321,50.6264648,86.0054321z M91.3460693,26.1047974
			C93.9807129,22.7548828,99.6569824,9.65271,99.6569824,9.65271c-4.4599609,8.4723511-10.9455566,16.4520874-10.9455566,16.4520874
			H91.3460693z M85.2537842,3.3248291c0,0-7.5779419,12.1575317-8.8206177,16.1975098l1.5465698,2.0727539
			C77.9797363,21.5950928,80.8170776,11.8081055,85.2537842,3.3248291z M80.8838501,19.7713013
			c-2.1010132,3.5960693,1.6809692,6.586792,1.7924194,6.6730957l-0.0021362,0.0012207l0.0074463,0.0031128l0.005249,0.0053101
			l0.0021973-0.0053101c0.1396484,0.0298462,4.9259644,0.9226074,6.4017334-2.9587402
			c1.3327026-3.494873,1.2088623-7.5410156,0.5690308-10.1607666l5.1326904-11.4584351l-6.6351929,11.1224976
			C85.7334595,14.2598877,82.6890259,16.6821899,80.8838501,19.7713013z M35.3354492,84.1055908
			c-5.1867065-0.3070068-6.9273071,2.006958-11.2973022-0.5056763c0,0,6.6147461,8.2012939,11.7570801,7.3991699
			c0,0,3.9282227,0.2203979,4.3712158-3.4138184C40.1664429,87.5852661,40.5255737,84.4144897,35.3354492,84.1055908z
			 M34.6754761,79.8721924c0,0,0.5286865-3.1521606-4.6369629-3.72052
			c-5.1655884-0.5706177-7.0247803,1.6517944-11.2559814-1.081543c0,0,6.1636353,8.5266724,11.3441772,7.9883423
			C30.126709,83.0584717,34.0378418,83.4785156,34.6754761,79.8721924z M29.4750977,72.125
			c0,0,0.6227417-3.1325684-4.5236206-3.8493652c-5.1454468-0.7199097-7.0717163,1.4509888-11.2169189-1.4016113
			c0,0,5.9050903,8.7008667,11.0970459,8.3062744C24.831604,75.1802979,28.7300415,75.711792,29.4750977,72.125z
			 M19.6514282,66.9451294c-0.0012207,0,3.9142456,0.392395,4.5223999-3.2201538c0,0,0.5010376-3.1542969-4.6664429-3.6835938
			c-5.1699829-0.5333252-7.0145874,1.7024536-11.2634888-0.9958496
			C8.2438965,59.0455322,14.473999,67.5219116,19.6514282,66.9451294z M18.6533813,56.0386353
			c0,0,0.6832886-3.12323-4.4463501-3.9359741c-5.1326904-0.81427-7.1008301,1.3181152-11.1883545-1.6105347
			c0,0,5.7306519,8.8079224,10.928833,8.5133667C13.9475098,59.0054932,17.8366089,59.611145,18.6533813,56.0386353z
			 M41.4556885,79.5828857c-1.7608032,4.7555542,1.3779907,5.6905518,1.3779907,5.6905518
			c3.6072388,1.0411987,4.9536133-2.5548706,4.9536133-2.5548706c2.7904663-4.2746582-2.3466187-13.4222412-2.3466187-13.4222412
			C46.0891724,74.1940918,43.21521,74.8301392,41.4556885,79.5828857z M36.0314331,71.7121582
			c-1.5009155,4.8380737,1.6835327,5.6101685,1.6835327,5.6101685c3.6578369,0.8549194,4.807373-2.8029175,4.807373-2.8029175
			c2.5585938-4.4106445-3.0627441-13.2834473-3.0627441-13.2834473
			C40.3685303,66.0905151,37.5349121,66.8740234,36.0314331,71.7121582z M30.5979614,64.055603
			c-1.3560181,4.8790894,1.850769,5.560791,1.850769,5.560791c3.6832886,0.7528076,4.7216797-2.9379272,4.7216797-2.9379272
			c2.4238892-4.482666-3.4622192-13.1893921-3.4622192-13.1893921
			C34.7633057,58.3156738,31.9539185,59.1796265,30.5979614,64.055603z M24.9682007,55.9408569
			C23.4256592,60.765625,26.6060791,61.5625,26.6060791,61.5625c3.6519165,0.8834839,4.8319092-2.7672119,4.8319092-2.7672119
			c2.5911865-4.3898315-2.9587402-13.3057861-2.9587402-13.3057861
			C29.3521729,50.3533936,26.5076904,51.1130371,24.9682007,55.9408569z M19.5610962,48.0723267
			c-1.2572632,4.9017334,1.9619141,5.5247803,1.9619141,5.5247803c3.6994629,0.6817017,4.6627197-3.0255127,4.6627197-3.0255127
			c2.3356934-4.5282593-3.7227173-13.1235352-3.7227173-13.1235352
			C23.6144409,42.255127,20.8220825,43.1693115,19.5610962,48.0723267z M40.5827026,90.1587524
			c3.2850342,1.7446289,7.1412354,7.9694214,7.1412354,7.9694214l2.0498047-1.5180054
			c-2.0115967-3.3433838-3.600708-9.3583374-3.600708-9.3583374L40.5827026,90.1587524z M20.1810303,43.0755615
			c-1.3858032-3.3331299-8.8110352-13.067688-8.8110352-13.067688c4.4590454,6.8583984,7.6680298,14.9492188,7.6680298,14.9492188
			L20.1810303,43.0755615z M10.9760742,50.6547852c0,0-6.15625-6.2722778-10.6351929-13.1213989
			c0,0,5.888916,10.6838989,8.397583,13.3253784L10.9760742,50.6547852z M10.8596191,47.7910767
			c1.8017578,3.0605469,5.701416,1.6601562,5.8168945,1.6188965v0.0009155l0.0043945-0.0031128l0.0061646-0.0018311
			l-0.0018311-0.0021973c0.0822754-0.0884399,2.8348389-3.1120605,0.5463257-5.8513184
			c-2.0593872-2.4673462-5.1696167-4.1365356-7.4240112-4.8173218l-6.4231567-8.6356812l5.5164185,9.5604248
			C8.8051758,41.9387817,9.3118286,45.1619873,10.8596191,47.7910767z"/>
	</g>
</g>
</svg>
