<?xml version="1.0" encoding="utf-8"?>
<!-- Generator: Adobe Illustrator 17.1.0, SVG Export Plug-In . SVG Version: 6.00 Build 0)  -->
<!DOCTYPE svg PUBLIC "-//W3C//DTD SVG 1.1//EN" "http://www.w3.org/Graphics/SVG/1.1/DTD/svg11.dtd">
<svg version="1.1" id="Layer_1" xmlns="http://www.w3.org/2000/svg" xmlns:xlink="http://www.w3.org/1999/xlink" x="0px" y="0px"
	 viewBox="0 0 100 100" enable-background="new 0 0 100 100" xml:space="preserve">
<g>
	<g>
		<path fill="#262F07" d="M33.3397827,94.3875122h33.3179321L49.9981689,79.1712036L33.3397827,94.3875122z M64.9181519,60.4653931
			H35.0784302l14.9197388,13.6297607L64.9181519,60.4653931z M39.8885498,43.4187012h20.2203979V30.739502H39.8885498V43.4187012z
			 M49.8169556,12.6170654L20.6149902,24.9962769l-13.02771,31.9190063c0.0422363,0.1809082,0.0725098,0.3623657,0.0725098,0.546936
			v34.7771606c0,1.1807251,0.9588623,2.1490479,2.1322632,2.1490479H28.526001V58.7466431
			c0-0.949646,0.7629395-1.71875,1.7061768-1.71875h39.5331421c0.9423218,0,1.7052612,0.769104,1.7052612,1.71875v35.6408691
			h18.7349243c1.1712036,0,2.1322021-0.9674072,2.1322021-2.1490479V57.3902588c0-0.0670166,0.0134888-0.1352539,0.0205078-0.201355
			L79.0406494,24.9519043L49.8169556,12.6170654z M61.81427,46.8580322H38.182312
			c-0.9422607,0-1.7061768-0.7700195-1.7061768-1.7196655V29.0198364c0-0.949646,0.763916-1.7196655,1.7061768-1.7196655h23.6310425
			c0.9420166,0,1.7052612,0.7700195,1.7052612,1.7196655v16.1185303h0.0009155
			C63.5195312,46.0880127,62.7565918,46.8580322,61.81427,46.8580322z M68.059082,90.59375V62.6716919L52.7758179,76.6322632
			L68.059082,90.59375z M31.9375,90.5928345l15.282959-13.9605713L31.9375,62.6726074V90.5928345z M98.8283081,53.9873657
			L85.8204346,22.2213745c-0.6316528-1.5430908-2.2607422-3.1896362-3.7906494-3.8302002L52.6484985,6.0811157
			c-1.5308228-0.6417847-3.840271-0.6408691-5.3710938,0.0040283L17.9147949,18.4395752
			c-1.5289917,0.642395-3.1559448,2.2919312-3.7858276,3.8359375L1.1661377,54.0635376
			c-0.3908081,0.9603882,0.0636597,2.059082,1.0166626,2.4530029c0.2322998,0.0966797,0.472229,0.1422729,0.7091064,0.1422729
			c0.5172119,0,1.006897-0.2261353,1.3604126-0.6090088c0.1480713-0.1610107,0.2781982-0.3415527,0.366333-0.5557861
			l0.319519-0.7828369l12.642395-31.0061035c0.2558594-0.6279907,1.1498413-1.5332642,1.7720337-1.7946777L48.71521,9.5550537
			c0.6191406-0.2607422,1.8806152-0.2607422,2.5015869-0.0021362l23.4036255,9.8057251l6.083252,2.5673828
			c0.3889771,0.1955566,0.8394775,0.5913086,1.1939087,1.0169678c0.007019,0.0137939,0.0195923,0.0217285,0.0244751,0.0355225
			l13.0806885,31.6702271l0.0557251-0.0116577l0.3222656,0.7856445c0.3908081,0.9597168,1.4778442,1.4206543,2.435791,1.0197144
			C98.7695312,56.0476685,99.222168,54.9480591,98.8283081,53.9873657z"/>
	</g>
</g>
</svg>
