<?xml version="1.0" encoding="utf-8"?>
<!-- Generator: Adobe Illustrator 17.1.0, SVG Export Plug-In . SVG Version: 6.00 Build 0)  -->
<!DOCTYPE svg PUBLIC "-//W3C//DTD SVG 1.1//EN" "http://www.w3.org/Graphics/SVG/1.1/DTD/svg11.dtd">
<svg version="1.1" id="Layer_1" xmlns="http://www.w3.org/2000/svg" xmlns:xlink="http://www.w3.org/1999/xlink" x="0px" y="0px"
	 viewBox="0 0 100 74.7328186" enable-background="new 0 0 100 74.7328186" xml:space="preserve">
<g>
	<g>
		<path fill-rule="evenodd" clip-rule="evenodd" fill="#262F07" d="M44.6351929,23.5053501
			c-0.5305176-0.0305176-1.0600586-0.0641479-1.5955811-0.0641479c-20.4094849,0-37.5994263,21.7005596-42.8519287,51.2885132
			h6.0441895C10.9943848,45.9263687,26.2929688,24.6028233,44.6351929,23.5053501z M51.7485352,23.5389805
			c-0.6600342-0.0641479-1.3231812-0.0977783-1.9894409-0.0977783c-17.3297119,0-31.9238281,21.7005596-36.383667,51.2885132
			h7.4162598C24.651001,46.2869034,36.942749,25.1246128,51.7485352,23.5389805z M59.9755249,23.6329746
			c-0.6967773-0.114563-1.3922729-0.1954956-2.0996094-0.1954956c-13.6062012,0-25.0657959,21.70117-28.5667114,51.2884521
			h7.7005005v0.0037842C39.8929443,46.6910172,48.9745483,25.7341709,59.9755249,23.6329746z M68.4624634,23.8721104
			c-0.7652588-0.2727051-1.5395508-0.4309082-2.3275146-0.4309082c-9.8172607,0-18.0725708,21.7142925-20.6015625,51.2885132
			h8.2279053C55.630249,47.5225601,61.4039307,26.9903965,68.4624634,23.8721104z M93.9522705,31.1254063
			C97.3057861,31.0411777,100,28.2903843,100,24.9023228c0-3.4414673-2.77771-6.2313232-6.2042847-6.2313232
			c-3.4262085,0-6.2039185,2.789856-6.2039185,6.2313232c0,3.0930786,2.246521,5.652771,5.1886597,6.1404419v20.5495586
			c-1.8527832-4.5159302-3.8101196-8.717041-5.7892456-12.1821899L86.9293823,12.434
			c3.166687-0.2813721,5.651001-2.9493408,5.651001-6.2030034c0-3.4411619-2.77771-6.2310181-6.2039185-6.2310181
			c-3.4265747,0-6.2042847,2.789856-6.2042847,6.2310181c0,3.2280889,2.444458,5.8827519,5.5758667,6.1991582v24.9298687
			c-4.4113159-7.3683453-8.2718506-11.1236553-10.7945557-11.1236553c-5.6575928,0-10.4443359,20.4072857-12.0349121,48.49646
			h36.8917847v-0.0031128c-1.552002-7.8063965-3.347168-14.9499512-5.8580933-21.3584595V31.1254063z"/>
	</g>
</g>
</svg>
